<?xml version="1.0" encoding="utf-8"?>
<svg version="1.2" baseProfile="tiny" id="openrndr-svg" xmlns="http://www.w3.org/2000/svg" xmlns:xlink="http://www.w3.org/1999/xlink" y="0.0" height="576.0" x="0.0" width="768.0" ><g >
<g transform="matrix(1.0 0.0 0.0 1.0 601.0 350.0)">
<g >
<path fill="#75aef7" d="M 96.0 188.9915399589462L96.0 321.22728868706224L80.0 321.22728868706224L80.0 188.9915399589462L96.0 188.9915399589462z"/>
<path fill="#75aef7" d="M 192.0 289.53997973527964L192.0 306.2218413154593L176.0 306.2218413154593L176.0 289.53997973527964L192.0 289.53997973527964z"/>
<path fill="#75aef7" d="M -128.0 215.77799032180542L-128.0 230.9234800050432L-144.0 230.9234800050432L-144.0 215.77799032180542L-128.0 215.77799032180542z"/>
<path fill="#75aef7" d="M 144.0 230.06491923910505L144.0 215.19378168032125L160.0 215.19378168032125L160.0 230.06491923910505L144.0 230.06491923910505z"/>
<path fill="#3077cb" d="M -64.0 202.6587558421852L-64.0 192.18496003215046L-64.0 188.6235853449727L-48.0 188.6235853449727L-48.0 202.6587558421852L-64.0 202.6587558421852z"/>
<path fill="#3077cb" d="M -16.0 188.5299828554531L-16.0 202.53610430419405L-32.0 202.53610430419405L-32.0 188.5299828554531L-16.0 188.5299828554531z"/>
<path fill="#d0e4fe" d="M 0.0 166.25061509112456L0.0 167.01557336754314L-16.0 167.01557336754314L-16.0 149.13624545592342L0.0 149.13624545592342L0.0 166.25061509112456z"/>
<path fill="#3077cb" d="M 208.0 145.8549553920153L208.0 151.91975117847304L192.0 151.91975117847304L192.0 144.9757761803811L208.0 144.9757761803811L208.0 145.8549553920153z"/>
<path fill="#d0e4fe" d="M -184.0 151.85842540947743L-184.0 145.76458057454815L-184.0 144.82084792186595L-168.0 144.82084792186595L-168.0 151.85842540947743L-184.0 151.85842540947743z"/>
<path fill="#75aef7" d="M -16.0 167.01557336754314L-16.0 188.53008285545314L-32.0 188.53008285545314L-32.0 188.62368534497273L-32.0 202.53610430419405L-32.0 208.84297549458168L-48.0 208.84297549458168L-48.0 202.6587558421852L-48.0 188.62368534497273L-64.0 188.62368534497273L-64.0 188.53008285545314L-64.0 148.76506316989753L-48.0 148.76506316989753L-32.0 148.76506316989753L-16.0 148.76506316989753L0.0 148.76506316989753L0.0 149.1363454559234L-16.0 149.1363454559234L-16.0 167.01557336754314z"/>
<path fill="#3077cb" d="M 0.0 166.25061509112456L0.0 148.76516316989756L-16.0 148.76516316989756L-48.0 148.76516316989756L-48.0 136.80653821575925L-16.0 136.80653821575925L0.0 136.80653821575925L16.0 136.80653821575925L16.0 148.76516316989756L16.0 166.25061509112456L0.0 166.25061509112456z"/>
<path fill="#75aef7" d="M 224.0 141.06060998082114L224.0 145.8549553920153L208.0 145.8549553920153L208.0 141.06060998082114L224.0 141.06060998082114z"/>
<path fill="#75aef7" d="M -200.0 145.76458057454815L-200.0 140.99928421182557L-184.0 140.99928421182557L-184.0 145.76458057454815L-200.0 145.76458057454815z"/>
<path fill="#d0e4fe" d="M -48.0 136.80663821575925L-64.0 136.80663821575925L-64.0 192.18496003215046L-80.0 192.18496003215046L-80.0 136.80663821575925L-80.0 136.70804977935936L-80.0 136.37237188590987L-80.0 136.3449811122662L-64.0 136.3449811122662L-32.0 136.3449811122662L0.0 136.3449811122662L16.0 136.3449811122662L16.0 136.37237188590987L16.0 136.80663821575925L0.0 136.80663821575925L-32.0 136.80663821575925L-48.0 136.80663821575925z"/>
<path fill="#75aef7" d="M 128.0 103.20647215028572L128.0 125.27854605797171L112.0 125.27854605797172L112.0 125.15589451998056L112.0 103.20647215028573L128.0 103.20647215028572z"/>
<path fill="#d0e4fe" d="M 96.0 125.15589451998056L96.0 106.44382721884193L112.0 106.44382721884193L112.0 125.15589451998056L96.0 125.15589451998056z"/>
<path fill="#d0e4fe" d="M 288.0 117.9291367946592L288.0 125.09456875098496L272.0 125.09456875098498L272.0 42.12471516186623L288.0 42.12471516186623L288.0 117.9291367946592z"/>
<path fill="#75aef7" d="M 240.0 112.90687908112638L240.0 122.52211412522294L224.0 122.52211412522298L224.0 105.48843629133182L240.0 105.48843629133182L240.0 112.90687908112638z"/>
<path fill="#75aef7" d="M -112.0 112.35494716016615L-112.0 122.27681104924065L-128.0 122.27681104924065L-128.0 105.64336454984698L-112.0 105.64336454984698L-112.0 112.35494716016615z"/>
<path fill="#3077cb" d="M 240.0 112.90687908112638L240.0 104.6266478533413L256.0 104.6266478533413L256.0 112.90687908112638L240.0 112.90687908112638z"/>
<path fill="#d0e4fe" d="M -96.0 103.23874887080973L-96.0 112.35494716016615L-112.0 112.35494716016615L-112.0 103.23874887080973L-96.0 103.23874887080973z"/>
<path fill="#3077cb" d="M 48.0 95.78730651520212L48.0 99.46362498288458L32.0 99.46362498288458L32.0 79.9059076040174L48.0 79.9059076040174L48.0 95.78730651520212z"/>
<path fill="#d0e4fe" d="M -96.0 98.94396978244833L-96.0 80.18348740052372L-80.0 80.18348740052372L-80.0 98.94396978244833L-96.0 98.94396978244833z"/>
<path fill="#d0e4fe" d="M 48.0 95.78730651520212L48.0 78.39535708349467L64.0 78.39535708349467L64.0 95.78730651520212L48.0 95.78730651520212z"/>
<path fill="#75aef7" d="M 128.0 94.53174208681891L128.0 80.05760819048015L144.0 80.05760819048015L144.0 94.53174208681891L128.0 94.53174208681891z"/>
<path fill="#3077cb" d="M -96.0 98.94396978244833L-96.0 103.23884887080973L-112.0 103.23884887080973L-112.0 105.64346454984698L-128.0 105.64346454984698L-128.0 122.27681104924065L-128.0 215.77809032180545L-144.0 215.77809032180537L-144.0 230.9234800050432L-144.0 274.5293294329536L-152.0 274.5293294329536L-152.0 274.5393294329536L-152.0 299.4974480169305L-152.0 309.5915309381639L-168.0 309.5915309381639L-168.0 299.4974480169305L-168.0 274.5393294329536L-168.0 251.4485635700912L-168.0 215.77809032180545L-168.0 206.3127975893437L-168.0 151.85842540947743L-168.0 144.82094792186598L-184.0 144.82094792186598L-184.0 140.99938421182554L-200.0 140.99938421182554L-200.0 117.43853064269456L-200.0 35.27720890270176L-184.0 35.27720890270176L-168.0 35.27720890270176L-152.0 35.27720890270176L-144.0 35.27720890270176L-128.0 35.27720890270176L-112.0 35.27720890270176L-96.0 35.27720890270176L-96.0 98.94396978244833z"/>
<path fill="#75aef7" d="M 32.0 99.46362498288458L32.0 128.68728472914788L32.0 129.63622031255318L32.0 136.3450811122662L32.0 193.56317599852483L16.0 193.56317599852483L16.0 166.25061509112456L16.0 136.3450811122662L0.0 136.3450811122662L-80.0 136.3450811122662L-80.0 129.63622031255318L-80.0 98.94396978244833L-80.0 80.18358740052372L-96.0 80.18358740052372L-96.0 79.9060076040174L-96.0 61.007887737221296L-80.0 61.007887737221296L0.0 61.007887737221296L16.0 61.007887737221296L32.0 61.007887737221296L48.0 61.007887737221296L48.0 79.9060076040174L32.0 79.9060076040174L32.0 80.18358740052372L32.0 99.46362498288458z"/>
<path fill="#3077cb" d="M 48.0 78.39545708349468L48.0 61.0079877372213L32.0 61.0079877372213L16.0 61.0079877372213L16.0 35.27730890270176L-152.0 35.27730890270176L-168.0 35.27730890270176L-168.0 35.2743039978546L16.0 35.2743039978546L48.0 35.2743039978546L64.0 35.2743039978546L80.0 35.2743039978546L96.0 35.2743039978546L112.0 35.2743039978546L128.0 35.2743039978546L144.0 35.2743039978546L144.0 78.39545708349468L144.0 80.05770819048016L128.0 80.05770819048016L128.0 94.53174208681891L128.0 103.20657215028574L112.0 103.20657215028574L112.0 106.44392721884194L96.0 106.44392721884194L96.0 125.15589451998056L96.0 188.99163995894622L80.0 188.99163995894622L80.0 321.22728868706224L80.0 322.75720523989935L64.0 322.75720523989935L64.0 188.99163995894622L64.0 178.17072496447685L64.0 106.4439272188419L64.0 103.20657215028574L64.0 95.78730651520212L64.0 95.61655688026778L64.0 91.91118936411374L64.0 80.05770819048016L64.0 78.39545708349468L48.0 78.39545708349468z"/>
<path fill="#d0e4fe" d="M 144.0 215.19388168032123L144.0 94.53174208681891L144.0 35.274403997854606L80.0 35.274403997854606L63.999999999999986 35.274403997854606L-168.0 35.274403997854606L-168.0 27.442680529913687L64.0 27.442680529913687L144.0 27.442680529913687L160.0 27.442680529913687L176.0 27.442680529913687L192.0 27.442680529913687L208.0 27.442680529913687L224.0 27.442680529913687L240.0 27.442680529913687L256.0 27.442680529913687L256.0 104.6267478533413L240.0 104.6267478533413L240.0 105.48853629133183L224.0 105.48853629133183L224.0 122.52211412522298L224.0 141.06070998082112L208.0 141.06070998082112L208.0 144.97587618038114L192.0 144.97587618038114L192.0 151.91975117847304L192.0 289.5400797352796L176.0 289.5400797352796L176.0 306.2218413154593L176.0 308.36501555825225L160.0 308.36501555825225L160.0 289.5400797352796L160.0 272.6995563630861L160.0 230.06491923910505L160.0 215.19388168032123L144.0 215.19388168032123z"/>
<path fill="#75aef7" d="M -168.0 27.442680529913687L-216.0 27.442680529913687L-168.0 27.442680529913687zM 64.0 27.442680529913687L160.0 27.442680529913687L255.99999999999994 27.442680529913687L64.0 27.442680529913687zM 64.0 27.442680529913687L64.0 28.442680529913687L-168.0 28.442680529913687L-168.0 27.442680529913687L64.0 27.442680529913687zM 256.0 125.3689208754389L256.0 112.90687908112638L256.0 42.12481516186622L255.99999999999994 30.03445674918835L255.99999999999994 27.44278052991369L255.99999999999994 27.442680529913687L272.0 27.442680529913687L288.0 27.442680529913687L288.0 42.12481516186622L272.0 42.12481516186622L272.0 125.09456875098498L272.0 125.3689208754389L256.0 125.3689208754389z"/>
<path fill="#75aef7" d="M -200.0 27.442680529913687L-152.0 27.442680529913687L80.0 27.442680529913687L176.0 27.442680529913687L176.0 27.44278052991369L80.0 27.44275604011777L80.0 27.44278052991369L-152.0 27.4426968564443L-152.0 27.44278052991369L-168.0 27.442747196580356L-200.0 27.442680529913687zM -200.0 27.442680529913687L-200.0 117.43853064269456L-216.0 117.43853064269456L-216.0 27.442680529913687L-200.0 27.442680529913687z"/>
<path fill="#3077cb" stroke-width="536.0" d="M 288.0 117.9291367946592L288.0 27.435679651398402L272.0 27.435679651398402L256.0 27.435679651398402L160.0 27.435679651398406L64.0 27.43567965139841L-168.00000000000006 27.435679651398416L-200.0 27.43567965139841L-216.0 27.435679651398416L-216.0 15.595465822781456L-216.0 15.591269849113338L-216.0 7.5657712398993855L304.0 7.5657712398993855L304.0 15.591269849113338L304.0 15.595143055576216L304.0 15.595465822781456L304.0 23.200506712643964L304.0 27.435679651398402L304.0 117.92913679465921L288.0 117.9291367946592z"/>
</g>
</g>
<g transform="matrix(1.0 0.0 0.0 1.0 983.0 350.0)">
<g >
<path fill="#fb827a" d="M 264.0 190.04053337597588L264.0 319.6747784298583L248.0 319.67477842985835L248.0 190.04053337597588L264.0 190.04053337597588z"/>
<path fill="#fb827a" d="M 360.0 284.56936477458515L360.0 304.16904189013354L344.0 304.16904189013354L344.0 284.56936477458515L360.0 284.56936477458515z"/>
<path fill="#fb827a" d="M 40.0 218.18260600084267L40.0 224.98133575657664L24.0 224.98133575657664L24.0 218.18260600084267L40.0 218.18260600084267z"/>
<path fill="#fb827a" d="M 312.0 224.45845288408802L312.0 217.81465138686917L328.0 217.81465138686917L328.0 224.45845288408802L312.0 224.45845288408802z"/>
<path fill="#ffd6d1" d="M 104.0 208.98499306488725L104.0 187.34542721222272L120.0 187.34542721222272L120.0 208.98499306488725L104.0 208.98499306488725z"/>
<path fill="#ffd6d1" d="M 152.0 187.28410144322714L152.0 208.49115924087016L136.0 208.4911592408702L136.0 187.28410144322714L152.0 187.28410144322714z"/>
<path fill="#ffd6d1" d="M 152.0 165.8310177243127L152.0 148.57785819085836L168.0 148.57785819085836L168.0 165.8310177243127L152.0 165.8310177243127z"/>
<path fill="#ffd6d1" d="M 376.0 146.936225529569L376.0 153.40770799462896L360.0 153.40770799462896L360.0 142.42591525898592L376.0 142.42591525898592L376.0 146.936225529569z"/>
<path fill="#c64340" d="M -16.0 153.37865894615737L-16.0 146.8135739915778L-16.0 141.53507777252378L0.0 141.53507777252378L0.0 153.37865894615737L-16.0 153.37865894615737z"/>
<path fill="#fb827a" d="M 152.0 165.8310177243127L152.0 187.2842014432271L136.0 187.28420144322712L136.0 187.3455272122227L136.0 208.4911592408702L136.0 212.06741987492825L120.0 212.06741987492825L120.0 208.98499306488725L120.0 187.3455272122227L104.0 187.3455272122227L104.0 187.28420144322712L104.0 184.88073817757154L104.0 148.24218029740888L120.0 148.24218029740888L136.0 148.24218029740888L152.0 148.24218029740888L168.0 148.24218029740888L168.0 148.5779581908584L152.0 148.5779581908584L152.0 165.8310177243127z"/>
<path fill="#c64340" d="M 168.0 166.72508288282722L168.0 165.8310177243127L168.0 148.2422802974089L152.0 148.2422802974089L120.0 148.2422802974089L120.0 141.50602872405221L152.0 141.50602872405221L168.0 141.50602872405221L184.0 141.50602872405221L184.0 148.2422802974089L184.0 166.72508288282722L168.0 166.72508288282722z"/>
<path fill="#fb827a" d="M 392.0 141.0154225720875L392.0 146.936225529569L376.0 146.936225529569L376.0 141.01542257208752L392.0 141.0154225720875z"/>
<path fill="#fb827a" d="M -32.0 146.8135739915778L-32.0 140.98637352361595L-16.0 140.98637352361595L-16.0 146.8135739915778L-32.0 146.8135739915778z"/>
<path fill="#ffd6d1" d="M 120.0 141.5061287240522L104.0 141.5061287240522L104.0 184.88073817757154L88.0 184.88073817757154L88.0 141.5061287240522L88.0 140.55709314064688L104.0 140.55709314064688L136.0 140.55709314064688L168.0 140.55709314064688L184.0 140.55709314064688L184.0 141.5061287240522L168.0 141.5061287240522L136.0 141.5061287240522L120.0 141.5061287240522z"/>
<path fill="#fb827a" d="M 408.0 118.36164484968069L408.0 123.38713023526589L392.0 123.3871302352659L392.0 104.11667566906225L408.0 104.11667566906225L408.0 118.36164484968069z"/>
<path fill="#c64340" d="M 56.0 117.92913679465921L56.0 123.04499699771159L40.0 123.0449969977116L40.0 104.05534990006666L56.0 104.05534990006666L56.0 117.92913679465921z"/>
<path fill="#ffd6d1" d="M 456.0 119.8721953702034L456.0 121.56672319771286L440.0 121.56672319771288L440.0 41.90426516068737L456.0 41.90426516068737L456.0 119.8721953702034z"/>
<path fill="#fb827a" d="M 296.0 103.78099777561276L296.0 120.64360899072676L280.0 120.64360899072676L280.0 120.5500065012072L280.0 103.78099777561276L296.0 103.78099777561276z"/>
<path fill="#ffd6d1" d="M 264.0 120.5500065012072L264.0 107.4863652917668L280.0 107.4863652917668L280.0 120.5500065012072L264.0 120.5500065012072z"/>
<path fill="#ffd6d1" d="M 408.0 118.36164484968069L408.0 100.53395969089937L424.0 100.53395969089937L424.0 118.36164484968069L408.0 118.36164484968069z"/>
<path fill="#fb827a" d="M 72.0 99.89613303790604L72.0 117.92913679465917L56.0 117.92913679465921L56.0 99.4914216179745L72.0 99.4914216179745L72.0 99.89613303790604z"/>
<path fill="#c64340" d="M 216.0 94.40909054882775L216.0 100.48356935144265L200.0 100.48356935144265L200.0 80.62890614375478L216.0 80.62890614375478L216.0 94.40909054882775z"/>
<path fill="#c64340" d="M 72.0 99.89613303790604L72.0 80.93553498873268L88.0 80.93553498873268L88.0 99.89613303790604L72.0 99.89613303790604z"/>
<path fill="#ffd6d1" d="M 216.0 94.40909054882775L216.0 79.18936440838483L232.0 79.18936440838483L232.0 94.40909054882775L216.0 94.40909054882775z"/>
<path fill="#c64340" d="M 392.0 123.3871302352659L392.0 141.01552257208755L376.0 141.01552257208755L376.0 142.4260152589859L360.0 142.4260152589859L360.0 153.40770799462896L360.0 284.56946477458513L344.0 284.56946477458513L344.0 304.16904189013354L344.0 317.8253223438337L328.0 317.8253223438337L328.0 284.56946477458513L328.0 277.6701713237806L328.0 224.45845288408802L328.0 217.8147513868692L312.0 217.8147513868692L312.0 92.6532369523227L312.0 35.07031512414299L328.0 35.07031512414299L344.0 35.07031512414299L360.0 35.07031512414299L376.0 35.07031512414299L392.0 35.07031512414299L408.0 35.07031512414299L424.0 35.07031512414299L424.0 100.53405969089937L408.0 100.53405969089937L408.0 104.11677566906224L392.0 104.11677566906224L392.0 123.3871302352659z"/>
<path fill="#fb827a" d="M 296.0 92.6532369523227L296.0 78.85368651493533L312.0 78.85368651493533L312.0 92.6532369523227L296.0 92.6532369523227z"/>
<path fill="#fb827a" d="M 200.0 100.48356935144265L200.0 124.47517270076719L200.0 124.93672980426024L200.0 136.89525475839852L200.0 137.26643704442438L200.0 140.55719314064692L200.0 185.83612910508165L184.0 185.83612910508165L184.0 166.72508288282722L184.0 140.55719314064692L168.0 140.55719314064692L152.0 140.55719314064692L120.0 140.55719314064692L88.0 140.55719314064692L88.0 124.93672980426024L88.0 99.89613303790604L88.0 80.93563498873269L72.0 80.93563498873269L72.0 80.62900614375478L72.0 60.38817470316069L88.0 60.38817470316069L120.0 60.38817470316069L152.0 60.38817470316069L168.0 60.38817470316069L184.0 60.38817470316069L200.0 60.38817470316069L216.0 60.38817470316069L216.0 80.62900614375478L200.0 80.62900614375478L200.0 80.93563498873269L200.0 100.48356935144265z"/>
<path fill="#c64340" d="M 328.0 35.07041512414299L312.0 35.07041512414299L312.0 78.85378651493534L296.0 78.85378651493534L296.0 92.6532369523227L296.0 103.78109777561278L280.0 103.78109777561278L280.0 107.48646529176682L264.0 107.48646529176682L264.0 120.5500065012072L264.0 190.04063337597586L248.0 190.04063337597586L248.0 319.67477842985835L248.0 322.75720523989935L232.0 322.75720523989935L232.0 190.04063337597586L232.0 177.12173154744718L232.0 107.48646529176682L232.0 103.78109777561278L232.0 94.57401880734292L232.0 94.40909054882775L232.0 91.33666373878668L232.0 79.18946440838482L216.0 79.18946440838484L216.0 78.85378651493534L216.0 60.3882747031607L200.0 60.3882747031607L184.0 60.3882747031607L184.0 27.46527423428048L216.0 27.46527423428048L232.0 27.46527423428048L248.0 27.46527423428048L264.0 27.46527423428048L280.0 27.46527423428048L296.0 27.46527423428048L312.0 27.46527423428048L344.0 27.46527423428048L344.0 35.07041512414299L328.0 35.07041512414299z"/>
<path fill="#ffd6d1" d="M 232.0 35.07041512414299L72.0 35.07041512414299L72.0 99.49152161797448L56.0 99.49152161797451L56.0 104.05544990006666L40.0 104.05544990006666L40.0 123.0449969977116L40.0 218.1827060008427L24.0 218.18270600084267L24.0 224.98133575657664L24.0 263.3184719815902L24.0 287.6275396054315L24.0 311.3638398787737L24.0 315.3593808958008L8.0 315.3593808958008L8.0 311.3638398787737L8.0 311.3538398787737L0.0 311.3538398787737L0.0 153.37865894615734L0.0 141.53517777252375L-16.0 141.53517777252375L-16.0 140.98647352361598L-32.0 140.98647352361598L-32.0 119.10078174968005L-32.0 27.46527423428048L-16.0 27.46527423428048L0.0 27.46527423428048L8.0 27.46527423428048L24.0 27.46527423428048L40.0 27.46527423428048L56.0 27.46527423428048L72.0 27.46527423428048L247.99999999999997 27.46527423428048L344.0 27.46527423428048L344.0 35.07041512414299L248.0 35.07041512414299L232.0 35.07041512414299z"/>
<path fill="#fb827a" d="M 248.0 27.465374234280475L24.0 27.46505430234138L24.0 27.465374234280482L7.9999999999999964 27.46525344365041L-32.0 27.464951467075238L24.0 27.464951467075238L248.0 27.464951467075238L344.0 27.464951467075238L344.0 27.465374234280475L248.0 27.465270699454702L248.0 27.465374234280475zM -32.0 27.464951467075238L-32.0 119.10078174968005L-48.0 119.10078174968005L-48.0 27.464951467075238L-32.0 27.464951467075238z"/>
<path fill="#fb827a" d="M 424.0 121.8120262736952L424.0 118.36164484968069L424.0 41.90436516068738L424.0 30.254906750367205L424.0 27.46505146707524L344.0 27.46505146707524L328.0 27.46505146707524L232.0 27.46505146707524L8.0 27.46505146707524L-48.0 27.46505146707524L-48.0 27.46107826061236L8.0 27.46107826061236L232.0 27.46107826061236L328.0 27.46107826061236L424.0 27.46107826061236L440.0 27.46107826061236L456.0 27.46107826061236L456.0 41.90436516068738L440.0 41.90436516068738L440.0 121.56672319771286L440.0 121.81202627369518L424.0 121.8120262736952z"/>
<path fill="#c64340" stroke-width="536.0" d="M 456.0 119.8721953702034L456.0 27.461178260612357L440.0 27.461178260612357L424.0 27.461178260612357L344.0 27.461178260612357L328.0 27.461178260612357L248.0 27.461178260612357L232.0 27.46117826061236L8.0 27.461178260612364L-32.0 27.461178260612364L-48.0 27.46117826061237L-48.0 15.572872118414661L-48.0 15.565771239899385L-48.0 7.5657712398993855L472.0 7.5657712398993855L472.0 15.565771239899385L472.0 15.572872118414663L472.0 23.40449558635558L472.0 23.40740049120274L472.0 27.461178260612357L472.0 119.8721953702034L456.0 119.8721953702034z"/>
</g>
</g>
<g transform="matrix(1.0 0.0 0.0 1.0 400.0 350.0)">
<g >
<path fill="none" stroke-width="0.4" stroke="#000000" stroke-opacity="0.1" d="M -43.0 -16.17384558309866L1083.0 -16.17384558309866"/>
<path fill="none" stroke-width="0.4" stroke="#000000" stroke-opacity="0.1" d="M -43.0 -4.304037171599639L1083.0 -4.304037171599639"/>
<path fill="none" stroke-width="0.4" stroke="#000000" stroke-opacity="0.1" d="M -43.0 7.565771239899384L1083.0 7.565771239899384"/>
<path fill="none" stroke-width="0.4" stroke="#000000" stroke-opacity="0.1" d="M -43.0 19.435579651398406L1083.0 19.435579651398406"/>
<path fill="none" stroke-width="0.4" stroke="#000000" stroke-opacity="0.1" d="M -43.0 31.30538806289743L1083.0 31.30538806289743"/>
<path fill="none" stroke-width="0.4" stroke="#000000" stroke-opacity="0.1" d="M -43.0 43.17519647439645L1083.0 43.17519647439645"/>
<path fill="none" stroke-width="0.4" stroke="#000000" stroke-opacity="0.1" d="M -43.0 55.04500488589547L1083.0 55.04500488589547"/>
<path fill="none" stroke-width="0.4" stroke="#000000" stroke-opacity="0.1" d="M -43.0 66.91481329739449L1083.0 66.91481329739449"/>
<path fill="none" stroke-width="0.4" stroke="#000000" stroke-opacity="0.1" d="M -43.0 78.78462170889351L1083.0 78.78462170889351"/>
<path fill="none" stroke-width="0.4" stroke="#000000" stroke-opacity="0.1" d="M -43.0 90.65443012039253L1083.0 90.65443012039253"/>
<path fill="none" stroke-width="0.4" stroke="#000000" stroke-opacity="0.1" d="M -43.0 102.52423853189156L1083.0 102.52423853189156"/>
<path fill="none" stroke-width="0.4" stroke="#000000" stroke-opacity="0.1" d="M -43.0 114.39404694339058L1083.0 114.39404694339058"/>
<path fill="none" stroke-width="0.4" stroke="#000000" stroke-opacity="0.1" d="M -43.0 126.2638553548896L1083.0 126.2638553548896"/>
<path fill="none" stroke-width="0.4" stroke="#000000" stroke-opacity="0.1" d="M -43.0 138.13366376638862L1083.0 138.13366376638862"/>
<path fill="none" stroke-width="0.4" stroke="#000000" stroke-opacity="0.1" d="M -43.0 150.00347217788766L1083.0 150.00347217788766"/>
<path fill="none" stroke-width="0.4" stroke="#000000" stroke-opacity="0.1" d="M -43.0 161.8732805893867L1083.0 161.8732805893867"/>
<path fill="none" stroke-width="0.4" stroke="#000000" stroke-opacity="0.1" d="M -43.0 173.74308900088573L1083.0 173.74308900088573"/>
<path fill="none" stroke-width="0.4" stroke="#000000" stroke-opacity="0.1" d="M -43.0 185.61289741238477L1083.0 185.61289741238477"/>
<path fill="none" stroke-width="0.4" stroke="#000000" stroke-opacity="0.1" d="M -43.0 197.4827058238838L1083.0 197.4827058238838"/>
<path fill="none" stroke-width="0.4" stroke="#000000" stroke-opacity="0.1" d="M -43.0 209.35251423538284L1083.0 209.35251423538284"/>
<path fill="none" stroke-width="0.4" stroke="#000000" stroke-opacity="0.1" d="M -43.0 221.22232264688188L1083.0 221.22232264688188"/>
<path fill="none" stroke-width="0.4" stroke="#000000" stroke-opacity="0.1" d="M -43.0 233.09213105838091L1083.0 233.09213105838091"/>
<path fill="none" stroke-width="0.4" stroke="#000000" stroke-opacity="0.1" d="M -43.0 244.96193946987995L1083.0 244.96193946987995"/>
<path fill="none" stroke-width="0.4" stroke="#000000" stroke-opacity="0.1" d="M -43.0 256.831747881379L1083.0 256.831747881379"/>
<path fill="none" stroke-width="0.4" stroke="#000000" stroke-opacity="0.1" d="M -43.0 268.701556292878L1083.0 268.701556292878"/>
<path fill="none" stroke-width="0.4" stroke="#000000" stroke-opacity="0.1" d="M -43.0 280.57136470437706L1083.0 280.57136470437706"/>
<path fill="none" stroke-width="0.4" stroke="#000000" stroke-opacity="0.1" d="M -43.0 292.4411731158761L1083.0 292.4411731158761"/>
<path fill="none" stroke-width="0.4" stroke="#000000" stroke-opacity="0.1" d="M -43.0 304.31098152737513L1083.0 304.31098152737513"/>
<path fill="none" stroke-width="0.4" stroke="#000000" stroke-opacity="0.1" d="M -43.0 316.18078993887417L1083.0 316.18078993887417"/>
<path fill="none" stroke-width="0.4" stroke="#000000" stroke-opacity="0.1" d="M -43.0 328.0505983503732L1083.0 328.0505983503732"/>
<path fill="none" stroke-width="0.4" stroke="#000000" stroke-opacity="0.1" d="M -43.0 339.92040676187224L1083.0 339.92040676187224"/>
</g>
</g>
<g transform="matrix(1.0 0.0 0.0 1.0 601.0 350.0)">
<g >
<path fill="none" stroke-width="0.8" stroke="#000000" d="M 264.0 15.591269849113338L264.0 15.595143055576216"/>
<path fill="none" stroke-width="0.8" stroke="#000000" d="M 263.6 15.591269849113338L296.0 15.591269849113338"/>
<path fill="none" stroke-width="0.8" stroke="#000000" d="M -208.0 15.595143055576216L-208.0 15.595465822781456"/>
<path fill="none" stroke-width="0.8" stroke="#000000" d="M -208.4 15.595143055576216L264.0 15.595143055576216"/>
<path fill="none" stroke-width="0.8" stroke="#000000" d="M -208.0 15.595465822781456L-208.0 117.44853064269456"/>
<path fill="none" stroke-width="0.8" stroke="#000000" d="M -208.0 15.595465822781456L-208.0 117.44853064269456"/>
<path fill="none" stroke-width="0.8" stroke="#000000" d="M -160.0 15.595465822781456L-160.0 23.200506712643964"/>
<path fill="none" stroke-width="0.8" stroke="#000000" d="M -159.6 15.595465822781456L-208.0 15.595465822781456"/>
<path fill="none" stroke-width="0.8" stroke="#000000" d="M -160.0 23.200506712643964L-160.0 87.62161320647547"/>
<path fill="none" stroke-width="0.8" stroke="#000000" d="M -160.0 23.200506712643964L-160.0 87.62161320647547"/>
<path fill="none" stroke-width="0.8" stroke="#000000" d="M -160.0 87.62161320647547L-160.0 92.18554148856764"/>
<path fill="none" stroke-width="0.8" stroke="#000000" d="M -160.0 87.62161320647547L-160.0 92.18554148856764"/>
<path fill="none" stroke-width="0.8" stroke="#000000" d="M -160.0 92.18554148856764L-160.0 129.11656511211694"/>
<path fill="none" stroke-width="0.8" stroke="#000000" d="M -160.0 92.18554148856764L-160.0 129.11656511211694"/>
<path fill="none" stroke-width="0.8" stroke="#000000" d="M -192.0 129.11656511211694L-192.0 145.77458057454814"/>
<path fill="none" stroke-width="0.8" stroke="#000000" d="M -192.4 129.11656511211694L-160.0 129.11656511211694"/>
<path fill="none" stroke-width="0.8" stroke="#000000" d="M -160.0 129.11656511211694L-160.0 129.66526936102474"/>
<path fill="none" stroke-width="0.8" stroke="#000000" d="M -160.0 129.11656511211694L-160.0 129.66526936102474"/>
<path fill="none" stroke-width="0.8" stroke="#000000" d="M -176.0 129.66526936102474L-176.0 151.86842540947742"/>
<path fill="none" stroke-width="0.8" stroke="#000000" d="M -176.4 129.66526936102474L-160.0 129.66526936102474"/>
<path fill="none" stroke-width="0.8" stroke="#000000" d="M -160.0 129.66526936102474L-160.0 206.31279758934366"/>
<path fill="none" stroke-width="0.8" stroke="#000000" d="M -160.0 129.66526936102474L-160.0 206.31279758934366"/>
<path fill="none" stroke-width="0.8" stroke="#000000" d="M -160.0 206.31279758934366L-160.0 251.44856357009118"/>
<path fill="none" stroke-width="0.8" stroke="#000000" d="M -160.0 206.31279758934366L-160.0 251.44856357009118"/>
<path fill="none" stroke-width="0.8" stroke="#000000" d="M -160.0 251.44856357009118L-160.0 309.6015309381639"/>
<path fill="none" stroke-width="0.8" stroke="#000000" d="M -160.0 251.44856357009118L-160.0 309.6015309381639"/>
<path fill="none" stroke-width="0.8" stroke="#000000" d="M -148.0 251.44856357009118L-148.0 274.5393294329536"/>
<path fill="none" stroke-width="0.8" stroke="#000000" d="M -147.6 251.44856357009118L-160.0 251.44856357009118"/>
<path fill="none" stroke-width="0.8" stroke="#000000" d="M -136.0 206.31279758934366L-136.0 230.93348000504318"/>
<path fill="none" stroke-width="0.8" stroke="#000000" d="M -135.6 206.31279758934366L-160.0 206.31279758934366"/>
<path fill="none" stroke-width="0.8" stroke="#000000" d="M -120.0 92.18554148856764L-120.0 122.28681104924065"/>
<path fill="none" stroke-width="0.8" stroke="#000000" d="M -119.6 92.18554148856764L-160.0 92.18554148856764"/>
<path fill="none" stroke-width="0.8" stroke="#000000" d="M -104.0 87.62161320647547L-104.0 112.36494716016615"/>
<path fill="none" stroke-width="0.8" stroke="#000000" d="M -103.6 87.62161320647547L-160.0 87.62161320647547"/>
<path fill="none" stroke-width="0.8" stroke="#000000" d="M 72.0 23.200506712643964L72.0 23.200506712643964"/>
<path fill="none" stroke-width="0.8" stroke="#000000" d="M 72.4 23.200506712643964L-160.0 23.200506712643964"/>
<path fill="none" stroke-width="0.8" stroke="#000000" d="M 72.0 23.200506712643964L72.0 48.51836629166167"/>
<path fill="none" stroke-width="0.8" stroke="#000000" d="M 72.0 23.200506712643964L72.0 48.51836629166167"/>
<path fill="none" stroke-width="0.8" stroke="#000000" d="M 24.0 48.51836629166167L24.0 68.75909773225575"/>
<path fill="none" stroke-width="0.8" stroke="#000000" d="M 23.6 48.51836629166167L72.0 48.51836629166167"/>
<path fill="none" stroke-width="0.8" stroke="#000000" d="M 24.0 68.75909773225575L24.0 69.06572657723366"/>
<path fill="none" stroke-width="0.8" stroke="#000000" d="M 24.0 68.75909773225575L24.0 69.06572657723366"/>
<path fill="none" stroke-width="0.8" stroke="#000000" d="M -88.0 69.06572657723366L-88.0 98.95396978244834"/>
<path fill="none" stroke-width="0.8" stroke="#000000" d="M -88.4 69.06572657723366L24.0 69.06572657723366"/>
<path fill="none" stroke-width="0.8" stroke="#000000" d="M 24.0 69.06572657723366L24.0 128.68728472914788"/>
<path fill="none" stroke-width="0.8" stroke="#000000" d="M 24.0 69.06572657723366L24.0 128.68728472914788"/>
<path fill="none" stroke-width="0.8" stroke="#000000" d="M -72.0 128.68728472914788L-72.0 129.63622031255318"/>
<path fill="none" stroke-width="0.8" stroke="#000000" d="M -72.4 128.68728472914788L24.0 128.68728472914788"/>
<path fill="none" stroke-width="0.8" stroke="#000000" d="M -72.0 129.63622031255318L-72.0 192.19496003215045"/>
<path fill="none" stroke-width="0.8" stroke="#000000" d="M -72.0 129.63622031255318L-72.0 192.19496003215045"/>
<path fill="none" stroke-width="0.8" stroke="#000000" d="M 8.0 129.63622031255318L8.0 136.37237188590987"/>
<path fill="none" stroke-width="0.8" stroke="#000000" d="M 8.4 129.63622031255318L-72.0 129.63622031255318"/>
<path fill="none" stroke-width="0.8" stroke="#000000" d="M -40.0 136.37237188590987L-40.0 136.70804977935936"/>
<path fill="none" stroke-width="0.8" stroke="#000000" d="M -40.4 136.37237188590987L8.0 136.37237188590987"/>
<path fill="none" stroke-width="0.8" stroke="#000000" d="M -40.0 136.70804977935936L-40.0 175.4142930317281"/>
<path fill="none" stroke-width="0.8" stroke="#000000" d="M -40.0 136.70804977935936L-40.0 175.4142930317281"/>
<path fill="none" stroke-width="0.8" stroke="#000000" d="M -40.0 175.4142930317281L-40.0 175.47561880072368"/>
<path fill="none" stroke-width="0.8" stroke="#000000" d="M -40.0 175.4142930317281L-40.0 175.47561880072368"/>
<path fill="none" stroke-width="0.8" stroke="#000000" d="M -56.0 175.47561880072368L-56.0 202.6687558421852"/>
<path fill="none" stroke-width="0.8" stroke="#000000" d="M -56.4 175.47561880072368L-40.0 175.47561880072368"/>
<path fill="none" stroke-width="0.8" stroke="#000000" d="M -40.0 175.47561880072368L-40.0 208.85297549458167"/>
<path fill="none" stroke-width="0.8" stroke="#000000" d="M -40.0 175.47561880072368L-40.0 208.85297549458167"/>
<path fill="none" stroke-width="0.8" stroke="#000000" d="M -24.0 175.4142930317281L-24.0 202.54610430419405"/>
<path fill="none" stroke-width="0.8" stroke="#000000" d="M -23.6 175.4142930317281L-40.0 175.4142930317281"/>
<path fill="none" stroke-width="0.8" stroke="#000000" d="M -8.0 136.70804977935936L-8.0 167.02557336754313"/>
<path fill="none" stroke-width="0.8" stroke="#000000" d="M -7.6 136.70804977935936L-40.0 136.70804977935936"/>
<path fill="none" stroke-width="0.8" stroke="#000000" d="M 8.0 136.37237188590987L8.0 166.26061509112455"/>
<path fill="none" stroke-width="0.8" stroke="#000000" d="M 8.0 136.37237188590987L8.0 166.26061509112455"/>
<path fill="none" stroke-width="0.8" stroke="#000000" d="M 24.0 128.68728472914788L24.0 193.57317599852482"/>
<path fill="none" stroke-width="0.8" stroke="#000000" d="M 24.0 128.68728472914788L24.0 193.57317599852482"/>
<path fill="none" stroke-width="0.8" stroke="#000000" d="M 40.0 68.75909773225575L40.0 99.47362498288459"/>
<path fill="none" stroke-width="0.8" stroke="#000000" d="M 40.4 68.75909773225575L24.0 68.75909773225575"/>
<path fill="none" stroke-width="0.8" stroke="#000000" d="M 72.0 48.51836629166167L72.0 66.98387810343631"/>
<path fill="none" stroke-width="0.8" stroke="#000000" d="M 72.0 48.51836629166167L72.0 66.98387810343631"/>
<path fill="none" stroke-width="0.8" stroke="#000000" d="M 72.0 66.98387810343631L72.0 67.31955599688581"/>
<path fill="none" stroke-width="0.8" stroke="#000000" d="M 72.0 66.98387810343631L72.0 67.31955599688581"/>
<path fill="none" stroke-width="0.8" stroke="#000000" d="M 56.0 67.31955599688581L56.0 95.79730651520212"/>
<path fill="none" stroke-width="0.8" stroke="#000000" d="M 55.6 67.31955599688581L72.0 67.31955599688581"/>
<path fill="none" stroke-width="0.8" stroke="#000000" d="M 72.0 67.31955599688581L72.0 91.91118936411374"/>
<path fill="none" stroke-width="0.8" stroke="#000000" d="M 72.0 67.31955599688581L72.0 91.91118936411374"/>
<path fill="none" stroke-width="0.8" stroke="#000000" d="M 72.0 91.91118936411374L72.0 95.61655688026778"/>
<path fill="none" stroke-width="0.8" stroke="#000000" d="M 72.0 91.91118936411374L72.0 95.61655688026778"/>
<path fill="none" stroke-width="0.8" stroke="#000000" d="M 72.0 95.61655688026778L72.0 178.17072496447685"/>
<path fill="none" stroke-width="0.8" stroke="#000000" d="M 72.0 95.61655688026778L72.0 178.17072496447685"/>
<path fill="none" stroke-width="0.8" stroke="#000000" d="M 72.0 178.17072496447685L72.0 322.76720523989934"/>
<path fill="none" stroke-width="0.8" stroke="#000000" d="M 72.0 178.17072496447685L72.0 322.76720523989934"/>
<path fill="none" stroke-width="0.8" stroke="#000000" d="M 88.0 178.17072496447685L88.0 321.23728868706223"/>
<path fill="none" stroke-width="0.8" stroke="#000000" d="M 88.4 178.17072496447685L72.0 178.17072496447685"/>
<path fill="none" stroke-width="0.8" stroke="#000000" d="M 104.0 95.61655688026778L104.0 125.16589451998057"/>
<path fill="none" stroke-width="0.8" stroke="#000000" d="M 104.4 95.61655688026778L72.0 95.61655688026778"/>
<path fill="none" stroke-width="0.8" stroke="#000000" d="M 120.0 91.91118936411374L120.0 125.28854605797173"/>
<path fill="none" stroke-width="0.8" stroke="#000000" d="M 120.4 91.91118936411374L72.0 91.91118936411374"/>
<path fill="none" stroke-width="0.8" stroke="#000000" d="M 136.0 66.98387810343631L136.0 94.54174208681891"/>
<path fill="none" stroke-width="0.8" stroke="#000000" d="M 136.4 66.98387810343631L72.0 66.98387810343631"/>
<path fill="none" stroke-width="0.8" stroke="#000000" d="M 168.0 23.200506712643964L168.0 88.66415127940034"/>
<path fill="none" stroke-width="0.8" stroke="#000000" d="M 168.4 23.200506712643964L72.0 23.200506712643964"/>
<path fill="none" stroke-width="0.8" stroke="#000000" d="M 168.0 88.66415127940034L168.0 92.24686725756322"/>
<path fill="none" stroke-width="0.8" stroke="#000000" d="M 168.0 88.66415127940034L168.0 92.24686725756322"/>
<path fill="none" stroke-width="0.8" stroke="#000000" d="M 168.0 92.24686725756322L168.0 129.1456141605885"/>
<path fill="none" stroke-width="0.8" stroke="#000000" d="M 168.0 92.24686725756322L168.0 129.1456141605885"/>
<path fill="none" stroke-width="0.8" stroke="#000000" d="M 168.0 129.1456141605885L168.0 130.5561068474869"/>
<path fill="none" stroke-width="0.8" stroke="#000000" d="M 168.0 129.1456141605885L168.0 130.5561068474869"/>
<path fill="none" stroke-width="0.8" stroke="#000000" d="M 168.0 130.5561068474869L168.0 205.94484297537016"/>
<path fill="none" stroke-width="0.8" stroke="#000000" d="M 168.0 130.5561068474869L168.0 205.94484297537016"/>
<path fill="none" stroke-width="0.8" stroke="#000000" d="M 152.0 205.94484297537016L152.0 230.07491923910504"/>
<path fill="none" stroke-width="0.8" stroke="#000000" d="M 151.6 205.94484297537016L168.0 205.94484297537016"/>
<path fill="none" stroke-width="0.8" stroke="#000000" d="M 168.0 205.94484297537016L168.0 272.6995563630861"/>
<path fill="none" stroke-width="0.8" stroke="#000000" d="M 168.0 205.94484297537016L168.0 272.6995563630861"/>
<path fill="none" stroke-width="0.8" stroke="#000000" d="M 168.0 272.6995563630861L168.0 308.37501555825224"/>
<path fill="none" stroke-width="0.8" stroke="#000000" d="M 168.0 272.6995563630861L168.0 308.37501555825224"/>
<path fill="none" stroke-width="0.8" stroke="#000000" d="M 184.0 272.6995563630861L184.0 306.2318413154593"/>
<path fill="none" stroke-width="0.8" stroke="#000000" d="M 184.4 272.6995563630861L168.0 272.6995563630861"/>
<path fill="none" stroke-width="0.8" stroke="#000000" d="M 200.0 130.5561068474869L200.0 151.92975117847303"/>
<path fill="none" stroke-width="0.8" stroke="#000000" d="M 200.4 130.5561068474869L168.0 130.5561068474869"/>
<path fill="none" stroke-width="0.8" stroke="#000000" d="M 216.0 129.1456141605885L216.0 145.8649553920153"/>
<path fill="none" stroke-width="0.8" stroke="#000000" d="M 216.4 129.1456141605885L168.0 129.1456141605885"/>
<path fill="none" stroke-width="0.8" stroke="#000000" d="M 232.0 92.24686725756322L232.0 122.53211412522299"/>
<path fill="none" stroke-width="0.8" stroke="#000000" d="M 232.4 92.24686725756322L168.0 92.24686725756322"/>
<path fill="none" stroke-width="0.8" stroke="#000000" d="M 248.0 88.66415127940034L248.0 112.91687908112638"/>
<path fill="none" stroke-width="0.8" stroke="#000000" d="M 248.4 88.66415127940034L168.0 88.66415127940034"/>
<path fill="none" stroke-width="0.8" stroke="#000000" d="M 264.0 15.595143055576216L264.0 30.03445674918835"/>
<path fill="none" stroke-width="0.8" stroke="#000000" d="M 264.0 15.595143055576216L264.0 30.03445674918835"/>
<path fill="none" stroke-width="0.8" stroke="#000000" d="M 264.0 30.03445674918835L264.0 125.37892087543891"/>
<path fill="none" stroke-width="0.8" stroke="#000000" d="M 264.0 30.03445674918835L264.0 125.37892087543891"/>
<path fill="none" stroke-width="0.8" stroke="#000000" d="M 280.0 30.03445674918835L280.0 125.10456875098498"/>
<path fill="none" stroke-width="0.8" stroke="#000000" d="M 280.4 30.03445674918835L264.0 30.03445674918835"/>
<path fill="none" stroke-width="0.8" stroke="#000000" d="M 296.0 15.591269849113338L296.0 117.93913679465922"/>
<path fill="none" stroke-width="0.8" stroke="#000000" d="M 296.0 15.591269849113338L296.0 117.93913679465922"/>
</g>
</g>
<g transform="matrix(1.0 0.0 0.0 1.0 601.0 350.0)">
<g >
<path fill="none" stroke-width="4.0" stroke="#000000" d="M 296.0 15.591269849113338L296.0 -4.304037171599637"/>
<path fill="none" stroke-width="4.0" stroke="#000000" d="M 296.0 15.591269849113338L296.0 108.09901201319158L296.0 15.591269849113338L296.0 108.09901201319158L296.0 15.591269849113338L296.0 -4.304037171599637"/>
<path fill="#c64340" stroke-width="0.8" stroke="#000000" d="M 292.0 -8.304037171599637L300.0 -8.304037171599637L300.0 -0.30403717159963684L292.0 -0.30403717159963684L292.0 -8.304037171599637z"/>
<path fill="#c64340" stroke-width="2.4" stroke="#c64340" d="M 296.0 15.591269849113338L296.0 107.2990120131916L296.0 15.591269849113338L296.0 107.2990120131916L296.0 15.591269849113338L296.0 -4.304037171599637"/>
<path fill="none" stroke-width="4.0" stroke="#000000" d="M 264.0 30.03445674918835L264.0 109.65884045752419L264.0 30.03445674918835L264.0 109.65884045752419L264.0 15.595143055576216L264.0 30.03445674918835L264.0 15.591269849113338L264.0 15.595143055576216"/>
<path fill="#fb827a" stroke-width="0.8" stroke="#000000" d="M 260.0 11.591269849113338L268.0 11.591269849113338L268.0 19.59126984911334L260.0 19.59126984911334L260.0 11.591269849113338z"/>
<path fill="#fb827a" stroke-width="2.4" stroke="#fb827a" d="M 264.0 30.03445674918835L264.0 108.85884045752421L264.0 30.03445674918835L264.0 108.85884045752421L264.0 15.595143055576216L264.0 30.03445674918835L264.0 15.591269849113338L264.0 15.595143055576216"/>
<path fill="none" stroke-width="4.0" stroke="#000000" d="M -208.0 15.595465822781456L-208.0 107.15562259300106L-208.0 15.595465822781456L-208.0 107.15562259300106L-208.0 15.595143055576216L-208.0 15.595465822781456"/>
<path fill="#fb827a" stroke-width="0.8" stroke="#000000" d="M -212.0 11.595143055576216L-204.0 11.595143055576216L-204.0 19.595143055576216L-212.0 19.595143055576216L-212.0 11.595143055576216z"/>
<path fill="#fb827a" stroke-width="2.4" stroke="#fb827a" d="M -208.0 15.595465822781456L-208.0 106.35562259300104L-208.0 15.595465822781456L-208.0 106.35562259300104L-208.0 15.595143055576216L-208.0 15.595465822781456"/>
<path fill="none" stroke-width="4.0" stroke="#000000" d="M -160.0 251.44856357009118L-160.0 303.7801534655615L-160.0 251.44856357009118L-160.0 303.7801534655615L-160.0 206.31279758934366L-160.0 251.44856357009118L-160.0 129.66526936102474L-160.0 206.31279758934366L-160.0 129.11656511211694L-160.0 129.66526936102474L-160.0 92.18554148856764L-160.0 129.11656511211694L-160.0 87.62161320647547L-160.0 92.18554148856764L-160.0 23.200506712643964L-160.0 87.62161320647547L-160.0 15.595465822781456L-160.0 23.200506712643964"/>
<path fill="#ffd6d1" stroke-width="0.8" stroke="#000000" d="M -164.0 11.595465822781456L-156.0 11.595465822781456L-156.0 19.595465822781456L-164.0 19.595465822781456L-164.0 11.595465822781456z"/>
<path fill="#ffd6d1" stroke-width="2.4" stroke="#ffd6d1" d="M -160.0 251.44856357009118L-160.0 302.98015346556156L-160.0 251.44856357009118L-160.0 302.98015346556156L-160.0 206.31279758934366L-160.0 251.44856357009118L-160.0 129.66526936102474L-160.0 206.31279758934366L-160.0 129.11656511211694L-160.0 129.66526936102474L-160.0 92.18554148856764L-160.0 129.11656511211694L-160.0 87.62161320647547L-160.0 92.18554148856764L-160.0 23.200506712643964L-160.0 87.62161320647547L-160.0 15.595465822781456L-160.0 23.200506712643964"/>
<path fill="none" stroke-width="4.0" stroke="#000000" d="M 72.0 178.17072496447685L72.0 310.6823703638716L72.0 178.17072496447685L72.0 310.6823703638716L72.0 95.61655688026778L72.0 178.17072496447685L72.0 91.91118936411374L72.0 95.61655688026778L72.0 67.31955599688581L72.0 91.91118936411374L72.0 66.98387810343631L72.0 67.31955599688581L72.0 48.51836629166167L72.0 66.98387810343631L72.0 23.200506712643964L72.0 48.51836629166167L72.0 23.200506712643964L72.0 23.200506712643964"/>
<path fill="#c64340" stroke-width="0.8" stroke="#000000" d="M 68.0 19.200506712643964L76.0 19.200506712643964L76.0 27.200506712643964L68.0 27.200506712643964L68.0 19.200506712643964z"/>
<path fill="#c64340" stroke-width="2.4" stroke="#c64340" d="M 72.0 178.17072496447685L72.0 309.8823703638716L72.0 178.17072496447685L72.0 309.8823703638716L72.0 95.61655688026778L72.0 178.17072496447685L72.0 91.91118936411374L72.0 95.61655688026778L72.0 67.31955599688581L72.0 91.91118936411374L72.0 66.98387810343631L72.0 67.31955599688581L72.0 48.51836629166167L72.0 66.98387810343631L72.0 23.200506712643964L72.0 48.51836629166167L72.0 23.200506712643964L72.0 23.200506712643964"/>
<path fill="none" stroke-width="4.0" stroke="#000000" d="M 24.0 128.68728472914788L24.0 174.1364871372835L24.0 128.68728472914788L24.0 174.1364871372835L24.0 69.06572657723366L24.0 128.68728472914788L24.0 68.75909773225575L24.0 69.06572657723366L24.0 48.51836629166167L24.0 68.75909773225575"/>
<path fill="#fb827a" stroke-width="0.8" stroke="#000000" d="M 20.0 44.51836629166167L28.0 44.51836629166167L28.0 52.51836629166167L20.0 52.51836629166167L20.0 44.51836629166167z"/>
<path fill="#fb827a" stroke-width="2.4" stroke="#fb827a" d="M 24.0 128.68728472914788L24.0 173.33648713728348L24.0 128.68728472914788L24.0 173.33648713728348L24.0 69.06572657723366L24.0 128.68728472914788L24.0 68.75909773225575L24.0 69.06572657723366L24.0 48.51836629166167L24.0 68.75909773225575"/>
<path fill="none" stroke-width="4.0" stroke="#000000" d="M 136.0 66.98387810343631L136.0 81.42638502590295L136.0 66.98387810343631L136.0 81.42638502590295"/>
<path fill="#fb827a" stroke-width="0.8" stroke="#000000" d="M 132.0 62.98387810343631L140.0 62.98387810343631L140.0 70.98387810343631L132.0 70.98387810343631L132.0 62.98387810343631z"/>
<path fill="#fb827a" stroke-width="2.4" stroke="#fb827a" d="M 136.0 66.98387810343631L136.0 80.62638502590295L136.0 66.98387810343631L136.0 80.62638502590295"/>
<path fill="none" stroke-width="4.0" stroke="#000000" d="M 168.0 272.6995563630861L168.0 306.34923661210047L168.0 272.6995563630861L168.0 306.34923661210047L168.0 205.94484297537016L168.0 272.6995563630861L168.0 130.5561068474869L168.0 205.94484297537016L168.0 129.1456141605885L168.0 130.5561068474869L168.0 92.24686725756322L168.0 129.1456141605885L168.0 88.66415127940034L168.0 92.24686725756322L168.0 23.200506712643964L168.0 88.66415127940034"/>
<path fill="#c64340" stroke-width="0.8" stroke="#000000" d="M 164.0 19.200506712643964L172.0 19.200506712643964L172.0 27.200506712643964L164.0 27.200506712643964L164.0 19.200506712643964z"/>
<path fill="#c64340" stroke-width="2.4" stroke="#c64340" d="M 168.0 272.6995563630861L168.0 305.54923661210046L168.0 272.6995563630861L168.0 305.54923661210046L168.0 205.94484297537016L168.0 272.6995563630861L168.0 130.5561068474869L168.0 205.94484297537016L168.0 129.1456141605885L168.0 130.5561068474869L168.0 92.24686725756322L168.0 129.1456141605885L168.0 88.66415127940034L168.0 92.24686725756322L168.0 23.200506712643964L168.0 88.66415127940034"/>
<path fill="none" stroke-width="4.0" stroke="#000000" d="M 56.0 67.31955599688581L56.0 83.20430503381573L56.0 67.31955599688581L56.0 83.20430503381573"/>
<path fill="#ffd6d1" stroke-width="0.8" stroke="#000000" d="M 52.0 63.31955599688581L60.0 63.31955599688581L60.0 71.31955599688581L52.0 71.31955599688581L52.0 63.31955599688581z"/>
<path fill="#ffd6d1" stroke-width="2.4" stroke="#ffd6d1" d="M 56.0 67.31955599688581L56.0 82.40430503381573L56.0 67.31955599688581L56.0 82.40430503381573"/>
<path fill="none" stroke-width="4.0" stroke="#000000" d="M -88.0 69.06572657723366L-88.0 88.6568497805122L-88.0 69.06572657723366L-88.0 88.6568497805122"/>
<path fill="#c64340" stroke-width="0.8" stroke="#000000" d="M -92.0 65.06572657723366L-84.0 65.06572657723366L-84.0 73.06572657723366L-92.0 73.06572657723366L-92.0 65.06572657723366z"/>
<path fill="#c64340" stroke-width="2.4" stroke="#c64340" d="M -88.0 69.06572657723366L-88.0 87.85684978051219L-88.0 69.06572657723366L-88.0 87.85684978051219"/>
<path fill="none" stroke-width="4.0" stroke="#000000" d="M 40.0 68.75909773225575L40.0 89.32587269553173L40.0 68.75909773225575L40.0 89.32587269553173"/>
<path fill="#c64340" stroke-width="0.8" stroke="#000000" d="M 36.0 64.75909773225575L44.0 64.75909773225575L44.0 72.75909773225575L36.0 72.75909773225575L36.0 64.75909773225575z"/>
<path fill="#c64340" stroke-width="2.4" stroke="#c64340" d="M 40.0 68.75909773225575L40.0 88.52587269553173L40.0 68.75909773225575L40.0 88.52587269553173"/>
<path fill="none" stroke-width="4.0" stroke="#000000" d="M -104.0 87.62161320647547L-104.0 106.6728842911285L-104.0 87.62161320647547L-104.0 106.6728842911285"/>
<path fill="#fb827a" stroke-width="0.8" stroke="#000000" d="M -108.0 83.62161320647547L-100.0 83.62161320647547L-100.0 91.62161320647547L-108.0 91.62161320647547L-108.0 83.62161320647547z"/>
<path fill="#fb827a" stroke-width="2.4" stroke="#fb827a" d="M -104.0 87.62161320647547L-104.0 105.8728842911285L-104.0 87.62161320647547L-104.0 105.8728842911285"/>
<path fill="none" stroke-width="4.0" stroke="#000000" d="M 248.0 88.66415127940034L248.0 107.11341359055741L248.0 88.66415127940034L248.0 107.11341359055741"/>
<path fill="#ffd6d1" stroke-width="0.8" stroke="#000000" d="M 244.0 84.66415127940034L252.0 84.66415127940034L252.0 92.66415127940034L244.0 92.66415127940034L244.0 84.66415127940034z"/>
<path fill="#ffd6d1" stroke-width="2.4" stroke="#ffd6d1" d="M 248.0 88.66415127940034L248.0 106.31341359055742L248.0 88.66415127940034L248.0 106.31341359055742"/>
<path fill="none" stroke-width="4.0" stroke="#000000" d="M 104.0 95.61655688026778L104.0 109.43581950370559L104.0 95.61655688026778L104.0 109.43581950370559"/>
<path fill="#ffd6d1" stroke-width="0.8" stroke="#000000" d="M 100.0 91.61655688026778L108.0 91.61655688026778L108.0 99.61655688026778L100.0 99.61655688026778L100.0 91.61655688026778z"/>
<path fill="#ffd6d1" stroke-width="2.4" stroke="#ffd6d1" d="M 104.0 95.61655688026778L104.0 108.63581950370559L104.0 95.61655688026778L104.0 108.63581950370559"/>
<path fill="none" stroke-width="4.0" stroke="#000000" d="M 120.0 91.91118936411374L120.0 109.39986771104273L120.0 91.91118936411374L120.0 109.39986771104273"/>
<path fill="#fb827a" stroke-width="0.8" stroke="#000000" d="M 116.0 87.91118936411374L124.0 87.91118936411374L124.0 95.91118936411374L116.0 95.91118936411374L116.0 87.91118936411374z"/>
<path fill="#fb827a" stroke-width="2.4" stroke="#fb827a" d="M 120.0 91.91118936411374L120.0 108.59986771104273L120.0 91.91118936411374L120.0 108.59986771104273"/>
<path fill="none" stroke-width="4.0" stroke="#000000" d="M 280.0 30.03445674918835L280.0 109.43202459225785L280.0 30.03445674918835L280.0 109.43202459225785"/>
<path fill="#ffd6d1" stroke-width="0.8" stroke="#000000" d="M 276.0 26.03445674918835L284.0 26.03445674918835L284.0 34.03445674918835L276.0 34.03445674918835L276.0 26.03445674918835z"/>
<path fill="#ffd6d1" stroke-width="2.4" stroke="#ffd6d1" d="M 280.0 30.03445674918835L280.0 108.63202459225784L280.0 30.03445674918835L280.0 108.63202459225784"/>
<path fill="none" stroke-width="4.0" stroke="#000000" d="M -120.0 92.18554148856764L-120.0 111.76158091750229L-120.0 92.18554148856764L-120.0 111.76158091750229"/>
<path fill="#c64340" stroke-width="0.8" stroke="#000000" d="M -124.0 88.18554148856764L-116.0 88.18554148856764L-116.0 96.18554148856764L-124.0 96.18554148856764L-124.0 88.18554148856764z"/>
<path fill="#c64340" stroke-width="2.4" stroke="#c64340" d="M -120.0 92.18554148856764L-120.0 110.96158091750229L-120.0 92.18554148856764L-120.0 110.96158091750229"/>
<path fill="none" stroke-width="4.0" stroke="#000000" d="M 232.0 92.24686725756322L232.0 112.2375187380605L232.0 92.24686725756322L232.0 112.2375187380605"/>
<path fill="#fb827a" stroke-width="0.8" stroke="#000000" d="M 228.0 88.24686725756322L236.0 88.24686725756322L236.0 96.24686725756322L228.0 96.24686725756322L228.0 88.24686725756322z"/>
<path fill="#fb827a" stroke-width="2.4" stroke="#fb827a" d="M 232.0 92.24686725756322L232.0 111.4375187380605L232.0 92.24686725756322L232.0 111.4375187380605"/>
<path fill="none" stroke-width="4.0" stroke="#000000" d="M -72.0 129.63622031255318L-72.0 173.48406596118693L-72.0 129.63622031255318L-72.0 173.48406596118693L-72.0 128.68728472914788L-72.0 129.63622031255318"/>
<path fill="#ffd6d1" stroke-width="0.8" stroke="#000000" d="M -76.0 124.68728472914785L-68.0 124.68728472914785L-68.0 132.68728472914785L-76.0 132.68728472914785L-76.0 124.68728472914785z"/>
<path fill="#ffd6d1" stroke-width="2.4" stroke="#ffd6d1" d="M -72.0 129.63622031255318L-72.0 172.68406596118695L-72.0 129.63622031255318L-72.0 172.68406596118695L-72.0 128.68728472914788L-72.0 129.63622031255318"/>
<path fill="none" stroke-width="4.0" stroke="#000000" d="M -192.0 129.11656511211694L-192.0 135.77161015089226L-192.0 129.11656511211694L-192.0 135.77161015089226"/>
<path fill="#fb827a" stroke-width="0.8" stroke="#000000" d="M -196.0 125.11656511211692L-188.0 125.11656511211692L-188.0 133.11656511211692L-196.0 133.11656511211692L-196.0 125.11656511211692z"/>
<path fill="#fb827a" stroke-width="2.4" stroke="#fb827a" d="M -192.0 129.11656511211694L-192.0 134.97161015089227L-192.0 129.11656511211694L-192.0 134.97161015089227"/>
<path fill="none" stroke-width="4.0" stroke="#000000" d="M 216.0 129.1456141605885L216.0 135.82221429638705L216.0 129.1456141605885L216.0 135.82221429638705"/>
<path fill="#fb827a" stroke-width="0.8" stroke="#000000" d="M 212.0 125.14561416058848L220.0 125.14561416058848L220.0 133.14561416058848L212.0 133.14561416058848L212.0 125.14561416058848z"/>
<path fill="#fb827a" stroke-width="2.4" stroke="#fb827a" d="M 216.0 129.1456141605885L216.0 135.02221429638703L216.0 129.1456141605885L216.0 135.02221429638703"/>
<path fill="none" stroke-width="4.0" stroke="#000000" d="M 8.0 136.37237188590987L8.0 155.51961028911097L8.0 136.37237188590987L8.0 155.51961028911097L8.0 129.63622031255318L8.0 136.37237188590987"/>
<path fill="#c64340" stroke-width="0.8" stroke="#000000" d="M 4.0 125.63622031255318L12.0 125.63622031255318L12.0 133.63622031255318L4.0 133.63622031255318L4.0 125.63622031255318z"/>
<path fill="#c64340" stroke-width="2.4" stroke="#c64340" d="M 8.0 136.37237188590987L8.0 154.71961028911096L8.0 136.37237188590987L8.0 154.71961028911096L8.0 129.63622031255318L8.0 136.37237188590987"/>
<path fill="none" stroke-width="4.0" stroke="#000000" d="M -40.0 175.47561880072368L-40.0 200.8955502234209L-40.0 175.47561880072368L-40.0 200.8955502234209L-40.0 175.4142930317281L-40.0 175.47561880072368L-40.0 136.70804977935936L-40.0 175.4142930317281L-40.0 136.37237188590987L-40.0 136.70804977935936"/>
<path fill="#fb827a" stroke-width="0.8" stroke="#000000" d="M -44.0 132.37237188590984L-36.0 132.37237188590984L-36.0 140.37237188590984L-44.0 140.37237188590984L-44.0 132.37237188590984z"/>
<path fill="#fb827a" stroke-width="2.4" stroke="#fb827a" d="M -40.0 175.47561880072368L-40.0 200.0955502234209L-40.0 175.47561880072368L-40.0 200.0955502234209L-40.0 175.4142930317281L-40.0 175.47561880072368L-40.0 136.70804977935936L-40.0 175.4142930317281L-40.0 136.37237188590987L-40.0 136.70804977935936"/>
<path fill="none" stroke-width="4.0" stroke="#000000" d="M -176.0 129.66526936102474L-176.0 142.22634706985858L-176.0 129.66526936102474L-176.0 142.22634706985858"/>
<path fill="#c64340" stroke-width="0.8" stroke="#000000" d="M -180.0 125.66526936102474L-172.0 125.66526936102474L-172.0 133.66526936102474L-180.0 133.66526936102474L-180.0 125.66526936102474z"/>
<path fill="#c64340" stroke-width="2.4" stroke="#c64340" d="M -176.0 129.66526936102474L-176.0 141.4263470698586L-176.0 129.66526936102474L-176.0 141.4263470698586"/>
<path fill="none" stroke-width="4.0" stroke="#000000" d="M 200.0 130.5561068474869L200.0 142.2545492538808L200.0 130.5561068474869L200.0 142.2545492538808"/>
<path fill="#ffd6d1" stroke-width="0.8" stroke="#000000" d="M 196.0 126.55610684748689L204.0 126.55610684748689L204.0 134.5561068474869L196.0 134.5561068474869L196.0 126.55610684748689z"/>
<path fill="#ffd6d1" stroke-width="2.4" stroke="#ffd6d1" d="M 200.0 130.5561068474869L200.0 141.4545492538808L200.0 130.5561068474869L200.0 141.4545492538808"/>
<path fill="none" stroke-width="4.0" stroke="#000000" d="M -8.0 136.70804977935936L-8.0 154.61793932912644L-8.0 136.70804977935936L-8.0 154.61793932912644"/>
<path fill="#ffd6d1" stroke-width="0.8" stroke="#000000" d="M -12.0 132.70804977935933L-4.0 132.70804977935933L-4.0 140.70804977935933L-12.0 140.70804977935933L-12.0 132.70804977935933z"/>
<path fill="#ffd6d1" stroke-width="2.4" stroke="#ffd6d1" d="M -8.0 136.70804977935936L-8.0 153.81793932912643L-8.0 136.70804977935936L-8.0 153.81793932912643"/>
<path fill="none" stroke-width="4.0" stroke="#000000" d="M -24.0 175.4142930317281L-24.0 197.16757302432558L-24.0 175.4142930317281L-24.0 197.16757302432558"/>
<path fill="#ffd6d1" stroke-width="0.8" stroke="#000000" d="M -28.0 171.4142930317281L-20.0 171.4142930317281L-20.0 179.4142930317281L-28.0 179.4142930317281L-28.0 171.4142930317281z"/>
<path fill="#ffd6d1" stroke-width="2.4" stroke="#ffd6d1" d="M -24.0 175.4142930317281L-24.0 196.36757302432557L-24.0 175.4142930317281L-24.0 196.36757302432557"/>
<path fill="none" stroke-width="4.0" stroke="#000000" d="M -56.0 175.47561880072368L-56.0 197.6801177591018L-56.0 175.47561880072368L-56.0 197.6801177591018"/>
<path fill="#ffd6d1" stroke-width="0.8" stroke="#000000" d="M -60.0 171.47561880072368L-52.0 171.47561880072368L-52.0 179.47561880072368L-60.0 179.47561880072368L-60.0 171.47561880072368z"/>
<path fill="#ffd6d1" stroke-width="2.4" stroke="#ffd6d1" d="M -56.0 175.47561880072368L-56.0 196.8801177591018L-56.0 175.47561880072368L-56.0 196.8801177591018"/>
<path fill="none" stroke-width="4.0" stroke="#000000" d="M 152.0 205.94484297537016L152.0 213.31491324519897L152.0 205.94484297537016L152.0 213.31491324519897"/>
<path fill="#fb827a" stroke-width="0.8" stroke="#000000" d="M 148.0 201.94484297537014L156.0 201.94484297537014L156.0 209.94484297537014L148.0 209.94484297537014L148.0 201.94484297537014z"/>
<path fill="#fb827a" stroke-width="2.4" stroke="#fb827a" d="M 152.0 205.94484297537016L152.0 212.51491324519895L152.0 205.94484297537016L152.0 212.51491324519895"/>
<path fill="none" stroke-width="4.0" stroke="#000000" d="M -136.0 206.31279758934366L-136.0 213.81644874213313L-136.0 206.31279758934366L-136.0 213.81644874213313"/>
<path fill="#fb827a" stroke-width="0.8" stroke="#000000" d="M -140.0 202.31279758934363L-132.0 202.31279758934363L-132.0 210.31279758934363L-140.0 210.31279758934363L-140.0 202.31279758934363z"/>
<path fill="#fb827a" stroke-width="2.4" stroke="#fb827a" d="M -136.0 206.31279758934366L-136.0 213.01644874213312L-136.0 206.31279758934366L-136.0 213.01644874213312"/>
<path fill="none" stroke-width="4.0" stroke="#000000" d="M 184.0 272.6995563630861L184.0 292.9217214097577L184.0 272.6995563630861L184.0 292.9217214097577"/>
<path fill="#fb827a" stroke-width="0.8" stroke="#000000" d="M 180.0 268.6995563630861L188.0 268.6995563630861L188.0 276.6995563630861L180.0 276.6995563630861L180.0 268.6995563630861z"/>
<path fill="#fb827a" stroke-width="2.4" stroke="#fb827a" d="M 184.0 272.6995563630861L184.0 292.1217214097577L184.0 272.6995563630861L184.0 292.1217214097577"/>
<path fill="none" stroke-width="4.0" stroke="#000000" d="M 88.0 178.17072496447685L88.0 307.8722823778954L88.0 178.17072496447685L88.0 307.8722823778954"/>
<path fill="#fb827a" stroke-width="0.8" stroke="#000000" d="M 84.0 174.17072496447685L92.0 174.17072496447685L92.0 182.17072496447685L84.0 182.17072496447685L84.0 174.17072496447685z"/>
<path fill="#fb827a" stroke-width="2.4" stroke="#fb827a" d="M 88.0 178.17072496447685L88.0 307.07228237789536L88.0 178.17072496447685L88.0 307.07228237789536"/>
</g>
</g>
<g transform="matrix(1.0 0.0 0.0 1.0 983.0 350.0)">
<g >
<path fill="none" stroke-width="0.8" stroke="#000000" d="M 432.0 15.565771239899385L432.0 15.572872118414663"/>
<path fill="none" stroke-width="0.8" stroke="#000000" d="M 431.6 15.565771239899385L464.0 15.565771239899385"/>
<path fill="none" stroke-width="0.8" stroke="#000000" d="M -40.0 15.572872118414663L-40.0 15.572872118414663"/>
<path fill="none" stroke-width="0.8" stroke="#000000" d="M -40.4 15.572872118414663L432.0 15.572872118414663"/>
<path fill="none" stroke-width="0.8" stroke="#000000" d="M -40.0 15.572872118414663L-40.0 119.11078174968006"/>
<path fill="none" stroke-width="0.8" stroke="#000000" d="M -40.0 15.572872118414663L-40.0 119.11078174968006"/>
<path fill="none" stroke-width="0.8" stroke="#000000" d="M 336.0 15.572872118414663L336.0 23.40449558635558"/>
<path fill="none" stroke-width="0.8" stroke="#000000" d="M 336.4 15.572872118414663L-40.0 15.572872118414663"/>
<path fill="none" stroke-width="0.8" stroke="#000000" d="M 240.0 23.40449558635558L240.0 23.40740049120274"/>
<path fill="none" stroke-width="0.8" stroke="#000000" d="M 239.6 23.40449558635558L336.0 23.40449558635558"/>
<path fill="none" stroke-width="0.8" stroke="#000000" d="M 16.0 23.40740049120274L16.0 91.3689404593107"/>
<path fill="none" stroke-width="0.8" stroke="#000000" d="M 15.6 23.40740049120274L240.0 23.40740049120274"/>
<path fill="none" stroke-width="0.8" stroke="#000000" d="M 16.0 91.3689404593107L16.0 93.77355613834796"/>
<path fill="none" stroke-width="0.8" stroke="#000000" d="M 16.0 91.3689404593107L16.0 93.77355613834796"/>
<path fill="none" stroke-width="0.8" stroke="#000000" d="M 16.0 93.77355613834796L16.0 129.12947580032653"/>
<path fill="none" stroke-width="0.8" stroke="#000000" d="M 16.0 93.77355613834796L16.0 129.12947580032653"/>
<path fill="none" stroke-width="0.8" stroke="#000000" d="M -24.0 129.12947580032653L-24.0 146.8235739915778"/>
<path fill="none" stroke-width="0.8" stroke="#000000" d="M -24.4 129.12947580032653L16.0 129.12947580032653"/>
<path fill="none" stroke-width="0.8" stroke="#000000" d="M 16.0 129.12947580032653L16.0 132.95103951036694"/>
<path fill="none" stroke-width="0.8" stroke="#000000" d="M 16.0 129.12947580032653L16.0 132.95103951036694"/>
<path fill="none" stroke-width="0.8" stroke="#000000" d="M -8.0 132.95103951036694L-8.0 153.38865894615736"/>
<path fill="none" stroke-width="0.8" stroke="#000000" d="M -8.4 132.95103951036694L16.0 132.95103951036694"/>
<path fill="none" stroke-width="0.8" stroke="#000000" d="M 16.0 132.95103951036694L16.0 203.9081819103064"/>
<path fill="none" stroke-width="0.8" stroke="#000000" d="M 16.0 132.95103951036694L16.0 203.9081819103064"/>
<path fill="none" stroke-width="0.8" stroke="#000000" d="M 16.0 203.9081819103064L16.0 287.6275396054315"/>
<path fill="none" stroke-width="0.8" stroke="#000000" d="M 16.0 203.9081819103064L16.0 287.6275396054315"/>
<path fill="none" stroke-width="0.8" stroke="#000000" d="M 4.0 287.6275396054315L4.0 311.3638398787737"/>
<path fill="none" stroke-width="0.8" stroke="#000000" d="M 3.6 287.6275396054315L16.0 287.6275396054315"/>
<path fill="none" stroke-width="0.8" stroke="#000000" d="M 16.0 287.6275396054315L16.0 315.3693808958008"/>
<path fill="none" stroke-width="0.8" stroke="#000000" d="M 16.0 287.6275396054315L16.0 315.3693808958008"/>
<path fill="none" stroke-width="0.8" stroke="#000000" d="M 32.0 203.9081819103064L32.0 224.99133575657663"/>
<path fill="none" stroke-width="0.8" stroke="#000000" d="M 32.4 203.9081819103064L16.0 203.9081819103064"/>
<path fill="none" stroke-width="0.8" stroke="#000000" d="M 48.0 93.77355613834796L48.0 123.05499699771161"/>
<path fill="none" stroke-width="0.8" stroke="#000000" d="M 48.4 93.77355613834796L16.0 93.77355613834796"/>
<path fill="none" stroke-width="0.8" stroke="#000000" d="M 64.0 91.3689404593107L64.0 117.93913679465922"/>
<path fill="none" stroke-width="0.8" stroke="#000000" d="M 64.4 91.3689404593107L16.0 91.3689404593107"/>
<path fill="none" stroke-width="0.8" stroke="#000000" d="M 240.0 23.40740049120274L240.0 49.13807932572227"/>
<path fill="none" stroke-width="0.8" stroke="#000000" d="M 240.0 23.40740049120274L240.0 49.13807932572227"/>
<path fill="none" stroke-width="0.8" stroke="#000000" d="M 192.0 49.13807932572227L192.0 68.03609919251838"/>
<path fill="none" stroke-width="0.8" stroke="#000000" d="M 191.6 49.13807932572227L240.0 49.13807932572227"/>
<path fill="none" stroke-width="0.8" stroke="#000000" d="M 192.0 68.03609919251838L192.0 68.3136789890247"/>
<path fill="none" stroke-width="0.8" stroke="#000000" d="M 192.0 68.03609919251838L192.0 68.3136789890247"/>
<path fill="none" stroke-width="0.8" stroke="#000000" d="M 80.0 68.3136789890247L80.0 99.90613303790605"/>
<path fill="none" stroke-width="0.8" stroke="#000000" d="M 79.6 68.3136789890247L192.0 68.3136789890247"/>
<path fill="none" stroke-width="0.8" stroke="#000000" d="M 192.0 68.3136789890247L192.0 124.47517270076717"/>
<path fill="none" stroke-width="0.8" stroke="#000000" d="M 192.0 68.3136789890247L192.0 124.47517270076717"/>
<path fill="none" stroke-width="0.8" stroke="#000000" d="M 96.0 124.47517270076717L96.0 124.93672980426022"/>
<path fill="none" stroke-width="0.8" stroke="#000000" d="M 95.6 124.47517270076717L192.0 124.47517270076717"/>
<path fill="none" stroke-width="0.8" stroke="#000000" d="M 96.0 124.93672980426022L96.0 184.89073817757154"/>
<path fill="none" stroke-width="0.8" stroke="#000000" d="M 96.0 124.93672980426022L96.0 184.89073817757154"/>
<path fill="none" stroke-width="0.8" stroke="#000000" d="M 176.0 124.93672980426022L176.0 136.89525475839852"/>
<path fill="none" stroke-width="0.8" stroke="#000000" d="M 176.4 124.93672980426022L96.0 124.93672980426022"/>
<path fill="none" stroke-width="0.8" stroke="#000000" d="M 128.0 136.89525475839852L128.0 137.26643704442438"/>
<path fill="none" stroke-width="0.8" stroke="#000000" d="M 127.6 136.89525475839852L176.0 136.89525475839852"/>
<path fill="none" stroke-width="0.8" stroke="#000000" d="M 128.0 137.26643704442438L128.0 176.6601744439541"/>
<path fill="none" stroke-width="0.8" stroke="#000000" d="M 128.0 137.26643704442438L128.0 176.6601744439541"/>
<path fill="none" stroke-width="0.8" stroke="#000000" d="M 128.0 176.6601744439541L128.0 176.7537769334737"/>
<path fill="none" stroke-width="0.8" stroke="#000000" d="M 128.0 176.6601744439541L128.0 176.7537769334737"/>
<path fill="none" stroke-width="0.8" stroke="#000000" d="M 112.0 176.7537769334737L112.0 208.99499306488724"/>
<path fill="none" stroke-width="0.8" stroke="#000000" d="M 111.6 176.7537769334737L128.0 176.7537769334737"/>
<path fill="none" stroke-width="0.8" stroke="#000000" d="M 128.0 176.7537769334737L128.0 212.07741987492824"/>
<path fill="none" stroke-width="0.8" stroke="#000000" d="M 128.0 176.7537769334737L128.0 212.07741987492824"/>
<path fill="none" stroke-width="0.8" stroke="#000000" d="M 144.0 176.6601744439541L144.0 208.50115924087018"/>
<path fill="none" stroke-width="0.8" stroke="#000000" d="M 144.4 176.6601744439541L128.0 176.6601744439541"/>
<path fill="none" stroke-width="0.8" stroke="#000000" d="M 160.0 137.26643704442438L160.0 165.84101772431268"/>
<path fill="none" stroke-width="0.8" stroke="#000000" d="M 160.4 137.26643704442438L128.0 137.26643704442438"/>
<path fill="none" stroke-width="0.8" stroke="#000000" d="M 176.0 136.89525475839852L176.0 166.73508288282721"/>
<path fill="none" stroke-width="0.8" stroke="#000000" d="M 176.0 136.89525475839852L176.0 166.73508288282721"/>
<path fill="none" stroke-width="0.8" stroke="#000000" d="M 192.0 124.47517270076717L192.0 185.84612910508164"/>
<path fill="none" stroke-width="0.8" stroke="#000000" d="M 192.0 124.47517270076717L192.0 185.84612910508164"/>
<path fill="none" stroke-width="0.8" stroke="#000000" d="M 208.0 68.03609919251838L208.0 100.49356935144266"/>
<path fill="none" stroke-width="0.8" stroke="#000000" d="M 208.4 68.03609919251838L192.0 68.03609919251838"/>
<path fill="none" stroke-width="0.8" stroke="#000000" d="M 240.0 49.13807932572227L240.0 66.52554867199565"/>
<path fill="none" stroke-width="0.8" stroke="#000000" d="M 240.0 49.13807932572227L240.0 66.52554867199565"/>
<path fill="none" stroke-width="0.8" stroke="#000000" d="M 224.0 66.52554867199565L224.0 94.41909054882775"/>
<path fill="none" stroke-width="0.8" stroke="#000000" d="M 223.6 66.52554867199565L240.0 66.52554867199565"/>
<path fill="none" stroke-width="0.8" stroke="#000000" d="M 240.0 66.52554867199565L240.0 68.18779977898113"/>
<path fill="none" stroke-width="0.8" stroke="#000000" d="M 240.0 66.52554867199565L240.0 68.18779977898113"/>
<path fill="none" stroke-width="0.8" stroke="#000000" d="M 240.0 68.18779977898113L240.0 91.33666373878671"/>
<path fill="none" stroke-width="0.8" stroke="#000000" d="M 240.0 68.18779977898113L240.0 91.33666373878671"/>
<path fill="none" stroke-width="0.8" stroke="#000000" d="M 240.0 91.33666373878671L240.0 94.57401880734291"/>
<path fill="none" stroke-width="0.8" stroke="#000000" d="M 240.0 91.33666373878671L240.0 94.57401880734291"/>
<path fill="none" stroke-width="0.8" stroke="#000000" d="M 240.0 94.57401880734291L240.0 177.12173154744718"/>
<path fill="none" stroke-width="0.8" stroke="#000000" d="M 240.0 94.57401880734291L240.0 177.12173154744718"/>
<path fill="none" stroke-width="0.8" stroke="#000000" d="M 240.0 177.12173154744718L240.0 322.76720523989934"/>
<path fill="none" stroke-width="0.8" stroke="#000000" d="M 240.0 177.12173154744718L240.0 322.76720523989934"/>
<path fill="none" stroke-width="0.8" stroke="#000000" d="M 256.0 177.12173154744718L256.0 319.68477842985834"/>
<path fill="none" stroke-width="0.8" stroke="#000000" d="M 256.4 177.12173154744718L240.0 177.12173154744718"/>
<path fill="none" stroke-width="0.8" stroke="#000000" d="M 272.0 94.57401880734291L272.0 120.56000650120721"/>
<path fill="none" stroke-width="0.8" stroke="#000000" d="M 272.4 94.57401880734291L240.0 94.57401880734291"/>
<path fill="none" stroke-width="0.8" stroke="#000000" d="M 288.0 91.33666373878671L288.0 120.65360899072677"/>
<path fill="none" stroke-width="0.8" stroke="#000000" d="M 288.4 91.33666373878671L240.0 91.33666373878671"/>
<path fill="none" stroke-width="0.8" stroke="#000000" d="M 304.0 68.18779977898113L304.0 92.6632369523227"/>
<path fill="none" stroke-width="0.8" stroke="#000000" d="M 304.4 68.18779977898113L240.0 68.18779977898113"/>
<path fill="none" stroke-width="0.8" stroke="#000000" d="M 336.0 23.40449558635558L336.0 92.75683944184227"/>
<path fill="none" stroke-width="0.8" stroke="#000000" d="M 336.0 23.40449558635558L336.0 92.75683944184227"/>
<path fill="none" stroke-width="0.8" stroke="#000000" d="M 336.0 92.75683944184227L336.0 93.6186278798328"/>
<path fill="none" stroke-width="0.8" stroke="#000000" d="M 336.0 92.75683944184227L336.0 93.6186278798328"/>
<path fill="none" stroke-width="0.8" stroke="#000000" d="M 336.0 93.6186278798328L336.0 129.1908015693221"/>
<path fill="none" stroke-width="0.8" stroke="#000000" d="M 336.0 93.6186278798328L336.0 129.1908015693221"/>
<path fill="none" stroke-width="0.8" stroke="#000000" d="M 336.0 129.1908015693221L336.0 133.1059677688821"/>
<path fill="none" stroke-width="0.8" stroke="#000000" d="M 336.0 129.1908015693221L336.0 133.1059677688821"/>
<path fill="none" stroke-width="0.8" stroke="#000000" d="M 336.0 133.1059677688821L336.0 203.32397326882221"/>
<path fill="none" stroke-width="0.8" stroke="#000000" d="M 336.0 133.1059677688821L336.0 203.32397326882221"/>
<path fill="none" stroke-width="0.8" stroke="#000000" d="M 320.0 203.32397326882221L320.0 224.468452884088"/>
<path fill="none" stroke-width="0.8" stroke="#000000" d="M 319.6 203.32397326882221L336.0 203.32397326882221"/>
<path fill="none" stroke-width="0.8" stroke="#000000" d="M 336.0 203.32397326882221L336.0 277.6701713237806"/>
<path fill="none" stroke-width="0.8" stroke="#000000" d="M 336.0 203.32397326882221L336.0 277.6701713237806"/>
<path fill="none" stroke-width="0.8" stroke="#000000" d="M 336.0 277.6701713237806L336.0 317.8353223438337"/>
<path fill="none" stroke-width="0.8" stroke="#000000" d="M 336.0 277.6701713237806L336.0 317.8353223438337"/>
<path fill="none" stroke-width="0.8" stroke="#000000" d="M 352.0 277.6701713237806L352.0 304.17904189013353"/>
<path fill="none" stroke-width="0.8" stroke="#000000" d="M 352.4 277.6701713237806L336.0 277.6701713237806"/>
<path fill="none" stroke-width="0.8" stroke="#000000" d="M 368.0 133.1059677688821L368.0 153.41770799462896"/>
<path fill="none" stroke-width="0.8" stroke="#000000" d="M 368.4 133.1059677688821L336.0 133.1059677688821"/>
<path fill="none" stroke-width="0.8" stroke="#000000" d="M 384.0 129.1908015693221L384.0 146.94622552956898"/>
<path fill="none" stroke-width="0.8" stroke="#000000" d="M 384.4 129.1908015693221L336.0 129.1908015693221"/>
<path fill="none" stroke-width="0.8" stroke="#000000" d="M 400.0 93.6186278798328L400.0 123.3971302352659"/>
<path fill="none" stroke-width="0.8" stroke="#000000" d="M 400.4 93.6186278798328L336.0 93.6186278798328"/>
<path fill="none" stroke-width="0.8" stroke="#000000" d="M 416.0 92.75683944184227L416.0 118.37164484968069"/>
<path fill="none" stroke-width="0.8" stroke="#000000" d="M 416.4 92.75683944184227L336.0 92.75683944184227"/>
<path fill="none" stroke-width="0.8" stroke="#000000" d="M 432.0 15.572872118414663L432.0 30.254906750367205"/>
<path fill="none" stroke-width="0.8" stroke="#000000" d="M 432.0 15.572872118414663L432.0 30.254906750367205"/>
<path fill="none" stroke-width="0.8" stroke="#000000" d="M 432.0 30.254906750367205L432.0 121.8220262736952"/>
<path fill="none" stroke-width="0.8" stroke="#000000" d="M 432.0 30.254906750367205L432.0 121.8220262736952"/>
<path fill="none" stroke-width="0.8" stroke="#000000" d="M 448.0 30.254906750367205L448.0 121.57672319771288"/>
<path fill="none" stroke-width="0.8" stroke="#000000" d="M 448.4 30.254906750367205L432.0 30.254906750367205"/>
<path fill="none" stroke-width="0.8" stroke="#000000" d="M 464.0 15.565771239899385L464.0 119.8821953702034"/>
<path fill="none" stroke-width="0.8" stroke="#000000" d="M 464.0 15.565771239899385L464.0 119.8821953702034"/>
</g>
</g>
<g transform="matrix(1.0 0.0 0.0 1.0 983.0 350.0)">
<g >
<path fill="none" stroke-width="4.0" stroke="#000000" d="M 464.0 15.565771239899385L464.0 -4.278538562385684"/>
<path fill="none" stroke-width="4.0" stroke="#000000" d="M 464.0 15.565771239899385L464.0 105.70607507426867L464.0 15.565771239899385L464.0 105.70607507426867L464.0 15.565771239899385L464.0 -4.304037171599637"/>
<path fill="#3077cb" stroke-width="0.8" stroke="#000000" d="M 460.0 -8.304037171599637L468.0 -8.304037171599637L468.0 -0.30403717159963684L460.0 -0.30403717159963684L460.0 -8.304037171599637z"/>
<path fill="#3077cb" stroke-width="2.4" stroke="#3077cb" d="M 464.0 15.565771239899385L464.0 104.90607507426867L464.0 15.565771239899385L464.0 104.90607507426867L464.0 15.565771239899385L464.0 -4.304037171599637"/>
<path fill="none" stroke-width="4.0" stroke="#000000" d="M -40.0 15.572872118414663L-40.0 105.04642838677562L-40.0 15.572872118414663L-40.0 105.04642838677562L-40.0 15.572872118414663L-40.0 15.572872118414663"/>
<path fill="#75aef7" stroke-width="0.8" stroke="#000000" d="M -44.0 11.572872118414665L-36.0 11.572872118414665L-36.0 19.572872118414665L-44.0 19.572872118414665L-44.0 11.572872118414665z"/>
<path fill="#75aef7" stroke-width="2.4" stroke="#75aef7" d="M -40.0 15.572872118414663L-40.0 104.24642838677562L-40.0 15.572872118414663L-40.0 104.24642838677562L-40.0 15.572872118414663L-40.0 15.572872118414663"/>
<path fill="none" stroke-width="4.0" stroke="#000000" d="M 432.0 30.254906750367205L432.0 113.55597483574195L432.0 30.254906750367205L432.0 113.55597483574195L432.0 15.572872118414663L432.0 30.254906750367205L432.0 15.565771239899385L432.0 15.572872118414663"/>
<path fill="#75aef7" stroke-width="0.8" stroke="#000000" d="M 428.0 11.565771239899384L436.0 11.565771239899384L436.0 19.565771239899384L428.0 19.565771239899384L428.0 11.565771239899384z"/>
<path fill="#75aef7" stroke-width="2.4" stroke="#75aef7" d="M 432.0 30.254906750367205L432.0 112.75597483574194L432.0 30.254906750367205L432.0 112.75597483574194L432.0 15.572872118414663L432.0 30.254906750367205L432.0 15.565771239899385L432.0 15.572872118414663"/>
<path fill="none" stroke-width="4.0" stroke="#000000" d="M 336.0 277.6701713237806L336.0 296.962047783508L336.0 277.6701713237806L336.0 296.962047783508L336.0 203.32397326882221L336.0 277.6701713237806L336.0 133.1059677688821L336.0 203.32397326882221L336.0 129.1908015693221L336.0 133.1059677688821L336.0 93.6186278798328L336.0 129.1908015693221L336.0 92.75683944184227L336.0 93.6186278798328L336.0 23.40449558635558L336.0 92.75683944184227L336.0 15.572872118414663L336.0 23.40449558635558"/>
<path fill="#d0e4fe" stroke-width="0.8" stroke="#000000" d="M 332.0 11.572872118414665L340.0 11.572872118414665L340.0 19.572872118414665L332.0 19.572872118414665L332.0 11.572872118414665z"/>
<path fill="#d0e4fe" stroke-width="2.4" stroke="#d0e4fe" d="M 336.0 277.6701713237806L336.0 296.162047783508L336.0 277.6701713237806L336.0 296.162047783508L336.0 203.32397326882221L336.0 277.6701713237806L336.0 133.1059677688821L336.0 203.32397326882221L336.0 129.1908015693221L336.0 133.1059677688821L336.0 93.6186278798328L336.0 129.1908015693221L336.0 92.75683944184227L336.0 93.6186278798328L336.0 23.40449558635558L336.0 92.75683944184227L336.0 15.572872118414663L336.0 23.40449558635558"/>
<path fill="none" stroke-width="4.0" stroke="#000000" d="M 240.0 177.12173154744718L240.0 310.5888957029482L240.0 177.12173154744718L240.0 310.5888957029482L240.0 94.57401880734291L240.0 177.12173154744718L240.0 91.33666373878671L240.0 94.57401880734291L240.0 68.18779977898113L240.0 91.33666373878671L240.0 66.52554867199565L240.0 68.18779977898113L240.0 49.13807932572227L240.0 66.52554867199565L240.0 23.40740049120274L240.0 49.13807932572227L240.0 23.40449558635558L240.0 23.40740049120274"/>
<path fill="#3077cb" stroke-width="0.8" stroke="#000000" d="M 236.0 19.40449558635558L244.0 19.40449558635558L244.0 27.40449558635558L236.0 27.40449558635558L236.0 19.40449558635558z"/>
<path fill="#3077cb" stroke-width="2.4" stroke="#3077cb" d="M 240.0 177.12173154744718L240.0 309.78889570294814L240.0 177.12173154744718L240.0 309.78889570294814L240.0 94.57401880734291L240.0 177.12173154744718L240.0 91.33666373878671L240.0 94.57401880734291L240.0 68.18779977898113L240.0 91.33666373878671L240.0 66.52554867199565L240.0 68.18779977898113L240.0 49.13807932572227L240.0 66.52554867199565L240.0 23.40740049120274L240.0 49.13807932572227L240.0 23.40449558635558L240.0 23.40740049120274"/>
<path fill="none" stroke-width="4.0" stroke="#000000" d="M 192.0 124.47517270076717L192.0 181.78506325127455L192.0 124.47517270076717L192.0 181.78506325127455L192.0 68.3136789890247L192.0 124.47517270076717L192.0 68.03609919251838L192.0 68.3136789890247L192.0 49.13807932572227L192.0 68.03609919251838"/>
<path fill="#75aef7" stroke-width="0.8" stroke="#000000" d="M 188.0 45.13807932572227L196.0 45.13807932572227L196.0 53.13807932572227L188.0 53.13807932572227L188.0 45.13807932572227z"/>
<path fill="#75aef7" stroke-width="2.4" stroke="#75aef7" d="M 192.0 124.47517270076717L192.0 180.98506325127457L192.0 124.47517270076717L192.0 180.98506325127457L192.0 68.3136789890247L192.0 124.47517270076717L192.0 68.03609919251838L192.0 68.3136789890247L192.0 49.13807932572227L192.0 68.03609919251838"/>
<path fill="none" stroke-width="4.0" stroke="#000000" d="M 16.0 287.6275396054315L16.0 298.45305650739664L16.0 287.6275396054315L16.0 298.45305650739664L16.0 203.9081819103064L16.0 287.6275396054315L16.0 132.95103951036694L16.0 203.9081819103064L16.0 129.12947580032653L16.0 132.95103951036694L16.0 93.77355613834796L16.0 129.12947580032653L16.0 91.3689404593107L16.0 93.77355613834796L16.0 23.40740049120274L16.0 91.3689404593107"/>
<path fill="#3077cb" stroke-width="0.8" stroke="#000000" d="M 12.0 19.407400491202736L20.0 19.407400491202736L20.0 27.407400491202736L12.0 27.407400491202736L12.0 19.407400491202736z"/>
<path fill="#3077cb" stroke-width="2.4" stroke="#3077cb" d="M 16.0 287.6275396054315L16.0 297.6530565073966L16.0 287.6275396054315L16.0 297.6530565073966L16.0 203.9081819103064L16.0 287.6275396054315L16.0 132.95103951036694L16.0 203.9081819103064L16.0 129.12947580032653L16.0 132.95103951036694L16.0 93.77355613834796L16.0 129.12947580032653L16.0 91.3689404593107L16.0 93.77355613834796L16.0 23.40740049120274L16.0 91.3689404593107"/>
<path fill="none" stroke-width="4.0" stroke="#000000" d="M 304.0 68.18779977898113L304.0 83.40649791575166L304.0 68.18779977898113L304.0 83.40649791575166"/>
<path fill="#75aef7" stroke-width="0.8" stroke="#000000" d="M 300.0 64.18779977898113L308.0 64.18779977898113L308.0 72.18779977898113L300.0 72.18779977898113L300.0 64.18779977898113z"/>
<path fill="#75aef7" stroke-width="2.4" stroke="#75aef7" d="M 304.0 68.18779977898113L304.0 82.60649791575166L304.0 68.18779977898113L304.0 82.60649791575166"/>
<path fill="none" stroke-width="4.0" stroke="#000000" d="M 224.0 66.52554867199565L224.0 84.58640379379769L224.0 66.52554867199565L224.0 84.58640379379769"/>
<path fill="#d0e4fe" stroke-width="0.8" stroke="#000000" d="M 220.0 62.52554867199565L228.0 62.52554867199565L228.0 70.52554867199565L220.0 70.52554867199565L220.0 62.52554867199565z"/>
<path fill="#d0e4fe" stroke-width="2.4" stroke="#d0e4fe" d="M 224.0 66.52554867199565L224.0 83.78640379379769L224.0 66.52554867199565L224.0 83.78640379379769"/>
<path fill="none" stroke-width="4.0" stroke="#000000" d="M 80.0 68.3136789890247L80.0 87.72507518613796L80.0 68.3136789890247L80.0 87.72507518613796"/>
<path fill="#d0e4fe" stroke-width="0.8" stroke="#000000" d="M 76.0 64.3136789890247L84.0 64.3136789890247L84.0 72.3136789890247L76.0 72.3136789890247L76.0 64.3136789890247z"/>
<path fill="#d0e4fe" stroke-width="2.4" stroke="#d0e4fe" d="M 80.0 68.3136789890247L80.0 86.92507518613796L80.0 68.3136789890247L80.0 86.92507518613796"/>
<path fill="none" stroke-width="4.0" stroke="#000000" d="M 208.0 68.03609919251838L208.0 88.2784451788047L208.0 68.03609919251838L208.0 88.2784451788047"/>
<path fill="#3077cb" stroke-width="0.8" stroke="#000000" d="M 204.0 64.03609919251838L212.0 64.03609919251838L212.0 72.03609919251838L204.0 72.03609919251838L204.0 64.03609919251838z"/>
<path fill="#3077cb" stroke-width="2.4" stroke="#3077cb" d="M 208.0 68.03609919251838L208.0 87.4784451788047L208.0 68.03609919251838L208.0 87.4784451788047"/>
<path fill="none" stroke-width="4.0" stroke="#000000" d="M 64.0 91.3689404593107L64.0 101.11336298804189L64.0 91.3689404593107L64.0 101.11336298804189"/>
<path fill="#d0e4fe" stroke-width="0.8" stroke="#000000" d="M 60.0 87.3689404593107L68.0 87.3689404593107L68.0 95.3689404593107L60.0 95.3689404593107L60.0 87.3689404593107z"/>
<path fill="#d0e4fe" stroke-width="2.4" stroke="#d0e4fe" d="M 64.0 91.3689404593107L64.0 100.31336298804189L64.0 91.3689404593107L64.0 100.31336298804189"/>
<path fill="none" stroke-width="4.0" stroke="#000000" d="M 416.0 92.75683944184227L416.0 101.79922732060216L416.0 92.75683944184227L416.0 101.79922732060216"/>
<path fill="#3077cb" stroke-width="0.8" stroke="#000000" d="M 412.0 88.75683944184227L420.0 88.75683944184227L420.0 96.75683944184227L412.0 96.75683944184227L412.0 88.75683944184227z"/>
<path fill="#3077cb" stroke-width="2.4" stroke="#3077cb" d="M 416.0 92.75683944184227L416.0 100.99922732060216L416.0 92.75683944184227L416.0 100.99922732060216"/>
<path fill="none" stroke-width="4.0" stroke="#000000" d="M 48.0 93.77355613834796L48.0 111.09872573224625L48.0 93.77355613834796L48.0 111.09872573224625"/>
<path fill="#75aef7" stroke-width="0.8" stroke="#000000" d="M 44.0 89.77355613834796L52.0 89.77355613834796L52.0 97.77355613834796L44.0 97.77355613834796L44.0 89.77355613834796z"/>
<path fill="#75aef7" stroke-width="2.4" stroke="#75aef7" d="M 48.0 93.77355613834796L48.0 110.29872573224625L48.0 93.77355613834796L48.0 110.29872573224625"/>
<path fill="none" stroke-width="4.0" stroke="#000000" d="M 400.0 93.6186278798328L400.0 111.22431732794851L400.0 93.6186278798328L400.0 111.22431732794851"/>
<path fill="#75aef7" stroke-width="0.8" stroke="#000000" d="M 396.0 89.6186278798328L404.0 89.6186278798328L404.0 97.6186278798328L396.0 97.6186278798328L396.0 89.6186278798328z"/>
<path fill="#75aef7" stroke-width="2.4" stroke="#75aef7" d="M 400.0 93.6186278798328L400.0 110.4243173279485L400.0 93.6186278798328L400.0 110.4243173279485"/>
<path fill="none" stroke-width="4.0" stroke="#000000" d="M 448.0 30.254906750367205L448.0 113.33495919302518L448.0 30.254906750367205L448.0 113.33495919302518"/>
<path fill="#d0e4fe" stroke-width="0.8" stroke="#000000" d="M 444.0 26.254906750367205L452.0 26.254906750367205L452.0 34.254906750367205L444.0 34.254906750367205L444.0 26.254906750367205z"/>
<path fill="#d0e4fe" stroke-width="2.4" stroke="#d0e4fe" d="M 448.0 30.254906750367205L448.0 112.5349591930252L448.0 30.254906750367205L448.0 112.5349591930252"/>
<path fill="none" stroke-width="4.0" stroke="#000000" d="M 272.0 94.57401880734291L272.0 113.89868330197885L272.0 94.57401880734291L272.0 113.89868330197885"/>
<path fill="#d0e4fe" stroke-width="0.8" stroke="#000000" d="M 268.0 90.57401880734291L276.0 90.57401880734291L276.0 98.57401880734291L268.0 98.57401880734291L268.0 90.57401880734291z"/>
<path fill="#d0e4fe" stroke-width="2.4" stroke="#d0e4fe" d="M 272.0 94.57401880734291L272.0 113.09868330197885L272.0 94.57401880734291L272.0 113.09868330197885"/>
<path fill="none" stroke-width="4.0" stroke="#000000" d="M 288.0 91.33666373878671L288.0 114.05180598157358L288.0 91.33666373878671L288.0 114.05180598157358"/>
<path fill="#75aef7" stroke-width="0.8" stroke="#000000" d="M 284.0 87.33666373878671L292.0 87.33666373878671L292.0 95.33666373878671L284.0 95.33666373878671L284.0 87.33666373878671z"/>
<path fill="#75aef7" stroke-width="2.4" stroke="#75aef7" d="M 288.0 91.33666373878671L288.0 113.25180598157358L288.0 91.33666373878671L288.0 113.25180598157358"/>
<path fill="none" stroke-width="4.0" stroke="#000000" d="M 96.0 124.93672980426022L96.0 180.64510380952058L96.0 124.93672980426022L96.0 180.64510380952058L96.0 124.47517270076717L96.0 124.93672980426022"/>
<path fill="#d0e4fe" stroke-width="0.8" stroke="#000000" d="M 92.0 120.47517270076717L100.0 120.47517270076717L100.0 128.4751727007672L92.0 128.4751727007672L92.0 120.47517270076717z"/>
<path fill="#d0e4fe" stroke-width="2.4" stroke="#d0e4fe" d="M 96.0 124.93672980426022L96.0 179.8451038095206L96.0 124.93672980426022L96.0 179.8451038095206L96.0 124.47517270076717L96.0 124.93672980426022"/>
<path fill="none" stroke-width="4.0" stroke="#000000" d="M -24.0 129.12947580032653L-24.0 134.6595812573937L-24.0 129.12947580032653L-24.0 134.6595812573937"/>
<path fill="#75aef7" stroke-width="0.8" stroke="#000000" d="M -28.0 125.12947580032653L-20.0 125.12947580032653L-20.0 133.12947580032653L-28.0 133.12947580032653L-28.0 125.12947580032653z"/>
<path fill="#75aef7" stroke-width="2.4" stroke="#75aef7" d="M -24.0 129.12947580032653L-24.0 133.8595812573937L-24.0 129.12947580032653L-24.0 133.8595812573937"/>
<path fill="none" stroke-width="4.0" stroke="#000000" d="M 384.0 129.1908015693221L384.0 134.73730104384356L384.0 129.1908015693221L384.0 134.73730104384356"/>
<path fill="#75aef7" stroke-width="0.8" stroke="#000000" d="M 380.0 125.1908015693221L388.0 125.1908015693221L388.0 133.1908015693221L380.0 133.1908015693221L380.0 125.1908015693221z"/>
<path fill="#75aef7" stroke-width="2.4" stroke="#75aef7" d="M 384.0 129.1908015693221L384.0 133.93730104384355L384.0 129.1908015693221L384.0 133.93730104384355"/>
<path fill="none" stroke-width="4.0" stroke="#000000" d="M 176.0 136.89525475839852L176.0 154.97871956314188L176.0 136.89525475839852L176.0 154.97871956314188L176.0 124.93672980426022L176.0 136.89525475839852"/>
<path fill="#3077cb" stroke-width="0.8" stroke="#000000" d="M 172.0 120.93672980426022L180.0 120.93672980426022L180.0 128.9367298042602L172.0 128.9367298042602L172.0 120.93672980426022z"/>
<path fill="#3077cb" stroke-width="2.4" stroke="#3077cb" d="M 176.0 136.89525475839852L176.0 154.17871956314187L176.0 136.89525475839852L176.0 154.17871956314187L176.0 124.93672980426022L176.0 136.89525475839852"/>
<path fill="none" stroke-width="4.0" stroke="#000000" d="M 128.0 176.7537769334737L128.0 197.48890215785892L128.0 176.7537769334737L128.0 197.48890215785892L128.0 176.6601744439541L128.0 176.7537769334737L128.0 137.26643704442438L128.0 176.6601744439541L128.0 136.89525475839852L128.0 137.26643704442438"/>
<path fill="#75aef7" stroke-width="0.8" stroke="#000000" d="M 124.0 132.8952547583985L132.0 132.8952547583985L132.0 140.8952547583985L124.0 140.8952547583985L124.0 132.8952547583985z"/>
<path fill="#75aef7" stroke-width="2.4" stroke="#75aef7" d="M 128.0 176.7537769334737L128.0 196.68890215785893L128.0 176.7537769334737L128.0 196.68890215785893L128.0 176.6601744439541L128.0 176.7537769334737L128.0 137.26643704442438L128.0 176.6601744439541L128.0 136.89525475839852L128.0 137.26643704442438"/>
<path fill="none" stroke-width="4.0" stroke="#000000" d="M -8.0 132.95103951036694L-8.0 140.73220654536465L-8.0 132.95103951036694L-8.0 140.73220654536465"/>
<path fill="#d0e4fe" stroke-width="0.8" stroke="#000000" d="M -12.0 128.9510395103669L-4.0 128.9510395103669L-4.0 136.9510395103669L-12.0 136.9510395103669L-12.0 128.9510395103669z"/>
<path fill="#d0e4fe" stroke-width="2.4" stroke="#d0e4fe" d="M -8.0 132.95103951036694L-8.0 139.93220654536466L-8.0 132.95103951036694L-8.0 139.93220654536466"/>
<path fill="none" stroke-width="4.0" stroke="#000000" d="M 368.0 133.1059677688821L368.0 140.84413645985504L368.0 133.1059677688821L368.0 140.84413645985504"/>
<path fill="#3077cb" stroke-width="0.8" stroke="#000000" d="M 364.0 129.10596776888207L372.0 129.10596776888207L372.0 137.10596776888207L364.0 137.10596776888207L364.0 129.10596776888207z"/>
<path fill="#3077cb" stroke-width="2.4" stroke="#3077cb" d="M 368.0 133.1059677688821L368.0 140.04413645985503L368.0 133.1059677688821L368.0 140.04413645985503"/>
<path fill="none" stroke-width="4.0" stroke="#000000" d="M 160.0 137.26643704442438L160.0 155.74872706910773L160.0 137.26643704442438L160.0 155.74872706910773"/>
<path fill="#d0e4fe" stroke-width="0.8" stroke="#000000" d="M 156.0 133.26643704442438L164.0 133.26643704442438L164.0 141.26643704442438L156.0 141.26643704442438L156.0 133.26643704442438z"/>
<path fill="#d0e4fe" stroke-width="2.4" stroke="#d0e4fe" d="M 160.0 137.26643704442438L160.0 154.94872706910772L160.0 137.26643704442438L160.0 154.94872706910772"/>
<path fill="none" stroke-width="4.0" stroke="#000000" d="M 144.0 176.6601744439541L144.0 191.3314945535017L144.0 176.6601744439541L144.0 191.3314945535017"/>
<path fill="#3077cb" stroke-width="0.8" stroke="#000000" d="M 140.0 172.66017444395408L148.0 172.66017444395408L148.0 180.66017444395408L140.0 180.66017444395408L140.0 172.66017444395408z"/>
<path fill="#3077cb" stroke-width="2.4" stroke="#3077cb" d="M 144.0 176.6601744439541L144.0 190.53149455350172L144.0 176.6601744439541L144.0 190.53149455350172"/>
<path fill="none" stroke-width="4.0" stroke="#000000" d="M 112.0 176.7537769334737L112.0 191.4398452673003L112.0 176.7537769334737L112.0 191.4398452673003"/>
<path fill="#3077cb" stroke-width="0.8" stroke="#000000" d="M 108.0 172.75377693347366L116.0 172.75377693347366L116.0 180.75377693347366L108.0 180.75377693347366L108.0 172.75377693347366z"/>
<path fill="#3077cb" stroke-width="2.4" stroke="#3077cb" d="M 112.0 176.7537769334737L112.0 190.6398452673003L112.0 176.7537769334737L112.0 190.6398452673003"/>
<path fill="none" stroke-width="4.0" stroke="#000000" d="M 320.0 203.32397326882221L320.0 218.77856310118466L320.0 203.32397326882221L320.0 218.77856310118466"/>
<path fill="#75aef7" stroke-width="0.8" stroke="#000000" d="M 316.0 199.32397326882221L324.0 199.32397326882221L324.0 207.32397326882221L316.0 207.32397326882221L316.0 199.32397326882221z"/>
<path fill="#75aef7" stroke-width="2.4" stroke="#75aef7" d="M 320.0 203.32397326882221L320.0 217.97856310118465L320.0 203.32397326882221L320.0 217.97856310118465"/>
<path fill="none" stroke-width="4.0" stroke="#000000" d="M 32.0 203.9081819103064L32.0 219.73775692942974L32.0 203.9081819103064L32.0 219.73775692942974"/>
<path fill="#75aef7" stroke-width="0.8" stroke="#000000" d="M 28.0 199.90818191030638L36.0 199.90818191030638L36.0 207.90818191030638L28.0 207.90818191030638L28.0 199.90818191030638z"/>
<path fill="#75aef7" stroke-width="2.4" stroke="#75aef7" d="M 32.0 203.9081819103064L32.0 218.93775692942972L32.0 203.9081819103064L32.0 218.93775692942972"/>
<path fill="none" stroke-width="4.0" stroke="#000000" d="M 352.0 277.6701713237806L352.0 295.00540741962453L352.0 277.6701713237806L352.0 295.00540741962453"/>
<path fill="#75aef7" stroke-width="0.8" stroke="#000000" d="M 348.0 273.6701713237806L356.0 273.6701713237806L356.0 281.6701713237806L348.0 281.6701713237806L348.0 273.6701713237806z"/>
<path fill="#75aef7" stroke-width="2.4" stroke="#75aef7" d="M 352.0 277.6701713237806L352.0 294.2054074196245L352.0 277.6701713237806L352.0 294.2054074196245"/>
<path fill="none" stroke-width="4.0" stroke="#000000" d="M 256.0 177.12173154744718L256.0 309.19265590451886L256.0 177.12173154744718L256.0 309.19265590451886"/>
<path fill="#75aef7" stroke-width="0.8" stroke="#000000" d="M 252.0 173.12173154744715L260.0 173.12173154744715L260.0 181.12173154744715L252.0 181.12173154744715L252.0 173.12173154744715z"/>
<path fill="#75aef7" stroke-width="2.4" stroke="#75aef7" d="M 256.0 177.12173154744718L256.0 308.39265590451885L256.0 177.12173154744718L256.0 308.39265590451885"/>
</g>
</g>
</g>
</svg>