<?xml version="1.0" encoding="utf-8"?>
<svg version="1.2" baseProfile="tiny" id="openrndr-svg" xmlns="http://www.w3.org/2000/svg" xmlns:xlink="http://www.w3.org/1999/xlink" height="576.0" x="0.0" y="0.0" width="768.0" ><g >
<g transform="matrix(1.0 0.0 0.0 1.0 709.0 350.0)">
<g >
<path fill="#d0e4fe" d="M 52.0 236.6581002577276L52.0 237.09877413782112L52.0 238.52055772391964L36.0 238.52055772391964L36.0 237.09877413782112L36.0 236.6581002577276L52.0 236.6581002577276z"/>
<path fill="#75aef7" d="M -260.0 221.2540937931438L-260.0 226.81442911198832L-260.0 238.3211739241693L-276.0 238.3211739241693L-276.0 226.81442911198832L-276.0 221.2540937931438L-260.0 221.2540937931438z"/>
<path fill="#d0e4fe" d="M 12.0 153.40893212647893L12.0 189.20485591714333L12.0 260.4592074319344L-4.0 260.4592074319344L-4.0 189.20485591714333L-4.0 153.40893212647893L12.0 153.40893212647893z"/>
<path fill="#75aef7" d="M -132.0 152.87831394972397L-132.0 158.6155219941535L-132.0 192.60402811611306L-132.0 260.62000081882985L-148.0 260.62000081882985L-148.0 192.60402811611306L-148.0 162.83189464449487L-148.0 158.6155219941535L-148.0 152.87831394972397L-132.0 152.87831394972397z"/>
<path fill="#d0e4fe" d="M -76.0 130.89464209337848L-76.0 154.99767078900595L-76.0 159.94045950217202L-76.0 173.44710400138953L-76.0 179.67302394198123L-76.0 190.35292069957683L-76.0 206.8181635176706L-76.0 321.57677379089375L-92.0 321.57677379089375L-92.0 206.8181635176706L-92.0 190.35292069957683L-92.0 179.67302394198123L-92.0 173.4471040013895L-92.0 159.940459502172L-92.0 154.99767078900595L-92.0 130.89464209337848L-76.0 130.89464209337848z"/>
<path fill="#75aef7" d="M -76.0 130.89474209337845L-92.0 130.89474209337845L-92.0 130.5859187905392L-76.0 130.58591879053918L-36.0 130.58591879053918L-28.0 130.58591879053918L-20.0 130.58591879053918L-4.0 130.58591879053918L12.0 130.58591879053918L20.0 130.58591879053918L28.0 130.5859187905392L36.0 130.5859187905392L52.0 130.5859187905392L60.0 130.5859187905392L68.0 130.5859187905392L84.0 130.5859187905392L92.0 130.5859187905392L100.0 130.5859187905392L108.0 130.5859187905392L116.0 130.5859187905392L132.0 130.5859187905392L132.0 130.89474209337845L132.0 153.40903212647896L132.0 154.44204811307674L132.0 155.30639409184522L132.0 162.83189464449487L116.0 162.83189464449487L116.0 162.84189464449486L116.0 169.28292532674018L108.0 169.28292532674018L108.0 165.8580261858672L100.0 165.8580261858672L100.0 169.29292532674017L100.0 183.33626734140228L92.0 183.33626734140228L92.0 183.34626734140227L92.0 235.85460336919311L84.0 235.85460336919311L84.0 235.8646033691931L84.0 236.65820025772763L84.0 251.75348341947216L84.0 288.41152980983884L68.0 288.41152980983884L68.0 251.75348341947216L68.0 236.65820025772763L68.0 176.40928823394643L60.0 176.40928823394643L60.0 163.03127844424523L52.0 163.03127844424523L52.0 236.65820025772763L36.0 236.65820025772763L36.0 221.56291709598304L36.0 206.28754534091564L36.0 204.17222681210052L36.0 169.28292532674018L28.0 169.28292532674018L28.0 204.16222681210053L20.0 204.16222681210053L20.0 198.5212247538655L20.0 153.40903212647896L20.0 131.58591879053918L12.0 131.58591879053918L12.0 153.40903212647896L-4.0 153.40903212647896L-4.0 148.34797874973927L-4.0 148.33797874973928L-20.0 148.33797874973928L-20.0 142.0577414543894L-20.0 131.58591879053918L-28.0 131.58591879053918L-28.0 142.0477414543894L-36.0 142.0477414543894L-36.0 131.58591879053918L-76.0 131.58591879053918L-76.0 130.89474209337845z"/>
<path fill="#75aef7" d="M -292.0 155.19777703148532L-292.0 213.43963519002511L-292.0 221.00372615552965L-308.0 221.00372615552965L-308.0 213.43963519002511L-308.0 155.19777703148532L-308.0 142.89386706624572L-308.0 121.49476069547065L-308.0 119.42042600451938L-292.0 119.42042600451938L-284.0 119.42042600451938L-284.0 155.18777703148533L-292.0 155.18777703148533L-292.0 155.19777703148532z"/>
<path fill="#3077cb" stroke-width="496.0" d="M 20.0 89.54262129433646L20.0 89.53262129433645L12.0 89.53262129433645L12.0 130.5860187905392L-4.0 130.5860187905392L-20.0 130.5860187905392L-28.0 130.5860187905392L-36.0 130.5860187905392L-36.0 74.95830870613314L-44.0 74.95830870613314L-44.0 87.1014252844773L-52.0 87.1014252844773L-52.0 105.25821453271116L-60.0 105.25821453271116L-60.0 113.14352222606385L-68.0 113.14352222606387L-68.0 119.27296613451827L-76.0 119.27296613451831L-76.0 130.58601879053919L-92.0 130.5860187905392L-92.0 129.06849926418894L-100.0 129.06849926418894L-100.0 97.45651940054408L-108.0 97.45651940054408L-108.0 130.58601879053919L-108.0 142.00915104153452L-124.0 142.00915104153452L-124.0 142.0191510415345L-124.0 148.14181081772685L-132.0 148.14181081772685L-132.0 148.1518108177268L-132.0 152.87841394972398L-148.0 152.87841394972398L-148.0 154.48063852593162L-148.0 158.12992596572926L-148.0 162.83189464449487L-164.0 162.83189464449487L-164.0 162.84189464449486L-164.0 169.24111904614736L-172.0 169.2411190461474L-172.0 165.8580261858672L-180.0 165.8580261858672L-180.0 169.25111904614732L-180.0 183.33626734140228L-188.0 183.33626734140228L-188.0 183.34626734140227L-188.0 184.14380254040364L-188.0 187.40790829438123L-188.0 204.0918301186528L-188.0 206.28754534091564L-188.0 221.25419379314383L-188.0 222.3122142789158L-188.0 251.79850556780292L-188.0 288.1317493166408L-204.0 288.1317493166408L-204.0 251.79850556780292L-204.0 222.3122142789158L-204.0 221.25419379314383L-204.0 163.06986885710012L-212.0 163.06986885710012L-212.0 153.15856448886478L-220.0 153.15856448886478L-220.0 157.93412807965956L-228.0 157.93412807965956L-228.0 162.75149795104716L-236.0 162.75149795104716L-236.0 187.39790829438124L-244.0 187.39790829438124L-244.0 204.08183011865282L-260.0 204.08183011865282L-260.0 221.25419379314383L-276.0 221.25419379314383L-276.0 206.28754534091564L-276.0 169.13213193984475L-276.0 169.12213193984476L-284.0 169.12213193984476L-284.0 155.18777703148533L-284.0 119.42052600451939L-292.0 119.42052600451939L-308.0 119.42052600451939L-308.0 89.65638374307701L-308.0 51.836572067354155L-308.0 35.83119833578138L-308.0 34.44159107621845L-316.0 34.44159107621845L-316.0 35.82119833578138L-324.0 35.82119833578138L-324.0 28.866915162565785L-324.0 27.110729790893718L-324.0 19.110729790893718L156.0 19.110729790893718L156.0 27.110729790893718L156.0 71.29543535265486L148.0 71.29543535265486L148.0 71.30543535265483L148.0 89.45222460088871L140.0 89.45222460088873L140.0 89.46222460088873L140.0 129.42546058309685L132.0 129.42546058309685L132.0 129.43546058309684L132.0 130.5860187905392L52.0 130.5860187905392L36.0 130.5860187905392L36.0 89.54262129433646L20.0 89.54262129433646z"/>
</g>
</g>
<g transform="matrix(1.0 0.0 0.0 1.0 1227.0 350.0)">
<g >
<path fill="#fb827a" d="M -252.0 220.0995972752345L-252.0 223.2391066301626L-252.0 241.42805455577556L-252.0 243.90998200671226L-252.0 263.6622116988917L-260.0 263.6622116988917L-260.0 243.90998200671226L-260.0 241.42805455577556L-260.0 241.41805455577557L-276.0 241.41805455577557L-276.0 223.23910663016264L-276.0 220.0995972752345L-260.0 220.0995972752345L-252.0 220.0995972752345z"/>
<path fill="#c64340" d="M 60.0 213.05363106147598L60.0 214.9639564977939L60.0 230.61236891045877L60.0 235.1113678757934L60.0 282.65547895576816L60.0 290.7330162706664L60.0 298.04948542035197L44.0 298.04948542035197L44.0 298.05948542035196L44.0 303.0823184301795L36.0 303.0823184301795L36.0 298.05948542035196L36.0 290.7330162706664L36.0 282.65547895576816L36.0 235.1113678757934L36.0 230.61236891045877L36.0 214.9639564977939L36.0 213.05363106147598L44.0 213.05363106147598L60.0 213.05363106147598z"/>
<path fill="#c64340" d="M -276.0 241.41805455577557L-276.0 260.5749786704991L-284.0 260.5749786704991L-284.0 224.87847673376717L-284.0 220.09969727523452L-284.0 203.3328853325063L-284.0 193.74244529533286L-284.0 192.70683588372617L-276.0 192.70683588372617L-260.0 192.70683588372617L-260.0 193.74244529533286L-260.0 203.3328853325063L-260.0 220.09969727523452L-276.0 220.09969727523452L-276.0 224.87847673376717L-276.0 241.41805455577557z"/>
<path fill="#c64340" d="M 84.0 188.20783691839154L84.0 190.78743289013727L76.0 190.7874328901373L76.0 188.20783691839154L84.0 188.20783691839154z"/>
<path fill="#c64340" d="M -180.0 188.20783691839154L-180.0 190.74241074180654L-188.0 190.74241074180654L-188.0 188.20783691839154L-180.0 188.20783691839154z"/>
<path fill="#fb827a" d="M -124.0 174.59185291608512L-124.0 176.52827534024905L-132.0 176.52827534024905L-132.0 174.59185291608512L-124.0 174.59185291608512z"/>
<path fill="#ffd6d1" d="M -36.0 174.71084002238774L-36.0 176.40642476299476L-36.0 176.96884922034255L-44.0 176.96884922034255L-44.0 176.40642476299476L-44.0 176.39642476299477L-52.0 176.39642476299477L-52.0 174.71084002238774L-44.0 174.71084002238774L-36.0 174.71084002238774z"/>
<path fill="#c64340" d="M -124.0 163.25352571494722L-124.0 174.59195291608512L-132.0 174.59195291608512L-132.0 176.52827534024905L-132.0 176.96884922034255L-140.0 176.96884922034255L-140.0 176.97884922034254L-140.0 320.38368686012956L-156.0 320.38368686012956L-156.0 176.97884922034254L-156.0 174.59195291608512L-156.0 163.25352571494722L-156.0 162.50101266427652L-156.0 156.27830859142273L-156.0 153.32863543303122L-156.0 144.52992130211237L-140.0 144.52992130211237L-132.0 144.52992130211237L-124.0 144.52992130211237L-116.0 144.52992130211237L-116.0 163.24352571494722L-124.0 163.24352571494722L-124.0 163.25352571494722z"/>
<path fill="#ffd6d1" d="M 36.0 192.0323261014943L36.0 192.02232610149431L28.0 192.02232610149431L28.0 213.05373106147601L28.0 220.61745198103785L28.0 223.08723840375188L28.0 260.39810594491416L20.0 260.39810594491416L20.0 224.1584924064183L4.0 224.1584924064183L4.0 260.40810594491415L4.0 264.4147247495624L-4.0 264.4147247495624L-4.0 260.40810594491415L-4.0 224.1684924064183L-4.0 223.08723840375188L-4.0 220.61745198103785L-4.0 218.91376452267508L-4.0 213.05373106147601L-4.0 204.0943235436617L-4.0 202.80226715575134L-4.0 201.78926881831L-4.0 192.0323261014943L-4.0 191.98730395316355L-4.0 188.20793691839157L-4.0 185.36583228080906L-4.0 185.18180537701926L-4.0 182.85102370976426L-4.0 177.33259467151254L-4.0 176.892020791419L-4.0 174.11029519812774L-4.0 161.79673762967445L-4.0 146.521365874607L-4.0 145.76491451346942L-4.0 142.06417318986522L-4.0 139.7511418435797L4.0 139.7511418435797L20.0 139.7511418435797L28.0 139.7511418435797L36.0 139.7511418435797L60.0 139.7511418435797L68.0 139.7511418435797L76.0 139.7511418435797L84.0 139.7511418435797L92.0 139.7511418435797L100.0 139.7511418435797L100.0 142.05417318986522L92.0 142.05417318986522L92.0 142.0641731898652L92.0 182.8410237097643L84.0 182.8410237097643L84.0 182.8510237097643L84.0 185.18180537701926L84.0 188.20793691839157L76.0 188.20793691839157L76.0 185.35583228080907L68.0 185.35583228080907L68.0 188.20793691839157L68.0 202.79226715575135L60.0 202.79226715575135L60.0 202.80226715575134L60.0 204.0943235436617L60.0 213.05373106147601L44.0 213.05373106147601L44.0 192.0323261014943L36.0 192.0323261014943z"/>
<path fill="#ffd6d1" d="M -156.0 122.07351688829426L-140.0 122.07351688829426L-132.0 122.07351688829426L-132.0 144.53002130211237L-140.0 144.53002130211237L-156.0 144.53002130211237L-156.0 123.07351688829426L-172.0 123.07351688829426L-172.0 144.53002130211237L-172.0 182.8410237097643L-180.0 182.8410237097643L-180.0 182.8510237097643L-180.0 188.20793691839157L-188.0 188.20793691839157L-188.0 185.35583228080907L-196.0 185.35583228080907L-196.0 188.20793691839157L-196.0 192.70693588372615L-196.0 202.79226715575135L-204.0 202.79226715575135L-204.0 202.80226715575134L-204.0 204.0943235436617L-204.0 213.64866659298917L-204.0 235.18854870150324L-204.0 276.21088000899863L-204.0 297.9276348430977L-204.0 302.59672240175524L-220.0 302.59672240175524L-220.0 297.9276348430977L-220.0 297.9176348430977L-228.0 297.9176348430977L-228.0 192.70693588372615L-228.0 179.92744753921878L-236.0 179.92744753921878L-236.0 177.19074409425826L-244.0 177.19074409425826L-244.0 183.76719361828205L-252.0 183.76719361828208L-252.0 183.77719361828207L-260.0 183.77719361828207L-260.0 192.70693588372615L-276.0 192.70693588372615L-276.0 188.20793691839157L-276.0 167.04824964567973L-276.0 122.07351688829426L-252.0 122.07351688829426L-244.0 122.07351688829426L-236.0 122.07351688829426L-228.0 122.07351688829426L-220.0 122.07351688829426L-204.0 122.07351688829426L-196.0 122.07351688829426L-188.0 122.07351688829426L-180.0 122.07351688829426L-172.0 122.07351688829425L-156.0 122.07351688829426z"/>
<path fill="#ffd6d1" d="M -172.0 112.60265153366277L-172.0 122.07361688829427L-220.0 122.07361688829427L-220.0 111.60265153366277L-172.0 111.60265153366277L-156.0 111.60265153366277L-116.0 111.60265153366277L-100.0 111.60265153366277L-92.0 111.60265153366277L-84.0 111.60265153366277L-76.0 111.60265153366277L-76.0 118.70375754490841L-76.0 122.07361688829425L-76.0 126.78201730253568L-84.0 126.78201730253568L-84.0 126.79201730253567L-84.0 131.30958903156875L-84.0 137.64200265345417L-92.0 137.64200265345417L-92.0 137.65200265345416L-92.0 151.50239260384168L-100.0 151.50239260384168L-100.0 151.51239260384168L-100.0 159.77966611527654L-100.0 166.7484515033252L-100.0 170.76828617571138L-100.0 185.41977958962448L-100.0 321.57677379089375L-116.0 321.57677379089375L-116.0 185.4197795896245L-116.0 170.76828617571138L-116.0 166.7484515033252L-116.0 163.24352571494722L-116.0 159.7796661152765L-116.0 151.51239260384168L-116.0 147.05198405136198L-116.0 140.8285575357792L-116.0 137.65200265345416L-116.0 131.30958903156875L-116.0 130.5867412332682L-116.0 126.79201730253567L-116.0 122.07361688829425L-140.0 122.07361688829427L-156.0 122.07361688829427L-156.0 112.60265153366277L-172.0 112.60265153366277z"/>
<path fill="#fb827a" d="M -172.0 112.60265153366277L-172.0 122.07361688829427L-220.0 122.07361688829427L-220.0 112.67685135812435L-220.0 111.60265153366277L-172.0 111.60265153366277L-156.0 111.60265153366277L-116.0 111.60265153366277L-84.0 111.60265153366277L-76.0 111.60265153366277L-68.0 111.60265153366277L-52.0 111.60265153366277L-44.0 111.60265153366277L-36.0 111.60265153366277L-28.0 111.60265153366277L-20.0 111.60265153366277L-4.0 111.60265153366277L60.0 111.60265153366277L100.0 111.60265153366277L100.0 139.7512418435797L60.0 139.7512418435797L44.0 139.7512418435797L-4.0 139.7512418435797L-4.0 144.13125370261167L-4.0 146.9201334741077L-4.0 158.529416007959L-4.0 163.20850356661649L-4.0 164.08965132680353L-4.0 174.71094002238777L-4.0 264.4147247495624L-4.0 319.94311298003595L-20.0 319.943112980036L-20.0 174.71094002238777L-20.0 146.9101334741077L-28.0 146.9101334741077L-28.0 163.1985035666165L-36.0 163.1985035666165L-36.0 174.71094002238777L-44.0 174.71094002238777L-52.0 174.71094002238777L-52.0 164.08965132680353L-52.0 158.529416007959L-52.0 144.13125370261167L-52.0 139.7512418435797L-52.0 138.57817256197194L-52.0 122.07361688829425L-52.0 118.71375754490842L-52.0 112.60265153366277L-68.0 112.60265153366277L-68.0 118.70375754490837L-76.0 118.70375754490841L-76.0 122.07361688829425L-84.00000000000001 122.07361688829427L-116.0 122.07361688829427L-156.0 122.07361688829427L-156.0 112.60265153366277L-172.0 112.60265153366277z"/>
<path fill="#c64340" stroke-width="456.0" d="M 100.0 100.88177093820335L60.0 100.88177093820336L60.0 111.60275153366277L-4.0 111.60275153366277L-20.0 111.60275153366277L-20.0 98.6306635216671L-52.0 98.6306635216671L-52.0 98.6206635216671L-60.0 98.6206635216671L-60.0 108.68311367358416L-68.0 108.68311367358417L-68.0 108.69311367358418L-100.0 108.69311367358418L-100.0 111.60275153366277L-140.0 111.60275153366277L-156.0 111.60275153366277L-156.0 107.84377219398995L-164.0 107.84377219398995L-164.0 102.72411075523891L-172.0 102.72411075523891L-172.0 102.73411075523892L-204.0 102.73411075523892L-204.0 111.60275153366277L-220.0 111.60275153366277L-220.0 82.6510167319976L-284.0 82.6510167319976L-284.0 82.6410167319976L-292.0 82.6410167319976L-292.0 111.60275153366277L-292.0 177.45444524876677L-300.0 177.4544452487668L-300.0 177.4644452487668L-300.0 202.6600465325543L-300.0 248.96569613664784L-316.0 248.96569613664784L-316.0 202.6600465325543L-316.0 177.4644452487668L-316.0 153.67345572371647L-316.0 111.60275153366274L-316.0 108.69311367358418L-316.0 107.85377219398995L-316.0 102.73411075523892L-316.0 100.88177093820336L-316.0 100.1742800358634L-316.0 98.84934252784491L-316.0 98.63066352166709L-316.0 98.36374649942066L-316.0 95.54021462553663L-316.0 95.23149132269737L-316.0 93.64285266017035L-316.0 93.11223448341538L-316.0 86.8769092572023L-316.0 82.65101673199757L-316.0 71.12856262706987L-316.0 70.81983932423061L-316.0 61.72858122916205L-316.0 59.65434653821075L-316.0 39.74490937281654L-316.0 38.313495832660806L-324.0 38.313495832660806L-324.0 39.7349093728165L-332.0 39.73490937281656L-332.0 32.077959098867865L-332.0 29.89020427676841L-332.0 19.110729790893718L108.0 19.110729790893718L108.0 29.89020427676841L108.0 100.87177093820335L100.0 100.87177093820335L100.0 100.88177093820335z"/>
</g>
</g>
<g transform="matrix(1.0 0.0 0.0 1.0 400.0 350.0)">
<g >
<path stroke="#000000" fill="none" stroke-opacity="0.1" stroke-width="0.4" d="M -35.5 -55.596869541992035L955.5 -55.596869541992035"/>
<path stroke="#000000" fill="none" stroke-opacity="0.1" stroke-width="0.4" d="M -35.5 -40.65534967541488L955.5 -40.65534967541488"/>
<path stroke="#000000" fill="none" stroke-opacity="0.1" stroke-width="0.4" d="M -35.5 -25.713829808837733L955.5 -25.713829808837733"/>
<path stroke="#000000" fill="none" stroke-opacity="0.1" stroke-width="0.4" d="M -35.5 -10.772309942260584L955.5 -10.772309942260584"/>
<path stroke="#000000" fill="none" stroke-opacity="0.1" stroke-width="0.4" d="M -35.5 4.169209924316565L955.5 4.169209924316565"/>
<path stroke="#000000" fill="none" stroke-opacity="0.1" stroke-width="0.4" d="M -35.5 19.110729790893714L955.5 19.110729790893714"/>
<path stroke="#000000" fill="none" stroke-opacity="0.1" stroke-width="0.4" d="M -35.5 34.05224965747087L955.5 34.05224965747087"/>
<path stroke="#000000" fill="none" stroke-opacity="0.1" stroke-width="0.4" d="M -35.5 48.99376952404802L955.5 48.99376952404802"/>
<path stroke="#000000" fill="none" stroke-opacity="0.1" stroke-width="0.4" d="M -35.5 63.93528939062517L955.5 63.93528939062517"/>
<path stroke="#000000" fill="none" stroke-opacity="0.1" stroke-width="0.4" d="M -35.5 78.87680925720232L955.5 78.87680925720232"/>
<path stroke="#000000" fill="none" stroke-opacity="0.1" stroke-width="0.4" d="M -35.5 93.81832912377948L955.5 93.81832912377948"/>
<path stroke="#000000" fill="none" stroke-opacity="0.1" stroke-width="0.4" d="M -35.5 108.75984899035663L955.5 108.75984899035663"/>
<path stroke="#000000" fill="none" stroke-opacity="0.1" stroke-width="0.4" d="M -35.5 123.70136885693378L955.5 123.70136885693378"/>
<path stroke="#000000" fill="none" stroke-opacity="0.1" stroke-width="0.4" d="M -35.5 138.64288872351094L955.5 138.64288872351094"/>
<path stroke="#000000" fill="none" stroke-opacity="0.1" stroke-width="0.4" d="M -35.5 153.5844085900881L955.5 153.5844085900881"/>
<path stroke="#000000" fill="none" stroke-opacity="0.1" stroke-width="0.4" d="M -35.5 168.52592845666524L955.5 168.52592845666524"/>
<path stroke="#000000" fill="none" stroke-opacity="0.1" stroke-width="0.4" d="M -35.5 183.4674483232424L955.5 183.4674483232424"/>
<path stroke="#000000" fill="none" stroke-opacity="0.1" stroke-width="0.4" d="M -35.5 198.40896818981955L955.5 198.40896818981955"/>
<path stroke="#000000" fill="none" stroke-opacity="0.1" stroke-width="0.4" d="M -35.5 213.3504880563967L955.5 213.3504880563967"/>
<path stroke="#000000" fill="none" stroke-opacity="0.1" stroke-width="0.4" d="M -35.5 228.29200792297385L955.5 228.29200792297385"/>
<path stroke="#000000" fill="none" stroke-opacity="0.1" stroke-width="0.4" d="M -35.5 243.233527789551L955.5 243.233527789551"/>
<path stroke="#000000" fill="none" stroke-opacity="0.1" stroke-width="0.4" d="M -35.5 258.17504765612813L955.5 258.17504765612813"/>
<path stroke="#000000" fill="none" stroke-opacity="0.1" stroke-width="0.4" d="M -35.5 273.1165675227053L955.5 273.1165675227053"/>
<path stroke="#000000" fill="none" stroke-opacity="0.1" stroke-width="0.4" d="M -35.5 288.05808738928243L955.5 288.05808738928243"/>
<path stroke="#000000" fill="none" stroke-opacity="0.1" stroke-width="0.4" d="M -35.5 302.9996072558596L955.5 302.9996072558596"/>
<path stroke="#000000" fill="none" stroke-opacity="0.1" stroke-width="0.4" d="M -35.5 317.94112712243674L955.5 317.94112712243674"/>
<path stroke="#000000" fill="none" stroke-opacity="0.1" stroke-width="0.4" d="M -35.5 332.8826469890139L955.5 332.8826469890139"/>
</g>
</g>
<g transform="matrix(1.0 0.0 0.0 1.0 709.0 350.0)">
<g >
<path stroke="#000000" fill="none" stroke-width="0.8" d="M -320.0 27.110729790893718L-320.0 28.866915162565785"/>
<path stroke="#000000" fill="none" stroke-width="0.8" d="M -320.4 27.110729790893718L-300.0 27.110729790893718"/>
<path stroke="#000000" fill="none" stroke-width="0.8" d="M -320.0 28.866915162565785L-320.0 35.83119833578138"/>
<path stroke="#000000" fill="none" stroke-width="0.8" d="M -320.0 28.866915162565785L-320.0 35.83119833578138"/>
<path stroke="#000000" fill="none" stroke-width="0.8" d="M -312.0 28.866915162565785L-312.0 34.45159107621845"/>
<path stroke="#000000" fill="none" stroke-width="0.8" d="M -311.6 28.866915162565785L-320.0 28.866915162565785"/>
<path stroke="#000000" fill="none" stroke-width="0.8" d="M -300.0 27.110729790893718L-300.0 51.83657206735416"/>
<path stroke="#000000" fill="none" stroke-width="0.8" d="M -300.0 27.110729790893718L-300.0 51.83657206735416"/>
<path stroke="#000000" fill="none" stroke-width="0.8" d="M -300.0 51.83657206735416L-300.0 142.89386706624572"/>
<path stroke="#000000" fill="none" stroke-width="0.8" d="M -300.0 51.83657206735416L-300.0 142.89386706624572"/>
<path stroke="#000000" fill="none" stroke-width="0.8" d="M -300.0 142.89386706624572L-300.0 221.01372615552964"/>
<path stroke="#000000" fill="none" stroke-width="0.8" d="M -300.0 142.89386706624572L-300.0 221.01372615552964"/>
<path stroke="#000000" fill="none" stroke-width="0.8" d="M -288.0 142.89386706624572L-288.0 155.19777703148532"/>
<path stroke="#000000" fill="none" stroke-width="0.8" d="M -287.6 142.89386706624572L-300.0 142.89386706624572"/>
<path stroke="#000000" fill="none" stroke-width="0.8" d="M 4.0 51.83657206735416L4.0 52.91067189181575"/>
<path stroke="#000000" fill="none" stroke-width="0.8" d="M 4.4 51.83657206735416L-300.0 51.83657206735416"/>
<path stroke="#000000" fill="none" stroke-width="0.8" d="M 4.0 52.91067189181575L4.0 62.30743742198567"/>
<path stroke="#000000" fill="none" stroke-width="0.8" d="M 4.0 52.91067189181575L4.0 62.30743742198567"/>
<path stroke="#000000" fill="none" stroke-width="0.8" d="M -84.0 62.30743742198567L-84.0 62.30743742198567"/>
<path stroke="#000000" fill="none" stroke-width="0.8" d="M -84.4 62.30743742198567L4.0 62.30743742198567"/>
<path stroke="#000000" fill="none" stroke-width="0.8" d="M -196.0 62.30743742198567L-196.0 84.76384183580377"/>
<path stroke="#000000" fill="none" stroke-width="0.8" d="M -196.4 62.30743742198567L-84.0 62.30743742198567"/>
<path stroke="#000000" fill="none" stroke-width="0.8" d="M -196.0 84.76384183580377L-196.0 128.44175745208295"/>
<path stroke="#000000" fill="none" stroke-width="0.8" d="M -196.0 84.76384183580377L-196.0 128.44175745208295"/>
<path stroke="#000000" fill="none" stroke-width="0.8" d="M -196.0 128.44175745208295L-196.0 132.94075641741756"/>
<path stroke="#000000" fill="none" stroke-width="0.8" d="M -196.0 128.44175745208295L-196.0 132.94075641741756"/>
<path stroke="#000000" fill="none" stroke-width="0.8" d="M -268.0 132.94075641741756L-268.0 133.97626582902424"/>
<path stroke="#000000" fill="none" stroke-width="0.8" d="M -268.4 132.94075641741756L-196.0 132.94075641741756"/>
<path stroke="#000000" fill="none" stroke-width="0.8" d="M -268.0 133.97626582902424L-268.0 160.3335178089259"/>
<path stroke="#000000" fill="none" stroke-width="0.8" d="M -268.0 133.97626582902424L-268.0 160.3335178089259"/>
<path stroke="#000000" fill="none" stroke-width="0.8" d="M -268.0 160.3335178089259L-268.0 165.1122972674586"/>
<path stroke="#000000" fill="none" stroke-width="0.8" d="M -268.0 160.3335178089259L-268.0 165.1122972674586"/>
<path stroke="#000000" fill="none" stroke-width="0.8" d="M -280.0 165.1122972674586L-280.0 169.13213193984475"/>
<path stroke="#000000" fill="none" stroke-width="0.8" d="M -280.4 165.1122972674586L-268.0 165.1122972674586"/>
<path stroke="#000000" fill="none" stroke-width="0.8" d="M -268.0 165.1122972674586L-268.0 238.3311739241693"/>
<path stroke="#000000" fill="none" stroke-width="0.8" d="M -268.0 165.1122972674586L-268.0 238.3311739241693"/>
<path stroke="#000000" fill="none" stroke-width="0.8" d="M -252.0 160.3335178089259L-252.0 184.14380254040364"/>
<path stroke="#000000" fill="none" stroke-width="0.8" d="M -251.6 160.3335178089259L-268.0 160.3335178089259"/>
<path stroke="#000000" fill="none" stroke-width="0.8" d="M -252.0 184.14380254040364L-252.0 204.0918301186528"/>
<path stroke="#000000" fill="none" stroke-width="0.8" d="M -252.0 184.14380254040364L-252.0 204.0918301186528"/>
<path stroke="#000000" fill="none" stroke-width="0.8" d="M -240.0 184.14380254040364L-240.0 187.40790829438123"/>
<path stroke="#000000" fill="none" stroke-width="0.8" d="M -239.6 184.14380254040364L-252.0 184.14380254040364"/>
<path stroke="#000000" fill="none" stroke-width="0.8" d="M -232.0 133.97626582902424L-232.0 140.66527072387484"/>
<path stroke="#000000" fill="none" stroke-width="0.8" d="M -231.6 133.97626582902424L-268.0 133.97626582902424"/>
<path stroke="#000000" fill="none" stroke-width="0.8" d="M -232.0 140.66527072387484L-232.0 162.76149795104715"/>
<path stroke="#000000" fill="none" stroke-width="0.8" d="M -232.0 140.66527072387484L-232.0 162.76149795104715"/>
<path stroke="#000000" fill="none" stroke-width="0.8" d="M -224.0 140.66527072387484L-224.0 142.57549616019276"/>
<path stroke="#000000" fill="none" stroke-width="0.8" d="M -223.6 140.66527072387484L-232.0 140.66527072387484"/>
<path stroke="#000000" fill="none" stroke-width="0.8" d="M -224.0 142.57549616019276L-224.0 157.94412807965955"/>
<path stroke="#000000" fill="none" stroke-width="0.8" d="M -224.0 142.57549616019276L-224.0 157.94412807965955"/>
<path stroke="#000000" fill="none" stroke-width="0.8" d="M -216.0 142.57549616019276L-216.0 153.16856448886477"/>
<path stroke="#000000" fill="none" stroke-width="0.8" d="M -215.6 142.57549616019276L-224.0 142.57549616019276"/>
<path stroke="#000000" fill="none" stroke-width="0.8" d="M -196.0 132.94075641741756L-196.0 144.3281440773531"/>
<path stroke="#000000" fill="none" stroke-width="0.8" d="M -196.0 132.94075641741756L-196.0 144.3281440773531"/>
<path stroke="#000000" fill="none" stroke-width="0.8" d="M -196.0 144.3281440773531L-196.0 153.88248712668056"/>
<path stroke="#000000" fill="none" stroke-width="0.8" d="M -196.0 144.3281440773531L-196.0 153.88248712668056"/>
<path stroke="#000000" fill="none" stroke-width="0.8" d="M -208.0 153.88248712668056L-208.0 163.0798688571001"/>
<path stroke="#000000" fill="none" stroke-width="0.8" d="M -208.4 153.88248712668056L-196.0 153.88248712668056"/>
<path stroke="#000000" fill="none" stroke-width="0.8" d="M -196.0 153.88248712668056L-196.0 175.42236923519465"/>
<path stroke="#000000" fill="none" stroke-width="0.8" d="M -196.0 153.88248712668056L-196.0 175.42236923519465"/>
<path stroke="#000000" fill="none" stroke-width="0.8" d="M -196.0 175.42236923519465L-196.0 288.1417493166408"/>
<path stroke="#000000" fill="none" stroke-width="0.8" d="M -196.0 175.42236923519465L-196.0 288.1417493166408"/>
<path stroke="#000000" fill="none" stroke-width="0.8" d="M -184.0 175.42236923519465L-184.0 183.34626734140227"/>
<path stroke="#000000" fill="none" stroke-width="0.8" d="M -183.6 175.42236923519465L-196.0 175.42236923519465"/>
<path stroke="#000000" fill="none" stroke-width="0.8" d="M -176.0 144.3281440773531L-176.0 165.8680261858672"/>
<path stroke="#000000" fill="none" stroke-width="0.8" d="M -175.6 144.3281440773531L-196.0 144.3281440773531"/>
<path stroke="#000000" fill="none" stroke-width="0.8" d="M -156.0 128.44175745208295L-156.0 154.48063852593162"/>
<path stroke="#000000" fill="none" stroke-width="0.8" d="M -155.6 128.44175745208295L-196.0 128.44175745208295"/>
<path stroke="#000000" fill="none" stroke-width="0.8" d="M -168.0 154.48063852593162L-168.0 169.25111904614738"/>
<path stroke="#000000" fill="none" stroke-width="0.8" d="M -168.4 154.48063852593162L-156.0 154.48063852593162"/>
<path stroke="#000000" fill="none" stroke-width="0.8" d="M -156.0 154.48063852593162L-156.0 162.84189464449486"/>
<path stroke="#000000" fill="none" stroke-width="0.8" d="M -156.0 154.48063852593162L-156.0 162.84189464449486"/>
<path stroke="#000000" fill="none" stroke-width="0.8" d="M -140.0 84.76384183580377L-140.0 93.56245596672262"/>
<path stroke="#000000" fill="none" stroke-width="0.8" d="M -139.6 84.76384183580377L-196.0 84.76384183580377"/>
<path stroke="#000000" fill="none" stroke-width="0.8" d="M -140.0 93.56245596672262L-140.0 114.82577344977652"/>
<path stroke="#000000" fill="none" stroke-width="0.8" d="M -140.0 93.56245596672262L-140.0 114.82577344977652"/>
<path stroke="#000000" fill="none" stroke-width="0.8" d="M -140.0 114.82577344977652L-140.0 260.63000081882984"/>
<path stroke="#000000" fill="none" stroke-width="0.8" d="M -140.0 114.82577344977652L-140.0 260.63000081882984"/>
<path stroke="#000000" fill="none" stroke-width="0.8" d="M -116.0 114.82577344977652L-116.0 125.61500971046101"/>
<path stroke="#000000" fill="none" stroke-width="0.8" d="M -115.6 114.82577344977652L-140.0 114.82577344977652"/>
<path stroke="#000000" fill="none" stroke-width="0.8" d="M -128.0 125.61500971046101L-128.0 148.15181081772684"/>
<path stroke="#000000" fill="none" stroke-width="0.8" d="M -128.4 125.61500971046101L-116.0 125.61500971046101"/>
<path stroke="#000000" fill="none" stroke-width="0.8" d="M -116.0 125.61500971046101L-116.0 142.0191510415345"/>
<path stroke="#000000" fill="none" stroke-width="0.8" d="M -116.0 125.61500971046101L-116.0 142.0191510415345"/>
<path stroke="#000000" fill="none" stroke-width="0.8" d="M -104.0 93.56245596672262L-104.0 97.46651940054409"/>
<path stroke="#000000" fill="none" stroke-width="0.8" d="M -103.6 93.56245596672262L-140.0 93.56245596672262"/>
<path stroke="#000000" fill="none" stroke-width="0.8" d="M -84.0 62.30743742198567L-84.0 71.54340956526013"/>
<path stroke="#000000" fill="none" stroke-width="0.8" d="M -84.0 62.30743742198567L-84.0 71.54340956526013"/>
<path stroke="#000000" fill="none" stroke-width="0.8" d="M -84.0 71.54340956526013L-84.0 81.0623780694706"/>
<path stroke="#000000" fill="none" stroke-width="0.8" d="M -84.0 71.54340956526013L-84.0 81.0623780694706"/>
<path stroke="#000000" fill="none" stroke-width="0.8" d="M -84.0 81.0623780694706L-84.0 100.01348664896796"/>
<path stroke="#000000" fill="none" stroke-width="0.8" d="M -84.0 81.0623780694706L-84.0 100.01348664896796"/>
<path stroke="#000000" fill="none" stroke-width="0.8" d="M -84.0 100.01348664896796L-84.0 106.98227203701663"/>
<path stroke="#000000" fill="none" stroke-width="0.8" d="M -84.0 100.01348664896796L-84.0 106.98227203701663"/>
<path stroke="#000000" fill="none" stroke-width="0.8" d="M -84.0 106.98227203701663L-84.0 111.00210670940278"/>
<path stroke="#000000" fill="none" stroke-width="0.8" d="M -84.0 106.98227203701663L-84.0 111.00210670940278"/>
<path stroke="#000000" fill="none" stroke-width="0.8" d="M -84.0 111.00210670940278L-84.0 125.65360012331593"/>
<path stroke="#000000" fill="none" stroke-width="0.8" d="M -84.0 111.00210670940278L-84.0 125.65360012331593"/>
<path stroke="#000000" fill="none" stroke-width="0.8" d="M -96.0 125.65360012331593L-96.0 129.07849926418893"/>
<path stroke="#000000" fill="none" stroke-width="0.8" d="M -96.4 125.65360012331593L-84.0 125.65360012331593"/>
<path stroke="#000000" fill="none" stroke-width="0.8" d="M -84.0 125.65360012331593L-84.0 321.58677379089374"/>
<path stroke="#000000" fill="none" stroke-width="0.8" d="M -84.0 125.65360012331593L-84.0 321.58677379089374"/>
<path stroke="#000000" fill="none" stroke-width="0.8" d="M -72.0 111.00210670940278L-72.0 119.28296613451832"/>
<path stroke="#000000" fill="none" stroke-width="0.8" d="M -71.6 111.00210670940278L-84.0 111.00210670940278"/>
<path stroke="#000000" fill="none" stroke-width="0.8" d="M -64.0 106.98227203701663L-64.0 113.15352222606387"/>
<path stroke="#000000" fill="none" stroke-width="0.8" d="M -63.6 106.98227203701663L-84.0 106.98227203701663"/>
<path stroke="#000000" fill="none" stroke-width="0.8" d="M -56.0 100.01348664896796L-56.0 105.26821453271117"/>
<path stroke="#000000" fill="none" stroke-width="0.8" d="M -55.6 100.01348664896796L-84.0 100.01348664896796"/>
<path stroke="#000000" fill="none" stroke-width="0.8" d="M -48.0 81.0623780694706L-48.0 87.1114252844773"/>
<path stroke="#000000" fill="none" stroke-width="0.8" d="M -47.6 81.0623780694706L-84.0 81.0623780694706"/>
<path stroke="#000000" fill="none" stroke-width="0.8" d="M -40.0 71.54340956526013L-40.0 74.96830870613314"/>
<path stroke="#000000" fill="none" stroke-width="0.8" d="M -39.6 71.54340956526013L-84.0 71.54340956526013"/>
<path stroke="#000000" fill="none" stroke-width="0.8" d="M 4.0 62.30743742198567L4.0 79.98506237727109"/>
<path stroke="#000000" fill="none" stroke-width="0.8" d="M 4.0 62.30743742198567L4.0 79.98506237727109"/>
<path stroke="#000000" fill="none" stroke-width="0.8" d="M 4.0 79.98506237727109L4.0 84.36507423630307"/>
<path stroke="#000000" fill="none" stroke-width="0.8" d="M 4.0 79.98506237727109L4.0 84.36507423630307"/>
<path stroke="#000000" fill="none" stroke-width="0.8" d="M 4.0 84.36507423630307L4.0 114.94476055607916"/>
<path stroke="#000000" fill="none" stroke-width="0.8" d="M 4.0 84.36507423630307L4.0 114.94476055607916"/>
<path stroke="#000000" fill="none" stroke-width="0.8" d="M -12.0 114.94476055607916L-12.0 123.46359419379992"/>
<path stroke="#000000" fill="none" stroke-width="0.8" d="M -12.4 114.94476055607916L4.0 114.94476055607916"/>
<path stroke="#000000" fill="none" stroke-width="0.8" d="M -32.0 123.46359419379992L-32.0 127.04928672156838"/>
<path stroke="#000000" fill="none" stroke-width="0.8" d="M -32.4 123.46359419379992L-12.0 123.46359419379992"/>
<path stroke="#000000" fill="none" stroke-width="0.8" d="M -32.0 127.04928672156838L-32.0 142.0577414543894"/>
<path stroke="#000000" fill="none" stroke-width="0.8" d="M -32.0 127.04928672156838L-32.0 142.0577414543894"/>
<path stroke="#000000" fill="none" stroke-width="0.8" d="M -24.0 127.04928672156838L-24.0 131.18810850025721"/>
<path stroke="#000000" fill="none" stroke-width="0.8" d="M -23.6 127.04928672156838L-32.0 127.04928672156838"/>
<path stroke="#000000" fill="none" stroke-width="0.8" d="M -12.0 123.46359419379992L-12.0 148.34797874973927"/>
<path stroke="#000000" fill="none" stroke-width="0.8" d="M -12.0 123.46359419379992L-12.0 148.34797874973927"/>
<path stroke="#000000" fill="none" stroke-width="0.8" d="M 4.0 114.94476055607916L4.0 260.46920743193436"/>
<path stroke="#000000" fill="none" stroke-width="0.8" d="M 4.0 114.94476055607916L4.0 260.46920743193436"/>
<path stroke="#000000" fill="none" stroke-width="0.8" d="M 16.0 84.36507423630307L16.0 89.54262129433646"/>
<path stroke="#000000" fill="none" stroke-width="0.8" d="M 16.4 84.36507423630307L4.0 84.36507423630307"/>
<path stroke="#000000" fill="none" stroke-width="0.8" d="M 44.0 79.98506237727109L44.0 85.9987350471608"/>
<path stroke="#000000" fill="none" stroke-width="0.8" d="M 44.4 79.98506237727109L4.0 79.98506237727109"/>
<path stroke="#000000" fill="none" stroke-width="0.8" d="M 44.0 85.9987350471608L44.0 125.41562591071066"/>
<path stroke="#000000" fill="none" stroke-width="0.8" d="M 44.0 85.9987350471608L44.0 125.41562591071066"/>
<path stroke="#000000" fill="none" stroke-width="0.8" d="M 44.0 125.41562591071066L44.0 128.44175745208295"/>
<path stroke="#000000" fill="none" stroke-width="0.8" d="M 44.0 125.41562591071066L44.0 128.44175745208295"/>
<path stroke="#000000" fill="none" stroke-width="0.8" d="M 44.0 128.44175745208295L44.0 144.3281440773531"/>
<path stroke="#000000" fill="none" stroke-width="0.8" d="M 44.0 128.44175745208295L44.0 144.3281440773531"/>
<path stroke="#000000" fill="none" stroke-width="0.8" d="M 44.0 144.3281440773531L44.0 153.2875515951674"/>
<path stroke="#000000" fill="none" stroke-width="0.8" d="M 44.0 144.3281440773531L44.0 153.2875515951674"/>
<path stroke="#000000" fill="none" stroke-width="0.8" d="M 44.0 153.2875515951674L44.0 160.85127251472923"/>
<path stroke="#000000" fill="none" stroke-width="0.8" d="M 44.0 153.2875515951674L44.0 160.85127251472923"/>
<path stroke="#000000" fill="none" stroke-width="0.8" d="M 24.0 160.85127251472923L24.0 204.17222681210052"/>
<path stroke="#000000" fill="none" stroke-width="0.8" d="M 23.6 160.85127251472923L44.0 160.85127251472923"/>
<path stroke="#000000" fill="none" stroke-width="0.8" d="M 44.0 160.85127251472923L44.0 163.3210589374433"/>
<path stroke="#000000" fill="none" stroke-width="0.8" d="M 44.0 160.85127251472923L44.0 163.3210589374433"/>
<path stroke="#000000" fill="none" stroke-width="0.8" d="M 32.0 163.3210589374433L32.0 169.29292532674017"/>
<path stroke="#000000" fill="none" stroke-width="0.8" d="M 31.6 163.3210589374433L44.0 163.3210589374433"/>
<path stroke="#000000" fill="none" stroke-width="0.8" d="M 44.0 163.3210589374433L44.0 238.53055772391963"/>
<path stroke="#000000" fill="none" stroke-width="0.8" d="M 44.0 163.3210589374433L44.0 238.53055772391963"/>
<path stroke="#000000" fill="none" stroke-width="0.8" d="M 76.0 153.2875515951674L76.0 155.19777703148532"/>
<path stroke="#000000" fill="none" stroke-width="0.8" d="M 76.4 153.2875515951674L44.0 153.2875515951674"/>
<path stroke="#000000" fill="none" stroke-width="0.8" d="M 56.0 155.19777703148532L56.0 163.04127844424522"/>
<path stroke="#000000" fill="none" stroke-width="0.8" d="M 55.6 155.19777703148532L76.0 155.19777703148532"/>
<path stroke="#000000" fill="none" stroke-width="0.8" d="M 76.0 155.19777703148532L76.0 170.84618944415018"/>
<path stroke="#000000" fill="none" stroke-width="0.8" d="M 76.0 155.19777703148532L76.0 170.84618944415018"/>
<path stroke="#000000" fill="none" stroke-width="0.8" d="M 64.0 170.84618944415018L64.0 176.41928823394642"/>
<path stroke="#000000" fill="none" stroke-width="0.8" d="M 63.6 170.84618944415018L76.0 170.84618944415018"/>
<path stroke="#000000" fill="none" stroke-width="0.8" d="M 76.0 170.84618944415018L76.0 175.34518840948482"/>
<path stroke="#000000" fill="none" stroke-width="0.8" d="M 76.0 170.84618944415018L76.0 175.34518840948482"/>
<path stroke="#000000" fill="none" stroke-width="0.8" d="M 76.0 175.34518840948482L76.0 230.9668368043578"/>
<path stroke="#000000" fill="none" stroke-width="0.8" d="M 76.0 175.34518840948482L76.0 230.9668368043578"/>
<path stroke="#000000" fill="none" stroke-width="0.8" d="M 76.0 230.9668368043578L76.0 288.42152980983883"/>
<path stroke="#000000" fill="none" stroke-width="0.8" d="M 76.0 230.9668368043578L76.0 288.42152980983883"/>
<path stroke="#000000" fill="none" stroke-width="0.8" d="M 88.0 230.9668368043578L88.0 235.8646033691931"/>
<path stroke="#000000" fill="none" stroke-width="0.8" d="M 88.4 230.9668368043578L76.0 230.9668368043578"/>
<path stroke="#000000" fill="none" stroke-width="0.8" d="M 96.0 175.34518840948482L96.0 183.34626734140227"/>
<path stroke="#000000" fill="none" stroke-width="0.8" d="M 96.4 175.34518840948482L76.0 175.34518840948482"/>
<path stroke="#000000" fill="none" stroke-width="0.8" d="M 104.0 144.3281440773531L104.0 165.8680261858672"/>
<path stroke="#000000" fill="none" stroke-width="0.8" d="M 104.4 144.3281440773531L44.0 144.3281440773531"/>
<path stroke="#000000" fill="none" stroke-width="0.8" d="M 124.0 128.44175745208295L124.0 154.44204811307674"/>
<path stroke="#000000" fill="none" stroke-width="0.8" d="M 124.4 128.44175745208295L44.0 128.44175745208295"/>
<path stroke="#000000" fill="none" stroke-width="0.8" d="M 112.0 154.44204811307674L112.0 169.29292532674017"/>
<path stroke="#000000" fill="none" stroke-width="0.8" d="M 111.6 154.44204811307674L124.0 154.44204811307674"/>
<path stroke="#000000" fill="none" stroke-width="0.8" d="M 124.0 154.44204811307674L124.0 162.84189464449486"/>
<path stroke="#000000" fill="none" stroke-width="0.8" d="M 124.0 154.44204811307674L124.0 162.84189464449486"/>
<path stroke="#000000" fill="none" stroke-width="0.8" d="M 136.0 125.41562591071066L136.0 129.43546058309684"/>
<path stroke="#000000" fill="none" stroke-width="0.8" d="M 136.4 125.41562591071066L44.0 125.41562591071066"/>
<path stroke="#000000" fill="none" stroke-width="0.8" d="M 144.0 85.9987350471608L144.0 89.46222460088873"/>
<path stroke="#000000" fill="none" stroke-width="0.8" d="M 144.4 85.9987350471608L44.0 85.9987350471608"/>
<path stroke="#000000" fill="none" stroke-width="0.8" d="M 152.0 52.91067189181575L152.0 71.30543535265487"/>
<path stroke="#000000" fill="none" stroke-width="0.8" d="M 152.4 52.91067189181575L4.0 52.91067189181575"/>
</g>
</g>
<g transform="matrix(1.0 0.0 0.0 1.0 709.0 350.0)">
<g >
<path stroke="#000000" fill="none" stroke-width="4.0" d="M -300.0 27.110729790893718L-300.0 -37.87587518954018"/>
<path stroke="#000000" fill="none" stroke-width="4.0" d="M -300.0 142.89386706624572L-300.0 189.3282401976096L-300.0 142.89386706624572L-300.0 189.3282401976096L-300.0 51.83657206735416L-300.0 142.89386706624572L-300.0 27.110729790893718L-300.0 51.83657206735416L-300.0 27.110729790893718L-300.0 -40.65534967541488"/>
<path stroke="#000000" fill="#c64340" stroke-width="0.8" d="M -304.0 -44.65534967541488L-296.0 -44.65534967541488L-296.0 -36.65534967541488L-304.0 -36.65534967541488L-304.0 -44.65534967541488z"/>
<path stroke="#c64340" fill="#c64340" stroke-width="2.4" d="M -300.0 142.89386706624572L-300.0 188.5282401976096L-300.0 142.89386706624572L-300.0 188.5282401976096L-300.0 51.83657206735416L-300.0 142.89386706624572L-300.0 27.110729790893718L-300.0 51.83657206735416L-300.0 27.110729790893718L-300.0 -40.65534967541488"/>
<path stroke="#000000" fill="none" stroke-width="4.0" d="M 4.0 114.94476055607916L4.0 259.1079532704117L4.0 114.94476055607916L4.0 259.1079532704117L4.0 84.36507423630307L4.0 114.94476055607916L4.0 79.98506237727109L4.0 84.36507423630307L4.0 62.30743742198567L4.0 79.98506237727109L4.0 52.91067189181575L4.0 62.30743742198567L4.0 51.83657206735416L4.0 52.91067189181575"/>
<path stroke="#000000" fill="#fb827a" stroke-width="0.8" d="M 0.0 47.83657206735417L8.0 47.83657206735417L8.0 55.83657206735417L0.0 55.83657206735417L0.0 47.83657206735417z"/>
<path stroke="#fb827a" fill="#fb827a" stroke-width="2.4" d="M 4.0 114.94476055607916L4.0 258.30795327041176L4.0 114.94476055607916L4.0 258.30795327041176L4.0 84.36507423630307L4.0 114.94476055607916L4.0 79.98506237727109L4.0 84.36507423630307L4.0 62.30743742198567L4.0 79.98506237727109L4.0 52.91067189181575L4.0 62.30743742198567L4.0 51.83657206735416L4.0 52.91067189181575"/>
<path stroke="#000000" fill="none" stroke-width="4.0" d="M -84.0 125.65360012331593L-84.0 261.27890279556004L-84.0 125.65360012331593L-84.0 261.27890279556004L-84.0 111.00210670940278L-84.0 125.65360012331593L-84.0 106.98227203701663L-84.0 111.00210670940278L-84.0 100.01348664896796L-84.0 106.98227203701663L-84.0 81.0623780694706L-84.0 100.01348664896796L-84.0 71.54340956526013L-84.0 81.0623780694706L-84.0 62.30743742198567L-84.0 71.54340956526013L-84.0 62.30743742198567L-84.0 62.30743742198567"/>
<path stroke="#000000" fill="#ffd6d1" stroke-width="0.8" d="M -88.0 58.30743742198567L-80.0 58.30743742198567L-80.0 66.30743742198567L-88.0 66.30743742198567L-88.0 58.30743742198567z"/>
<path stroke="#ffd6d1" fill="#ffd6d1" stroke-width="2.4" d="M -84.0 125.65360012331593L-84.0 260.4789027955601L-84.0 125.65360012331593L-84.0 260.4789027955601L-84.0 111.00210670940278L-84.0 125.65360012331593L-84.0 106.98227203701663L-84.0 111.00210670940278L-84.0 100.01348664896796L-84.0 106.98227203701663L-84.0 81.0623780694706L-84.0 100.01348664896796L-84.0 71.54340956526013L-84.0 81.0623780694706L-84.0 62.30743742198567L-84.0 71.54340956526013L-84.0 62.30743742198567L-84.0 62.30743742198567"/>
<path stroke="#000000" fill="none" stroke-width="4.0" d="M -196.0 175.42236923519465L-196.0 243.1843772043706L-196.0 175.42236923519465L-196.0 243.1843772043706L-196.0 153.88248712668056L-196.0 175.42236923519465L-196.0 144.3281440773531L-196.0 153.88248712668056L-196.0 132.94075641741756L-196.0 144.3281440773531L-196.0 128.44175745208295L-196.0 132.94075641741756L-196.0 84.76384183580377L-196.0 128.44175745208295L-196.0 62.30743742198567L-196.0 84.76384183580377"/>
<path stroke="#000000" fill="#ffd6d1" stroke-width="0.8" d="M -200.0 58.30743742198567L-192.0 58.30743742198567L-192.0 66.30743742198567L-200.0 66.30743742198567L-200.0 58.30743742198567z"/>
<path stroke="#ffd6d1" fill="#ffd6d1" stroke-width="2.4" d="M -196.0 175.42236923519465L-196.0 242.3843772043706L-196.0 175.42236923519465L-196.0 242.3843772043706L-196.0 153.88248712668056L-196.0 175.42236923519465L-196.0 144.3281440773531L-196.0 153.88248712668056L-196.0 132.94075641741756L-196.0 144.3281440773531L-196.0 128.44175745208295L-196.0 132.94075641741756L-196.0 84.76384183580377L-196.0 128.44175745208295L-196.0 62.30743742198567L-196.0 84.76384183580377"/>
<path stroke="#000000" fill="none" stroke-width="4.0" d="M 44.0 163.3210589374433L44.0 205.07672659344527L44.0 163.3210589374433L44.0 205.07672659344527L44.0 160.85127251472923L44.0 163.3210589374433L44.0 153.2875515951674L44.0 160.85127251472923L44.0 144.3281440773531L44.0 153.2875515951674L44.0 128.44175745208295L44.0 144.3281440773531L44.0 125.41562591071066L44.0 128.44175745208295L44.0 85.9987350471608L44.0 125.41562591071066L44.0 79.98506237727109L44.0 85.9987350471608"/>
<path stroke="#000000" fill="#ffd6d1" stroke-width="0.8" d="M 40.0 75.98506237727109L48.0 75.98506237727109L48.0 83.98506237727109L40.0 83.98506237727109L40.0 75.98506237727109z"/>
<path stroke="#ffd6d1" fill="#ffd6d1" stroke-width="2.4" d="M 44.0 163.3210589374433L44.0 204.27672659344526L44.0 163.3210589374433L44.0 204.27672659344526L44.0 160.85127251472923L44.0 163.3210589374433L44.0 153.2875515951674L44.0 160.85127251472923L44.0 144.3281440773531L44.0 153.2875515951674L44.0 128.44175745208295L44.0 144.3281440773531L44.0 125.41562591071066L44.0 128.44175745208295L44.0 85.9987350471608L44.0 125.41562591071066L44.0 79.98506237727109L44.0 85.9987350471608"/>
<path stroke="#000000" fill="none" stroke-width="4.0" d="M -140.0 114.82577344977652L-140.0 259.26459150146763L-140.0 114.82577344977652L-140.0 259.26459150146763L-140.0 93.56245596672262L-140.0 114.82577344977652L-140.0 84.76384183580377L-140.0 93.56245596672262"/>
<path stroke="#000000" fill="#c64340" stroke-width="0.8" d="M -144.0 80.76384183580377L-136.0 80.76384183580377L-136.0 88.76384183580377L-144.0 88.76384183580377L-144.0 80.76384183580377z"/>
<path stroke="#c64340" fill="#c64340" stroke-width="2.4" d="M -140.0 114.82577344977652L-140.0 258.4645915014676L-140.0 114.82577344977652L-140.0 258.4645915014676L-140.0 93.56245596672262L-140.0 114.82577344977652L-140.0 84.76384183580377L-140.0 93.56245596672262"/>
<path stroke="#000000" fill="none" stroke-width="4.0" d="M -12.0 114.94476055607916L-12.0 118.02207251863817L-12.0 114.94476055607916L-12.0 118.02207251863817"/>
<path stroke="#000000" fill="#ffd6d1" stroke-width="0.8" d="M -16.0 110.94476055607915L-8.0 110.94476055607915L-8.0 118.94476055607915L-16.0 118.94476055607915L-16.0 110.94476055607915z"/>
<path stroke="#ffd6d1" fill="#ffd6d1" stroke-width="2.4" d="M -12.0 114.94476055607916L-12.0 117.22207251863817L-12.0 114.94476055607916L-12.0 117.22207251863817"/>
<path stroke="#000000" fill="none" stroke-width="4.0" d="M -116.0 114.82577344977652L-116.0 117.548607634849L-116.0 114.82577344977652L-116.0 117.548607634849"/>
<path stroke="#000000" fill="#fb827a" stroke-width="0.8" d="M -120.0 110.82577344977652L-112.0 110.82577344977652L-112.0 118.82577344977652L-120.0 118.82577344977652L-120.0 110.82577344977652z"/>
<path stroke="#fb827a" fill="#fb827a" stroke-width="2.4" d="M -116.0 114.82577344977652L-116.0 116.74860763484901L-116.0 114.82577344977652L-116.0 116.74860763484901"/>
<path stroke="#000000" fill="none" stroke-width="4.0" d="M -156.0 128.44175745208295L-156.0 131.81986448909768L-156.0 128.44175745208295L-156.0 131.81986448909768"/>
<path stroke="#000000" fill="#c64340" stroke-width="0.8" d="M -160.0 124.44175745208292L-152.0 124.44175745208292L-152.0 132.44175745208292L-160.0 132.44175745208292L-160.0 124.44175745208292z"/>
<path stroke="#c64340" fill="#c64340" stroke-width="2.4" d="M -156.0 128.44175745208295L-156.0 131.01986448909767L-156.0 128.44175745208295L-156.0 131.01986448909767"/>
<path stroke="#000000" fill="none" stroke-width="4.0" d="M 124.0 128.44175745208295L124.0 131.81604365614174L124.0 128.44175745208295L124.0 131.81604365614174"/>
<path stroke="#000000" fill="#c64340" stroke-width="0.8" d="M 120.0 124.44175745208292L128.0 124.44175745208292L128.0 132.44175745208292L120.0 132.44175745208292L120.0 124.44175745208292z"/>
<path stroke="#c64340" fill="#c64340" stroke-width="2.4" d="M 124.0 128.44175745208295L124.0 131.01604365614173L124.0 128.44175745208295L124.0 131.01604365614173"/>
<path stroke="#000000" fill="none" stroke-width="4.0" d="M -268.0 165.1122972674586L-268.0 201.43432653655586L-268.0 165.1122972674586L-268.0 201.43432653655586L-268.0 160.3335178089259L-268.0 165.1122972674586L-268.0 133.97626582902424L-268.0 160.3335178089259L-268.0 132.94075641741756L-268.0 133.97626582902424"/>
<path stroke="#000000" fill="#c64340" stroke-width="0.8" d="M -272.0 128.94075641741756L-264.0 128.94075641741756L-264.0 136.94075641741756L-272.0 136.94075641741756L-272.0 128.94075641741756z"/>
<path stroke="#c64340" fill="#c64340" stroke-width="2.4" d="M -268.0 165.1122972674586L-268.0 200.63432653655588L-268.0 165.1122972674586L-268.0 200.63432653655588L-268.0 160.3335178089259L-268.0 165.1122972674586L-268.0 133.97626582902424L-268.0 160.3335178089259L-268.0 132.94075641741756L-268.0 133.97626582902424"/>
<path stroke="#000000" fill="none" stroke-width="4.0" d="M 76.0 230.9668368043578L76.0 243.9972912560196L76.0 230.9668368043578L76.0 243.9972912560196L76.0 175.34518840948482L76.0 230.9668368043578L76.0 170.84618944415018L76.0 175.34518840948482L76.0 155.19777703148532L76.0 170.84618944415018L76.0 153.2875515951674L76.0 155.19777703148532"/>
<path stroke="#000000" fill="#c64340" stroke-width="0.8" d="M 72.0 149.28755159516737L80.0 149.28755159516737L80.0 157.28755159516737L72.0 157.28755159516737L72.0 149.28755159516737z"/>
<path stroke="#c64340" fill="#c64340" stroke-width="2.4" d="M 76.0 230.9668368043578L76.0 243.1972912560196L76.0 230.9668368043578L76.0 243.1972912560196L76.0 175.34518840948482L76.0 230.9668368043578L76.0 170.84618944415018L76.0 175.34518840948482L76.0 155.19777703148532L76.0 170.84618944415018L76.0 153.2875515951674L76.0 155.19777703148532"/>
<path stroke="#000000" fill="none" stroke-width="4.0" d="M -252.0 184.14380254040364L-252.0 203.7067987773707L-252.0 184.14380254040364L-252.0 203.7067987773707L-252.0 160.3335178089259L-252.0 184.14380254040364"/>
<path stroke="#000000" fill="#fb827a" stroke-width="0.8" d="M -256.0 156.33351780892588L-248.0 156.33351780892588L-248.0 164.33351780892588L-256.0 164.33351780892588L-256.0 156.33351780892588z"/>
<path stroke="#fb827a" fill="#fb827a" stroke-width="2.4" d="M -252.0 184.14380254040364L-252.0 202.90679877737068L-252.0 184.14380254040364L-252.0 202.90679877737068L-252.0 160.3335178089259L-252.0 184.14380254040364"/>
</g>
</g>
<g transform="matrix(1.0 0.0 0.0 1.0 1227.0 350.0)">
<g >
<path stroke="#000000" fill="none" stroke-width="0.8" d="M -328.0 29.89020427676841L-328.0 32.077959098867865"/>
<path stroke="#000000" fill="none" stroke-width="0.8" d="M -328.4 29.89020427676841L-212.0 29.89020427676841"/>
<path stroke="#000000" fill="none" stroke-width="0.8" d="M -328.0 32.077959098867865L-328.0 39.74490937281656"/>
<path stroke="#000000" fill="none" stroke-width="0.8" d="M -328.0 32.077959098867865L-328.0 39.74490937281656"/>
<path stroke="#000000" fill="none" stroke-width="0.8" d="M -320.0 32.077959098867865L-320.0 38.323495832660804"/>
<path stroke="#000000" fill="none" stroke-width="0.8" d="M -319.6 32.077959098867865L-328.0 32.077959098867865"/>
<path stroke="#000000" fill="none" stroke-width="0.8" d="M -212.0 29.89020427676841L-212.0 59.65434653821079"/>
<path stroke="#000000" fill="none" stroke-width="0.8" d="M -212.0 29.89020427676841L-212.0 59.65434653821079"/>
<path stroke="#000000" fill="none" stroke-width="0.8" d="M -308.0 59.65434653821079L-308.0 61.72858122916206"/>
<path stroke="#000000" fill="none" stroke-width="0.8" d="M -308.4 59.65434653821079L-212.0 59.65434653821079"/>
<path stroke="#000000" fill="none" stroke-width="0.8" d="M -308.0 61.72858122916206L-308.0 153.6734557237165"/>
<path stroke="#000000" fill="none" stroke-width="0.8" d="M -308.0 61.72858122916206L-308.0 153.6734557237165"/>
<path stroke="#000000" fill="none" stroke-width="0.8" d="M -308.0 153.6734557237165L-308.0 248.97569613664783"/>
<path stroke="#000000" fill="none" stroke-width="0.8" d="M -308.0 153.6734557237165L-308.0 248.97569613664783"/>
<path stroke="#000000" fill="none" stroke-width="0.8" d="M -296.0 153.6734557237165L-296.0 177.4644452487668"/>
<path stroke="#000000" fill="none" stroke-width="0.8" d="M -295.6 153.6734557237165L-308.0 153.6734557237165"/>
<path stroke="#000000" fill="none" stroke-width="0.8" d="M -288.0 61.72858122916206L-288.0 82.6510167319976"/>
<path stroke="#000000" fill="none" stroke-width="0.8" d="M -287.6 61.72858122916206L-308.0 61.72858122916206"/>
<path stroke="#000000" fill="none" stroke-width="0.8" d="M -212.0 59.65434653821079L-212.0 70.81983932423061"/>
<path stroke="#000000" fill="none" stroke-width="0.8" d="M -212.0 59.65434653821079L-212.0 70.81983932423061"/>
<path stroke="#000000" fill="none" stroke-width="0.8" d="M -212.0 70.81983932423061L-212.0 93.11223448341538"/>
<path stroke="#000000" fill="none" stroke-width="0.8" d="M -212.0 70.81983932423061L-212.0 93.11223448341538"/>
<path stroke="#000000" fill="none" stroke-width="0.8" d="M -212.0 93.11223448341538L-212.0 98.36374649942066"/>
<path stroke="#000000" fill="none" stroke-width="0.8" d="M -212.0 93.11223448341538L-212.0 98.36374649942066"/>
<path stroke="#000000" fill="none" stroke-width="0.8" d="M -212.0 98.36374649942066L-212.0 146.52136587460703"/>
<path stroke="#000000" fill="none" stroke-width="0.8" d="M -212.0 98.36374649942066L-212.0 146.52136587460703"/>
<path stroke="#000000" fill="none" stroke-width="0.8" d="M -212.0 146.52136587460703L-212.0 161.4880143268352"/>
<path stroke="#000000" fill="none" stroke-width="0.8" d="M -212.0 146.52136587460703L-212.0 161.4880143268352"/>
<path stroke="#000000" fill="none" stroke-width="0.8" d="M -268.0 161.4880143268352L-268.0 167.04824964567973"/>
<path stroke="#000000" fill="none" stroke-width="0.8" d="M -268.4 161.4880143268352L-212.0 161.4880143268352"/>
<path stroke="#000000" fill="none" stroke-width="0.8" d="M -268.0 167.04824964567973L-268.0 203.3328853325063"/>
<path stroke="#000000" fill="none" stroke-width="0.8" d="M -268.0 167.04824964567973L-268.0 203.3328853325063"/>
<path stroke="#000000" fill="none" stroke-width="0.8" d="M -280.0 203.3328853325063L-280.0 260.5849786704991"/>
<path stroke="#000000" fill="none" stroke-width="0.8" d="M -280.4 203.3328853325063L-268.0 203.3328853325063"/>
<path stroke="#000000" fill="none" stroke-width="0.8" d="M -268.0 203.3328853325063L-268.0 223.23910663016264"/>
<path stroke="#000000" fill="none" stroke-width="0.8" d="M -268.0 203.3328853325063L-268.0 223.23910663016264"/>
<path stroke="#000000" fill="none" stroke-width="0.8" d="M -268.0 223.23910663016264L-268.0 241.42805455577556"/>
<path stroke="#000000" fill="none" stroke-width="0.8" d="M -268.0 223.23910663016264L-268.0 241.42805455577556"/>
<path stroke="#000000" fill="none" stroke-width="0.8" d="M -256.0 223.23910663016264L-256.0 263.6722116988917"/>
<path stroke="#000000" fill="none" stroke-width="0.8" d="M -255.6 223.23910663016264L-268.0 223.23910663016264"/>
<path stroke="#000000" fill="none" stroke-width="0.8" d="M -248.0 167.04824964567973L-248.0 167.57886782243474"/>
<path stroke="#000000" fill="none" stroke-width="0.8" d="M -247.6 167.04824964567973L-268.0 167.04824964567973"/>
<path stroke="#000000" fill="none" stroke-width="0.8" d="M -248.0 167.57886782243474L-248.0 183.77719361828207"/>
<path stroke="#000000" fill="none" stroke-width="0.8" d="M -248.0 167.57886782243474L-248.0 183.77719361828207"/>
<path stroke="#000000" fill="none" stroke-width="0.8" d="M -240.0 167.57886782243474L-240.0 172.87540198677075"/>
<path stroke="#000000" fill="none" stroke-width="0.8" d="M -239.6 167.57886782243474L-248.0 167.57886782243474"/>
<path stroke="#000000" fill="none" stroke-width="0.8" d="M -240.0 172.87540198677075L-240.0 177.20074409425825"/>
<path stroke="#000000" fill="none" stroke-width="0.8" d="M -240.0 172.87540198677075L-240.0 177.20074409425825"/>
<path stroke="#000000" fill="none" stroke-width="0.8" d="M -232.0 172.87540198677075L-232.0 179.93744753921877"/>
<path stroke="#000000" fill="none" stroke-width="0.8" d="M -231.6 172.87540198677075L-240.0 172.87540198677075"/>
<path stroke="#000000" fill="none" stroke-width="0.8" d="M -212.0 161.4880143268352L-212.0 162.54603481260722"/>
<path stroke="#000000" fill="none" stroke-width="0.8" d="M -212.0 161.4880143268352L-212.0 162.54603481260722"/>
<path stroke="#000000" fill="none" stroke-width="0.8" d="M -212.0 162.54603481260722L-212.0 192.0323261014943"/>
<path stroke="#000000" fill="none" stroke-width="0.8" d="M -212.0 162.54603481260722L-212.0 192.0323261014943"/>
<path stroke="#000000" fill="none" stroke-width="0.8" d="M -212.0 192.0323261014943L-212.0 276.21088000899863"/>
<path stroke="#000000" fill="none" stroke-width="0.8" d="M -212.0 192.0323261014943L-212.0 276.21088000899863"/>
<path stroke="#000000" fill="none" stroke-width="0.8" d="M -224.0 276.21088000899863L-224.0 297.9276348430977"/>
<path stroke="#000000" fill="none" stroke-width="0.8" d="M -224.4 276.21088000899863L-212.0 276.21088000899863"/>
<path stroke="#000000" fill="none" stroke-width="0.8" d="M -212.0 276.21088000899863L-212.0 302.60672240175523"/>
<path stroke="#000000" fill="none" stroke-width="0.8" d="M -212.0 276.21088000899863L-212.0 302.60672240175523"/>
<path stroke="#000000" fill="none" stroke-width="0.8" d="M -200.0 192.0323261014943L-200.0 202.80226715575134"/>
<path stroke="#000000" fill="none" stroke-width="0.8" d="M -199.6 192.0323261014943L-212.0 192.0323261014943"/>
<path stroke="#000000" fill="none" stroke-width="0.8" d="M -192.0 162.54603481260722L-192.0 185.36583228080906"/>
<path stroke="#000000" fill="none" stroke-width="0.8" d="M -191.6 162.54603481260722L-212.0 162.54603481260722"/>
<path stroke="#000000" fill="none" stroke-width="0.8" d="M -184.0 146.52136587460703L-184.0 174.11029519812777"/>
<path stroke="#000000" fill="none" stroke-width="0.8" d="M -183.6 146.52136587460703L-212.0 146.52136587460703"/>
<path stroke="#000000" fill="none" stroke-width="0.8" d="M -184.0 174.11029519812777L-184.0 190.75241074180653"/>
<path stroke="#000000" fill="none" stroke-width="0.8" d="M -184.0 174.11029519812777L-184.0 190.75241074180653"/>
<path stroke="#000000" fill="none" stroke-width="0.8" d="M -176.0 174.11029519812777L-176.0 182.8510237097643"/>
<path stroke="#000000" fill="none" stroke-width="0.8" d="M -175.6 174.11029519812777L-184.0 174.11029519812777"/>
<path stroke="#000000" fill="none" stroke-width="0.8" d="M -168.0 98.36374649942066L-168.0 102.73411075523892"/>
<path stroke="#000000" fill="none" stroke-width="0.8" d="M -167.6 98.36374649942066L-212.0 98.36374649942066"/>
<path stroke="#000000" fill="none" stroke-width="0.8" d="M -148.0 93.11223448341538L-148.0 98.84934252784491"/>
<path stroke="#000000" fill="none" stroke-width="0.8" d="M -147.6 93.11223448341538L-212.0 93.11223448341538"/>
<path stroke="#000000" fill="none" stroke-width="0.8" d="M -160.0 98.84934252784491L-160.0 107.85377219398995"/>
<path stroke="#000000" fill="none" stroke-width="0.8" d="M -160.4 98.84934252784491L-148.0 98.84934252784491"/>
<path stroke="#000000" fill="none" stroke-width="0.8" d="M -148.0 98.84934252784491L-148.0 132.83784864980447"/>
<path stroke="#000000" fill="none" stroke-width="0.8" d="M -148.0 98.84934252784491L-148.0 132.83784864980447"/>
<path stroke="#000000" fill="none" stroke-width="0.8" d="M -148.0 132.83784864980447L-148.0 320.39368686012955"/>
<path stroke="#000000" fill="none" stroke-width="0.8" d="M -148.0 132.83784864980447L-148.0 320.39368686012955"/>
<path stroke="#000000" fill="none" stroke-width="0.8" d="M -136.0 132.83784864980447L-136.0 156.27830859142273"/>
<path stroke="#000000" fill="none" stroke-width="0.8" d="M -135.6 132.83784864980447L-148.0 132.83784864980447"/>
<path stroke="#000000" fill="none" stroke-width="0.8" d="M -136.0 156.27830859142273L-136.0 162.50101266427652"/>
<path stroke="#000000" fill="none" stroke-width="0.8" d="M -136.0 156.27830859142273L-136.0 162.50101266427652"/>
<path stroke="#000000" fill="none" stroke-width="0.8" d="M -136.0 162.50101266427652L-136.0 176.97884922034254"/>
<path stroke="#000000" fill="none" stroke-width="0.8" d="M -136.0 162.50101266427652L-136.0 176.97884922034254"/>
<path stroke="#000000" fill="none" stroke-width="0.8" d="M -128.0 162.50101266427652L-128.0 176.53827534024904"/>
<path stroke="#000000" fill="none" stroke-width="0.8" d="M -127.6 162.50101266427652L-136.0 162.50101266427652"/>
<path stroke="#000000" fill="none" stroke-width="0.8" d="M -120.0 156.27830859142273L-120.0 163.25352571494722"/>
<path stroke="#000000" fill="none" stroke-width="0.8" d="M -119.6 156.27830859142273L-136.0 156.27830859142273"/>
<path stroke="#000000" fill="none" stroke-width="0.8" d="M 52.0 70.81983932423061L52.0 71.12856262706987"/>
<path stroke="#000000" fill="none" stroke-width="0.8" d="M 52.4 70.81983932423061L-212.0 70.81983932423061"/>
<path stroke="#000000" fill="none" stroke-width="0.8" d="M -108.0 71.12856262706987L-108.0 95.23149132269737"/>
<path stroke="#000000" fill="none" stroke-width="0.8" d="M -108.4 71.12856262706987L52.0 71.12856262706987"/>
<path stroke="#000000" fill="none" stroke-width="0.8" d="M -108.0 95.23149132269737L-108.0 100.1742800358634"/>
<path stroke="#000000" fill="none" stroke-width="0.8" d="M -108.0 95.23149132269737L-108.0 100.1742800358634"/>
<path stroke="#000000" fill="none" stroke-width="0.8" d="M -108.0 100.1742800358634L-108.0 113.68092453508093"/>
<path stroke="#000000" fill="none" stroke-width="0.8" d="M -108.0 100.1742800358634L-108.0 113.68092453508093"/>
<path stroke="#000000" fill="none" stroke-width="0.8" d="M -108.0 113.68092453508093L-108.0 119.90684447567266"/>
<path stroke="#000000" fill="none" stroke-width="0.8" d="M -108.0 113.68092453508093L-108.0 119.90684447567266"/>
<path stroke="#000000" fill="none" stroke-width="0.8" d="M -108.0 119.90684447567266L-108.0 130.5867412332682"/>
<path stroke="#000000" fill="none" stroke-width="0.8" d="M -108.0 119.90684447567266L-108.0 130.5867412332682"/>
<path stroke="#000000" fill="none" stroke-width="0.8" d="M -108.0 130.5867412332682L-108.0 147.05198405136198"/>
<path stroke="#000000" fill="none" stroke-width="0.8" d="M -108.0 130.5867412332682L-108.0 147.05198405136198"/>
<path stroke="#000000" fill="none" stroke-width="0.8" d="M -108.0 147.05198405136198L-108.0 321.58677379089374"/>
<path stroke="#000000" fill="none" stroke-width="0.8" d="M -108.0 147.05198405136198L-108.0 321.58677379089374"/>
<path stroke="#000000" fill="none" stroke-width="0.8" d="M -96.0 147.05198405136198L-96.0 151.51239260384168"/>
<path stroke="#000000" fill="none" stroke-width="0.8" d="M -95.6 147.05198405136198L-108.0 147.05198405136198"/>
<path stroke="#000000" fill="none" stroke-width="0.8" d="M -88.0 130.5867412332682L-88.0 137.65200265345416"/>
<path stroke="#000000" fill="none" stroke-width="0.8" d="M -87.6 130.5867412332682L-108.0 130.5867412332682"/>
<path stroke="#000000" fill="none" stroke-width="0.8" d="M -80.0 119.90684447567266L-80.0 126.79201730253568"/>
<path stroke="#000000" fill="none" stroke-width="0.8" d="M -79.6 119.90684447567266L-108.0 119.90684447567266"/>
<path stroke="#000000" fill="none" stroke-width="0.8" d="M -72.0 113.68092453508093L-72.0 118.71375754490842"/>
<path stroke="#000000" fill="none" stroke-width="0.8" d="M -71.6 113.68092453508093L-108.0 113.68092453508093"/>
<path stroke="#000000" fill="none" stroke-width="0.8" d="M -64.0 100.1742800358634L-64.0 108.69311367358418"/>
<path stroke="#000000" fill="none" stroke-width="0.8" d="M -63.6 100.1742800358634L-108.0 100.1742800358634"/>
<path stroke="#000000" fill="none" stroke-width="0.8" d="M -56.0 95.23149132269737L-56.0 98.6306635216671"/>
<path stroke="#000000" fill="none" stroke-width="0.8" d="M -55.6 95.23149132269737L-108.0 95.23149132269737"/>
<path stroke="#000000" fill="none" stroke-width="0.8" d="M 52.0 71.12856262706987L52.0 93.64285266017035"/>
<path stroke="#000000" fill="none" stroke-width="0.8" d="M 52.0 71.12856262706987L52.0 93.64285266017035"/>
<path stroke="#000000" fill="none" stroke-width="0.8" d="M -12.0 93.64285266017035L-12.0 129.43867645083475"/>
<path stroke="#000000" fill="none" stroke-width="0.8" d="M -12.4 93.64285266017035L52.0 93.64285266017035"/>
<path stroke="#000000" fill="none" stroke-width="0.8" d="M -48.0 129.43867645083475L-48.0 138.57817256197194"/>
<path stroke="#000000" fill="none" stroke-width="0.8" d="M -48.4 129.43867645083475L-12.0 129.43867645083475"/>
<path stroke="#000000" fill="none" stroke-width="0.8" d="M -48.0 138.57817256197194L-48.0 158.529416007959"/>
<path stroke="#000000" fill="none" stroke-width="0.8" d="M -48.0 138.57817256197194L-48.0 158.529416007959"/>
<path stroke="#000000" fill="none" stroke-width="0.8" d="M -48.0 158.529416007959L-48.0 164.08965132680353"/>
<path stroke="#000000" fill="none" stroke-width="0.8" d="M -48.0 158.529416007959L-48.0 164.08965132680353"/>
<path stroke="#000000" fill="none" stroke-width="0.8" d="M -48.0 164.08965132680353L-48.0 176.40642476299476"/>
<path stroke="#000000" fill="none" stroke-width="0.8" d="M -48.0 164.08965132680353L-48.0 176.40642476299476"/>
<path stroke="#000000" fill="none" stroke-width="0.8" d="M -40.0 164.08965132680353L-40.0 176.97884922034254"/>
<path stroke="#000000" fill="none" stroke-width="0.8" d="M -39.6 164.08965132680353L-48.0 164.08965132680353"/>
<path stroke="#000000" fill="none" stroke-width="0.8" d="M -32.0 158.529416007959L-32.0 163.20850356661649"/>
<path stroke="#000000" fill="none" stroke-width="0.8" d="M -31.6 158.529416007959L-48.0 158.529416007959"/>
<path stroke="#000000" fill="none" stroke-width="0.8" d="M -24.0 138.57817256197194L-24.0 146.9201334741077"/>
<path stroke="#000000" fill="none" stroke-width="0.8" d="M -23.6 138.57817256197194L-48.0 138.57817256197194"/>
<path stroke="#000000" fill="none" stroke-width="0.8" d="M -12.0 129.43867645083475L-12.0 319.953112980036"/>
<path stroke="#000000" fill="none" stroke-width="0.8" d="M -12.0 129.43867645083475L-12.0 319.953112980036"/>
<path stroke="#000000" fill="none" stroke-width="0.8" d="M 52.0 93.64285266017035L52.0 95.54021462553663"/>
<path stroke="#000000" fill="none" stroke-width="0.8" d="M 52.0 93.64285266017035L52.0 95.54021462553663"/>
<path stroke="#000000" fill="none" stroke-width="0.8" d="M 52.0 95.54021462553663L52.0 138.75504528755692"/>
<path stroke="#000000" fill="none" stroke-width="0.8" d="M 52.0 95.54021462553663L52.0 138.75504528755692"/>
<path stroke="#000000" fill="none" stroke-width="0.8" d="M 52.0 138.75504528755692L52.0 146.52136587460703"/>
<path stroke="#000000" fill="none" stroke-width="0.8" d="M 52.0 138.75504528755692L52.0 146.52136587460703"/>
<path stroke="#000000" fill="none" stroke-width="0.8" d="M 52.0 146.52136587460703L52.0 161.79673762967445"/>
<path stroke="#000000" fill="none" stroke-width="0.8" d="M 52.0 146.52136587460703L52.0 161.79673762967445"/>
<path stroke="#000000" fill="none" stroke-width="0.8" d="M 52.0 161.79673762967445L52.0 176.89202079141901"/>
<path stroke="#000000" fill="none" stroke-width="0.8" d="M 52.0 161.79673762967445L52.0 176.89202079141901"/>
<path stroke="#000000" fill="none" stroke-width="0.8" d="M 12.0 176.89202079141901L12.0 177.33259467151254"/>
<path stroke="#000000" fill="none" stroke-width="0.8" d="M 11.6 176.89202079141901L52.0 176.89202079141901"/>
<path stroke="#000000" fill="none" stroke-width="0.8" d="M 12.0 177.33259467151254L12.0 201.78926881831"/>
<path stroke="#000000" fill="none" stroke-width="0.8" d="M 12.0 177.33259467151254L12.0 201.78926881831"/>
<path stroke="#000000" fill="none" stroke-width="0.8" d="M 0.0 201.78926881831L0.0 264.4247247495624"/>
<path stroke="#000000" fill="none" stroke-width="0.8" d="M -0.4 201.78926881831L12.0 201.78926881831"/>
<path stroke="#000000" fill="none" stroke-width="0.8" d="M 12.0 201.78926881831L12.0 218.91376452267508"/>
<path stroke="#000000" fill="none" stroke-width="0.8" d="M 12.0 201.78926881831L12.0 218.91376452267508"/>
<path stroke="#000000" fill="none" stroke-width="0.8" d="M 12.0 218.91376452267508L12.0 224.1684924064183"/>
<path stroke="#000000" fill="none" stroke-width="0.8" d="M 12.0 218.91376452267508L12.0 224.1684924064183"/>
<path stroke="#000000" fill="none" stroke-width="0.8" d="M 24.0 218.91376452267508L24.0 260.40810594491415"/>
<path stroke="#000000" fill="none" stroke-width="0.8" d="M 24.4 218.91376452267508L12.0 218.91376452267508"/>
<path stroke="#000000" fill="none" stroke-width="0.8" d="M 32.0 177.33259467151254L32.0 192.0323261014943"/>
<path stroke="#000000" fill="none" stroke-width="0.8" d="M 32.4 177.33259467151254L12.0 177.33259467151254"/>
<path stroke="#000000" fill="none" stroke-width="0.8" d="M 52.0 176.89202079141901L52.0 191.98730395316355"/>
<path stroke="#000000" fill="none" stroke-width="0.8" d="M 52.0 176.89202079141901L52.0 191.98730395316355"/>
<path stroke="#000000" fill="none" stroke-width="0.8" d="M 52.0 191.98730395316355L52.0 282.65547895576816"/>
<path stroke="#000000" fill="none" stroke-width="0.8" d="M 52.0 191.98730395316355L52.0 282.65547895576816"/>
<path stroke="#000000" fill="none" stroke-width="0.8" d="M 40.0 282.65547895576816L40.0 303.0923184301795"/>
<path stroke="#000000" fill="none" stroke-width="0.8" d="M 39.6 282.65547895576816L52.0 282.65547895576816"/>
<path stroke="#000000" fill="none" stroke-width="0.8" d="M 52.0 282.65547895576816L52.0 298.05948542035196"/>
<path stroke="#000000" fill="none" stroke-width="0.8" d="M 52.0 282.65547895576816L52.0 298.05948542035196"/>
<path stroke="#000000" fill="none" stroke-width="0.8" d="M 64.0 191.98730395316355L64.0 202.80226715575134"/>
<path stroke="#000000" fill="none" stroke-width="0.8" d="M 64.4 191.98730395316355L52.0 191.98730395316355"/>
<path stroke="#000000" fill="none" stroke-width="0.8" d="M 72.0 161.79673762967445L72.0 185.36583228080906"/>
<path stroke="#000000" fill="none" stroke-width="0.8" d="M 72.4 161.79673762967445L52.0 161.79673762967445"/>
<path stroke="#000000" fill="none" stroke-width="0.8" d="M 80.0 146.52136587460703L80.0 174.11029519812777"/>
<path stroke="#000000" fill="none" stroke-width="0.8" d="M 80.4 146.52136587460703L52.0 146.52136587460703"/>
<path stroke="#000000" fill="none" stroke-width="0.8" d="M 80.0 174.11029519812777L80.0 190.7974328901373"/>
<path stroke="#000000" fill="none" stroke-width="0.8" d="M 80.0 174.11029519812777L80.0 190.7974328901373"/>
<path stroke="#000000" fill="none" stroke-width="0.8" d="M 88.0 174.11029519812777L88.0 182.8510237097643"/>
<path stroke="#000000" fill="none" stroke-width="0.8" d="M 88.4 174.11029519812777L80.0 174.11029519812777"/>
<path stroke="#000000" fill="none" stroke-width="0.8" d="M 96.0 138.75504528755692L96.0 142.06417318986522"/>
<path stroke="#000000" fill="none" stroke-width="0.8" d="M 96.4 138.75504528755692L52.0 138.75504528755692"/>
<path stroke="#000000" fill="none" stroke-width="0.8" d="M 104.0 95.54021462553663L104.0 100.88177093820336"/>
<path stroke="#000000" fill="none" stroke-width="0.8" d="M 104.4 95.54021462553663L52.0 95.54021462553663"/>
</g>
</g>
<g transform="matrix(1.0 0.0 0.0 1.0 1227.0 350.0)">
<g >
<path stroke="#000000" fill="none" stroke-width="4.0" d="M -212.0 29.89020427676841L-212.0 -40.65534967541488"/>
<path stroke="#000000" fill="none" stroke-width="4.0" d="M -212.0 192.0323261014943L-212.0 228.67072033934267L-212.0 192.0323261014943L-212.0 228.67072033934267L-212.0 162.54603481260722L-212.0 192.0323261014943L-212.0 161.4880143268352L-212.0 162.54603481260722L-212.0 146.52136587460703L-212.0 161.4880143268352L-212.0 98.36374649942066L-212.0 146.52136587460703L-212.0 93.11223448341538L-212.0 98.36374649942066L-212.0 70.81983932423061L-212.0 93.11223448341538L-212.0 59.65434653821079L-212.0 70.81983932423061L-212.0 29.89020427676841L-212.0 59.65434653821079L-212.0 29.89020427676841L-212.0 -40.65534967541488"/>
<path stroke="#000000" fill="#3077cb" stroke-width="0.8" d="M -216.0 -44.65534967541488L-208.0 -44.65534967541488L-208.0 -36.65534967541488L-216.0 -36.65534967541488L-216.0 -44.65534967541488z"/>
<path stroke="#3077cb" fill="#3077cb" stroke-width="2.4" d="M -212.0 192.0323261014943L-212.0 227.87072033934268L-212.0 192.0323261014943L-212.0 227.87072033934268L-212.0 162.54603481260722L-212.0 192.0323261014943L-212.0 161.4880143268352L-212.0 162.54603481260722L-212.0 146.52136587460703L-212.0 161.4880143268352L-212.0 98.36374649942066L-212.0 146.52136587460703L-212.0 93.11223448341538L-212.0 98.36374649942066L-212.0 70.81983932423061L-212.0 93.11223448341538L-212.0 59.65434653821079L-212.0 70.81983932423061L-212.0 29.89020427676841L-212.0 59.65434653821079L-212.0 29.89020427676841L-212.0 -40.65534967541488"/>
<path stroke="#000000" fill="none" stroke-width="4.0" d="M -308.0 153.6734557237165L-308.0 162.02214803365166L-308.0 153.6734557237165L-308.0 162.02214803365166L-308.0 61.72858122916206L-308.0 153.6734557237165L-308.0 59.65434653821079L-308.0 61.72858122916206"/>
<path stroke="#000000" fill="#75aef7" stroke-width="0.8" d="M -312.0 55.65434653821079L-304.0 55.65434653821079L-304.0 63.65434653821079L-312.0 63.65434653821079L-312.0 55.65434653821079z"/>
<path stroke="#75aef7" fill="#75aef7" stroke-width="2.4" d="M -308.0 153.6734557237165L-308.0 161.22214803365165L-308.0 153.6734557237165L-308.0 161.22214803365165L-308.0 61.72858122916206L-308.0 153.6734557237165L-308.0 59.65434653821079L-308.0 61.72858122916206"/>
<path stroke="#000000" fill="none" stroke-width="4.0" d="M 52.0 191.98730395316355L52.0 229.144344424505L52.0 191.98730395316355L52.0 229.144344424505L52.0 176.89202079141901L52.0 191.98730395316355L52.0 161.79673762967445L52.0 176.89202079141901L52.0 146.52136587460703L52.0 161.79673762967445L52.0 138.75504528755692L52.0 146.52136587460703L52.0 95.54021462553663L52.0 138.75504528755692L52.0 93.64285266017035L52.0 95.54021462553663L52.0 71.12856262706987L52.0 93.64285266017035L52.0 70.81983932423061L52.0 71.12856262706987"/>
<path stroke="#000000" fill="#75aef7" stroke-width="0.8" d="M 48.0 66.81983932423061L56.0 66.81983932423061L56.0 74.81983932423061L48.0 74.81983932423061L48.0 66.81983932423061z"/>
<path stroke="#75aef7" fill="#75aef7" stroke-width="2.4" d="M 52.0 191.98730395316355L52.0 228.344344424505L52.0 191.98730395316355L52.0 228.344344424505L52.0 176.89202079141901L52.0 191.98730395316355L52.0 161.79673762967445L52.0 176.89202079141901L52.0 146.52136587460703L52.0 161.79673762967445L52.0 138.75504528755692L52.0 146.52136587460703L52.0 95.54021462553663L52.0 138.75504528755692L52.0 93.64285266017035L52.0 95.54021462553663L52.0 71.12856262706987L52.0 93.64285266017035L52.0 70.81983932423061L52.0 71.12856262706987"/>
<path stroke="#000000" fill="none" stroke-width="4.0" d="M -108.0 147.05198405136198L-108.0 261.0403872982861L-108.0 147.05198405136198L-108.0 261.0403872982861L-108.0 130.5867412332682L-108.0 147.05198405136198L-108.0 119.90684447567266L-108.0 130.5867412332682L-108.0 113.68092453508093L-108.0 119.90684447567266L-108.0 100.1742800358634L-108.0 113.68092453508093L-108.0 95.23149132269737L-108.0 100.1742800358634L-108.0 71.12856262706987L-108.0 95.23149132269737"/>
<path stroke="#000000" fill="#d0e4fe" stroke-width="0.8" d="M -112.0 67.12856262706988L-104.0 67.12856262706988L-104.0 75.12856262706988L-112.0 75.12856262706988L-112.0 67.12856262706988z"/>
<path stroke="#d0e4fe" fill="#d0e4fe" stroke-width="2.4" d="M -108.0 147.05198405136198L-108.0 260.24038729828607L-108.0 147.05198405136198L-108.0 260.24038729828607L-108.0 130.5867412332682L-108.0 147.05198405136198L-108.0 119.90684447567266L-108.0 130.5867412332682L-108.0 113.68092453508093L-108.0 119.90684447567266L-108.0 100.1742800358634L-108.0 113.68092453508093L-108.0 95.23149132269737L-108.0 100.1742800358634L-108.0 71.12856262706987L-108.0 95.23149132269737"/>
<path stroke="#000000" fill="none" stroke-width="4.0" d="M -148.0 132.83784864980447L-148.0 201.41792879511996L-148.0 132.83784864980447L-148.0 201.41792879511996L-148.0 98.84934252784491L-148.0 132.83784864980447L-148.0 93.11223448341538L-148.0 98.84934252784491"/>
<path stroke="#000000" fill="#75aef7" stroke-width="0.8" d="M -152.0 89.11223448341538L-144.0 89.11223448341538L-144.0 97.11223448341538L-152.0 97.11223448341538L-152.0 89.11223448341538z"/>
<path stroke="#75aef7" fill="#75aef7" stroke-width="2.4" d="M -148.0 132.83784864980447L-148.0 200.61792879511995L-148.0 132.83784864980447L-148.0 200.61792879511995L-148.0 98.84934252784491L-148.0 132.83784864980447L-148.0 93.11223448341538L-148.0 98.84934252784491"/>
<path stroke="#000000" fill="none" stroke-width="4.0" d="M -12.0 129.43867645083475L-12.0 200.97423456811242L-12.0 129.43867645083475L-12.0 200.97423456811242L-12.0 93.64285266017035L-12.0 129.43867645083475"/>
<path stroke="#000000" fill="#d0e4fe" stroke-width="0.8" d="M -16.0 89.64285266017033L-8.0 89.64285266017033L-8.0 97.64285266017033L-16.0 97.64285266017033L-16.0 89.64285266017033z"/>
<path stroke="#d0e4fe" fill="#d0e4fe" stroke-width="2.4" d="M -12.0 129.43867645083475L-12.0 200.17423456811244L-12.0 129.43867645083475L-12.0 200.17423456811244L-12.0 93.64285266017035L-12.0 129.43867645083475"/>
<path stroke="#000000" fill="none" stroke-width="4.0" d="M -268.0 167.04824964567973L-268.0 179.34437184348616L-268.0 167.04824964567973L-268.0 179.34437184348616L-268.0 161.4880143268352L-268.0 167.04824964567973"/>
<path stroke="#000000" fill="#75aef7" stroke-width="0.8" d="M -272.0 157.48801432683518L-264.0 157.48801432683518L-264.0 165.48801432683518L-272.0 165.48801432683518L-272.0 157.48801432683518z"/>
<path stroke="#75aef7" fill="#75aef7" stroke-width="2.4" d="M -268.0 167.04824964567973L-268.0 178.54437184348618L-268.0 167.04824964567973L-268.0 178.54437184348618L-268.0 161.4880143268352L-268.0 167.04824964567973"/>
<path stroke="#000000" fill="none" stroke-width="4.0" d="M 12.0 177.33259467151254L12.0 179.8276116915876L12.0 177.33259467151254L12.0 179.8276116915876L12.0 176.89202079141901L12.0 177.33259467151254"/>
<path stroke="#000000" fill="#d0e4fe" stroke-width="0.8" d="M 8.0 172.892020791419L16.0 172.892020791419L16.0 180.892020791419L8.0 180.892020791419L8.0 172.892020791419z"/>
<path stroke="#d0e4fe" fill="#d0e4fe" stroke-width="2.4" d="M 12.0 177.33259467151254L12.0 179.02761169158762L12.0 177.33259467151254L12.0 179.02761169158762L12.0 176.89202079141901L12.0 177.33259467151254"/>
</g>
</g>
</g>
</svg>