<?xml version="1.0" encoding="utf-8"?>
<svg version="1.2" baseProfile="tiny" id="openrndr-svg" xmlns="http://www.w3.org/2000/svg" xmlns:xlink="http://www.w3.org/1999/xlink" height="576.0" x="0.0" y="0.0" width="768.0" ><g >
<g transform="matrix(1.0 0.0 0.0 1.0 459.9255 350.0)">
<g >
<path fill="#3077cb" d="M 148.0 111.1613311875544L148.0 129.33820684388382L148.0 180.96993297150541L132.0 180.96993297150541L132.0 180.9799329715054L132.0 184.89729236937973L124.0 184.89729236937973L124.0 180.9799329715054L124.0 129.33820684388385L124.0 111.1613311875544L132.0 111.1613311875544L148.0 111.1613311875544z"/>
<path fill="#d0e4fe" d="M 124.0 103.77891459484357L132.0 103.77891459484357L148.0 103.77891459484357L148.0 111.1614311875544L132.0 111.1614311875544L124.0 111.1614311875544L124.0 105.48791459484357L68.0 105.48791459484357L68.0 111.1614311875544L68.0 113.03876590138701L60.0 113.03876590138701L60.0 113.04876590138701L60.0 125.05405555626096L52.0 125.05405555626096L52.0 125.0011420314393L44.0 125.0011420314393L44.0 125.06405555626097L44.0 125.16184236608287L36.0 125.16184236608287L36.0 125.06405555626097L36.0 125.0111420314393L36.0 113.04876590138701L36.0 111.1614311875544L36.0 103.77891459484357L44.0 103.77891459484357L52.0 103.77891459484357L60.0 103.77891459484357L68.0 103.77891459484357L124.0 103.77891459484357z"/>
<path fill="#75aef7" d="M 12.0 97.23723511874354L12.0 103.93775516930853L12.0 156.3515411454305L12.0 173.6425908629019L12.0 181.02492179375264L12.0 187.04931024456764L12.0 194.89598880049485L-4.0 194.89598880049485L-4.0 187.04931024456764L-4.0 187.03931024456764L-12.0 187.03931024456764L-12.0 181.02492179375264L-12.0 97.23723511874354L-4.0 97.23723511874354L12.0 97.23723511874354z"/>
<path fill="#d0e4fe" d="M 12.0 97.23732424302179L-4.0 97.23733511874353L-4.0 95.71852098034404L-4.0 95.52832424302179L12.0 95.52832424302179L28.0 95.52832424302179L36.0 95.52832424302179L36.0 95.71852098034404L36.0 97.23733511874353L36.0 102.04255153937466L28.0 102.04255153937466L28.0 97.23732424302179L12.0 97.23732424302179z"/>
<path fill="#d0e4fe" d="M -44.0 71.58395884388437L-44.0 65.2833298697497L-44.0 50.21494536991299L-36.0 50.21494536991299L-36.0 71.58395884388437L-44.0 71.58395884388437z"/>
<path fill="#d0e4fe" d="M 220.0 71.35270714281195L220.0 58.95723955054049L228.0 58.95723955054049L228.0 71.35270714281195L220.0 71.35270714281195z"/>
<path fill="#3077cb" d="M 124.0 61.03889681222813L132.0 61.03889681222816L148.0 61.03889681222816L156.0 61.03889681222816L172.0 61.03889681222816L180.0 61.03889681222816L188.0 61.03889681222816L196.0 61.03889681222816L212.0 61.03889681222816L212.0 63.552389241257L212.0 63.95285390760099L212.0 63.9704917492082L212.0 66.9885224242214L212.0 67.16686060047218L212.0 71.34506930120472L212.0 73.61251182782178L212.0 73.97682602193055L212.0 74.34350237443212L212.0 74.39837565943236L212.0 76.14648173872571L212.0 76.27190639015483L212.0 79.30757490677524L212.0 80.0562032949928L212.0 84.87516791226092L212.0 85.08094273101182L212.0 85.50237683126662L212.0 85.59056603930271L212.0 88.37734501324347L212.0 95.01701249827249L212.0 95.52842424302176L212.0 95.57162462881061L212.0 95.65981383684672L212.0 97.49014418178035L212.0 99.92817150579396L212.0 102.24852755723266L212.0 102.33671676526878L212.0 102.64047959294867L212.0 103.77901459484355L212.0 171.27315514513856L212.0 190.2083579905785L212.0 195.96601785799953L196.0 195.96601785799953L196.0 190.2083579905785L196.0 171.2731551451386L196.0 103.77901459484356L196.0 88.36734501324347L188.0 88.36734501324347L188.0 85.58056603930271L180.0 85.58056603930271L180.0 63.95285390760099L180.0 62.74789681222816L172.0 62.74789681222816L172.0 63.94285390760095L156.0 63.94285390760099L156.0 63.96049174920816L148.0 63.9604917492082L148.0 103.77901459484356L132.0 103.77901459484356L124.0 103.77901459484356L124.0 102.64047959294867L124.0 62.747896812228134L92.0 62.747896812228134L92.0 102.63047959294866L84.0 102.63047959294866L84.0 95.00701249827249L76.0 95.00701249827249L76.0 95.5616246288106L68.0 95.56162462881062L68.0 103.77901459484356L60.0 103.77901459484356L52.0 103.77901459484356L44.0 103.77901459484356L36.0 103.77901459484356L36.0 102.33671676526878L36.0 102.24852755723266L36.0 102.04255153937466L36.0 97.49014418178035L36.0 95.65981383684672L36.0 95.52842424302177L28.0 95.52842424302177L28.0 71.33506930120471L20.0 71.33506930120471L20.0 73.60251182782177L12.0 73.60251182782177L12.0 95.52842424302177L-4.0 95.52842424302177L-4.000000000000028 88.37734501324347L-12.0 88.37734501324347L-12.0 88.36734501324347L-20.0 88.36734501324347L-20.0 85.50237683126662L-20.0 85.49237683126661L-36.0 85.49237683126661L-36.0 85.08094273101182L-36.0 84.87516791226092L-36.0 74.34350237443212L-36.0 71.58395884388437L-36.0 63.552389241257L-36.0 61.03889681222816L-20.0 61.03889681222816L-4.0 61.03889681222816L12.0 61.03889681222816L20.0 61.03889681222816L28.0 61.03889681222816L36.0 61.03889681222816L44.0 61.03889681222816L52.0 61.03889681222816L60.0 61.03889681222816L68.0 61.03889681222816L76.0 61.03889681222816L84.0 61.03889681222816L92.0 61.03889681222813L124.0 61.03889681222813z"/>
<path fill="#75aef7" d="M -36.0 50.21474939389513L-44.0 50.21474939389513L-36.0 50.21474939389513zM 180.0 52.33147604862161L180.0 52.32147604862161L172.0 52.32147604862161L172.0 61.038996812228135L156.0 61.038996812228156L148.0 61.038996812228156L132.0 61.038996812228156L132.0 52.63523887630151L124.0 52.63523887630151L124.0 52.62523887630151L116.0 52.62523887630151L116.0 58.1596016206114L100.0 58.15960162061141L100.0 57.80292526810986L92.0 57.80292526810986L92.0 57.81292526810986L36.0 57.81292526810986L36.0 61.038996812228156L28.0 61.038996812228156L20.0 61.038996812228156L12.0 61.038996812228156L-36.0 61.038996812228156L-36.0 58.95733955054048L-36.0 57.31318642257196L-36.0 54.47349392380954L-36.0 50.21474939389513L12.0 50.21474939389513L20.0 50.21474939389513L28.0 50.21474939389513L92.0 50.21474939389513L100.0 50.21474939389513L116.0 50.21474939389513L132.0 50.21474939389513L148.0 50.21474939389513L156.0 50.21474939389513L172.0 50.21474939389513L196.0 50.21474939389513L212.0 50.21474939389513L220.0 50.21474939389513L228.0 50.21474939389513L228.0 58.95733955054048L220.0 58.95733955054048L220.0 61.038996812228156L220.0 71.35270714281195L220.0 73.97682602193055L212.0 73.97682602193055L212.0 61.038996812228156L196.0 61.038996812228156L196.0 52.33147604862161L180.0 52.33147604862161z"/>
<path fill="#3077cb" stroke-width="296.0" d="M 212.0 8.95590804009272L212.0 8.96178732062846L212.0 13.681477758702663L212.0 50.19152824777001L212.0 50.21484939389512L180.0 50.21484939389512L172.0 50.21484939389512L124.0 50.21484939389512L116.0 50.21484939389512L100.0 50.21484939389512L36.0 50.21484939389512L-20.00000000000003 50.21484939389512L-36.0 50.21484939389512L-44.0 50.21484939389512L-44.0 65.2833298697497L-52.0 65.2833298697497L-52.0 65.2933298697497L-52.0 65.38915691939302L-60.0 65.38915691939302L-60.0 65.39915691939302L-60.0 71.47813179424107L-68.0 71.47813179424107L-68.0 65.39915691939302L-68.0 65.29332986974971L-68.0 50.21484939389512L-68.0 50.19152824777002L-68.0 38.46029350463241L-68.0 38.299593169988846L-68.0 37.94095705730871L-68.0 37.45885605337803L-68.0 28.212707530837612L-68.0 17.631178422612784L-68.0 13.683241542863378L-68.0 13.681477758702659L-68.0 8.961787320628453L-68.0 8.95590804009272L-68.0 -4.027370142000492L212.0 -4.027370142000492L212.0 8.95590804009272z"/>
</g>
</g>
<g transform="matrix(1.0 0.0 0.0 1.0 856.0745 350.0)">
<g >
<path fill="#ffd6d1" d="M -80.0 122.27130076420264L-80.0 138.88996241703575L-88.0 138.88996241703575L-88.0 122.49080477992533L-88.0 120.56230076420263L-80.0 120.56230076420263L-72.0 120.56230076420263L-64.0 120.56230076420263L-48.0 120.56230076420263L-40.0 120.56230076420263L-32.0 120.56230076420263L-32.0 121.88120382713996L-40.0 121.88120382713996L-40.0 121.89120382713996L-40.0 148.32620767689843L-48.0 148.32620767689843L-48.0 148.33620767689843L-48.0 178.90454694238917L-48.0 192.33066272673364L-64.0 192.33066272673364L-64.0 192.34066272673363L-64.0 194.0689700051341L-72.0 194.0689700051341L-72.0 192.34066272673363L-72.0 178.90454694238917L-72.0 148.33620767689843L-72.0 138.89996241703574L-72.0 122.27130076420264L-80.0 122.27130076420264z"/>
<path fill="#c64340" d="M 16.0 107.37113946493368L16.0 138.68418759828484L0.0 138.68418759828484L0.0 99.2284514601808L0.0 97.90747309981789L16.0 97.90747309981789L16.0 99.2284514601808L16.0 107.37113946493368z"/>
<path fill="#c64340" d="M -16.0 79.22114425981061L-16.0 74.43150592060813L0.0 74.43150592060813L0.0 79.22114425981061L-16.0 79.22114425981061z"/>
<path fill="#ffd6d1" d="M 16.0 107.37113946493368L16.0 97.90757309981788L0.0 97.90757309981788L0.0 84.15985544707922L0.0 83.67775444314854L-2.1457569054617994E-16 83.11930845411334L-1.7123951579220428E-15 79.22114425981061L-3.552713678800501E-15 74.43160592060812L-16.0 74.43160592060812L-16.000000000000007 72.41901787906657L-16.0 72.40901787906657L-32.0 72.40901787906657L-32.0 59.902039932633905L-16.0 59.902039932633905L0.0 59.902039932633905L16.0 59.902039932633905L24.0 59.902039932633905L24.0 64.94253279778388L24.0 72.41901787906657L24.0 74.43160592060812L24.0 83.11930845411334L24.0 83.67775444314854L24.0 84.15985544707922L24.0 97.90757309981788L24.0 107.37113946493368L16.0 107.37113946493368z"/>
<path fill="#fb827a" d="M -72.0 107.8397233467214L-72.0 107.8297233467214L-80.0 107.8297233467214L-80.0 120.56240076420264L-88.0 120.56240076420264L-88.0 78.79391654088019L-96.0 78.79391654088019L-96.0 99.95932646954412L-104.0 99.95932646954412L-104.0 99.23225544329094L-112.0 99.23225544329094L-112.0 120.56240076420264L-112.0 129.8809448761035L-120.0 129.8809448761035L-120.0 120.56240076420264L-120.0 110.13264275565999L-120.0 107.8397233467214L-120.0 103.53208481234248L-120.0 100.69239231358006L-120.0 99.96932646954413L-120.0 99.24225544329094L-120.0 83.60924849875833L-120.0 78.8039165408802L-120.0 72.79725159353251L-120.0 72.08585864870797L-120.0 64.81514838617619L-120.0 59.9021399326339L-120.0 59.90027614847318L-112.0 59.90027614847318L-104.0 59.90027614847318L-96.0 59.90027614847318L-88.0 59.90027614847318L-80.0 59.90027614847318L-72.0 59.90027614847318L-48.0 59.90027614847318L-32.0 59.90027614847318L-16.0 59.90027614847318L0.0 59.90027614847318L0.0 59.9021399326339L-16.0 59.9021399326339L-32.0 59.9021399326339L-32.0 72.40901787906657L-32.0 120.56240076420264L-48.0 120.56240076420264L-64.0 120.56240076420264L-64.0 107.8397233467214L-72.0 107.8397233467214z"/>
<path fill="#c64340" stroke-width="320.0" d="M 24.0 195.9660178579995L24.0 193.60470804191772L24.0 183.64716657455276L24.0 154.35855070567473L24.0 143.98945960080798L24.0 140.96946916561618L24.0 125.05425675536804L24.0 122.36538012849621L24.0 120.61727404920288L24.0 107.37113946493368L24.0 103.12053517484065L24.0 100.80017912340196L24.0 72.35434579317342L24.0 67.2178143651152L24.0 66.64948391332703L24.0 59.90037614847313L-3.552713678800501E-15 59.90037614847316L-16.0 59.90037614847318L-32.0 59.90037614847318L-64.0 59.90037614847318L-96.0 59.90037614847318L-120.0 59.90037614847318L-120.0 55.180685710398976L-120.0 55.17480642986324L-120.0 45.10584027019717L-120.0 45.09584027019717L-136.0 45.09584027019717L-136.0 44.99413394001811L-136.0 44.98413394001811L-152.0 44.98413394001811L-152.0 3.99595100412461L-152.0 3.9726298579995083L-152.0 -4.027370142000492L152.0 -4.027370142000492L152.0 3.9726298579995083L152.0 43.32421706876086L144.0 43.32421706876086L144.0 40.6844201082136L136.0 40.6844201082136L136.0 28.498631317803188L120.0 28.498631317803188L120.0 29.241380425485005L104.0 29.24138042548501L104.0 39.073497241420846L96.0 39.073497241420846L96.0 41.52319746464584L88.0 41.52319746464584L88.0 43.33421706876086L88.0 55.174806429863224L88.0 55.18068571039896L88.0 59.90037614847318L88.0 67.20781436511525L80.0 67.20781436511525L80.0 66.63948391332706L72.0 66.63948391332706L72.0 67.21781436511526L72.0 72.3443457931734L64.0 72.34434579317342L64.0 72.35434579317342L64.0 140.9594691656162L56.0 140.9594691656162L56.0 140.9694691656162L56.0 143.98945960080798L56.0 154.34855070567477L40.0 154.34855070567477L40.0 154.35855070567473L40.0 193.59470804191773L32.0 193.59470804191773L32.0 193.60470804191772L32.0 195.96601785799953L24.0 195.9660178579995z"/>
</g>
</g>
<g transform="matrix(1.0 0.0 0.0 1.0 400.0 350.0)">
<g >
<path stroke="#000000" fill="none" stroke-opacity="0.1" stroke-width="0.4" d="M -15.0525 -61.80086812921364L615.0524999999999 -61.80086812921364"/>
<path stroke="#000000" fill="none" stroke-opacity="0.1" stroke-width="0.4" d="M -15.0525 -50.24616853177101L615.0524999999999 -50.24616853177101"/>
<path stroke="#000000" fill="none" stroke-opacity="0.1" stroke-width="0.4" d="M -15.0525 -38.691468934328384L615.0524999999999 -38.691468934328384"/>
<path stroke="#000000" fill="none" stroke-opacity="0.1" stroke-width="0.4" d="M -15.0525 -27.136769336885756L615.0524999999999 -27.136769336885756"/>
<path stroke="#000000" fill="none" stroke-opacity="0.1" stroke-width="0.4" d="M -15.0525 -15.582069739443126L615.0524999999999 -15.582069739443126"/>
<path stroke="#000000" fill="none" stroke-opacity="0.1" stroke-width="0.4" d="M -15.0525 -4.027370142000496L615.0524999999999 -4.027370142000496"/>
<path stroke="#000000" fill="none" stroke-opacity="0.1" stroke-width="0.4" d="M -15.0525 7.527329455442134L615.0524999999999 7.527329455442134"/>
<path stroke="#000000" fill="none" stroke-opacity="0.1" stroke-width="0.4" d="M -15.0525 19.082029052884764L615.0524999999999 19.082029052884764"/>
<path stroke="#000000" fill="none" stroke-opacity="0.1" stroke-width="0.4" d="M -15.0525 30.63672865032739L615.0524999999999 30.63672865032739"/>
<path stroke="#000000" fill="none" stroke-opacity="0.1" stroke-width="0.4" d="M -15.0525 42.19142824777002L615.0524999999999 42.19142824777002"/>
<path stroke="#000000" fill="none" stroke-opacity="0.1" stroke-width="0.4" d="M -15.0525 53.74612784521265L615.0524999999999 53.74612784521265"/>
<path stroke="#000000" fill="none" stroke-opacity="0.1" stroke-width="0.4" d="M -15.0525 65.30082744265528L615.0524999999999 65.30082744265528"/>
<path stroke="#000000" fill="none" stroke-opacity="0.1" stroke-width="0.4" d="M -15.0525 76.85552704009791L615.0524999999999 76.85552704009791"/>
<path stroke="#000000" fill="none" stroke-opacity="0.1" stroke-width="0.4" d="M -15.0525 88.41022663754055L615.0524999999999 88.41022663754055"/>
<path stroke="#000000" fill="none" stroke-opacity="0.1" stroke-width="0.4" d="M -15.0525 99.96492623498318L615.0524999999999 99.96492623498318"/>
<path stroke="#000000" fill="none" stroke-opacity="0.1" stroke-width="0.4" d="M -15.0525 111.51962583242582L615.0524999999999 111.51962583242582"/>
<path stroke="#000000" fill="none" stroke-opacity="0.1" stroke-width="0.4" d="M -15.0525 123.07432542986845L615.0524999999999 123.07432542986845"/>
<path stroke="#000000" fill="none" stroke-opacity="0.1" stroke-width="0.4" d="M -15.0525 134.6290250273111L615.0524999999999 134.6290250273111"/>
<path stroke="#000000" fill="none" stroke-opacity="0.1" stroke-width="0.4" d="M -15.0525 146.18372462475372L615.0524999999999 146.18372462475372"/>
<path stroke="#000000" fill="none" stroke-opacity="0.1" stroke-width="0.4" d="M -15.0525 157.73842422219636L615.0524999999999 157.73842422219636"/>
<path stroke="#000000" fill="none" stroke-opacity="0.1" stroke-width="0.4" d="M -15.0525 169.293123819639L615.0524999999999 169.293123819639"/>
<path stroke="#000000" fill="none" stroke-opacity="0.1" stroke-width="0.4" d="M -15.0525 180.84782341708163L615.0524999999999 180.84782341708163"/>
<path stroke="#000000" fill="none" stroke-opacity="0.1" stroke-width="0.4" d="M -15.0525 192.40252301452426L615.0524999999999 192.40252301452426"/>
<path stroke="#000000" fill="none" stroke-opacity="0.1" stroke-width="0.4" d="M -15.0525 203.9572226119669L615.0524999999999 203.9572226119669"/>
</g>
</g>
<g transform="matrix(1.0 0.0 0.0 1.0 459.9255 350.0)">
<g >
<path stroke="#000000" fill="none" stroke-width="0.8" d="M -64.0 8.95590804009272L-64.0 71.48813179424107"/>
<path stroke="#000000" fill="none" stroke-width="0.8" d="M -64.4 8.95590804009272L204.0 8.95590804009272"/>
<path stroke="#000000" fill="none" stroke-width="0.8" d="M 204.0 8.95590804009272L204.0 8.96178732062846"/>
<path stroke="#000000" fill="none" stroke-width="0.8" d="M 204.0 8.95590804009272L204.0 8.96178732062846"/>
<path stroke="#000000" fill="none" stroke-width="0.8" d="M -56.0 8.96178732062846L-56.0 17.631178422612788"/>
<path stroke="#000000" fill="none" stroke-width="0.8" d="M -56.4 8.96178732062846L204.0 8.96178732062846"/>
<path stroke="#000000" fill="none" stroke-width="0.8" d="M -56.0 17.631178422612788L-56.0 65.39915691939302"/>
<path stroke="#000000" fill="none" stroke-width="0.8" d="M -56.0 17.631178422612788L-56.0 65.39915691939302"/>
<path stroke="#000000" fill="none" stroke-width="0.8" d="M -48.0 17.631178422612788L-48.0 65.29332986974971"/>
<path stroke="#000000" fill="none" stroke-width="0.8" d="M -47.6 17.631178422612788L-56.0 17.631178422612788"/>
<path stroke="#000000" fill="none" stroke-width="0.8" d="M 204.0 8.96178732062846L204.0 8.961983296646318"/>
<path stroke="#000000" fill="none" stroke-width="0.8" d="M 204.0 8.96178732062846L204.0 8.961983296646318"/>
<path stroke="#000000" fill="none" stroke-width="0.8" d="M -40.0 8.961983296646318L-40.0 71.59395884388438"/>
<path stroke="#000000" fill="none" stroke-width="0.8" d="M -40.4 8.961983296646318L204.0 8.961983296646318"/>
<path stroke="#000000" fill="none" stroke-width="0.8" d="M 204.0 8.961983296646318L204.0 13.681477758702663"/>
<path stroke="#000000" fill="none" stroke-width="0.8" d="M 204.0 8.961983296646318L204.0 13.681477758702663"/>
<path stroke="#000000" fill="none" stroke-width="0.8" d="M -28.0 13.681477758702663L-28.0 13.683241542863383"/>
<path stroke="#000000" fill="none" stroke-width="0.8" d="M -28.4 13.681477758702663L204.0 13.681477758702663"/>
<path stroke="#000000" fill="none" stroke-width="0.8" d="M -28.0 13.683241542863383L-28.0 54.47349392380954"/>
<path stroke="#000000" fill="none" stroke-width="0.8" d="M -28.0 13.683241542863383L-28.0 54.47349392380954"/>
<path stroke="#000000" fill="none" stroke-width="0.8" d="M -28.0 54.47349392380954L-28.0 57.31318642257196"/>
<path stroke="#000000" fill="none" stroke-width="0.8" d="M -28.0 54.47349392380954L-28.0 57.31318642257196"/>
<path stroke="#000000" fill="none" stroke-width="0.8" d="M -28.0 57.31318642257196L-28.0 74.34350237443212"/>
<path stroke="#000000" fill="none" stroke-width="0.8" d="M -28.0 57.31318642257196L-28.0 74.34350237443212"/>
<path stroke="#000000" fill="none" stroke-width="0.8" d="M -28.0 74.34350237443212L-28.0 85.50237683126662"/>
<path stroke="#000000" fill="none" stroke-width="0.8" d="M -28.0 74.34350237443212L-28.0 85.50237683126662"/>
<path stroke="#000000" fill="none" stroke-width="0.8" d="M 4.0 74.34350237443212L4.0 76.27190639015483"/>
<path stroke="#000000" fill="none" stroke-width="0.8" d="M 4.4 74.34350237443212L-28.0 74.34350237443212"/>
<path stroke="#000000" fill="none" stroke-width="0.8" d="M -16.0 76.27190639015483L-16.0 88.37734501324347"/>
<path stroke="#000000" fill="none" stroke-width="0.8" d="M -16.4 76.27190639015483L4.0 76.27190639015483"/>
<path stroke="#000000" fill="none" stroke-width="0.8" d="M 4.0 76.27190639015483L4.0 173.6425908629019"/>
<path stroke="#000000" fill="none" stroke-width="0.8" d="M 4.0 76.27190639015483L4.0 173.6425908629019"/>
<path stroke="#000000" fill="none" stroke-width="0.8" d="M -8.0 173.6425908629019L-8.0 187.04931024456764"/>
<path stroke="#000000" fill="none" stroke-width="0.8" d="M -8.4 173.6425908629019L4.0 173.6425908629019"/>
<path stroke="#000000" fill="none" stroke-width="0.8" d="M 4.0 173.6425908629019L4.0 194.90598880049484"/>
<path stroke="#000000" fill="none" stroke-width="0.8" d="M 4.0 173.6425908629019L4.0 194.90598880049484"/>
<path stroke="#000000" fill="none" stroke-width="0.8" d="M 16.0 57.31318642257196L16.0 73.61251182782178"/>
<path stroke="#000000" fill="none" stroke-width="0.8" d="M 16.4 57.31318642257196L-28.0 57.31318642257196"/>
<path stroke="#000000" fill="none" stroke-width="0.8" d="M 24.0 54.47349392380954L24.0 71.34506930120472"/>
<path stroke="#000000" fill="none" stroke-width="0.8" d="M 24.4 54.47349392380954L-28.0 54.47349392380954"/>
<path stroke="#000000" fill="none" stroke-width="0.8" d="M 164.0 13.683241542863383L164.0 28.212707530837612"/>
<path stroke="#000000" fill="none" stroke-width="0.8" d="M 164.4 13.683241542863383L-28.0 13.683241542863383"/>
<path stroke="#000000" fill="none" stroke-width="0.8" d="M 108.0 28.212707530837612L108.0 38.299593169988846"/>
<path stroke="#000000" fill="none" stroke-width="0.8" d="M 107.6 28.212707530837612L164.0 28.212707530837612"/>
<path stroke="#000000" fill="none" stroke-width="0.8" d="M 32.0 38.299593169988846L32.0 38.46029350463241"/>
<path stroke="#000000" fill="none" stroke-width="0.8" d="M 31.6 38.299593169988846L108.0 38.299593169988846"/>
<path stroke="#000000" fill="none" stroke-width="0.8" d="M 32.0 38.46029350463241L32.0 66.9885224242214"/>
<path stroke="#000000" fill="none" stroke-width="0.8" d="M 32.0 38.46029350463241L32.0 66.9885224242214"/>
<path stroke="#000000" fill="none" stroke-width="0.8" d="M 32.0 66.9885224242214L32.0 67.16686060047218"/>
<path stroke="#000000" fill="none" stroke-width="0.8" d="M 32.0 66.9885224242214L32.0 67.16686060047218"/>
<path stroke="#000000" fill="none" stroke-width="0.8" d="M 32.0 67.16686060047218L32.0 102.05255153937466"/>
<path stroke="#000000" fill="none" stroke-width="0.8" d="M 32.0 67.16686060047218L32.0 102.05255153937466"/>
<path stroke="#000000" fill="none" stroke-width="0.8" d="M 40.0 67.16686060047218L40.0 79.30757490677524"/>
<path stroke="#000000" fill="none" stroke-width="0.8" d="M 40.4 67.16686060047218L32.0 67.16686060047218"/>
<path stroke="#000000" fill="none" stroke-width="0.8" d="M 40.0 79.30757490677524L40.0 80.0562032949928"/>
<path stroke="#000000" fill="none" stroke-width="0.8" d="M 40.0 79.30757490677524L40.0 80.0562032949928"/>
<path stroke="#000000" fill="none" stroke-width="0.8" d="M 40.0 80.0562032949928L40.0 95.65981383684672"/>
<path stroke="#000000" fill="none" stroke-width="0.8" d="M 40.0 80.0562032949928L40.0 95.65981383684672"/>
<path stroke="#000000" fill="none" stroke-width="0.8" d="M 40.0 95.65981383684672L40.0 102.24852755723266"/>
<path stroke="#000000" fill="none" stroke-width="0.8" d="M 40.0 95.65981383684672L40.0 102.24852755723266"/>
<path stroke="#000000" fill="none" stroke-width="0.8" d="M 40.0 102.24852755723266L40.0 102.33671676526878"/>
<path stroke="#000000" fill="none" stroke-width="0.8" d="M 40.0 102.24852755723266L40.0 102.33671676526878"/>
<path stroke="#000000" fill="none" stroke-width="0.8" d="M 40.0 102.33671676526878L40.0 125.17184236608287"/>
<path stroke="#000000" fill="none" stroke-width="0.8" d="M 40.0 102.33671676526878L40.0 125.17184236608287"/>
<path stroke="#000000" fill="none" stroke-width="0.8" d="M 48.0 102.33671676526878L48.0 125.0111420314393"/>
<path stroke="#000000" fill="none" stroke-width="0.8" d="M 48.4 102.33671676526878L40.0 102.33671676526878"/>
<path stroke="#000000" fill="none" stroke-width="0.8" d="M 56.0 102.24852755723266L56.0 125.06405555626097"/>
<path stroke="#000000" fill="none" stroke-width="0.8" d="M 56.4 102.24852755723266L40.0 102.24852755723266"/>
<path stroke="#000000" fill="none" stroke-width="0.8" d="M 64.0 95.65981383684672L64.0 113.04876590138701"/>
<path stroke="#000000" fill="none" stroke-width="0.8" d="M 64.4 95.65981383684672L40.0 95.65981383684672"/>
<path stroke="#000000" fill="none" stroke-width="0.8" d="M 72.0 80.0562032949928L72.0 95.57162462881062"/>
<path stroke="#000000" fill="none" stroke-width="0.8" d="M 72.4 80.0562032949928L40.0 80.0562032949928"/>
<path stroke="#000000" fill="none" stroke-width="0.8" d="M 80.0 79.30757490677524L80.0 95.01701249827249"/>
<path stroke="#000000" fill="none" stroke-width="0.8" d="M 80.4 79.30757490677524L40.0 79.30757490677524"/>
<path stroke="#000000" fill="none" stroke-width="0.8" d="M 88.0 66.9885224242214L88.0 102.64047959294867"/>
<path stroke="#000000" fill="none" stroke-width="0.8" d="M 88.4 66.9885224242214L32.0 66.9885224242214"/>
<path stroke="#000000" fill="none" stroke-width="0.8" d="M 96.0 38.46029350463241L96.0 57.81292526810986"/>
<path stroke="#000000" fill="none" stroke-width="0.8" d="M 96.4 38.46029350463241L32.0 38.46029350463241"/>
<path stroke="#000000" fill="none" stroke-width="0.8" d="M 108.0 38.299593169988846L108.0 58.16960162061141"/>
<path stroke="#000000" fill="none" stroke-width="0.8" d="M 108.0 38.299593169988846L108.0 58.16960162061141"/>
<path stroke="#000000" fill="none" stroke-width="0.8" d="M 164.0 28.212707530837612L164.0 37.45885605337803"/>
<path stroke="#000000" fill="none" stroke-width="0.8" d="M 164.0 28.212707530837612L164.0 37.45885605337803"/>
<path stroke="#000000" fill="none" stroke-width="0.8" d="M 120.0 37.45885605337803L120.0 52.63523887630151"/>
<path stroke="#000000" fill="none" stroke-width="0.8" d="M 119.6 37.45885605337803L164.0 37.45885605337803"/>
<path stroke="#000000" fill="none" stroke-width="0.8" d="M 164.0 37.45885605337803L164.0 37.94095705730871"/>
<path stroke="#000000" fill="none" stroke-width="0.8" d="M 164.0 37.45885605337803L164.0 37.94095705730871"/>
<path stroke="#000000" fill="none" stroke-width="0.8" d="M 164.0 37.94095705730871L164.0 51.68867471004737"/>
<path stroke="#000000" fill="none" stroke-width="0.8" d="M 164.0 37.94095705730871L164.0 51.68867471004737"/>
<path stroke="#000000" fill="none" stroke-width="0.8" d="M 140.0 51.68867471004737L140.0 53.00955307041029"/>
<path stroke="#000000" fill="none" stroke-width="0.8" d="M 139.6 51.68867471004737L164.0 51.68867471004737"/>
<path stroke="#000000" fill="none" stroke-width="0.8" d="M 140.0 53.00955307041029L140.0 99.92817150579396"/>
<path stroke="#000000" fill="none" stroke-width="0.8" d="M 140.0 53.00955307041029L140.0 99.92817150579396"/>
<path stroke="#000000" fill="none" stroke-width="0.8" d="M 128.0 99.92817150579396L128.0 184.90729236937972"/>
<path stroke="#000000" fill="none" stroke-width="0.8" d="M 127.6 99.92817150579396L140.0 99.92817150579396"/>
<path stroke="#000000" fill="none" stroke-width="0.8" d="M 140.0 99.92817150579396L140.0 180.9799329715054"/>
<path stroke="#000000" fill="none" stroke-width="0.8" d="M 140.0 99.92817150579396L140.0 180.9799329715054"/>
<path stroke="#000000" fill="none" stroke-width="0.8" d="M 152.0 53.00955307041029L152.0 63.9704917492082"/>
<path stroke="#000000" fill="none" stroke-width="0.8" d="M 152.4 53.00955307041029L140.0 53.00955307041029"/>
<path stroke="#000000" fill="none" stroke-width="0.8" d="M 164.0 51.68867471004737L164.0 63.95285390760099"/>
<path stroke="#000000" fill="none" stroke-width="0.8" d="M 164.0 51.68867471004737L164.0 63.95285390760099"/>
<path stroke="#000000" fill="none" stroke-width="0.8" d="M 176.0 37.94095705730871L176.0 52.33147604862161"/>
<path stroke="#000000" fill="none" stroke-width="0.8" d="M 176.4 37.94095705730871L164.0 37.94095705730871"/>
<path stroke="#000000" fill="none" stroke-width="0.8" d="M 204.0 13.681477758702663L204.0 54.581280733631445"/>
<path stroke="#000000" fill="none" stroke-width="0.8" d="M 204.0 13.681477758702663L204.0 54.581280733631445"/>
<path stroke="#000000" fill="none" stroke-width="0.8" d="M 204.0 54.581280733631445L204.0 56.90163678507016"/>
<path stroke="#000000" fill="none" stroke-width="0.8" d="M 204.0 54.581280733631445L204.0 56.90163678507016"/>
<path stroke="#000000" fill="none" stroke-width="0.8" d="M 204.0 56.90163678507016L204.0 74.39837565943236"/>
<path stroke="#000000" fill="none" stroke-width="0.8" d="M 204.0 56.90163678507016L204.0 74.39837565943236"/>
<path stroke="#000000" fill="none" stroke-width="0.8" d="M 184.0 74.39837565943236L184.0 85.59056603930271"/>
<path stroke="#000000" fill="none" stroke-width="0.8" d="M 183.6 74.39837565943236L204.0 74.39837565943236"/>
<path stroke="#000000" fill="none" stroke-width="0.8" d="M 204.0 74.39837565943236L204.0 76.14648173872571"/>
<path stroke="#000000" fill="none" stroke-width="0.8" d="M 204.0 74.39837565943236L204.0 76.14648173872571"/>
<path stroke="#000000" fill="none" stroke-width="0.8" d="M 192.0 76.14648173872571L192.0 88.37734501324347"/>
<path stroke="#000000" fill="none" stroke-width="0.8" d="M 191.6 76.14648173872571L204.0 76.14648173872571"/>
<path stroke="#000000" fill="none" stroke-width="0.8" d="M 204.0 76.14648173872571L204.0 195.97601785799952"/>
<path stroke="#000000" fill="none" stroke-width="0.8" d="M 204.0 76.14648173872571L204.0 195.97601785799952"/>
<path stroke="#000000" fill="none" stroke-width="0.8" d="M 216.0 56.90163678507016L216.0 73.98682602193055"/>
<path stroke="#000000" fill="none" stroke-width="0.8" d="M 216.4 56.90163678507016L204.0 56.90163678507016"/>
<path stroke="#000000" fill="none" stroke-width="0.8" d="M 224.0 54.581280733631445L224.0 71.36270714281196"/>
<path stroke="#000000" fill="none" stroke-width="0.8" d="M 224.4 54.581280733631445L204.0 54.581280733631445"/>
</g>
</g>
<g transform="matrix(1.0 0.0 0.0 1.0 459.9255 350.0)">
<g >
<path stroke="#000000" fill="none" stroke-width="4.0" d="M 204.0 8.95590804009272L204.0 -50.24616853177101"/>
<path stroke="#000000" fill="none" stroke-width="4.0" d="M 204.0 76.14648173872571L204.0 149.91199135590728L204.0 76.14648173872571L204.0 149.91199135590728L204.0 74.39837565943236L204.0 76.14648173872571L204.0 56.90163678507016L204.0 74.39837565943236L204.0 54.581280733631445L204.0 56.90163678507016L204.0 13.681477758702663L204.0 54.581280733631445L204.0 8.961983296646318L204.0 13.681477758702663L204.0 8.96178732062846L204.0 8.961983296646318L204.0 8.95590804009272L204.0 8.96178732062846L204.0 8.95590804009272L204.0 -50.24616853177101"/>
<path stroke="#000000" fill="#c64340" stroke-width="0.8" d="M 200.0 -54.24616853177101L208.0 -54.24616853177101L208.0 -46.24616853177101L200.0 -46.24616853177101L200.0 -54.24616853177101z"/>
<path stroke="#c64340" fill="#c64340" stroke-width="2.4" d="M 204.0 76.14648173872571L204.0 149.1119913559073L204.0 76.14648173872571L204.0 149.1119913559073L204.0 74.39837565943236L204.0 76.14648173872571L204.0 56.90163678507016L204.0 74.39837565943236L204.0 54.581280733631445L204.0 56.90163678507016L204.0 13.681477758702663L204.0 54.581280733631445L204.0 8.961983296646318L204.0 13.681477758702663L204.0 8.96178732062846L204.0 8.961983296646318L204.0 8.95590804009272L204.0 8.96178732062846L204.0 8.95590804009272L204.0 -50.24616853177101"/>
<path stroke="#000000" fill="none" stroke-width="4.0" d="M -28.0 74.34350237443212L-28.0 84.3689084847854L-28.0 74.34350237443212L-28.0 84.3689084847854L-28.0 57.31318642257196L-28.0 74.34350237443212L-28.0 54.47349392380954L-28.0 57.31318642257196L-28.0 13.683241542863383L-28.0 54.47349392380954L-28.0 13.681477758702663L-28.0 13.683241542863383"/>
<path stroke="#000000" fill="#fb827a" stroke-width="0.8" d="M -32.0 9.681477758702663L-24.0 9.681477758702663L-24.0 17.681477758702663L-32.0 17.681477758702663L-32.0 9.681477758702663z"/>
<path stroke="#fb827a" fill="#fb827a" stroke-width="2.4" d="M -28.0 74.34350237443212L-28.0 83.5689084847854L-28.0 74.34350237443212L-28.0 83.5689084847854L-28.0 57.31318642257196L-28.0 74.34350237443212L-28.0 54.47349392380954L-28.0 57.31318642257196L-28.0 13.683241542863383L-28.0 54.47349392380954L-28.0 13.681477758702663L-28.0 13.683241542863383"/>
<path stroke="#000000" fill="none" stroke-width="4.0" d="M 164.0 51.68867471004737L164.0 61.89930726262564L164.0 51.68867471004737L164.0 61.89930726262564L164.0 37.94095705730871L164.0 51.68867471004737L164.0 37.45885605337803L164.0 37.94095705730871L164.0 28.212707530837612L164.0 37.45885605337803L164.0 13.683241542863383L164.0 28.212707530837612"/>
<path stroke="#000000" fill="#ffd6d1" stroke-width="0.8" d="M 160.0 9.683241542863385L168.0 9.683241542863385L168.0 17.683241542863385L160.0 17.683241542863385L160.0 9.683241542863385z"/>
<path stroke="#ffd6d1" fill="#ffd6d1" stroke-width="2.4" d="M 164.0 51.68867471004737L164.0 61.09930726262564L164.0 51.68867471004737L164.0 61.09930726262564L164.0 37.94095705730871L164.0 51.68867471004737L164.0 37.45885605337803L164.0 37.94095705730871L164.0 28.212707530837612L164.0 37.45885605337803L164.0 13.683241542863383L164.0 28.212707530837612"/>
<path stroke="#000000" fill="none" stroke-width="4.0" d="M 108.0 28.212707530837612L108.0 33.75653988588398L108.0 28.212707530837612L108.0 33.75653988588398"/>
<path stroke="#000000" fill="#c64340" stroke-width="0.8" d="M 104.0 24.212707530837612L112.0 24.212707530837612L112.0 32.21270753083761L104.0 32.21270753083761L104.0 24.212707530837612z"/>
<path stroke="#c64340" fill="#c64340" stroke-width="2.4" d="M 108.0 28.212707530837612L108.0 32.956539885883984L108.0 28.212707530837612L108.0 32.956539885883984"/>
<path stroke="#000000" fill="none" stroke-width="4.0" d="M 140.0 53.00955307041029L140.0 92.83097830379869L140.0 53.00955307041029L140.0 92.83097830379869L140.0 51.68867471004737L140.0 53.00955307041029"/>
<path stroke="#000000" fill="#c64340" stroke-width="0.8" d="M 136.0 47.68867471004737L144.0 47.68867471004737L144.0 55.68867471004737L136.0 55.68867471004737L136.0 47.68867471004737z"/>
<path stroke="#c64340" fill="#c64340" stroke-width="2.4" d="M 140.0 53.00955307041029L140.0 92.03097830379869L140.0 53.00955307041029L140.0 92.03097830379869L140.0 51.68867471004737L140.0 53.00955307041029"/>
<path stroke="#000000" fill="none" stroke-width="4.0" d="M 4.0 76.27190639015483L4.0 147.93077083319355L4.0 76.27190639015483L4.0 147.93077083319355L4.0 74.34350237443212L4.0 76.27190639015483"/>
<path stroke="#000000" fill="#ffd6d1" stroke-width="0.8" d="M 0.0 70.34350237443212L8.0 70.34350237443212L8.0 78.34350237443212L0.0 78.34350237443212L0.0 70.34350237443212z"/>
<path stroke="#ffd6d1" fill="#ffd6d1" stroke-width="2.4" d="M 4.0 76.27190639015483L4.0 147.13077083319354L4.0 76.27190639015483L4.0 147.13077083319354L4.0 74.34350237443212L4.0 76.27190639015483"/>
</g>
</g>
<g transform="matrix(1.0 0.0 0.0 1.0 856.0745 350.0)">
<g >
<path stroke="#000000" fill="none" stroke-width="0.8" d="M -144.0 3.9726298579995083L-144.0 3.99595100412461"/>
<path stroke="#000000" fill="none" stroke-width="0.8" d="M -144.0 3.9726298579995083L-144.0 3.99595100412461"/>
<path stroke="#000000" fill="none" stroke-width="0.8" d="M -144.0 3.99595100412461L-144.0 44.99413394001811"/>
<path stroke="#000000" fill="none" stroke-width="0.8" d="M -144.0 3.99595100412461L-144.0 44.99413394001811"/>
<path stroke="#000000" fill="none" stroke-width="0.8" d="M 112.0 3.99595100412461L112.0 3.996146980142468"/>
<path stroke="#000000" fill="none" stroke-width="0.8" d="M 112.4 3.99595100412461L-144.0 3.99595100412461"/>
<path stroke="#000000" fill="none" stroke-width="0.8" d="M -128.0 3.996146980142468L-128.0 45.10584027019717"/>
<path stroke="#000000" fill="none" stroke-width="0.8" d="M -128.4 3.996146980142468L112.0 3.996146980142468"/>
<path stroke="#000000" fill="none" stroke-width="0.8" d="M 112.0 3.996146980142468L112.0 12.73844116076997"/>
<path stroke="#000000" fill="none" stroke-width="0.8" d="M 112.0 3.996146980142468L112.0 12.73844116076997"/>
<path stroke="#000000" fill="none" stroke-width="0.8" d="M 112.0 12.73844116076997L112.0 14.820098422457638"/>
<path stroke="#000000" fill="none" stroke-width="0.8" d="M 112.0 12.73844116076997L112.0 14.820098422457638"/>
<path stroke="#000000" fill="none" stroke-width="0.8" d="M 48.0 14.820098422457638L48.0 17.333490851486484"/>
<path stroke="#000000" fill="none" stroke-width="0.8" d="M 47.6 14.820098422457638L112.0 14.820098422457638"/>
<path stroke="#000000" fill="none" stroke-width="0.8" d="M 48.0 17.333490851486484L48.0 38.656269522490405"/>
<path stroke="#000000" fill="none" stroke-width="0.8" d="M 48.0 17.333490851486484L48.0 38.656269522490405"/>
<path stroke="#000000" fill="none" stroke-width="0.8" d="M 48.0 38.656269522490405L48.0 38.86204434124131"/>
<path stroke="#000000" fill="none" stroke-width="0.8" d="M 48.0 38.656269522490405L48.0 38.86204434124131"/>
<path stroke="#000000" fill="none" stroke-width="0.8" d="M 48.0 38.86204434124131L48.0 49.30952585325126"/>
<path stroke="#000000" fill="none" stroke-width="0.8" d="M 48.0 38.86204434124131L48.0 49.30952585325126"/>
<path stroke="#000000" fill="none" stroke-width="0.8" d="M -24.0 49.30952585325126L-24.0 49.49962259057352"/>
<path stroke="#000000" fill="none" stroke-width="0.8" d="M -24.4 49.30952585325126L48.0 49.30952585325126"/>
<path stroke="#000000" fill="none" stroke-width="0.8" d="M -116.0 49.49962259057352L-116.0 72.08585864870797"/>
<path stroke="#000000" fill="none" stroke-width="0.8" d="M -116.4 49.49962259057352L-24.0 49.49962259057352"/>
<path stroke="#000000" fill="none" stroke-width="0.8" d="M -116.0 72.08585864870797L-116.0 72.79725159353251"/>
<path stroke="#000000" fill="none" stroke-width="0.8" d="M -116.0 72.08585864870797L-116.0 72.79725159353251"/>
<path stroke="#000000" fill="none" stroke-width="0.8" d="M -116.0 72.79725159353251L-116.0 129.8909448761035"/>
<path stroke="#000000" fill="none" stroke-width="0.8" d="M -116.0 72.79725159353251L-116.0 129.8909448761035"/>
<path stroke="#000000" fill="none" stroke-width="0.8" d="M -108.0 72.79725159353251L-108.0 99.24225544329094"/>
<path stroke="#000000" fill="none" stroke-width="0.8" d="M -107.6 72.79725159353251L-116.0 72.79725159353251"/>
<path stroke="#000000" fill="none" stroke-width="0.8" d="M -100.0 72.08585864870797L-100.0 99.96932646954413"/>
<path stroke="#000000" fill="none" stroke-width="0.8" d="M -99.6 72.08585864870797L-116.0 72.08585864870797"/>
<path stroke="#000000" fill="none" stroke-width="0.8" d="M -24.0 49.49962259057352L-24.0 51.018436728973015"/>
<path stroke="#000000" fill="none" stroke-width="0.8" d="M -24.0 49.49962259057352L-24.0 51.018436728973015"/>
<path stroke="#000000" fill="none" stroke-width="0.8" d="M -56.0 51.018436728973015L-56.0 57.71885677953802"/>
<path stroke="#000000" fill="none" stroke-width="0.8" d="M -56.4 51.018436728973015L-24.0 51.018436728973015"/>
<path stroke="#000000" fill="none" stroke-width="0.8" d="M -92.0 57.71885677953802L-92.0 64.81514838617619"/>
<path stroke="#000000" fill="none" stroke-width="0.8" d="M -92.4 57.71885677953802L-56.0 57.71885677953802"/>
<path stroke="#000000" fill="none" stroke-width="0.8" d="M -92.0 64.81514838617619L-92.0 78.8039165408802"/>
<path stroke="#000000" fill="none" stroke-width="0.8" d="M -92.0 64.81514838617619L-92.0 78.8039165408802"/>
<path stroke="#000000" fill="none" stroke-width="0.8" d="M -84.0 64.81514838617619L-84.0 83.60924849875833"/>
<path stroke="#000000" fill="none" stroke-width="0.8" d="M -83.6 64.81514838617619L-92.0 64.81514838617619"/>
<path stroke="#000000" fill="none" stroke-width="0.8" d="M -84.0 83.60924849875833L-84.0 138.89996241703574"/>
<path stroke="#000000" fill="none" stroke-width="0.8" d="M -84.0 83.60924849875833L-84.0 138.89996241703574"/>
<path stroke="#000000" fill="none" stroke-width="0.8" d="M -76.0 83.60924849875833L-76.0 107.8397233467214"/>
<path stroke="#000000" fill="none" stroke-width="0.8" d="M -75.6 83.60924849875833L-84.0 83.60924849875833"/>
<path stroke="#000000" fill="none" stroke-width="0.8" d="M -56.0 57.71885677953802L-56.0 110.13264275565999"/>
<path stroke="#000000" fill="none" stroke-width="0.8" d="M -56.0 57.71885677953802L-56.0 110.13264275565999"/>
<path stroke="#000000" fill="none" stroke-width="0.8" d="M -56.0 110.13264275565999L-56.0 134.80602340398212"/>
<path stroke="#000000" fill="none" stroke-width="0.8" d="M -56.0 110.13264275565999L-56.0 134.80602340398212"/>
<path stroke="#000000" fill="none" stroke-width="0.8" d="M -56.0 134.80602340398212L-56.0 178.90454694238917"/>
<path stroke="#000000" fill="none" stroke-width="0.8" d="M -56.0 134.80602340398212L-56.0 178.90454694238917"/>
<path stroke="#000000" fill="none" stroke-width="0.8" d="M -68.0 178.90454694238917L-68.0 194.0789700051341"/>
<path stroke="#000000" fill="none" stroke-width="0.8" d="M -68.4 178.90454694238917L-56.0 178.90454694238917"/>
<path stroke="#000000" fill="none" stroke-width="0.8" d="M -56.0 178.90454694238917L-56.0 192.34066272673363"/>
<path stroke="#000000" fill="none" stroke-width="0.8" d="M -56.0 178.90454694238917L-56.0 192.34066272673363"/>
<path stroke="#000000" fill="none" stroke-width="0.8" d="M -44.0 134.80602340398212L-44.0 148.33620767689843"/>
<path stroke="#000000" fill="none" stroke-width="0.8" d="M -43.6 134.80602340398212L-56.0 134.80602340398212"/>
<path stroke="#000000" fill="none" stroke-width="0.8" d="M -36.0 110.13264275565999L-36.0 121.89120382713996"/>
<path stroke="#000000" fill="none" stroke-width="0.8" d="M -35.6 110.13264275565999L-56.0 110.13264275565999"/>
<path stroke="#000000" fill="none" stroke-width="0.8" d="M -24.0 51.018436728973015L-24.0 72.41901787906657"/>
<path stroke="#000000" fill="none" stroke-width="0.8" d="M -24.0 51.018436728973015L-24.0 72.41901787906657"/>
<path stroke="#000000" fill="none" stroke-width="0.8" d="M 48.0 49.30952585325126L48.0 51.271245792009836"/>
<path stroke="#000000" fill="none" stroke-width="0.8" d="M 48.0 49.30952585325126L48.0 51.271245792009836"/>
<path stroke="#000000" fill="none" stroke-width="0.8" d="M 48.0 51.271245792009836L48.0 57.560116205073044"/>
<path stroke="#000000" fill="none" stroke-width="0.8" d="M 48.0 51.271245792009836L48.0 57.560116205073044"/>
<path stroke="#000000" fill="none" stroke-width="0.8" d="M -8.0 57.560116205073044L-8.0 64.94253279778388"/>
<path stroke="#000000" fill="none" stroke-width="0.8" d="M -8.4 57.560116205073044L48.0 57.560116205073044"/>
<path stroke="#000000" fill="none" stroke-width="0.8" d="M -8.0 64.94253279778388L-8.0 79.23114425981062"/>
<path stroke="#000000" fill="none" stroke-width="0.8" d="M -8.0 64.94253279778388L-8.0 79.23114425981062"/>
<path stroke="#000000" fill="none" stroke-width="0.8" d="M 8.0 64.94253279778388L8.0 83.11930845411334"/>
<path stroke="#000000" fill="none" stroke-width="0.8" d="M 8.4 64.94253279778388L-8.0 64.94253279778388"/>
<path stroke="#000000" fill="none" stroke-width="0.8" d="M 8.0 83.11930845411334L8.0 138.69418759828483"/>
<path stroke="#000000" fill="none" stroke-width="0.8" d="M 8.0 83.11930845411334L8.0 138.69418759828483"/>
<path stroke="#000000" fill="none" stroke-width="0.8" d="M 20.0 83.11930845411334L20.0 107.38113946493368"/>
<path stroke="#000000" fill="none" stroke-width="0.8" d="M 20.4 83.11930845411334L8.0 83.11930845411334"/>
<path stroke="#000000" fill="none" stroke-width="0.8" d="M 48.0 57.560116205073044L48.0 125.05425675536807"/>
<path stroke="#000000" fill="none" stroke-width="0.8" d="M 48.0 57.560116205073044L48.0 125.05425675536807"/>
<path stroke="#000000" fill="none" stroke-width="0.8" d="M 48.0 125.05425675536807L48.0 143.98945960080798"/>
<path stroke="#000000" fill="none" stroke-width="0.8" d="M 48.0 125.05425675536807L48.0 143.98945960080798"/>
<path stroke="#000000" fill="none" stroke-width="0.8" d="M 28.0 143.98945960080798L28.0 183.64716657455276"/>
<path stroke="#000000" fill="none" stroke-width="0.8" d="M 27.6 143.98945960080798L48.0 143.98945960080798"/>
<path stroke="#000000" fill="none" stroke-width="0.8" d="M 28.0 183.64716657455276L28.0 195.97601785799952"/>
<path stroke="#000000" fill="none" stroke-width="0.8" d="M 28.0 183.64716657455276L28.0 195.97601785799952"/>
<path stroke="#000000" fill="none" stroke-width="0.8" d="M 36.0 183.64716657455276L36.0 193.60470804191772"/>
<path stroke="#000000" fill="none" stroke-width="0.8" d="M 36.4 183.64716657455276L28.0 183.64716657455276"/>
<path stroke="#000000" fill="none" stroke-width="0.8" d="M 48.0 143.98945960080798L48.0 154.35855070567476"/>
<path stroke="#000000" fill="none" stroke-width="0.8" d="M 48.0 143.98945960080798L48.0 154.35855070567476"/>
<path stroke="#000000" fill="none" stroke-width="0.8" d="M 60.0 125.05425675536807L60.0 140.9694691656162"/>
<path stroke="#000000" fill="none" stroke-width="0.8" d="M 60.4 125.05425675536807L48.0 125.05425675536807"/>
<path stroke="#000000" fill="none" stroke-width="0.8" d="M 68.0 51.271245792009836L68.0 72.35434579317342"/>
<path stroke="#000000" fill="none" stroke-width="0.8" d="M 68.4 51.271245792009836L48.0 51.271245792009836"/>
<path stroke="#000000" fill="none" stroke-width="0.8" d="M 76.0 38.86204434124131L76.0 66.64948391332706"/>
<path stroke="#000000" fill="none" stroke-width="0.8" d="M 76.4 38.86204434124131L48.0 38.86204434124131"/>
<path stroke="#000000" fill="none" stroke-width="0.8" d="M 84.0 38.656269522490405L84.0 67.21781436511526"/>
<path stroke="#000000" fill="none" stroke-width="0.8" d="M 84.4 38.656269522490405L48.0 38.656269522490405"/>
<path stroke="#000000" fill="none" stroke-width="0.8" d="M 92.0 17.333490851486484L92.0 17.52299966075517"/>
<path stroke="#000000" fill="none" stroke-width="0.8" d="M 92.4 17.333490851486484L48.0 17.333490851486484"/>
<path stroke="#000000" fill="none" stroke-width="0.8" d="M 92.0 17.52299966075517L92.0 41.53319746464584"/>
<path stroke="#000000" fill="none" stroke-width="0.8" d="M 92.0 17.52299966075517L92.0 41.53319746464584"/>
<path stroke="#000000" fill="none" stroke-width="0.8" d="M 100.0 17.52299966075517L100.0 39.083497241420844"/>
<path stroke="#000000" fill="none" stroke-width="0.8" d="M 100.4 17.52299966075517L92.0 17.52299966075517"/>
<path stroke="#000000" fill="none" stroke-width="0.8" d="M 112.0 14.820098422457638L112.0 29.25138042548501"/>
<path stroke="#000000" fill="none" stroke-width="0.8" d="M 112.0 14.820098422457638L112.0 29.25138042548501"/>
<path stroke="#000000" fill="none" stroke-width="0.8" d="M 128.0 12.73844116076997L128.0 28.50863131780319"/>
<path stroke="#000000" fill="none" stroke-width="0.8" d="M 128.4 12.73844116076997L112.0 12.73844116076997"/>
<path stroke="#000000" fill="none" stroke-width="0.8" d="M 140.0 3.9726298579995083L140.0 18.487201668616528"/>
<path stroke="#000000" fill="none" stroke-width="0.8" d="M 140.4 3.9726298579995083L-144.0 3.9726298579995083"/>
<path stroke="#000000" fill="none" stroke-width="0.8" d="M 140.0 18.487201668616528L140.0 40.6944201082136"/>
<path stroke="#000000" fill="none" stroke-width="0.8" d="M 140.0 18.487201668616528L140.0 40.6944201082136"/>
<path stroke="#000000" fill="none" stroke-width="0.8" d="M 148.0 18.487201668616528L148.0 43.33421706876086"/>
<path stroke="#000000" fill="none" stroke-width="0.8" d="M 148.4 18.487201668616528L140.0 18.487201668616528"/>
</g>
</g>
<g transform="matrix(1.0 0.0 0.0 1.0 856.0745 350.0)">
<g >
<path stroke="#000000" fill="none" stroke-width="4.0" d="M -144.0 3.9726298579995083L-144.0 -45.262890349677804"/>
<path stroke="#000000" fill="none" stroke-width="4.0" d="M -144.0 3.99595100412461L-144.0 25.903926377059875L-144.0 3.99595100412461L-144.0 25.903926377059875L-144.0 3.9726298579995083L-144.0 3.99595100412461L-144.0 3.9726298579995083L-144.0 -50.24616853177101"/>
<path stroke="#000000" fill="#3077cb" stroke-width="0.8" d="M -148.0 -54.24616853177101L-140.0 -54.24616853177101L-140.0 -46.24616853177101L-148.0 -46.24616853177101L-148.0 -54.24616853177101z"/>
<path stroke="#3077cb" fill="#3077cb" stroke-width="2.4" d="M -144.0 3.99595100412461L-144.0 25.103926377059874L-144.0 3.99595100412461L-144.0 25.103926377059874L-144.0 3.9726298579995083L-144.0 3.99595100412461L-144.0 3.9726298579995083L-144.0 -50.24616853177101"/>
<path stroke="#000000" fill="none" stroke-width="4.0" d="M 112.0 14.820098422457638L112.0 28.40821465286308L112.0 14.820098422457638L112.0 28.40821465286308L112.0 12.73844116076997L112.0 14.820098422457638L112.0 3.996146980142468L112.0 12.73844116076997L112.0 3.99595100412461L112.0 3.996146980142468"/>
<path stroke="#000000" fill="#75aef7" stroke-width="0.8" d="M 108.0 -0.004048995875386652L116.0 -0.004048995875386652L116.0 7.995951004124613L108.0 7.995951004124613L108.0 -0.004048995875386652z"/>
<path stroke="#75aef7" fill="#75aef7" stroke-width="2.4" d="M 112.0 14.820098422457638L112.0 27.608214652863083L112.0 14.820098422457638L112.0 27.608214652863083L112.0 12.73844116076997L112.0 14.820098422457638L112.0 3.996146980142468L112.0 12.73844116076997L112.0 3.99595100412461L112.0 3.996146980142468"/>
<path stroke="#000000" fill="none" stroke-width="4.0" d="M 48.0 143.98945960080798L48.0 150.48732649506644L48.0 143.98945960080798L48.0 150.48732649506644L48.0 125.05425675536807L48.0 143.98945960080798L48.0 57.560116205073044L48.0 125.05425675536807L48.0 51.271245792009836L48.0 57.560116205073044L48.0 49.30952585325126L48.0 51.271245792009836L48.0 38.86204434124131L48.0 49.30952585325126L48.0 38.656269522490405L48.0 38.86204434124131L48.0 17.333490851486484L48.0 38.656269522490405L48.0 14.820098422457638L48.0 17.333490851486484"/>
<path stroke="#000000" fill="#3077cb" stroke-width="0.8" d="M 44.0 10.82009842245764L52.0 10.82009842245764L52.0 18.82009842245764L44.0 18.82009842245764L44.0 10.82009842245764z"/>
<path stroke="#3077cb" fill="#3077cb" stroke-width="2.4" d="M 48.0 143.98945960080798L48.0 149.68732649506646L48.0 143.98945960080798L48.0 149.68732649506646L48.0 125.05425675536807L48.0 143.98945960080798L48.0 57.560116205073044L48.0 125.05425675536807L48.0 51.271245792009836L48.0 57.560116205073044L48.0 49.30952585325126L48.0 51.271245792009836L48.0 38.86204434124131L48.0 49.30952585325126L48.0 38.656269522490405L48.0 38.86204434124131L48.0 17.333490851486484L48.0 38.656269522490405L48.0 14.820098422457638L48.0 17.333490851486484"/>
<path stroke="#000000" fill="none" stroke-width="4.0" d="M 128.0 12.73844116076997L128.0 25.873540392508822L128.0 12.73844116076997L128.0 25.873540392508822"/>
<path stroke="#000000" fill="#d0e4fe" stroke-width="0.8" d="M 124.0 8.738441160769973L132.0 8.738441160769973L132.0 16.738441160769973L124.0 16.738441160769973L124.0 8.738441160769973z"/>
<path stroke="#d0e4fe" fill="#d0e4fe" stroke-width="2.4" d="M 128.0 12.73844116076997L128.0 25.073540392508825L128.0 12.73844116076997L128.0 25.073540392508825"/>
<path stroke="#000000" fill="none" stroke-width="4.0" d="M -128.0 3.996146980142468L-128.0 25.961533624527064L-128.0 3.996146980142468L-128.0 25.961533624527064"/>
<path stroke="#000000" fill="#d0e4fe" stroke-width="0.8" d="M -132.0 -0.003853019857530171L-124.0 -0.003853019857530171L-124.0 7.99614698014247L-132.0 7.99614698014247L-132.0 -0.003853019857530171z"/>
<path stroke="#d0e4fe" fill="#d0e4fe" stroke-width="2.4" d="M -128.0 3.996146980142468L-128.0 25.161533624527067L-128.0 3.996146980142468L-128.0 25.161533624527067"/>
<path stroke="#000000" fill="none" stroke-width="4.0" d="M -24.0 51.018436728973015L-24.0 56.58589292577604L-24.0 51.018436728973015L-24.0 56.58589292577604L-24.0 49.49962259057352L-24.0 51.018436728973015L-24.0 49.30952585325126L-24.0 49.49962259057352"/>
<path stroke="#000000" fill="#d0e4fe" stroke-width="0.8" d="M -28.0 45.309525853251266L-20.0 45.309525853251266L-20.0 53.309525853251266L-28.0 53.309525853251266L-28.0 45.309525853251266z"/>
<path stroke="#d0e4fe" fill="#d0e4fe" stroke-width="2.4" d="M -24.0 51.018436728973015L-24.0 55.78589292577604L-24.0 51.018436728973015L-24.0 55.78589292577604L-24.0 49.49962259057352L-24.0 51.018436728973015L-24.0 49.30952585325126L-24.0 49.49962259057352"/>
<path stroke="#000000" fill="none" stroke-width="4.0" d="M -56.0 134.80602340398212L-56.0 149.3595233194259L-56.0 134.80602340398212L-56.0 149.3595233194259L-56.0 110.13264275565999L-56.0 134.80602340398212L-56.0 57.71885677953802L-56.0 110.13264275565999L-56.0 51.018436728973015L-56.0 57.71885677953802"/>
<path stroke="#000000" fill="#75aef7" stroke-width="0.8" d="M -60.0 47.01843672897302L-52.0 47.01843672897302L-52.0 55.01843672897302L-60.0 55.01843672897302L-60.0 47.01843672897302z"/>
<path stroke="#75aef7" fill="#75aef7" stroke-width="2.4" d="M -56.0 134.80602340398212L-56.0 148.55952331942592L-56.0 134.80602340398212L-56.0 148.55952331942592L-56.0 110.13264275565999L-56.0 134.80602340398212L-56.0 57.71885677953802L-56.0 110.13264275565999L-56.0 51.018436728973015L-56.0 57.71885677953802"/>
<path stroke="#000000" fill="none" stroke-width="4.0" d="M -8.0 64.94253279778388L-8.0 79.23114425981062L-8.0 64.94253279778388L-8.0 79.23114425981062L-8.0 57.560116205073044L-8.0 64.94253279778388"/>
<path stroke="#000000" fill="#d0e4fe" stroke-width="0.8" d="M -12.0 53.56011620507305L-4.0 53.56011620507305L-4.0 61.56011620507305L-12.0 61.56011620507305L-12.0 53.56011620507305z"/>
<path stroke="#d0e4fe" fill="#d0e4fe" stroke-width="2.4" d="M -8.0 64.94253279778388L-8.0 78.52378725674L-8.0 64.94253279778388L-8.0 78.52378725674L-8.0 57.560116205073044L-8.0 64.94253279778388"/>
<path stroke="#000000" fill="none" stroke-width="4.0" d="M 8.0 83.11930845411334L8.0 138.66881810604465L8.0 83.11930845411334L8.0 138.66881810604465L8.0 64.94253279778388L8.0 83.11930845411334"/>
<path stroke="#000000" fill="#3077cb" stroke-width="0.8" d="M 4.0 60.94253279778388L12.0 60.94253279778388L12.0 68.94253279778388L4.0 68.94253279778388L4.0 60.94253279778388z"/>
<path stroke="#3077cb" fill="#3077cb" stroke-width="2.4" d="M 8.0 83.11930845411334L8.0 137.86881810604467L8.0 83.11930845411334L8.0 137.86881810604467L8.0 64.94253279778388L8.0 83.11930845411334"/>
</g>
</g>
</g>
</svg>