<?xml version="1.0" encoding="utf-8"?>
<svg version="1.2" baseProfile="tiny" id="openrndr-svg" xmlns="http://www.w3.org/2000/svg" xmlns:xlink="http://www.w3.org/1999/xlink" height="576.0" x="0.0" y="0.0" width="768.0" ><g >
<g transform="matrix(1.0 0.0 0.0 1.0 436.82 350.0)">
<g >
<path fill="#3077cb" d="M 0.0 71.8292802076529L0.0 70.74323536972857L0.0 40.98593611209302L16.0 40.98593611209302L16.0 71.8292802076529L0.0 71.8292802076529z"/>
<path fill="#75aef7" d="M 32.0 71.68550855768007L32.0 41.04385850344899L48.0 41.04385850344899L48.0 71.68550855768007L32.0 71.68550855768007z"/>
<path fill="#d0e4fe" d="M 32.0 71.68550855768007L32.0 102.32852224181978L16.0 102.32852224181978L16.0 71.8292802076529L16.0 40.98603611209302L0.0 40.98603611209302L0.0 35.620874612746746L16.0 35.620874612746746L32.0 35.620874612746746L32.0 40.98603611209302L32.0 71.68550855768007z"/>
<path fill="#75aef7" d="M -16.0 70.74323536972857L-16.0 35.62097461274675L-16.0 35.54640296671764L0.0 35.54640296671764L16.0 35.54640296671764L32.0 35.54640296671764L32.0 35.62097461274675L16.0 35.62097461274675L0.0 35.62097461274675L0.0 70.74323536972855L-16.0 70.74323536972857z"/>
<path fill="#d0e4fe" d="M -32.0 24.088817789332733L-32.0 23.99572823179636L-32.0 13.00724899748598L-16.0 13.00724899748598L-16.0 24.088817789332733L-32.0 24.088817789332733z"/>
<path fill="#75aef7" d="M -48.0 23.99572823179636L-48.0 13.00724899748598L-32.0 13.00724899748598L-32.0 23.99572823179636L-48.0 23.99572823179636z"/>
<path fill="#3077cb" stroke-width="136.0" d="M 72.0 2.1872943035796357L72.0 13.00734899748598L72.0 24.31533571267124L64.0 24.31533571267124L64.0 24.325335712671233L64.0 27.011486611804116L64.0 27.129400051350203L64.0 30.83333011288076L64.0 30.967792807099954L64.0 35.54650296671764L64.0 41.04395850344899L64.0 103.4228417070807L48.0 103.4228417070807L48.0 71.68550855768007L48.0 41.04395850344899L32.0 41.04395850344899L32.0 35.54650296671764L16.0 35.54650296671764L0.0 35.54650296671764L-16.0 35.54650296671764L-16.0 27.129400051350203L-16.0 24.088817789332733L-16.0 13.007348997485979L-32.0 13.00734899748598L-48.0 13.00734899748598L-48.0 2.19980967742619L-48.0 2.1872943035796357L-48.0 -6.065909292919297L72.0 -6.065909292919297L72.0 2.1872943035796357z"/>
</g>
</g>
<g transform="matrix(1.0 0.0 0.0 1.0 595.1800000000001 350.0)">
<g >
<path fill="#fb827a" d="M -16.0 72.13957873277414L-16.0 65.46195447216502L-16.0 42.04095109750524L0.0 42.04095109750524L0.0 72.13957873277414L-16.0 72.13957873277414z"/>
<path fill="#ffd6d1" d="M 16.0 72.08165634141818L16.0 41.90648840328603L32.0 41.90648840328603L32.0 72.08165634141818L16.0 72.08165634141818z"/>
<path fill="#c64340" d="M 16.0 72.08165634141818L16.0 102.76294017698953L0.0 102.76294017698953L0.0 72.13957873277414L0.0 42.041051097505246L-16.0 42.041051097505246L-16.0 38.20255834175548L0.0 38.20255834175548L16.0 38.20255834175548L16.0 42.041051097505246L16.0 72.08165634141818z"/>
<path fill="#ffd6d1" d="M -32.0 65.46195447216502L-32.0 38.20265834175548L-32.0 38.084644902209405L-16.0 38.084644902209405L0.0 38.084644902209405L16.0 38.084644902209405L16.0 38.20265834175548L0.0 38.20265834175548L-16.0 38.20265834175548L-16.0 65.46195447216502L-32.0 65.46195447216502z"/>
<path fill="#ffd6d1" d="M -48.0 23.159990870803146L-48.0 23.118617734120317L-48.0 13.27296796783147L-32.0 13.27296796783147L-32.0 23.159990870803146L-48.0 23.159990870803146z"/>
<path fill="#fb827a" d="M 32.0 103.4228417070807L32.0 72.08165634141818L32.0 41.90658840328603L16.0 41.90658840328604L16.0 38.08474490220941L0.0 38.08474490220941L-16.0 38.08474490220941L-32.0 38.08474490220941L-32.0 24.54771632234147L-32.0 23.159990870803146L-32.0 13.27306796783147L-48.0 13.27306796783147L-48.0 1.9340907070807023L-32.0 1.9340907070807023L-16.0 1.9340907070807023L0.0 1.9340907070807023L16.0 1.9340907070807023L32.0 1.9340907070807023L48.0 1.9340907070807023L48.0 13.273067967831468L48.0 24.473244676312365L48.0 24.54771632234147L48.0 29.912777821687744L48.0 29.97070021304371L48.0 38.08474490220941L48.0 41.90658840328604L48.0 103.4228417070807L32.0 103.4228417070807z"/>
<path fill="#c64340" stroke-width="128.0" d="M 48.0 1.9340907070807023L48.0 13.260552593984913L48.0 13.27306796783147L-32.0 13.27306796783147L-48.0 13.273067967831468L-48.0 23.118617734120317L-64.0 23.118617734120317L-64.0 13.27306796783147L-64.0 13.260552593984913L-64.0 1.9340907070807023L-64.0 -6.065909292919297L48.0 -6.065909292919297L48.0 1.9340907070807023z"/>
</g>
</g>
<g transform="matrix(1.0 0.0 0.0 1.0 400.0 350.0)">
<g >
<path stroke="#000000" fill="none" stroke-opacity="0.1" stroke-width="0.4" d="M -20.18 -22.675646728527212L252.18 -22.675646728527212"/>
<path stroke="#000000" fill="none" stroke-opacity="0.1" stroke-width="0.4" d="M -20.18 -17.139067583324575L252.18 -17.139067583324575"/>
<path stroke="#000000" fill="none" stroke-opacity="0.1" stroke-width="0.4" d="M -20.18 -11.602488438121936L252.18 -11.602488438121936"/>
<path stroke="#000000" fill="none" stroke-opacity="0.1" stroke-width="0.4" d="M -20.18 -6.065909292919297L252.18 -6.065909292919297"/>
<path stroke="#000000" fill="none" stroke-opacity="0.1" stroke-width="0.4" d="M -20.18 -0.5293301477166583L252.18 -0.5293301477166583"/>
<path stroke="#000000" fill="none" stroke-opacity="0.1" stroke-width="0.4" d="M -20.18 5.007248997485981L252.18 5.007248997485981"/>
<path stroke="#000000" fill="none" stroke-opacity="0.1" stroke-width="0.4" d="M -20.18 10.54382814268862L252.18 10.54382814268862"/>
<path stroke="#000000" fill="none" stroke-opacity="0.1" stroke-width="0.4" d="M -20.18 16.08040728789126L252.18 16.08040728789126"/>
<path stroke="#000000" fill="none" stroke-opacity="0.1" stroke-width="0.4" d="M -20.18 21.6169864330939L252.18 21.6169864330939"/>
<path stroke="#000000" fill="none" stroke-opacity="0.1" stroke-width="0.4" d="M -20.18 27.153565578296536L252.18 27.153565578296536"/>
<path stroke="#000000" fill="none" stroke-opacity="0.1" stroke-width="0.4" d="M -20.18 32.69014472349917L252.18 32.69014472349917"/>
<path stroke="#000000" fill="none" stroke-opacity="0.1" stroke-width="0.4" d="M -20.18 38.22672386870181L252.18 38.22672386870181"/>
<path stroke="#000000" fill="none" stroke-opacity="0.1" stroke-width="0.4" d="M -20.18 43.76330301390445L252.18 43.76330301390445"/>
<path stroke="#000000" fill="none" stroke-opacity="0.1" stroke-width="0.4" d="M -20.18 49.299882159107085L252.18 49.299882159107085"/>
<path stroke="#000000" fill="none" stroke-opacity="0.1" stroke-width="0.4" d="M -20.18 54.83646130430972L252.18 54.83646130430972"/>
<path stroke="#000000" fill="none" stroke-opacity="0.1" stroke-width="0.4" d="M -20.18 60.37304044951236L252.18 60.37304044951236"/>
<path stroke="#000000" fill="none" stroke-opacity="0.1" stroke-width="0.4" d="M -20.18 65.909619594715L252.18 65.909619594715"/>
<path stroke="#000000" fill="none" stroke-opacity="0.1" stroke-width="0.4" d="M -20.18 71.44619873991763L252.18 71.44619873991763"/>
<path stroke="#000000" fill="none" stroke-opacity="0.1" stroke-width="0.4" d="M -20.18 76.98277788512027L252.18 76.98277788512027"/>
<path stroke="#000000" fill="none" stroke-opacity="0.1" stroke-width="0.4" d="M -20.18 82.51935703032291L252.18 82.51935703032291"/>
<path stroke="#000000" fill="none" stroke-opacity="0.1" stroke-width="0.4" d="M -20.18 88.05593617552555L252.18 88.05593617552555"/>
<path stroke="#000000" fill="none" stroke-opacity="0.1" stroke-width="0.4" d="M -20.18 93.59251532072818L252.18 93.59251532072818"/>
<path stroke="#000000" fill="none" stroke-opacity="0.1" stroke-width="0.4" d="M -20.18 99.12909446593082L252.18 99.12909446593082"/>
<path stroke="#000000" fill="none" stroke-opacity="0.1" stroke-width="0.4" d="M -20.18 104.66567361113346L252.18 104.66567361113346"/>
<path stroke="#000000" fill="none" stroke-opacity="0.1" stroke-width="0.4" d="M -20.18 110.2022527563361L252.18 110.2022527563361"/>
</g>
</g>
<g transform="matrix(1.0 0.0 0.0 1.0 436.82 350.0)">
<g >
<path stroke="#000000" fill="none" stroke-width="0.8" d="M -40.0 2.1872943035796357L-40.0 2.1998096774261926"/>
<path stroke="#000000" fill="none" stroke-width="0.8" d="M -40.0 2.1872943035796357L-40.0 2.1998096774261926"/>
<path stroke="#000000" fill="none" stroke-width="0.8" d="M -40.0 2.1998096774261926L-40.0 24.00572823179636"/>
<path stroke="#000000" fill="none" stroke-width="0.8" d="M -40.0 2.1998096774261926L-40.0 24.00572823179636"/>
<path stroke="#000000" fill="none" stroke-width="0.8" d="M 56.0 2.1998096774261926L56.0 2.1998096774261926"/>
<path stroke="#000000" fill="none" stroke-width="0.8" d="M 56.4 2.1998096774261926L-40.0 2.1998096774261926"/>
<path stroke="#000000" fill="none" stroke-width="0.8" d="M -24.0 2.1998096774261926L-24.0 24.098817789332735"/>
<path stroke="#000000" fill="none" stroke-width="0.8" d="M -24.4 2.1998096774261926L56.0 2.1998096774261926"/>
<path stroke="#000000" fill="none" stroke-width="0.8" d="M 56.0 2.1998096774261926L56.0 27.011486611804127"/>
<path stroke="#000000" fill="none" stroke-width="0.8" d="M 56.0 2.1998096774261926L56.0 27.011486611804127"/>
<path stroke="#000000" fill="none" stroke-width="0.8" d="M -8.0 27.011486611804127L-8.0 27.129400051350203"/>
<path stroke="#000000" fill="none" stroke-width="0.8" d="M -8.4 27.011486611804127L56.0 27.011486611804127"/>
<path stroke="#000000" fill="none" stroke-width="0.8" d="M -8.0 27.129400051350203L-8.0 70.75323536972857"/>
<path stroke="#000000" fill="none" stroke-width="0.8" d="M -8.0 27.129400051350203L-8.0 70.75323536972857"/>
<path stroke="#000000" fill="none" stroke-width="0.8" d="M 24.0 27.129400051350203L24.0 30.967792807099965"/>
<path stroke="#000000" fill="none" stroke-width="0.8" d="M 24.4 27.129400051350203L-8.0 27.129400051350203"/>
<path stroke="#000000" fill="none" stroke-width="0.8" d="M 8.0 30.967792807099965L8.0 71.8392802076529"/>
<path stroke="#000000" fill="none" stroke-width="0.8" d="M 7.6 30.967792807099965L24.0 30.967792807099965"/>
<path stroke="#000000" fill="none" stroke-width="0.8" d="M 24.0 30.967792807099965L24.0 102.33852224181979"/>
<path stroke="#000000" fill="none" stroke-width="0.8" d="M 24.0 30.967792807099965L24.0 102.33852224181979"/>
<path stroke="#000000" fill="none" stroke-width="0.8" d="M 56.0 27.011486611804127L56.0 30.83333011288076"/>
<path stroke="#000000" fill="none" stroke-width="0.8" d="M 56.0 27.011486611804127L56.0 30.83333011288076"/>
<path stroke="#000000" fill="none" stroke-width="0.8" d="M 40.0 30.83333011288076L40.0 71.69550855768007"/>
<path stroke="#000000" fill="none" stroke-width="0.8" d="M 39.6 30.83333011288076L56.0 30.83333011288076"/>
<path stroke="#000000" fill="none" stroke-width="0.8" d="M 56.0 30.83333011288076L56.0 103.43284170708071"/>
<path stroke="#000000" fill="none" stroke-width="0.8" d="M 56.0 30.83333011288076L56.0 103.43284170708071"/>
<path stroke="#000000" fill="none" stroke-width="0.8" d="M 68.0 2.1872943035796357L68.0 24.32533571267124"/>
<path stroke="#000000" fill="none" stroke-width="0.8" d="M 68.4 2.1872943035796357L-40.0 2.1872943035796357"/>
</g>
</g>
<g transform="matrix(1.0 0.0 0.0 1.0 436.82 350.0)">
<g >
<path stroke="#000000" fill="none" stroke-width="4.0" d="M -40.0 2.1872943035796357L-40.0 -17.139067583324575"/>
<path stroke="#000000" fill="none" stroke-width="4.0" d="M -40.0 2.1998096774261926L-40.0 12.823268036078101L-40.0 2.1998096774261926L-40.0 12.823268036078101L-40.0 2.1872943035796357L-40.0 2.1998096774261926L-40.0 2.1872943035796357L-40.0 -17.139067583324575"/>
<path stroke="#000000" fill="#c64340" stroke-width="0.8" d="M -44.0 -21.139067583324575L-36.0 -21.139067583324575L-36.0 -13.139067583324575L-44.0 -13.139067583324575L-44.0 -21.139067583324575z"/>
<path stroke="#c64340" fill="#c64340" stroke-width="2.4" d="M -40.0 2.1998096774261926L-40.0 12.0232680360781L-40.0 2.1998096774261926L-40.0 12.0232680360781L-40.0 2.1872943035796357L-40.0 2.1998096774261926L-40.0 2.1872943035796357L-40.0 -17.139067583324575"/>
<path stroke="#000000" fill="none" stroke-width="4.0" d="M 56.0 30.83333011288076L56.0 92.37252545654309L56.0 30.83333011288076L56.0 92.37252545654309L56.0 27.011486611804127L56.0 30.83333011288076L56.0 2.1998096774261926L56.0 27.011486611804127L56.0 2.1998096774261926L56.0 2.1998096774261926"/>
<path stroke="#000000" fill="#fb827a" stroke-width="0.8" d="M 52.0 -1.8001903225738083L60.0 -1.8001903225738083L60.0 6.199809677426192L52.0 6.199809677426192L52.0 -1.8001903225738083z"/>
<path stroke="#fb827a" fill="#fb827a" stroke-width="2.4" d="M 56.0 30.83333011288076L56.0 91.57252545654309L56.0 30.83333011288076L56.0 91.57252545654309L56.0 27.011486611804127L56.0 30.83333011288076L56.0 2.1998096774261926L56.0 27.011486611804127L56.0 2.1998096774261926L56.0 2.1998096774261926"/>
<path stroke="#000000" fill="none" stroke-width="4.0" d="M -24.0 2.1998096774261926L-24.0 12.865204420908846L-24.0 2.1998096774261926L-24.0 12.865204420908846"/>
<path stroke="#000000" fill="#ffd6d1" stroke-width="0.8" d="M -28.0 -1.8001903225738083L-20.0 -1.8001903225738083L-20.0 6.199809677426192L-28.0 6.199809677426192L-28.0 -1.8001903225738083z"/>
<path stroke="#ffd6d1" fill="#ffd6d1" stroke-width="2.4" d="M -24.0 2.1998096774261926L-24.0 12.065204420908845L-24.0 2.1998096774261926L-24.0 12.065204420908845"/>
<path stroke="#000000" fill="none" stroke-width="4.0" d="M -8.0 27.129400051350203L-8.0 54.92434764935661L-8.0 27.129400051350203L-8.0 54.92434764935661L-8.0 27.011486611804127L-8.0 27.129400051350203"/>
<path stroke="#000000" fill="#ffd6d1" stroke-width="0.8" d="M -12.0 23.011486611804127L-4.0 23.011486611804127L-4.0 31.011486611804127L-12.0 31.011486611804127L-12.0 23.011486611804127z"/>
<path stroke="#ffd6d1" fill="#ffd6d1" stroke-width="2.4" d="M -8.0 27.129400051350203L-8.0 54.124347649356615L-8.0 27.129400051350203L-8.0 54.124347649356615L-8.0 27.011486611804127L-8.0 27.129400051350203"/>
<path stroke="#000000" fill="none" stroke-width="4.0" d="M 24.0 30.967792807099965L24.0 91.83226807394338L24.0 30.967792807099965L24.0 91.83226807394338L24.0 27.129400051350203L24.0 30.967792807099965"/>
<path stroke="#000000" fill="#c64340" stroke-width="0.8" d="M 20.0 23.1294000513502L28.0 23.1294000513502L28.0 31.1294000513502L20.0 31.1294000513502L20.0 23.1294000513502z"/>
<path stroke="#c64340" fill="#c64340" stroke-width="2.4" d="M 24.0 30.967792807099965L24.0 91.03226807394338L24.0 30.967792807099965L24.0 91.03226807394338L24.0 27.129400051350203L24.0 30.967792807099965"/>
<path stroke="#000000" fill="none" stroke-width="4.0" d="M 40.0 30.83333011288076L40.0 61.36966789201689L40.0 30.83333011288076L40.0 61.36966789201689"/>
<path stroke="#000000" fill="#ffd6d1" stroke-width="0.8" d="M 36.0 26.833330112880756L44.0 26.833330112880756L44.0 34.83333011288076L36.0 34.83333011288076L36.0 26.833330112880756z"/>
<path stroke="#ffd6d1" fill="#ffd6d1" stroke-width="2.4" d="M 40.0 30.83333011288076L40.0 60.56966789201689L40.0 30.83333011288076L40.0 60.56966789201689"/>
<path stroke="#000000" fill="none" stroke-width="4.0" d="M 8.0 30.967792807099965L8.0 61.51090492532413L8.0 30.967792807099965L8.0 61.51090492532413"/>
<path stroke="#000000" fill="#fb827a" stroke-width="0.8" d="M 4.0 26.967792807099965L12.0 26.967792807099965L12.0 34.96779280709997L4.0 34.96779280709997L4.0 26.967792807099965z"/>
<path stroke="#fb827a" fill="#fb827a" stroke-width="2.4" d="M 8.0 30.967792807099965L8.0 60.71090492532413L8.0 30.967792807099965L8.0 60.71090492532413"/>
</g>
</g>
<g transform="matrix(1.0 0.0 0.0 1.0 595.1800000000001 350.0)">
<g >
<path stroke="#000000" fill="none" stroke-width="0.8" d="M -56.0 1.9340907070807023L-56.0 23.12861773412032"/>
<path stroke="#000000" fill="none" stroke-width="0.8" d="M -56.4 1.9340907070807023L40.0 1.9340907070807023"/>
<path stroke="#000000" fill="none" stroke-width="0.8" d="M 40.0 1.9340907070807023L40.0 1.9340907070807023"/>
<path stroke="#000000" fill="none" stroke-width="0.8" d="M 40.0 1.9340907070807023L40.0 1.9340907070807023"/>
<path stroke="#000000" fill="none" stroke-width="0.8" d="M -40.0 1.9340907070807023L-40.0 23.169990870803147"/>
<path stroke="#000000" fill="none" stroke-width="0.8" d="M -40.4 1.9340907070807023L40.0 1.9340907070807023"/>
<path stroke="#000000" fill="none" stroke-width="0.8" d="M 40.0 1.9340907070807023L40.0 24.473244676312365"/>
<path stroke="#000000" fill="none" stroke-width="0.8" d="M 40.0 1.9340907070807023L40.0 24.473244676312365"/>
<path stroke="#000000" fill="none" stroke-width="0.8" d="M -24.0 24.473244676312365L-24.0 24.54771632234147"/>
<path stroke="#000000" fill="none" stroke-width="0.8" d="M -24.4 24.473244676312365L40.0 24.473244676312365"/>
<path stroke="#000000" fill="none" stroke-width="0.8" d="M -24.0 24.54771632234147L-24.0 65.47195447216502"/>
<path stroke="#000000" fill="none" stroke-width="0.8" d="M -24.0 24.54771632234147L-24.0 65.47195447216502"/>
<path stroke="#000000" fill="none" stroke-width="0.8" d="M 8.0 24.54771632234147L8.0 29.912777821687744"/>
<path stroke="#000000" fill="none" stroke-width="0.8" d="M 8.4 24.54771632234147L-24.0 24.54771632234147"/>
<path stroke="#000000" fill="none" stroke-width="0.8" d="M -8.0 29.912777821687744L-8.0 72.14957873277415"/>
<path stroke="#000000" fill="none" stroke-width="0.8" d="M -8.4 29.912777821687744L8.0 29.912777821687744"/>
<path stroke="#000000" fill="none" stroke-width="0.8" d="M 8.0 29.912777821687744L8.0 102.77294017698954"/>
<path stroke="#000000" fill="none" stroke-width="0.8" d="M 8.0 29.912777821687744L8.0 102.77294017698954"/>
<path stroke="#000000" fill="none" stroke-width="0.8" d="M 40.0 24.473244676312365L40.0 29.97070021304371"/>
<path stroke="#000000" fill="none" stroke-width="0.8" d="M 40.0 24.473244676312365L40.0 29.97070021304371"/>
<path stroke="#000000" fill="none" stroke-width="0.8" d="M 24.0 29.97070021304371L24.0 72.09165634141819"/>
<path stroke="#000000" fill="none" stroke-width="0.8" d="M 23.6 29.97070021304371L40.0 29.97070021304371"/>
<path stroke="#000000" fill="none" stroke-width="0.8" d="M 40.0 29.97070021304371L40.0 103.43284170708071"/>
<path stroke="#000000" fill="none" stroke-width="0.8" d="M 40.0 29.97070021304371L40.0 103.43284170708071"/>
</g>
</g>
<g transform="matrix(1.0 0.0 0.0 1.0 595.1800000000001 350.0)">
<g >
<path stroke="#000000" fill="none" stroke-width="4.0" d="M 40.0 1.9340907070807023L40.0 -16.88586398682564"/>
<path stroke="#000000" fill="none" stroke-width="4.0" d="M 40.0 29.97070021304371L40.0 92.59527473772832L40.0 29.97070021304371L40.0 92.59527473772832L40.0 24.473244676312365L40.0 29.97070021304371L40.0 1.9340907070807023L40.0 24.473244676312365L40.0 1.9340907070807023L40.0 1.9340907070807023L40.0 -17.139067583324575"/>
<path stroke="#000000" fill="#3077cb" stroke-width="0.8" d="M 36.0 -21.139067583324575L44.0 -21.139067583324575L44.0 -13.139067583324575L36.0 -13.139067583324575L36.0 -21.139067583324575z"/>
<path stroke="#3077cb" fill="#3077cb" stroke-width="2.4" d="M 40.0 29.97070021304371L40.0 91.79527473772832L40.0 29.97070021304371L40.0 91.79527473772832L40.0 24.473244676312365L40.0 29.97070021304371L40.0 1.9340907070807023L40.0 24.473244676312365L40.0 1.9340907070807023L40.0 1.9340907070807023L40.0 -17.139067583324575"/>
<path stroke="#000000" fill="none" stroke-width="4.0" d="M -56.0 1.9340907070807023L-56.0 13.646124423972386L-56.0 1.9340907070807023L-56.0 13.646124423972386"/>
<path stroke="#000000" fill="#75aef7" stroke-width="0.8" d="M -60.0 -2.0659092929192973L-52.0 -2.0659092929192973L-52.0 5.934090707080703L-60.0 5.934090707080703L-60.0 -2.0659092929192973z"/>
<path stroke="#75aef7" fill="#75aef7" stroke-width="2.4" d="M -56.0 1.9340907070807023L-56.0 12.846124423972386L-56.0 1.9340907070807023L-56.0 12.846124423972386"/>
<path stroke="#000000" fill="none" stroke-width="4.0" d="M -40.0 1.9340907070807023L-40.0 13.667425444838793L-40.0 1.9340907070807023L-40.0 13.667425444838793"/>
<path stroke="#000000" fill="#d0e4fe" stroke-width="0.8" d="M -44.0 -2.0659092929192973L-36.0 -2.0659092929192973L-36.0 5.934090707080703L-44.0 5.934090707080703L-44.0 -2.0659092929192973z"/>
<path stroke="#d0e4fe" fill="#d0e4fe" stroke-width="2.4" d="M -40.0 1.9340907070807023L-40.0 12.867425444838794L-40.0 1.9340907070807023L-40.0 12.867425444838794"/>
<path stroke="#000000" fill="none" stroke-width="4.0" d="M -24.0 24.54771632234147L-24.0 59.991502082835666L-24.0 24.54771632234147L-24.0 59.991502082835666L-24.0 24.473244676312365L-24.0 24.54771632234147"/>
<path stroke="#000000" fill="#75aef7" stroke-width="0.8" d="M -28.0 20.473244676312365L-20.0 20.473244676312365L-20.0 28.473244676312365L-28.0 28.473244676312365L-28.0 20.473244676312365z"/>
<path stroke="#75aef7" fill="#75aef7" stroke-width="2.4" d="M -24.0 24.54771632234147L-24.0 59.19150208283567L-24.0 24.54771632234147L-24.0 59.19150208283567L-24.0 24.473244676312365L-24.0 24.54771632234147"/>
<path stroke="#000000" fill="none" stroke-width="4.0" d="M 8.0 29.912777821687744L8.0 91.3093484934239L8.0 29.912777821687744L8.0 91.3093484934239L8.0 24.54771632234147L8.0 29.912777821687744"/>
<path stroke="#000000" fill="#d0e4fe" stroke-width="0.8" d="M 4.0 20.54771632234147L12.0 20.54771632234147L12.0 28.54771632234147L4.0 28.54771632234147L4.0 20.54771632234147z"/>
<path stroke="#d0e4fe" fill="#d0e4fe" stroke-width="2.4" d="M 8.0 29.912777821687744L8.0 90.5093484934239L8.0 29.912777821687744L8.0 90.5093484934239L8.0 24.54771632234147L8.0 29.912777821687744"/>
<path stroke="#000000" fill="none" stroke-width="4.0" d="M 24.0 29.97070021304371L24.0 61.214559592957926L24.0 29.97070021304371L24.0 61.214559592957926"/>
<path stroke="#000000" fill="#75aef7" stroke-width="0.8" d="M 20.0 25.97070021304371L28.0 25.97070021304371L28.0 33.97070021304371L20.0 33.97070021304371L20.0 25.97070021304371z"/>
<path stroke="#75aef7" fill="#75aef7" stroke-width="2.4" d="M 24.0 29.97070021304371L24.0 60.41455959295793L24.0 29.97070021304371L24.0 60.41455959295793"/>
<path stroke="#000000" fill="none" stroke-width="4.0" d="M -8.0 29.912777821687744L-8.0 61.240366599007615L-8.0 29.912777821687744L-8.0 61.240366599007615"/>
<path stroke="#000000" fill="#3077cb" stroke-width="0.8" d="M -12.0 25.912777821687744L-4.0 25.912777821687744L-4.0 33.91277782168774L-12.0 33.91277782168774L-12.0 25.912777821687744z"/>
<path stroke="#3077cb" fill="#3077cb" stroke-width="2.4" d="M -8.0 29.912777821687744L-8.0 60.44036659900762L-8.0 29.912777821687744L-8.0 60.44036659900762"/>
</g>
</g>
</g>
</svg>