<?xml version="1.0" encoding="utf-8"?>
<svg version="1.2" baseProfile="tiny" id="openrndr-svg" xmlns="http://www.w3.org/2000/svg" xmlns:xlink="http://www.w3.org/1999/xlink" y="0.0" height="576.0" x="0.0" width="768.0" ><g >
<g transform="matrix(1.0 0.0 0.0 1.0 529.0 350.0)">
<g >
<path fill="#3077cb" d="M -88.0 91.76547545088408L-88.0 94.5725384894206L-88.0 94.7124159000616L-88.0 110.84135732705239L-88.0 120.49976916764301L-96.0 120.49976916764301L-96.0 110.84135732705239L-96.0 94.7124159000616L-96.0 94.5725384894206L-96.0 91.76547545088408L-88.0 91.76547545088408z"/>
<path fill="#75aef7" d="M -96.0 91.37005277080274L-88.0 91.37005277080274L-88.0 91.76557545088409L-96.0 91.76557545088409L-96.0 92.37005277080274L-120.0 92.37005277080274L-120.0 99.66744980784812L-128.0 99.66744980784812L-128.0 92.42475888186867L-128.0 91.76557545088409L-128.0 91.37005277080274L-120.0 91.37005277080274L-96.0 91.37005277080274z"/>
<path fill="#3077cb" d="M -16.0 59.40293016977079L-16.0 65.65826373980016L-16.0 65.79814115044118L-16.0 76.04550645499779L-16.0 77.58953787245821L-16.0 111.9899660644315L-16.0 134.48751023174444L-32.0 134.48751023174444L-32.0 111.98996606443148L-32.0 77.58953787245821L-32.0 76.04550645499779L-32.0 65.79814115044118L-32.0 65.65826373980015L-32.0 59.396790468542974L-32.0 59.386790468542976L-40.0 59.386790468542976L-40.0 57.96356117944207L-32.0 57.96356117944207L-16.0 57.96356117944207L-16.0 59.396790468542974L-16.0 59.40293016977079z"/>
<path fill="#d0e4fe" d="M -40.0 59.386790468542976L-40.0 61.95165798866233L-56.0 61.95165798866234L-56.0 61.96165798866234L-56.0 66.05710717521896L-56.0 66.39800004607477L-56.0 66.52577268079492L-56.0 67.05642367624083L-56.0 68.07187987849049L-56.0 69.37112582732914L-56.0 70.7860396349671L-56.0 85.35749989347428L-56.0 91.37015277080275L-56.0 108.99350716731726L-64.0 108.99350716731726L-64.0 91.37015277080275L-64.0 70.77603963496709L-80.0 70.77603963496709L-80.0 69.36112582732913L-88.0 69.36112582732913L-88.0 91.37015277080275L-96.0 91.37015277080275L-96.0 66.04710717521895L-104.0 66.04710717521895L-104.0 68.06187987849049L-112.0 68.06187987849049L-112.0 85.34749989347428L-120.0 85.34749989347428L-120.0 91.37015277080275L-128.0 91.37015277080275L-128.0 67.05642367624083L-128.0 66.52577268079492L-128.0 66.39800004607477L-128.0 57.96366117944207L-128.0 56.03300773764705L-128.0 55.59992575470083L-128.0 47.41357647686404L-120.0 47.41357647686404L-112.0 47.41357647686404L-104.0 47.41357647686404L-96.0 47.41357647686404L-88.0 47.41357647686404L-80.0 47.41357647686404L-64.0 47.41357647686404L-56.0 47.41357647686404L-40.0 47.41357647686404L-32.0 47.41357647686404L-16.0 47.41357647686404L-16.0 57.96366117944207L-32.0 57.96366117944207L-40.0 57.96366117944207L-40.0 59.386790468542976z"/>
<path fill="#75aef7" d="M 56.0 29.81213294368469L56.0 70.79352431129719L48.0 70.7935243112972L48.0 69.36112582732913L40.0 69.36112582732913L40.0 70.80352431129721L40.0 74.69246150206644L40.0 76.18538386563881L40.0 85.39112427103221L40.0 91.56113923533184L40.0 92.14889335504455L40.0 99.76083826419179L40.0 108.9362584122014L40.0 120.6167820015446L24.0 120.6167820015446L24.0 108.9362584122014L24.0 99.75083826419178L16.0 99.75083826419178L16.0 85.3811242710322L8.0 85.3811242710322L8.0 108.92625841220139L0.0 108.92625841220139L0.0 92.14889335504455L0.0 91.56113923533184L0.0 76.18538386563881L0.0 74.69246150206644L-1.4210854715202004E-14 62.043701469903695L0.0 62.033701469903704L-8.0 62.033701469903704L-8.000000000000002 59.41293016977079L-8.0 59.40293016977079L-16.0 59.40293016977079L-16.0 51.63628412817132L-16.0 48.073445082132416L-16.0 47.41367647686404L-32.0 47.41367647686404L-56.0 47.41367647686404L-80.0 47.41367647686404L-80.0 21.679653674254883L-56.0 21.679653674254883L-32.000000000000014 21.679653674254883L-16.0 21.679653674254883L-8.0 21.679653674254883L0.0 21.679653674254883L8.0 21.679653674254883L16.0 21.679653674254883L24.0 21.679653674254883L40.0 21.679653674254883L48.0 21.679653674254883L56.0 21.679653674254883L56.0 29.81213294368469z"/>
<path fill="#3077cb" stroke-width="224.0" d="M 56.0 29.822132943684693L40.0 29.822132943684693L40.0 33.45222074483947L40.0 44.242897673150665L40.0 44.24451164327345L40.0 47.41367647686404L-8.0 47.41367647686404L-16.0 47.41367647686404L-40.0 47.41367647686404L-64.0 47.41367647686404L-80.0 47.41367647686404L-128.0 47.41367647686404L-128.0 74.2580345440179L-128.0 76.15982933869478L-128.0 91.54903445941098L-128.0 91.77768022680493L-128.0 92.42475888186867L-144.0 92.42475888186867L-144.0 91.77768022680493L-144.0 91.54903445941098L-144.0 76.15982933869478L-144.0 74.2580345440179L-144.0 47.41367647686404L-144.0 44.24451164327345L-144.0 44.242897673150665L-144.0 35.45085374688319L-144.0 33.45222074483947L-144.0 29.822132943684693L-144.0 26.05889260740048L-144.0 22.12887535842891L-144.0 21.679653674254883L-144.0 -1.5030977682555857L64.0 -1.5030977682555857L64.0 21.679653674254883L64.0 29.81213294368469L56.0 29.81213294368469L56.0 29.822132943684693z"/>
</g>
</g>
<g transform="matrix(1.0 0.0 0.0 1.0 835.0 350.0)">
<g >
<path fill="#fb827a" d="M -52.0 73.19674918828942L-52.0 80.65219181128407L-68.0 80.65219181128408L-68.0 73.19674918828943L-52.0 73.19674918828942z"/>
<path fill="#ffd6d1" d="M -12.0 63.80478804880673L-12.0 74.24397062302525L-12.0 133.84999203324597L-28.0 133.84999203324597L-28.0 133.85999203324596L-28.0 134.48751023174444L-36.0 134.48751023174444L-36.0 133.85999203324596L-36.0 74.24397062302522L-36.0 63.80478804880673L-28.0 63.80478804880673L-12.0 63.80478804880673z"/>
<path fill="#ffd6d1" d="M -36.0 59.42554911566113L-12.0 59.42554911566113L-12.0 63.80488804880673L-28.0 63.80488804880673L-36.0 63.80488804880673L-36.0 60.42554911566113L-52.0 60.42554911566113L-52.0 63.80488804880672L-52.0 73.19684918828943L-68.0 73.19684918828943L-68.0 69.27101249547385L-76.0 69.27101249547385L-76.0 69.5897715947231L-84.0 69.5897715947231L-84.0 73.19684918828943L-84.0 84.39122259572657L-100.0 84.39122259572657L-100.0 84.40122259572658L-100.0 84.45233164961464L-100.0 87.01930394565485L-108.0 87.01930394565487L-108.0 84.45233164961464L-108.0 84.44233164961463L-116.0 84.44233164961463L-116.0 80.08788744259454L-116.0 80.07788744259453L-132.0 80.07788744259453L-132.0 73.19684918828943L-132.0 63.80488804880673L-132.0 59.42554911566113L-116.0 59.42554911566113L-108.0 59.42554911566113L-100.0 59.42554911566113L-84.0 59.42554911566113L-76.0 59.42554911566113L-68.0 59.42554911566113L-52.0 59.42554911566113L-36.0 59.42554911566113z"/>
<path fill="#fb827a" d="M -12.000000000000002 60.42554911566113L-12.0 63.80488804880673L-28.0 63.80488804880673L-36.0 63.80488804880673L-36.0 60.42554911566113L-52.0 60.42554911566113L-52.0 63.80488804880673L-68.0 63.80488804880673L-76.0 63.80488804880673L-84.0 63.80488804880673L-100.0 63.80488804880673L-132.0 63.80488804880673L-132.0 59.874870799835165L-132.0 59.42554911566113L-100.0 59.42554911566113L-84.0 59.42554911566113L-76.0 59.42554911566113L-68.0 59.42554911566113L-52.0 59.42554911566113L-36.0 59.42554911566113L-28.0 59.42554911566113L-12.000000000000002 59.42554911566113L12.0 59.42554911566113L20.0 59.42554911566113L36.0 59.42554911566113L44.0 59.42554911566113L52.0 59.42554911566113L60.0 59.42554911566113L60.0 59.874870799835165L60.0 60.77211482392994L52.0 60.77211482392994L52.0 60.78211482392993L52.0 63.29932304118442L44.0 63.29932304118442L44.0 63.30932304118442L44.0 127.59720278257214L36.0 127.59720278257215L36.0 127.60720278257216L36.0 128.49026625051096L20.0 128.49026625051096L20.0 127.60720278257216L20.0 113.63425644459623L20.0 101.85557866846955L20.0 98.10847803341315L20.0 95.87251524339206L20.0 95.86251524339205L12.0 95.86251524339205L12.0 91.46430102796498L12.0 63.80488804880673L12.0 60.42554911566113L-12.000000000000002 60.42554911566113z"/>
<path fill="#c64340" stroke-width="328.0" d="M 12.0 39.39566572198026L12.0 39.38566572198026L4.0 39.38566572198026L4.0 52.19789854665623L-4.0 52.19789854665624L-4.0 52.14678949276818L-12.0 52.14678949276818L-12.0 59.425649115661116L-28.0 59.42564911566112L-28.0 39.91886103678175L-36.0 39.91886103678175L-36.0 39.90886103678175L-44.0 39.90886103678175L-44.0 41.440787678321314L-52.0 41.44078767832132L-52.0 59.42564911566113L-68.0 59.42564911566113L-76.0 59.42564911566113L-84.0 59.42564911566113L-116.0 59.42564911566113L-132.0 59.425649115661116L-132.0 41.22424668684821L-140.0 41.22424668684821L-140.0 46.81261823697719L-148.0 46.81261823697719L-148.0 50.94707170150101L-156.0 50.94707170150101L-156.0 59.425649115661116L-156.0 85.97080854013103L-156.0 96.2202786206085L-172.0 96.2202786206085L-172.0 96.2302786206085L-172.0 114.39089225291717L-180.0 114.39089225291717L-180.0 114.40089225291717L-180.0 129.0013567893916L-188.0 129.0013567893916L-188.0 114.40089225291717L-188.0 104.77894037093817L-188.0 96.23027862060849L-188.0 85.97080854013103L-188.0 63.28376851424038L-188.0 63.27376851424039L-196.0 63.27376851424039L-196.0 60.74445552106505L-196.0 60.73445552106505L-204.0 60.73445552106505L-204.0 59.42564911566113L-204.0 48.94095402312716L-204.0 48.930954023127164L-212.0 48.930954023127164L-212.0 6.496902231744414L-212.0 -1.5030977682555857L100.0 -1.5030977682555857L100.0 6.496902231744414L100.0 49.13539023867941L92.0 49.13539023867941L92.0 49.14539023867941L92.0 52.121234965824144L84.0 52.121234965824144L84.0 52.13123496582414L84.0 52.23555784952113L76.0 52.23555784952113L76.0 47.04260897947347L68.0 47.04260897947347L68.0 51.04928980927714L60.0 51.04928980927714L60.0 52.24555784952113L60.0 59.42564911566113L52.0 59.42564911566113L36.0 59.42564911566113L20.0 59.42564911566113L20.0 39.39566572198026L12.0 39.39566572198026z"/>
</g>
</g>
<g transform="matrix(1.0 0.0 0.0 1.0 400.0 350.0)">
<g >
<path fill="none" stroke-width="0.4" stroke="#000000" stroke-opacity="0.1" d="M -43.0 -58.12194093036496L555.5 -58.12194093036496"/>
<path fill="none" stroke-width="0.4" stroke="#000000" stroke-opacity="0.1" d="M -43.0 -39.24899320966183L555.5 -39.24899320966183"/>
<path fill="none" stroke-width="0.4" stroke="#000000" stroke-opacity="0.1" d="M -43.0 -20.37604548895871L555.5 -20.37604548895871"/>
<path fill="none" stroke-width="0.4" stroke="#000000" stroke-opacity="0.1" d="M -43.0 -1.5030977682555857L555.5 -1.5030977682555857"/>
<path fill="none" stroke-width="0.4" stroke="#000000" stroke-opacity="0.1" d="M -43.0 17.369849952447538L555.5 17.369849952447538"/>
<path fill="none" stroke-width="0.4" stroke="#000000" stroke-opacity="0.1" d="M -43.0 36.24279767315066L555.5 36.24279767315066"/>
<path fill="none" stroke-width="0.4" stroke="#000000" stroke-opacity="0.1" d="M -43.0 55.115745393853786L555.5 55.115745393853786"/>
<path fill="none" stroke-width="0.4" stroke="#000000" stroke-opacity="0.1" d="M -43.0 73.98869311455691L555.5 73.98869311455691"/>
<path fill="none" stroke-width="0.4" stroke="#000000" stroke-opacity="0.1" d="M -43.0 92.86164083526003L555.5 92.86164083526003"/>
<path fill="none" stroke-width="0.4" stroke="#000000" stroke-opacity="0.1" d="M -43.0 111.73458855596316L555.5 111.73458855596316"/>
<path fill="none" stroke-width="0.4" stroke="#000000" stroke-opacity="0.1" d="M -43.0 130.60753627666628L555.5 130.60753627666628"/>
<path fill="none" stroke-width="0.4" stroke="#000000" stroke-opacity="0.1" d="M -43.0 149.4804839973694L555.5 149.4804839973694"/>
</g>
</g>
<g transform="matrix(1.0 0.0 0.0 1.0 529.0 350.0)">
<g >
<path fill="none" stroke-width="0.8" stroke="#000000" d="M -136.0 21.679653674254883L-136.0 92.43475888186867"/>
<path fill="none" stroke-width="0.8" stroke="#000000" d="M -136.0 21.679653674254883L-136.0 92.43475888186867"/>
<path fill="none" stroke-width="0.8" stroke="#000000" d="M 32.0 21.679653674254883L32.0 22.12887535842891"/>
<path fill="none" stroke-width="0.8" stroke="#000000" d="M 32.4 21.679653674254883L-136.0 21.679653674254883"/>
<path fill="none" stroke-width="0.8" stroke="#000000" d="M 32.0 22.12887535842891L32.0 26.058892607400484"/>
<path fill="none" stroke-width="0.8" stroke="#000000" d="M 32.0 22.12887535842891L32.0 26.058892607400484"/>
<path fill="none" stroke-width="0.8" stroke="#000000" d="M -72.0 26.058892607400484L-72.0 26.058892607400484"/>
<path fill="none" stroke-width="0.8" stroke="#000000" d="M -72.4 26.058892607400484L32.0 26.058892607400484"/>
<path fill="none" stroke-width="0.8" stroke="#000000" d="M -72.0 26.058892607400484L-72.0 35.45085374688319"/>
<path fill="none" stroke-width="0.8" stroke="#000000" d="M -72.0 26.058892607400484L-72.0 35.45085374688319"/>
<path fill="none" stroke-width="0.8" stroke="#000000" d="M -72.0 35.45085374688319L-72.0 53.71830558655872"/>
<path fill="none" stroke-width="0.8" stroke="#000000" d="M -72.0 35.45085374688319L-72.0 53.71830558655872"/>
<path fill="none" stroke-width="0.8" stroke="#000000" d="M -124.0 53.71830558655872L-124.0 55.59992575470083"/>
<path fill="none" stroke-width="0.8" stroke="#000000" d="M -124.4 53.71830558655872L-72.0 53.71830558655872"/>
<path fill="none" stroke-width="0.8" stroke="#000000" d="M -124.0 55.59992575470083L-124.0 56.03300773764705"/>
<path fill="none" stroke-width="0.8" stroke="#000000" d="M -124.0 55.59992575470083L-124.0 56.03300773764705"/>
<path fill="none" stroke-width="0.8" stroke="#000000" d="M -124.0 56.03300773764705L-124.0 67.05642367624083"/>
<path fill="none" stroke-width="0.8" stroke="#000000" d="M -124.0 56.03300773764705L-124.0 67.05642367624083"/>
<path fill="none" stroke-width="0.8" stroke="#000000" d="M -124.0 67.05642367624083L-124.0 99.67744980784812"/>
<path fill="none" stroke-width="0.8" stroke="#000000" d="M -124.0 67.05642367624083L-124.0 99.67744980784812"/>
<path fill="none" stroke-width="0.8" stroke="#000000" d="M -116.0 67.05642367624083L-116.0 85.35749989347428"/>
<path fill="none" stroke-width="0.8" stroke="#000000" d="M -115.6 67.05642367624083L-124.0 67.05642367624083"/>
<path fill="none" stroke-width="0.8" stroke="#000000" d="M -108.0 56.03300773764705L-108.0 58.830555950467335"/>
<path fill="none" stroke-width="0.8" stroke="#000000" d="M -107.6 56.03300773764705L-124.0 56.03300773764705"/>
<path fill="none" stroke-width="0.8" stroke="#000000" d="M -108.0 58.830555950467335L-108.0 68.07187987849049"/>
<path fill="none" stroke-width="0.8" stroke="#000000" d="M -108.0 58.830555950467335L-108.0 68.07187987849049"/>
<path fill="none" stroke-width="0.8" stroke="#000000" d="M -100.0 58.830555950467335L-100.0 66.05710717521896"/>
<path fill="none" stroke-width="0.8" stroke="#000000" d="M -99.6 58.830555950467335L-108.0 58.830555950467335"/>
<path fill="none" stroke-width="0.8" stroke="#000000" d="M -92.0 55.59992575470083L-92.0 60.3624825920069"/>
<path fill="none" stroke-width="0.8" stroke="#000000" d="M -91.6 55.59992575470083L-124.0 55.59992575470083"/>
<path fill="none" stroke-width="0.8" stroke="#000000" d="M -92.0 60.3624825920069L-92.0 120.50976916764301"/>
<path fill="none" stroke-width="0.8" stroke="#000000" d="M -92.0 60.3624825920069L-92.0 120.50976916764301"/>
<path fill="none" stroke-width="0.8" stroke="#000000" d="M -84.0 60.3624825920069L-84.0 69.37112582732914"/>
<path fill="none" stroke-width="0.8" stroke="#000000" d="M -83.6 60.3624825920069L-92.0 60.3624825920069"/>
<path fill="none" stroke-width="0.8" stroke="#000000" d="M -72.0 53.71830558655872L-72.0 70.7860396349671"/>
<path fill="none" stroke-width="0.8" stroke="#000000" d="M -72.0 53.71830558655872L-72.0 70.7860396349671"/>
<path fill="none" stroke-width="0.8" stroke="#000000" d="M -48.0 35.45085374688319L-48.0 48.02368100334667"/>
<path fill="none" stroke-width="0.8" stroke="#000000" d="M -47.6 35.45085374688319L-72.0 35.45085374688319"/>
<path fill="none" stroke-width="0.8" stroke="#000000" d="M -60.0 48.02368100334667L-60.0 109.00350716731727"/>
<path fill="none" stroke-width="0.8" stroke="#000000" d="M -60.4 48.02368100334667L-48.0 48.02368100334667"/>
<path fill="none" stroke-width="0.8" stroke="#000000" d="M -48.0 48.02368100334667L-48.0 52.536072471621694"/>
<path fill="none" stroke-width="0.8" stroke="#000000" d="M -48.0 48.02368100334667L-48.0 52.536072471621694"/>
<path fill="none" stroke-width="0.8" stroke="#000000" d="M -48.0 52.536072471621694L-48.0 61.96165798866234"/>
<path fill="none" stroke-width="0.8" stroke="#000000" d="M -48.0 52.536072471621694L-48.0 61.96165798866234"/>
<path fill="none" stroke-width="0.8" stroke="#000000" d="M -36.0 52.536072471621694L-36.0 59.396790468542974"/>
<path fill="none" stroke-width="0.8" stroke="#000000" d="M -35.6 52.536072471621694L-48.0 52.536072471621694"/>
<path fill="none" stroke-width="0.8" stroke="#000000" d="M -24.0 26.058892607400484L-24.0 134.49751023174443"/>
<path fill="none" stroke-width="0.8" stroke="#000000" d="M -23.6 26.058892607400484L-72.0 26.058892607400484"/>
<path fill="none" stroke-width="0.8" stroke="#000000" d="M 32.0 26.058892607400484L32.0 33.45222074483947"/>
<path fill="none" stroke-width="0.8" stroke="#000000" d="M 32.0 26.058892607400484L32.0 33.45222074483947"/>
<path fill="none" stroke-width="0.8" stroke="#000000" d="M -12.0 33.45222074483947L-12.0 48.073445082132416"/>
<path fill="none" stroke-width="0.8" stroke="#000000" d="M -12.4 33.45222074483947L32.0 33.45222074483947"/>
<path fill="none" stroke-width="0.8" stroke="#000000" d="M -12.0 48.073445082132416L-12.0 51.63628412817132"/>
<path fill="none" stroke-width="0.8" stroke="#000000" d="M -12.0 48.073445082132416L-12.0 51.63628412817132"/>
<path fill="none" stroke-width="0.8" stroke="#000000" d="M -12.0 51.63628412817132L-12.0 59.41293016977079"/>
<path fill="none" stroke-width="0.8" stroke="#000000" d="M -12.0 51.63628412817132L-12.0 59.41293016977079"/>
<path fill="none" stroke-width="0.8" stroke="#000000" d="M -4.0 51.63628412817132L-4.0 62.0437014699037"/>
<path fill="none" stroke-width="0.8" stroke="#000000" d="M -3.6 51.63628412817132L-12.0 51.63628412817132"/>
<path fill="none" stroke-width="0.8" stroke="#000000" d="M 4.0 48.073445082132416L4.0 108.9362584122014"/>
<path fill="none" stroke-width="0.8" stroke="#000000" d="M 4.4 48.073445082132416L-12.0 48.073445082132416"/>
<path fill="none" stroke-width="0.8" stroke="#000000" d="M 32.0 33.45222074483947L32.0 53.71830558655872"/>
<path fill="none" stroke-width="0.8" stroke="#000000" d="M 32.0 33.45222074483947L32.0 53.71830558655872"/>
<path fill="none" stroke-width="0.8" stroke="#000000" d="M 32.0 53.71830558655872L32.0 60.3624825920069"/>
<path fill="none" stroke-width="0.8" stroke="#000000" d="M 32.0 53.71830558655872L32.0 60.3624825920069"/>
<path fill="none" stroke-width="0.8" stroke="#000000" d="M 32.0 60.3624825920069L32.0 64.1095832270633"/>
<path fill="none" stroke-width="0.8" stroke="#000000" d="M 32.0 60.3624825920069L32.0 64.1095832270633"/>
<path fill="none" stroke-width="0.8" stroke="#000000" d="M 12.0 64.1095832270633L12.0 67.27296466771392"/>
<path fill="none" stroke-width="0.8" stroke="#000000" d="M 11.6 64.1095832270633L32.0 64.1095832270633"/>
<path fill="none" stroke-width="0.8" stroke="#000000" d="M 12.0 67.27296466771392L12.0 85.39112427103221"/>
<path fill="none" stroke-width="0.8" stroke="#000000" d="M 12.0 67.27296466771392L12.0 85.39112427103221"/>
<path fill="none" stroke-width="0.8" stroke="#000000" d="M 20.0 67.27296466771392L20.0 99.76083826419179"/>
<path fill="none" stroke-width="0.8" stroke="#000000" d="M 20.4 67.27296466771392L12.0 67.27296466771392"/>
<path fill="none" stroke-width="0.8" stroke="#000000" d="M 32.0 64.1095832270633L32.0 120.62678200154461"/>
<path fill="none" stroke-width="0.8" stroke="#000000" d="M 32.0 64.1095832270633L32.0 120.62678200154461"/>
<path fill="none" stroke-width="0.8" stroke="#000000" d="M 44.0 60.3624825920069L44.0 69.37112582732914"/>
<path fill="none" stroke-width="0.8" stroke="#000000" d="M 44.4 60.3624825920069L32.0 60.3624825920069"/>
<path fill="none" stroke-width="0.8" stroke="#000000" d="M 52.0 53.71830558655872L52.0 70.80352431129721"/>
<path fill="none" stroke-width="0.8" stroke="#000000" d="M 52.4 53.71830558655872L32.0 53.71830558655872"/>
<path fill="none" stroke-width="0.8" stroke="#000000" d="M 60.0 22.12887535842891L60.0 29.822132943684693"/>
<path fill="none" stroke-width="0.8" stroke="#000000" d="M 60.4 22.12887535842891L32.0 22.12887535842891"/>
</g>
</g>
<g transform="matrix(1.0 0.0 0.0 1.0 529.0 350.0)">
<g >
<path fill="none" stroke-width="4.0" stroke="#000000" d="M -136.0 21.679653674254883L-136.0 -39.24899320966183"/>
<path fill="none" stroke-width="4.0" stroke="#000000" d="M -136.0 21.679653674254883L-136.0 91.13312209352371L-136.0 21.679653674254883L-136.0 91.13312209352371L-136.0 21.679653674254883L-136.0 -39.24899320966183"/>
<path fill="#c64340" stroke-width="0.8" stroke="#000000" d="M -140.0 -43.24899320966183L-132.0 -43.24899320966183L-132.0 -35.24899320966183L-140.0 -35.24899320966183L-140.0 -43.24899320966183z"/>
<path fill="#c64340" stroke-width="2.4" stroke="#c64340" d="M -136.0 21.679653674254883L-136.0 90.33312209352371L-136.0 21.679653674254883L-136.0 90.33312209352371L-136.0 21.679653674254883L-136.0 -39.24899320966183"/>
<path fill="none" stroke-width="4.0" stroke="#000000" d="M 32.0 64.1095832270633L32.0 91.20966582508926L32.0 64.1095832270633L32.0 91.20966582508926L32.0 60.3624825920069L32.0 64.1095832270633L32.0 53.71830558655872L32.0 60.3624825920069L32.0 33.45222074483947L32.0 53.71830558655872L32.0 26.058892607400484L32.0 33.45222074483947L32.0 22.12887535842891L32.0 26.058892607400484L32.0 21.679653674254883L32.0 22.12887535842891"/>
<path fill="#fb827a" stroke-width="0.8" stroke="#000000" d="M 28.0 17.67965367425488L36.0 17.67965367425488L36.0 25.67965367425488L28.0 25.67965367425488L28.0 17.67965367425488z"/>
<path fill="#fb827a" stroke-width="2.4" stroke="#fb827a" d="M 32.0 64.1095832270633L32.0 90.40966582508926L32.0 64.1095832270633L32.0 90.40966582508926L32.0 60.3624825920069L32.0 64.1095832270633L32.0 53.71830558655872L32.0 60.3624825920069L32.0 33.45222074483947L32.0 53.71830558655872L32.0 26.058892607400484L32.0 33.45222074483947L32.0 22.12887535842891L32.0 26.058892607400484L32.0 21.679653674254883L32.0 22.12887535842891"/>
<path fill="none" stroke-width="4.0" stroke="#000000" d="M -72.0 35.45085374688319L-72.0 49.90622616169014L-72.0 35.45085374688319L-72.0 49.90622616169014L-72.0 26.058892607400484L-72.0 35.45085374688319L-72.0 26.058892607400484L-72.0 26.058892607400484"/>
<path fill="#ffd6d1" stroke-width="0.8" stroke="#000000" d="M -76.0 22.05889260740048L-68.0 22.05889260740048L-68.0 30.05889260740048L-76.0 30.05889260740048L-76.0 22.05889260740048z"/>
<path fill="#ffd6d1" stroke-width="2.4" stroke="#ffd6d1" d="M -72.0 35.45085374688319L-72.0 49.106226161690145L-72.0 35.45085374688319L-72.0 49.106226161690145L-72.0 26.058892607400484L-72.0 35.45085374688319L-72.0 26.058892607400484L-72.0 26.058892607400484"/>
<path fill="none" stroke-width="4.0" stroke="#000000" d="M -24.0 26.058892607400484L-24.0 97.1829466113067L-24.0 26.058892607400484L-24.0 97.1829466113067"/>
<path fill="#ffd6d1" stroke-width="0.8" stroke="#000000" d="M -28.0 22.05889260740048L-20.0 22.05889260740048L-20.0 30.05889260740048L-28.0 30.05889260740048L-28.0 22.05889260740048z"/>
<path fill="#ffd6d1" stroke-width="2.4" stroke="#ffd6d1" d="M -24.0 26.058892607400484L-24.0 96.3829466113067L-24.0 26.058892607400484L-24.0 96.3829466113067"/>
<path fill="none" stroke-width="4.0" stroke="#000000" d="M -48.0 35.45085374688319L-48.0 43.657618318760186L-48.0 35.45085374688319L-48.0 43.657618318760186"/>
<path fill="#fb827a" stroke-width="0.8" stroke="#000000" d="M -52.0 31.450853746883183L-44.0 31.450853746883183L-44.0 39.45085374688318L-52.0 39.45085374688318L-52.0 31.450853746883183z"/>
<path fill="#fb827a" stroke-width="2.4" stroke="#fb827a" d="M -48.0 35.45085374688319L-48.0 42.85761831876019L-48.0 35.45085374688319L-48.0 42.85761831876019"/>
</g>
</g>
<g transform="matrix(1.0 0.0 0.0 1.0 835.0 350.0)">
<g >
<path fill="none" stroke-width="0.8" stroke="#000000" d="M -164.0 6.496902231744414L-164.0 6.498516201867195"/>
<path fill="none" stroke-width="0.8" stroke="#000000" d="M -164.0 6.496902231744414L-164.0 6.498516201867195"/>
<path fill="none" stroke-width="0.8" stroke="#000000" d="M -164.0 6.498516201867195L-164.0 6.498650699377428"/>
<path fill="none" stroke-width="0.8" stroke="#000000" d="M -164.0 6.498516201867195L-164.0 6.498650699377428"/>
<path fill="none" stroke-width="0.8" stroke="#000000" d="M -208.0 6.498650699377428L-208.0 48.94095402312716"/>
<path fill="none" stroke-width="0.8" stroke="#000000" d="M -208.4 6.498650699377428L-164.0 6.498650699377428"/>
<path fill="none" stroke-width="0.8" stroke="#000000" d="M -164.0 6.498650699377428L-164.0 9.66768103545779"/>
<path fill="none" stroke-width="0.8" stroke="#000000" d="M -164.0 6.498650699377428L-164.0 9.66768103545779"/>
<path fill="none" stroke-width="0.8" stroke="#000000" d="M -164.0 9.66768103545779L-164.0 36.51203910261166"/>
<path fill="none" stroke-width="0.8" stroke="#000000" d="M -164.0 9.66768103545779L-164.0 36.51203910261166"/>
<path fill="none" stroke-width="0.8" stroke="#000000" d="M -164.0 36.51203910261166L-164.0 38.41383389728852"/>
<path fill="none" stroke-width="0.8" stroke="#000000" d="M -164.0 36.51203910261166L-164.0 38.41383389728852"/>
<path fill="none" stroke-width="0.8" stroke="#000000" d="M -164.0 38.41383389728852L-164.0 53.803039018004725"/>
<path fill="none" stroke-width="0.8" stroke="#000000" d="M -164.0 38.41383389728852L-164.0 53.803039018004725"/>
<path fill="none" stroke-width="0.8" stroke="#000000" d="M -200.0 53.803039018004725L-200.0 60.74445552106505"/>
<path fill="none" stroke-width="0.8" stroke="#000000" d="M -200.4 53.803039018004725L-164.0 53.803039018004725"/>
<path fill="none" stroke-width="0.8" stroke="#000000" d="M -164.0 53.803039018004725L-164.0 54.03168478539869"/>
<path fill="none" stroke-width="0.8" stroke="#000000" d="M -164.0 53.803039018004725L-164.0 54.03168478539869"/>
<path fill="none" stroke-width="0.8" stroke="#000000" d="M -192.0 54.03168478539869L-192.0 63.283768514240386"/>
<path fill="none" stroke-width="0.8" stroke="#000000" d="M -192.4 54.03168478539869L-164.0 54.03168478539869"/>
<path fill="none" stroke-width="0.8" stroke="#000000" d="M -164.0 54.03168478539869L-164.0 85.97080854013103"/>
<path fill="none" stroke-width="0.8" stroke="#000000" d="M -164.0 54.03168478539869L-164.0 85.97080854013103"/>
<path fill="none" stroke-width="0.8" stroke="#000000" d="M -184.0 85.97080854013103L-184.0 104.77894037093817"/>
<path fill="none" stroke-width="0.8" stroke="#000000" d="M -184.4 85.97080854013103L-164.0 85.97080854013103"/>
<path fill="none" stroke-width="0.8" stroke="#000000" d="M -184.0 104.77894037093817L-184.0 129.01135678939158"/>
<path fill="none" stroke-width="0.8" stroke="#000000" d="M -184.0 104.77894037093817L-184.0 129.01135678939158"/>
<path fill="none" stroke-width="0.8" stroke="#000000" d="M -176.0 104.77894037093817L-176.0 114.40089225291717"/>
<path fill="none" stroke-width="0.8" stroke="#000000" d="M -175.6 104.77894037093817L-184.0 104.77894037093817"/>
<path fill="none" stroke-width="0.8" stroke="#000000" d="M -164.0 85.97080854013103L-164.0 96.2302786206085"/>
<path fill="none" stroke-width="0.8" stroke="#000000" d="M -164.0 85.97080854013103L-164.0 96.2302786206085"/>
<path fill="none" stroke-width="0.8" stroke="#000000" d="M -152.0 38.41383389728852L-152.0 50.95707170150101"/>
<path fill="none" stroke-width="0.8" stroke="#000000" d="M -151.6 38.41383389728852L-164.0 38.41383389728852"/>
<path fill="none" stroke-width="0.8" stroke="#000000" d="M -144.0 36.51203910261166L-144.0 46.822618236977185"/>
<path fill="none" stroke-width="0.8" stroke="#000000" d="M -143.6 36.51203910261166L-164.0 36.51203910261166"/>
<path fill="none" stroke-width="0.8" stroke="#000000" d="M 28.0 9.66768103545779L28.0 9.66768103545779"/>
<path fill="none" stroke-width="0.8" stroke="#000000" d="M 28.4 9.66768103545779L-164.0 9.66768103545779"/>
<path fill="none" stroke-width="0.8" stroke="#000000" d="M -60.0 9.66768103545779L-60.0 20.217665738035823"/>
<path fill="none" stroke-width="0.8" stroke="#000000" d="M -60.4 9.66768103545779L28.0 9.66768103545779"/>
<path fill="none" stroke-width="0.8" stroke="#000000" d="M -60.0 20.217665738035823L-60.0 28.652004604668516"/>
<path fill="none" stroke-width="0.8" stroke="#000000" d="M -60.0 20.217665738035823L-60.0 28.652004604668516"/>
<path fill="none" stroke-width="0.8" stroke="#000000" d="M -60.0 28.652004604668516L-60.0 28.77977723938867"/>
<path fill="none" stroke-width="0.8" stroke="#000000" d="M -60.0 28.652004604668516L-60.0 28.77977723938867"/>
<path fill="none" stroke-width="0.8" stroke="#000000" d="M -136.0 28.77977723938867L-136.0 41.23424668684821"/>
<path fill="none" stroke-width="0.8" stroke="#000000" d="M -136.4 28.77977723938867L-60.0 28.77977723938867"/>
<path fill="none" stroke-width="0.8" stroke="#000000" d="M -60.0 28.77977723938867L-60.0 53.6241573293965"/>
<path fill="none" stroke-width="0.8" stroke="#000000" d="M -60.0 28.77977723938867L-60.0 53.6241573293965"/>
<path fill="none" stroke-width="0.8" stroke="#000000" d="M -124.0 53.6241573293965L-124.0 54.019580009477835"/>
<path fill="none" stroke-width="0.8" stroke="#000000" d="M -124.4 53.6241573293965L-60.0 53.6241573293965"/>
<path fill="none" stroke-width="0.8" stroke="#000000" d="M -124.0 54.019580009477835L-124.0 80.08788744259454"/>
<path fill="none" stroke-width="0.8" stroke="#000000" d="M -124.0 54.019580009477835L-124.0 80.08788744259454"/>
<path fill="none" stroke-width="0.8" stroke="#000000" d="M -92.0 54.019580009477835L-92.0 56.82654304801434"/>
<path fill="none" stroke-width="0.8" stroke="#000000" d="M -91.6 54.019580009477835L-124.0 54.019580009477835"/>
<path fill="none" stroke-width="0.8" stroke="#000000" d="M -92.0 56.82654304801434L-92.0 56.96642045865535"/>
<path fill="none" stroke-width="0.8" stroke="#000000" d="M -92.0 56.82654304801434L-92.0 56.96642045865535"/>
<path fill="none" stroke-width="0.8" stroke="#000000" d="M -92.0 56.96642045865535L-92.0 73.09536188564614"/>
<path fill="none" stroke-width="0.8" stroke="#000000" d="M -92.0 56.96642045865535L-92.0 73.09536188564614"/>
<path fill="none" stroke-width="0.8" stroke="#000000" d="M -112.0 73.09536188564614L-112.0 73.12091641259018"/>
<path fill="none" stroke-width="0.8" stroke="#000000" d="M -112.4 73.09536188564614L-92.0 73.09536188564614"/>
<path fill="none" stroke-width="0.8" stroke="#000000" d="M -112.0 73.12091641259018L-112.0 84.45233164961464"/>
<path fill="none" stroke-width="0.8" stroke="#000000" d="M -112.0 73.12091641259018L-112.0 84.45233164961464"/>
<path fill="none" stroke-width="0.8" stroke="#000000" d="M -104.0 73.12091641259018L-104.0 87.02930394565487"/>
<path fill="none" stroke-width="0.8" stroke="#000000" d="M -103.6 73.12091641259018L-112.0 73.12091641259018"/>
<path fill="none" stroke-width="0.8" stroke="#000000" d="M -92.0 73.09536188564614L-92.0 84.40122259572658"/>
<path fill="none" stroke-width="0.8" stroke="#000000" d="M -92.0 73.09536188564614L-92.0 84.40122259572658"/>
<path fill="none" stroke-width="0.8" stroke="#000000" d="M -80.0 56.96642045865535L-80.0 69.59977159472311"/>
<path fill="none" stroke-width="0.8" stroke="#000000" d="M -79.6 56.96642045865535L-92.0 56.96642045865535"/>
<path fill="none" stroke-width="0.8" stroke="#000000" d="M -72.0 56.82654304801434L-72.0 69.28101249547386"/>
<path fill="none" stroke-width="0.8" stroke="#000000" d="M -71.6 56.82654304801434L-92.0 56.82654304801434"/>
<path fill="none" stroke-width="0.8" stroke="#000000" d="M -60.0 53.6241573293965L-60.0 80.66219181128409"/>
<path fill="none" stroke-width="0.8" stroke="#000000" d="M -60.0 53.6241573293965L-60.0 80.66219181128409"/>
<path fill="none" stroke-width="0.8" stroke="#000000" d="M -48.0 28.652004604668516L-48.0 41.45078767832132"/>
<path fill="none" stroke-width="0.8" stroke="#000000" d="M -47.6 28.652004604668516L-60.0 28.652004604668516"/>
<path fill="none" stroke-width="0.8" stroke="#000000" d="M -20.0 20.217665738035823L-20.0 27.91226829839392"/>
<path fill="none" stroke-width="0.8" stroke="#000000" d="M -19.6 20.217665738035823L-60.0 20.217665738035823"/>
<path fill="none" stroke-width="0.8" stroke="#000000" d="M -20.0 27.91226829839392L-20.0 28.052145709034935"/>
<path fill="none" stroke-width="0.8" stroke="#000000" d="M -20.0 27.91226829839392L-20.0 28.052145709034935"/>
<path fill="none" stroke-width="0.8" stroke="#000000" d="M -40.0 28.052145709034935L-40.0 39.91886103678175"/>
<path fill="none" stroke-width="0.8" stroke="#000000" d="M -40.4 28.052145709034935L-20.0 28.052145709034935"/>
<path fill="none" stroke-width="0.8" stroke="#000000" d="M -20.0 28.052145709034935L-20.0 38.29951101359155"/>
<path fill="none" stroke-width="0.8" stroke="#000000" d="M -20.0 28.052145709034935L-20.0 38.29951101359155"/>
<path fill="none" stroke-width="0.8" stroke="#000000" d="M -20.0 38.29951101359155L-20.0 39.84354243105197"/>
<path fill="none" stroke-width="0.8" stroke="#000000" d="M -20.0 38.29951101359155L-20.0 39.84354243105197"/>
<path fill="none" stroke-width="0.8" stroke="#000000" d="M -20.0 39.84354243105197L-20.0 74.24397062302525"/>
<path fill="none" stroke-width="0.8" stroke="#000000" d="M -20.0 39.84354243105197L-20.0 74.24397062302525"/>
<path fill="none" stroke-width="0.8" stroke="#000000" d="M -32.0 74.24397062302525L-32.0 134.49751023174443"/>
<path fill="none" stroke-width="0.8" stroke="#000000" d="M -32.4 74.24397062302525L-20.0 74.24397062302525"/>
<path fill="none" stroke-width="0.8" stroke="#000000" d="M -20.0 74.24397062302525L-20.0 133.85999203324596"/>
<path fill="none" stroke-width="0.8" stroke="#000000" d="M -20.0 74.24397062302525L-20.0 133.85999203324596"/>
<path fill="none" stroke-width="0.8" stroke="#000000" d="M -8.0 39.84354243105197L-8.0 52.156789492768176"/>
<path fill="none" stroke-width="0.8" stroke="#000000" d="M -7.6 39.84354243105197L-20.0 39.84354243105197"/>
<path fill="none" stroke-width="0.8" stroke="#000000" d="M 0.0 38.29951101359155L0.0 52.20789854665624"/>
<path fill="none" stroke-width="0.8" stroke="#000000" d="M 0.4 38.29951101359155L-20.0 38.29951101359155"/>
<path fill="none" stroke-width="0.8" stroke="#000000" d="M 8.0 27.91226829839392L8.0 39.39566572198026"/>
<path fill="none" stroke-width="0.8" stroke="#000000" d="M 8.4 27.91226829839392L-20.0 27.91226829839392"/>
<path fill="none" stroke-width="0.8" stroke="#000000" d="M 28.0 9.66768103545779L28.0 36.94646606066019"/>
<path fill="none" stroke-width="0.8" stroke="#000000" d="M 28.0 9.66768103545779L28.0 36.94646606066019"/>
<path fill="none" stroke-width="0.8" stroke="#000000" d="M 28.0 36.94646606066019L28.0 38.439388424232554"/>
<path fill="none" stroke-width="0.8" stroke="#000000" d="M 28.0 36.94646606066019L28.0 38.439388424232554"/>
<path fill="none" stroke-width="0.8" stroke="#000000" d="M 28.0 38.439388424232554L28.0 53.81514379392558"/>
<path fill="none" stroke-width="0.8" stroke="#000000" d="M 28.0 38.439388424232554L28.0 53.81514379392558"/>
<path fill="none" stroke-width="0.8" stroke="#000000" d="M 28.0 53.81514379392558L28.0 54.402897913638306"/>
<path fill="none" stroke-width="0.8" stroke="#000000" d="M 28.0 53.81514379392558L28.0 54.402897913638306"/>
<path fill="none" stroke-width="0.8" stroke="#000000" d="M 28.0 54.402897913638306L28.0 85.81748137846685"/>
<path fill="none" stroke-width="0.8" stroke="#000000" d="M 28.0 54.402897913638306L28.0 85.81748137846685"/>
<path fill="none" stroke-width="0.8" stroke="#000000" d="M 16.0 85.81748137846685L16.0 95.87251524339206"/>
<path fill="none" stroke-width="0.8" stroke="#000000" d="M 15.6 85.81748137846685L28.0 85.81748137846685"/>
<path fill="none" stroke-width="0.8" stroke="#000000" d="M 28.0 85.81748137846685L28.0 113.63425644459623"/>
<path fill="none" stroke-width="0.8" stroke="#000000" d="M 28.0 85.81748137846685L28.0 113.63425644459623"/>
<path fill="none" stroke-width="0.8" stroke="#000000" d="M 28.0 113.63425644459623L28.0 128.50026625051095"/>
<path fill="none" stroke-width="0.8" stroke="#000000" d="M 28.0 113.63425644459623L28.0 128.50026625051095"/>
<path fill="none" stroke-width="0.8" stroke="#000000" d="M 40.0 113.63425644459623L40.0 127.60720278257216"/>
<path fill="none" stroke-width="0.8" stroke="#000000" d="M 40.4 113.63425644459623L28.0 113.63425644459623"/>
<path fill="none" stroke-width="0.8" stroke="#000000" d="M 48.0 54.402897913638306L48.0 63.30932304118442"/>
<path fill="none" stroke-width="0.8" stroke="#000000" d="M 48.4 54.402897913638306L28.0 54.402897913638306"/>
<path fill="none" stroke-width="0.8" stroke="#000000" d="M 56.0 53.81514379392558L56.0 60.78211482392994"/>
<path fill="none" stroke-width="0.8" stroke="#000000" d="M 56.4 53.81514379392558L28.0 53.81514379392558"/>
<path fill="none" stroke-width="0.8" stroke="#000000" d="M 64.0 38.439388424232554L64.0 51.05928980927714"/>
<path fill="none" stroke-width="0.8" stroke="#000000" d="M 64.4 38.439388424232554L28.0 38.439388424232554"/>
<path fill="none" stroke-width="0.8" stroke="#000000" d="M 72.0 36.94646606066019L72.0 47.05260897947347"/>
<path fill="none" stroke-width="0.8" stroke="#000000" d="M 72.4 36.94646606066019L28.0 36.94646606066019"/>
<path fill="none" stroke-width="0.8" stroke="#000000" d="M 80.0 6.498516201867195L80.0 12.515396819594514"/>
<path fill="none" stroke-width="0.8" stroke="#000000" d="M 80.4 6.498516201867195L-164.0 6.498516201867195"/>
<path fill="none" stroke-width="0.8" stroke="#000000" d="M 80.0 12.515396819594514L80.0 52.24555784952113"/>
<path fill="none" stroke-width="0.8" stroke="#000000" d="M 80.0 12.515396819594514L80.0 52.24555784952113"/>
<path fill="none" stroke-width="0.8" stroke="#000000" d="M 88.0 12.515396819594514L88.0 52.13123496582414"/>
<path fill="none" stroke-width="0.8" stroke="#000000" d="M 88.4 12.515396819594514L80.0 12.515396819594514"/>
<path fill="none" stroke-width="0.8" stroke="#000000" d="M 96.0 6.496902231744414L96.0 49.14539023867941"/>
<path fill="none" stroke-width="0.8" stroke="#000000" d="M 96.4 6.496902231744414L-164.0 6.496902231744414"/>
</g>
</g>
<g transform="matrix(1.0 0.0 0.0 1.0 835.0 350.0)">
<g >
<path fill="none" stroke-width="4.0" stroke="#000000" d="M -164.0 6.496902231744414L-164.0 -24.066241767151364"/>
<path fill="none" stroke-width="4.0" stroke="#000000" d="M -164.0 54.03168478539869L-164.0 56.09660057766531L-164.0 54.03168478539869L-164.0 56.09660057766531L-164.0 53.803039018004725L-164.0 54.03168478539869L-164.0 38.41383389728852L-164.0 53.803039018004725L-164.0 36.51203910261166L-164.0 38.41383389728852L-164.0 9.66768103545779L-164.0 36.51203910261166L-164.0 6.498650699377428L-164.0 9.66768103545779L-164.0 6.498516201867195L-164.0 6.498650699377428L-164.0 6.496902231744414L-164.0 6.498516201867195L-164.0 6.496902231744414L-164.0 -39.24899320966183"/>
<path fill="#3077cb" stroke-width="0.8" stroke="#000000" d="M -168.0 -43.24899320966183L-160.0 -43.24899320966183L-160.0 -35.24899320966183L-168.0 -35.24899320966183L-168.0 -43.24899320966183z"/>
<path fill="#3077cb" stroke-width="2.4" stroke="#3077cb" d="M -164.0 54.03168478539869L-164.0 55.296600577665316L-164.0 54.03168478539869L-164.0 55.296600577665316L-164.0 53.803039018004725L-164.0 54.03168478539869L-164.0 38.41383389728852L-164.0 53.803039018004725L-164.0 36.51203910261166L-164.0 38.41383389728852L-164.0 9.66768103545779L-164.0 36.51203910261166L-164.0 6.498650699377428L-164.0 9.66768103545779L-164.0 6.498516201867195L-164.0 6.498650699377428L-164.0 6.496902231744414L-164.0 6.498516201867195L-164.0 6.496902231744414L-164.0 -39.24899320966183"/>
<path fill="none" stroke-width="4.0" stroke="#000000" d="M 28.0 54.402897913638306L28.0 83.50712657996897L28.0 54.402897913638306L28.0 83.50712657996897L28.0 53.81514379392558L28.0 54.402897913638306L28.0 38.439388424232554L28.0 53.81514379392558L28.0 36.94646606066019L28.0 38.439388424232554L28.0 9.66768103545779L28.0 36.94646606066019L28.0 9.66768103545779L28.0 9.66768103545779"/>
<path fill="#75aef7" stroke-width="0.8" stroke="#000000" d="M 24.0 5.66768103545779L32.0 5.66768103545779L32.0 13.66768103545779L24.0 13.66768103545779L24.0 5.66768103545779z"/>
<path fill="#75aef7" stroke-width="2.4" stroke="#75aef7" d="M 28.0 54.402897913638306L28.0 82.70712657996897L28.0 54.402897913638306L28.0 82.70712657996897L28.0 53.81514379392558L28.0 54.402897913638306L28.0 38.439388424232554L28.0 53.81514379392558L28.0 36.94646606066019L28.0 38.439388424232554L28.0 9.66768103545779L28.0 36.94646606066019L28.0 9.66768103545779L28.0 9.66768103545779"/>
<path fill="none" stroke-width="4.0" stroke="#000000" d="M -60.0 53.6241573293965L-60.0 71.82487259001722L-60.0 53.6241573293965L-60.0 71.82487259001722L-60.0 28.77977723938867L-60.0 53.6241573293965L-60.0 28.652004604668516L-60.0 28.77977723938867L-60.0 20.217665738035823L-60.0 28.652004604668516L-60.0 9.66768103545779L-60.0 20.217665738035823"/>
<path fill="#d0e4fe" stroke-width="0.8" stroke="#000000" d="M -64.0 5.66768103545779L-56.0 5.66768103545779L-56.0 13.66768103545779L-64.0 13.66768103545779L-64.0 5.66768103545779z"/>
<path fill="#d0e4fe" stroke-width="2.4" stroke="#d0e4fe" d="M -60.0 53.6241573293965L-60.0 71.02487259001722L-60.0 53.6241573293965L-60.0 71.02487259001722L-60.0 28.77977723938867L-60.0 53.6241573293965L-60.0 28.652004604668516L-60.0 28.77977723938867L-60.0 20.217665738035823L-60.0 28.652004604668516L-60.0 9.66768103545779L-60.0 20.217665738035823"/>
<path fill="none" stroke-width="4.0" stroke="#000000" d="M -20.0 74.24397062302525L-20.0 97.47376085657363L-20.0 74.24397062302525L-20.0 97.47376085657363L-20.0 39.84354243105197L-20.0 74.24397062302525L-20.0 38.29951101359155L-20.0 39.84354243105197L-20.0 28.052145709034935L-20.0 38.29951101359155L-20.0 27.91226829839392L-20.0 28.052145709034935L-20.0 20.217665738035823L-20.0 27.91226829839392"/>
<path fill="#3077cb" stroke-width="0.8" stroke="#000000" d="M -24.0 16.21766573803582L-16.0 16.21766573803582L-16.0 24.21766573803582L-24.0 24.21766573803582L-24.0 16.21766573803582z"/>
<path fill="#3077cb" stroke-width="2.4" stroke="#3077cb" d="M -20.0 74.24397062302525L-20.0 96.67376085657364L-20.0 74.24397062302525L-20.0 96.67376085657364L-20.0 39.84354243105197L-20.0 74.24397062302525L-20.0 38.29951101359155L-20.0 39.84354243105197L-20.0 28.052145709034935L-20.0 38.29951101359155L-20.0 27.91226829839392L-20.0 28.052145709034935L-20.0 20.217665738035823L-20.0 27.91226829839392"/>
<path fill="none" stroke-width="4.0" stroke="#000000" d="M -124.0 54.019580009477835L-124.0 62.69169265017149L-124.0 54.019580009477835L-124.0 62.69169265017149L-124.0 53.6241573293965L-124.0 54.019580009477835"/>
<path fill="#75aef7" stroke-width="0.8" stroke="#000000" d="M -128.0 49.624157329396496L-120.0 49.624157329396496L-120.0 57.624157329396496L-128.0 57.624157329396496L-128.0 49.624157329396496z"/>
<path fill="#75aef7" stroke-width="2.4" stroke="#75aef7" d="M -124.0 54.019580009477835L-124.0 61.89169265017149L-124.0 54.019580009477835L-124.0 61.89169265017149L-124.0 53.6241573293965L-124.0 54.019580009477835"/>
<path fill="none" stroke-width="4.0" stroke="#000000" d="M -92.0 73.09536188564614L-92.0 83.29825594155463L-92.0 73.09536188564614L-92.0 83.29825594155463L-92.0 56.96642045865535L-92.0 73.09536188564614L-92.0 56.82654304801434L-92.0 56.96642045865535L-92.0 54.019580009477835L-92.0 56.82654304801434"/>
<path fill="#3077cb" stroke-width="0.8" stroke="#000000" d="M -96.0 50.019580009477835L-88.0 50.019580009477835L-88.0 58.019580009477835L-96.0 58.019580009477835L-96.0 50.019580009477835z"/>
<path fill="#3077cb" stroke-width="2.4" stroke="#3077cb" d="M -92.0 73.09536188564614L-92.0 82.49825594155463L-92.0 73.09536188564614L-92.0 82.49825594155463L-92.0 56.96642045865535L-92.0 73.09536188564614L-92.0 56.82654304801434L-92.0 56.96642045865535L-92.0 54.019580009477835L-92.0 56.82654304801434"/>
</g>
</g>
</g>
</svg>