<?xml version="1.0" encoding="utf-8"?>
<svg version="1.2" baseProfile="tiny" id="openrndr-svg" xmlns="http://www.w3.org/2000/svg" xmlns:xlink="http://www.w3.org/1999/xlink" y="0.0" height="576.0" x="0.0" width="768.0" ><g >
<g transform="matrix(1.0 0.0 0.0 1.0 601.0 350.0)">
<g >
<path fill="#3077cb" d="M 0.0 145.93082346550278L0.0 213.58036906233988L-16.0 213.58036906233988L-16.0 145.93082346550278L0.0 145.93082346550278z"/>
<path fill="#75aef7" d="M -64.0 110.54652553875559L-64.0 111.04514557239277L-72.0 111.04514557239278L-72.0 111.05514557239279L-72.0 116.63279733367146L-72.0 123.34991083288479L-72.0 124.16971189975992L-72.0 134.66271295710683L-88.0 134.66271295710683L-88.0 134.67271295710682L-88.0 134.75426384857604L-88.0 138.85614563949952L-96.0 138.85614563949952L-96.0 134.75426384857607L-96.0 134.74426384857608L-104.0 134.74426384857608L-104.0 127.7902469323201L-104.0 127.7802469323201L-120.0 127.7802469323201L-120.0 124.16971189975992L-120.0 123.34991083288479L-120.0 110.05496944730518L-120.0 109.85957652299723L-104.0 109.85957652299724L-96.0 109.85957652299724L-88.0 109.85957652299724L-72.0 109.85957652299724L-64.0 109.85957652299724L-56.0 109.85957652299724L-56.0 110.05496944730518L-56.0 110.53652553875558L-64.0 110.53652553875558L-64.0 110.54652553875559z"/>
<path fill="#3077cb" d="M -48.0 67.39731498061177L-48.0 78.44326862251302L-48.0 78.6192468619993L-48.0 85.56405375997718L-48.0 86.19500013081827L-48.0 90.67386093335331L-48.0 90.8970528468481L-48.0 109.85967652299722L-48.0 128.69662142330355L-56.0 128.69662142330355L-56.0 110.53652553875558L-56.0 109.85967652299725L-64.0 109.85967652299725L-72.0 109.85967652299725L-88.0 109.85967652299725L-120.0 109.85967652299723L-120.0 86.19500013081827L-120.0 85.5640537599772L-120.0 78.6192468619993L-120.0 78.44326862251302L-120.0 67.39731498061177L-88.0 67.39731498061177L-72.0 67.39731498061177L-64.0 67.39731498061177L-56.0 67.39731498061177L-48.0 67.39731498061177z"/>
<path fill="#d0e4fe" d="M -128.0 65.79440080695713L-128.0 74.70134696629259L-136.0 74.7013469662926L-136.0 74.71134696629258L-136.0 81.29838487093694L-144.0 81.29838487093694L-144.0 81.30838487093695L-144.0 153.53745218005642L-152.0 153.53745218005642L-152.0 153.5474521800564L-152.0 182.5309401734673L-168.0 182.5309401734673L-168.0 182.54094017346728L-168.0 205.8437647532173L-184.0 205.8437647532173L-184.0 182.54094017346728L-184.0 167.18791181633466L-184.0 153.5474521800564L-184.0 137.17718375564942L-184.0 120.02563896746705L-184.0 117.91390009363167L-184.0 100.97717224766609L-184.0 100.96717224766608L-192.0 100.96717224766608L-192.0 99.26449886026819L-192.0 96.92538058729897L-192.0 96.91538058729897L-200.0 96.91538058729897L-200.0 96.15483460398008L-200.0 78.08141681008402L-200.0 51.48652144735129L-192.0 51.48652144735129L-184.0 51.48652144735129L-168.0 51.48652144735129L-152.0 51.48652144735129L-144.0 51.48652144735129L-136.0 51.48652144735129L-128.0 51.48652144735129L-120.0 51.48652144735129L-120.0 65.78440080695714L-128.0 65.78440080695714L-128.0 65.79440080695713z"/>
<path fill="#d0e4fe" d="M -104.0 67.39741498061177L-120.0 67.39741498061177L-120.0 65.78440080695714L-120.0 51.4866214473513L-128.0 51.4866214473513L-184.0 51.4866214473513L-184.0 51.484589978869124L-128.0 51.484589978869124L-120.0 51.484589978869124L-48.0 51.484589978869124L-40.0 51.484589978869124L-32.0 51.484589978869124L-16.0 51.484589978869124L-7.105427357601002E-15 51.484589978869124L8.0 51.484589978869124L16.0 51.484589978869124L24.0 51.484589978869124L24.0 51.4866214473513L24.0 62.85071479015531L16.0 62.85071479015531L16.0 62.8607147901553L16.0 67.39741498061177L16.0 77.52260197934697L16.0 78.05053669780582L16.0 83.29423563584234L8.0 83.29423563584236L8.0 83.2126847443731L0.0 83.2126847443731L0.0 83.30423563584236L0.0 145.93092346550281L-16.0 145.93092346550281L-16.0 213.58036906233988L-16.0 214.59760912961426L-32.0 214.59760912961426L-32.0 145.93092346550281L-32.0 118.46554631563836L-32.0 94.55171576378186L-32.0 93.10526047824825L-32.0 83.30423563584236L-32.0 83.22268474437311L-32.0 78.05053669780582L-32.0 77.52260197934697L-32.0 67.39741498061176L-32.0 63.68553838966951L-40.0 63.68553838966951L-40.0 66.12991905765581L-48.0 66.12991905765581L-48.0 66.13991905765582L-104.0 66.13991905765582L-104.0 67.39741498061177z"/>
<path fill="#75aef7" d="M 104.0 78.41762037596104L104.0 83.17190929863848L96.0 83.17190929863848L96.0 83.18190929863849L96.0 83.35432576639866L88.0 83.35432576639866L88.0 75.06832597790424L80.0 75.06832597790424L80.0 81.46148665387545L72.0 81.46148665387545L72.0 83.36432576639865L72.0 96.27286878900135L72.0 96.97547071785526L64.0 96.97547071785526L64.0 96.98547071785526L64.0 98.813822881096L64.0 101.00794769340072L56.0 101.00794769340072L56.0 101.01794769340073L56.0 117.97399022418794L56.0 119.88829009762411L56.0 136.93253108124165L56.0 181.3176768014285L56.0 203.6032613139041L40.0 203.6032613139041L40.0 203.6132613139041L40.0 205.02825583852476L32.0 205.02825583852476L32.0 203.6132613139041L32.0 181.3176768014285L32.0 152.97659593977164L32.0 152.96659593977165L24.0 152.96659593977165L24.0 62.85071479015531L24.0 51.48468997886911L16.0 51.48468997886912L-32.0 51.48468997886913L-40.0 51.48468997886913L-48.0 51.48468997886913L-120.0 51.48468997886913L-128.0 51.48468997886913L-184.0 51.48468997886913L-184.0 46.316409535809754L-128.0 46.316409535809754L-120.0 46.316409535809754L-48.0 46.316409535809754L-40.0 46.316409535809754L-32.0 46.316409535809754L16.0 46.316409535809754L24.0 46.316409535809754L32.0 46.316409535809754L40.0 46.316409535809754L56.0 46.316409535809754L64.0 46.316409535809754L72.0 46.316409535809754L80.0 46.316409535809754L88.0 46.316409535809754L96.0 46.316409535809754L104.0 46.316409535809754L112.0 46.316409535809754L112.0 51.48468997886913L112.0 78.40762037596105L104.0 78.40762037596105L104.0 78.41762037596104z"/>
<path fill="#3077cb" stroke-width="344.0" d="M -184.0 46.31650953580976L-200.0 46.31650953580976L-200.0 78.08141681008402L-216.0 78.08141681008402L-216.0 46.31629492820063L-216.0 46.30985669992674L-216.0 45.92173620155486L-216.0 45.71785897288172L-216.0 44.76070903616365L-216.0 44.537517122668845L-216.0 32.25981580436362L-216.0 19.96988185233798L-216.0 15.425994944236663L-216.0 10.36919585031557L-216.0 10.366620559006016L-216.0 1.8073531296142402L112.0 1.8073531296142402L112.0 10.366620559006016L112.0 46.30985669992674L112.0 46.31629492820063L104.0 46.31650953580976L96.0 46.31650953580976L56.0 46.31650953580976L24.0 46.31650953580976L-16.0 46.31650953580976L-32.0 46.31650953580976L-40.0 46.31650953580976L-104.0 46.31650953580976L-120.0 46.31650953580976L-168.0 46.31650953580976L-184.0 46.31650953580976z"/>
</g>
</g>
<g transform="matrix(1.0 0.0 0.0 1.0 811.0 350.0)">
<g >
<path fill="#ffd6d1" d="M 12.0 203.69031538664717L12.0 213.42585158376656L-4.0 213.42585158376656L-4.0 204.82223253376034L-4.0 203.69031538664717L12.0 203.69031538664717z"/>
<path fill="#fb827a" d="M 164.0 154.96794988595087L164.0 198.17583487901618L148.0 198.17583487901618L148.0 154.96794988595087L164.0 154.96794988595087z"/>
<path fill="#c64340" d="M 76.0 122.69740370113077L76.0 123.78639932641796L60.0 123.78639932641796L60.0 123.79639932641797L60.0 127.1763645036658L60.0 127.39955641716061L60.0 136.8960477876896L60.0 136.94399184215462L52.0 136.94399184215462L52.0 136.8960477876896L52.0 136.88604778768962L44.0 136.88604778768962L44.0 127.39955641716061L44.0 127.17636450366581L44.0 122.69740370113077L52.0 122.69740370113077L60.0 122.69740370113077L76.0 122.69740370113077z"/>
<path fill="#c64340" d="M 180.0 68.7622193746761L180.0 70.022901087267L172.0 70.02290108726702L172.0 70.03290108726702L172.0 70.04221577208868L164.0 70.04221577208868L164.0 70.05221577208869L164.0 154.96804988595085L148.0 154.96804988595085L148.0 198.17583487901618L148.0 202.47657136597365L132.0 202.47657136597365L132.0 154.96804988595085L132.0 109.4284198951903L132.0 100.07786169886943L132.0 97.61416634606145L132.0 81.26321260647615L132.0 81.04002069298134L132.0 70.05221577208869L132.0 70.03290108726702L132.0 68.7622193746761L148.0 68.7622193746761L164.0 68.7622193746761L172.0 68.7622193746761L180.0 68.7622193746761z"/>
<path fill="#ffd6d1" d="M 228.0 78.14721478845772L228.0 81.01081067470325L220.0 81.01081067470325L220.0 81.02081067470323L220.0 81.47148665387544L220.0 83.38578652731161L220.0 93.72772721126773L220.0 95.45521379821753L220.0 96.77944741309085L220.0 97.83735825955625L220.0 122.37130013525376L220.0 123.30913538715018L220.0 173.4350346515541L220.0 214.59760912961426L204.0 214.59760912961426L204.0 173.43503465155413L204.0 123.30913538715018L204.0 122.37130013525376L204.0 97.83735825955624L204.0 96.77944741309084L204.0 96.76944741309084L196.0 96.76944741309084L196.0 95.45521379821753L196.0 93.72772721126773L196.0 93.71772721126773L188.0 93.71772721126773L188.0 57.296669865880894L188.0 51.928398514549166L196.0 51.928398514549166L204.0 51.928398514549166L220.0 51.928398514549166L228.0 51.928398514549166L236.0 51.928398514549166L236.0 78.13721478845773L228.0 78.13721478845773L228.0 78.14721478845772z"/>
<path fill="#ffd6d1" d="M 204.0 51.92849851454917L188.0 51.92849851454917L188.0 57.296669865880894L180.0 57.296669865880894L180.0 57.30666986588088L180.0 68.76231937467611L172.0 68.76231937467611L148.0 68.76231937467611L132.0 68.76231937467611L132.0 57.629311660031796L124.0 57.629311660031796L124.0 63.689830541852096L116.0 63.689830541852096L116.0 63.299244693236204L108.0 63.299244693236204L108.0 68.76231937467611L108.0 73.35717295268475L108.0 82.22036254319423L108.0 82.42423977186735L108.0 112.38858920554415L92.0 112.38858920554415L92.0 104.04035321040216L84.0 104.04035321040216L84.0 104.64769274423897L76.0 104.64769274423897L76.0 112.39858920554416L76.0 122.0665573302897L76.0 122.69750370113076L60.0 122.69750370113077L52.0 122.69750370113077L44.0 122.69750370113077L44.0 136.88604778768962L44.0 137.06202602717593L36.0 137.06202602717593L36.0 122.69750370113077L36.0 122.0665573302897L36.0 112.39858920554416L36.0 112.06594741139327L36.0 111.96937398728494L36.0 111.75476637815532L36.0 111.74476637815532L28.0 111.74476637815532L28.0 82.42423977186735L28.0 82.22036254319423L28.0 78.11790010363606L28.0 46.871814028237196L36.0 46.871814028237196L44.0 46.871814028237196L52.0 46.871814028237196L60.0 46.871814028237196L76.0 46.871814028237196L84.0 46.871814028237196L92.0 46.871814028237196L108.0 46.871814028237196L116.0 46.871814028237196L124.0 46.871814028237196L132.0 46.871814028237196L148.0 46.871814028237196L172.0 46.871814028237196L180.0 46.871814028237196L188.0 46.871814028237196L220.0 46.871814028237196L220.0 51.92849851454917L204.0 51.92849851454917z"/>
<path fill="#fb827a" d="M 92.0 51.92849851454917L28.0 51.92849851454917L28.0 78.11790010363606L20.0 78.11790010363606L20.0 78.12790010363605L20.0 80.6009101412657L12.0 80.6009101412657L11.999999999999993 80.6109101412657L11.999999999999995 81.41139652331917L11.999999999999995 83.52313539715456L12.0 94.76203122072889L12.0 97.79658281382159L12.0 122.35198545043205L12.0 122.71681838595242L12.0 173.67968732596194L12.0 190.15092599320343L12.0 203.69041538664715L-4.0 203.69041538664715L-4.0 204.82223253376034L-12.0 204.82223253376034L-12.0 203.69041538664715L-12.0 190.15092599320343L-12.0 173.67968732596194L-12.0 122.71681838595242L-12.0 122.35198545043207L-12.0 97.7965828138216L-12.0 96.77944741309084L-12.0 96.76944741309084L-20.0 96.76944741309084L-20.0 94.76203122072889L-20.0 93.6311537871594L-20.0 93.6211537871594L-28.0 93.6211537871594L-28.0 78.39045176723067L-28.0 46.871814028237196L-20.0 46.871814028237196L-12.0 46.871814028237196L-4.0 46.871814028237196L12.0 46.871814028237196L20.0 46.871814028237196L28.0 46.871814028237196L107.99999999999999 46.871814028237196L115.99999999999994 46.871814028237196L124.0 46.871814028237196L132.0 46.871814028237196L148.0 46.871814028237196L188.0 46.871814028237196L220.0 46.871814028237196L220.0 51.92849851454917L188.0 51.92849851454917L148.0 51.92849851454917L132.0 51.92849851454917L124.0 51.92849851454917L116.0 51.92849851454917L108.0 51.92849851454917L92.0 51.92849851454917z"/>
<path fill="#c64340" stroke-width="304.0" d="M -4.0 46.8719140282372L-28.0 46.8719140282372L-28.0 71.50081713371358L-28.0 71.61670524264358L-28.0 78.28456365830068L-28.0 78.39045176723067L-44.0 78.39045176723067L-44.0 78.28456365830068L-44.0 71.49081713371358L-52.0 71.49081713371358L-52.0 71.60670524264353L-60.0 71.60670524264357L-60.0 78.27456365830068L-68.0 78.27456365830068L-68.0 46.87169942062806L-68.0 46.869124129318514L-68.0 9.80735312961424L-68.0 1.8073531296142402L220.0 1.8073531296142402L220.0 9.80735312961424L220.0 14.982186408556629L220.0 46.869124129318514L220.0 46.87169942062807L188.0 46.8719140282372L148.0 46.8719140282372L132.0 46.8719140282372L124.0 46.8719140282372L116.0 46.8719140282372L108.0 46.8719140282372L12.0 46.8719140282372L-4.0 46.8719140282372z"/>
</g>
</g>
<g transform="matrix(1.0 0.0 0.0 1.0 400.0 350.0)">
<g >
<path fill="none" stroke-width="0.4" stroke="#000000" stroke-opacity="0.1" d="M -43.0 -52.9462522258545L667.5 -52.9462522258545"/>
<path fill="none" stroke-width="0.4" stroke="#000000" stroke-opacity="0.1" d="M -43.0 -34.69505044069825L667.5 -34.69505044069825"/>
<path fill="none" stroke-width="0.4" stroke="#000000" stroke-opacity="0.1" d="M -43.0 -16.443848655542006L667.5 -16.443848655542006"/>
<path fill="none" stroke-width="0.4" stroke="#000000" stroke-opacity="0.1" d="M -43.0 1.807353129614242L667.5 1.807353129614242"/>
<path fill="none" stroke-width="0.4" stroke="#000000" stroke-opacity="0.1" d="M -43.0 20.05855491477049L667.5 20.05855491477049"/>
<path fill="none" stroke-width="0.4" stroke="#000000" stroke-opacity="0.1" d="M -43.0 38.30975669992674L667.5 38.30975669992674"/>
<path fill="none" stroke-width="0.4" stroke="#000000" stroke-opacity="0.1" d="M -43.0 56.560958485082985L667.5 56.560958485082985"/>
<path fill="none" stroke-width="0.4" stroke="#000000" stroke-opacity="0.1" d="M -43.0 74.81216027023923L667.5 74.81216027023923"/>
<path fill="none" stroke-width="0.4" stroke="#000000" stroke-opacity="0.1" d="M -43.0 93.06336205539549L667.5 93.06336205539549"/>
<path fill="none" stroke-width="0.4" stroke="#000000" stroke-opacity="0.1" d="M -43.0 111.31456384055173L667.5 111.31456384055173"/>
<path fill="none" stroke-width="0.4" stroke="#000000" stroke-opacity="0.1" d="M -43.0 129.56576562570797L667.5 129.56576562570797"/>
<path fill="none" stroke-width="0.4" stroke="#000000" stroke-opacity="0.1" d="M -43.0 147.8169674108642L667.5 147.8169674108642"/>
<path fill="none" stroke-width="0.4" stroke="#000000" stroke-opacity="0.1" d="M -43.0 166.06816919602045L667.5 166.06816919602045"/>
<path fill="none" stroke-width="0.4" stroke="#000000" stroke-opacity="0.1" d="M -43.0 184.3193709811767L667.5 184.3193709811767"/>
<path fill="none" stroke-width="0.4" stroke="#000000" stroke-opacity="0.1" d="M -43.0 202.57057276633293L667.5 202.57057276633293"/>
<path fill="none" stroke-width="0.4" stroke="#000000" stroke-opacity="0.1" d="M -43.0 220.82177455148917L667.5 220.82177455148917"/>
<path fill="none" stroke-width="0.4" stroke="#000000" stroke-opacity="0.1" d="M -43.0 239.0729763366454L667.5 239.0729763366454"/>
</g>
</g>
<g transform="matrix(1.0 0.0 0.0 1.0 601.0 350.0)">
<g >
<path fill="none" stroke-width="0.8" stroke="#000000" d="M -208.0 10.366620559006016L-208.0 10.369195850315572"/>
<path fill="none" stroke-width="0.8" stroke="#000000" d="M -208.0 10.366620559006016L-208.0 10.369195850315572"/>
<path fill="none" stroke-width="0.8" stroke="#000000" d="M -208.0 10.369195850315572L-208.0 10.369410457924701"/>
<path fill="none" stroke-width="0.8" stroke="#000000" d="M -208.0 10.369195850315572L-208.0 10.369410457924701"/>
<path fill="none" stroke-width="0.8" stroke="#000000" d="M -208.0 10.369410457924701L-208.0 78.09141681008403"/>
<path fill="none" stroke-width="0.8" stroke="#000000" d="M -208.0 10.369410457924701L-208.0 78.09141681008403"/>
<path fill="none" stroke-width="0.8" stroke="#000000" d="M -176.0 10.369410457924701L-176.0 15.425994944236672"/>
<path fill="none" stroke-width="0.8" stroke="#000000" d="M -175.6 10.369410457924701L-208.0 10.369410457924701"/>
<path fill="none" stroke-width="0.8" stroke="#000000" d="M -176.0 15.425994944236672L-176.0 58.25952765041638"/>
<path fill="none" stroke-width="0.8" stroke="#000000" d="M -176.0 15.425994944236672L-176.0 58.25952765041638"/>
<path fill="none" stroke-width="0.8" stroke="#000000" d="M -176.0 58.25952765041638L-176.0 61.29407924350912"/>
<path fill="none" stroke-width="0.8" stroke="#000000" d="M -176.0 58.25952765041638L-176.0 61.29407924350912"/>
<path fill="none" stroke-width="0.8" stroke="#000000" d="M -176.0 61.29407924350912L-176.0 85.84948188011958"/>
<path fill="none" stroke-width="0.8" stroke="#000000" d="M -176.0 61.29407924350912L-176.0 85.84948188011958"/>
<path fill="none" stroke-width="0.8" stroke="#000000" d="M -196.0 85.84948188011958L-196.0 96.92538058729897"/>
<path fill="none" stroke-width="0.8" stroke="#000000" d="M -196.4 85.84948188011958L-176.0 85.84948188011958"/>
<path fill="none" stroke-width="0.8" stroke="#000000" d="M -176.0 85.84948188011958L-176.0 86.21431481563992"/>
<path fill="none" stroke-width="0.8" stroke="#000000" d="M -176.0 85.84948188011958L-176.0 86.21431481563992"/>
<path fill="none" stroke-width="0.8" stroke="#000000" d="M -188.0 86.21431481563992L-188.0 100.97717224766609"/>
<path fill="none" stroke-width="0.8" stroke="#000000" d="M -188.4 86.21431481563992L-176.0 86.21431481563992"/>
<path fill="none" stroke-width="0.8" stroke="#000000" d="M -176.0 86.21431481563992L-176.0 137.17718375564942"/>
<path fill="none" stroke-width="0.8" stroke="#000000" d="M -176.0 86.21431481563992L-176.0 137.17718375564942"/>
<path fill="none" stroke-width="0.8" stroke="#000000" d="M -176.0 137.17718375564942L-176.0 167.18791181633466"/>
<path fill="none" stroke-width="0.8" stroke="#000000" d="M -176.0 137.17718375564942L-176.0 167.18791181633466"/>
<path fill="none" stroke-width="0.8" stroke="#000000" d="M -176.0 167.18791181633466L-176.0 205.8537647532173"/>
<path fill="none" stroke-width="0.8" stroke="#000000" d="M -176.0 167.18791181633466L-176.0 205.8537647532173"/>
<path fill="none" stroke-width="0.8" stroke="#000000" d="M -160.0 167.18791181633466L-160.0 182.54094017346728"/>
<path fill="none" stroke-width="0.8" stroke="#000000" d="M -159.6 167.18791181633466L-176.0 167.18791181633466"/>
<path fill="none" stroke-width="0.8" stroke="#000000" d="M -148.0 137.17718375564942L-148.0 153.5474521800564"/>
<path fill="none" stroke-width="0.8" stroke="#000000" d="M -147.6 137.17718375564942L-176.0 137.17718375564942"/>
<path fill="none" stroke-width="0.8" stroke="#000000" d="M -140.0 61.29407924350912L-140.0 81.30838487093695"/>
<path fill="none" stroke-width="0.8" stroke="#000000" d="M -139.6 61.29407924350912L-176.0 61.29407924350912"/>
<path fill="none" stroke-width="0.8" stroke="#000000" d="M -132.0 58.25952765041638L-132.0 74.71134696629261"/>
<path fill="none" stroke-width="0.8" stroke="#000000" d="M -131.6 58.25952765041638L-176.0 58.25952765041638"/>
<path fill="none" stroke-width="0.8" stroke="#000000" d="M -112.0 15.425994944236672L-112.0 15.425994944236672"/>
<path fill="none" stroke-width="0.8" stroke="#000000" d="M -111.6 15.425994944236672L-176.0 15.425994944236672"/>
<path fill="none" stroke-width="0.8" stroke="#000000" d="M -112.0 15.425994944236672L-112.0 32.25981580436362"/>
<path fill="none" stroke-width="0.8" stroke="#000000" d="M -112.0 15.425994944236672L-112.0 32.25981580436362"/>
<path fill="none" stroke-width="0.8" stroke="#000000" d="M -112.0 32.25981580436362L-112.0 45.71785897288172"/>
<path fill="none" stroke-width="0.8" stroke="#000000" d="M -112.0 32.25981580436362L-112.0 45.71785897288172"/>
<path fill="none" stroke-width="0.8" stroke="#000000" d="M -112.0 45.71785897288172L-112.0 45.92173620155486"/>
<path fill="none" stroke-width="0.8" stroke="#000000" d="M -112.0 45.71785897288172L-112.0 45.92173620155486"/>
<path fill="none" stroke-width="0.8" stroke="#000000" d="M -124.0 45.92173620155486L-124.0 65.79440080695714"/>
<path fill="none" stroke-width="0.8" stroke="#000000" d="M -124.4 45.92173620155486L-112.0 45.92173620155486"/>
<path fill="none" stroke-width="0.8" stroke="#000000" d="M -112.0 45.92173620155486L-112.0 85.5640537599772"/>
<path fill="none" stroke-width="0.8" stroke="#000000" d="M -112.0 45.92173620155486L-112.0 85.5640537599772"/>
<path fill="none" stroke-width="0.8" stroke="#000000" d="M -112.0 85.5640537599772L-112.0 86.19500013081827"/>
<path fill="none" stroke-width="0.8" stroke="#000000" d="M -112.0 85.5640537599772L-112.0 86.19500013081827"/>
<path fill="none" stroke-width="0.8" stroke="#000000" d="M -112.0 86.19500013081827L-112.0 127.7902469323201"/>
<path fill="none" stroke-width="0.8" stroke="#000000" d="M -112.0 86.19500013081827L-112.0 127.7902469323201"/>
<path fill="none" stroke-width="0.8" stroke="#000000" d="M -80.0 86.19500013081827L-80.0 90.67386093335331"/>
<path fill="none" stroke-width="0.8" stroke="#000000" d="M -79.6 86.19500013081827L-112.0 86.19500013081827"/>
<path fill="none" stroke-width="0.8" stroke="#000000" d="M -80.0 90.67386093335331L-80.0 90.89705284684811"/>
<path fill="none" stroke-width="0.8" stroke="#000000" d="M -80.0 90.67386093335331L-80.0 90.89705284684811"/>
<path fill="none" stroke-width="0.8" stroke="#000000" d="M -80.0 90.89705284684811L-80.0 116.63279733367146"/>
<path fill="none" stroke-width="0.8" stroke="#000000" d="M -80.0 90.89705284684811L-80.0 116.63279733367146"/>
<path fill="none" stroke-width="0.8" stroke="#000000" d="M -100.0 116.63279733367146L-100.0 116.67357277940609"/>
<path fill="none" stroke-width="0.8" stroke="#000000" d="M -100.4 116.63279733367146L-80.0 116.63279733367146"/>
<path fill="none" stroke-width="0.8" stroke="#000000" d="M -100.0 116.67357277940609L-100.0 134.75426384857607"/>
<path fill="none" stroke-width="0.8" stroke="#000000" d="M -100.0 116.67357277940609L-100.0 134.75426384857607"/>
<path fill="none" stroke-width="0.8" stroke="#000000" d="M -92.0 116.67357277940609L-92.0 138.8661456394995"/>
<path fill="none" stroke-width="0.8" stroke="#000000" d="M -91.6 116.67357277940609L-100.0 116.67357277940609"/>
<path fill="none" stroke-width="0.8" stroke="#000000" d="M -80.0 116.63279733367146L-80.0 134.67271295710682"/>
<path fill="none" stroke-width="0.8" stroke="#000000" d="M -80.0 116.63279733367146L-80.0 134.67271295710682"/>
<path fill="none" stroke-width="0.8" stroke="#000000" d="M -68.0 90.89705284684811L-68.0 111.05514557239279"/>
<path fill="none" stroke-width="0.8" stroke="#000000" d="M -67.6 90.89705284684811L-80.0 90.89705284684811"/>
<path fill="none" stroke-width="0.8" stroke="#000000" d="M -60.0 90.67386093335331L-60.0 110.54652553875559"/>
<path fill="none" stroke-width="0.8" stroke="#000000" d="M -59.6 90.67386093335331L-80.0 90.67386093335331"/>
<path fill="none" stroke-width="0.8" stroke="#000000" d="M -52.0 85.5640537599772L-52.0 128.70662142330355"/>
<path fill="none" stroke-width="0.8" stroke="#000000" d="M -51.6 85.5640537599772L-112.0 85.5640537599772"/>
<path fill="none" stroke-width="0.8" stroke="#000000" d="M -44.0 45.71785897288172L-44.0 66.13991905765582"/>
<path fill="none" stroke-width="0.8" stroke="#000000" d="M -43.6 45.71785897288172L-112.0 45.71785897288172"/>
<path fill="none" stroke-width="0.8" stroke="#000000" d="M -24.0 32.25981580436362L-24.0 44.537517122668845"/>
<path fill="none" stroke-width="0.8" stroke="#000000" d="M -23.6 32.25981580436362L-112.0 32.25981580436362"/>
<path fill="none" stroke-width="0.8" stroke="#000000" d="M -24.0 44.537517122668845L-24.0 44.76070903616365"/>
<path fill="none" stroke-width="0.8" stroke="#000000" d="M -24.0 44.537517122668845L-24.0 44.76070903616365"/>
<path fill="none" stroke-width="0.8" stroke="#000000" d="M -36.0 44.76070903616365L-36.0 63.69553838966951"/>
<path fill="none" stroke-width="0.8" stroke="#000000" d="M -36.4 44.76070903616365L-24.0 44.76070903616365"/>
<path fill="none" stroke-width="0.8" stroke="#000000" d="M -24.0 44.76070903616365L-24.0 61.111662775748954"/>
<path fill="none" stroke-width="0.8" stroke="#000000" d="M -24.0 44.76070903616365L-24.0 61.111662775748954"/>
<path fill="none" stroke-width="0.8" stroke="#000000" d="M -24.0 61.111662775748954L-24.0 63.57535812855693"/>
<path fill="none" stroke-width="0.8" stroke="#000000" d="M -24.0 61.111662775748954L-24.0 63.57535812855693"/>
<path fill="none" stroke-width="0.8" stroke="#000000" d="M -24.0 63.57535812855693L-24.0 118.46554631563836"/>
<path fill="none" stroke-width="0.8" stroke="#000000" d="M -24.0 63.57535812855693L-24.0 118.46554631563836"/>
<path fill="none" stroke-width="0.8" stroke="#000000" d="M -24.0 118.46554631563836L-24.0 214.60760912961425"/>
<path fill="none" stroke-width="0.8" stroke="#000000" d="M -24.0 118.46554631563836L-24.0 214.60760912961425"/>
<path fill="none" stroke-width="0.8" stroke="#000000" d="M -8.0 118.46554631563836L-8.0 213.59036906233987"/>
<path fill="none" stroke-width="0.8" stroke="#000000" d="M -7.6 118.46554631563836L-24.0 118.46554631563836"/>
<path fill="none" stroke-width="0.8" stroke="#000000" d="M 4.0 63.57535812855693L4.0 83.22268474437311"/>
<path fill="none" stroke-width="0.8" stroke="#000000" d="M 4.4 63.57535812855693L-24.0 63.57535812855693"/>
<path fill="none" stroke-width="0.8" stroke="#000000" d="M 12.0 61.111662775748954L12.0 83.30423563584236"/>
<path fill="none" stroke-width="0.8" stroke="#000000" d="M 12.4 61.111662775748954L-24.0 61.111662775748954"/>
<path fill="none" stroke-width="0.8" stroke="#000000" d="M 20.0 44.537517122668845L20.0 62.860714790155306"/>
<path fill="none" stroke-width="0.8" stroke="#000000" d="M 20.4 44.537517122668845L-24.0 44.537517122668845"/>
<path fill="none" stroke-width="0.8" stroke="#000000" d="M 48.0 15.425994944236672L48.0 58.95271022790504"/>
<path fill="none" stroke-width="0.8" stroke="#000000" d="M 48.4 15.425994944236672L-112.0 15.425994944236672"/>
<path fill="none" stroke-width="0.8" stroke="#000000" d="M 48.0 58.95271022790504L48.0 61.33485468924375"/>
<path fill="none" stroke-width="0.8" stroke="#000000" d="M 48.0 58.95271022790504L48.0 61.33485468924375"/>
<path fill="none" stroke-width="0.8" stroke="#000000" d="M 48.0 61.33485468924375L48.0 85.86879656494125"/>
<path fill="none" stroke-width="0.8" stroke="#000000" d="M 48.0 61.33485468924375L48.0 85.86879656494125"/>
<path fill="none" stroke-width="0.8" stroke="#000000" d="M 48.0 85.86879656494125L48.0 86.80663181683767"/>
<path fill="none" stroke-width="0.8" stroke="#000000" d="M 48.0 85.86879656494125L48.0 86.80663181683767"/>
<path fill="none" stroke-width="0.8" stroke="#000000" d="M 48.0 86.80663181683767L48.0 136.93253108124165"/>
<path fill="none" stroke-width="0.8" stroke="#000000" d="M 48.0 86.80663181683767L48.0 136.93253108124165"/>
<path fill="none" stroke-width="0.8" stroke="#000000" d="M 28.0 136.93253108124165L28.0 152.97659593977164"/>
<path fill="none" stroke-width="0.8" stroke="#000000" d="M 27.6 136.93253108124165L48.0 136.93253108124165"/>
<path fill="none" stroke-width="0.8" stroke="#000000" d="M 48.0 136.93253108124165L48.0 181.3176768014285"/>
<path fill="none" stroke-width="0.8" stroke="#000000" d="M 48.0 136.93253108124165L48.0 181.3176768014285"/>
<path fill="none" stroke-width="0.8" stroke="#000000" d="M 36.0 181.3176768014285L36.0 205.03825583852475"/>
<path fill="none" stroke-width="0.8" stroke="#000000" d="M 35.6 181.3176768014285L48.0 181.3176768014285"/>
<path fill="none" stroke-width="0.8" stroke="#000000" d="M 48.0 181.3176768014285L48.0 203.6132613139041"/>
<path fill="none" stroke-width="0.8" stroke="#000000" d="M 48.0 181.3176768014285L48.0 203.6132613139041"/>
<path fill="none" stroke-width="0.8" stroke="#000000" d="M 60.0 86.80663181683767L60.0 101.01794769340073"/>
<path fill="none" stroke-width="0.8" stroke="#000000" d="M 60.4 86.80663181683767L48.0 86.80663181683767"/>
<path fill="none" stroke-width="0.8" stroke="#000000" d="M 68.0 85.86879656494125L68.0 96.98547071785526"/>
<path fill="none" stroke-width="0.8" stroke="#000000" d="M 68.4 85.86879656494125L48.0 85.86879656494125"/>
<path fill="none" stroke-width="0.8" stroke="#000000" d="M 76.0 61.33485468924375L76.0 81.47148665387546"/>
<path fill="none" stroke-width="0.8" stroke="#000000" d="M 76.4 61.33485468924375L48.0 61.33485468924375"/>
<path fill="none" stroke-width="0.8" stroke="#000000" d="M 84.0 58.95271022790504L84.0 75.07832597790424"/>
<path fill="none" stroke-width="0.8" stroke="#000000" d="M 84.4 58.95271022790504L48.0 58.95271022790504"/>
<path fill="none" stroke-width="0.8" stroke="#000000" d="M 92.0 10.369195850315572L92.0 19.969881852337995"/>
<path fill="none" stroke-width="0.8" stroke="#000000" d="M 92.4 10.369195850315572L-208.0 10.369195850315572"/>
<path fill="none" stroke-width="0.8" stroke="#000000" d="M 92.0 19.969881852337995L92.0 83.36432576639866"/>
<path fill="none" stroke-width="0.8" stroke="#000000" d="M 92.0 19.969881852337995L92.0 83.36432576639866"/>
<path fill="none" stroke-width="0.8" stroke="#000000" d="M 100.0 19.969881852337995L100.0 83.18190929863849"/>
<path fill="none" stroke-width="0.8" stroke="#000000" d="M 100.4 19.969881852337995L92.0 19.969881852337995"/>
<path fill="none" stroke-width="0.8" stroke="#000000" d="M 108.0 10.366620559006016L108.0 78.41762037596105"/>
<path fill="none" stroke-width="0.8" stroke="#000000" d="M 108.4 10.366620559006016L-208.0 10.366620559006016"/>
</g>
</g>
<g transform="matrix(1.0 0.0 0.0 1.0 601.0 350.0)">
<g >
<path fill="none" stroke-width="4.0" stroke="#000000" d="M -208.0 10.366620559006016L-208.0 -34.69505044069825"/>
<path fill="none" stroke-width="4.0" stroke="#000000" d="M -208.0 10.369410457924701L-208.0 42.3483539764931L-208.0 10.369410457924701L-208.0 42.3483539764931L-208.0 10.369195850315572L-208.0 10.369410457924701L-208.0 10.366620559006016L-208.0 10.369195850315572L-208.0 10.366620559006016L-208.0 -34.69505044069825"/>
<path fill="#c64340" stroke-width="0.8" stroke="#000000" d="M -212.0 -38.69505044069825L-204.0 -38.69505044069825L-204.0 -30.695050440698253L-212.0 -30.695050440698253L-212.0 -38.69505044069825z"/>
<path fill="#c64340" stroke-width="2.4" stroke="#c64340" d="M -208.0 10.369410457924701L-208.0 41.548353976493104L-208.0 10.369410457924701L-208.0 41.548353976493104L-208.0 10.369195850315572L-208.0 10.369410457924701L-208.0 10.366620559006016L-208.0 10.369195850315572L-208.0 10.366620559006016L-208.0 -34.69505044069825"/>
<path fill="none" stroke-width="4.0" stroke="#000000" d="M -176.0 167.18791181633466L-176.0 169.51923272472607L-176.0 167.18791181633466L-176.0 169.51923272472607L-176.0 137.17718375564942L-176.0 167.18791181633466L-176.0 86.21431481563992L-176.0 137.17718375564942L-176.0 85.84948188011958L-176.0 86.21431481563992L-176.0 61.29407924350912L-176.0 85.84948188011958L-176.0 58.25952765041638L-176.0 61.29407924350912L-176.0 15.425994944236672L-176.0 58.25952765041638L-176.0 10.369410457924701L-176.0 15.425994944236672"/>
<path fill="#fb827a" stroke-width="0.8" stroke="#000000" d="M -180.0 6.369410457924701L-172.0 6.369410457924701L-172.0 14.369410457924701L-180.0 14.369410457924701L-180.0 6.369410457924701z"/>
<path fill="#fb827a" stroke-width="2.4" stroke="#fb827a" d="M -176.0 167.18791181633466L-176.0 168.71923272472606L-176.0 167.18791181633466L-176.0 168.71923272472606L-176.0 137.17718375564942L-176.0 167.18791181633466L-176.0 86.21431481563992L-176.0 137.17718375564942L-176.0 85.84948188011958L-176.0 86.21431481563992L-176.0 61.29407924350912L-176.0 85.84948188011958L-176.0 58.25952765041638L-176.0 61.29407924350912L-176.0 15.425994944236672L-176.0 58.25952765041638L-176.0 10.369410457924701L-176.0 15.425994944236672"/>
<path fill="none" stroke-width="4.0" stroke="#000000" d="M -112.0 86.19500013081827L-112.0 101.2032775036085L-112.0 86.19500013081827L-112.0 101.2032775036085L-112.0 85.5640537599772L-112.0 86.19500013081827L-112.0 45.92173620155486L-112.0 85.5640537599772L-112.0 45.71785897288172L-112.0 45.92173620155486L-112.0 32.25981580436362L-112.0 45.71785897288172L-112.0 15.425994944236672L-112.0 32.25981580436362L-112.0 15.425994944236672L-112.0 15.425994944236672"/>
<path fill="#ffd6d1" stroke-width="0.8" stroke="#000000" d="M -116.0 11.42599494423667L-108.0 11.42599494423667L-108.0 19.42599494423667L-116.0 19.42599494423667L-116.0 11.42599494423667z"/>
<path fill="#ffd6d1" stroke-width="2.4" stroke="#ffd6d1" d="M -112.0 86.19500013081827L-112.0 100.4032775036085L-112.0 86.19500013081827L-112.0 100.4032775036085L-112.0 85.5640537599772L-112.0 86.19500013081827L-112.0 45.92173620155486L-112.0 85.5640537599772L-112.0 45.71785897288172L-112.0 45.92173620155486L-112.0 32.25981580436362L-112.0 45.71785897288172L-112.0 15.425994944236672L-112.0 32.25981580436362L-112.0 15.425994944236672L-112.0 15.425994944236672"/>
<path fill="none" stroke-width="4.0" stroke="#000000" d="M 48.0 136.93253108124165L48.0 178.60202169487903L48.0 136.93253108124165L48.0 178.60202169487903L48.0 86.80663181683767L48.0 136.93253108124165L48.0 85.86879656494125L48.0 86.80663181683767L48.0 61.33485468924375L48.0 85.86879656494125L48.0 58.95271022790504L48.0 61.33485468924375L48.0 15.425994944236672L48.0 58.95271022790504"/>
<path fill="#ffd6d1" stroke-width="0.8" stroke="#000000" d="M 44.0 11.42599494423667L52.0 11.42599494423667L52.0 19.42599494423667L44.0 19.42599494423667L44.0 11.42599494423667z"/>
<path fill="#ffd6d1" stroke-width="2.4" stroke="#ffd6d1" d="M 48.0 136.93253108124165L48.0 177.80202169487904L48.0 136.93253108124165L48.0 177.80202169487904L48.0 86.80663181683767L48.0 136.93253108124165L48.0 85.86879656494125L48.0 86.80663181683767L48.0 61.33485468924375L48.0 85.86879656494125L48.0 58.95271022790504L48.0 61.33485468924375L48.0 15.425994944236672L48.0 58.95271022790504"/>
<path fill="none" stroke-width="4.0" stroke="#000000" d="M -24.0 118.46554631563836L-24.0 166.38467611060673L-24.0 118.46554631563836L-24.0 166.38467611060673L-24.0 63.57535812855693L-24.0 118.46554631563836L-24.0 61.111662775748954L-24.0 63.57535812855693L-24.0 44.76070903616365L-24.0 61.111662775748954L-24.0 44.537517122668845L-24.0 44.76070903616365L-24.0 32.25981580436362L-24.0 44.537517122668845"/>
<path fill="#c64340" stroke-width="0.8" stroke="#000000" d="M -28.0 28.259815804363612L-20.0 28.259815804363612L-20.0 36.25981580436361L-28.0 36.25981580436361L-28.0 28.259815804363612z"/>
<path fill="#c64340" stroke-width="2.4" stroke="#c64340" d="M -24.0 118.46554631563836L-24.0 165.58467611060675L-24.0 118.46554631563836L-24.0 165.58467611060675L-24.0 63.57535812855693L-24.0 118.46554631563836L-24.0 61.111662775748954L-24.0 63.57535812855693L-24.0 44.76070903616365L-24.0 61.111662775748954L-24.0 44.537517122668845L-24.0 44.76070903616365L-24.0 32.25981580436362L-24.0 44.537517122668845"/>
<path fill="none" stroke-width="4.0" stroke="#000000" d="M -80.0 90.89705284684811L-80.0 101.12499884697152L-80.0 90.89705284684811L-80.0 101.12499884697152L-80.0 90.67386093335331L-80.0 90.89705284684811L-80.0 86.19500013081827L-80.0 90.67386093335331"/>
<path fill="#c64340" stroke-width="0.8" stroke="#000000" d="M -84.0 82.19500013081827L-76.0 82.19500013081827L-76.0 90.19500013081827L-84.0 90.19500013081827L-84.0 82.19500013081827z"/>
<path fill="#c64340" stroke-width="2.4" stroke="#c64340" d="M -80.0 90.89705284684811L-80.0 100.32499884697152L-80.0 90.89705284684811L-80.0 100.32499884697152L-80.0 90.67386093335331L-80.0 90.89705284684811L-80.0 86.19500013081827L-80.0 90.67386093335331"/>
<path fill="none" stroke-width="4.0" stroke="#000000" d="M -8.0 118.46554631563836L-8.0 162.1188080480633L-8.0 118.46554631563836L-8.0 162.1188080480633"/>
<path fill="#fb827a" stroke-width="0.8" stroke="#000000" d="M -12.0 114.46554631563838L-4.0 114.46554631563838L-4.0 122.46554631563838L-12.0 122.46554631563838L-12.0 114.46554631563838z"/>
<path fill="#fb827a" stroke-width="2.4" stroke="#fb827a" d="M -8.0 118.46554631563836L-8.0 161.31880804806332L-8.0 118.46554631563836L-8.0 161.31880804806332"/>
<path fill="none" stroke-width="4.0" stroke="#000000" d="M -160.0 167.18791181633466L-160.0 177.64055835770023L-160.0 167.18791181633466L-160.0 177.64055835770023"/>
<path fill="#ffd6d1" stroke-width="0.8" stroke="#000000" d="M -164.0 163.1879118163347L-156.0 163.1879118163347L-156.0 171.1879118163347L-164.0 171.1879118163347L-164.0 163.1879118163347z"/>
<path fill="#ffd6d1" stroke-width="2.4" stroke="#ffd6d1" d="M -160.0 167.18791181633466L-160.0 176.84055835770022L-160.0 167.18791181633466L-160.0 176.84055835770022"/>
</g>
</g>
<g transform="matrix(1.0 0.0 0.0 1.0 811.0 350.0)">
<g >
<path fill="none" stroke-width="0.8" stroke="#000000" d="M -64.0 9.80735312961424L-64.0 78.28456365830068"/>
<path fill="none" stroke-width="0.8" stroke="#000000" d="M -64.4 9.80735312961424L-36.0 9.80735312961424"/>
<path fill="none" stroke-width="0.8" stroke="#000000" d="M -36.0 9.80735312961424L-36.0 9.81379135788813"/>
<path fill="none" stroke-width="0.8" stroke="#000000" d="M -36.0 9.80735312961424L-36.0 9.81379135788813"/>
<path fill="none" stroke-width="0.8" stroke="#000000" d="M -56.0 9.81379135788813L-56.0 19.307388162954876"/>
<path fill="none" stroke-width="0.8" stroke="#000000" d="M -56.4 9.81379135788813L-36.0 9.81379135788813"/>
<path fill="none" stroke-width="0.8" stroke="#000000" d="M -56.0 19.307388162954876L-56.0 71.61670524264358"/>
<path fill="none" stroke-width="0.8" stroke="#000000" d="M -56.0 19.307388162954876L-56.0 71.61670524264358"/>
<path fill="none" stroke-width="0.8" stroke="#000000" d="M -48.0 19.307388162954876L-48.0 71.50081713371358"/>
<path fill="none" stroke-width="0.8" stroke="#000000" d="M -47.6 19.307388162954876L-56.0 19.307388162954876"/>
<path fill="none" stroke-width="0.8" stroke="#000000" d="M -36.0 9.81379135788813L-36.0 9.814005965497259"/>
<path fill="none" stroke-width="0.8" stroke="#000000" d="M -36.0 9.81379135788813L-36.0 9.814005965497259"/>
<path fill="none" stroke-width="0.8" stroke="#000000" d="M -36.0 9.814005965497259L-36.0 78.40045176723068"/>
<path fill="none" stroke-width="0.8" stroke="#000000" d="M -36.0 9.814005965497259L-36.0 78.40045176723068"/>
<path fill="none" stroke-width="0.8" stroke="#000000" d="M 212.0 9.814005965497259L212.0 14.982186408556629"/>
<path fill="none" stroke-width="0.8" stroke="#000000" d="M 212.4 9.814005965497259L-36.0 9.814005965497259"/>
<path fill="none" stroke-width="0.8" stroke="#000000" d="M 140.0 14.982186408556629L140.0 14.984117877038795"/>
<path fill="none" stroke-width="0.8" stroke="#000000" d="M 139.6 14.982186408556629L212.0 14.982186408556629"/>
<path fill="none" stroke-width="0.8" stroke="#000000" d="M 4.0 14.984117877038795L4.0 59.65233103366757"/>
<path fill="none" stroke-width="0.8" stroke="#000000" d="M 3.6 14.984117877038795L140.0 14.984117877038795"/>
<path fill="none" stroke-width="0.8" stroke="#000000" d="M 4.0 59.65233103366757L4.0 62.761995289955685"/>
<path fill="none" stroke-width="0.8" stroke="#000000" d="M 4.0 59.65233103366757L4.0 62.761995289955685"/>
<path fill="none" stroke-width="0.8" stroke="#000000" d="M 4.0 62.761995289955685L4.0 81.41139652331917"/>
<path fill="none" stroke-width="0.8" stroke="#000000" d="M 4.0 62.761995289955685L4.0 81.41139652331917"/>
<path fill="none" stroke-width="0.8" stroke="#000000" d="M -24.0 81.41139652331917L-24.0 93.6311537871594"/>
<path fill="none" stroke-width="0.8" stroke="#000000" d="M -24.4 81.41139652331917L4.0 81.41139652331917"/>
<path fill="none" stroke-width="0.8" stroke="#000000" d="M 4.0 81.41139652331917L4.0 83.52313539715456"/>
<path fill="none" stroke-width="0.8" stroke="#000000" d="M 4.0 81.41139652331917L4.0 83.52313539715456"/>
<path fill="none" stroke-width="0.8" stroke="#000000" d="M -16.0 83.52313539715456L-16.0 96.77944741309085"/>
<path fill="none" stroke-width="0.8" stroke="#000000" d="M -16.4 83.52313539715456L4.0 83.52313539715456"/>
<path fill="none" stroke-width="0.8" stroke="#000000" d="M 4.0 83.52313539715456L4.0 190.15092599320343"/>
<path fill="none" stroke-width="0.8" stroke="#000000" d="M 4.0 83.52313539715456L4.0 190.15092599320343"/>
<path fill="none" stroke-width="0.8" stroke="#000000" d="M -8.0 190.15092599320343L-8.0 204.83223253376033"/>
<path fill="none" stroke-width="0.8" stroke="#000000" d="M -8.4 190.15092599320343L4.0 190.15092599320343"/>
<path fill="none" stroke-width="0.8" stroke="#000000" d="M 4.0 190.15092599320343L4.0 213.43585158376655"/>
<path fill="none" stroke-width="0.8" stroke="#000000" d="M 4.0 190.15092599320343L4.0 213.43585158376655"/>
<path fill="none" stroke-width="0.8" stroke="#000000" d="M 16.0 62.761995289955685L16.0 80.6109101412657"/>
<path fill="none" stroke-width="0.8" stroke="#000000" d="M 16.4 62.761995289955685L4.0 62.761995289955685"/>
<path fill="none" stroke-width="0.8" stroke="#000000" d="M 24.0 59.65233103366757L24.0 78.12790010363607"/>
<path fill="none" stroke-width="0.8" stroke="#000000" d="M 24.4 59.65233103366757L4.0 59.65233103366757"/>
<path fill="none" stroke-width="0.8" stroke="#000000" d="M 140.0 14.984117877038795L140.0 30.89491141029927"/>
<path fill="none" stroke-width="0.8" stroke="#000000" d="M 140.0 14.984117877038795L140.0 30.89491141029927"/>
<path fill="none" stroke-width="0.8" stroke="#000000" d="M 100.0 30.89491141029927L100.0 41.94076505220051"/>
<path fill="none" stroke-width="0.8" stroke="#000000" d="M 99.6 30.89491141029927L140.0 30.89491141029927"/>
<path fill="none" stroke-width="0.8" stroke="#000000" d="M 100.0 41.94076505220051L100.0 42.116743291686795"/>
<path fill="none" stroke-width="0.8" stroke="#000000" d="M 100.0 41.94076505220051L100.0 42.116743291686795"/>
<path fill="none" stroke-width="0.8" stroke="#000000" d="M 100.0 42.116743291686795L100.0 73.35717295268475"/>
<path fill="none" stroke-width="0.8" stroke="#000000" d="M 100.0 42.116743291686795L100.0 73.35717295268475"/>
<path fill="none" stroke-width="0.8" stroke="#000000" d="M 68.0 73.35717295268475L68.0 73.55246587699268"/>
<path fill="none" stroke-width="0.8" stroke="#000000" d="M 67.6 73.35717295268475L100.0 73.35717295268475"/>
<path fill="none" stroke-width="0.8" stroke="#000000" d="M 32.0 73.55246587699268L32.0 111.75476637815532"/>
<path fill="none" stroke-width="0.8" stroke="#000000" d="M 31.6 73.55246587699268L68.0 73.55246587699268"/>
<path fill="none" stroke-width="0.8" stroke="#000000" d="M 68.0 73.55246587699268L68.0 86.84740726257229"/>
<path fill="none" stroke-width="0.8" stroke="#000000" d="M 68.0 73.55246587699268L68.0 86.84740726257229"/>
<path fill="none" stroke-width="0.8" stroke="#000000" d="M 68.0 86.84740726257229L68.0 87.66720832944742"/>
<path fill="none" stroke-width="0.8" stroke="#000000" d="M 68.0 86.84740726257229L68.0 87.66720832944742"/>
<path fill="none" stroke-width="0.8" stroke="#000000" d="M 68.0 87.66720832944742L68.0 104.7542661683473"/>
<path fill="none" stroke-width="0.8" stroke="#000000" d="M 68.0 87.66720832944742L68.0 104.7542661683473"/>
<path fill="none" stroke-width="0.8" stroke="#000000" d="M 40.0 104.7542661683473L40.0 111.96937398728494"/>
<path fill="none" stroke-width="0.8" stroke="#000000" d="M 39.6 104.7542661683473L68.0 104.7542661683473"/>
<path fill="none" stroke-width="0.8" stroke="#000000" d="M 40.0 111.96937398728494L40.0 112.06594741139327"/>
<path fill="none" stroke-width="0.8" stroke="#000000" d="M 40.0 111.96937398728494L40.0 112.06594741139327"/>
<path fill="none" stroke-width="0.8" stroke="#000000" d="M 40.0 112.06594741139327L40.0 137.07202602717592"/>
<path fill="none" stroke-width="0.8" stroke="#000000" d="M 40.0 112.06594741139327L40.0 137.07202602717592"/>
<path fill="none" stroke-width="0.8" stroke="#000000" d="M 48.0 112.06594741139327L48.0 136.8960477876896"/>
<path fill="none" stroke-width="0.8" stroke="#000000" d="M 48.4 112.06594741139327L40.0 112.06594741139327"/>
<path fill="none" stroke-width="0.8" stroke="#000000" d="M 56.0 111.96937398728494L56.0 136.9539918421546"/>
<path fill="none" stroke-width="0.8" stroke="#000000" d="M 56.4 111.96937398728494L40.0 111.96937398728494"/>
<path fill="none" stroke-width="0.8" stroke="#000000" d="M 68.0 104.7542661683473L68.0 123.79639932641797"/>
<path fill="none" stroke-width="0.8" stroke="#000000" d="M 68.0 104.7542661683473L68.0 123.79639932641797"/>
<path fill="none" stroke-width="0.8" stroke="#000000" d="M 80.0 87.66720832944742L80.0 104.65769274423897"/>
<path fill="none" stroke-width="0.8" stroke="#000000" d="M 80.4 87.66720832944742L68.0 87.66720832944742"/>
<path fill="none" stroke-width="0.8" stroke="#000000" d="M 88.0 86.84740726257229L88.0 104.05035321040216"/>
<path fill="none" stroke-width="0.8" stroke="#000000" d="M 88.4 86.84740726257229L68.0 86.84740726257229"/>
<path fill="none" stroke-width="0.8" stroke="#000000" d="M 100.0 73.35717295268475L100.0 112.39858920554416"/>
<path fill="none" stroke-width="0.8" stroke="#000000" d="M 100.0 73.35717295268475L100.0 112.39858920554416"/>
<path fill="none" stroke-width="0.8" stroke="#000000" d="M 112.0 42.116743291686795L112.0 63.3092446932362"/>
<path fill="none" stroke-width="0.8" stroke="#000000" d="M 112.4 42.116743291686795L100.0 42.116743291686795"/>
<path fill="none" stroke-width="0.8" stroke="#000000" d="M 120.0 41.94076505220051L120.0 63.699830541852094"/>
<path fill="none" stroke-width="0.8" stroke="#000000" d="M 120.4 41.94076505220051L100.0 41.94076505220051"/>
<path fill="none" stroke-width="0.8" stroke="#000000" d="M 140.0 30.89491141029927L140.0 41.02009840903447"/>
<path fill="none" stroke-width="0.8" stroke="#000000" d="M 140.0 30.89491141029927L140.0 41.02009840903447"/>
<path fill="none" stroke-width="0.8" stroke="#000000" d="M 128.0 41.02009840903447L128.0 57.639311660031794"/>
<path fill="none" stroke-width="0.8" stroke="#000000" d="M 127.6 41.02009840903447L140.0 41.02009840903447"/>
<path fill="none" stroke-width="0.8" stroke="#000000" d="M 140.0 41.02009840903447L140.0 41.54803312749332"/>
<path fill="none" stroke-width="0.8" stroke="#000000" d="M 140.0 41.02009840903447L140.0 41.54803312749332"/>
<path fill="none" stroke-width="0.8" stroke="#000000" d="M 140.0 41.54803312749332L140.0 56.602756907935756"/>
<path fill="none" stroke-width="0.8" stroke="#000000" d="M 140.0 41.54803312749332L140.0 56.602756907935756"/>
<path fill="none" stroke-width="0.8" stroke="#000000" d="M 140.0 56.602756907935756L140.0 58.04921219346936"/>
<path fill="none" stroke-width="0.8" stroke="#000000" d="M 140.0 56.602756907935756L140.0 58.04921219346936"/>
<path fill="none" stroke-width="0.8" stroke="#000000" d="M 140.0 58.04921219346936L140.0 109.4284198951903"/>
<path fill="none" stroke-width="0.8" stroke="#000000" d="M 140.0 58.04921219346936L140.0 109.4284198951903"/>
<path fill="none" stroke-width="0.8" stroke="#000000" d="M 140.0 109.4284198951903L140.0 202.48657136597365"/>
<path fill="none" stroke-width="0.8" stroke="#000000" d="M 140.0 109.4284198951903L140.0 202.48657136597365"/>
<path fill="none" stroke-width="0.8" stroke="#000000" d="M 156.0 109.4284198951903L156.0 198.18583487901617"/>
<path fill="none" stroke-width="0.8" stroke="#000000" d="M 156.4 109.4284198951903L140.0 109.4284198951903"/>
<path fill="none" stroke-width="0.8" stroke="#000000" d="M 168.0 58.04921219346936L168.0 70.05221577208869"/>
<path fill="none" stroke-width="0.8" stroke="#000000" d="M 168.4 58.04921219346936L140.0 58.04921219346936"/>
<path fill="none" stroke-width="0.8" stroke="#000000" d="M 176.0 56.602756907935756L176.0 70.03290108726702"/>
<path fill="none" stroke-width="0.8" stroke="#000000" d="M 176.4 56.602756907935756L140.0 56.602756907935756"/>
<path fill="none" stroke-width="0.8" stroke="#000000" d="M 184.0 41.54803312749332L184.0 57.30666986588089"/>
<path fill="none" stroke-width="0.8" stroke="#000000" d="M 184.4 41.54803312749332L140.0 41.54803312749332"/>
<path fill="none" stroke-width="0.8" stroke="#000000" d="M 212.0 14.982186408556629L212.0 59.77036521868886"/>
<path fill="none" stroke-width="0.8" stroke="#000000" d="M 212.0 14.982186408556629L212.0 59.77036521868886"/>
<path fill="none" stroke-width="0.8" stroke="#000000" d="M 212.0 59.77036521868886L212.0 62.311319310783496"/>
<path fill="none" stroke-width="0.8" stroke="#000000" d="M 212.0 59.77036521868886L212.0 62.311319310783496"/>
<path fill="none" stroke-width="0.8" stroke="#000000" d="M 212.0 62.311319310783496L212.0 81.47148665387546"/>
<path fill="none" stroke-width="0.8" stroke="#000000" d="M 212.0 62.311319310783496L212.0 81.47148665387546"/>
<path fill="none" stroke-width="0.8" stroke="#000000" d="M 192.0 81.47148665387546L192.0 93.72772721126773"/>
<path fill="none" stroke-width="0.8" stroke="#000000" d="M 191.6 81.47148665387546L212.0 81.47148665387546"/>
<path fill="none" stroke-width="0.8" stroke="#000000" d="M 212.0 81.47148665387546L212.0 83.38578652731162"/>
<path fill="none" stroke-width="0.8" stroke="#000000" d="M 212.0 81.47148665387546L212.0 83.38578652731162"/>
<path fill="none" stroke-width="0.8" stroke="#000000" d="M 200.0 83.38578652731162L200.0 96.77944741309085"/>
<path fill="none" stroke-width="0.8" stroke="#000000" d="M 199.6 83.38578652731162L212.0 83.38578652731162"/>
<path fill="none" stroke-width="0.8" stroke="#000000" d="M 212.0 83.38578652731162L212.0 214.60760912961425"/>
<path fill="none" stroke-width="0.8" stroke="#000000" d="M 212.0 83.38578652731162L212.0 214.60760912961425"/>
<path fill="none" stroke-width="0.8" stroke="#000000" d="M 224.0 62.311319310783496L224.0 81.02081067470326"/>
<path fill="none" stroke-width="0.8" stroke="#000000" d="M 224.4 62.311319310783496L212.0 62.311319310783496"/>
<path fill="none" stroke-width="0.8" stroke="#000000" d="M 232.0 59.77036521868886L232.0 78.14721478845773"/>
<path fill="none" stroke-width="0.8" stroke="#000000" d="M 232.4 59.77036521868886L212.0 59.77036521868886"/>
</g>
</g>
<g transform="matrix(1.0 0.0 0.0 1.0 811.0 350.0)">
<g >
<path fill="none" stroke-width="4.0" stroke="#000000" d="M -36.0 9.80735312961424L-36.0 -34.13578301130648"/>
<path fill="none" stroke-width="4.0" stroke="#000000" d="M -36.0 9.814005965497259L-36.0 42.190933983127L-36.0 9.814005965497259L-36.0 42.190933983127L-36.0 9.81379135788813L-36.0 9.814005965497259L-36.0 9.80735312961424L-36.0 9.81379135788813L-36.0 9.80735312961424L-36.0 -34.69505044069825"/>
<path fill="#3077cb" stroke-width="0.8" stroke="#000000" d="M -40.0 -38.69505044069825L-32.0 -38.69505044069825L-32.0 -30.695050440698253L-40.0 -30.695050440698253L-40.0 -38.69505044069825z"/>
<path fill="#3077cb" stroke-width="2.4" stroke="#3077cb" d="M -36.0 9.814005965497259L-36.0 41.390933983127L-36.0 9.814005965497259L-36.0 41.390933983127L-36.0 9.81379135788813L-36.0 9.814005965497259L-36.0 9.80735312961424L-36.0 9.81379135788813L-36.0 9.80735312961424L-36.0 -34.69505044069825"/>
<path fill="none" stroke-width="4.0" stroke="#000000" d="M 212.0 83.38578652731162L212.0 168.6354743406747L212.0 83.38578652731162L212.0 168.6354743406747L212.0 81.47148665387546L212.0 83.38578652731162L212.0 62.311319310783496L212.0 81.47148665387546L212.0 59.77036521868886L212.0 62.311319310783496L212.0 14.982186408556629L212.0 59.77036521868886L212.0 9.814005965497259L212.0 14.982186408556629"/>
<path fill="#75aef7" stroke-width="0.8" stroke="#000000" d="M 208.0 5.814005965497259L216.0 5.814005965497259L216.0 13.814005965497259L208.0 13.814005965497259L208.0 5.814005965497259z"/>
<path fill="#75aef7" stroke-width="2.4" stroke="#75aef7" d="M 212.0 83.38578652731162L212.0 167.8354743406747L212.0 83.38578652731162L212.0 167.8354743406747L212.0 81.47148665387546L212.0 83.38578652731162L212.0 62.311319310783496L212.0 81.47148665387546L212.0 59.77036521868886L212.0 62.311319310783496L212.0 14.982186408556629L212.0 59.77036521868886L212.0 9.814005965497259L212.0 14.982186408556629"/>
<path fill="none" stroke-width="4.0" stroke="#000000" d="M 140.0 109.4284198951903L140.0 177.94895586650293L140.0 109.4284198951903L140.0 177.94895586650293L140.0 58.04921219346936L140.0 109.4284198951903L140.0 56.602756907935756L140.0 58.04921219346936L140.0 41.54803312749332L140.0 56.602756907935756L140.0 41.02009840903447L140.0 41.54803312749332L140.0 30.89491141029927L140.0 41.02009840903447L140.0 14.984117877038795L140.0 30.89491141029927L140.0 14.982186408556629L140.0 14.984117877038795"/>
<path fill="#d0e4fe" stroke-width="0.8" stroke="#000000" d="M 136.0 10.982186408556629L144.0 10.982186408556629L144.0 18.98218640855663L136.0 18.98218640855663L136.0 10.982186408556629z"/>
<path fill="#d0e4fe" stroke-width="2.4" stroke="#d0e4fe" d="M 140.0 109.4284198951903L140.0 177.14895586650294L140.0 109.4284198951903L140.0 177.14895586650294L140.0 58.04921219346936L140.0 109.4284198951903L140.0 56.602756907935756L140.0 58.04921219346936L140.0 41.54803312749332L140.0 56.602756907935756L140.0 41.02009840903447L140.0 41.54803312749332L140.0 30.89491141029927L140.0 41.02009840903447L140.0 14.984117877038795L140.0 30.89491141029927L140.0 14.982186408556629L140.0 14.984117877038795"/>
<path fill="none" stroke-width="4.0" stroke="#000000" d="M 4.0 83.52313539715456L4.0 169.30865166430243L4.0 83.52313539715456L4.0 169.30865166430243L4.0 81.41139652331917L4.0 83.52313539715456L4.0 62.761995289955685L4.0 81.41139652331917L4.0 59.65233103366757L4.0 62.761995289955685L4.0 14.984117877038795L4.0 59.65233103366757"/>
<path fill="#d0e4fe" stroke-width="0.8" stroke="#000000" d="M 0.0 10.984117877038798L8.0 10.984117877038798L8.0 18.9841178770388L0.0 18.9841178770388L0.0 10.984117877038798z"/>
<path fill="#d0e4fe" stroke-width="2.4" stroke="#d0e4fe" d="M 4.0 83.52313539715456L4.0 168.50865166430242L4.0 83.52313539715456L4.0 168.50865166430242L4.0 81.41139652331917L4.0 83.52313539715456L4.0 62.761995289955685L4.0 81.41139652331917L4.0 59.65233103366757L4.0 62.761995289955685L4.0 14.984117877038795L4.0 59.65233103366757"/>
<path fill="none" stroke-width="4.0" stroke="#000000" d="M 100.0 73.35717295268475L100.0 92.90478372757268L100.0 73.35717295268475L100.0 92.90478372757268L100.0 42.116743291686795L100.0 73.35717295268475L100.0 41.94076505220051L100.0 42.116743291686795L100.0 30.89491141029927L100.0 41.94076505220051"/>
<path fill="#3077cb" stroke-width="0.8" stroke="#000000" d="M 96.0 26.894911410299272L104.0 26.894911410299272L104.0 34.89491141029927L96.0 34.89491141029927L96.0 26.894911410299272z"/>
<path fill="#3077cb" stroke-width="2.4" stroke="#3077cb" d="M 100.0 73.35717295268475L100.0 92.10478372757268L100.0 73.35717295268475L100.0 92.10478372757268L100.0 42.116743291686795L100.0 73.35717295268475L100.0 41.94076505220051L100.0 42.116743291686795L100.0 30.89491141029927L100.0 41.94076505220051"/>
<path fill="none" stroke-width="4.0" stroke="#000000" d="M 68.0 87.66720832944742L68.0 103.01658431108494L68.0 87.66720832944742L68.0 103.01658431108494L68.0 86.84740726257229L68.0 87.66720832944742L68.0 73.55246587699268L68.0 86.84740726257229L68.0 73.35717295268475L68.0 73.55246587699268"/>
<path fill="#75aef7" stroke-width="0.8" stroke="#000000" d="M 64.0 69.35717295268475L72.0 69.35717295268475L72.0 77.35717295268475L64.0 77.35717295268475L64.0 69.35717295268475z"/>
<path fill="#75aef7" stroke-width="2.4" stroke="#75aef7" d="M 68.0 87.66720832944742L68.0 102.21658431108494L68.0 87.66720832944742L68.0 102.21658431108494L68.0 86.84740726257229L68.0 87.66720832944742L68.0 73.55246587699268L68.0 86.84740726257229L68.0 73.35717295268475L68.0 73.55246587699268"/>
<path fill="none" stroke-width="4.0" stroke="#000000" d="M 156.0 109.4284198951903L156.0 177.01617770480186L156.0 109.4284198951903L156.0 177.01617770480186"/>
<path fill="#3077cb" stroke-width="0.8" stroke="#000000" d="M 152.0 105.42841989519029L160.0 105.42841989519029L160.0 113.42841989519029L152.0 113.42841989519029L152.0 105.42841989519029z"/>
<path fill="#3077cb" stroke-width="2.4" stroke="#3077cb" d="M 156.0 109.4284198951903L156.0 176.21617770480185L156.0 109.4284198951903L156.0 176.21617770480185"/>
</g>
</g>
</g>
</svg>