<?xml version="1.0" encoding="utf-8"?>
<svg version="1.2" baseProfile="tiny" id="openrndr-svg" xmlns="http://www.w3.org/2000/svg" xmlns:xlink="http://www.w3.org/1999/xlink" height="576.0" x="0.0" y="0.0" width="768.0" ><g >
<g transform="matrix(1.0 0.0 0.0 1.0 429.0 350.0)">
<g >
<path fill="#75aef7" d="M 156.0 124.56472828247999L156.0 143.34748576939728L156.0 197.48635271284203L140.0 197.48635271284203L140.0 197.49635271284203L140.0 200.76293921568112L132.0 200.76293921568112L132.0 197.49635271284203L132.0 143.34748576939728L132.0 124.56472828247999L140.0 124.56472828247999L156.0 124.56472828247999z"/>
<path fill="#d0e4fe" d="M 132.0 116.9362354788986L140.0 116.9362354788986L156.0 116.9362354788986L156.0 124.56482828247998L140.0 124.56482828248L132.0 124.56482828248L132.0 118.2402354788986L76.0 118.2402354788986L76.0 124.56482828248L76.0 133.3802820491381L68.0 133.3802820491381L68.0 133.39028204913808L68.0 133.91895449027234L60.0 133.91895449027234L60.0 133.39028204913808L60.0 133.3802820491381L52.0 133.3802820491381L52.0 124.56482828248L52.0 116.9362354788986L60.0 116.9362354788986L68.0 116.9362354788986L76.0 116.9362354788986L132.0 116.9362354788986z"/>
<path fill="#3077cb" d="M 20.0 110.17650386797354L20.0 135.692928394158L12.0 135.692928394158L12.0 135.702928394158L12.0 171.26124865884935L12.0 180.72257891616968L12.0 196.75706081629292L12.0 200.5705562009903L-4.0 200.5705562009903L-4.0 200.5805562009903L-4.0 201.14973032942785L-12.0 201.14973032942785L-12.0 200.58055620099026L-12.0 196.75706081629292L-12.0 180.72257891616968L-12.0 171.26124865884935L-12.0 135.702928394158L-12.0 125.54308013411872L-12.0 117.10036731247705L-12.0 110.17650386797354L-4.0 110.17650386797354L12.0 110.17650386797354L20.0 110.17650386797354z"/>
<path fill="#d0e4fe" d="M 44.0 108.41063030154852L52.0 108.41063030154854L52.0 108.60716348496967L52.0 110.17660386797354L52.0 113.38662411185135L44.0 113.38662411185135L44.0 110.17660386797354L44.0 109.71463030154852L20.0 109.71463030154852L20.0 110.17660386797354L12.0 110.17660386797354L-4.0 110.17660386797354L-4.0 108.60716348496967L-4.0 108.41063030154854L20.0 108.41063030154852L44.0 108.41063030154852z"/>
<path fill="#3077cb" d="M 236.0 73.43778484021603L236.0 77.23684310926797L228.0 77.23684310926798L228.0 76.90877944211104L228.0 72.7715755758601L236.0 72.7715755758601L236.0 73.43778484021603z"/>
<path fill="#d0e4fe" d="M -44.0 75.84966031912906L-44.0 61.58683211861019L-36.0 61.58683211861019L-36.0 75.84966031912906L-44.0 75.84966031912906z"/>
<path fill="#d0e4fe" d="M 220.0 76.90877944211104L220.0 75.56467193229744L220.0 75.36874627418587L228.0 75.36874627418587L228.0 75.56467193229744L228.0 76.90877944211104L220.0 76.90877944211104z"/>
<path fill="#d0e4fe" d="M 244.0 73.30412927211505L244.0 73.43778484021601L236.0 73.43778484021603L236.0 70.62053096318047L244.0 70.62053096318047L244.0 73.30412927211505z"/>
<path fill="#75aef7" d="M 132.0 61.56253110622819L140.0 61.56253110622819L156.0 61.56253110622819L164.0 61.56253110622819L172.0 61.56253110622819L188.0 61.56253110622819L196.0 61.56253110622819L204.0 61.56253110622819L220.0 61.56253110622819L228.0 61.56253110622819L236.0 61.56253110622819L244.0 61.56253110622819L244.0 61.58672961017367L244.0 61.586932118610186L244.0 70.62063096318047L236.0 70.62063096318047L236.0 72.7716755758601L228.0 72.7716755758601L228.0 75.36884627418586L220.0 75.36884627418586L220.0 76.66766898083041L220.0 76.90877944211104L220.0 77.11116245680184L220.0 80.42825064694422L220.0 80.46672724988237L220.0 82.6639437860878L220.0 82.7226712326776L220.0 85.57601510319691L220.0 86.57843186395422L220.0 92.16968979617833L220.0 92.26689384570632L220.0 95.96672298086511L220.0 95.98697382451678L220.0 97.4023716925046L220.0 97.61500555084706L220.0 100.78844885432605L220.0 103.04439283712128L220.0 103.62154188119368L220.0 108.41073030154854L220.0 109.3484804658839L220.0 110.43783975107999L220.0 110.52302939768038L220.0 110.60200768792187L220.0 112.74049677753746L220.0 114.18640701426621L220.0 116.9363354788986L220.0 186.68024101522548L220.0 202.4984365166286L204.0 202.4984365166286L204.0 186.68024101522548L204.0 116.9363354788986L204.0 95.97697382451679L196.0 95.97697382451679L196.0 92.25689384570632L188.0 92.25689384570632L188.0 72.21450846182975L188.0 62.866531106228194L172.0 62.866531106228194L172.0 72.20450846182973L164.0 72.20450846182975L164.0 72.16603185889159L156.0 72.16603185889159L156.0 116.9363354788986L140.0 116.9363354788986L132.0 116.9363354788986L132.0 62.882919707143515L132.0 62.866531106228194L124.0 62.866531106228194L124.0 62.87291970714352L116.0 62.87291970714352L116.0 62.50637943704841L108.0 62.50637943704841L108.0 114.1764070142662L100.0 114.1764070142662L100.0 103.03439283712127L92.0 103.03439283712127L92.0 103.61154188119367L84.0 103.61154188119367L84.0 112.73049677753747L76.0 112.73049677753747L76.0 116.9363354788986L68.0 116.9363354788986L60.0 116.9363354788986L52.0 116.9363354788986L52.0 113.38662411185135L52.0 110.60200768792187L52.0 110.52302939768038L52.0 110.43783975107999L52.0 108.41073030154854L44.0 108.41073030154854L44.0 77.10116245680183L28.0 77.10116245680183L28.0 76.65766898083041L20.0 76.65766898083041L20.0 76.66766898083041L12.0 76.66766898083041L12.0 108.41073030154854L-4.0 108.41073030154854L-4.0 97.61500555084706L-4.0 97.4023716925046L-4.0 95.96672298086511L-12.0 95.96672298086511L-12.0 95.95672298086511L-20.0 95.95672298086511L-20.0 92.16968979617833L-20.0 92.15968979617833L-36.0 92.15968979617833L-36.0 75.84966031912906L-36.0 61.586932118610186L-44.0 61.586932118610186L-44.0 61.58672961017367L-44.0 61.56253110622819L-36.0 61.56253110622819L-20.0 61.56253110622819L-4.0 61.56253110622819L20.0 61.56253110622819L28.0 61.56253110622819L44.0 61.56253110622819L52.0 61.56253110622819L60.0 61.56253110622819L68.0 61.56253110622819L76.0 61.56253110622819L84.0 61.56253110622819L92.0 61.56253110622819L100.0 61.56253110622819L108.0 61.56253110622819L116.0 61.56253110622819L124.0 61.56253110622819L132.0 61.56253110622819z"/>
<path fill="#3077cb" stroke-width="320.0" d="M 188.0 57.234959412694735L188.0 57.22495941269474L172.0 57.22495941269474L172.0 61.56263110622817L164.0 61.56263110622819L156.0 61.56263110622819L140.0 61.56263110622819L140.0 57.75540609454248L132.0 57.75540609454248L132.0 57.74540609454248L124.0 57.74540609454248L124.0 61.56263110622819L116.0 61.56263110622819L108.0 61.56263110622819L44.0 61.56263110622819L28.0 61.56263110622819L20.0 61.56263110622819L-4.0 61.56263110622819L-44.0 61.56263110622819L-44.0 9.691851263249328L-44.0 -3.894951483371422L260.0 -3.894951483371422L260.0 9.691851263249328L260.0 9.698129024781343L260.0 14.69704978019432L260.0 14.698872356122969L260.0 18.970180299131698L260.0 30.647626782426563L260.0 41.54055558265602L260.0 41.907095852751105L260.0 42.09947886744191L260.0 42.23515951990805L260.0 56.19406604899926L260.0 57.23495941269473L260.0 57.75540609454248L260.0 58.17864872686223L260.0 58.488486634732666L260.0 58.50671239401917L260.0 59.41192510524849L260.0 59.66303556652912L260.0 61.56263110622819L260.0 73.31412927211505L260.0 75.75245626960108L252.0 75.75245626960108L252.0 73.31412927211505L252.0 73.30412927211505L244.0 73.30412927211505L244.0 61.56263110622819L236.0 61.56263110622819L228.0 61.56263110622819L220.0 61.56263110622819L204.0 61.56263110622819L204.0 57.234959412694735L188.0 57.234959412694735z"/>
</g>
</g>
<g transform="matrix(1.0 0.0 0.0 1.0 867.0 350.0)">
<g >
<path fill="#ffd6d1" d="M -84.0 137.88573323654384L-84.0 143.5198794655257L-92.0 143.5198794655257L-92.0 137.88573323654384L-84.0 137.88573323654384z"/>
<path fill="#ffd6d1" d="M -36.0 115.96419498361878L-36.0 125.94417226024748L-44.0 125.94417226024748L-44.0 115.96419498361878L-36.0 115.96419498361878z"/>
<path fill="#c64340" d="M 12.0 110.9504476205563L12.0 113.65164863859889L12.0 115.63623131646185L12.0 143.30724560718323L-4.0 143.30724560718323L-4.0 115.63623131646185L-4.0 113.65164863859889L-4.0 99.69264210950767L12.0 99.69264210950767L12.0 110.9504476205563z"/>
<path fill="#ffd6d1" d="M 12.0 110.9504476205563L12.0 99.69274210950768L-4.0 99.69274210950768L-4.0 98.99813817225564L-4.0 88.1052093720262L-4.0 85.88990317979768L-4.0 81.87213579930777L-4.0 81.86213579930777L-20.0 81.86213579930777L-20.0 74.83294254598977L-20.0 74.82294254598976L-36.0 74.82294254598976L-36.0 72.15635494572258L-20.0 72.15635494572258L-4.0 72.15635494572258L12.0 72.15635494572258L20.0 72.15635494572258L20.0 74.83294254598977L20.0 81.87213579930777L20.0 85.88990317979768L20.0 88.1052093720262L20.0 98.99813817225564L20.0 99.69274210950768L20.0 110.9504476205563L12.0 110.9504476205563z"/>
<path fill="#fb827a" d="M -36.0 74.82294254598976L-36.0 115.96429498361879L-44.0 115.96429498361877L-44.0 125.94417226024748L-44.0 140.12152637568738L-44.0 153.27066068380134L-52.0 153.27066068380134L-52.0 153.28066068380133L-52.0 183.00066272371834L-52.0 184.86792661166504L-52.0 198.74190501924514L-68.0 198.74190501924514L-68.0 198.75190501924513L-68.0 200.53815485114762L-76.0 200.53815485114762L-76.0 198.75190501924513L-76.0 184.86792661166507L-76.0 183.00066272371836L-76.0 153.28066068380133L-76.0 140.1215263756874L-76.0 139.2994782266933L-76.0 137.88583323654385L-76.0 111.42431736200521L-84.0 111.42431736200521L-84.0 137.88583323654385L-92.0 137.88583323654385L-92.0 134.22056663885627L-92.0 81.42066740770153L-100.0 81.42066740770153L-100.0 103.2915785514974L-108.0 103.2915785514974L-108.0 102.5402722520207L-116.0 102.5402722520207L-116.0 134.21056663885628L-124.0 134.21056663885628L-124.0 116.86950769484811L-124.0 115.96429498361879L-124.0 75.22378382846686L-124.0 74.48867820391149L-124.0 72.15645494572259L-124.0 72.15453236979394L-116.0 72.15453236979394L-108.0 72.15453236979394L-100.0 72.15453236979394L-92.0 72.15453236979394L-84.0 72.15453236979394L-76.0 72.15453236979394L-68.0 72.15453236979394L-52.0 72.15453236979394L-44.0 72.15453236979394L-36.00000000000001 72.15453236979394L-20.0 72.15453236979394L-4.0 72.15453236979394L12.0 72.15453236979394L12.0 72.15645494572259L-4.0 72.15645494572259L-20.0 72.15645494572259L-36.0 72.15645494572259L-36.0 74.82294254598976z"/>
<path fill="#c64340" stroke-width="328.0" d="M 20.0 202.4984365166286L20.0 200.05808443477738L20.0 189.76863077536748L20.0 159.50374493795735L20.0 148.78902356186254L20.0 145.66836855514126L20.0 140.18025382227722L20.0 137.924309839482L20.0 129.22265842562587L20.0 117.12061815612871L20.0 115.94606922433228L20.0 110.9504476205563L20.0 74.76611476193926L20.0 72.15463236979392L12.0 72.15463236979393L-4.0 72.15463236979394L-20.0 72.15463236979394L-36.0 72.15463236979394L-68.0 72.15463236979394L-92.0 72.15463236979394L-100.0 72.15463236979394L-124.0 72.15463236979394L-124.0 67.15571161438096L-124.0 67.14943385284894L-124.00000000000003 46.60934174866724L-124.0 46.59934174866724L-140.0 46.59934174866724L-140.0 46.49391193985276L-140.0 46.48391193985276L-148.0 46.48391193985276L-148.0 4.105048516628578L-148.0 -3.894951483371422L164.0 -3.894951483371422L164.0 4.105048516628578L164.0 19.103430850359644L164.0 44.76866548255692L148.0 44.76866548255692L148.0 42.04087684267793L140.0 42.04087684267793L140.0 29.448902260073957L124.0 29.448902260073957L124.0 30.216409234471982L108.0 30.216409234471982L108.0 40.376257494511236L92.0 40.37625749451124L92.0 42.9076129509691L84.0 42.9076129509691L84.0 44.7786654825569L84.0 67.14943385284894L84.0 67.15571161438096L84.0 69.44836864083844L76.0 69.44836864083844L76.0 68.86109417494022L68.0 68.86109417494022L68.0 69.45836864083844L68.0 72.15463236979392L68.0 74.75611476193924L60.0 74.75611476193926L60.0 74.76611476193926L60.0 115.94606922433225L60.0 117.12061815612873L60.0 129.22265842562587L60.0 137.924309839482L60.0 140.18025382227722L60.0 145.65836855514127L44.0 145.65836855514127L44.0 145.66836855514126L44.0 159.49374493795736L36.0 159.49374493795736L36.0 159.50374493795735L36.0 200.0480844347774L28.0 200.0480844347774L28.0 200.05808443477738L28.0 202.4984365166286L20.0 202.4984365166286z"/>
</g>
</g>
<g transform="matrix(1.0 0.0 0.0 1.0 400.0 350.0)">
<g >
<path stroke="#000000" fill="none" stroke-opacity="0.1" stroke-width="0.4" d="M -35.5 -75.71680472037094L659.0 -75.71680472037094"/>
<path stroke="#000000" fill="none" stroke-opacity="0.1" stroke-width="0.4" d="M -35.5 -61.35243407297104L659.0 -61.35243407297104"/>
<path stroke="#000000" fill="none" stroke-opacity="0.1" stroke-width="0.4" d="M -35.5 -46.98806342557114L659.0 -46.98806342557114"/>
<path stroke="#000000" fill="none" stroke-opacity="0.1" stroke-width="0.4" d="M -35.5 -32.62369277817124L659.0 -32.62369277817124"/>
<path stroke="#000000" fill="none" stroke-opacity="0.1" stroke-width="0.4" d="M -35.5 -18.259322130771338L659.0 -18.259322130771338"/>
<path stroke="#000000" fill="none" stroke-opacity="0.1" stroke-width="0.4" d="M -35.5 -3.8949514833714343L659.0 -3.8949514833714343"/>
<path stroke="#000000" fill="none" stroke-opacity="0.1" stroke-width="0.4" d="M -35.5 10.46941916402847L659.0 10.46941916402847"/>
<path stroke="#000000" fill="none" stroke-opacity="0.1" stroke-width="0.4" d="M -35.5 24.833789811428375L659.0 24.833789811428375"/>
<path stroke="#000000" fill="none" stroke-opacity="0.1" stroke-width="0.4" d="M -35.5 39.198160458828276L659.0 39.198160458828276"/>
<path stroke="#000000" fill="none" stroke-opacity="0.1" stroke-width="0.4" d="M -35.5 53.56253110622818L659.0 53.56253110622818"/>
<path stroke="#000000" fill="none" stroke-opacity="0.1" stroke-width="0.4" d="M -35.5 67.92690175362809L659.0 67.92690175362809"/>
<path stroke="#000000" fill="none" stroke-opacity="0.1" stroke-width="0.4" d="M -35.5 82.291272401028L659.0 82.291272401028"/>
<path stroke="#000000" fill="none" stroke-opacity="0.1" stroke-width="0.4" d="M -35.5 96.6556430484279L659.0 96.6556430484279"/>
<path stroke="#000000" fill="none" stroke-opacity="0.1" stroke-width="0.4" d="M -35.5 111.02001369582781L659.0 111.02001369582781"/>
<path stroke="#000000" fill="none" stroke-opacity="0.1" stroke-width="0.4" d="M -35.5 125.38438434322772L659.0 125.38438434322772"/>
<path stroke="#000000" fill="none" stroke-opacity="0.1" stroke-width="0.4" d="M -35.5 139.74875499062762L659.0 139.74875499062762"/>
<path stroke="#000000" fill="none" stroke-opacity="0.1" stroke-width="0.4" d="M -35.5 154.11312563802753L659.0 154.11312563802753"/>
<path stroke="#000000" fill="none" stroke-opacity="0.1" stroke-width="0.4" d="M -35.5 168.47749628542743L659.0 168.47749628542743"/>
<path stroke="#000000" fill="none" stroke-opacity="0.1" stroke-width="0.4" d="M -35.5 182.84186693282734L659.0 182.84186693282734"/>
<path stroke="#000000" fill="none" stroke-opacity="0.1" stroke-width="0.4" d="M -35.5 197.20623758022725L659.0 197.20623758022725"/>
<path stroke="#000000" fill="none" stroke-opacity="0.1" stroke-width="0.4" d="M -35.5 211.57060822762716L659.0 211.57060822762716"/>
</g>
</g>
<g transform="matrix(1.0 0.0 0.0 1.0 429.0 350.0)">
<g >
<path stroke="#000000" fill="none" stroke-width="0.8" d="M 212.0 9.691851263249328L212.0 9.698129024781343"/>
<path stroke="#000000" fill="none" stroke-width="0.8" d="M 212.0 9.691851263249328L212.0 9.698129024781343"/>
<path stroke="#000000" fill="none" stroke-width="0.8" d="M 212.0 9.698129024781343L212.0 9.69833153321786"/>
<path stroke="#000000" fill="none" stroke-width="0.8" d="M 212.0 9.698129024781343L212.0 9.69833153321786"/>
<path stroke="#000000" fill="none" stroke-width="0.8" d="M -40.0 9.69833153321786L-40.0 75.85966031912906"/>
<path stroke="#000000" fill="none" stroke-width="0.8" d="M -40.4 9.69833153321786L212.0 9.69833153321786"/>
<path stroke="#000000" fill="none" stroke-width="0.8" d="M 212.0 9.69833153321786L212.0 14.69704978019432"/>
<path stroke="#000000" fill="none" stroke-width="0.8" d="M 212.0 9.69833153321786L212.0 14.69704978019432"/>
<path stroke="#000000" fill="none" stroke-width="0.8" d="M 4.0 14.69704978019432L4.0 14.698872356122969"/>
<path stroke="#000000" fill="none" stroke-width="0.8" d="M 3.6 14.69704978019432L212.0 14.69704978019432"/>
<path stroke="#000000" fill="none" stroke-width="0.8" d="M 4.0 14.698872356122969L4.0 58.50671239401917"/>
<path stroke="#000000" fill="none" stroke-width="0.8" d="M 4.0 14.698872356122969L4.0 58.50671239401917"/>
<path stroke="#000000" fill="none" stroke-width="0.8" d="M 4.0 58.50671239401917L4.0 59.41192510524849"/>
<path stroke="#000000" fill="none" stroke-width="0.8" d="M 4.0 58.50671239401917L4.0 59.41192510524849"/>
<path stroke="#000000" fill="none" stroke-width="0.8" d="M 4.0 59.41192510524849L4.0 80.42825064694422"/>
<path stroke="#000000" fill="none" stroke-width="0.8" d="M 4.0 59.41192510524849L4.0 80.42825064694422"/>
<path stroke="#000000" fill="none" stroke-width="0.8" d="M -28.0 80.42825064694422L-28.0 92.16968979617833"/>
<path stroke="#000000" fill="none" stroke-width="0.8" d="M -28.4 80.42825064694422L4.0 80.42825064694422"/>
<path stroke="#000000" fill="none" stroke-width="0.8" d="M 4.0 80.42825064694422L4.0 82.6639437860878"/>
<path stroke="#000000" fill="none" stroke-width="0.8" d="M 4.0 80.42825064694422L4.0 82.6639437860878"/>
<path stroke="#000000" fill="none" stroke-width="0.8" d="M -16.0 82.6639437860878L-16.0 95.96672298086511"/>
<path stroke="#000000" fill="none" stroke-width="0.8" d="M -16.4 82.6639437860878L4.0 82.6639437860878"/>
<path stroke="#000000" fill="none" stroke-width="0.8" d="M 4.0 82.6639437860878L4.0 125.54308013411874"/>
<path stroke="#000000" fill="none" stroke-width="0.8" d="M 4.0 82.6639437860878L4.0 125.54308013411874"/>
<path stroke="#000000" fill="none" stroke-width="0.8" d="M 4.0 125.54308013411874L4.0 180.72257891616968"/>
<path stroke="#000000" fill="none" stroke-width="0.8" d="M 4.0 125.54308013411874L4.0 180.72257891616968"/>
<path stroke="#000000" fill="none" stroke-width="0.8" d="M -8.0 180.72257891616968L-8.0 201.15973032942784"/>
<path stroke="#000000" fill="none" stroke-width="0.8" d="M -8.4 180.72257891616968L4.0 180.72257891616968"/>
<path stroke="#000000" fill="none" stroke-width="0.8" d="M 4.0 180.72257891616968L4.0 200.5805562009903"/>
<path stroke="#000000" fill="none" stroke-width="0.8" d="M 4.0 180.72257891616968L4.0 200.5805562009903"/>
<path stroke="#000000" fill="none" stroke-width="0.8" d="M 16.0 125.54308013411874L16.0 135.702928394158"/>
<path stroke="#000000" fill="none" stroke-width="0.8" d="M 16.4 125.54308013411874L4.0 125.54308013411874"/>
<path stroke="#000000" fill="none" stroke-width="0.8" d="M 24.0 59.41192510524849L24.0 76.66766898083041"/>
<path stroke="#000000" fill="none" stroke-width="0.8" d="M 24.4 59.41192510524849L4.0 59.41192510524849"/>
<path stroke="#000000" fill="none" stroke-width="0.8" d="M 36.0 58.50671239401917L36.0 77.11116245680184"/>
<path stroke="#000000" fill="none" stroke-width="0.8" d="M 36.4 58.50671239401917L4.0 58.50671239401917"/>
<path stroke="#000000" fill="none" stroke-width="0.8" d="M 180.0 14.698872356122969L180.0 30.64762678242657"/>
<path stroke="#000000" fill="none" stroke-width="0.8" d="M 180.4 14.698872356122969L4.0 14.698872356122969"/>
<path stroke="#000000" fill="none" stroke-width="0.8" d="M 48.0 30.64762678242657L48.0 41.90709585275113"/>
<path stroke="#000000" fill="none" stroke-width="0.8" d="M 47.6 30.64762678242657L180.0 30.64762678242657"/>
<path stroke="#000000" fill="none" stroke-width="0.8" d="M 48.0 41.90709585275113L48.0 42.09947886744192"/>
<path stroke="#000000" fill="none" stroke-width="0.8" d="M 48.0 41.90709585275113L48.0 42.09947886744192"/>
<path stroke="#000000" fill="none" stroke-width="0.8" d="M 48.0 42.09947886744192L48.0 74.95242252353458"/>
<path stroke="#000000" fill="none" stroke-width="0.8" d="M 48.0 42.09947886744192L48.0 74.95242252353458"/>
<path stroke="#000000" fill="none" stroke-width="0.8" d="M 48.0 74.95242252353458L48.0 75.14480553822537"/>
<path stroke="#000000" fill="none" stroke-width="0.8" d="M 48.0 74.95242252353458L48.0 75.14480553822537"/>
<path stroke="#000000" fill="none" stroke-width="0.8" d="M 48.0 75.14480553822537L48.0 113.39662411185135"/>
<path stroke="#000000" fill="none" stroke-width="0.8" d="M 48.0 75.14480553822537L48.0 113.39662411185135"/>
<path stroke="#000000" fill="none" stroke-width="0.8" d="M 56.0 75.14480553822537L56.0 85.57601510319691"/>
<path stroke="#000000" fill="none" stroke-width="0.8" d="M 56.4 75.14480553822537L48.0 75.14480553822537"/>
<path stroke="#000000" fill="none" stroke-width="0.8" d="M 56.0 85.57601510319691L56.0 86.57843186395422"/>
<path stroke="#000000" fill="none" stroke-width="0.8" d="M 56.0 85.57601510319691L56.0 86.57843186395422"/>
<path stroke="#000000" fill="none" stroke-width="0.8" d="M 56.0 86.57843186395422L56.0 100.78844885432605"/>
<path stroke="#000000" fill="none" stroke-width="0.8" d="M 56.0 86.57843186395422L56.0 100.78844885432605"/>
<path stroke="#000000" fill="none" stroke-width="0.8" d="M 56.0 100.78844885432605L56.0 110.52302939768038"/>
<path stroke="#000000" fill="none" stroke-width="0.8" d="M 56.0 100.78844885432605L56.0 110.52302939768038"/>
<path stroke="#000000" fill="none" stroke-width="0.8" d="M 56.0 110.52302939768038L56.0 110.60200768792187"/>
<path stroke="#000000" fill="none" stroke-width="0.8" d="M 56.0 110.52302939768038L56.0 110.60200768792187"/>
<path stroke="#000000" fill="none" stroke-width="0.8" d="M 56.0 110.60200768792187L56.0 133.39028204913808"/>
<path stroke="#000000" fill="none" stroke-width="0.8" d="M 56.0 110.60200768792187L56.0 133.39028204913808"/>
<path stroke="#000000" fill="none" stroke-width="0.8" d="M 64.0 110.60200768792187L64.0 133.92895449027233"/>
<path stroke="#000000" fill="none" stroke-width="0.8" d="M 64.4 110.60200768792187L56.0 110.60200768792187"/>
<path stroke="#000000" fill="none" stroke-width="0.8" d="M 72.0 110.52302939768038L72.0 133.39028204913808"/>
<path stroke="#000000" fill="none" stroke-width="0.8" d="M 72.4 110.52302939768038L56.0 110.52302939768038"/>
<path stroke="#000000" fill="none" stroke-width="0.8" d="M 80.0 100.78844885432605L80.0 112.74049677753747"/>
<path stroke="#000000" fill="none" stroke-width="0.8" d="M 80.4 100.78844885432605L56.0 100.78844885432605"/>
<path stroke="#000000" fill="none" stroke-width="0.8" d="M 88.0 86.57843186395422L88.0 103.62154188119368"/>
<path stroke="#000000" fill="none" stroke-width="0.8" d="M 88.4 86.57843186395422L56.0 86.57843186395422"/>
<path stroke="#000000" fill="none" stroke-width="0.8" d="M 96.0 85.57601510319691L96.0 103.04439283712128"/>
<path stroke="#000000" fill="none" stroke-width="0.8" d="M 96.4 85.57601510319691L56.0 85.57601510319691"/>
<path stroke="#000000" fill="none" stroke-width="0.8" d="M 104.0 74.95242252353458L104.0 114.18640701426621"/>
<path stroke="#000000" fill="none" stroke-width="0.8" d="M 104.4 74.95242252353458L48.0 74.95242252353458"/>
<path stroke="#000000" fill="none" stroke-width="0.8" d="M 112.0 42.09947886744192L112.0 62.51637943704841"/>
<path stroke="#000000" fill="none" stroke-width="0.8" d="M 112.4 42.09947886744192L48.0 42.09947886744192"/>
<path stroke="#000000" fill="none" stroke-width="0.8" d="M 120.0 41.90709585275113L120.0 62.882919707143515"/>
<path stroke="#000000" fill="none" stroke-width="0.8" d="M 120.4 41.90709585275113L48.0 41.90709585275113"/>
<path stroke="#000000" fill="none" stroke-width="0.8" d="M 180.0 30.64762678242657L180.0 41.540555582656026"/>
<path stroke="#000000" fill="none" stroke-width="0.8" d="M 180.0 30.64762678242657L180.0 41.540555582656026"/>
<path stroke="#000000" fill="none" stroke-width="0.8" d="M 128.0 41.540555582656026L128.0 57.75540609454248"/>
<path stroke="#000000" fill="none" stroke-width="0.8" d="M 127.6 41.540555582656026L180.0 41.540555582656026"/>
<path stroke="#000000" fill="none" stroke-width="0.8" d="M 180.0 41.540555582656026L180.0 42.23515951990806"/>
<path stroke="#000000" fill="none" stroke-width="0.8" d="M 180.0 41.540555582656026L180.0 42.23515951990806"/>
<path stroke="#000000" fill="none" stroke-width="0.8" d="M 148.0 42.23515951990806L148.0 56.19406604899927"/>
<path stroke="#000000" fill="none" stroke-width="0.8" d="M 147.6 42.23515951990806L180.0 42.23515951990806"/>
<path stroke="#000000" fill="none" stroke-width="0.8" d="M 148.0 56.19406604899927L148.0 58.17864872686223"/>
<path stroke="#000000" fill="none" stroke-width="0.8" d="M 148.0 56.19406604899927L148.0 58.17864872686223"/>
<path stroke="#000000" fill="none" stroke-width="0.8" d="M 148.0 58.17864872686223L148.0 109.34848046588392"/>
<path stroke="#000000" fill="none" stroke-width="0.8" d="M 148.0 58.17864872686223L148.0 109.34848046588392"/>
<path stroke="#000000" fill="none" stroke-width="0.8" d="M 136.0 109.34848046588392L136.0 200.7729392156811"/>
<path stroke="#000000" fill="none" stroke-width="0.8" d="M 135.6 109.34848046588392L148.0 109.34848046588392"/>
<path stroke="#000000" fill="none" stroke-width="0.8" d="M 148.0 109.34848046588392L148.0 197.49635271284203"/>
<path stroke="#000000" fill="none" stroke-width="0.8" d="M 148.0 109.34848046588392L148.0 197.49635271284203"/>
<path stroke="#000000" fill="none" stroke-width="0.8" d="M 160.0 58.17864872686223L160.0 72.17603185889159"/>
<path stroke="#000000" fill="none" stroke-width="0.8" d="M 160.4 58.17864872686223L148.0 58.17864872686223"/>
<path stroke="#000000" fill="none" stroke-width="0.8" d="M 168.0 56.19406604899927L168.0 72.21450846182975"/>
<path stroke="#000000" fill="none" stroke-width="0.8" d="M 168.4 56.19406604899927L148.0 56.19406604899927"/>
<path stroke="#000000" fill="none" stroke-width="0.8" d="M 180.0 42.23515951990806L180.0 57.234959412694735"/>
<path stroke="#000000" fill="none" stroke-width="0.8" d="M 180.0 42.23515951990806L180.0 57.234959412694735"/>
<path stroke="#000000" fill="none" stroke-width="0.8" d="M 212.0 14.69704978019432L212.0 58.48848663473267"/>
<path stroke="#000000" fill="none" stroke-width="0.8" d="M 212.0 14.69704978019432L212.0 58.48848663473267"/>
<path stroke="#000000" fill="none" stroke-width="0.8" d="M 212.0 58.48848663473267L212.0 59.66303556652912"/>
<path stroke="#000000" fill="none" stroke-width="0.8" d="M 212.0 58.48848663473267L212.0 59.66303556652912"/>
<path stroke="#000000" fill="none" stroke-width="0.8" d="M 212.0 59.66303556652912L212.0 80.46672724988237"/>
<path stroke="#000000" fill="none" stroke-width="0.8" d="M 212.0 59.66303556652912L212.0 80.46672724988237"/>
<path stroke="#000000" fill="none" stroke-width="0.8" d="M 192.0 80.46672724988237L192.0 92.26689384570632"/>
<path stroke="#000000" fill="none" stroke-width="0.8" d="M 191.6 80.46672724988237L212.0 80.46672724988237"/>
<path stroke="#000000" fill="none" stroke-width="0.8" d="M 212.0 80.46672724988237L212.0 82.72267123267761"/>
<path stroke="#000000" fill="none" stroke-width="0.8" d="M 212.0 80.46672724988237L212.0 82.72267123267761"/>
<path stroke="#000000" fill="none" stroke-width="0.8" d="M 200.0 82.72267123267761L200.0 95.9869738245168"/>
<path stroke="#000000" fill="none" stroke-width="0.8" d="M 199.6 82.72267123267761L212.0 82.72267123267761"/>
<path stroke="#000000" fill="none" stroke-width="0.8" d="M 212.0 82.72267123267761L212.0 202.5084365166286"/>
<path stroke="#000000" fill="none" stroke-width="0.8" d="M 212.0 82.72267123267761L212.0 202.5084365166286"/>
<path stroke="#000000" fill="none" stroke-width="0.8" d="M 224.0 59.66303556652912L224.0 76.91877944211105"/>
<path stroke="#000000" fill="none" stroke-width="0.8" d="M 224.4 59.66303556652912L212.0 59.66303556652912"/>
<path stroke="#000000" fill="none" stroke-width="0.8" d="M 232.0 58.48848663473267L232.0 77.24684310926799"/>
<path stroke="#000000" fill="none" stroke-width="0.8" d="M 232.4 58.48848663473267L212.0 58.48848663473267"/>
<path stroke="#000000" fill="none" stroke-width="0.8" d="M 240.0 9.698129024781343L240.0 18.970180299131698"/>
<path stroke="#000000" fill="none" stroke-width="0.8" d="M 240.4 9.698129024781343L212.0 9.698129024781343"/>
<path stroke="#000000" fill="none" stroke-width="0.8" d="M 240.0 18.970180299131698L240.0 73.44778484021603"/>
<path stroke="#000000" fill="none" stroke-width="0.8" d="M 240.0 18.970180299131698L240.0 73.44778484021603"/>
<path stroke="#000000" fill="none" stroke-width="0.8" d="M 248.0 18.970180299131698L248.0 73.31412927211505"/>
<path stroke="#000000" fill="none" stroke-width="0.8" d="M 248.4 18.970180299131698L240.0 18.970180299131698"/>
<path stroke="#000000" fill="none" stroke-width="0.8" d="M 256.0 9.691851263249328L256.0 75.76245626960109"/>
<path stroke="#000000" fill="none" stroke-width="0.8" d="M 256.4 9.691851263249328L212.0 9.691851263249328"/>
</g>
</g>
<g transform="matrix(1.0 0.0 0.0 1.0 429.0 350.0)">
<g >
<path stroke="#000000" fill="none" stroke-width="4.0" d="M 212.0 9.691851263249328L212.0 -61.352434072971036"/>
<path stroke="#000000" fill="none" stroke-width="4.0" d="M 212.0 82.72267123267761L212.0 145.19455038877118L212.0 82.72267123267761L212.0 145.19455038877118L212.0 80.46672724988237L212.0 82.72267123267761L212.0 59.66303556652912L212.0 80.46672724988237L212.0 58.48848663473267L212.0 59.66303556652912L212.0 14.69704978019432L212.0 58.48848663473267L212.0 9.69833153321786L212.0 14.69704978019432L212.0 9.698129024781343L212.0 9.69833153321786L212.0 9.691851263249328L212.0 9.698129024781343L212.0 9.691851263249328L212.0 -61.352434072971036"/>
<path stroke="#000000" fill="#c64340" stroke-width="0.8" d="M 208.0 -65.35243407297104L216.0 -65.35243407297104L216.0 -57.352434072971036L208.0 -57.352434072971036L208.0 -65.35243407297104z"/>
<path stroke="#c64340" fill="#c64340" stroke-width="2.4" d="M 212.0 82.72267123267761L212.0 144.3945503887712L212.0 82.72267123267761L212.0 144.3945503887712L212.0 80.46672724988237L212.0 82.72267123267761L212.0 59.66303556652912L212.0 80.46672724988237L212.0 58.48848663473267L212.0 59.66303556652912L212.0 14.69704978019432L212.0 58.48848663473267L212.0 9.69833153321786L212.0 14.69704978019432L212.0 9.698129024781343L212.0 9.69833153321786L212.0 9.691851263249328L212.0 9.698129024781343L212.0 9.691851263249328L212.0 -61.352434072971036"/>
<path stroke="#000000" fill="none" stroke-width="4.0" d="M 4.0 125.54308013411874L4.0 143.5525277740653L4.0 125.54308013411874L4.0 143.5525277740653L4.0 82.6639437860878L4.0 125.54308013411874L4.0 80.42825064694422L4.0 82.6639437860878L4.0 59.41192510524849L4.0 80.42825064694422L4.0 58.50671239401917L4.0 59.41192510524849L4.0 14.698872356122969L4.0 58.50671239401917L4.0 14.69704978019432L4.0 14.698872356122969"/>
<path stroke="#000000" fill="#fb827a" stroke-width="0.8" d="M 0.0 10.697049780194327L8.0 10.697049780194327L8.0 18.697049780194327L0.0 18.697049780194327L0.0 10.697049780194327z"/>
<path stroke="#fb827a" fill="#fb827a" stroke-width="2.4" d="M 4.0 125.54308013411874L4.0 142.75252777406533L4.0 125.54308013411874L4.0 142.75252777406533L4.0 82.6639437860878L4.0 125.54308013411874L4.0 80.42825064694422L4.0 82.6639437860878L4.0 59.41192510524849L4.0 80.42825064694422L4.0 58.50671239401917L4.0 59.41192510524849L4.0 14.698872356122969L4.0 58.50671239401917L4.0 14.69704978019432L4.0 14.698872356122969"/>
<path stroke="#000000" fill="none" stroke-width="4.0" d="M 180.0 42.23515951990806L180.0 54.17362478682885L180.0 42.23515951990806L180.0 54.17362478682885L180.0 41.540555582656026L180.0 42.23515951990806L180.0 30.64762678242657L180.0 41.540555582656026L180.0 14.698872356122969L180.0 30.64762678242657"/>
<path stroke="#000000" fill="#ffd6d1" stroke-width="0.8" d="M 176.0 10.698872356122969L184.0 10.698872356122969L184.0 18.69887235612297L176.0 18.69887235612297L176.0 10.698872356122969z"/>
<path stroke="#ffd6d1" fill="#ffd6d1" stroke-width="2.4" d="M 180.0 42.23515951990806L180.0 53.373624786828856L180.0 42.23515951990806L180.0 53.373624786828856L180.0 41.540555582656026L180.0 42.23515951990806L180.0 30.64762678242657L180.0 41.540555582656026L180.0 14.698872356122969L180.0 30.64762678242657"/>
<path stroke="#000000" fill="none" stroke-width="4.0" d="M 148.0 58.17864872686223L148.0 86.5900925860373L148.0 58.17864872686223L148.0 86.5900925860373L148.0 56.19406604899927L148.0 58.17864872686223L148.0 42.23515951990806L148.0 56.19406604899927"/>
<path stroke="#000000" fill="#c64340" stroke-width="0.8" d="M 144.0 38.23515951990806L152.0 38.23515951990806L152.0 46.23515951990806L144.0 46.23515951990806L144.0 38.23515951990806z"/>
<path stroke="#c64340" fill="#c64340" stroke-width="2.4" d="M 148.0 58.17864872686223L148.0 85.7900925860373L148.0 58.17864872686223L148.0 85.7900925860373L148.0 56.19406604899927L148.0 58.17864872686223L148.0 42.23515951990806L148.0 56.19406604899927"/>
<path stroke="#000000" fill="none" stroke-width="4.0" d="M 36.0 58.50671239401917L36.0 69.25364609095247L36.0 58.50671239401917L36.0 69.25364609095247"/>
<path stroke="#000000" fill="#ffd6d1" stroke-width="0.8" d="M 32.0 54.50671239401917L40.0 54.50671239401917L40.0 62.50671239401917L32.0 62.50671239401917L32.0 54.50671239401917z"/>
<path stroke="#ffd6d1" fill="#ffd6d1" stroke-width="2.4" d="M 36.0 58.50671239401917L36.0 68.45364609095247L36.0 58.50671239401917L36.0 68.45364609095247"/>
<path stroke="#000000" fill="none" stroke-width="4.0" d="M -28.0 80.42825064694422L-28.0 86.80834053964954L-28.0 80.42825064694422L-28.0 86.80834053964954"/>
<path stroke="#000000" fill="#ffd6d1" stroke-width="0.8" d="M -32.0 76.42825064694424L-24.0 76.42825064694424L-24.0 84.42825064694424L-32.0 84.42825064694424L-32.0 76.42825064694424z"/>
<path stroke="#ffd6d1" fill="#ffd6d1" stroke-width="2.4" d="M -28.0 80.42825064694422L-28.0 86.00834053964954L-28.0 80.42825064694422L-28.0 86.00834053964954"/>
</g>
</g>
<g transform="matrix(1.0 0.0 0.0 1.0 867.0 350.0)">
<g >
<path stroke="#000000" fill="none" stroke-width="0.8" d="M 52.0 4.105048516628578L52.0 4.129147020574057"/>
<path stroke="#000000" fill="none" stroke-width="0.8" d="M 51.6 4.105048516628578L156.0 4.105048516628578"/>
<path stroke="#000000" fill="none" stroke-width="0.8" d="M -144.0 4.129147020574057L-144.0 46.49391193985276"/>
<path stroke="#000000" fill="none" stroke-width="0.8" d="M -144.4 4.129147020574057L52.0 4.129147020574057"/>
<path stroke="#000000" fill="none" stroke-width="0.8" d="M 52.0 4.129147020574057L52.0 4.1293495290105735"/>
<path stroke="#000000" fill="none" stroke-width="0.8" d="M 52.0 4.129147020574057L52.0 4.1293495290105735"/>
<path stroke="#000000" fill="none" stroke-width="0.8" d="M -132.0 4.1293495290105735L-132.0 46.60934174866724"/>
<path stroke="#000000" fill="none" stroke-width="0.8" d="M -132.4 4.1293495290105735L52.0 4.1293495290105735"/>
<path stroke="#000000" fill="none" stroke-width="0.8" d="M 52.0 4.1293495290105735L52.0 13.163048373580859"/>
<path stroke="#000000" fill="none" stroke-width="0.8" d="M 52.0 4.1293495290105735L52.0 13.163048373580859"/>
<path stroke="#000000" fill="none" stroke-width="0.8" d="M 52.0 13.163048373580859L52.0 15.314092986260487"/>
<path stroke="#000000" fill="none" stroke-width="0.8" d="M 52.0 13.163048373580859L52.0 15.314092986260487"/>
<path stroke="#000000" fill="none" stroke-width="0.8" d="M 52.0 15.314092986260487L52.0 17.91126368458625"/>
<path stroke="#000000" fill="none" stroke-width="0.8" d="M 52.0 15.314092986260487L52.0 17.91126368458625"/>
<path stroke="#000000" fill="none" stroke-width="0.8" d="M 52.0 17.91126368458625L52.0 39.94478910290499"/>
<path stroke="#000000" fill="none" stroke-width="0.8" d="M 52.0 17.91126368458625L52.0 39.94478910290499"/>
<path stroke="#000000" fill="none" stroke-width="0.8" d="M 52.0 39.94478910290499L52.0 40.15742296124745"/>
<path stroke="#000000" fill="none" stroke-width="0.8" d="M 52.0 39.94478910290499L52.0 40.15742296124745"/>
<path stroke="#000000" fill="none" stroke-width="0.8" d="M 52.0 40.15742296124745L52.0 50.95314771194892"/>
<path stroke="#000000" fill="none" stroke-width="0.8" d="M 52.0 40.15742296124745L52.0 50.95314771194892"/>
<path stroke="#000000" fill="none" stroke-width="0.8" d="M -28.0 50.95314771194892L-28.0 51.14958089537006"/>
<path stroke="#000000" fill="none" stroke-width="0.8" d="M -28.4 50.95314771194892L52.0 50.95314771194892"/>
<path stroke="#000000" fill="none" stroke-width="0.8" d="M -120.0 51.14958089537006L-120.0 74.48867820391149"/>
<path stroke="#000000" fill="none" stroke-width="0.8" d="M -120.4 51.14958089537006L-28.0 51.14958089537006"/>
<path stroke="#000000" fill="none" stroke-width="0.8" d="M -120.0 74.48867820391149L-120.0 75.22378382846686"/>
<path stroke="#000000" fill="none" stroke-width="0.8" d="M -120.0 74.48867820391149L-120.0 75.22378382846686"/>
<path stroke="#000000" fill="none" stroke-width="0.8" d="M -120.0 75.22378382846686L-120.0 134.22056663885627"/>
<path stroke="#000000" fill="none" stroke-width="0.8" d="M -120.0 75.22378382846686L-120.0 134.22056663885627"/>
<path stroke="#000000" fill="none" stroke-width="0.8" d="M -112.0 75.22378382846686L-112.0 102.5502722520207"/>
<path stroke="#000000" fill="none" stroke-width="0.8" d="M -111.6 75.22378382846686L-120.0 75.22378382846686"/>
<path stroke="#000000" fill="none" stroke-width="0.8" d="M -104.0 74.48867820391149L-104.0 103.3015785514974"/>
<path stroke="#000000" fill="none" stroke-width="0.8" d="M -103.6 74.48867820391149L-120.0 74.48867820391149"/>
<path stroke="#000000" fill="none" stroke-width="0.8" d="M -28.0 51.14958089537006L-28.0 52.71902127837392"/>
<path stroke="#000000" fill="none" stroke-width="0.8" d="M -28.0 51.14958089537006L-28.0 52.71902127837392"/>
<path stroke="#000000" fill="none" stroke-width="0.8" d="M -60.0 52.71902127837392L-60.0 59.64278472287745"/>
<path stroke="#000000" fill="none" stroke-width="0.8" d="M -60.4 52.71902127837392L-28.0 52.71902127837392"/>
<path stroke="#000000" fill="none" stroke-width="0.8" d="M -96.0 59.64278472287745L-96.0 66.97561520914458"/>
<path stroke="#000000" fill="none" stroke-width="0.8" d="M -96.4 59.64278472287745L-60.0 59.64278472287745"/>
<path stroke="#000000" fill="none" stroke-width="0.8" d="M -96.0 66.97561520914458L-96.0 81.43066740770153"/>
<path stroke="#000000" fill="none" stroke-width="0.8" d="M -96.0 66.97561520914458L-96.0 81.43066740770153"/>
<path stroke="#000000" fill="none" stroke-width="0.8" d="M -88.0 66.97561520914458L-88.0 86.39617427108927"/>
<path stroke="#000000" fill="none" stroke-width="0.8" d="M -87.6 66.97561520914458L-96.0 66.97561520914458"/>
<path stroke="#000000" fill="none" stroke-width="0.8" d="M -88.0 86.39617427108927L-88.0 143.52987946552568"/>
<path stroke="#000000" fill="none" stroke-width="0.8" d="M -88.0 86.39617427108927L-88.0 143.52987946552568"/>
<path stroke="#000000" fill="none" stroke-width="0.8" d="M -80.0 86.39617427108927L-80.0 111.43431736200522"/>
<path stroke="#000000" fill="none" stroke-width="0.8" d="M -79.6 86.39617427108927L-88.0 86.39617427108927"/>
<path stroke="#000000" fill="none" stroke-width="0.8" d="M -60.0 59.64278472287745L-60.0 113.80366606924976"/>
<path stroke="#000000" fill="none" stroke-width="0.8" d="M -60.0 59.64278472287745L-60.0 113.80366606924976"/>
<path stroke="#000000" fill="none" stroke-width="0.8" d="M -60.0 113.80366606924976L-60.0 139.2994782266933"/>
<path stroke="#000000" fill="none" stroke-width="0.8" d="M -60.0 113.80366606924976L-60.0 139.2994782266933"/>
<path stroke="#000000" fill="none" stroke-width="0.8" d="M -60.0 139.2994782266933L-60.0 184.86792661166507"/>
<path stroke="#000000" fill="none" stroke-width="0.8" d="M -60.0 139.2994782266933L-60.0 184.86792661166507"/>
<path stroke="#000000" fill="none" stroke-width="0.8" d="M -72.0 184.86792661166507L-72.0 200.54815485114761"/>
<path stroke="#000000" fill="none" stroke-width="0.8" d="M -72.4 184.86792661166507L-60.0 184.86792661166507"/>
<path stroke="#000000" fill="none" stroke-width="0.8" d="M -60.0 184.86792661166507L-60.0 198.75190501924513"/>
<path stroke="#000000" fill="none" stroke-width="0.8" d="M -60.0 184.86792661166507L-60.0 198.75190501924513"/>
<path stroke="#000000" fill="none" stroke-width="0.8" d="M -48.0 139.2994782266933L-48.0 153.28066068380133"/>
<path stroke="#000000" fill="none" stroke-width="0.8" d="M -47.6 139.2994782266933L-60.0 139.2994782266933"/>
<path stroke="#000000" fill="none" stroke-width="0.8" d="M -40.0 113.80366606924976L-40.0 125.95417226024749"/>
<path stroke="#000000" fill="none" stroke-width="0.8" d="M -39.6 113.80366606924976L-60.0 113.80366606924976"/>
<path stroke="#000000" fill="none" stroke-width="0.8" d="M -28.0 52.71902127837392L-28.0 74.83294254598977"/>
<path stroke="#000000" fill="none" stroke-width="0.8" d="M -28.0 52.71902127837392L-28.0 74.83294254598977"/>
<path stroke="#000000" fill="none" stroke-width="0.8" d="M 52.0 50.95314771194892L52.0 52.980257161480374"/>
<path stroke="#000000" fill="none" stroke-width="0.8" d="M 52.0 50.95314771194892L52.0 52.980257161480374"/>
<path stroke="#000000" fill="none" stroke-width="0.8" d="M 52.0 52.980257161480374L52.0 59.47875288929899"/>
<path stroke="#000000" fill="none" stroke-width="0.8" d="M 52.0 52.980257161480374L52.0 59.47875288929899"/>
<path stroke="#000000" fill="none" stroke-width="0.8" d="M -12.0 59.47875288929899L-12.0 67.10724569288038"/>
<path stroke="#000000" fill="none" stroke-width="0.8" d="M -12.4 59.47875288929899L52.0 59.47875288929899"/>
<path stroke="#000000" fill="none" stroke-width="0.8" d="M -12.0 67.10724569288038L-12.0 81.87213579930777"/>
<path stroke="#000000" fill="none" stroke-width="0.8" d="M -12.0 67.10724569288038L-12.0 81.87213579930777"/>
<path stroke="#000000" fill="none" stroke-width="0.8" d="M 4.0 67.10724569288038L4.0 85.88990317979768"/>
<path stroke="#000000" fill="none" stroke-width="0.8" d="M 4.4 67.10724569288038L-12.0 67.10724569288038"/>
<path stroke="#000000" fill="none" stroke-width="0.8" d="M 4.0 85.88990317979768L4.0 143.31724560718322"/>
<path stroke="#000000" fill="none" stroke-width="0.8" d="M 4.0 85.88990317979768L4.0 143.31724560718322"/>
<path stroke="#000000" fill="none" stroke-width="0.8" d="M 16.0 85.88990317979768L16.0 110.96044762055631"/>
<path stroke="#000000" fill="none" stroke-width="0.8" d="M 16.4 85.88990317979768L4.0 85.88990317979768"/>
<path stroke="#000000" fill="none" stroke-width="0.8" d="M 52.0 59.47875288929899L52.0 129.22265842562587"/>
<path stroke="#000000" fill="none" stroke-width="0.8" d="M 52.0 59.47875288929899L52.0 129.22265842562587"/>
<path stroke="#000000" fill="none" stroke-width="0.8" d="M 24.0 129.22265842562587L24.0 148.78902356186254"/>
<path stroke="#000000" fill="none" stroke-width="0.8" d="M 23.6 129.22265842562587L52.0 129.22265842562587"/>
<path stroke="#000000" fill="none" stroke-width="0.8" d="M 24.0 148.78902356186254L24.0 189.76863077536748"/>
<path stroke="#000000" fill="none" stroke-width="0.8" d="M 24.0 148.78902356186254L24.0 189.76863077536748"/>
<path stroke="#000000" fill="none" stroke-width="0.8" d="M 24.0 189.76863077536748L24.0 202.5084365166286"/>
<path stroke="#000000" fill="none" stroke-width="0.8" d="M 24.0 189.76863077536748L24.0 202.5084365166286"/>
<path stroke="#000000" fill="none" stroke-width="0.8" d="M 32.0 189.76863077536748L32.0 200.05808443477738"/>
<path stroke="#000000" fill="none" stroke-width="0.8" d="M 32.4 189.76863077536748L24.0 189.76863077536748"/>
<path stroke="#000000" fill="none" stroke-width="0.8" d="M 40.0 148.78902356186254L40.0 159.50374493795735"/>
<path stroke="#000000" fill="none" stroke-width="0.8" d="M 40.4 148.78902356186254L24.0 148.78902356186254"/>
<path stroke="#000000" fill="none" stroke-width="0.8" d="M 52.0 129.22265842562587L52.0 145.66836855514126"/>
<path stroke="#000000" fill="none" stroke-width="0.8" d="M 52.0 129.22265842562587L52.0 145.66836855514126"/>
<path stroke="#000000" fill="none" stroke-width="0.8" d="M 64.0 52.980257161480374L64.0 74.76611476193926"/>
<path stroke="#000000" fill="none" stroke-width="0.8" d="M 64.4 52.980257161480374L52.0 52.980257161480374"/>
<path stroke="#000000" fill="none" stroke-width="0.8" d="M 72.0 40.15742296124745L72.0 68.87109417494023"/>
<path stroke="#000000" fill="none" stroke-width="0.8" d="M 72.4 40.15742296124745L52.0 40.15742296124745"/>
<path stroke="#000000" fill="none" stroke-width="0.8" d="M 80.0 39.94478910290499L80.0 69.45836864083844"/>
<path stroke="#000000" fill="none" stroke-width="0.8" d="M 80.4 39.94478910290499L52.0 39.94478910290499"/>
<path stroke="#000000" fill="none" stroke-width="0.8" d="M 100.0 17.91126368458625L100.0 18.107089342697826"/>
<path stroke="#000000" fill="none" stroke-width="0.8" d="M 100.4 17.91126368458625L52.0 17.91126368458625"/>
<path stroke="#000000" fill="none" stroke-width="0.8" d="M 88.0 18.107089342697826L88.0 42.9176129509691"/>
<path stroke="#000000" fill="none" stroke-width="0.8" d="M 87.6 18.107089342697826L100.0 18.107089342697826"/>
<path stroke="#000000" fill="none" stroke-width="0.8" d="M 100.0 18.107089342697826L100.0 40.38625749451124"/>
<path stroke="#000000" fill="none" stroke-width="0.8" d="M 100.0 18.107089342697826L100.0 40.38625749451124"/>
<path stroke="#000000" fill="none" stroke-width="0.8" d="M 116.0 15.314092986260487L116.0 30.226409234471983"/>
<path stroke="#000000" fill="none" stroke-width="0.8" d="M 116.4 15.314092986260487L52.0 15.314092986260487"/>
<path stroke="#000000" fill="none" stroke-width="0.8" d="M 132.0 13.163048373580859L132.0 29.45890226007396"/>
<path stroke="#000000" fill="none" stroke-width="0.8" d="M 132.4 13.163048373580859L52.0 13.163048373580859"/>
<path stroke="#000000" fill="none" stroke-width="0.8" d="M 156.0 4.105048516628578L156.0 19.103430850359644"/>
<path stroke="#000000" fill="none" stroke-width="0.8" d="M 156.0 4.105048516628578L156.0 19.103430850359644"/>
<path stroke="#000000" fill="none" stroke-width="0.8" d="M 144.0 19.103430850359644L144.0 42.05087684267793"/>
<path stroke="#000000" fill="none" stroke-width="0.8" d="M 143.6 19.103430850359644L156.0 19.103430850359644"/>
<path stroke="#000000" fill="none" stroke-width="0.8" d="M 156.0 19.103430850359644L156.0 44.77866548255692"/>
<path stroke="#000000" fill="none" stroke-width="0.8" d="M 156.0 19.103430850359644L156.0 44.77866548255692"/>
</g>
</g>
<g transform="matrix(1.0 0.0 0.0 1.0 867.0 350.0)">
<g >
<path stroke="#000000" fill="none" stroke-width="4.0" d="M 156.0 4.105048516628578L156.0 -55.76563132635029"/>
<path stroke="#000000" fill="none" stroke-width="4.0" d="M 156.0 4.105048516628578L156.0 18.938188422941305L156.0 4.105048516628578L156.0 18.938188422941305L156.0 4.105048516628578L156.0 -61.352434072971036"/>
<path stroke="#000000" fill="#3077cb" stroke-width="0.8" d="M 152.0 -65.35243407297104L160.0 -65.35243407297104L160.0 -57.352434072971036L152.0 -57.352434072971036L152.0 -65.35243407297104z"/>
<path stroke="#3077cb" fill="#3077cb" stroke-width="2.4" d="M 156.0 4.105048516628578L156.0 18.138188422941305L156.0 4.105048516628578L156.0 18.138188422941305L156.0 4.105048516628578L156.0 -61.352434072971036"/>
<path stroke="#000000" fill="none" stroke-width="4.0" d="M 52.0 129.22265842562587L52.0 145.5728100827419L52.0 129.22265842562587L52.0 145.5728100827419L52.0 59.47875288929899L52.0 129.22265842562587L52.0 52.980257161480374L52.0 59.47875288929899L52.0 50.95314771194892L52.0 52.980257161480374L52.0 40.15742296124745L52.0 50.95314771194892L52.0 39.94478910290499L52.0 40.15742296124745L52.0 17.91126368458625L52.0 39.94478910290499L52.0 15.314092986260487L52.0 17.91126368458625L52.0 13.163048373580859L52.0 15.314092986260487L52.0 4.1293495290105735L52.0 13.163048373580859L52.0 4.129147020574057L52.0 4.1293495290105735L52.0 4.105048516628578L52.0 4.129147020574057"/>
<path stroke="#000000" fill="#75aef7" stroke-width="0.8" d="M 48.0 0.10504851662857817L56.0 0.10504851662857817L56.0 8.105048516628578L48.0 8.105048516628578L48.0 0.10504851662857817z"/>
<path stroke="#75aef7" fill="#75aef7" stroke-width="2.4" d="M 52.0 129.22265842562587L52.0 144.7728100827419L52.0 129.22265842562587L52.0 144.7728100827419L52.0 59.47875288929899L52.0 129.22265842562587L52.0 52.980257161480374L52.0 59.47875288929899L52.0 50.95314771194892L52.0 52.980257161480374L52.0 40.15742296124745L52.0 50.95314771194892L52.0 39.94478910290499L52.0 40.15742296124745L52.0 17.91126368458625L52.0 39.94478910290499L52.0 15.314092986260487L52.0 17.91126368458625L52.0 13.163048373580859L52.0 15.314092986260487L52.0 4.1293495290105735L52.0 13.163048373580859L52.0 4.129147020574057L52.0 4.1293495290105735L52.0 4.105048516628578L52.0 4.129147020574057"/>
<path stroke="#000000" fill="none" stroke-width="4.0" d="M 132.0 13.163048373580859L132.0 16.78658741331976L132.0 13.163048373580859L132.0 16.78658741331976"/>
<path stroke="#000000" fill="#d0e4fe" stroke-width="0.8" d="M 128.0 9.163048373580857L136.0 9.163048373580857L136.0 17.163048373580857L128.0 17.163048373580857L128.0 9.163048373580857z"/>
<path stroke="#d0e4fe" fill="#d0e4fe" stroke-width="2.4" d="M 132.0 13.163048373580859L132.0 15.986587413319763L132.0 13.163048373580859L132.0 15.986587413319763"/>
<path stroke="#000000" fill="none" stroke-width="4.0" d="M 100.0 18.107089342697826L100.0 20.230604282409516L100.0 18.107089342697826L100.0 20.230604282409516L100.0 17.91126368458625L100.0 18.107089342697826"/>
<path stroke="#000000" fill="#d0e4fe" stroke-width="0.8" d="M 96.0 13.911263684586253L104.0 13.911263684586253L104.0 21.911263684586253L96.0 21.911263684586253L96.0 13.911263684586253z"/>
<path stroke="#d0e4fe" fill="#d0e4fe" stroke-width="2.4" d="M 100.0 18.107089342697826L100.0 19.430604282409515L100.0 18.107089342697826L100.0 19.430604282409515L100.0 17.91126368458625L100.0 18.107089342697826"/>
<path stroke="#000000" fill="none" stroke-width="4.0" d="M -132.0 4.1293495290105735L-132.0 19.019247938500655L-132.0 4.1293495290105735L-132.0 19.019247938500655"/>
<path stroke="#000000" fill="#d0e4fe" stroke-width="0.8" d="M -136.0 0.12934952901057528L-128.0 0.12934952901057528L-128.0 8.129349529010575L-136.0 8.129349529010575L-136.0 0.12934952901057528z"/>
<path stroke="#d0e4fe" fill="#d0e4fe" stroke-width="2.4" d="M -132.0 4.1293495290105735L-132.0 18.219247938500654L-132.0 4.1293495290105735L-132.0 18.219247938500654"/>
<path stroke="#000000" fill="none" stroke-width="4.0" d="M 116.0 15.314092986260487L116.0 20.54349385206588L116.0 15.314092986260487L116.0 20.54349385206588"/>
<path stroke="#000000" fill="#3077cb" stroke-width="0.8" d="M 112.0 11.314092986260484L120.0 11.314092986260484L120.0 19.314092986260484L112.0 19.314092986260484L112.0 11.314092986260484z"/>
<path stroke="#3077cb" fill="#3077cb" stroke-width="2.4" d="M 116.0 15.314092986260487L116.0 19.743493852065882L116.0 15.314092986260487L116.0 19.743493852065882"/>
<path stroke="#000000" fill="none" stroke-width="4.0" d="M -28.0 52.71902127837392L-28.0 56.803267011188154L-28.0 52.71902127837392L-28.0 56.803267011188154L-28.0 51.14958089537006L-28.0 52.71902127837392L-28.0 50.95314771194892L-28.0 51.14958089537006"/>
<path stroke="#000000" fill="#d0e4fe" stroke-width="0.8" d="M -32.0 46.95314771194892L-24.0 46.95314771194892L-24.0 54.95314771194892L-32.0 54.95314771194892L-32.0 46.95314771194892z"/>
<path stroke="#d0e4fe" fill="#d0e4fe" stroke-width="2.4" d="M -28.0 52.71902127837392L-28.0 56.00326701118816L-28.0 52.71902127837392L-28.0 56.00326701118816L-28.0 51.14958089537006L-28.0 52.71902127837392L-28.0 50.95314771194892L-28.0 51.14958089537006"/>
<path stroke="#000000" fill="none" stroke-width="4.0" d="M -60.0 139.2994782266933L-60.0 144.3856194114184L-60.0 139.2994782266933L-60.0 144.3856194114184L-60.0 113.80366606924976L-60.0 139.2994782266933L-60.0 59.64278472287745L-60.0 113.80366606924976L-60.0 52.71902127837392L-60.0 59.64278472287745"/>
<path stroke="#000000" fill="#3077cb" stroke-width="0.8" d="M -64.0 48.71902127837392L-56.0 48.71902127837392L-56.0 56.71902127837392L-64.0 56.71902127837392L-64.0 48.71902127837392z"/>
<path stroke="#3077cb" fill="#3077cb" stroke-width="2.4" d="M -60.0 139.2994782266933L-60.0 143.58561941141838L-60.0 139.2994782266933L-60.0 143.58561941141838L-60.0 113.80366606924976L-60.0 139.2994782266933L-60.0 59.64278472287745L-60.0 113.80366606924976L-60.0 52.71902127837392L-60.0 59.64278472287745"/>
<path stroke="#000000" fill="none" stroke-width="4.0" d="M -12.0 67.10724569288038L-12.0 77.19012214593127L-12.0 67.10724569288038L-12.0 77.19012214593127L-12.0 59.47875288929899L-12.0 67.10724569288038"/>
<path stroke="#000000" fill="#d0e4fe" stroke-width="0.8" d="M -16.0 55.47875288929898L-8.0 55.47875288929898L-8.0 63.47875288929898L-16.0 63.47875288929898L-16.0 55.47875288929898z"/>
<path stroke="#d0e4fe" fill="#d0e4fe" stroke-width="2.4" d="M -12.0 67.10724569288038L-12.0 76.39012214593126L-12.0 67.10724569288038L-12.0 76.39012214593126L-12.0 59.47875288929899L-12.0 67.10724569288038"/>
<path stroke="#000000" fill="none" stroke-width="4.0" d="M 4.0 85.88990317979768L4.0 143.26436428400422L4.0 85.88990317979768L4.0 143.26436428400422L4.0 67.10724569288038L4.0 85.88990317979768"/>
<path stroke="#000000" fill="#75aef7" stroke-width="0.8" d="M 0.0 63.10724569288038L8.0 63.10724569288038L8.0 71.10724569288038L0.0 71.10724569288038L0.0 63.10724569288038z"/>
<path stroke="#75aef7" fill="#75aef7" stroke-width="2.4" d="M 4.0 85.88990317979768L4.0 142.46436428400423L4.0 85.88990317979768L4.0 142.46436428400423L4.0 67.10724569288038L4.0 85.88990317979768"/>
</g>
</g>
</g>
</svg>