<?xml version="1.0" encoding="utf-8"?>
<svg version="1.2" baseProfile="tiny" id="openrndr-svg" xmlns="http://www.w3.org/2000/svg" xmlns:xlink="http://www.w3.org/1999/xlink" height="576.0" x="0.0" y="0.0" width="768.0" ><g >
<g transform="matrix(1.0 0.0 0.0 1.0 713.0 350.0)">
<g >
<path fill="#3077cb" d="M -200.0 158.29272512524633L-200.0 163.134823367036L-200.0 163.37611125258758L-200.0 191.19846051734152L-200.0 197.8477978249453L-200.0 207.86879370596674L-208.0 207.86879370596674L-208.0 197.8477978249453L-208.0 191.19846051734152L-208.0 163.37611125258758L-208.0 163.134823367036L-208.0 158.29272512524633L-200.0 158.29272512524633z"/>
<path fill="#d0e4fe" d="M -208.0 157.61062283339862L-200.0 157.61062283339862L-200.0 157.85201071895023L-200.0 157.98425504083906L-200.0 158.29282512524634L-208.0 158.29282512524634L-208.0 158.61062283339862L-256.0 158.61062283339862L-256.0 171.93313928954132L-264.0 171.93313928954132L-264.0 158.29282512524634L-264.0 157.98425504083906L-264.0 157.85201071895023L-264.0 157.61062283339862L-256.0 157.61062283339862L-208.0 157.61062283339862z"/>
<path fill="#d0e4fe" d="M -96.0 99.98457955138076L-96.0 113.25783333253963L-96.0 113.4991212180912L-96.0 131.17577891056624L-96.0 133.8392259549239L-96.0 193.1798052698515L-96.0 231.9975822611236L-112.0 231.9975822611236L-112.0 193.1798052698515L-112.0 133.8392259549239L-112.0 131.17577891056624L-112.0 113.4991212180912L-112.0 113.25783333253963L-112.0 99.98457955138076L-96.0 99.98457955138076z"/>
<path fill="#75aef7" d="M -24.0 82.78590479881822L-24.0 147.29929390176474L-24.0 187.90454125239705L-32.0 187.90454125239705L-32.0 158.95404673469056L-32.0 158.79860165457558L-32.0 157.94017360020945L-32.0 131.4170667961178L-32.0 128.8417826330193L-32.0 107.02509769705631L-32.0 107.0150976970563L-40.0 107.0150976970563L-40.0 102.48702938802874L-40.0 94.63517310760275L-48.0 94.63517310760275L-48.0 102.47702938802874L-56.0 102.47702938802874L-56.0 91.6592355239021L-56.0 89.07235098169056L-56.0 82.9264701275934L-56.0 81.78590479881822L-48.0 81.78590479881822L-40.0 81.78590479881822L-32.0 81.78590479881822L-24.0 81.78590479881822L-16.0 81.78590479881822L-8.0 81.78590479881822L0.0 81.78590479881822L8.0 81.78590479881822L16.0 81.78590479881822L24.0 81.78590479881822L32.0 81.78590479881822L48.0 81.78590479881822L56.0 81.78590479881822L64.0 81.78590479881822L72.0 81.78590479881822L80.0 81.78590479881822L88.0 81.78590479881822L88.0 93.37073178427963L80.0 93.37073178427963L80.0 93.38073178427962L80.0 117.47167942956514L72.0 117.47167942956514L72.0 117.48167942956513L72.0 122.12575152972327L64.0 122.12575152972327L64.0 119.65487077864232L56.0 119.65487077864232L56.0 122.13575152972328L56.0 128.8417826330193L56.0 131.4170667961178L56.0 132.2644828745344L48.0 132.2644828745344L48.0 132.27448287453439L48.0 157.94017360020945L48.0 158.79860165457558L48.0 158.95404673469056L48.0 166.63016565576157L48.0 170.15364113359848L32.0 170.15364113359848L32.0 170.16364113359847L32.0 172.0869839905432L32.0 187.91454125239704L32.0 208.07064030253392L24.0 208.07064030253392L24.0 187.91454125239704L24.0 127.26703955262978L16.0 127.26703955262978L16.0 117.61552413056705L8.0 117.61552413056705L8.0 172.0769839905432L0.0 172.0769839905432L0.0 122.12575152972327L-8.0 122.12575152972327L-8.0 147.28929390176475L-16.0 147.28929390176475L-16.0 82.78590479881822L-24.0 82.78590479881822z"/>
<path fill="#75aef7" d="M -56.0 81.78600479881823L-56.0 54.07560757671313L-64.0 54.07560757671313L-64.0 62.83621388289316L-72.0 62.83621388289316L-72.0 75.9353619773562L-80.0 75.9353619773562L-80.0 81.62418789439894L-88.0 81.62418789439894L-88.0 81.7860047988182L-88.0 86.04625241229596L-96.0 86.04625241229596L-96.0 86.05625241229595L-96.0 90.65232261688882L-96.0 92.67644071015536L-96.0 92.98501079456267L-96.0 99.98467955138076L-112.0 99.98467955138076L-112.0 93.11320336796979L-120.0 93.11320336796979L-120.0 70.30685803170134L-128.0 70.30685803170134L-128.0 93.1232033679698L-128.0 99.98467955138076L-128.0 102.4491884781574L-136.0 102.4491884781574L-136.0 102.45918847815739L-136.0 106.87357307187702L-152.0 106.87357307187702L-152.0 106.88357307187701L-152.0 110.50289135515055L-152.0 111.01794818777023L-152.0 111.44948229077592L-152.0 113.94820395172823L-152.0 114.5338750349758L-152.0 114.75428223812389L-152.0 115.56862885186044L-152.0 115.67202028792838L-152.0 115.7890360550085L-152.0 117.42367753399986L-152.0 117.48167942956513L-152.0 117.65336504043836L-152.0 119.1196529603287L-152.0 119.66487077864232L-152.0 122.0197477385927L-152.0 122.10559054402933L-152.0 126.55781604762029L-152.0 132.27448287453439L-152.0 132.84986167854197L-152.0 135.20473863849236L-152.0 147.24129200619944L-152.0 157.61072283339865L-152.0 188.02054504352762L-160.0 188.02054504352762L-160.0 157.61072283339865L-160.0 117.47167942956514L-168.0 117.47167942956514L-168.0 122.09559054402933L-184.0 122.09559054402933L-184.0 119.65487077864232L-192.0 119.65487077864232L-192.0 132.2644828745344L-200.0 132.2644828745344L-200.0 157.61072283339865L-208.0 157.61072283339865L-208.0 117.64336504043837L-216.0 117.64336504043837L-216.0 110.49289135515055L-224.0 110.49289135515055L-224.0 113.93820395172823L-232.0 113.93820395172824L-232.0 117.41367753399987L-240.0 117.41367753399987L-240.0 135.19473863849237L-248.0 135.19473863849237L-248.0 147.23129200619945L-256.0 147.23129200619948L-256.0 157.61072283339865L-264.0 157.61072283339865L-264.0 122.01974773859271L-264.0 122.00974773859272L-272.0 122.00974773859272L-272.0 119.1196529603287L-272.0 115.7890360550085L-272.0 115.67202028792838L-272.0 115.56862885186044L-272.0 114.75428223812389L-272.0 114.53387503497581L-272.0 111.95685919921823L-272.0 99.98467955138076L-272.0 96.65667884580668L-272.0 95.90961443092587L-272.0 92.98501079456267L-272.0 92.67644071015536L-272.0 19.558935207359504L-264.0 19.558935207359504L-256.0 19.558935207359504L-248.0 19.558935207359504L-240.0 19.558935207359504L-232.0 19.558935207359504L-224.0 19.558935207359504L-216.0 19.558935207359504L-208.0 19.558935207359504L-200.0 19.558935207359504L-192.0 19.558935207359504L-184.0 19.558935207359504L-168.0 19.558935207359504L-160.0 19.558935207359504L-152.0 19.558935207359504L-136.0 19.558935207359504L-128.0 19.558935207359504L-112.0 19.558935207359504L-96.0 19.558935207359504L-88.0 19.558935207359504L-48.0 19.558935207359504L48.0 19.558935207359504L48.0 81.78600479881823L-16.0 81.78600479881823L-16.0 64.59019120478725L-24.0 64.59019120478725L-24.0 81.78600479881823L-48.0 81.78600479881823L-56.0 81.78600479881823z"/>
<path fill="#3077cb" stroke-width="448.0" d="M 88.0 64.54218930922195L47.99999999999999 64.54218930922197L48.0 76.31642604701224L48.0 76.31944214558163L48.0 78.38546966561694L48.0 78.77501039623337L48.0 81.78600479881823L32.0 81.78600479881823L32.0 64.60019120478725L-16.0 64.60019120478725L-16.0 64.59019120478725L-24.0 64.59019120478725L-24.0 64.60019120478725L-48.0 64.60019120478725L-48.0 81.78600479881823L-56.0 81.78600479881823L-56.0 54.07560757671313L-64.0 54.07560757671313L-64.0 62.83621388289316L-72.0 62.83621388289316L-72.0 75.9353619773562L-80.0 75.9353619773562L-80.0 81.62418789439894L-88.0 81.62418789439894L-88.0 81.7860047988182L-96.0 81.78600479881823L-112.0 81.78600479881823L-112.0 70.31685803170134L-120.0 70.31685803170134L-120.0 70.30685803170134L-128.0 70.30685803170134L-128.0 70.31685803170134L-136.0 70.31685803170134L-136.0 81.78600479881823L-168.0 81.78600479881823L-184.0 81.78600479881823L-272.0 81.78600479881823L-272.0 111.95685919921823L-280.0 111.95685919921823L-280.0 111.96685919921822L-280.0 128.0923981423159L-280.0 131.37298535548814L-280.0 157.9192929178059L-280.0 158.31370580764985L-280.0 159.43953098477976L-296.0 159.4395309847798L-296.0 158.31370580764985L-296.0 157.91929291780593L-296.0 131.37298535548817L-296.0 128.0923981423159L-296.0 111.96685919921822L-296.0 103.09024910190766L-296.0 81.78600479881823L-296.0 81.63418789439895L-296.0 80.08205716907203L-296.0 78.77501039623337L-296.0 78.38546966561694L-296.0 77.18196239080798L-296.0 76.31944214558163L-296.0 76.31642604701223L-296.0 75.9453619773562L-296.0 72.15435808320943L-296.0 70.31685803170134L-296.0 67.50028598305128L-296.0 64.60019120478725L-296.0 64.54218930922197L-296.0 62.84621388289315L-296.0 62.04346764826967L-296.0 61.15255853238695L-296.0 60.864869130383155L-296.0 58.48215126056142L-296.0 57.70492585998666L-296.0 54.08560757671313L-296.0 51.61472682563216L-296.0 51.443041214758935L-296.0 44.95146906309269L-296.0 38.172207509422655L-296.0 37.3973021846705L-296.0 25.85028481553436L-296.0 24.844972287634167L-312.0 24.844972287634167L-312.0 25.840284815534375L-328.0 25.84028481553439L-328.0 20.8259286140875L-328.0 19.558935207359504L-328.0 3.207126261123575L104.0 3.207126261123575L104.0 19.558935207359504L104.0 51.43304121475893L96.0 51.43304121475894L96.0 51.44304121475892L96.0 64.53218930922196L88.0 64.53218930922196L88.0 64.54218930922195z"/>
</g>
</g>
<g transform="matrix(1.0 0.0 0.0 1.0 923.0 350.0)">
<g >
<path fill="#fb827a" d="M 180.0 126.26175831827561L180.0 132.60958576893995L180.0 139.13190730946366L164.0 139.13190730946366L164.0 132.60958576893995L164.0 126.26175831827561L180.0 126.26175831827561z"/>
<path fill="#ffd6d1" d="M 260.0 110.06066884898135L260.0 116.72402661152083L260.0 123.59145104645009L260.0 128.07050548396282L260.0 137.2636578690981L260.0 142.29126217669665L260.0 145.1913569549607L260.0 155.7616224027775L260.0 230.89786632120587L244.0 230.89786632120587L244.0 230.90786632120586L244.0 231.9975822611236L236.0 231.9975822611236L236.0 230.90786632120586L236.0 155.7616224027775L236.0 145.19135695496067L236.0 142.29126217669665L236.0 137.2636578690981L236.0 128.07050548396282L236.0 123.59145104645009L236.0 116.72402661152083L236.0 110.06066884898135L244.0 110.06066884898135L260.0 110.06066884898135z"/>
<path fill="#ffd6d1" d="M 236.0 102.50650197055916L260.0 102.50650197055916L260.0 110.06076884898135L244.0 110.06076884898135L236.0 110.06076884898135L236.0 103.50650197055916L180.0 103.50650197055916L180.0 110.06076884898135L180.0 126.26185831827561L164.0 126.26185831827561L164.0 119.50942569852737L164.0 103.50650197055916L156.0 103.50650197055916L156.0 119.49942569852735L148.0 119.49942569852736L148.0 115.31632899035931L140.0 115.31632899035931L140.0 114.48110169421926L132.0 114.48110169421926L132.0 120.04928366848623L124.0 120.04928366848624L124.0 126.26185831827561L124.0 132.73849803905665L124.0 145.5817180963229L108.0 145.5817180963229L108.0 135.2365000032994L100.0 135.2365000032994L100.0 145.5917180963229L100.0 145.67988097758212L100.0 150.11514625370526L92.0 150.11514625370526L92.0 145.67988097758212L92.0 145.66988097758212L84.0 145.66988097758212L84.0 138.15123493320866L84.0 138.14123493320866L68.0 138.14123493320866L68.0 126.26185831827561L68.0 110.06076884898135L68.0 102.50650197055917L84.0 102.50650197055917L92.0 102.50650197055917L100.0 102.50650197055917L108.0 102.50650197055917L124.0 102.50650197055917L132.0 102.50650197055917L140.0 102.50650197055917L148.0 102.50650197055917L156.0 102.50650197055916L164.0 102.50650197055916L180.0 102.50650197055916L236.0 102.50650197055916z"/>
<path fill="#fb827a" d="M 364.0 102.50650197055916L372.0 102.50650197055916L380.0 102.50650197055916L380.0 103.28150729531134L380.0 104.83886657544696L372.0 104.83886657544696L372.0 104.18996504182537L372.0 103.50650197055916L364.0 103.50650197055916L364.0 104.17996504182537L356.0 104.17996504182537L356.0 104.84886657544695L356.0 109.19828904613348L348.0 109.19828904613348L348.0 109.20828904613349L348.0 220.11183382188622L340.0 220.11183382188622L340.0 220.1218338218862L340.0 221.6523641681001L332.0 221.6523641681001L332.0 220.1218338218862L332.0 196.0185661007781L332.0 191.6114340137663L332.0 188.36564793793318L332.0 187.41340487471302L332.0 187.40340487471303L324.0 187.40340487471303L324.0 183.93561121661878L324.0 177.0761589851069L324.0 175.69803394647585L324.0 169.23430270468094L324.0 167.20786453559177L324.0 167.19786453559178L308.0 167.19786453559178L308.0 165.3796447873741L308.0 165.3696447873741L300.0 165.3696447873741L300.0 157.77312814098144L300.0 155.58993679190425L300.0 110.06076884898135L300.0 103.50650197055916L260.0 103.50650197055916L260.0 110.06076884898135L244.0 110.06076884898135L236.0 110.06076884898135L236.0 103.50650197055916L180.0 103.50650197055916L180.0 110.06076884898135L164.0 110.06076884898135L164.0 103.50650197055916L156.0 103.50650197055916L156.0 110.06076884898135L140.0 110.06076884898135L124.0 110.06076884898135L108.0 110.06076884898135L68.0 110.06076884898135L68.0 103.28150729531134L68.0 102.50650197055917L108.0 102.50650197055917L124.0 102.50650197055917L140.0 102.50650197055917L156.0 102.50650197055916L164.0 102.50650197055916L180.0 102.50650197055916L236.0 102.50650197055916L244.0 102.50650197055916L260.0 102.50650197055916L300.0 102.50650197055916L308.0 102.50650197055916L324.0 102.50650197055916L332.0 102.50650197055916L340.0 102.50650197055916L348.0 102.50650197055916L356.0 102.50650197055916L364.0 102.50650197055916z"/>
<path fill="#ffd6d1" d="M -60.0 89.9161388844115L-60.0 85.93512839997616L-52.0 85.93512839997616L-52.0 89.9161388844115L-60.0 89.9161388844115z"/>
<path fill="#fb827a" d="M -60.0 89.9161388844115L-60.0 90.11334532933346L-68.0 90.11334532933346L-68.0 85.93522839997617L-68.0 84.66813499324817L-60.0 84.66813499324817L-52.0 84.66813499324817L-52.0 85.93522839997617L-60.0 85.93522839997617L-60.0 89.9161388844115z"/>
<path fill="#c64340" stroke-width="520.0" d="M 300.0 33.59933806305592L300.0 33.58933806305592L292.0 33.58933806305592L292.0 33.280767978648626L284.0 33.280767978648626L284.0 67.9473409201057L276.0 67.9473409201057L276.0 90.04838320630034L268.0 90.04838320630034L268.0 89.96022032504112L260.0 89.96022032504112L260.0 102.50660197055917L244.0 102.50660197055916L244.0 68.85985041510148L236.0 68.85985041510148L236.0 68.84985041510147L228.0 68.84985041510147L228.0 70.36950007891184L220.0 70.36950007891184L220.0 71.49241677705568L212.0 71.49241677705568L212.0 71.11888456961528L204.0 71.11888456961528L204.0 69.11433905887915L196.0 69.11433905887915L196.0 54.96187654095063L188.0 54.96187654095063L188.0 55.42357162965026L180.0 55.42357162965026L180.0 102.50660197055916L164.0 102.50660197055917L164.0 99.11523952106505L156.0 99.11523952106505L156.0 99.12523952106505L148.0 99.12523952106505L148.0 102.50660197055917L132.0 102.50660197055917L124.0 102.50660197055917L84.0 102.50660197055917L68.0 102.50660197055917L68.0 98.6094629917358L60.0 98.6094629917358L60.0 80.75879961256494L52.0 80.75879961256494L52.0 87.71438692875344L44.0 87.71438692875344L44.0 87.89071269127189L36.0 87.89071269127189L35.99999999999999 102.50660197055917L36.0 148.29924658131017L36.0 165.98678495618873L20.0 165.98678495618873L20.0 165.99678495618872L20.0 166.91017513358798L12.0 166.91017513358798L12.0 165.39284554560024L4.0 165.39284554560024L4.0 166.92017513358797L4.0 197.33100931966652L-4.0 197.33100931966652L-4.0 197.3410093196665L-4.0 207.31037512942697L-4.0 213.4516158318789L-4.0 222.53399298069237L-12.0 222.53399298069237L-12.0 213.4516158318789L-12.0 213.44161583187892L-20.0 213.44161583187892L-20.0 207.31037512942697L-20.0 180.74318688470572L-20.0 168.1995488877963L-20.0 161.6814439261318L-20.0 109.16420760550388L-20.0 104.11268284296966L-28.0 104.11268284296966L-28.0 109.15420760550387L-36.0 109.15420760550387L-36.0 104.78390445241385L-36.0 97.70695349674003L-44.0 97.70695349674003L-44.0 104.77390445241383L-52.0 104.77390445241384L-52.0 102.50660197055917L-52.00000000000001 89.9161388844115L-52.00000000000001 84.66823499324818L-60.0 84.66823499324818L-68.0 84.66823499324818L-68.0 84.42291903317765L-68.0 84.41291903317764L-76.0 84.41291903317764L-76.0 11.207126261123575L-76.0 3.207126261123575L428.0 3.207126261123575L428.0 11.207126261123575L428.0 84.66823499324818L428.0 84.76557055821455L420.0 84.76557055821455L420.0 17.79588591579445L412.0 17.79588591579445L412.0 18.044598043978368L404.0 18.044598043978375L404.0 81.15553257823147L396.0 81.15553257823147L396.0 84.77557055821454L396.0 88.06703845379035L388.0 88.06703845379035L388.0 87.955674814305L380.0 87.955674814305L380.0 88.07703845379032L380.0 102.50660197055917L372.0 102.50660197055917L372.0 97.53062773422158L364.0 97.53062773422158L364.0 102.50660197055917L356.0 102.50660197055917L324.0 102.50660197055917L308.0 102.50660197055916L308.0 33.59933806305592L300.0 33.59933806305592z"/>
</g>
</g>
<g transform="matrix(1.0 0.0 0.0 1.0 400.0 350.0)">
<g >
<path stroke="#000000" fill="none" stroke-opacity="0.1" stroke-width="0.4" d="M -43.0 -94.45667341770942L971.5 -94.45667341770942"/>
<path stroke="#000000" fill="none" stroke-opacity="0.1" stroke-width="0.4" d="M -43.0 -61.90207352476509L971.5 -61.90207352476509"/>
<path stroke="#000000" fill="none" stroke-opacity="0.1" stroke-width="0.4" d="M -43.0 -29.347473631820762L971.5 -29.347473631820762"/>
<path stroke="#000000" fill="none" stroke-opacity="0.1" stroke-width="0.4" d="M -43.0 3.2071262611235696L971.5 3.2071262611235696"/>
<path stroke="#000000" fill="none" stroke-opacity="0.1" stroke-width="0.4" d="M -43.0 35.7617261540679L971.5 35.7617261540679"/>
<path stroke="#000000" fill="none" stroke-opacity="0.1" stroke-width="0.4" d="M -43.0 68.31632604701224L971.5 68.31632604701224"/>
<path stroke="#000000" fill="none" stroke-opacity="0.1" stroke-width="0.4" d="M -43.0 100.87092593995658L971.5 100.87092593995658"/>
<path stroke="#000000" fill="none" stroke-opacity="0.1" stroke-width="0.4" d="M -43.0 133.42552583290092L971.5 133.42552583290092"/>
<path stroke="#000000" fill="none" stroke-opacity="0.1" stroke-width="0.4" d="M -43.0 165.98012572584526L971.5 165.98012572584526"/>
<path stroke="#000000" fill="none" stroke-opacity="0.1" stroke-width="0.4" d="M -43.0 198.5347256187896L971.5 198.5347256187896"/>
<path stroke="#000000" fill="none" stroke-opacity="0.1" stroke-width="0.4" d="M -43.0 231.08932551173393L971.5 231.08932551173393"/>
<path stroke="#000000" fill="none" stroke-opacity="0.1" stroke-width="0.4" d="M -43.0 263.64392540467827L971.5 263.64392540467827"/>
</g>
</g>
<g transform="matrix(1.0 0.0 0.0 1.0 713.0 350.0)">
<g >
<path stroke="#000000" fill="none" stroke-width="0.8" d="M -320.0 19.558935207359504L-320.0 20.8259286140875"/>
<path stroke="#000000" fill="none" stroke-width="0.8" d="M -320.4 19.558935207359504L-288.0 19.558935207359504"/>
<path stroke="#000000" fill="none" stroke-width="0.8" d="M -320.0 20.8259286140875L-320.0 25.85028481553439"/>
<path stroke="#000000" fill="none" stroke-width="0.8" d="M -320.0 20.8259286140875L-320.0 25.85028481553439"/>
<path stroke="#000000" fill="none" stroke-width="0.8" d="M -304.0 20.8259286140875L-304.0 24.85497228763417"/>
<path stroke="#000000" fill="none" stroke-width="0.8" d="M -303.6 20.8259286140875L-320.0 20.8259286140875"/>
<path stroke="#000000" fill="none" stroke-width="0.8" d="M -288.0 19.558935207359504L-288.0 37.39730218467051"/>
<path stroke="#000000" fill="none" stroke-width="0.8" d="M -288.0 19.558935207359504L-288.0 37.39730218467051"/>
<path stroke="#000000" fill="none" stroke-width="0.8" d="M -288.0 37.39730218467051L-288.0 103.09024910190766"/>
<path stroke="#000000" fill="none" stroke-width="0.8" d="M -288.0 37.39730218467051L-288.0 103.09024910190766"/>
<path stroke="#000000" fill="none" stroke-width="0.8" d="M -288.0 103.09024910190766L-288.0 159.44953098477978"/>
<path stroke="#000000" fill="none" stroke-width="0.8" d="M -288.0 103.09024910190766L-288.0 159.44953098477978"/>
<path stroke="#000000" fill="none" stroke-width="0.8" d="M -276.0 103.09024910190766L-276.0 111.96685919921823"/>
<path stroke="#000000" fill="none" stroke-width="0.8" d="M -275.6 103.09024910190766L-288.0 103.09024910190766"/>
<path stroke="#000000" fill="none" stroke-width="0.8" d="M 40.0 37.39730218467051L40.0 38.17220750942267"/>
<path stroke="#000000" fill="none" stroke-width="0.8" d="M 40.4 37.39730218467051L-288.0 37.39730218467051"/>
<path stroke="#000000" fill="none" stroke-width="0.8" d="M 40.0 38.17220750942267L40.0 44.951469063092695"/>
<path stroke="#000000" fill="none" stroke-width="0.8" d="M 40.0 38.17220750942267L40.0 44.951469063092695"/>
<path stroke="#000000" fill="none" stroke-width="0.8" d="M -176.0 44.951469063092695L-176.0 44.951469063092695"/>
<path stroke="#000000" fill="none" stroke-width="0.8" d="M -176.4 44.951469063092695L40.0 44.951469063092695"/>
<path stroke="#000000" fill="none" stroke-width="0.8" d="M -176.0 44.951469063092695L-176.0 61.15255853238695"/>
<path stroke="#000000" fill="none" stroke-width="0.8" d="M -176.0 44.951469063092695L-176.0 61.15255853238695"/>
<path stroke="#000000" fill="none" stroke-width="0.8" d="M -176.0 61.15255853238695L-176.0 92.66382835509276"/>
<path stroke="#000000" fill="none" stroke-width="0.8" d="M -176.0 61.15255853238695L-176.0 92.66382835509276"/>
<path stroke="#000000" fill="none" stroke-width="0.8" d="M -268.0 92.66382835509276L-268.0 95.90961443092587"/>
<path stroke="#000000" fill="none" stroke-width="0.8" d="M -268.4 92.66382835509276L-176.0 92.66382835509276"/>
<path stroke="#000000" fill="none" stroke-width="0.8" d="M -268.0 95.90961443092587L-268.0 96.6566788458067"/>
<path stroke="#000000" fill="none" stroke-width="0.8" d="M -268.0 95.90961443092587L-268.0 96.6566788458067"/>
<path stroke="#000000" fill="none" stroke-width="0.8" d="M -268.0 96.6566788458067L-268.0 115.67202028792839"/>
<path stroke="#000000" fill="none" stroke-width="0.8" d="M -268.0 96.6566788458067L-268.0 115.67202028792839"/>
<path stroke="#000000" fill="none" stroke-width="0.8" d="M -268.0 115.67202028792839L-268.0 119.1196529603287"/>
<path stroke="#000000" fill="none" stroke-width="0.8" d="M -268.0 115.67202028792839L-268.0 119.1196529603287"/>
<path stroke="#000000" fill="none" stroke-width="0.8" d="M -268.0 119.1196529603287L-268.0 122.01974773859273"/>
<path stroke="#000000" fill="none" stroke-width="0.8" d="M -268.0 119.1196529603287L-268.0 122.01974773859273"/>
<path stroke="#000000" fill="none" stroke-width="0.8" d="M -260.0 119.1196529603287L-260.0 171.9431392895413"/>
<path stroke="#000000" fill="none" stroke-width="0.8" d="M -259.6 119.1196529603287L-268.0 119.1196529603287"/>
<path stroke="#000000" fill="none" stroke-width="0.8" d="M -252.0 115.67202028792839L-252.0 132.84986167854197"/>
<path stroke="#000000" fill="none" stroke-width="0.8" d="M -251.6 115.67202028792839L-268.0 115.67202028792839"/>
<path stroke="#000000" fill="none" stroke-width="0.8" d="M -252.0 132.84986167854197L-252.0 147.24129200619947"/>
<path stroke="#000000" fill="none" stroke-width="0.8" d="M -252.0 132.84986167854197L-252.0 147.24129200619947"/>
<path stroke="#000000" fill="none" stroke-width="0.8" d="M -244.0 132.84986167854197L-244.0 135.20473863849236"/>
<path stroke="#000000" fill="none" stroke-width="0.8" d="M -243.6 132.84986167854197L-252.0 132.84986167854197"/>
<path stroke="#000000" fill="none" stroke-width="0.8" d="M -236.0 96.6566788458067L-236.0 101.48243655683807"/>
<path stroke="#000000" fill="none" stroke-width="0.8" d="M -235.6 96.6566788458067L-268.0 96.6566788458067"/>
<path stroke="#000000" fill="none" stroke-width="0.8" d="M -236.0 101.48243655683807L-236.0 117.42367753399988"/>
<path stroke="#000000" fill="none" stroke-width="0.8" d="M -236.0 101.48243655683807L-236.0 117.42367753399988"/>
<path stroke="#000000" fill="none" stroke-width="0.8" d="M -228.0 101.48243655683807L-228.0 102.86056159546915"/>
<path stroke="#000000" fill="none" stroke-width="0.8" d="M -227.6 101.48243655683807L-236.0 101.48243655683807"/>
<path stroke="#000000" fill="none" stroke-width="0.8" d="M -228.0 102.86056159546915L-228.0 113.94820395172825"/>
<path stroke="#000000" fill="none" stroke-width="0.8" d="M -228.0 102.86056159546915L-228.0 113.94820395172825"/>
<path stroke="#000000" fill="none" stroke-width="0.8" d="M -220.0 102.86056159546915L-220.0 110.50289135515055"/>
<path stroke="#000000" fill="none" stroke-width="0.8" d="M -219.6 102.86056159546915L-228.0 102.86056159546915"/>
<path stroke="#000000" fill="none" stroke-width="0.8" d="M -212.0 95.90961443092587L-212.0 104.12500291879226"/>
<path stroke="#000000" fill="none" stroke-width="0.8" d="M -211.6 95.90961443092587L-268.0 95.90961443092587"/>
<path stroke="#000000" fill="none" stroke-width="0.8" d="M -212.0 104.12500291879226L-212.0 111.01794818777024"/>
<path stroke="#000000" fill="none" stroke-width="0.8" d="M -212.0 104.12500291879226L-212.0 111.01794818777024"/>
<path stroke="#000000" fill="none" stroke-width="0.8" d="M -212.0 111.01794818777024L-212.0 117.65336504043837"/>
<path stroke="#000000" fill="none" stroke-width="0.8" d="M -212.0 111.01794818777024L-212.0 117.65336504043837"/>
<path stroke="#000000" fill="none" stroke-width="0.8" d="M -204.0 111.01794818777024L-204.0 126.5578160476203"/>
<path stroke="#000000" fill="none" stroke-width="0.8" d="M -203.6 111.01794818777024L-212.0 111.01794818777024"/>
<path stroke="#000000" fill="none" stroke-width="0.8" d="M -204.0 126.5578160476203L-204.0 207.87879370596673"/>
<path stroke="#000000" fill="none" stroke-width="0.8" d="M -204.0 126.5578160476203L-204.0 207.87879370596673"/>
<path stroke="#000000" fill="none" stroke-width="0.8" d="M -196.0 126.5578160476203L-196.0 132.27448287453439"/>
<path stroke="#000000" fill="none" stroke-width="0.8" d="M -195.6 126.5578160476203L-204.0 126.5578160476203"/>
<path stroke="#000000" fill="none" stroke-width="0.8" d="M -188.0 104.12500291879226L-188.0 119.66487077864232"/>
<path stroke="#000000" fill="none" stroke-width="0.8" d="M -187.6 104.12500291879226L-212.0 104.12500291879226"/>
<path stroke="#000000" fill="none" stroke-width="0.8" d="M -176.0 92.66382835509276L-176.0 111.44948229077595"/>
<path stroke="#000000" fill="none" stroke-width="0.8" d="M -176.0 92.66382835509276L-176.0 111.44948229077595"/>
<path stroke="#000000" fill="none" stroke-width="0.8" d="M -176.0 111.44948229077595L-176.0 122.10559054402934"/>
<path stroke="#000000" fill="none" stroke-width="0.8" d="M -176.0 111.44948229077595L-176.0 122.10559054402934"/>
<path stroke="#000000" fill="none" stroke-width="0.8" d="M -164.0 111.44948229077595L-164.0 117.48167942956515"/>
<path stroke="#000000" fill="none" stroke-width="0.8" d="M -163.6 111.44948229077595L-176.0 111.44948229077595"/>
<path stroke="#000000" fill="none" stroke-width="0.8" d="M -144.0 61.15255853238695L-144.0 67.50028598305128"/>
<path stroke="#000000" fill="none" stroke-width="0.8" d="M -143.6 61.15255853238695L-176.0 61.15255853238695"/>
<path stroke="#000000" fill="none" stroke-width="0.8" d="M -144.0 67.50028598305128L-144.0 82.84062732215679"/>
<path stroke="#000000" fill="none" stroke-width="0.8" d="M -144.0 67.50028598305128L-144.0 82.84062732215679"/>
<path stroke="#000000" fill="none" stroke-width="0.8" d="M -156.0 82.84062732215679L-156.0 188.0305450435276"/>
<path stroke="#000000" fill="none" stroke-width="0.8" d="M -156.4 82.84062732215679L-144.0 82.84062732215679"/>
<path stroke="#000000" fill="none" stroke-width="0.8" d="M -144.0 82.84062732215679L-144.0 90.6244817070175"/>
<path stroke="#000000" fill="none" stroke-width="0.8" d="M -144.0 82.84062732215679L-144.0 90.6244817070175"/>
<path stroke="#000000" fill="none" stroke-width="0.8" d="M -144.0 90.6244817070175L-144.0 106.88357307187702"/>
<path stroke="#000000" fill="none" stroke-width="0.8" d="M -144.0 90.6244817070175L-144.0 106.88357307187702"/>
<path stroke="#000000" fill="none" stroke-width="0.8" d="M -132.0 90.6244817070175L-132.0 102.4591884781574"/>
<path stroke="#000000" fill="none" stroke-width="0.8" d="M -131.6 90.6244817070175L-144.0 90.6244817070175"/>
<path stroke="#000000" fill="none" stroke-width="0.8" d="M -124.0 67.50028598305128L-124.0 70.31685803170134"/>
<path stroke="#000000" fill="none" stroke-width="0.8" d="M -123.6 67.50028598305128L-144.0 67.50028598305128"/>
<path stroke="#000000" fill="none" stroke-width="0.8" d="M -104.0 44.951469063092695L-104.0 51.61472682563217"/>
<path stroke="#000000" fill="none" stroke-width="0.8" d="M -103.6 44.951469063092695L-176.0 44.951469063092695"/>
<path stroke="#000000" fill="none" stroke-width="0.8" d="M -104.0 51.61472682563217L-104.0 58.48215126056142"/>
<path stroke="#000000" fill="none" stroke-width="0.8" d="M -104.0 51.61472682563217L-104.0 58.48215126056142"/>
<path stroke="#000000" fill="none" stroke-width="0.8" d="M -104.0 58.48215126056142L-104.0 72.15435808320943"/>
<path stroke="#000000" fill="none" stroke-width="0.8" d="M -104.0 58.48215126056142L-104.0 72.15435808320943"/>
<path stroke="#000000" fill="none" stroke-width="0.8" d="M -104.0 72.15435808320943L-104.0 77.18196239080798"/>
<path stroke="#000000" fill="none" stroke-width="0.8" d="M -104.0 72.15435808320943L-104.0 77.18196239080798"/>
<path stroke="#000000" fill="none" stroke-width="0.8" d="M -104.0 77.18196239080798L-104.0 80.08205716907203"/>
<path stroke="#000000" fill="none" stroke-width="0.8" d="M -104.0 77.18196239080798L-104.0 80.08205716907203"/>
<path stroke="#000000" fill="none" stroke-width="0.8" d="M -104.0 80.08205716907203L-104.0 90.65232261688882"/>
<path stroke="#000000" fill="none" stroke-width="0.8" d="M -104.0 80.08205716907203L-104.0 90.65232261688882"/>
<path stroke="#000000" fill="none" stroke-width="0.8" d="M -116.0 90.65232261688882L-116.0 93.1232033679698"/>
<path stroke="#000000" fill="none" stroke-width="0.8" d="M -116.4 90.65232261688882L-104.0 90.65232261688882"/>
<path stroke="#000000" fill="none" stroke-width="0.8" d="M -104.0 90.65232261688882L-104.0 232.0075822611236"/>
<path stroke="#000000" fill="none" stroke-width="0.8" d="M -104.0 90.65232261688882L-104.0 232.0075822611236"/>
<path stroke="#000000" fill="none" stroke-width="0.8" d="M -92.0 80.08205716907203L-92.0 86.05625241229596"/>
<path stroke="#000000" fill="none" stroke-width="0.8" d="M -91.6 80.08205716907203L-104.0 80.08205716907203"/>
<path stroke="#000000" fill="none" stroke-width="0.8" d="M -84.0 77.18196239080798L-84.0 81.63418789439895"/>
<path stroke="#000000" fill="none" stroke-width="0.8" d="M -83.6 77.18196239080798L-104.0 77.18196239080798"/>
<path stroke="#000000" fill="none" stroke-width="0.8" d="M -76.0 72.15435808320943L-76.0 75.9453619773562"/>
<path stroke="#000000" fill="none" stroke-width="0.8" d="M -75.6 72.15435808320943L-104.0 72.15435808320943"/>
<path stroke="#000000" fill="none" stroke-width="0.8" d="M -68.0 58.48215126056142L-68.0 62.84621388289316"/>
<path stroke="#000000" fill="none" stroke-width="0.8" d="M -67.6 58.48215126056142L-104.0 58.48215126056142"/>
<path stroke="#000000" fill="none" stroke-width="0.8" d="M -60.0 51.61472682563217L-60.0 54.08560757671313"/>
<path stroke="#000000" fill="none" stroke-width="0.8" d="M -59.6 51.61472682563217L-104.0 51.61472682563217"/>
<path stroke="#000000" fill="none" stroke-width="0.8" d="M 40.0 44.951469063092695L40.0 57.70492585998666"/>
<path stroke="#000000" fill="none" stroke-width="0.8" d="M 40.0 44.951469063092695L40.0 57.70492585998666"/>
<path stroke="#000000" fill="none" stroke-width="0.8" d="M -52.0 57.70492585998666L-52.0 60.86486913038316"/>
<path stroke="#000000" fill="none" stroke-width="0.8" d="M -52.4 57.70492585998666L40.0 57.70492585998666"/>
<path stroke="#000000" fill="none" stroke-width="0.8" d="M -52.0 60.86486913038316L-52.0 82.9264701275934"/>
<path stroke="#000000" fill="none" stroke-width="0.8" d="M -52.0 60.86486913038316L-52.0 82.9264701275934"/>
<path stroke="#000000" fill="none" stroke-width="0.8" d="M -52.0 82.9264701275934L-52.0 89.07235098169056"/>
<path stroke="#000000" fill="none" stroke-width="0.8" d="M -52.0 82.9264701275934L-52.0 89.07235098169056"/>
<path stroke="#000000" fill="none" stroke-width="0.8" d="M -52.0 89.07235098169056L-52.0 91.6592355239021"/>
<path stroke="#000000" fill="none" stroke-width="0.8" d="M -52.0 89.07235098169056L-52.0 91.6592355239021"/>
<path stroke="#000000" fill="none" stroke-width="0.8" d="M -52.0 91.6592355239021L-52.0 102.48702938802874"/>
<path stroke="#000000" fill="none" stroke-width="0.8" d="M -52.0 91.6592355239021L-52.0 102.48702938802874"/>
<path stroke="#000000" fill="none" stroke-width="0.8" d="M -44.0 91.6592355239021L-44.0 94.64517310760276"/>
<path stroke="#000000" fill="none" stroke-width="0.8" d="M -43.6 91.6592355239021L-52.0 91.6592355239021"/>
<path stroke="#000000" fill="none" stroke-width="0.8" d="M -36.0 89.07235098169056L-36.0 107.02509769705631"/>
<path stroke="#000000" fill="none" stroke-width="0.8" d="M -35.6 89.07235098169056L-52.0 89.07235098169056"/>
<path stroke="#000000" fill="none" stroke-width="0.8" d="M -28.0 82.9264701275934L-28.0 187.91454125239704"/>
<path stroke="#000000" fill="none" stroke-width="0.8" d="M -27.6 82.9264701275934L-52.0 82.9264701275934"/>
<path stroke="#000000" fill="none" stroke-width="0.8" d="M -20.0 60.86486913038316L-20.0 64.60019120478725"/>
<path stroke="#000000" fill="none" stroke-width="0.8" d="M -19.6 60.86486913038316L-52.0 60.86486913038316"/>
<path stroke="#000000" fill="none" stroke-width="0.8" d="M 40.0 57.70492585998666L40.0 62.04346764826967"/>
<path stroke="#000000" fill="none" stroke-width="0.8" d="M 40.0 57.70492585998666L40.0 62.04346764826967"/>
<path stroke="#000000" fill="none" stroke-width="0.8" d="M 40.0 62.04346764826967L40.0 90.48063700601558"/>
<path stroke="#000000" fill="none" stroke-width="0.8" d="M 40.0 62.04346764826967L40.0 90.48063700601558"/>
<path stroke="#000000" fill="none" stroke-width="0.8" d="M 40.0 90.48063700601558L40.0 92.66382835509276"/>
<path stroke="#000000" fill="none" stroke-width="0.8" d="M 40.0 90.48063700601558L40.0 92.66382835509276"/>
<path stroke="#000000" fill="none" stroke-width="0.8" d="M 40.0 92.66382835509276L40.0 104.12500291879226"/>
<path stroke="#000000" fill="none" stroke-width="0.8" d="M 40.0 92.66382835509276L40.0 104.12500291879226"/>
<path stroke="#000000" fill="none" stroke-width="0.8" d="M 40.0 104.12500291879226L40.0 110.58873416058717"/>
<path stroke="#000000" fill="none" stroke-width="0.8" d="M 40.0 104.12500291879226L40.0 110.58873416058717"/>
<path stroke="#000000" fill="none" stroke-width="0.8" d="M -12.0 110.58873416058717L-12.0 116.04555249536878"/>
<path stroke="#000000" fill="none" stroke-width="0.8" d="M -12.4 110.58873416058717L40.0 110.58873416058717"/>
<path stroke="#000000" fill="none" stroke-width="0.8" d="M -12.0 116.04555249536878L-12.0 147.29929390176474"/>
<path stroke="#000000" fill="none" stroke-width="0.8" d="M -12.0 116.04555249536878L-12.0 147.29929390176474"/>
<path stroke="#000000" fill="none" stroke-width="0.8" d="M -4.0 116.04555249536878L-4.0 117.82737072713422"/>
<path stroke="#000000" fill="none" stroke-width="0.8" d="M -3.6 116.04555249536878L-12.0 116.04555249536878"/>
<path stroke="#000000" fill="none" stroke-width="0.8" d="M -4.0 117.82737072713422L-4.0 122.13575152972328"/>
<path stroke="#000000" fill="none" stroke-width="0.8" d="M -4.0 117.82737072713422L-4.0 122.13575152972328"/>
<path stroke="#000000" fill="none" stroke-width="0.8" d="M 4.0 117.82737072713422L4.0 172.0869839905432"/>
<path stroke="#000000" fill="none" stroke-width="0.8" d="M 4.4 117.82737072713422L-4.0 117.82737072713422"/>
<path stroke="#000000" fill="none" stroke-width="0.8" d="M 40.0 110.58873416058717L40.0 111.96685919921823"/>
<path stroke="#000000" fill="none" stroke-width="0.8" d="M 40.0 110.58873416058717L40.0 111.96685919921823"/>
<path stroke="#000000" fill="none" stroke-width="0.8" d="M 12.0 111.96685919921823L12.0 117.62552413056706"/>
<path stroke="#000000" fill="none" stroke-width="0.8" d="M 11.6 111.96685919921823L40.0 111.96685919921823"/>
<path stroke="#000000" fill="none" stroke-width="0.8" d="M 40.0 111.96685919921823L40.0 123.25634815204451"/>
<path stroke="#000000" fill="none" stroke-width="0.8" d="M 40.0 111.96685919921823L40.0 123.25634815204451"/>
<path stroke="#000000" fill="none" stroke-width="0.8" d="M 20.0 123.25634815204451L20.0 127.27703955262979"/>
<path stroke="#000000" fill="none" stroke-width="0.8" d="M 19.6 123.25634815204451L40.0 123.25634815204451"/>
<path stroke="#000000" fill="none" stroke-width="0.8" d="M 40.0 123.25634815204451L40.0 126.50213422787763"/>
<path stroke="#000000" fill="none" stroke-width="0.8" d="M 40.0 123.25634815204451L40.0 126.50213422787763"/>
<path stroke="#000000" fill="none" stroke-width="0.8" d="M 40.0 126.50213422787763L40.0 166.63016565576157"/>
<path stroke="#000000" fill="none" stroke-width="0.8" d="M 40.0 126.50213422787763L40.0 166.63016565576157"/>
<path stroke="#000000" fill="none" stroke-width="0.8" d="M 28.0 166.63016565576157L28.0 208.0806403025339"/>
<path stroke="#000000" fill="none" stroke-width="0.8" d="M 27.6 166.63016565576157L40.0 166.63016565576157"/>
<path stroke="#000000" fill="none" stroke-width="0.8" d="M 40.0 166.63016565576157L40.0 170.16364113359847"/>
<path stroke="#000000" fill="none" stroke-width="0.8" d="M 40.0 166.63016565576157L40.0 170.16364113359847"/>
<path stroke="#000000" fill="none" stroke-width="0.8" d="M 52.0 126.50213422787763L52.0 132.27448287453439"/>
<path stroke="#000000" fill="none" stroke-width="0.8" d="M 52.4 126.50213422787763L40.0 126.50213422787763"/>
<path stroke="#000000" fill="none" stroke-width="0.8" d="M 60.0 104.12500291879226L60.0 119.66487077864232"/>
<path stroke="#000000" fill="none" stroke-width="0.8" d="M 60.4 104.12500291879226L40.0 104.12500291879226"/>
<path stroke="#000000" fill="none" stroke-width="0.8" d="M 68.0 92.66382835509276L68.0 111.4216413809046"/>
<path stroke="#000000" fill="none" stroke-width="0.8" d="M 68.4 92.66382835509276L40.0 92.66382835509276"/>
<path stroke="#000000" fill="none" stroke-width="0.8" d="M 68.0 111.4216413809046L68.0 122.13575152972328"/>
<path stroke="#000000" fill="none" stroke-width="0.8" d="M 68.0 111.4216413809046L68.0 122.13575152972328"/>
<path stroke="#000000" fill="none" stroke-width="0.8" d="M 76.0 111.4216413809046L76.0 117.48167942956515"/>
<path stroke="#000000" fill="none" stroke-width="0.8" d="M 76.4 111.4216413809046L68.0 111.4216413809046"/>
<path stroke="#000000" fill="none" stroke-width="0.8" d="M 84.0 90.48063700601558L84.0 93.38073178427963"/>
<path stroke="#000000" fill="none" stroke-width="0.8" d="M 84.4 90.48063700601558L40.0 90.48063700601558"/>
<path stroke="#000000" fill="none" stroke-width="0.8" d="M 92.0 62.04346764826967L92.0 64.54218930922197"/>
<path stroke="#000000" fill="none" stroke-width="0.8" d="M 92.4 62.04346764826967L40.0 62.04346764826967"/>
<path stroke="#000000" fill="none" stroke-width="0.8" d="M 100.0 38.17220750942267L100.0 51.443041214758935"/>
<path stroke="#000000" fill="none" stroke-width="0.8" d="M 100.4 38.17220750942267L40.0 38.17220750942267"/>
</g>
</g>
<g transform="matrix(1.0 0.0 0.0 1.0 713.0 350.0)">
<g >
<path stroke="#000000" fill="none" stroke-width="4.0" d="M -288.0 19.558935207359504L-288.0 -61.902073524765086"/>
<path stroke="#000000" fill="none" stroke-width="4.0" d="M -288.0 103.09024910190766L-288.0 157.45946752523164L-288.0 103.09024910190766L-288.0 157.45946752523164L-288.0 37.39730218467051L-288.0 103.09024910190766L-288.0 19.558935207359504L-288.0 37.39730218467051L-288.0 19.558935207359504L-288.0 -61.902073524765086"/>
<path stroke="#000000" fill="#c64340" stroke-width="0.8" d="M -292.0 -65.90207352476509L-284.0 -65.90207352476509L-284.0 -57.902073524765086L-292.0 -57.902073524765086L-292.0 -65.90207352476509z"/>
<path stroke="#c64340" fill="#c64340" stroke-width="2.4" d="M -288.0 103.09024910190766L-288.0 156.65946752523166L-288.0 103.09024910190766L-288.0 156.65946752523166L-288.0 37.39730218467051L-288.0 103.09024910190766L-288.0 19.558935207359504L-288.0 37.39730218467051L-288.0 19.558935207359504L-288.0 -61.902073524765086"/>
<path stroke="#000000" fill="none" stroke-width="4.0" d="M -320.0 20.8259286140875L-320.0 25.207647886406075L-320.0 20.8259286140875L-320.0 25.207647886406075L-320.0 19.558935207359504L-320.0 20.8259286140875"/>
<path stroke="#000000" fill="#fb827a" stroke-width="0.8" d="M -324.0 15.55893520735951L-316.0 15.55893520735951L-316.0 23.55893520735951L-324.0 23.55893520735951L-324.0 15.55893520735951z"/>
<path stroke="#fb827a" fill="#fb827a" stroke-width="2.4" d="M -320.0 20.8259286140875L-320.0 24.407647886406075L-320.0 20.8259286140875L-320.0 24.407647886406075L-320.0 19.558935207359504L-320.0 20.8259286140875"/>
<path stroke="#000000" fill="none" stroke-width="4.0" d="M -304.0 20.8259286140875L-304.0 24.617792728107304L-304.0 20.8259286140875L-304.0 24.617792728107304"/>
<path stroke="#000000" fill="#ffd6d1" stroke-width="0.8" d="M -308.0 16.825928614087502L-300.0 16.825928614087502L-300.0 24.825928614087502L-308.0 24.825928614087502L-308.0 16.825928614087502z"/>
<path stroke="#ffd6d1" fill="#ffd6d1" stroke-width="2.4" d="M -304.0 20.8259286140875L-304.0 23.817792728107303L-304.0 20.8259286140875L-304.0 23.817792728107303"/>
<path stroke="#000000" fill="none" stroke-width="4.0" d="M 40.0 126.50213422787763L40.0 156.90152374646527L40.0 126.50213422787763L40.0 156.90152374646527L40.0 123.25634815204451L40.0 126.50213422787763L40.0 111.96685919921823L40.0 123.25634815204451L40.0 110.58873416058717L40.0 111.96685919921823L40.0 104.12500291879226L40.0 110.58873416058717L40.0 92.66382835509276L40.0 104.12500291879226L40.0 90.48063700601558L40.0 92.66382835509276L40.0 62.04346764826967L40.0 90.48063700601558L40.0 57.70492585998666L40.0 62.04346764826967L40.0 44.951469063092695L40.0 57.70492585998666L40.0 38.17220750942267L40.0 44.951469063092695L40.0 37.39730218467051L40.0 38.17220750942267"/>
<path stroke="#000000" fill="#fb827a" stroke-width="0.8" d="M 36.0 33.39730218467051L44.0 33.39730218467051L44.0 41.39730218467051L36.0 41.39730218467051L36.0 33.39730218467051z"/>
<path stroke="#fb827a" fill="#fb827a" stroke-width="2.4" d="M 40.0 126.50213422787763L40.0 156.1015237464653L40.0 126.50213422787763L40.0 156.1015237464653L40.0 123.25634815204451L40.0 126.50213422787763L40.0 111.96685919921823L40.0 123.25634815204451L40.0 110.58873416058717L40.0 111.96685919921823L40.0 104.12500291879226L40.0 110.58873416058717L40.0 92.66382835509276L40.0 104.12500291879226L40.0 90.48063700601558L40.0 92.66382835509276L40.0 62.04346764826967L40.0 90.48063700601558L40.0 57.70492585998666L40.0 62.04346764826967L40.0 44.951469063092695L40.0 57.70492585998666L40.0 38.17220750942267L40.0 44.951469063092695L40.0 37.39730218467051L40.0 38.17220750942267"/>
<path stroke="#000000" fill="none" stroke-width="4.0" d="M -176.0 61.15255853238695L-176.0 85.66400909204677L-176.0 61.15255853238695L-176.0 85.66400909204677L-176.0 44.951469063092695L-176.0 61.15255853238695L-176.0 44.951469063092695L-176.0 44.951469063092695"/>
<path stroke="#000000" fill="#ffd6d1" stroke-width="0.8" d="M -180.0 40.95146906309269L-172.0 40.95146906309269L-172.0 48.95146906309269L-180.0 48.95146906309269L-180.0 40.95146906309269z"/>
<path stroke="#ffd6d1" fill="#ffd6d1" stroke-width="2.4" d="M -176.0 61.15255853238695L-176.0 84.86400909204677L-176.0 61.15255853238695L-176.0 84.86400909204677L-176.0 44.951469063092695L-176.0 61.15255853238695L-176.0 44.951469063092695L-176.0 44.951469063092695"/>
<path stroke="#000000" fill="none" stroke-width="4.0" d="M -104.0 90.65232261688882L-104.0 167.02840203063812L-104.0 90.65232261688882L-104.0 167.02840203063812L-104.0 80.08205716907203L-104.0 90.65232261688882L-104.0 77.18196239080798L-104.0 80.08205716907203L-104.0 72.15435808320943L-104.0 77.18196239080798L-104.0 58.48215126056142L-104.0 72.15435808320943L-104.0 51.61472682563217L-104.0 58.48215126056142L-104.0 44.951469063092695L-104.0 51.61472682563217"/>
<path stroke="#000000" fill="#ffd6d1" stroke-width="0.8" d="M -108.0 40.95146906309269L-100.0 40.95146906309269L-100.0 48.95146906309269L-108.0 48.95146906309269L-108.0 40.95146906309269z"/>
<path stroke="#ffd6d1" fill="#ffd6d1" stroke-width="2.4" d="M -104.0 90.65232261688882L-104.0 166.2284020306381L-104.0 90.65232261688882L-104.0 166.2284020306381L-104.0 80.08205716907203L-104.0 90.65232261688882L-104.0 77.18196239080798L-104.0 80.08205716907203L-104.0 72.15435808320943L-104.0 77.18196239080798L-104.0 58.48215126056142L-104.0 72.15435808320943L-104.0 51.61472682563217L-104.0 58.48215126056142L-104.0 44.951469063092695L-104.0 51.61472682563217"/>
<path stroke="#000000" fill="none" stroke-width="4.0" d="M -144.0 67.50028598305128L-144.0 74.75538011089272L-144.0 67.50028598305128L-144.0 74.75538011089272L-144.0 61.15255853238695L-144.0 67.50028598305128"/>
<path stroke="#000000" fill="#fb827a" stroke-width="0.8" d="M -148.0 57.15255853238695L-140.0 57.15255853238695L-140.0 65.15255853238695L-148.0 65.15255853238695L-148.0 57.15255853238695z"/>
<path stroke="#fb827a" fill="#fb827a" stroke-width="2.4" d="M -144.0 67.50028598305128L-144.0 73.95538011089272L-144.0 67.50028598305128L-144.0 73.95538011089272L-144.0 61.15255853238695L-144.0 67.50028598305128"/>
</g>
</g>
<g transform="matrix(1.0 0.0 0.0 1.0 923.0 350.0)">
<g >
<path stroke="#000000" fill="none" stroke-width="0.8" d="M -72.0 11.207126261123575L-72.0 84.42291903317765"/>
<path stroke="#000000" fill="none" stroke-width="0.8" d="M -72.4 11.207126261123575L28.0 11.207126261123575"/>
<path stroke="#000000" fill="none" stroke-width="0.8" d="M 28.0 11.207126261123575L28.0 11.207358268705837"/>
<path stroke="#000000" fill="none" stroke-width="0.8" d="M 28.0 11.207126261123575L28.0 11.207358268705837"/>
<path stroke="#000000" fill="none" stroke-width="0.8" d="M 28.0 11.207358268705837L28.0 11.21014235969297"/>
<path stroke="#000000" fill="none" stroke-width="0.8" d="M 28.0 11.207358268705837L28.0 11.21014235969297"/>
<path stroke="#000000" fill="none" stroke-width="0.8" d="M -64.0 11.21014235969297L-64.0 21.58900155214433"/>
<path stroke="#000000" fill="none" stroke-width="0.8" d="M -64.4 11.21014235969297L28.0 11.21014235969297"/>
<path stroke="#000000" fill="none" stroke-width="0.8" d="M -64.0 21.58900155214433L-64.0 90.12334532933346"/>
<path stroke="#000000" fill="none" stroke-width="0.8" d="M -64.0 21.58900155214433L-64.0 90.12334532933346"/>
<path stroke="#000000" fill="none" stroke-width="0.8" d="M -56.0 21.58900155214433L-56.0 89.9261388844115"/>
<path stroke="#000000" fill="none" stroke-width="0.8" d="M -55.6 21.58900155214433L-64.0 21.58900155214433"/>
<path stroke="#000000" fill="none" stroke-width="0.8" d="M 28.0 11.21014235969297L28.0 13.276169879728275"/>
<path stroke="#000000" fill="none" stroke-width="0.8" d="M 28.0 11.21014235969297L28.0 13.276169879728275"/>
<path stroke="#000000" fill="none" stroke-width="0.8" d="M 28.0 13.276169879728275L28.0 13.665710610344702"/>
<path stroke="#000000" fill="none" stroke-width="0.8" d="M 28.0 13.276169879728275L28.0 13.665710610344702"/>
<path stroke="#000000" fill="none" stroke-width="0.8" d="M 28.0 13.665710610344702L28.0 16.676705012929563"/>
<path stroke="#000000" fill="none" stroke-width="0.8" d="M 28.0 13.665710610344702L28.0 16.676705012929563"/>
<path stroke="#000000" fill="none" stroke-width="0.8" d="M 28.0 16.676705012929563L28.0 62.98309835642722"/>
<path stroke="#000000" fill="none" stroke-width="0.8" d="M 28.0 16.676705012929563L28.0 62.98309835642722"/>
<path stroke="#000000" fill="none" stroke-width="0.8" d="M 28.0 62.98309835642722L28.0 66.2636855695995"/>
<path stroke="#000000" fill="none" stroke-width="0.8" d="M 28.0 62.98309835642722L28.0 66.2636855695995"/>
<path stroke="#000000" fill="none" stroke-width="0.8" d="M 28.0 66.2636855695995L28.0 92.80999313191727"/>
<path stroke="#000000" fill="none" stroke-width="0.8" d="M 28.0 66.2636855695995L28.0 92.80999313191727"/>
<path stroke="#000000" fill="none" stroke-width="0.8" d="M -48.0 92.80999313191727L-48.0 104.78390445241385"/>
<path stroke="#000000" fill="none" stroke-width="0.8" d="M -48.4 92.80999313191727L28.0 92.80999313191727"/>
<path stroke="#000000" fill="none" stroke-width="0.8" d="M 28.0 92.80999313191727L28.0 93.20440602176117"/>
<path stroke="#000000" fill="none" stroke-width="0.8" d="M 28.0 92.80999313191727L28.0 93.20440602176117"/>
<path stroke="#000000" fill="none" stroke-width="0.8" d="M -40.0 93.20440602176117L-40.0 93.64522042805731"/>
<path stroke="#000000" fill="none" stroke-width="0.8" d="M -40.4 93.20440602176117L28.0 93.20440602176117"/>
<path stroke="#000000" fill="none" stroke-width="0.8" d="M -40.0 93.64522042805731L-40.0 97.71695349674003"/>
<path stroke="#000000" fill="none" stroke-width="0.8" d="M -40.0 93.64522042805731L-40.0 97.71695349674003"/>
<path stroke="#000000" fill="none" stroke-width="0.8" d="M -32.0 93.64522042805731L-32.0 95.64744586297081"/>
<path stroke="#000000" fill="none" stroke-width="0.8" d="M -31.6 93.64522042805731L-40.0 93.64522042805731"/>
<path stroke="#000000" fill="none" stroke-width="0.8" d="M -32.0 95.64744586297081L-32.0 109.16420760550388"/>
<path stroke="#000000" fill="none" stroke-width="0.8" d="M -32.0 95.64744586297081L-32.0 109.16420760550388"/>
<path stroke="#000000" fill="none" stroke-width="0.8" d="M -24.0 95.64744586297081L-24.0 104.12268284296967"/>
<path stroke="#000000" fill="none" stroke-width="0.8" d="M -23.6 95.64744586297081L-32.0 95.64744586297081"/>
<path stroke="#000000" fill="none" stroke-width="0.8" d="M 28.0 93.20440602176117L28.0 148.2992465813102"/>
<path stroke="#000000" fill="none" stroke-width="0.8" d="M 28.0 93.20440602176117L28.0 148.2992465813102"/>
<path stroke="#000000" fill="none" stroke-width="0.8" d="M -16.0 148.2992465813102L-16.0 161.6814439261318"/>
<path stroke="#000000" fill="none" stroke-width="0.8" d="M -16.4 148.2992465813102L28.0 148.2992465813102"/>
<path stroke="#000000" fill="none" stroke-width="0.8" d="M -16.0 161.6814439261318L-16.0 180.74318688470572"/>
<path stroke="#000000" fill="none" stroke-width="0.8" d="M -16.0 161.6814439261318L-16.0 180.74318688470572"/>
<path stroke="#000000" fill="none" stroke-width="0.8" d="M -16.0 180.74318688470572L-16.0 207.31037512942697"/>
<path stroke="#000000" fill="none" stroke-width="0.8" d="M -16.0 180.74318688470572L-16.0 207.31037512942697"/>
<path stroke="#000000" fill="none" stroke-width="0.8" d="M -16.0 207.31037512942697L-16.0 213.4516158318789"/>
<path stroke="#000000" fill="none" stroke-width="0.8" d="M -16.0 207.31037512942697L-16.0 213.4516158318789"/>
<path stroke="#000000" fill="none" stroke-width="0.8" d="M -8.0 207.31037512942697L-8.0 222.54399298069237"/>
<path stroke="#000000" fill="none" stroke-width="0.8" d="M -7.6 207.31037512942697L-16.0 207.31037512942697"/>
<path stroke="#000000" fill="none" stroke-width="0.8" d="M 0.0 180.74318688470572L0.0 197.3410093196665"/>
<path stroke="#000000" fill="none" stroke-width="0.8" d="M 0.4 180.74318688470572L-16.0 180.74318688470572"/>
<path stroke="#000000" fill="none" stroke-width="0.8" d="M 8.0 161.6814439261318L8.0 161.94593256990947"/>
<path stroke="#000000" fill="none" stroke-width="0.8" d="M 8.4 161.6814439261318L-16.0 161.6814439261318"/>
<path stroke="#000000" fill="none" stroke-width="0.8" d="M 8.0 161.94593256990947L8.0 165.40284554560023"/>
<path stroke="#000000" fill="none" stroke-width="0.8" d="M 8.0 161.94593256990947L8.0 165.40284554560023"/>
<path stroke="#000000" fill="none" stroke-width="0.8" d="M 16.0 161.94593256990947L16.0 166.92017513358797"/>
<path stroke="#000000" fill="none" stroke-width="0.8" d="M 16.4 161.94593256990947L8.0 161.94593256990947"/>
<path stroke="#000000" fill="none" stroke-width="0.8" d="M 28.0 148.2992465813102L28.0 165.99678495618872"/>
<path stroke="#000000" fill="none" stroke-width="0.8" d="M 28.0 148.2992465813102L28.0 165.99678495618872"/>
<path stroke="#000000" fill="none" stroke-width="0.8" d="M 40.0 66.2636855695995L40.0 83.01463300885264"/>
<path stroke="#000000" fill="none" stroke-width="0.8" d="M 40.4 66.2636855695995L28.0 66.2636855695995"/>
<path stroke="#000000" fill="none" stroke-width="0.8" d="M 40.0 83.01463300885264L40.0 87.90071269127189"/>
<path stroke="#000000" fill="none" stroke-width="0.8" d="M 40.0 83.01463300885264L40.0 87.90071269127189"/>
<path stroke="#000000" fill="none" stroke-width="0.8" d="M 48.0 83.01463300885264L48.0 87.72438692875345"/>
<path stroke="#000000" fill="none" stroke-width="0.8" d="M 48.4 83.01463300885264L40.0 83.01463300885264"/>
<path stroke="#000000" fill="none" stroke-width="0.8" d="M 56.0 62.98309835642722L56.0 80.76879961256495"/>
<path stroke="#000000" fill="none" stroke-width="0.8" d="M 56.4 62.98309835642722L28.0 62.98309835642722"/>
<path stroke="#000000" fill="none" stroke-width="0.8" d="M 172.0 16.676705012929563L172.0 16.676705012929563"/>
<path stroke="#000000" fill="none" stroke-width="0.8" d="M 172.4 16.676705012929563L28.0 16.676705012929563"/>
<path stroke="#000000" fill="none" stroke-width="0.8" d="M 172.0 16.676705012929563L172.0 27.567140924266702"/>
<path stroke="#000000" fill="none" stroke-width="0.8" d="M 172.0 16.676705012929563L172.0 27.567140924266702"/>
<path stroke="#000000" fill="none" stroke-width="0.8" d="M 172.0 27.567140924266702L172.0 27.875711008674"/>
<path stroke="#000000" fill="none" stroke-width="0.8" d="M 172.0 27.567140924266702L172.0 27.875711008674"/>
<path stroke="#000000" fill="none" stroke-width="0.8" d="M 172.0 27.875711008674L172.0 34.8753797654921"/>
<path stroke="#000000" fill="none" stroke-width="0.8" d="M 172.0 27.875711008674L172.0 34.8753797654921"/>
<path stroke="#000000" fill="none" stroke-width="0.8" d="M 172.0 34.8753797654921L172.0 49.424575249087155"/>
<path stroke="#000000" fill="none" stroke-width="0.8" d="M 172.0 34.8753797654921L172.0 49.424575249087155"/>
<path stroke="#000000" fill="none" stroke-width="0.8" d="M 172.0 49.424575249087155L172.0 49.644982452235226"/>
<path stroke="#000000" fill="none" stroke-width="0.8" d="M 172.0 49.424575249087155L172.0 49.644982452235226"/>
<path stroke="#000000" fill="none" stroke-width="0.8" d="M 172.0 49.644982452235226L172.0 50.459329065971765"/>
<path stroke="#000000" fill="none" stroke-width="0.8" d="M 172.0 49.644982452235226L172.0 50.459329065971765"/>
<path stroke="#000000" fill="none" stroke-width="0.8" d="M 172.0 50.459329065971765L172.0 50.679736269119836"/>
<path stroke="#000000" fill="none" stroke-width="0.8" d="M 172.0 50.459329065971765L172.0 50.679736269119836"/>
<path stroke="#000000" fill="none" stroke-width="0.8" d="M 172.0 50.679736269119836L172.0 92.50142304750997"/>
<path stroke="#000000" fill="none" stroke-width="0.8" d="M 172.0 50.679736269119836L172.0 92.50142304750997"/>
<path stroke="#000000" fill="none" stroke-width="0.8" d="M 76.0 92.50142304750997L76.0 92.74271093306155"/>
<path stroke="#000000" fill="none" stroke-width="0.8" d="M 75.6 92.50142304750997L172.0 92.50142304750997"/>
<path stroke="#000000" fill="none" stroke-width="0.8" d="M 76.0 92.74271093306155L76.0 92.87495525495038"/>
<path stroke="#000000" fill="none" stroke-width="0.8" d="M 76.0 92.74271093306155L76.0 92.87495525495038"/>
<path stroke="#000000" fill="none" stroke-width="0.8" d="M 64.0 92.87495525495038L64.0 98.6194629917358"/>
<path stroke="#000000" fill="none" stroke-width="0.8" d="M 63.6 92.87495525495038L76.0 92.87495525495038"/>
<path stroke="#000000" fill="none" stroke-width="0.8" d="M 76.0 92.87495525495038L76.0 93.18352533935767"/>
<path stroke="#000000" fill="none" stroke-width="0.8" d="M 76.0 92.87495525495038L76.0 93.18352533935767"/>
<path stroke="#000000" fill="none" stroke-width="0.8" d="M 76.0 93.18352533935767L76.0 138.15123493320866"/>
<path stroke="#000000" fill="none" stroke-width="0.8" d="M 76.0 93.18352533935767L76.0 138.15123493320866"/>
<path stroke="#000000" fill="none" stroke-width="0.8" d="M 116.0 93.18352533935767L116.0 98.02552358114733"/>
<path stroke="#000000" fill="none" stroke-width="0.8" d="M 116.4 93.18352533935767L76.0 93.18352533935767"/>
<path stroke="#000000" fill="none" stroke-width="0.8" d="M 116.0 98.02552358114733L116.0 98.2668114666989"/>
<path stroke="#000000" fill="none" stroke-width="0.8" d="M 116.0 98.02552358114733L116.0 98.2668114666989"/>
<path stroke="#000000" fill="none" stroke-width="0.8" d="M 116.0 98.2668114666989L116.0 126.08916073145284"/>
<path stroke="#000000" fill="none" stroke-width="0.8" d="M 116.0 98.2668114666989L116.0 126.08916073145284"/>
<path stroke="#000000" fill="none" stroke-width="0.8" d="M 88.0 126.08916073145284L88.0 126.13324217208246"/>
<path stroke="#000000" fill="none" stroke-width="0.8" d="M 87.6 126.08916073145284L116.0 126.08916073145284"/>
<path stroke="#000000" fill="none" stroke-width="0.8" d="M 88.0 126.13324217208246L88.0 145.67988097758212"/>
<path stroke="#000000" fill="none" stroke-width="0.8" d="M 88.0 126.13324217208246L88.0 145.67988097758212"/>
<path stroke="#000000" fill="none" stroke-width="0.8" d="M 96.0 126.13324217208246L96.0 150.12514625370525"/>
<path stroke="#000000" fill="none" stroke-width="0.8" d="M 96.4 126.13324217208246L88.0 126.13324217208246"/>
<path stroke="#000000" fill="none" stroke-width="0.8" d="M 116.0 126.08916073145284L116.0 132.73849803905665"/>
<path stroke="#000000" fill="none" stroke-width="0.8" d="M 116.0 126.08916073145284L116.0 132.73849803905665"/>
<path stroke="#000000" fill="none" stroke-width="0.8" d="M 104.0 132.73849803905665L104.0 135.2465000032994"/>
<path stroke="#000000" fill="none" stroke-width="0.8" d="M 103.6 132.73849803905665L116.0 132.73849803905665"/>
<path stroke="#000000" fill="none" stroke-width="0.8" d="M 116.0 132.73849803905665L116.0 145.5917180963229"/>
<path stroke="#000000" fill="none" stroke-width="0.8" d="M 116.0 132.73849803905665L116.0 145.5917180963229"/>
<path stroke="#000000" fill="none" stroke-width="0.8" d="M 128.0 98.2668114666989L128.0 111.9598989717504"/>
<path stroke="#000000" fill="none" stroke-width="0.8" d="M 128.4 98.2668114666989L116.0 98.2668114666989"/>
<path stroke="#000000" fill="none" stroke-width="0.8" d="M 128.0 111.9598989717504L128.0 120.05928366848624"/>
<path stroke="#000000" fill="none" stroke-width="0.8" d="M 128.0 111.9598989717504L128.0 120.05928366848624"/>
<path stroke="#000000" fill="none" stroke-width="0.8" d="M 136.0 111.9598989717504L136.0 114.49110169421927"/>
<path stroke="#000000" fill="none" stroke-width="0.8" d="M 136.4 111.9598989717504L128.0 111.9598989717504"/>
<path stroke="#000000" fill="none" stroke-width="0.8" d="M 144.0 98.02552358114733L144.0 112.35431186159431"/>
<path stroke="#000000" fill="none" stroke-width="0.8" d="M 144.4 98.02552358114733L116.0 98.02552358114733"/>
<path stroke="#000000" fill="none" stroke-width="0.8" d="M 144.0 112.35431186159431L144.0 115.32632899035931"/>
<path stroke="#000000" fill="none" stroke-width="0.8" d="M 144.0 112.35431186159431L144.0 115.32632899035931"/>
<path stroke="#000000" fill="none" stroke-width="0.8" d="M 152.0 112.35431186159431L152.0 119.50942569852737"/>
<path stroke="#000000" fill="none" stroke-width="0.8" d="M 152.4 112.35431186159431L144.0 112.35431186159431"/>
<path stroke="#000000" fill="none" stroke-width="0.8" d="M 160.0 92.74271093306155L160.0 99.12523952106505"/>
<path stroke="#000000" fill="none" stroke-width="0.8" d="M 160.4 92.74271093306155L76.0 92.74271093306155"/>
<path stroke="#000000" fill="none" stroke-width="0.8" d="M 172.0 92.50142304750997L172.0 139.14190730946365"/>
<path stroke="#000000" fill="none" stroke-width="0.8" d="M 172.0 92.50142304750997L172.0 139.14190730946365"/>
<path stroke="#000000" fill="none" stroke-width="0.8" d="M 184.0 50.679736269119836L184.0 55.43357162965026"/>
<path stroke="#000000" fill="none" stroke-width="0.8" d="M 184.4 50.679736269119836L172.0 50.679736269119836"/>
<path stroke="#000000" fill="none" stroke-width="0.8" d="M 192.0 50.459329065971765L192.0 54.971876540950625"/>
<path stroke="#000000" fill="none" stroke-width="0.8" d="M 192.4 50.459329065971765L172.0 50.459329065971765"/>
<path stroke="#000000" fill="none" stroke-width="0.8" d="M 200.0 49.644982452235226L200.0 64.8553995452745"/>
<path stroke="#000000" fill="none" stroke-width="0.8" d="M 200.4 49.644982452235226L172.0 49.644982452235226"/>
<path stroke="#000000" fill="none" stroke-width="0.8" d="M 200.0 64.8553995452745L200.0 69.12433905887916"/>
<path stroke="#000000" fill="none" stroke-width="0.8" d="M 200.0 64.8553995452745L200.0 69.12433905887916"/>
<path stroke="#000000" fill="none" stroke-width="0.8" d="M 208.0 64.8553995452745L208.0 71.12888456961528"/>
<path stroke="#000000" fill="none" stroke-width="0.8" d="M 208.4 64.8553995452745L200.0 64.8553995452745"/>
<path stroke="#000000" fill="none" stroke-width="0.8" d="M 216.0 49.424575249087155L216.0 65.36117607460375"/>
<path stroke="#000000" fill="none" stroke-width="0.8" d="M 216.4 49.424575249087155L172.0 49.424575249087155"/>
<path stroke="#000000" fill="none" stroke-width="0.8" d="M 216.0 65.36117607460375L216.0 71.50241677705569"/>
<path stroke="#000000" fill="none" stroke-width="0.8" d="M 216.0 65.36117607460375L216.0 71.50241677705569"/>
<path stroke="#000000" fill="none" stroke-width="0.8" d="M 224.0 65.36117607460375L224.0 70.37950007891185"/>
<path stroke="#000000" fill="none" stroke-width="0.8" d="M 224.4 65.36117607460375L216.0 65.36117607460375"/>
<path stroke="#000000" fill="none" stroke-width="0.8" d="M 252.0 34.8753797654921L252.0 48.148533546650974"/>
<path stroke="#000000" fill="none" stroke-width="0.8" d="M 252.4 34.8753797654921L172.0 34.8753797654921"/>
<path stroke="#000000" fill="none" stroke-width="0.8" d="M 252.0 48.148533546650974L252.0 48.389821432202545"/>
<path stroke="#000000" fill="none" stroke-width="0.8" d="M 252.0 48.148533546650974L252.0 48.389821432202545"/>
<path stroke="#000000" fill="none" stroke-width="0.8" d="M 232.0 48.389821432202545L232.0 68.85985041510148"/>
<path stroke="#000000" fill="none" stroke-width="0.8" d="M 231.6 48.389821432202545L252.0 48.389821432202545"/>
<path stroke="#000000" fill="none" stroke-width="0.8" d="M 252.0 48.389821432202545L252.0 66.06647912467756"/>
<path stroke="#000000" fill="none" stroke-width="0.8" d="M 252.0 48.389821432202545L252.0 66.06647912467756"/>
<path stroke="#000000" fill="none" stroke-width="0.8" d="M 252.0 66.06647912467756L252.0 68.72992616903525"/>
<path stroke="#000000" fill="none" stroke-width="0.8" d="M 252.0 66.06647912467756L252.0 68.72992616903525"/>
<path stroke="#000000" fill="none" stroke-width="0.8" d="M 252.0 68.72992616903525L252.0 128.07050548396282"/>
<path stroke="#000000" fill="none" stroke-width="0.8" d="M 252.0 68.72992616903525L252.0 128.07050548396282"/>
<path stroke="#000000" fill="none" stroke-width="0.8" d="M 240.0 128.07050548396282L240.0 232.0075822611236"/>
<path stroke="#000000" fill="none" stroke-width="0.8" d="M 239.6 128.07050548396282L252.0 128.07050548396282"/>
<path stroke="#000000" fill="none" stroke-width="0.8" d="M 252.0 128.07050548396282L252.0 230.90786632120586"/>
<path stroke="#000000" fill="none" stroke-width="0.8" d="M 252.0 128.07050548396282L252.0 230.90786632120586"/>
<path stroke="#000000" fill="none" stroke-width="0.8" d="M 264.0 68.72992616903525L264.0 89.97022032504113"/>
<path stroke="#000000" fill="none" stroke-width="0.8" d="M 264.4 68.72992616903525L252.0 68.72992616903525"/>
<path stroke="#000000" fill="none" stroke-width="0.8" d="M 272.0 66.06647912467756L272.0 90.05838320630035"/>
<path stroke="#000000" fill="none" stroke-width="0.8" d="M 272.4 66.06647912467756L252.0 66.06647912467756"/>
<path stroke="#000000" fill="none" stroke-width="0.8" d="M 280.0 48.148533546650974L280.0 67.95734092010571"/>
<path stroke="#000000" fill="none" stroke-width="0.8" d="M 280.4 48.148533546650974L252.0 48.148533546650974"/>
<path stroke="#000000" fill="none" stroke-width="0.8" d="M 288.0 27.875711008674L288.0 33.290767978648624"/>
<path stroke="#000000" fill="none" stroke-width="0.8" d="M 288.4 27.875711008674L172.0 27.875711008674"/>
<path stroke="#000000" fill="none" stroke-width="0.8" d="M 296.0 27.567140924266702L296.0 33.59933806305592"/>
<path stroke="#000000" fill="none" stroke-width="0.8" d="M 296.4 27.567140924266702L172.0 27.567140924266702"/>
<path stroke="#000000" fill="none" stroke-width="0.8" d="M 316.0 16.676705012929563L316.0 63.73248284713065"/>
<path stroke="#000000" fill="none" stroke-width="0.8" d="M 316.4 16.676705012929563L172.0 16.676705012929563"/>
<path stroke="#000000" fill="none" stroke-width="0.8" d="M 316.0 63.73248284713065L316.0 66.30776701022913"/>
<path stroke="#000000" fill="none" stroke-width="0.8" d="M 316.0 63.73248284713065L316.0 66.30776701022913"/>
<path stroke="#000000" fill="none" stroke-width="0.8" d="M 316.0 66.30776701022913L316.0 92.83087381432077"/>
<path stroke="#000000" fill="none" stroke-width="0.8" d="M 316.0 66.30776701022913L316.0 92.83087381432077"/>
<path stroke="#000000" fill="none" stroke-width="0.8" d="M 316.0 92.83087381432077L316.0 93.68930186868693"/>
<path stroke="#000000" fill="none" stroke-width="0.8" d="M 316.0 92.83087381432077L316.0 93.68930186868693"/>
<path stroke="#000000" fill="none" stroke-width="0.8" d="M 316.0 93.68930186868693L316.0 93.84474694880188"/>
<path stroke="#000000" fill="none" stroke-width="0.8" d="M 316.0 93.68930186868693L316.0 93.84474694880188"/>
<path stroke="#000000" fill="none" stroke-width="0.8" d="M 316.0 93.84474694880188L316.0 148.0347579375325"/>
<path stroke="#000000" fill="none" stroke-width="0.8" d="M 316.0 93.84474694880188L316.0 148.0347579375325"/>
<path stroke="#000000" fill="none" stroke-width="0.8" d="M 304.0 148.0347579375325L304.0 165.3796447873741"/>
<path stroke="#000000" fill="none" stroke-width="0.8" d="M 303.6 148.0347579375325L316.0 148.0347579375325"/>
<path stroke="#000000" fill="none" stroke-width="0.8" d="M 316.0 148.0347579375325L316.0 160.51444578735834"/>
<path stroke="#000000" fill="none" stroke-width="0.8" d="M 316.0 148.0347579375325L316.0 160.51444578735834"/>
<path stroke="#000000" fill="none" stroke-width="0.8" d="M 316.0 160.51444578735834L316.0 167.20786453559177"/>
<path stroke="#000000" fill="none" stroke-width="0.8" d="M 316.0 160.51444578735834L316.0 167.20786453559177"/>
<path stroke="#000000" fill="none" stroke-width="0.8" d="M 328.0 160.51444578735834L328.0 183.93561121661878"/>
<path stroke="#000000" fill="none" stroke-width="0.8" d="M 328.4 160.51444578735834L316.0 160.51444578735834"/>
<path stroke="#000000" fill="none" stroke-width="0.8" d="M 328.0 183.93561121661878L328.0 187.41340487471302"/>
<path stroke="#000000" fill="none" stroke-width="0.8" d="M 328.0 183.93561121661878L328.0 187.41340487471302"/>
<path stroke="#000000" fill="none" stroke-width="0.8" d="M 336.0 183.93561121661878L336.0 196.0185661007781"/>
<path stroke="#000000" fill="none" stroke-width="0.8" d="M 336.4 183.93561121661878L328.0 183.93561121661878"/>
<path stroke="#000000" fill="none" stroke-width="0.8" d="M 336.0 196.0185661007781L336.0 221.66236416810008"/>
<path stroke="#000000" fill="none" stroke-width="0.8" d="M 336.0 196.0185661007781L336.0 221.66236416810008"/>
<path stroke="#000000" fill="none" stroke-width="0.8" d="M 344.0 196.0185661007781L344.0 220.1218338218862"/>
<path stroke="#000000" fill="none" stroke-width="0.8" d="M 344.4 196.0185661007781L336.0 196.0185661007781"/>
<path stroke="#000000" fill="none" stroke-width="0.8" d="M 352.0 93.84474694880188L352.0 95.45023941804885"/>
<path stroke="#000000" fill="none" stroke-width="0.8" d="M 352.4 93.84474694880188L316.0 93.84474694880188"/>
<path stroke="#000000" fill="none" stroke-width="0.8" d="M 352.0 95.45023941804885L352.0 109.20828904613349"/>
<path stroke="#000000" fill="none" stroke-width="0.8" d="M 352.0 95.45023941804885L352.0 109.20828904613349"/>
<path stroke="#000000" fill="none" stroke-width="0.8" d="M 360.0 95.45023941804885L360.0 104.18996504182537"/>
<path stroke="#000000" fill="none" stroke-width="0.8" d="M 360.4 95.45023941804885L352.0 95.45023941804885"/>
<path stroke="#000000" fill="none" stroke-width="0.8" d="M 368.0 93.68930186868693L368.0 97.54062773422159"/>
<path stroke="#000000" fill="none" stroke-width="0.8" d="M 368.4 93.68930186868693L316.0 93.68930186868693"/>
<path stroke="#000000" fill="none" stroke-width="0.8" d="M 376.0 92.83087381432077L376.0 104.84886657544696"/>
<path stroke="#000000" fill="none" stroke-width="0.8" d="M 376.4 92.83087381432077L316.0 92.83087381432077"/>
<path stroke="#000000" fill="none" stroke-width="0.8" d="M 384.0 66.30776701022913L384.0 83.21183945377459"/>
<path stroke="#000000" fill="none" stroke-width="0.8" d="M 384.4 66.30776701022913L316.0 66.30776701022913"/>
<path stroke="#000000" fill="none" stroke-width="0.8" d="M 384.0 83.21183945377459L384.0 87.965674814305"/>
<path stroke="#000000" fill="none" stroke-width="0.8" d="M 384.0 83.21183945377459L384.0 87.965674814305"/>
<path stroke="#000000" fill="none" stroke-width="0.8" d="M 392.0 83.21183945377459L392.0 88.07703845379035"/>
<path stroke="#000000" fill="none" stroke-width="0.8" d="M 392.4 83.21183945377459L384.0 83.21183945377459"/>
<path stroke="#000000" fill="none" stroke-width="0.8" d="M 400.0 63.73248284713065L400.0 81.16553257823148"/>
<path stroke="#000000" fill="none" stroke-width="0.8" d="M 400.4 63.73248284713065L316.0 63.73248284713065"/>
<path stroke="#000000" fill="none" stroke-width="0.8" d="M 408.0 13.665710610344702L408.0 18.054598043978377"/>
<path stroke="#000000" fill="none" stroke-width="0.8" d="M 408.4 13.665710610344702L28.0 13.665710610344702"/>
<path stroke="#000000" fill="none" stroke-width="0.8" d="M 416.0 13.276169879728275L416.0 17.805885915794452"/>
<path stroke="#000000" fill="none" stroke-width="0.8" d="M 416.4 13.276169879728275L28.0 13.276169879728275"/>
<path stroke="#000000" fill="none" stroke-width="0.8" d="M 424.0 11.207358268705837L424.0 84.77557055821455"/>
<path stroke="#000000" fill="none" stroke-width="0.8" d="M 424.4 11.207358268705837L28.0 11.207358268705837"/>
</g>
</g>
<g transform="matrix(1.0 0.0 0.0 1.0 923.0 350.0)">
<g >
<path stroke="#000000" fill="none" stroke-width="4.0" d="M 28.0 11.207126261123575L28.0 -53.55026457852916"/>
<path stroke="#000000" fill="none" stroke-width="4.0" d="M 28.0 93.20440602176117L28.0 95.36813969897773L28.0 93.20440602176117L28.0 95.36813969897773L28.0 92.80999313191727L28.0 93.20440602176117L28.0 66.2636855695995L28.0 92.80999313191727L28.0 62.98309835642722L28.0 66.2636855695995L28.0 16.676705012929563L28.0 62.98309835642722L28.0 13.665710610344702L28.0 16.676705012929563L28.0 13.276169879728275L28.0 13.665710610344702L28.0 11.21014235969297L28.0 13.276169879728275L28.0 11.207358268705837L28.0 11.21014235969297L28.0 11.207126261123575L28.0 11.207358268705837L28.0 11.207126261123575L28.0 -61.902073524765086"/>
<path stroke="#000000" fill="#3077cb" stroke-width="0.8" d="M 24.0 -65.90207352476509L32.0 -65.90207352476509L32.0 -57.902073524765086L24.0 -57.902073524765086L24.0 -65.90207352476509z"/>
<path stroke="#3077cb" fill="#3077cb" stroke-width="2.4" d="M 28.0 93.20440602176117L28.0 94.56813969897773L28.0 93.20440602176117L28.0 94.56813969897773L28.0 92.80999313191727L28.0 93.20440602176117L28.0 66.2636855695995L28.0 92.80999313191727L28.0 62.98309835642722L28.0 66.2636855695995L28.0 16.676705012929563L28.0 62.98309835642722L28.0 13.665710610344702L28.0 16.676705012929563L28.0 13.276169879728275L28.0 13.665710610344702L28.0 11.21014235969297L28.0 13.276169879728275L28.0 11.207358268705837L28.0 11.21014235969297L28.0 11.207126261123575L28.0 11.207358268705837L28.0 11.207126261123575L28.0 -61.902073524765086"/>
<path stroke="#000000" fill="none" stroke-width="4.0" d="M 172.0 92.50142304750997L172.0 123.31757628540095L172.0 92.50142304750997L172.0 123.31757628540095L172.0 50.679736269119836L172.0 92.50142304750997L172.0 50.459329065971765L172.0 50.679736269119836L172.0 49.644982452235226L172.0 50.459329065971765L172.0 49.424575249087155L172.0 49.644982452235226L172.0 34.8753797654921L172.0 49.424575249087155L172.0 27.875711008674L172.0 34.8753797654921L172.0 27.567140924266702L172.0 27.875711008674L172.0 16.676705012929563L172.0 27.567140924266702L172.0 16.676705012929563L172.0 16.676705012929563"/>
<path stroke="#000000" fill="#75aef7" stroke-width="0.8" d="M 168.0 12.67670501292956L176.0 12.67670501292956L176.0 20.67670501292956L168.0 20.67670501292956L168.0 12.67670501292956z"/>
<path stroke="#75aef7" fill="#75aef7" stroke-width="2.4" d="M 172.0 92.50142304750997L172.0 122.51757628540095L172.0 92.50142304750997L172.0 122.51757628540095L172.0 50.679736269119836L172.0 92.50142304750997L172.0 50.459329065971765L172.0 50.679736269119836L172.0 49.644982452235226L172.0 50.459329065971765L172.0 49.424575249087155L172.0 49.644982452235226L172.0 34.8753797654921L172.0 49.424575249087155L172.0 27.875711008674L172.0 34.8753797654921L172.0 27.567140924266702L172.0 27.875711008674L172.0 16.676705012929563L172.0 27.567140924266702L172.0 16.676705012929563L172.0 16.676705012929563"/>
<path stroke="#000000" fill="none" stroke-width="4.0" d="M 316.0 93.84474694880188L316.0 143.20114293375357L316.0 93.84474694880188L316.0 143.20114293375357L316.0 93.68930186868693L316.0 93.84474694880188L316.0 92.83087381432077L316.0 93.68930186868693L316.0 66.30776701022913L316.0 92.83087381432077L316.0 63.73248284713065L316.0 66.30776701022913L316.0 16.676705012929563L316.0 63.73248284713065"/>
<path stroke="#000000" fill="#75aef7" stroke-width="0.8" d="M 312.0 12.67670501292956L320.0 12.67670501292956L320.0 20.67670501292956L312.0 20.67670501292956L312.0 12.67670501292956z"/>
<path stroke="#75aef7" fill="#75aef7" stroke-width="2.4" d="M 316.0 93.84474694880188L316.0 142.4011429337536L316.0 93.84474694880188L316.0 142.4011429337536L316.0 93.68930186868693L316.0 93.84474694880188L316.0 92.83087381432077L316.0 93.68930186868693L316.0 66.30776701022913L316.0 92.83087381432077L316.0 63.73248284713065L316.0 66.30776701022913L316.0 16.676705012929563L316.0 63.73248284713065"/>
<path stroke="#000000" fill="none" stroke-width="4.0" d="M 252.0 128.07050548396282L252.0 167.05269391363225L252.0 128.07050548396282L252.0 167.05269391363225L252.0 68.72992616903525L252.0 128.07050548396282L252.0 66.06647912467756L252.0 68.72992616903525L252.0 48.389821432202545L252.0 66.06647912467756L252.0 48.148533546650974L252.0 48.389821432202545L252.0 34.8753797654921L252.0 48.148533546650974"/>
<path stroke="#000000" fill="#d0e4fe" stroke-width="0.8" d="M 248.0 30.8753797654921L256.0 30.8753797654921L256.0 38.8753797654921L248.0 38.8753797654921L248.0 30.8753797654921z"/>
<path stroke="#d0e4fe" fill="#d0e4fe" stroke-width="2.4" d="M 252.0 128.07050548396282L252.0 166.25269391363227L252.0 128.07050548396282L252.0 166.25269391363227L252.0 68.72992616903525L252.0 128.07050548396282L252.0 66.06647912467756L252.0 68.72992616903525L252.0 48.389821432202545L252.0 66.06647912467756L252.0 48.148533546650974L252.0 48.389821432202545L252.0 34.8753797654921L252.0 48.148533546650974"/>
<path stroke="#000000" fill="none" stroke-width="4.0" d="M 76.0 93.18352533935767L76.0 107.34027076327381L76.0 93.18352533935767L76.0 107.34027076327381L76.0 92.87495525495038L76.0 93.18352533935767L76.0 92.74271093306155L76.0 92.87495525495038L76.0 92.50142304750997L76.0 92.74271093306155"/>
<path stroke="#000000" fill="#d0e4fe" stroke-width="0.8" d="M 72.0 88.50142304750996L80.0 88.50142304750996L80.0 96.50142304750996L72.0 96.50142304750996L72.0 88.50142304750996z"/>
<path stroke="#d0e4fe" fill="#d0e4fe" stroke-width="2.4" d="M 76.0 93.18352533935767L76.0 106.54027076327381L76.0 93.18352533935767L76.0 106.54027076327381L76.0 92.87495525495038L76.0 93.18352533935767L76.0 92.74271093306155L76.0 92.87495525495038L76.0 92.50142304750997L76.0 92.74271093306155"/>
<path stroke="#000000" fill="none" stroke-width="4.0" d="M 116.0 132.73849803905665L116.0 143.46474719219296L116.0 132.73849803905665L116.0 143.46474719219296L116.0 126.08916073145284L116.0 132.73849803905665L116.0 98.2668114666989L116.0 126.08916073145284L116.0 98.02552358114733L116.0 98.2668114666989L116.0 93.18352533935767L116.0 98.02552358114733"/>
<path stroke="#000000" fill="#3077cb" stroke-width="0.8" d="M 112.0 89.18352533935767L120.0 89.18352533935767L120.0 97.18352533935767L112.0 97.18352533935767L112.0 89.18352533935767z"/>
<path stroke="#3077cb" fill="#3077cb" stroke-width="2.4" d="M 116.0 132.73849803905665L116.0 142.66474719219295L116.0 132.73849803905665L116.0 142.66474719219295L116.0 126.08916073145284L116.0 132.73849803905665L116.0 98.2668114666989L116.0 126.08916073145284L116.0 98.02552358114733L116.0 98.2668114666989L116.0 93.18352533935767L116.0 98.02552358114733"/>
</g>
</g>
</g>
</svg>