<?xml version="1.0" encoding="utf-8"?>
<svg version="1.2" baseProfile="tiny" id="openrndr-svg" xmlns="http://www.w3.org/2000/svg" xmlns:xlink="http://www.w3.org/1999/xlink" height="576.0" x="0.0" y="0.0" width="768.0" ><g >
<g transform="matrix(1.0 0.0 0.0 1.0 481.0 350.0)">
<g >
<path fill="#d0e4fe" d="M 48.0 112.50665910071582L48.0 113.16138375000405L32.0 113.16138375000405L32.0 79.118411834351L48.0 79.118411834351L48.0 112.50665910071582z"/>
<path fill="#75aef7" d="M -8.0 65.78125755910428L-8.0 75.06737837021319L-24.0 75.06737837021319L-24.0 65.44304028826777L-24.0 59.81946013020068L-8.0 59.81946013020068L-8.0 65.78125755910428z"/>
<path fill="#d0e4fe" d="M -40.0 65.44304028826777L-40.0 59.819560130200685L-40.0 59.710910668276796L-24.0 59.7109106682768L-8.0 59.7109106682768L-8.0 59.819560130200685L-24.0 59.819560130200685L-24.0 65.44304028826777L-40.0 65.44304028826777z"/>
<path fill="#3077cb" d="M 8.0 35.575657863156906L8.0 41.06564098749972L8.0 41.174190449423605L8.0 44.06536841151906L8.0 44.22876391736236L8.0 59.7110106682768L8.0 65.78125755910428L-8.0 65.78125755910428L-8.0 59.7110106682768L-24.0 59.7110106682768L-40.0 59.7110106682768L-40.0 42.42941173449089L-40.0 34.71254090016546L-24.0 34.71254090016546L-8.0 34.71254090016546L8.0 34.71254090016546L16.0 34.71254090016546L16.0 35.565657863156915L8.0 35.565657863156915L8.0 35.575657863156906z"/>
<path fill="#75aef7" d="M 32.0 113.16138375000405L32.0 114.25259149881775L16.0 114.25259149881775L16.0 79.118511834351L16.0 62.70273971089123L16.0 35.565657863156915L16.0 34.712640900165454L8.0 34.712640900165454L-24.0 34.712640900165454L-24.0 25.78006280974538L8.0 25.78006280974538L16.0 25.78006280974538L32.0 25.78006280974538L48.0 25.78006280974538L48.0 79.118511834351L32.0 79.118511834351L32.0 113.16138375000405z"/>
<path fill="#d0e4fe" d="M -24.0 25.780162809745377L-40.0 25.780162809745377L-40.0 42.42941173449089L-48.0 42.42941173449089L-48.0 42.43941173449089L-48.0 43.029290339859685L-56.0 43.029290339859685L-56.0 43.039290339859676L-56.0 43.116129909398786L-64.0 43.116129909398786L-64.0 43.126129909398784L-64.0 111.63369290166484L-80.0 111.63369290166484L-80.0 43.12612990939877L-80.0 43.03929033985968L-80.0 42.43941173449089L-80.0 42.15632414080872L-80.0 25.780162809745374L-80.0 25.713561981493065L-64.0 25.713561981493065L-56.0 25.713561981493065L-48.0 25.713561981493065L-40.0 25.713561981493065L-8.0 25.713561981493065L16.0 25.713561981493065L32.0 25.713561981493065L32.0 25.780162809745377L16.0 25.780162809745377L-8.0 25.780162809745377L-24.0 25.780162809745377z"/>
<path fill="#75aef7" d="M -80.0 25.71344771890157L-64.0 25.71344771890157L-56.0 25.71344771890157L-48.0 25.71344771890157L-40.0 25.71344771890157L-8.0 25.71344771890157L16.0 25.71344771890157L32.0 25.71344771890157L32.0 25.71366198149307L16.0 25.71363519866913L16.0 25.71366198149307L-8.0 25.713616068080604L-8.0 25.71366198149307L-40.0 25.713584067823433L-40.0 25.71366198149307L-48.0 25.713631372551426L-48.0 25.71366198149307L-56.0 25.713626271061152L-56.0 25.71366198149307L-64.0 25.71361912897477L-64.0 25.71366198149306L-80.0 25.71344771890157zM -96.0 42.15632414080872L-96.0 25.71344771890157L-80.0 25.71344771890157L-80.0 25.71366198149307L-80.0 42.15632414080872L-96.0 42.15632414080872z"/>
<path fill="#3077cb" stroke-width="176.0" d="M 48.0 112.50665910071582L48.0 25.713547718901566L32.0 25.713547718901566L16.0 25.713547718901566L8.0 25.713547718901566L-24.0 25.713547718901566L-48.0 25.713547718901566L-56.0 25.713547718901566L-64.0 25.713547718901566L-80.0 25.713547718901566L-96.0 25.713547718901566L-96.0 8.287351498817753L-96.0 0.28735149881775257L64.0 0.28735149881775257L64.0 8.287351498817753L64.0 10.71051827673318L64.0 17.395336929780015L64.0 24.085411662035796L64.0 25.713547718901562L64.0 112.50665910071582L48.0 112.50665910071582z"/>
</g>
</g>
<g transform="matrix(1.0 0.0 0.0 1.0 623.0 350.0)">
<g >
<path fill="#ffd6d1" d="M -16.0 63.97248073567799L-16.0 113.49160263943563L-32.0 113.49160263943563L-32.0 42.79276677545713L-32.0 25.70739180155213L-16.0 25.70739180155213L-16.0 63.97248073567799z"/>
<path fill="#ffd6d1" d="M 96.0 80.12278001362561L96.0 111.424592359222L80.0 111.424592359222L80.0 80.12278001362561L96.0 80.12278001362561z"/>
<path fill="#ffd6d1" d="M 48.0 61.485408714253445L48.0 64.41810484252338L32.0 64.41810484252338L32.0 61.485408714253445L48.0 61.485408714253445z"/>
<path fill="#fb827a" d="M -16.0 63.97248073567799L-16.0 61.64880422009675L0.0 61.64880422009675L0.0 63.97248073567799L-16.0 63.97248073567799z"/>
<path fill="#fb827a" d="M -48.0 42.79276677545713L-48.0 25.70739180155213L-32.0 25.70739180155213L-32.0 42.792766775457125L-48.0 42.79276677545713z"/>
<path fill="#c64340" d="M 56.0 35.470819912212896L56.0 35.26400462160003L48.0 35.26400462160003L48.0 35.480819912212894L48.0 41.50555196477018L48.0 42.290870365542425L48.0 61.48550871425344L32.0 61.48550871425344L32.0 61.64890422009675L32.0 62.361094562309766L32.0 64.41810484252338L32.0 75.25362639435626L16.0 75.25362639435626L16.0 75.26362639435627L16.0 75.5575648877431L8.0 75.55756488774311L8.0 75.26362639435627L8.0 75.25362639435626L0.0 75.25362639435626L0.0 63.97248073567799L0.0 62.4056569729943L0.0 61.64890422009675L-16.0 61.64890422009675L-16.0 61.48550871425344L-16.0 42.3994198274663L-16.0 34.81537723251439L0.0 34.81537723251439L8.0 34.81537723251439L16.0 34.81537723251439L32.0 34.81537723251439L48.0 34.81537723251439L56.0 34.81537723251439L64.0 34.81537723251439L64.0 35.470819912212896L56.0 35.470819912212896z"/>
<path fill="#fb827a" d="M 112.0 42.7379207315377L112.0 41.356486000317L104.0 41.356486000317L104.0 41.431899310706214L96.0 41.431899310706214L96.0 42.74792073153769L96.0 80.12288001362562L80.0 80.12288001362562L80.0 111.424592359222L80.0 113.27336108967289L64.0 113.27336108967289L64.0 80.12288001362562L64.0 61.698371531616615L64.0 42.74792073153769L64.0 41.441899310706205L64.0 41.366486000316996L64.0 35.470819912212896L64.0 34.8154772325144L56.0 34.8154772325144L48.0 34.8154772325144L32.0 34.8154772325144L32.0 25.707963114509624L48.0 25.707963114509624L56.0 25.707963114509624L64.0 25.707963114509624L80.0 25.707963114509624L96.0 25.707963114509624L104.0 25.707963114509624L112.0 25.707963114509624L120.0 25.707963114509624L120.0 34.8154772325144L120.0 42.7379207315377L112.0 42.7379207315377z"/>
<path fill="#c64340" stroke-width="200.0" d="M 32.0 25.708063114509628L32.0 25.70749180155213L-16.000000000596977 25.70749180155213L-32.0 25.70749180155213L-48.0 25.70749180155213L-48.0 8.29340741616719L-48.0 0.28735149881775257L136.0 0.28735149881775257L136.0 8.29340741616719L136.0 8.360022507011001L136.0 10.70366252124325L136.0 17.29250059743108L136.0 23.64550068476535L136.0 23.754050146689224L136.0 25.707491801552123L136.0 114.25259149881775L120.0 114.25259149881775L120.0 42.7379207315377L120.0 25.708063114509628L112.0 25.708063114509628L104.0 25.708063114509628L96.0 25.708063114509628L64.0 25.708063114509628L56.0 25.708063114509628L48.0 25.708063114509628L32.0 25.708063114509628z"/>
</g>
</g>
<g transform="matrix(1.0 0.0 0.0 1.0 400.0 350.0)">
<g >
<path stroke="#000000" fill="none" stroke-opacity="0.1" stroke-width="0.4" d="M -31.913 -25.842708955283815L375.913 -25.842708955283815"/>
<path stroke="#000000" fill="none" stroke-opacity="0.1" stroke-width="0.4" d="M -31.913 -17.132688803916626L375.913 -17.132688803916626"/>
<path stroke="#000000" fill="none" stroke-opacity="0.1" stroke-width="0.4" d="M -31.913 -8.422668652549437L375.913 -8.422668652549437"/>
<path stroke="#000000" fill="none" stroke-opacity="0.1" stroke-width="0.4" d="M -31.913 0.28735149881775257L375.913 0.28735149881775257"/>
<path stroke="#000000" fill="none" stroke-opacity="0.1" stroke-width="0.4" d="M -31.913 8.997371650184942L375.913 8.997371650184942"/>
<path stroke="#000000" fill="none" stroke-opacity="0.1" stroke-width="0.4" d="M -31.913 17.70739180155213L375.913 17.70739180155213"/>
<path stroke="#000000" fill="none" stroke-opacity="0.1" stroke-width="0.4" d="M -31.913 26.41741195291932L375.913 26.41741195291932"/>
<path stroke="#000000" fill="none" stroke-opacity="0.1" stroke-width="0.4" d="M -31.913 35.12743210428651L375.913 35.12743210428651"/>
<path stroke="#000000" fill="none" stroke-opacity="0.1" stroke-width="0.4" d="M -31.913 43.8374522556537L375.913 43.8374522556537"/>
<path stroke="#000000" fill="none" stroke-opacity="0.1" stroke-width="0.4" d="M -31.913 52.54747240702089L375.913 52.54747240702089"/>
<path stroke="#000000" fill="none" stroke-opacity="0.1" stroke-width="0.4" d="M -31.913 61.25749255838808L375.913 61.25749255838808"/>
<path stroke="#000000" fill="none" stroke-opacity="0.1" stroke-width="0.4" d="M -31.913 69.96751270975527L375.913 69.96751270975527"/>
<path stroke="#000000" fill="none" stroke-opacity="0.1" stroke-width="0.4" d="M -31.913 78.67753286112246L375.913 78.67753286112246"/>
<path stroke="#000000" fill="none" stroke-opacity="0.1" stroke-width="0.4" d="M -31.913 87.38755301248965L375.913 87.38755301248965"/>
<path stroke="#000000" fill="none" stroke-opacity="0.1" stroke-width="0.4" d="M -31.913 96.09757316385684L375.913 96.09757316385684"/>
<path stroke="#000000" fill="none" stroke-opacity="0.1" stroke-width="0.4" d="M -31.913 104.80759331522403L375.913 104.80759331522403"/>
<path stroke="#000000" fill="none" stroke-opacity="0.1" stroke-width="0.4" d="M -31.913 113.51761346659121L375.913 113.51761346659121"/>
<path stroke="#000000" fill="none" stroke-opacity="0.1" stroke-width="0.4" d="M -31.913 122.2276336179584L375.913 122.2276336179584"/>
</g>
</g>
<g transform="matrix(1.0 0.0 0.0 1.0 481.0 350.0)">
<g >
<path stroke="#000000" fill="none" stroke-width="0.8" d="M -88.0 8.287351498817753L-88.0 42.16632414080872"/>
<path stroke="#000000" fill="none" stroke-width="0.8" d="M -88.4 8.287351498817753L56.0 8.287351498817753"/>
<path stroke="#000000" fill="none" stroke-width="0.8" d="M -72.0 8.287351498817753L-72.0 111.64369290166485"/>
<path stroke="#000000" fill="none" stroke-width="0.8" d="M -72.4 8.287351498817753L56.0 8.287351498817753"/>
<path stroke="#000000" fill="none" stroke-width="0.8" d="M -60.0 8.287351498817753L-60.0 10.71051827673318"/>
<path stroke="#000000" fill="none" stroke-width="0.8" d="M -60.4 8.287351498817753L56.0 8.287351498817753"/>
<path stroke="#000000" fill="none" stroke-width="0.8" d="M -60.0 10.71051827673318L-60.0 43.126129909398784"/>
<path stroke="#000000" fill="none" stroke-width="0.8" d="M -60.0 10.71051827673318L-60.0 43.126129909398784"/>
<path stroke="#000000" fill="none" stroke-width="0.8" d="M -52.0 10.71051827673318L-52.0 43.03929033985968"/>
<path stroke="#000000" fill="none" stroke-width="0.8" d="M -51.6 10.71051827673318L-60.0 10.71051827673318"/>
<path stroke="#000000" fill="none" stroke-width="0.8" d="M 56.0 8.287351498817753L56.0 8.287922811775248"/>
<path stroke="#000000" fill="none" stroke-width="0.8" d="M 56.0 8.287351498817753L56.0 8.287922811775248"/>
<path stroke="#000000" fill="none" stroke-width="0.8" d="M -44.0 8.287922811775248L-44.0 42.43941173449089"/>
<path stroke="#000000" fill="none" stroke-width="0.8" d="M -44.4 8.287922811775248L56.0 8.287922811775248"/>
<path stroke="#000000" fill="none" stroke-width="0.8" d="M 24.0 8.287922811775248L24.0 17.395336929780015"/>
<path stroke="#000000" fill="none" stroke-width="0.8" d="M 23.6 8.287922811775248L56.0 8.287922811775248"/>
<path stroke="#000000" fill="none" stroke-width="0.8" d="M -16.0 17.395336929780015L-16.0 24.085411662035796"/>
<path stroke="#000000" fill="none" stroke-width="0.8" d="M -16.4 17.395336929780015L24.0 17.395336929780015"/>
<path stroke="#000000" fill="none" stroke-width="0.8" d="M -16.0 24.085411662035796L-16.0 44.06536841151907"/>
<path stroke="#000000" fill="none" stroke-width="0.8" d="M -16.0 24.085411662035796L-16.0 44.06536841151907"/>
<path stroke="#000000" fill="none" stroke-width="0.8" d="M -16.0 44.06536841151907L-16.0 44.22876391736237"/>
<path stroke="#000000" fill="none" stroke-width="0.8" d="M -16.0 44.06536841151907L-16.0 44.22876391736237"/>
<path stroke="#000000" fill="none" stroke-width="0.8" d="M -32.0 44.22876391736237L-32.0 65.45304028826777"/>
<path stroke="#000000" fill="none" stroke-width="0.8" d="M -32.4 44.22876391736237L-16.0 44.22876391736237"/>
<path stroke="#000000" fill="none" stroke-width="0.8" d="M -16.0 44.22876391736237L-16.0 75.0773783702132"/>
<path stroke="#000000" fill="none" stroke-width="0.8" d="M -16.0 44.22876391736237L-16.0 75.0773783702132"/>
<path stroke="#000000" fill="none" stroke-width="0.8" d="M 0.0 44.06536841151907L0.0 65.79125755910428"/>
<path stroke="#000000" fill="none" stroke-width="0.8" d="M 0.4 44.06536841151907L-16.0 44.06536841151907"/>
<path stroke="#000000" fill="none" stroke-width="0.8" d="M 12.0 24.085411662035796L12.0 35.57565786315691"/>
<path stroke="#000000" fill="none" stroke-width="0.8" d="M 12.4 24.085411662035796L-16.0 24.085411662035796"/>
<path stroke="#000000" fill="none" stroke-width="0.8" d="M 24.0 17.395336929780015L24.0 62.70273971089124"/>
<path stroke="#000000" fill="none" stroke-width="0.8" d="M 24.0 17.395336929780015L24.0 62.70273971089124"/>
<path stroke="#000000" fill="none" stroke-width="0.8" d="M 24.0 62.70273971089124L24.0 114.26259149881776"/>
<path stroke="#000000" fill="none" stroke-width="0.8" d="M 24.0 62.70273971089124L24.0 114.26259149881776"/>
<path stroke="#000000" fill="none" stroke-width="0.8" d="M 40.0 62.70273971089124L40.0 113.17138375000405"/>
<path stroke="#000000" fill="none" stroke-width="0.8" d="M 40.4 62.70273971089124L24.0 62.70273971089124"/>
<path stroke="#000000" fill="none" stroke-width="0.8" d="M 56.0 8.287922811775248L56.0 112.51665910071583"/>
<path stroke="#000000" fill="none" stroke-width="0.8" d="M 56.0 8.287922811775248L56.0 112.51665910071583"/>
</g>
</g>
<g transform="matrix(1.0 0.0 0.0 1.0 481.0 350.0)">
<g >
<path stroke="#000000" fill="none" stroke-width="4.0" d="M 56.0 8.287351498817753L56.0 -17.126632886567187"/>
<path stroke="#000000" fill="none" stroke-width="4.0" d="M 56.0 8.287922811775248L56.0 96.80517612425L56.0 8.287922811775248L56.0 96.80517612425L56.0 8.287351498817753L56.0 8.287922811775248L56.0 8.287351498817753L56.0 -17.132688803916626"/>
<path stroke="#000000" fill="#c64340" stroke-width="0.8" d="M 52.0 -21.132688803916626L60.0 -21.132688803916626L60.0 -13.132688803916626L52.0 -13.132688803916626L52.0 -21.132688803916626z"/>
<path stroke="#c64340" fill="#c64340" stroke-width="2.4" d="M 56.0 8.287922811775248L56.0 96.00517612424999L56.0 8.287922811775248L56.0 96.00517612424999L56.0 8.287351498817753L56.0 8.287922811775248L56.0 8.287351498817753L56.0 -17.132688803916626"/>
<path stroke="#000000" fill="none" stroke-width="4.0" d="M 24.0 62.70273971089124L24.0 96.429575753676L24.0 62.70273971089124L24.0 96.429575753676L24.0 17.395336929780015L24.0 62.70273971089124L24.0 8.287922811775248L24.0 17.395336929780015"/>
<path stroke="#000000" fill="#fb827a" stroke-width="0.8" d="M 20.0 4.287922811775246L28.0 4.287922811775246L28.0 12.287922811775246L20.0 12.287922811775246L20.0 4.287922811775246z"/>
<path stroke="#fb827a" fill="#fb827a" stroke-width="2.4" d="M 24.0 62.70273971089124L24.0 95.629575753676L24.0 62.70273971089124L24.0 95.629575753676L24.0 17.395336929780015L24.0 62.70273971089124L24.0 8.287922811775248L24.0 17.395336929780015"/>
<path stroke="#000000" fill="none" stroke-width="4.0" d="M -16.0 44.22876391736237L-16.0 58.77319609932561L-16.0 44.22876391736237L-16.0 58.77319609932561L-16.0 44.06536841151907L-16.0 44.22876391736237L-16.0 24.085411662035796L-16.0 44.06536841151907L-16.0 17.395336929780015L-16.0 24.085411662035796"/>
<path stroke="#000000" fill="#c64340" stroke-width="0.8" d="M -20.0 13.395336929780015L-12.0 13.395336929780015L-12.0 21.395336929780015L-20.0 21.395336929780015L-20.0 13.395336929780015z"/>
<path stroke="#c64340" fill="#c64340" stroke-width="2.4" d="M -16.0 44.22876391736237L-16.0 57.97319609932561L-16.0 44.22876391736237L-16.0 57.97319609932561L-16.0 44.06536841151907L-16.0 44.22876391736237L-16.0 24.085411662035796L-16.0 44.06536841151907L-16.0 17.395336929780015L-16.0 24.085411662035796"/>
<path stroke="#000000" fill="none" stroke-width="4.0" d="M -88.0 8.287351498817753L-88.0 26.026837819813238L-88.0 8.287351498817753L-88.0 26.026837819813238"/>
<path stroke="#000000" fill="#fb827a" stroke-width="0.8" d="M -92.0 4.287351498817753L-84.0 4.287351498817753L-84.0 12.287351498817753L-92.0 12.287351498817753L-92.0 4.287351498817753z"/>
<path stroke="#fb827a" fill="#fb827a" stroke-width="2.4" d="M -88.0 8.287351498817753L-88.0 25.226837819813237L-88.0 8.287351498817753L-88.0 25.226837819813237"/>
<path stroke="#000000" fill="none" stroke-width="4.0" d="M -32.0 44.22876391736237L-32.0 47.3403187696392L-32.0 44.22876391736237L-32.0 47.3403187696392"/>
<path stroke="#000000" fill="#fb827a" stroke-width="0.8" d="M -36.0 40.22876391736237L-28.0 40.22876391736237L-28.0 48.22876391736237L-36.0 48.22876391736237L-36.0 40.22876391736237z"/>
<path stroke="#fb827a" fill="#fb827a" stroke-width="2.4" d="M -32.0 44.22876391736237L-32.0 46.5403187696392L-32.0 44.22876391736237L-32.0 46.5403187696392"/>
<path stroke="#000000" fill="none" stroke-width="4.0" d="M 0.0 44.06536841151907L0.0 47.76932389164185L0.0 44.06536841151907L0.0 47.76932389164185"/>
<path stroke="#000000" fill="#ffd6d1" stroke-width="0.8" d="M -4.0 40.06536841151907L4.0 40.06536841151907L4.0 48.06536841151907L-4.0 48.06536841151907L-4.0 40.06536841151907z"/>
<path stroke="#ffd6d1" fill="#ffd6d1" stroke-width="2.4" d="M 0.0 44.06536841151907L0.0 46.96932389164184L0.0 44.06536841151907L0.0 46.96932389164184"/>
<path stroke="#000000" fill="none" stroke-width="4.0" d="M 40.0 62.70273971089124L40.0 94.73333626974818L40.0 62.70273971089124L40.0 94.73333626974818"/>
<path stroke="#000000" fill="#ffd6d1" stroke-width="0.8" d="M 36.0 58.70273971089124L44.0 58.70273971089124L44.0 66.70273971089124L36.0 66.70273971089124L36.0 58.70273971089124z"/>
<path stroke="#ffd6d1" fill="#ffd6d1" stroke-width="2.4" d="M 40.0 62.70273971089124L40.0 93.93333626974818L40.0 62.70273971089124L40.0 93.93333626974818"/>
<path stroke="#000000" fill="none" stroke-width="4.0" d="M -72.0 8.287351498817753L-72.0 95.55874603882349L-72.0 8.287351498817753L-72.0 95.55874603882349"/>
<path stroke="#000000" fill="#ffd6d1" stroke-width="0.8" d="M -76.0 4.287351498817753L-68.0 4.287351498817753L-68.0 12.287351498817753L-76.0 12.287351498817753L-76.0 4.287351498817753z"/>
<path stroke="#ffd6d1" fill="#ffd6d1" stroke-width="2.4" d="M -72.0 8.287351498817753L-72.0 94.75874603882349L-72.0 8.287351498817753L-72.0 94.75874603882349"/>
</g>
</g>
<g transform="matrix(1.0 0.0 0.0 1.0 623.0 350.0)">
<g >
<path stroke="#000000" fill="none" stroke-width="0.8" d="M -40.0 8.29340741616719L-40.0 8.293521678758689"/>
<path stroke="#000000" fill="none" stroke-width="0.8" d="M -40.4 8.29340741616719L128.0 8.29340741616719"/>
<path stroke="#000000" fill="none" stroke-width="0.8" d="M -40.0 8.293521678758689L-40.0 42.80276677545713"/>
<path stroke="#000000" fill="none" stroke-width="0.8" d="M -40.0 8.293521678758689L-40.0 42.80276677545713"/>
<path stroke="#000000" fill="none" stroke-width="0.8" d="M -24.0 8.293521678758689L-24.0 8.360022507011001"/>
<path stroke="#000000" fill="none" stroke-width="0.8" d="M -23.6 8.293521678758689L-40.0 8.293521678758689"/>
<path stroke="#000000" fill="none" stroke-width="0.8" d="M -24.0 8.360022507011001L-24.0 113.50160263943563"/>
<path stroke="#000000" fill="none" stroke-width="0.8" d="M -24.0 8.360022507011001L-24.0 113.50160263943563"/>
<path stroke="#000000" fill="none" stroke-width="0.8" d="M 72.0 8.360022507011001L72.0 17.29250059743108"/>
<path stroke="#000000" fill="none" stroke-width="0.8" d="M 72.4 8.360022507011001L-24.0 8.360022507011001"/>
<path stroke="#000000" fill="none" stroke-width="0.8" d="M 40.0 17.29250059743108L40.0 23.64550068476535"/>
<path stroke="#000000" fill="none" stroke-width="0.8" d="M 39.6 17.29250059743108L72.0 17.29250059743108"/>
<path stroke="#000000" fill="none" stroke-width="0.8" d="M 40.0 23.64550068476535L40.0 23.754050146689224"/>
<path stroke="#000000" fill="none" stroke-width="0.8" d="M 40.0 23.64550068476535L40.0 23.754050146689224"/>
<path stroke="#000000" fill="none" stroke-width="0.8" d="M 40.0 23.754050146689224L40.0 42.290870365542425"/>
<path stroke="#000000" fill="none" stroke-width="0.8" d="M 40.0 23.754050146689224L40.0 42.290870365542425"/>
<path stroke="#000000" fill="none" stroke-width="0.8" d="M -8.0 42.290870365542425L-8.0 42.3994198274663"/>
<path stroke="#000000" fill="none" stroke-width="0.8" d="M -8.4 42.290870365542425L40.0 42.290870365542425"/>
<path stroke="#000000" fill="none" stroke-width="0.8" d="M -8.0 42.3994198274663L-8.0 63.98248073567799"/>
<path stroke="#000000" fill="none" stroke-width="0.8" d="M -8.0 42.3994198274663L-8.0 63.98248073567799"/>
<path stroke="#000000" fill="none" stroke-width="0.8" d="M 24.0 42.3994198274663L24.0 62.361094562309766"/>
<path stroke="#000000" fill="none" stroke-width="0.8" d="M 24.4 42.3994198274663L-8.0 42.3994198274663"/>
<path stroke="#000000" fill="none" stroke-width="0.8" d="M 4.0 62.361094562309766L4.0 62.4056569729943"/>
<path stroke="#000000" fill="none" stroke-width="0.8" d="M 3.6 62.361094562309766L24.0 62.361094562309766"/>
<path stroke="#000000" fill="none" stroke-width="0.8" d="M 4.0 62.4056569729943L4.0 75.26362639435627"/>
<path stroke="#000000" fill="none" stroke-width="0.8" d="M 4.0 62.4056569729943L4.0 75.26362639435627"/>
<path stroke="#000000" fill="none" stroke-width="0.8" d="M 12.0 62.4056569729943L12.0 75.56756488774312"/>
<path stroke="#000000" fill="none" stroke-width="0.8" d="M 12.4 62.4056569729943L4.0 62.4056569729943"/>
<path stroke="#000000" fill="none" stroke-width="0.8" d="M 24.0 62.361094562309766L24.0 75.26362639435627"/>
<path stroke="#000000" fill="none" stroke-width="0.8" d="M 24.0 62.361094562309766L24.0 75.26362639435627"/>
<path stroke="#000000" fill="none" stroke-width="0.8" d="M 40.0 42.290870365542425L40.0 64.42810484252338"/>
<path stroke="#000000" fill="none" stroke-width="0.8" d="M 40.0 42.290870365542425L40.0 64.42810484252338"/>
<path stroke="#000000" fill="none" stroke-width="0.8" d="M 52.0 23.754050146689224L52.0 35.27400462160003"/>
<path stroke="#000000" fill="none" stroke-width="0.8" d="M 52.4 23.754050146689224L40.0 23.754050146689224"/>
<path stroke="#000000" fill="none" stroke-width="0.8" d="M 60.0 23.64550068476535L60.0 35.480819912212894"/>
<path stroke="#000000" fill="none" stroke-width="0.8" d="M 60.4 23.64550068476535L40.0 23.64550068476535"/>
<path stroke="#000000" fill="none" stroke-width="0.8" d="M 72.0 17.29250059743108L72.0 61.698371531616615"/>
<path stroke="#000000" fill="none" stroke-width="0.8" d="M 72.0 17.29250059743108L72.0 61.698371531616615"/>
<path stroke="#000000" fill="none" stroke-width="0.8" d="M 72.0 61.698371531616615L72.0 113.2833610896729"/>
<path stroke="#000000" fill="none" stroke-width="0.8" d="M 72.0 61.698371531616615L72.0 113.2833610896729"/>
<path stroke="#000000" fill="none" stroke-width="0.8" d="M 88.0 61.698371531616615L88.0 111.43459235922201"/>
<path stroke="#000000" fill="none" stroke-width="0.8" d="M 88.4 61.698371531616615L72.0 61.698371531616615"/>
<path stroke="#000000" fill="none" stroke-width="0.8" d="M 128.0 8.29340741616719L128.0 8.294092991716184"/>
<path stroke="#000000" fill="none" stroke-width="0.8" d="M 128.0 8.29340741616719L128.0 8.294092991716184"/>
<path stroke="#000000" fill="none" stroke-width="0.8" d="M 100.0 8.294092991716184L100.0 10.70366252124325"/>
<path stroke="#000000" fill="none" stroke-width="0.8" d="M 99.6 8.294092991716184L128.0 8.294092991716184"/>
<path stroke="#000000" fill="none" stroke-width="0.8" d="M 100.0 10.70366252124325L100.0 41.44189931070621"/>
<path stroke="#000000" fill="none" stroke-width="0.8" d="M 100.0 10.70366252124325L100.0 41.44189931070621"/>
<path stroke="#000000" fill="none" stroke-width="0.8" d="M 108.0 10.70366252124325L108.0 41.366486000316996"/>
<path stroke="#000000" fill="none" stroke-width="0.8" d="M 108.4 10.70366252124325L100.0 10.70366252124325"/>
<path stroke="#000000" fill="none" stroke-width="0.8" d="M 128.0 8.294092991716184L128.0 8.294207254307683"/>
<path stroke="#000000" fill="none" stroke-width="0.8" d="M 128.0 8.294092991716184L128.0 8.294207254307683"/>
<path stroke="#000000" fill="none" stroke-width="0.8" d="M 116.0 8.294207254307683L116.0 42.7479207315377"/>
<path stroke="#000000" fill="none" stroke-width="0.8" d="M 115.6 8.294207254307683L128.0 8.294207254307683"/>
<path stroke="#000000" fill="none" stroke-width="0.8" d="M 128.0 8.294207254307683L128.0 114.26259149881776"/>
<path stroke="#000000" fill="none" stroke-width="0.8" d="M 128.0 8.294207254307683L128.0 114.26259149881776"/>
</g>
</g>
<g transform="matrix(1.0 0.0 0.0 1.0 623.0 350.0)">
<g >
<path stroke="#000000" fill="none" stroke-width="4.0" d="M 128.0 8.29340741616719L128.0 -17.132688803916626"/>
<path stroke="#000000" fill="none" stroke-width="4.0" d="M 128.0 8.294207254307683L128.0 94.60334899616483L128.0 8.294207254307683L128.0 94.60334899616483L128.0 8.294092991716184L128.0 8.294207254307683L128.0 8.29340741616719L128.0 8.294092991716184L128.0 8.29340741616719L128.0 -17.132688803916626"/>
<path stroke="#000000" fill="#3077cb" stroke-width="0.8" d="M 124.0 -21.132688803916626L132.0 -21.132688803916626L132.0 -13.132688803916626L124.0 -13.132688803916626L124.0 -21.132688803916626z"/>
<path stroke="#3077cb" fill="#3077cb" stroke-width="2.4" d="M 128.0 8.294207254307683L128.0 93.80334899616483L128.0 8.294207254307683L128.0 93.80334899616483L128.0 8.294092991716184L128.0 8.294207254307683L128.0 8.29340741616719L128.0 8.294092991716184L128.0 8.29340741616719L128.0 -17.132688803916626"/>
<path stroke="#000000" fill="none" stroke-width="4.0" d="M -40.0 8.293521678758689L-40.0 25.32311714502776L-40.0 8.293521678758689L-40.0 25.32311714502776L-40.0 8.29340741616719L-40.0 8.293521678758689"/>
<path stroke="#000000" fill="#75aef7" stroke-width="0.8" d="M -44.0 4.293407416167192L-36.0 4.293407416167192L-36.0 12.293407416167192L-44.0 12.293407416167192L-44.0 4.293407416167192z"/>
<path stroke="#75aef7" fill="#75aef7" stroke-width="2.4" d="M -40.0 8.293521678758689L-40.0 24.52311714502776L-40.0 8.293521678758689L-40.0 24.52311714502776L-40.0 8.29340741616719L-40.0 8.293521678758689"/>
<path stroke="#000000" fill="none" stroke-width="4.0" d="M -24.0 8.360022507011001L-24.0 94.00199063367049L-24.0 8.360022507011001L-24.0 94.00199063367049L-24.0 8.293521678758689L-24.0 8.360022507011001"/>
<path stroke="#000000" fill="#d0e4fe" stroke-width="0.8" d="M -28.0 4.293521678758687L-20.0 4.293521678758687L-20.0 12.293521678758687L-28.0 12.293521678758687L-28.0 4.293521678758687z"/>
<path stroke="#d0e4fe" fill="#d0e4fe" stroke-width="2.4" d="M -24.0 8.360022507011001L-24.0 93.20199063367049L-24.0 8.360022507011001L-24.0 93.20199063367049L-24.0 8.293521678758689L-24.0 8.360022507011001"/>
<path stroke="#000000" fill="none" stroke-width="4.0" d="M 72.0 61.698371531616615L72.0 97.48423078633795L72.0 61.698371531616615L72.0 97.48423078633795L72.0 17.29250059743108L72.0 61.698371531616615L72.0 8.360022507011001L72.0 17.29250059743108"/>
<path stroke="#000000" fill="#75aef7" stroke-width="0.8" d="M 68.0 4.360022507011003L76.0 4.360022507011003L76.0 12.360022507011003L68.0 12.360022507011003L68.0 4.360022507011003z"/>
<path stroke="#75aef7" fill="#75aef7" stroke-width="2.4" d="M 72.0 61.698371531616615L72.0 96.68423078633795L72.0 61.698371531616615L72.0 96.68423078633795L72.0 17.29250059743108L72.0 61.698371531616615L72.0 8.360022507011001L72.0 17.29250059743108"/>
<path stroke="#000000" fill="none" stroke-width="4.0" d="M 40.0 42.290870365542425L40.0 49.00874492869575L40.0 42.290870365542425L40.0 49.00874492869575L40.0 23.754050146689224L40.0 42.290870365542425L40.0 23.64550068476535L40.0 23.754050146689224L40.0 17.29250059743108L40.0 23.64550068476535"/>
<path stroke="#000000" fill="#3077cb" stroke-width="0.8" d="M 36.0 13.29250059743108L44.0 13.29250059743108L44.0 21.29250059743108L36.0 21.29250059743108L36.0 13.29250059743108z"/>
<path stroke="#3077cb" fill="#3077cb" stroke-width="2.4" d="M 40.0 42.290870365542425L40.0 48.20874492869575L40.0 42.290870365542425L40.0 48.20874492869575L40.0 23.754050146689224L40.0 42.290870365542425L40.0 23.64550068476535L40.0 23.754050146689224L40.0 17.29250059743108L40.0 23.64550068476535"/>
<path stroke="#000000" fill="none" stroke-width="4.0" d="M -8.0 42.3994198274663L-8.0 48.75545530878812L-8.0 42.3994198274663L-8.0 48.75545530878812L-8.0 42.290870365542425L-8.0 42.3994198274663"/>
<path stroke="#000000" fill="#d0e4fe" stroke-width="0.8" d="M -12.0 38.290870365542425L-4.0 38.290870365542425L-4.0 46.290870365542425L-12.0 46.290870365542425L-12.0 38.290870365542425z"/>
<path stroke="#d0e4fe" fill="#d0e4fe" stroke-width="2.4" d="M -8.0 42.3994198274663L-8.0 47.955455308788125L-8.0 42.3994198274663L-8.0 47.955455308788125L-8.0 42.290870365542425L-8.0 42.3994198274663"/>
<path stroke="#000000" fill="none" stroke-width="4.0" d="M 24.0 42.3994198274663L24.0 58.318906136530906L24.0 42.3994198274663L24.0 58.318906136530906"/>
<path stroke="#000000" fill="#75aef7" stroke-width="0.8" d="M 20.0 38.3994198274663L28.0 38.3994198274663L28.0 46.3994198274663L20.0 46.3994198274663L20.0 38.3994198274663z"/>
<path stroke="#75aef7" fill="#75aef7" stroke-width="2.4" d="M 24.0 42.3994198274663L24.0 57.5189061365309L24.0 42.3994198274663L24.0 57.5189061365309"/>
<path stroke="#000000" fill="none" stroke-width="4.0" d="M 88.0 61.698371531616615L88.0 96.23036288499256L88.0 61.698371531616615L88.0 96.23036288499256"/>
<path stroke="#000000" fill="#d0e4fe" stroke-width="0.8" d="M 84.0 57.698371531616615L92.0 57.698371531616615L92.0 65.69837153161662L84.0 65.69837153161662L84.0 57.698371531616615z"/>
<path stroke="#d0e4fe" fill="#d0e4fe" stroke-width="2.4" d="M 88.0 61.698371531616615L88.0 95.43036288499255L88.0 61.698371531616615L88.0 95.43036288499255"/>
</g>
</g>
</g>
</svg>