<?xml version="1.0" encoding="utf-8"?>
<svg version="1.2" baseProfile="tiny" id="openrndr-svg" xmlns="http://www.w3.org/2000/svg" xmlns:xlink="http://www.w3.org/1999/xlink" height="576.0" x="0.0" y="0.0" width="768.0" ><g >
<g transform="matrix(1.0 0.0 0.0 1.0 497.4035 350.0)">
<g >
<path fill="#d0e4fe" d="M 48.0 74.8066930332237L48.0 123.92088216564613L32.0 123.92088216564613L32.0 74.8066930332237L48.0 74.8066930332237z"/>
<path fill="#75aef7" d="M 72.0 118.14189565771765L72.0 118.95871584297566L56.0 118.95871584297566L56.0 118.14189565771764L56.0 105.20539730734792L56.0 48.325360137289614L56.0 15.577727912935284L72.0 15.577727912935284L80.0 15.577727912935284L80.0 118.13189565771765L72.0 118.13189565771765L72.0 118.14189565771765z"/>
<path fill="#3077cb" d="M 0.0 74.66904664228738L0.0 54.496054416140176L16.0 54.496054416140176L16.0 74.66904664228738L0.0 74.66904664228738z"/>
<path fill="#75aef7" d="M -32.0 74.13734149303261L-32.0 54.67411960664002L-16.0 54.67411960664002L-16.0 74.13734149303261L-32.0 74.13734149303261z"/>
<path fill="#d0e4fe" d="M -48.0 45.49001441163826L-48.0 48.25438310331415L-64.0 48.25438310331415L-64.0 18.146598458398056L-48.0 18.146598458398056L-48.0 45.49001441163826z"/>
<path fill="#75aef7" d="M -112.0 45.30074232103703L-112.0 15.506003752286395L-96.0 15.506003752286395L-96.0 45.30074232103703L-112.0 45.30074232103703z"/>
<path fill="#d0e4fe" d="M 0.0 74.66904664228738L0.0 80.56387609561787L-16.0 80.56387609561787L-16.0 74.13734149303261L-16.0 54.67421960664002L-32.0 54.67421960664002L-32.0 54.49615441614018L-32.0 45.49001441163826L-32.0 25.43158160874968L-16.0 25.43158160874968L0.0 25.43158160874968L16.0 25.43158160874968L16.0 54.49615441614018L0.0 54.49615441614018L0.0 54.67421960664002L0.0 74.66904664228738z"/>
<path fill="#75aef7" d="M 16.0 124.5111122376526L16.0 74.8067930332237L16.0 74.66904664228738L16.0 68.73689916630661L16.0 48.33536013728961L16.0 35.458631920793934L16.0 25.43168160874968L0.0 25.431681608749685L-16.0 25.431681608749685L-16.0 15.506501836735346L16.0 15.506501836735346L32.0 15.506501836735346L48.0 15.506501836735346L56.0 15.506501836735346L72.0 15.506501836735346L72.0 15.577827912935291L56.0 15.577827912935291L56.0 48.325360137289614L48.0 48.325360137289614L48.0 48.3353601372896L48.0 74.8067930332237L32.0 74.8067930332237L32.0 123.92088216564613L32.0 124.51111223765258L16.0 124.5111122376526z"/>
<path fill="#75aef7" d="M 32.0 15.506601836735342L16.0 15.506545706457288L-32.0 15.506377315623109L32.0 15.506377315623109L72.0 15.506377315623109L72.0 15.506601836735342L32.0 15.506526996364597L32.0 15.506601836735342zM -32.0 15.506377315623109L-32.0 45.49001441163826L-48.0 45.49001441163826L-48.0 15.506377315623109L-32.0 15.506377315623109z"/>
<path fill="#75aef7" d="M 32.0 15.50647731562311L-32.0 15.506135553080851L-32.0 15.506477315623108L-48.0 15.506277954140124L-48.0 15.506477315623108L-48.0 18.146698458398056L-64.0 18.146698458398056L-64.0 48.25438310331415L-64.0 48.36022604871616L-80.0 48.36022604871616L-80.0 18.146698458398056L-80.0 15.505879231174157L-64.0 15.505879231174157L-48.0 15.505879231174157L-32.0 15.505879231174157L32.0 15.505879231174157L72.0 15.505879231174157L72.0 15.506477315623115L32.0 15.506319924978653L32.0 15.50647731562311z"/>
<path fill="#3077cb" stroke-width="200.0" d="M 56.0 15.505979231174152L32.0 15.505979231174152L-32.0 15.505979231174152L-48.0 15.505979231174152L-64.0 15.505979231174152L-80.0 15.505979231174152L-80.0 48.36022604871616L-80.0 119.43189606947875L-96.0 119.43189606947875L-96.0 45.30074232103703L-96.0 15.506103752286393L-112.0 15.506103752286396L-112.0 15.505979231174159L-112.0 8.951698237652607L-112.0 0.9516982376526073L72.0 0.9516982376526073L72.0 8.951698237652607L72.0 15.505979231174152L56.0 15.505979231174152z"/>
</g>
</g>
<g transform="matrix(1.0 0.0 0.0 1.0 702.5965 350.0)">
<g >
<path fill="#ffd6d1" d="M 72.0 122.60842964266126L72.0 123.32193561578302L56.0 123.32193561578302L56.0 75.21138664799606L72.0 75.21138664799606L72.0 122.60842964266126z"/>
<path fill="#fb827a" d="M 72.0 122.60842964266126L72.0 111.67998478903738L72.0 15.497411795541998L88.0 15.497411795541998L88.0 111.67998478903738L88.0 122.60842964266126L72.0 122.60842964266126z"/>
<path fill="#c64340" d="M 32.0 56.12105493084154L32.0 71.68801121531799L16.0 71.68801121531799L16.0 56.121054930841545L32.0 56.12105493084154z"/>
<path fill="#fb827a" d="M -16.0 71.31942872309453L-16.0 56.487147000820244L0.0 56.487147000820244L0.0 71.31942872309453L-16.0 71.31942872309453z"/>
<path fill="#ffd6d1" d="M -32.0 46.23963150730893L-32.0 46.8933673465566L-48.0 46.89336734655661L-48.0 18.061550538739738L-32.0 18.061550538739738L-32.0 46.23963150730893z"/>
<path fill="#fb827a" d="M -96.0 45.94202604906094L-96.0 15.426310240454297L-80.0 15.426310240454297L-80.0 45.94202604906094L-96.0 45.94202604906094z"/>
<path fill="#ffd6d1" d="M 32.0 38.769648295193136L32.0 56.12115493084153L16.0 56.12115493084154L16.0 56.48724700082025L16.0 71.68801121531799L16.0 81.80784200687201L0.0 81.80784200687201L0.0 71.31942872309453L0.0 56.48724700082025L-16.0 56.48724700082025L-16.0 56.12115493084155L-16.0 46.23963150730893L-16.0 25.192501073253396L0.0 25.192501073253396L16.0 25.192501073253396L31.999999999999996 25.192501073253396L40.0 25.192501073253396L40.0 38.759648295193145L32.0 38.759648295193145L32.0 38.769648295193136z"/>
<path fill="#fb827a" d="M 40.0 124.5111122376526L40.0 75.21148664799607L40.0 68.33220555153424L40.0 41.9332194024834L40.0 38.759648295193145L40.0 25.192601073253396L15.999999999999996 25.192601073253396L0.0 25.192601073253396L0.0 15.426683803791011L40.0 15.426683803791011L56.0 15.426683803791011L72.0 15.426683803791011L88.0 15.426683803791011L88.0 15.497511795541996L72.0 15.497511795541996L72.0 75.21148664799607L56.0 75.21148664799607L56.0 123.32193561578302L56.0 124.5111122376526L40.0 124.5111122376526z"/>
<path fill="#fb827a" d="M 56.0 15.426783803791011L40.0 15.426733910210515L-16.0 15.426559282678774L56.0 15.426559282678774L88.0 15.426559282678774L88.0 15.426783803791011L56.0 15.426723931494415L56.0 15.426783803791011zM -16.0 15.426559282678774L-16.0 46.23963150730893L-32.0 46.23963150730893L-32.0 15.426559282678774L-16.0 15.426559282678774z"/>
<path fill="#fb827a" d="M 56.0 15.42665928267877L-16.0 15.426375144676745L-16.0 15.426659282678775L-32.0 15.426501428233205L-32.0 15.426659282678777L-32.0 18.06165053873974L-48.0 18.06165053873974L-48.0 46.89336734655661L-48.0 46.98800339185722L-64.0 46.98800339185722L-64.0 18.06165053873974L-64.0 15.42618571934206L-48.0 15.42618571934206L-32.0 15.42618571934206L-16.0 15.42618571934206L56.0 15.42618571934206L88.0 15.42618571934206L88.0 15.42665928267877L56.0 15.4265595851342L56.0 15.42665928267877z"/>
<path fill="#c64340" stroke-width="200.0" d="M 88.0 9.031391749484705L88.0 15.426285719342061L56.0 15.426285719342061L-16.0 15.426285719342061L-32.0 15.426285719342061L-48.0 15.426285719342061L-64.0 15.426285719342061L-64.0 46.98800339185722L-64.0 121.65708834516559L-80.0 121.65708834516559L-80.0 45.94202604906094L-80.0 15.426410240454299L-96.0 15.426410240454299L-96.0 15.426285719342061L-96.0 9.031391749484705L-96.0 0.9516982376526073L88.0 0.9516982376526073L88.0 9.031391749484705z"/>
</g>
</g>
<g transform="matrix(1.0 0.0 0.0 1.0 400.0 350.0)">
<g >
<path stroke="#000000" fill="none" stroke-opacity="0.1" stroke-width="0.4" d="M -23.5965 -11.997276725726298L399.5965 -11.997276725726298"/>
<path stroke="#000000" fill="none" stroke-opacity="0.1" stroke-width="0.4" d="M -23.5965 -5.522789244036845L399.5965 -5.522789244036845"/>
<path stroke="#000000" fill="none" stroke-opacity="0.1" stroke-width="0.4" d="M -23.5965 0.9516982376526073L399.5965 0.9516982376526073"/>
<path stroke="#000000" fill="none" stroke-opacity="0.1" stroke-width="0.4" d="M -23.5965 7.42618571934206L399.5965 7.42618571934206"/>
<path stroke="#000000" fill="none" stroke-opacity="0.1" stroke-width="0.4" d="M -23.5965 13.900673201031513L399.5965 13.900673201031513"/>
<path stroke="#000000" fill="none" stroke-opacity="0.1" stroke-width="0.4" d="M -23.5965 20.375160682720967L399.5965 20.375160682720967"/>
<path stroke="#000000" fill="none" stroke-opacity="0.1" stroke-width="0.4" d="M -23.5965 26.849648164410418L399.5965 26.849648164410418"/>
<path stroke="#000000" fill="none" stroke-opacity="0.1" stroke-width="0.4" d="M -23.5965 33.32413564609987L399.5965 33.32413564609987"/>
<path stroke="#000000" fill="none" stroke-opacity="0.1" stroke-width="0.4" d="M -23.5965 39.79862312778932L399.5965 39.79862312778932"/>
<path stroke="#000000" fill="none" stroke-opacity="0.1" stroke-width="0.4" d="M -23.5965 46.27311060947877L399.5965 46.27311060947877"/>
<path stroke="#000000" fill="none" stroke-opacity="0.1" stroke-width="0.4" d="M -23.5965 52.74759809116822L399.5965 52.74759809116822"/>
<path stroke="#000000" fill="none" stroke-opacity="0.1" stroke-width="0.4" d="M -23.5965 59.22208557285767L399.5965 59.22208557285767"/>
<path stroke="#000000" fill="none" stroke-opacity="0.1" stroke-width="0.4" d="M -23.5965 65.69657305454713L399.5965 65.69657305454713"/>
<path stroke="#000000" fill="none" stroke-opacity="0.1" stroke-width="0.4" d="M -23.5965 72.17106053623658L399.5965 72.17106053623658"/>
<path stroke="#000000" fill="none" stroke-opacity="0.1" stroke-width="0.4" d="M -23.5965 78.64554801792603L399.5965 78.64554801792603"/>
<path stroke="#000000" fill="none" stroke-opacity="0.1" stroke-width="0.4" d="M -23.5965 85.12003549961548L399.5965 85.12003549961548"/>
<path stroke="#000000" fill="none" stroke-opacity="0.1" stroke-width="0.4" d="M -23.5965 91.59452298130493L399.5965 91.59452298130493"/>
<path stroke="#000000" fill="none" stroke-opacity="0.1" stroke-width="0.4" d="M -23.5965 98.06901046299438L399.5965 98.06901046299438"/>
<path stroke="#000000" fill="none" stroke-opacity="0.1" stroke-width="0.4" d="M -23.5965 104.54349794468384L399.5965 104.54349794468384"/>
<path stroke="#000000" fill="none" stroke-opacity="0.1" stroke-width="0.4" d="M -23.5965 111.01798542637329L399.5965 111.01798542637329"/>
<path stroke="#000000" fill="none" stroke-opacity="0.1" stroke-width="0.4" d="M -23.5965 117.49247290806274L399.5965 117.49247290806274"/>
<path stroke="#000000" fill="none" stroke-opacity="0.1" stroke-width="0.4" d="M -23.5965 123.96696038975219L399.5965 123.96696038975219"/>
<path stroke="#000000" fill="none" stroke-opacity="0.1" stroke-width="0.4" d="M -23.5965 130.44144787144165L399.5965 130.44144787144165"/>
</g>
</g>
<g transform="matrix(1.0 0.0 0.0 1.0 497.4035 350.0)">
<g >
<path stroke="#000000" fill="none" stroke-width="0.8" d="M -88.0 8.951698237652607L-88.0 8.951822758764845"/>
<path stroke="#000000" fill="none" stroke-width="0.8" d="M -88.0 8.951698237652607L-88.0 8.951822758764845"/>
<path stroke="#000000" fill="none" stroke-width="0.8" d="M -104.0 8.951822758764845L-104.0 45.310742321037026"/>
<path stroke="#000000" fill="none" stroke-width="0.8" d="M -104.4 8.951822758764845L-88.0 8.951822758764845"/>
<path stroke="#000000" fill="none" stroke-width="0.8" d="M -88.0 8.951822758764845L-88.0 119.44189606947876"/>
<path stroke="#000000" fill="none" stroke-width="0.8" d="M -88.0 8.951822758764845L-88.0 119.44189606947876"/>
<path stroke="#000000" fill="none" stroke-width="0.8" d="M -72.0 8.951698237652607L-72.0 8.952071800989321"/>
<path stroke="#000000" fill="none" stroke-width="0.8" d="M -71.6 8.951698237652607L-88.0 8.951698237652607"/>
<path stroke="#000000" fill="none" stroke-width="0.8" d="M -72.0 8.952071800989321L-72.0 11.587063057050287"/>
<path stroke="#000000" fill="none" stroke-width="0.8" d="M -72.0 8.952071800989321L-72.0 11.587063057050287"/>
<path stroke="#000000" fill="none" stroke-width="0.8" d="M -72.0 11.587063057050287L-72.0 48.370226048716155"/>
<path stroke="#000000" fill="none" stroke-width="0.8" d="M -72.0 11.587063057050287L-72.0 48.370226048716155"/>
<path stroke="#000000" fill="none" stroke-width="0.8" d="M -56.0 11.587063057050287L-56.0 48.264383103314145"/>
<path stroke="#000000" fill="none" stroke-width="0.8" d="M -55.6 11.587063057050287L-72.0 11.587063057050287"/>
<path stroke="#000000" fill="none" stroke-width="0.8" d="M -40.0 8.952071800989321L-40.0 8.952196322101559"/>
<path stroke="#000000" fill="none" stroke-width="0.8" d="M -39.6 8.952071800989321L-72.0 8.952071800989321"/>
<path stroke="#000000" fill="none" stroke-width="0.8" d="M -40.0 8.952196322101559L-40.0 45.50001441163826"/>
<path stroke="#000000" fill="none" stroke-width="0.8" d="M -40.0 8.952196322101559L-40.0 45.50001441163826"/>
<path stroke="#000000" fill="none" stroke-width="0.8" d="M 24.0 8.952196322101559L24.0 9.022924313852545"/>
<path stroke="#000000" fill="none" stroke-width="0.8" d="M 24.4 8.952196322101559L-40.0 8.952196322101559"/>
<path stroke="#000000" fill="none" stroke-width="0.8" d="M 24.0 9.022924313852545L24.0 18.718013591563942"/>
<path stroke="#000000" fill="none" stroke-width="0.8" d="M 24.0 9.022924313852545L24.0 18.718013591563942"/>
<path stroke="#000000" fill="none" stroke-width="0.8" d="M -8.0 18.718013591563942L-8.0 49.646567449152094"/>
<path stroke="#000000" fill="none" stroke-width="0.8" d="M -8.4 18.718013591563942L24.0 18.718013591563942"/>
<path stroke="#000000" fill="none" stroke-width="0.8" d="M -8.0 49.646567449152094L-8.0 50.01265951913079"/>
<path stroke="#000000" fill="none" stroke-width="0.8" d="M -8.0 49.646567449152094L-8.0 50.01265951913079"/>
<path stroke="#000000" fill="none" stroke-width="0.8" d="M -24.0 50.01265951913079L-24.0 74.14734149303261"/>
<path stroke="#000000" fill="none" stroke-width="0.8" d="M -24.4 50.01265951913079L-8.0 50.01265951913079"/>
<path stroke="#000000" fill="none" stroke-width="0.8" d="M -8.0 50.01265951913079L-8.0 80.57387609561788"/>
<path stroke="#000000" fill="none" stroke-width="0.8" d="M -8.0 50.01265951913079L-8.0 80.57387609561788"/>
<path stroke="#000000" fill="none" stroke-width="0.8" d="M 8.0 49.646567449152094L8.0 74.67904664228739"/>
<path stroke="#000000" fill="none" stroke-width="0.8" d="M 8.4 49.646567449152094L-8.0 49.646567449152094"/>
<path stroke="#000000" fill="none" stroke-width="0.8" d="M 24.0 18.718013591563942L24.0 35.458631920793955"/>
<path stroke="#000000" fill="none" stroke-width="0.8" d="M 24.0 18.718013591563942L24.0 35.458631920793955"/>
<path stroke="#000000" fill="none" stroke-width="0.8" d="M 24.0 35.458631920793955L24.0 68.73689916630661"/>
<path stroke="#000000" fill="none" stroke-width="0.8" d="M 24.0 35.458631920793955L24.0 68.73689916630661"/>
<path stroke="#000000" fill="none" stroke-width="0.8" d="M 24.0 68.73689916630661L24.0 124.5211122376526"/>
<path stroke="#000000" fill="none" stroke-width="0.8" d="M 24.0 68.73689916630661L24.0 124.5211122376526"/>
<path stroke="#000000" fill="none" stroke-width="0.8" d="M 40.0 68.73689916630661L40.0 123.93088216564614"/>
<path stroke="#000000" fill="none" stroke-width="0.8" d="M 40.4 68.73689916630661L24.0 68.73689916630661"/>
<path stroke="#000000" fill="none" stroke-width="0.8" d="M 52.0 35.458631920793955L52.0 48.33536013728961"/>
<path stroke="#000000" fill="none" stroke-width="0.8" d="M 52.4 35.458631920793955L24.0 35.458631920793955"/>
<path stroke="#000000" fill="none" stroke-width="0.8" d="M 64.0 9.022924313852545L64.0 105.20539730734792"/>
<path stroke="#000000" fill="none" stroke-width="0.8" d="M 64.4 9.022924313852545L24.0 9.022924313852545"/>
<path stroke="#000000" fill="none" stroke-width="0.8" d="M 64.0 105.20539730734792L64.0 118.96871584297567"/>
<path stroke="#000000" fill="none" stroke-width="0.8" d="M 64.0 105.20539730734792L64.0 118.96871584297567"/>
<path stroke="#000000" fill="none" stroke-width="0.8" d="M 76.0 105.20539730734792L76.0 118.14189565771765"/>
<path stroke="#000000" fill="none" stroke-width="0.8" d="M 76.4 105.20539730734792L64.0 105.20539730734792"/>
</g>
</g>
<g transform="matrix(1.0 0.0 0.0 1.0 497.4035 350.0)">
<g >
<path stroke="#000000" fill="none" stroke-width="4.0" d="M -88.0 8.951698237652607L-88.0 -5.443095732204748"/>
<path stroke="#000000" fill="none" stroke-width="4.0" d="M -88.0 8.951822758764845L-88.0 114.77209046003748L-88.0 8.951822758764845L-88.0 114.77209046003748L-88.0 8.951698237652607L-88.0 8.951822758764845L-88.0 8.951698237652607L-88.0 -5.522789244036845"/>
<path stroke="#000000" fill="#c64340" stroke-width="0.8" d="M -92.0 -9.522789244036845L-84.0 -9.522789244036845L-84.0 -1.5227892440368453L-92.0 -1.5227892440368453L-92.0 -9.522789244036845z"/>
<path stroke="#c64340" fill="#c64340" stroke-width="2.4" d="M -88.0 8.951822758764845L-88.0 113.97209046003748L-88.0 8.951822758764845L-88.0 113.97209046003748L-88.0 8.951698237652607L-88.0 8.951822758764845L-88.0 8.951698237652607L-88.0 -5.522789244036845"/>
<path stroke="#000000" fill="none" stroke-width="4.0" d="M -72.0 11.587063057050287L-72.0 41.158051931719626L-72.0 11.587063057050287L-72.0 41.158051931719626L-72.0 8.952071800989321L-72.0 11.587063057050287L-72.0 8.951698237652607L-72.0 8.952071800989321"/>
<path stroke="#000000" fill="#fb827a" stroke-width="0.8" d="M -76.0 4.951698237652607L-68.0 4.951698237652607L-68.0 12.951698237652607L-76.0 12.951698237652607L-76.0 4.951698237652607z"/>
<path stroke="#fb827a" fill="#fb827a" stroke-width="2.4" d="M -72.0 11.587063057050287L-72.0 40.35805193171963L-72.0 11.587063057050287L-72.0 40.35805193171963L-72.0 8.952071800989321L-72.0 11.587063057050287L-72.0 8.951698237652607L-72.0 8.952071800989321"/>
<path stroke="#000000" fill="none" stroke-width="4.0" d="M -40.0 8.952196322101559L-40.0 40.148401465874656L-40.0 8.952196322101559L-40.0 40.148401465874656L-40.0 8.952071800989321L-40.0 8.952196322101559"/>
<path stroke="#000000" fill="#fb827a" stroke-width="0.8" d="M -44.0 4.952071800989321L-36.0 4.952071800989321L-36.0 12.952071800989321L-44.0 12.952071800989321L-44.0 4.952071800989321z"/>
<path stroke="#fb827a" fill="#fb827a" stroke-width="2.4" d="M -40.0 8.952196322101559L-40.0 39.34840146587466L-40.0 8.952196322101559L-40.0 39.34840146587466L-40.0 8.952071800989321L-40.0 8.952196322101559"/>
<path stroke="#000000" fill="none" stroke-width="4.0" d="M 24.0 68.73689916630661L24.0 118.14096600074669L24.0 68.73689916630661L24.0 118.14096600074669L24.0 35.458631920793955L24.0 68.73689916630661L24.0 18.718013591563942L24.0 35.458631920793955L24.0 9.022924313852545L24.0 18.718013591563942L24.0 8.952196322101559L24.0 9.022924313852545"/>
<path stroke="#000000" fill="#fb827a" stroke-width="0.8" d="M 20.0 4.952196322101559L28.0 4.952196322101559L28.0 12.952196322101559L20.0 12.952196322101559L20.0 4.952196322101559z"/>
<path stroke="#fb827a" fill="#fb827a" stroke-width="2.4" d="M 24.0 68.73689916630661L24.0 117.34096600074668L24.0 68.73689916630661L24.0 117.34096600074668L24.0 35.458631920793955L24.0 68.73689916630661L24.0 18.718013591563942L24.0 35.458631920793955L24.0 9.022924313852545L24.0 18.718013591563942L24.0 8.952196322101559L24.0 9.022924313852545"/>
<path stroke="#000000" fill="none" stroke-width="4.0" d="M -8.0 50.01265951913079L-8.0 75.92732264634294L-8.0 50.01265951913079L-8.0 75.92732264634294L-8.0 49.646567449152094L-8.0 50.01265951913079L-8.0 18.718013591563942L-8.0 49.646567449152094"/>
<path stroke="#000000" fill="#ffd6d1" stroke-width="0.8" d="M -12.0 14.718013591563945L-4.0 14.718013591563945L-4.0 22.718013591563945L-12.0 22.718013591563945L-12.0 14.718013591563945z"/>
<path stroke="#ffd6d1" fill="#ffd6d1" stroke-width="2.4" d="M -8.0 50.01265951913079L-8.0 75.12732264634295L-8.0 50.01265951913079L-8.0 75.12732264634295L-8.0 49.646567449152094L-8.0 50.01265951913079L-8.0 18.718013591563942L-8.0 49.646567449152094"/>
<path stroke="#000000" fill="none" stroke-width="4.0" d="M -104.0 8.951822758764845L-104.0 39.99092417689219L-104.0 8.951822758764845L-104.0 39.99092417689219"/>
<path stroke="#000000" fill="#fb827a" stroke-width="0.8" d="M -108.0 4.951822758764845L-100.0 4.951822758764845L-100.0 12.951822758764845L-108.0 12.951822758764845L-108.0 4.951822758764845z"/>
<path stroke="#fb827a" fill="#fb827a" stroke-width="2.4" d="M -104.0 8.951822758764845L-104.0 39.190924176892196L-104.0 8.951822758764845L-104.0 39.190924176892196"/>
<path stroke="#000000" fill="none" stroke-width="4.0" d="M -56.0 11.587063057050287L-56.0 41.075263885316076L-56.0 11.587063057050287L-56.0 41.075263885316076"/>
<path stroke="#000000" fill="#ffd6d1" stroke-width="0.8" d="M -60.0 7.587063057050285L-52.0 7.587063057050285L-52.0 15.587063057050285L-60.0 15.587063057050285L-60.0 7.587063057050285z"/>
<path stroke="#ffd6d1" fill="#ffd6d1" stroke-width="2.4" d="M -56.0 11.587063057050287L-56.0 40.27526388531608L-56.0 11.587063057050287L-56.0 40.27526388531608"/>
<path stroke="#000000" fill="none" stroke-width="4.0" d="M -24.0 50.01265951913079L-24.0 65.5085302260116L-24.0 50.01265951913079L-24.0 65.5085302260116"/>
<path stroke="#000000" fill="#fb827a" stroke-width="0.8" d="M -28.0 46.01265951913079L-20.0 46.01265951913079L-20.0 54.01265951913079L-28.0 54.01265951913079L-28.0 46.01265951913079z"/>
<path stroke="#fb827a" fill="#fb827a" stroke-width="2.4" d="M -24.0 50.01265951913079L-24.0 64.7085302260116L-24.0 50.01265951913079L-24.0 64.7085302260116"/>
<path stroke="#000000" fill="none" stroke-width="4.0" d="M 8.0 49.646567449152094L8.0 65.93696298945858L8.0 49.646567449152094L8.0 65.93696298945858"/>
<path stroke="#000000" fill="#c64340" stroke-width="0.8" d="M 4.0 45.646567449152094L12.0 45.646567449152094L12.0 53.646567449152094L4.0 53.646567449152094L4.0 45.646567449152094z"/>
<path stroke="#c64340" fill="#c64340" stroke-width="2.4" d="M 8.0 49.646567449152094L8.0 65.13696298945858L8.0 49.646567449152094L8.0 65.13696298945858"/>
<path stroke="#000000" fill="none" stroke-width="4.0" d="M 64.0 105.20539730734792L64.0 116.83890051113411L64.0 105.20539730734792L64.0 116.83890051113411L64.0 9.022924313852545L64.0 105.20539730734792"/>
<path stroke="#000000" fill="#fb827a" stroke-width="0.8" d="M 60.0 5.0229243138525455L68.0 5.0229243138525455L68.0 13.022924313852545L60.0 13.022924313852545L60.0 5.0229243138525455z"/>
<path stroke="#fb827a" fill="#fb827a" stroke-width="2.4" d="M 64.0 105.20539730734792L64.0 116.03890051113412L64.0 105.20539730734792L64.0 116.03890051113412L64.0 9.022924313852545L64.0 105.20539730734792"/>
<path stroke="#000000" fill="none" stroke-width="4.0" d="M 40.0 68.73689916630661L40.0 117.08023105682679L40.0 68.73689916630661L40.0 117.08023105682679"/>
<path stroke="#000000" fill="#ffd6d1" stroke-width="0.8" d="M 36.0 64.73689916630661L44.0 64.73689916630661L44.0 72.73689916630661L36.0 72.73689916630661L36.0 64.73689916630661z"/>
<path stroke="#ffd6d1" fill="#ffd6d1" stroke-width="2.4" d="M 40.0 68.73689916630661L40.0 116.2802310568268L40.0 68.73689916630661L40.0 116.2802310568268"/>
</g>
</g>
<g transform="matrix(1.0 0.0 0.0 1.0 702.5965 350.0)">
<g >
<path stroke="#000000" fill="none" stroke-width="0.8" d="M -72.0 9.031391749484705L-72.0 9.031516270596942"/>
<path stroke="#000000" fill="none" stroke-width="0.8" d="M -72.0 9.031391749484705L-72.0 9.031516270596942"/>
<path stroke="#000000" fill="none" stroke-width="0.8" d="M -88.0 9.031516270596942L-88.0 45.95202604906094"/>
<path stroke="#000000" fill="none" stroke-width="0.8" d="M -88.4 9.031516270596942L-72.0 9.031516270596942"/>
<path stroke="#000000" fill="none" stroke-width="0.8" d="M -72.0 9.031516270596942L-72.0 121.6670883451656"/>
<path stroke="#000000" fill="none" stroke-width="0.8" d="M -72.0 9.031516270596942L-72.0 121.6670883451656"/>
<path stroke="#000000" fill="none" stroke-width="0.8" d="M -56.0 9.031391749484705L-56.0 9.031889833933656"/>
<path stroke="#000000" fill="none" stroke-width="0.8" d="M -55.6 9.031391749484705L-72.0 9.031391749484705"/>
<path stroke="#000000" fill="none" stroke-width="0.8" d="M -56.0 9.031889833933656L-56.0 11.672110976708604"/>
<path stroke="#000000" fill="none" stroke-width="0.8" d="M -56.0 9.031889833933656L-56.0 11.672110976708604"/>
<path stroke="#000000" fill="none" stroke-width="0.8" d="M -56.0 11.672110976708604L-56.0 46.99800339185722"/>
<path stroke="#000000" fill="none" stroke-width="0.8" d="M -56.0 11.672110976708604L-56.0 46.99800339185722"/>
<path stroke="#000000" fill="none" stroke-width="0.8" d="M -40.0 11.672110976708604L-40.0 46.90336734655661"/>
<path stroke="#000000" fill="none" stroke-width="0.8" d="M -39.6 11.672110976708604L-56.0 11.672110976708604"/>
<path stroke="#000000" fill="none" stroke-width="0.8" d="M -24.0 9.031889833933656L-24.0 9.032014355045893"/>
<path stroke="#000000" fill="none" stroke-width="0.8" d="M -23.6 9.031889833933656L-56.0 9.031889833933656"/>
<path stroke="#000000" fill="none" stroke-width="0.8" d="M -24.0 9.032014355045893L-24.0 46.249631507308926"/>
<path stroke="#000000" fill="none" stroke-width="0.8" d="M -24.0 9.032014355045893L-24.0 46.249631507308926"/>
<path stroke="#000000" fill="none" stroke-width="0.8" d="M 48.0 9.032014355045893L48.0 9.103240431245831"/>
<path stroke="#000000" fill="none" stroke-width="0.8" d="M 48.4 9.032014355045893L-24.0 9.032014355045893"/>
<path stroke="#000000" fill="none" stroke-width="0.8" d="M 48.0 9.103240431245831L48.0 18.95709412706023"/>
<path stroke="#000000" fill="none" stroke-width="0.8" d="M 48.0 9.103240431245831L48.0 18.95709412706023"/>
<path stroke="#000000" fill="none" stroke-width="0.8" d="M 8.0 18.95709412706023L8.0 26.247805248574792"/>
<path stroke="#000000" fill="none" stroke-width="0.8" d="M 7.6 18.95709412706023L48.0 18.95709412706023"/>
<path stroke="#000000" fill="none" stroke-width="0.8" d="M 8.0 26.247805248574792L8.0 48.021566934450725"/>
<path stroke="#000000" fill="none" stroke-width="0.8" d="M 8.0 26.247805248574792L8.0 48.021566934450725"/>
<path stroke="#000000" fill="none" stroke-width="0.8" d="M 8.0 48.021566934450725L8.0 48.19963212495057"/>
<path stroke="#000000" fill="none" stroke-width="0.8" d="M 8.0 48.021566934450725L8.0 48.19963212495057"/>
<path stroke="#000000" fill="none" stroke-width="0.8" d="M -8.0 48.19963212495057L-8.0 71.32942872309454"/>
<path stroke="#000000" fill="none" stroke-width="0.8" d="M -8.4 48.19963212495057L8.0 48.19963212495057"/>
<path stroke="#000000" fill="none" stroke-width="0.8" d="M 8.0 48.19963212495057L8.0 81.81784200687201"/>
<path stroke="#000000" fill="none" stroke-width="0.8" d="M 8.0 48.19963212495057L8.0 81.81784200687201"/>
<path stroke="#000000" fill="none" stroke-width="0.8" d="M 24.0 48.021566934450725L24.0 71.69801121531799"/>
<path stroke="#000000" fill="none" stroke-width="0.8" d="M 24.4 48.021566934450725L8.0 48.021566934450725"/>
<path stroke="#000000" fill="none" stroke-width="0.8" d="M 36.0 26.247805248574792L36.0 38.76964829519314"/>
<path stroke="#000000" fill="none" stroke-width="0.8" d="M 36.4 26.247805248574792L8.0 26.247805248574792"/>
<path stroke="#000000" fill="none" stroke-width="0.8" d="M 48.0 18.95709412706023L48.0 68.33220555153424"/>
<path stroke="#000000" fill="none" stroke-width="0.8" d="M 48.0 18.95709412706023L48.0 68.33220555153424"/>
<path stroke="#000000" fill="none" stroke-width="0.8" d="M 48.0 68.33220555153424L48.0 124.5211122376526"/>
<path stroke="#000000" fill="none" stroke-width="0.8" d="M 48.0 68.33220555153424L48.0 124.5211122376526"/>
<path stroke="#000000" fill="none" stroke-width="0.8" d="M 64.0 68.33220555153424L64.0 123.33193561578302"/>
<path stroke="#000000" fill="none" stroke-width="0.8" d="M 64.4 68.33220555153424L48.0 68.33220555153424"/>
<path stroke="#000000" fill="none" stroke-width="0.8" d="M 80.0 9.103240431245831L80.0 122.61842964266127"/>
<path stroke="#000000" fill="none" stroke-width="0.8" d="M 80.4 9.103240431245831L48.0 9.103240431245831"/>
</g>
</g>
<g transform="matrix(1.0 0.0 0.0 1.0 702.5965 350.0)">
<g >
<path stroke="#000000" fill="none" stroke-width="4.0" d="M -72.0 9.031391749484705L-72.0 -5.522789244036845"/>
<path stroke="#000000" fill="none" stroke-width="4.0" d="M -72.0 9.031516270596942L-72.0 112.98785703195932L-72.0 9.031516270596942L-72.0 112.98785703195932L-72.0 9.031391749484705L-72.0 9.031516270596942L-72.0 9.031391749484705L-72.0 -5.522789244036845"/>
<path stroke="#000000" fill="#3077cb" stroke-width="0.8" d="M -76.0 -9.522789244036845L-68.0 -9.522789244036845L-68.0 -1.5227892440368453L-76.0 -1.5227892440368453L-76.0 -9.522789244036845z"/>
<path stroke="#3077cb" fill="#3077cb" stroke-width="2.4" d="M -72.0 9.031516270596942L-72.0 112.18785703195933L-72.0 9.031516270596942L-72.0 112.18785703195933L-72.0 9.031391749484705L-72.0 9.031516270596942L-72.0 9.031391749484705L-72.0 -5.522789244036845"/>
<path stroke="#000000" fill="none" stroke-width="4.0" d="M -56.0 11.672110976708604L-56.0 42.376703070720545L-56.0 11.672110976708604L-56.0 42.376703070720545L-56.0 9.031889833933656L-56.0 11.672110976708604L-56.0 9.031391749484705L-56.0 9.031889833933656"/>
<path stroke="#000000" fill="#75aef7" stroke-width="0.8" d="M -60.0 5.031391749484705L-52.0 5.031391749484705L-52.0 13.031391749484705L-60.0 13.031391749484705L-60.0 5.031391749484705z"/>
<path stroke="#75aef7" fill="#75aef7" stroke-width="2.4" d="M -56.0 11.672110976708604L-56.0 41.57670307072055L-56.0 11.672110976708604L-56.0 41.57670307072055L-56.0 9.031889833933656L-56.0 11.672110976708604L-56.0 9.031391749484705L-56.0 9.031889833933656"/>
<path stroke="#000000" fill="none" stroke-width="4.0" d="M -24.0 9.032014355045893L-24.0 39.49556069917633L-24.0 9.032014355045893L-24.0 39.49556069917633L-24.0 9.031889833933656L-24.0 9.032014355045893"/>
<path stroke="#000000" fill="#75aef7" stroke-width="0.8" d="M -28.0 5.031889833933656L-20.0 5.031889833933656L-20.0 13.031889833933656L-28.0 13.031889833933656L-28.0 5.031889833933656z"/>
<path stroke="#75aef7" fill="#75aef7" stroke-width="2.4" d="M -24.0 9.032014355045893L-24.0 38.695560699176326L-24.0 9.032014355045893L-24.0 38.695560699176326L-24.0 9.031889833933656L-24.0 9.032014355045893"/>
<path stroke="#000000" fill="none" stroke-width="4.0" d="M 48.0 68.33220555153424L48.0 118.3670396279845L48.0 68.33220555153424L48.0 118.3670396279845L48.0 18.95709412706023L48.0 68.33220555153424L48.0 9.103240431245831L48.0 18.95709412706023L48.0 9.032014355045893L48.0 9.103240431245831"/>
<path stroke="#000000" fill="#75aef7" stroke-width="0.8" d="M 44.0 5.032014355045893L52.0 5.032014355045893L52.0 13.032014355045893L44.0 13.032014355045893L44.0 5.032014355045893z"/>
<path stroke="#75aef7" fill="#75aef7" stroke-width="2.4" d="M 48.0 68.33220555153424L48.0 117.56703962798449L48.0 68.33220555153424L48.0 117.56703962798449L48.0 18.95709412706023L48.0 68.33220555153424L48.0 9.103240431245831L48.0 18.95709412706023L48.0 9.032014355045893L48.0 9.103240431245831"/>
<path stroke="#000000" fill="none" stroke-width="4.0" d="M 8.0 48.19963212495057L8.0 74.62935649037583L8.0 48.19963212495057L8.0 74.62935649037583L8.0 48.021566934450725L8.0 48.19963212495057L8.0 26.247805248574792L8.0 48.021566934450725L8.0 18.95709412706023L8.0 26.247805248574792"/>
<path stroke="#000000" fill="#d0e4fe" stroke-width="0.8" d="M 4.0 14.95709412706023L12.0 14.95709412706023L12.0 22.95709412706023L4.0 22.95709412706023L4.0 14.95709412706023z"/>
<path stroke="#d0e4fe" fill="#d0e4fe" stroke-width="2.4" d="M 8.0 48.19963212495057L8.0 73.82935649037583L8.0 48.19963212495057L8.0 73.82935649037583L8.0 48.021566934450725L8.0 48.19963212495057L8.0 26.247805248574792L8.0 48.021566934450725L8.0 18.95709412706023L8.0 26.247805248574792"/>
<path stroke="#000000" fill="none" stroke-width="4.0" d="M -88.0 9.031516270596942L-88.0 39.441034013721534L-88.0 9.031516270596942L-88.0 39.441034013721534"/>
<path stroke="#000000" fill="#75aef7" stroke-width="0.8" d="M -92.0 5.031516270596942L-84.0 5.031516270596942L-84.0 13.031516270596942L-92.0 13.031516270596942L-92.0 5.031516270596942z"/>
<path stroke="#75aef7" fill="#75aef7" stroke-width="2.4" d="M -88.0 9.031516270596942L-88.0 38.64103401372153L-88.0 9.031516270596942L-88.0 38.64103401372153"/>
<path stroke="#000000" fill="none" stroke-width="4.0" d="M -40.0 11.672110976708604L-40.0 42.296590378906664L-40.0 11.672110976708604L-40.0 42.296590378906664"/>
<path stroke="#000000" fill="#d0e4fe" stroke-width="0.8" d="M -44.0 7.672110976708604L-36.0 7.672110976708604L-36.0 15.672110976708604L-44.0 15.672110976708604L-44.0 7.672110976708604z"/>
<path stroke="#d0e4fe" fill="#d0e4fe" stroke-width="2.4" d="M -40.0 11.672110976708604L-40.0 41.49659037890667L-40.0 11.672110976708604L-40.0 41.49659037890667"/>
<path stroke="#000000" fill="none" stroke-width="4.0" d="M -8.0 48.19963212495057L-8.0 68.23629464221882L-8.0 48.19963212495057L-8.0 68.23629464221882"/>
<path stroke="#000000" fill="#75aef7" stroke-width="0.8" d="M -12.0 44.19963212495057L-4.0 44.19963212495057L-4.0 52.19963212495057L-12.0 52.19963212495057L-12.0 44.19963212495057z"/>
<path stroke="#75aef7" fill="#75aef7" stroke-width="2.4" d="M -8.0 48.19963212495057L-8.0 67.43629464221883L-8.0 48.19963212495057L-8.0 67.43629464221883"/>
<path stroke="#000000" fill="none" stroke-width="4.0" d="M 24.0 48.021566934450725L24.0 68.74728736884397L24.0 48.021566934450725L24.0 68.74728736884397"/>
<path stroke="#000000" fill="#3077cb" stroke-width="0.8" d="M 20.0 44.021566934450725L28.0 44.021566934450725L28.0 52.021566934450725L20.0 52.021566934450725L20.0 44.021566934450725z"/>
<path stroke="#3077cb" fill="#3077cb" stroke-width="2.4" d="M 24.0 48.021566934450725L24.0 67.94728736884397L24.0 48.021566934450725L24.0 67.94728736884397"/>
<path stroke="#000000" fill="none" stroke-width="4.0" d="M 80.0 9.103240431245831L80.0 112.17930199796668L80.0 9.103240431245831L80.0 112.17930199796668"/>
<path stroke="#000000" fill="#75aef7" stroke-width="0.8" d="M 76.0 5.1032404312458315L84.0 5.1032404312458315L84.0 13.103240431245831L76.0 13.103240431245831L76.0 5.1032404312458315z"/>
<path stroke="#75aef7" fill="#75aef7" stroke-width="2.4" d="M 80.0 9.103240431245831L80.0 111.37930199796668L80.0 9.103240431245831L80.0 111.37930199796668"/>
<path stroke="#000000" fill="none" stroke-width="4.0" d="M 64.0 68.33220555153424L64.0 117.5973142220109L64.0 68.33220555153424L64.0 117.5973142220109"/>
<path stroke="#000000" fill="#d0e4fe" stroke-width="0.8" d="M 60.0 64.33220555153424L68.0 64.33220555153424L68.0 72.33220555153424L60.0 72.33220555153424L60.0 64.33220555153424z"/>
<path stroke="#d0e4fe" fill="#d0e4fe" stroke-width="2.4" d="M 64.0 68.33220555153424L64.0 116.7973142220109L64.0 68.33220555153424L64.0 116.7973142220109"/>
</g>
</g>
</g>
</svg>