<?xml version="1.0" encoding="utf-8"?>
<svg version="1.2" baseProfile="tiny" id="openrndr-svg" xmlns="http://www.w3.org/2000/svg" xmlns:xlink="http://www.w3.org/1999/xlink" height="576.0" x="0.0" y="0.0" width="768.0" ><g >
<g transform="matrix(1.0 0.0 0.0 1.0 497.0 350.0)">
<g >
<path fill="#d0e4fe" d="M 16.0 81.08287215845397L16.0 120.53192276265034L0.0 120.53192276265035L0.0 81.08287215845397L16.0 81.08287215845397z"/>
<path fill="#d0e4fe" d="M -24.0 72.62690627418392L-24.0 78.36053831363479L-40.0 78.36053831363479L-40.0 72.11974090011432L-40.0 72.10974090011432L-56.0 72.10974090011432L-56.0 60.836008321635184L-56.0 60.72569275011216L-40.0 60.72569275011216L-24.0 60.72569275011216L-24.0 60.836008321635184L-24.0 72.11974090011432L-24.0 72.62690627418392z"/>
<path fill="#75aef7" d="M -24.0 72.62690627418392L-24.0 60.72579275011216L-40.0 60.72579275011216L-56.0 60.72579275011216L-56.0 48.64503532583535L-56.0 48.2889542486071L-56.0 44.24579102694014L-56.0 42.995619656423685L-56.0 36.76167848467599L-40.0 36.76167848467599L-24.0 36.76167848467599L-16.0 36.76167848467599L-16.0 42.995619656423685L-16.0 48.2889542486071L-16.0 48.64503532583535L-16.0 60.72579275011216L-16.0 72.62690627418392L-24.0 72.62690627418392z"/>
<path fill="#3077cb" d="M -16.0 121.10601266267142L-16.0 81.08297215845397L-16.0 72.62690627418392L-16.0 66.85725014992126L-16.0 47.013602635269166L-16.0 36.76177848467597L-40.0 36.76177848467598L-56.0 36.761778484675986L-56.0 27.789283150612626L-16.0 27.789283150612626L0.0 27.789283150612626L16.0 27.789283150612626L24.0 27.789283150612626L24.0 36.761778484675986L24.0 47.00360263526917L16.0 47.00360263526917L16.0 47.013602635269166L16.0 81.08297215845397L0.0 81.08297215845397L0.0 120.53192276265035L0.0 121.10601266267142L-16.0 121.10601266267142z"/>
<path fill="#d0e4fe" d="M -64.0 44.25579102694013L-64.0 46.93456650805145L-72.0 46.93456650805145L-72.0 46.94456650805142L-72.0 47.037515118814696L-80.0 47.03751511881472L-80.0 47.047515118814715L-80.0 116.16569050616106L-96.0 116.16569050616106L-96.0 47.047515118814715L-96.0 46.944566508051444L-96.0 44.25579102694014L-96.0 44.06169468769288L-96.0 27.789383150612622L-96.0 27.782016189852868L-80.0 27.782016189852868L-72.0 27.782016189852868L-64.0 27.782016189852868L-56.0 27.782016189852868L-40.0 27.782016189852868L0.0 27.782016189852868L0.0 27.78938315061263L-40.0 27.78938315061263L-56.0 27.78938315061263L-56.0 44.24579102694014L-64.0 44.24579102694014L-64.0 44.25579102694013z"/>
<path fill="#75aef7" d="M 24.0 115.7054496580429L24.0 114.91123933396277L24.0 102.32849677843782L24.0 47.00360263526917L24.0 27.78211618985287L0.0 27.78211618985287L-16.0 27.78211618985287L-56.0 27.78211618985287L-64.0 27.78211618985287L-72.0 27.78211618985287L-80.0 27.78211618985287L-96.0 27.78211618985287L-96.0 24.864452560821775L-80.0 24.864452560821775L-72.0 24.864452560821775L-64.0 24.864452560821775L-56.0 24.864452560821775L-16.0 24.864452560821775L24.0 24.864452560821775L32.0 24.864452560821775L48.0 24.864452560821775L48.0 27.78211618985287L48.0 102.32849677843781L48.0 114.90123933396276L32.0 114.90123933396276L32.0 114.91123933396277L32.0 115.7054496580429L24.0 115.7054496580429z"/>
<path fill="#3077cb" stroke-width="176.0" d="M 48.0 8.706909034306785L48.0 8.707272382344774L48.0 8.776187393549833L48.0 24.860797964429224L48.0 24.864431444809114L-7.105427357601002E-15 24.864552560821778L-40.0 24.864552560821778L-56.0 24.864552560821778L-64.0 24.864552560821778L-72.0 24.864552560821778L-80.0 24.864552560821778L-96.0 24.864552560821778L-96.0 44.06169468769288L-112.0 44.06169468769288L-112.0 24.864431444809114L-112.0 24.860797964429224L-112.0 18.20615902345277L-112.0 11.270208326299562L-112.0 8.776187393549833L-112.0 8.706909034306785L-112.0 -2.465119337328579L48.0 -2.465119337328579L48.0 8.706909034306785z"/>
</g>
</g>
<g transform="matrix(1.0 0.0 0.0 1.0 643.0 350.0)">
<g >
<path fill="#ffd6d1" d="M -12.0 63.059952433959516L-12.0 120.44471923353323L-28.0 120.44471923353323L-28.0 44.23610174592712L-28.0 28.032847452077263L-12.0 28.032847452077263L-12.0 63.059952433959516z"/>
<path fill="#fb827a" d="M 68.0 111.8382153737238L68.0 86.18306745167907L84.0 86.18306745167907L84.0 111.8382153737238L68.0 111.8382153737238z"/>
<path fill="#ffd6d1" d="M 28.0 67.97085262759316L28.0 77.28139464081039L12.0 77.28139464081039L12.0 77.24869331739147L12.0 67.97085262759316L28.0 67.97085262759316z"/>
<path fill="#ffd6d1" d="M 68.0 111.8382153737238L68.0 114.26538026748374L52.0 114.26538026748374L52.0 86.18316745167907L52.0 61.75705485669616L52.0 53.81491306758013L52.0 37.53197632521058L68.0 37.53197632521058L84.0 37.53197632521058L84.0 86.18316745167907L68.0 86.18316745167907L68.0 111.8382153737238z"/>
<path fill="#fb827a" d="M 44.0 37.53207632521058L44.0 41.39987544835435L44.0 63.42330047194753L28.0 63.423300471947535L28.0 63.43330047194753L28.0 67.61487155036491L28.0 67.97095262759316L12.0 67.97095262759316L12.0 77.24869331739147L4.0 77.24869331739147L4.0 77.25869331739148L4.0 77.34800844777486L-4.0 77.34800844777486L-4.0 77.25869331739148L-4.0 67.97095262759316L-4.0 67.61487155036491L-4.0 63.43330047194753L-4.0 63.245570652320396L-4.0 63.19106844662218L-4.0 63.069952433959514L-4.0 63.059952433959516L-12.0 63.059952433959516L-12.0 28.102004695307645L-4.0 28.102004695307645L4.0 28.102004695307645L12.0 28.102004695307645L28.0 28.102004695307645L44.0 28.102004695307645L52.0 28.102004695307645L68.0 28.102004695307645L68.0 37.53207632521058L52.0 37.53207632521058L52.0 35.93965487853413L44.0 35.93965487853413L44.0 37.53207632521058z"/>
<path fill="#fb827a" d="M -28.0 28.0327263360646L-12.0 28.0327263360646L-12.0 28.032947452077252L-28.0 28.0327263360646zM -44.0 44.23610174592712L-44.0 44.18069909908928L-44.0 40.34222193882224L-52.0 40.34222193882224L-52.0 40.40762458566007L-60.0 40.40762458566008L-60.0 44.17069909908928L-68.0 44.17069909908928L-68.0 28.0327263360646L-60.0 28.0327263360646L-52.0 28.0327263360646L-44.0 28.0327263360646L-28.0 28.0327263360646L-28.0 28.03294745207726L-28.0 40.35222193882224L-28.0 40.41762458566008L-28.0 44.18069909908928L-28.0 44.23610174592712L-44.0 44.23610174592712z"/>
<path fill="#c64340" stroke-width="184.0" d="M 84.0 121.10601266267142L84.0 111.8382153737238L84.0 28.102104695307645L68.0 28.102104695307645L52.0 28.102104695307645L44.0 28.102104695307645L28.0 28.102104695307645L28.0 28.033189684102588L28.0 28.032826336064595L-12.0 28.032826336064595L-28.0 28.032826336064595L-44.0 28.032826336064595L-52.0 28.032826336064595L-60.0 28.032826336064595L-68.0 28.032826336064595L-68.0 5.534880662671421L-68.0 -2.465119337328579L100.0 -2.465119337328579L100.0 5.534880662671421L100.0 5.538514143051302L100.0 8.456198888095058L100.0 8.463465848854815L100.0 10.896323195209897L100.0 17.435861182918174L100.0 23.669702354665873L100.0 28.032826336064588L100.0 28.102104695307645L100.0 121.10601266267142L84.0 121.10601266267142z"/>
</g>
</g>
<g transform="matrix(1.0 0.0 0.0 1.0 400.0 350.0)">
<g >
<path stroke="#000000" fill="none" stroke-opacity="0.1" stroke-width="0.4" d="M -26.13 -31.453845289965294L354.13 -31.453845289965294"/>
<path stroke="#000000" fill="none" stroke-opacity="0.1" stroke-width="0.4" d="M -26.13 -21.79093663908639L354.13 -21.79093663908639"/>
<path stroke="#000000" fill="none" stroke-opacity="0.1" stroke-width="0.4" d="M -26.13 -12.128027988207483L354.13 -12.128027988207483"/>
<path stroke="#000000" fill="none" stroke-opacity="0.1" stroke-width="0.4" d="M -26.13 -2.465119337328577L354.13 -2.465119337328577"/>
<path stroke="#000000" fill="none" stroke-opacity="0.1" stroke-width="0.4" d="M -26.13 7.197789313550329L354.13 7.197789313550329"/>
<path stroke="#000000" fill="none" stroke-opacity="0.1" stroke-width="0.4" d="M -26.13 16.860697964429235L354.13 16.860697964429235"/>
<path stroke="#000000" fill="none" stroke-opacity="0.1" stroke-width="0.4" d="M -26.13 26.52360661530814L354.13 26.52360661530814"/>
<path stroke="#000000" fill="none" stroke-opacity="0.1" stroke-width="0.4" d="M -26.13 36.186515266187044L354.13 36.186515266187044"/>
<path stroke="#000000" fill="none" stroke-opacity="0.1" stroke-width="0.4" d="M -26.13 45.84942391706595L354.13 45.84942391706595"/>
<path stroke="#000000" fill="none" stroke-opacity="0.1" stroke-width="0.4" d="M -26.13 55.51233256794485L354.13 55.51233256794485"/>
<path stroke="#000000" fill="none" stroke-opacity="0.1" stroke-width="0.4" d="M -26.13 65.17524121882376L354.13 65.17524121882376"/>
<path stroke="#000000" fill="none" stroke-opacity="0.1" stroke-width="0.4" d="M -26.13 74.83814986970266L354.13 74.83814986970266"/>
<path stroke="#000000" fill="none" stroke-opacity="0.1" stroke-width="0.4" d="M -26.13 84.50105852058157L354.13 84.50105852058157"/>
<path stroke="#000000" fill="none" stroke-opacity="0.1" stroke-width="0.4" d="M -26.13 94.16396717146047L354.13 94.16396717146047"/>
<path stroke="#000000" fill="none" stroke-opacity="0.1" stroke-width="0.4" d="M -26.13 103.82687582233937L354.13 103.82687582233937"/>
<path stroke="#000000" fill="none" stroke-opacity="0.1" stroke-width="0.4" d="M -26.13 113.48978447321828L354.13 113.48978447321828"/>
<path stroke="#000000" fill="none" stroke-opacity="0.1" stroke-width="0.4" d="M -26.13 123.15269312409718L354.13 123.15269312409718"/>
<path stroke="#000000" fill="none" stroke-opacity="0.1" stroke-width="0.4" d="M -26.13 132.8156017749761L354.13 132.8156017749761"/>
</g>
</g>
<g transform="matrix(1.0 0.0 0.0 1.0 497.0 350.0)">
<g >
<path stroke="#000000" fill="none" stroke-width="0.8" d="M -104.0 8.706909034306785L-104.0 8.707030150319449"/>
<path stroke="#000000" fill="none" stroke-width="0.8" d="M -104.4 8.706909034306785L40.0 8.706909034306785"/>
<path stroke="#000000" fill="none" stroke-width="0.8" d="M -104.0 8.707030150319449L-104.0 44.071694687692876"/>
<path stroke="#000000" fill="none" stroke-width="0.8" d="M -104.0 8.707030150319449L-104.0 44.071694687692876"/>
<path stroke="#000000" fill="none" stroke-width="0.8" d="M -88.0 8.707030150319449L-88.0 116.17569050616106"/>
<path stroke="#000000" fill="none" stroke-width="0.8" d="M -87.6 8.707030150319449L-104.0 8.707030150319449"/>
<path stroke="#000000" fill="none" stroke-width="0.8" d="M 40.0 8.706909034306785L40.0 8.707272382344774"/>
<path stroke="#000000" fill="none" stroke-width="0.8" d="M 40.0 8.706909034306785L40.0 8.707272382344774"/>
<path stroke="#000000" fill="none" stroke-width="0.8" d="M -76.0 8.707272382344774L-76.0 11.270208326299564"/>
<path stroke="#000000" fill="none" stroke-width="0.8" d="M -76.4 8.707272382344774L40.0 8.707272382344774"/>
<path stroke="#000000" fill="none" stroke-width="0.8" d="M -76.0 11.270208326299564L-76.0 47.047515118814715"/>
<path stroke="#000000" fill="none" stroke-width="0.8" d="M -76.0 11.270208326299564L-76.0 47.047515118814715"/>
<path stroke="#000000" fill="none" stroke-width="0.8" d="M -68.0 11.270208326299564L-68.0 46.944566508051444"/>
<path stroke="#000000" fill="none" stroke-width="0.8" d="M -67.6 11.270208326299564L-76.0 11.270208326299564"/>
<path stroke="#000000" fill="none" stroke-width="0.8" d="M 40.0 8.707272382344774L40.0 8.707393498357437"/>
<path stroke="#000000" fill="none" stroke-width="0.8" d="M 40.0 8.707272382344774L40.0 8.707393498357437"/>
<path stroke="#000000" fill="none" stroke-width="0.8" d="M -60.0 8.707393498357437L-60.0 44.25579102694014"/>
<path stroke="#000000" fill="none" stroke-width="0.8" d="M -60.4 8.707393498357437L40.0 8.707393498357437"/>
<path stroke="#000000" fill="none" stroke-width="0.8" d="M 40.0 8.707393498357437L40.0 8.776187393549833"/>
<path stroke="#000000" fill="none" stroke-width="0.8" d="M 40.0 8.707393498357437L40.0 8.776187393549833"/>
<path stroke="#000000" fill="none" stroke-width="0.8" d="M -48.0 8.776187393549833L-48.0 18.20615902345277"/>
<path stroke="#000000" fill="none" stroke-width="0.8" d="M -48.4 8.776187393549833L40.0 8.776187393549833"/>
<path stroke="#000000" fill="none" stroke-width="0.8" d="M -48.0 18.20615902345277L-48.0 48.2889542486071"/>
<path stroke="#000000" fill="none" stroke-width="0.8" d="M -48.0 18.20615902345277L-48.0 48.2889542486071"/>
<path stroke="#000000" fill="none" stroke-width="0.8" d="M -48.0 48.2889542486071L-48.0 48.64503532583535"/>
<path stroke="#000000" fill="none" stroke-width="0.8" d="M -48.0 48.2889542486071L-48.0 48.64503532583535"/>
<path stroke="#000000" fill="none" stroke-width="0.8" d="M -48.0 48.64503532583535L-48.0 72.11974090011432"/>
<path stroke="#000000" fill="none" stroke-width="0.8" d="M -48.0 48.64503532583535L-48.0 72.11974090011432"/>
<path stroke="#000000" fill="none" stroke-width="0.8" d="M -32.0 48.64503532583535L-32.0 78.3705383136348"/>
<path stroke="#000000" fill="none" stroke-width="0.8" d="M -31.6 48.64503532583535L-48.0 48.64503532583535"/>
<path stroke="#000000" fill="none" stroke-width="0.8" d="M -20.0 48.2889542486071L-20.0 72.63690627418393"/>
<path stroke="#000000" fill="none" stroke-width="0.8" d="M -19.6 48.2889542486071L-48.0 48.2889542486071"/>
<path stroke="#000000" fill="none" stroke-width="0.8" d="M -8.0 18.20615902345277L-8.0 34.48899576582232"/>
<path stroke="#000000" fill="none" stroke-width="0.8" d="M -7.6 18.20615902345277L-48.0 18.20615902345277"/>
<path stroke="#000000" fill="none" stroke-width="0.8" d="M -8.0 34.48899576582232L-8.0 66.85725014992126"/>
<path stroke="#000000" fill="none" stroke-width="0.8" d="M -8.0 34.48899576582232L-8.0 66.85725014992126"/>
<path stroke="#000000" fill="none" stroke-width="0.8" d="M -8.0 66.85725014992126L-8.0 121.11601266267142"/>
<path stroke="#000000" fill="none" stroke-width="0.8" d="M -8.0 66.85725014992126L-8.0 121.11601266267142"/>
<path stroke="#000000" fill="none" stroke-width="0.8" d="M 8.0 66.85725014992126L8.0 120.54192276265036"/>
<path stroke="#000000" fill="none" stroke-width="0.8" d="M 8.4 66.85725014992126L-8.0 66.85725014992126"/>
<path stroke="#000000" fill="none" stroke-width="0.8" d="M 20.0 34.48899576582232L20.0 47.013602635269166"/>
<path stroke="#000000" fill="none" stroke-width="0.8" d="M 20.4 34.48899576582232L-8.0 34.48899576582232"/>
<path stroke="#000000" fill="none" stroke-width="0.8" d="M 40.0 8.776187393549833L40.0 102.32849677843782"/>
<path stroke="#000000" fill="none" stroke-width="0.8" d="M 40.0 8.776187393549833L40.0 102.32849677843782"/>
<path stroke="#000000" fill="none" stroke-width="0.8" d="M 28.0 102.32849677843782L28.0 115.7154496580429"/>
<path stroke="#000000" fill="none" stroke-width="0.8" d="M 27.6 102.32849677843782L40.0 102.32849677843782"/>
<path stroke="#000000" fill="none" stroke-width="0.8" d="M 40.0 102.32849677843782L40.0 114.91123933396277"/>
<path stroke="#000000" fill="none" stroke-width="0.8" d="M 40.0 102.32849677843782L40.0 114.91123933396277"/>
</g>
</g>
<g transform="matrix(1.0 0.0 0.0 1.0 497.0 350.0)">
<g >
<path stroke="#000000" fill="none" stroke-width="4.0" d="M 40.0 8.706909034306785L40.0 -21.79093663908639"/>
<path stroke="#000000" fill="none" stroke-width="4.0" d="M 40.0 8.776187393549833L40.0 101.27597580051925L40.0 8.776187393549833L40.0 101.27597580051925L40.0 8.707393498357437L40.0 8.776187393549833L40.0 8.707272382344774L40.0 8.707393498357437L40.0 8.706909034306785L40.0 8.707272382344774L40.0 8.706909034306785L40.0 -21.79093663908639"/>
<path stroke="#000000" fill="#c64340" stroke-width="0.8" d="M 36.0 -25.79093663908639L44.0 -25.79093663908639L44.0 -17.79093663908639L36.0 -17.79093663908639L36.0 -25.79093663908639z"/>
<path stroke="#c64340" fill="#c64340" stroke-width="2.4" d="M 40.0 8.776187393549833L40.0 100.47597580051925L40.0 8.776187393549833L40.0 100.47597580051925L40.0 8.707393498357437L40.0 8.776187393549833L40.0 8.707272382344774L40.0 8.707393498357437L40.0 8.706909034306785L40.0 8.707272382344774L40.0 8.706909034306785L40.0 -21.79093663908639"/>
<path stroke="#000000" fill="none" stroke-width="4.0" d="M -104.0 8.707030150319449L-104.0 25.613709048529124L-104.0 8.707030150319449L-104.0 25.613709048529124L-104.0 8.706909034306785L-104.0 8.707030150319449"/>
<path stroke="#000000" fill="#fb827a" stroke-width="0.8" d="M -108.0 4.706909034306786L-100.0 4.706909034306786L-100.0 12.706909034306786L-108.0 12.706909034306786L-108.0 4.706909034306786z"/>
<path stroke="#fb827a" fill="#fb827a" stroke-width="2.4" d="M -104.0 8.707030150319449L-104.0 24.813709048529127L-104.0 8.707030150319449L-104.0 24.813709048529127L-104.0 8.706909034306785L-104.0 8.707030150319449"/>
<path stroke="#000000" fill="none" stroke-width="4.0" d="M -48.0 48.64503532583535L-48.0 58.741948424559695L-48.0 48.64503532583535L-48.0 58.741948424559695L-48.0 48.2889542486071L-48.0 48.64503532583535L-48.0 18.20615902345277L-48.0 48.2889542486071L-48.0 8.776187393549833L-48.0 18.20615902345277"/>
<path stroke="#000000" fill="#fb827a" stroke-width="0.8" d="M -52.0 4.776187393549833L-44.0 4.776187393549833L-44.0 12.776187393549833L-52.0 12.776187393549833L-52.0 4.776187393549833z"/>
<path stroke="#fb827a" fill="#fb827a" stroke-width="2.4" d="M -48.0 48.64503532583535L-48.0 57.9419484245597L-48.0 48.64503532583535L-48.0 57.9419484245597L-48.0 48.2889542486071L-48.0 48.64503532583535L-48.0 18.20615902345277L-48.0 48.2889542486071L-48.0 8.776187393549833L-48.0 18.20615902345277"/>
<path stroke="#000000" fill="none" stroke-width="4.0" d="M -8.0 66.85725014992126L-8.0 95.59245461193125L-8.0 66.85725014992126L-8.0 95.59245461193125L-8.0 34.48899576582232L-8.0 66.85725014992126L-8.0 18.20615902345277L-8.0 34.48899576582232"/>
<path stroke="#000000" fill="#ffd6d1" stroke-width="0.8" d="M -12.0 14.206159023452766L-4.0 14.206159023452766L-4.0 22.206159023452766L-12.0 22.206159023452766L-12.0 14.206159023452766z"/>
<path stroke="#ffd6d1" fill="#ffd6d1" stroke-width="2.4" d="M -8.0 66.85725014992126L-8.0 94.79245461193125L-8.0 66.85725014992126L-8.0 94.79245461193125L-8.0 34.48899576582232L-8.0 66.85725014992126L-8.0 18.20615902345277L-8.0 34.48899576582232"/>
<path stroke="#000000" fill="none" stroke-width="4.0" d="M -32.0 48.64503532583535L-32.0 58.715860515099536L-32.0 48.64503532583535L-32.0 58.715860515099536"/>
<path stroke="#000000" fill="#ffd6d1" stroke-width="0.8" d="M -36.0 44.64503532583535L-28.0 44.64503532583535L-28.0 52.64503532583535L-36.0 52.64503532583535L-36.0 44.64503532583535z"/>
<path stroke="#ffd6d1" fill="#ffd6d1" stroke-width="2.4" d="M -32.0 48.64503532583535L-32.0 57.91586051509953L-32.0 48.64503532583535L-32.0 57.91586051509953"/>
<path stroke="#000000" fill="none" stroke-width="4.0" d="M 8.0 66.85725014992126L8.0 93.17075792626775L8.0 66.85725014992126L8.0 93.17075792626775"/>
<path stroke="#000000" fill="#fb827a" stroke-width="0.8" d="M 4.0 62.857250149921256L12.0 62.857250149921256L12.0 70.85725014992126L4.0 70.85725014992126L4.0 62.857250149921256z"/>
<path stroke="#fb827a" fill="#fb827a" stroke-width="2.4" d="M 8.0 66.85725014992126L8.0 92.37075792626776L8.0 66.85725014992126L8.0 92.37075792626776"/>
<path stroke="#000000" fill="none" stroke-width="4.0" d="M -88.0 8.707030150319449L-88.0 101.01499837410537L-88.0 8.707030150319449L-88.0 101.01499837410537"/>
<path stroke="#000000" fill="#ffd6d1" stroke-width="0.8" d="M -92.0 4.707030150319451L-84.0 4.707030150319451L-84.0 12.70703015031945L-92.0 12.70703015031945L-92.0 4.707030150319451z"/>
<path stroke="#ffd6d1" fill="#ffd6d1" stroke-width="2.4" d="M -88.0 8.707030150319449L-88.0 100.21499837410538L-88.0 8.707030150319449L-88.0 100.21499837410538"/>
</g>
</g>
<g transform="matrix(1.0 0.0 0.0 1.0 643.0 350.0)">
<g >
<path stroke="#000000" fill="none" stroke-width="0.8" d="M -64.0 5.534880662671421L-64.0 44.18069909908928"/>
<path stroke="#000000" fill="none" stroke-width="0.8" d="M -64.4 5.534880662671421L-36.0 5.534880662671421"/>
<path stroke="#000000" fill="none" stroke-width="0.8" d="M -36.0 5.534880662671421L-36.0 5.538514143051302"/>
<path stroke="#000000" fill="none" stroke-width="0.8" d="M -36.0 5.534880662671421L-36.0 5.538514143051302"/>
<path stroke="#000000" fill="none" stroke-width="0.8" d="M -56.0 5.538514143051302L-56.0 10.896323195209897"/>
<path stroke="#000000" fill="none" stroke-width="0.8" d="M -56.4 5.538514143051302L-36.0 5.538514143051302"/>
<path stroke="#000000" fill="none" stroke-width="0.8" d="M -56.0 10.896323195209897L-56.0 40.41762458566008"/>
<path stroke="#000000" fill="none" stroke-width="0.8" d="M -56.0 10.896323195209897L-56.0 40.41762458566008"/>
<path stroke="#000000" fill="none" stroke-width="0.8" d="M -48.0 10.896323195209897L-48.0 40.35222193882224"/>
<path stroke="#000000" fill="none" stroke-width="0.8" d="M -47.6 10.896323195209897L-56.0 10.896323195209897"/>
<path stroke="#000000" fill="none" stroke-width="0.8" d="M -36.0 5.538514143051302L-36.0 5.538635259063964"/>
<path stroke="#000000" fill="none" stroke-width="0.8" d="M -36.0 5.538514143051302L-36.0 5.538635259063964"/>
<path stroke="#000000" fill="none" stroke-width="0.8" d="M -36.0 5.538635259063964L-36.0 44.24610174592712"/>
<path stroke="#000000" fill="none" stroke-width="0.8" d="M -36.0 5.538635259063964L-36.0 44.24610174592712"/>
<path stroke="#000000" fill="none" stroke-width="0.8" d="M 92.0 5.538635259063964L92.0 8.456198888095058"/>
<path stroke="#000000" fill="none" stroke-width="0.8" d="M 92.4 5.538635259063964L-36.0 5.538635259063964"/>
<path stroke="#000000" fill="none" stroke-width="0.8" d="M -20.0 8.456198888095058L-20.0 8.463465848854815"/>
<path stroke="#000000" fill="none" stroke-width="0.8" d="M -20.4 8.456198888095058L92.0 8.456198888095058"/>
<path stroke="#000000" fill="none" stroke-width="0.8" d="M -20.0 8.463465848854815L-20.0 120.45471923353324"/>
<path stroke="#000000" fill="none" stroke-width="0.8" d="M -20.0 8.463465848854815L-20.0 120.45471923353324"/>
<path stroke="#000000" fill="none" stroke-width="0.8" d="M 60.0 8.463465848854815L60.0 17.435861182918178"/>
<path stroke="#000000" fill="none" stroke-width="0.8" d="M 60.4 8.463465848854815L-20.0 8.463465848854815"/>
<path stroke="#000000" fill="none" stroke-width="0.8" d="M 36.0 17.435861182918178L36.0 23.669702354665876"/>
<path stroke="#000000" fill="none" stroke-width="0.8" d="M 35.6 17.435861182918178L60.0 17.435861182918178"/>
<path stroke="#000000" fill="none" stroke-width="0.8" d="M 36.0 23.669702354665876L36.0 41.39987544835435"/>
<path stroke="#000000" fill="none" stroke-width="0.8" d="M 36.0 23.669702354665876L36.0 41.39987544835435"/>
<path stroke="#000000" fill="none" stroke-width="0.8" d="M 20.0 41.39987544835435L20.0 41.51009101987737"/>
<path stroke="#000000" fill="none" stroke-width="0.8" d="M 19.6 41.39987544835435L36.0 41.39987544835435"/>
<path stroke="#000000" fill="none" stroke-width="0.8" d="M -8.0 41.51009101987737L-8.0 63.069952433959514"/>
<path stroke="#000000" fill="none" stroke-width="0.8" d="M -8.4 41.51009101987737L20.0 41.51009101987737"/>
<path stroke="#000000" fill="none" stroke-width="0.8" d="M 20.0 41.51009101987737L20.0 63.19106844662219"/>
<path stroke="#000000" fill="none" stroke-width="0.8" d="M 20.0 41.51009101987737L20.0 63.19106844662219"/>
<path stroke="#000000" fill="none" stroke-width="0.8" d="M 0.0 63.19106844662219L0.0 63.245570652320396"/>
<path stroke="#000000" fill="none" stroke-width="0.8" d="M -0.4 63.19106844662219L20.0 63.19106844662219"/>
<path stroke="#000000" fill="none" stroke-width="0.8" d="M 0.0 63.245570652320396L0.0 77.35800844777486"/>
<path stroke="#000000" fill="none" stroke-width="0.8" d="M 0.0 63.245570652320396L0.0 77.35800844777486"/>
<path stroke="#000000" fill="none" stroke-width="0.8" d="M 8.0 63.245570652320396L8.0 77.25869331739148"/>
<path stroke="#000000" fill="none" stroke-width="0.8" d="M 8.4 63.245570652320396L0.0 63.245570652320396"/>
<path stroke="#000000" fill="none" stroke-width="0.8" d="M 20.0 63.19106844662219L20.0 77.2913946408104"/>
<path stroke="#000000" fill="none" stroke-width="0.8" d="M 20.0 63.19106844662219L20.0 77.2913946408104"/>
<path stroke="#000000" fill="none" stroke-width="0.8" d="M 36.0 41.39987544835435L36.0 63.43330047194753"/>
<path stroke="#000000" fill="none" stroke-width="0.8" d="M 36.0 41.39987544835435L36.0 63.43330047194753"/>
<path stroke="#000000" fill="none" stroke-width="0.8" d="M 48.0 23.669702354665876L48.0 35.949654878534126"/>
<path stroke="#000000" fill="none" stroke-width="0.8" d="M 48.4 23.669702354665876L36.0 23.669702354665876"/>
<path stroke="#000000" fill="none" stroke-width="0.8" d="M 60.0 17.435861182918178L60.0 61.75705485669616"/>
<path stroke="#000000" fill="none" stroke-width="0.8" d="M 60.0 17.435861182918178L60.0 61.75705485669616"/>
<path stroke="#000000" fill="none" stroke-width="0.8" d="M 60.0 61.75705485669616L60.0 114.27538026748374"/>
<path stroke="#000000" fill="none" stroke-width="0.8" d="M 60.0 61.75705485669616L60.0 114.27538026748374"/>
<path stroke="#000000" fill="none" stroke-width="0.8" d="M 76.0 61.75705485669616L76.0 111.8482153737238"/>
<path stroke="#000000" fill="none" stroke-width="0.8" d="M 76.4 61.75705485669616L60.0 61.75705485669616"/>
<path stroke="#000000" fill="none" stroke-width="0.8" d="M 92.0 8.456198888095058L92.0 121.11601266267142"/>
<path stroke="#000000" fill="none" stroke-width="0.8" d="M 92.0 8.456198888095058L92.0 121.11601266267142"/>
</g>
</g>
<g transform="matrix(1.0 0.0 0.0 1.0 643.0 350.0)">
<g >
<path stroke="#000000" fill="none" stroke-width="4.0" d="M -36.0 5.534880662671421L-36.0 -18.618908267451026"/>
<path stroke="#000000" fill="none" stroke-width="4.0" d="M -36.0 5.538635259063964L-36.0 25.30912626005135L-36.0 5.538635259063964L-36.0 25.30912626005135L-36.0 5.538514143051302L-36.0 5.538635259063964L-36.0 5.534880662671421L-36.0 5.538514143051302L-36.0 5.534880662671421L-36.0 -21.79093663908639"/>
<path stroke="#000000" fill="#3077cb" stroke-width="0.8" d="M -40.0 -25.79093663908639L-32.0 -25.79093663908639L-32.0 -17.79093663908639L-40.0 -17.79093663908639L-40.0 -25.79093663908639z"/>
<path stroke="#3077cb" fill="#3077cb" stroke-width="2.4" d="M -36.0 5.538635259063964L-36.0 24.509126260051353L-36.0 5.538635259063964L-36.0 24.509126260051353L-36.0 5.538514143051302L-36.0 5.538635259063964L-36.0 5.534880662671421L-36.0 5.538514143051302L-36.0 5.534880662671421L-36.0 -21.79093663908639"/>
<path stroke="#000000" fill="none" stroke-width="4.0" d="M 92.0 8.456198888095058L92.0 96.26080754568869L92.0 8.456198888095058L92.0 96.26080754568869L92.0 5.538635259063964L92.0 8.456198888095058"/>
<path stroke="#000000" fill="#75aef7" stroke-width="0.8" d="M 88.0 1.5386352590639625L96.0 1.5386352590639625L96.0 9.538635259063962L88.0 9.538635259063962L88.0 1.5386352590639625z"/>
<path stroke="#75aef7" fill="#75aef7" stroke-width="2.4" d="M 92.0 8.456198888095058L92.0 95.4608075456887L92.0 8.456198888095058L92.0 95.4608075456887L92.0 5.538635259063964L92.0 8.456198888095058"/>
<path stroke="#000000" fill="none" stroke-width="4.0" d="M -20.0 8.463465848854815L-20.0 96.86058483291022L-20.0 8.463465848854815L-20.0 96.86058483291022L-20.0 8.456198888095058L-20.0 8.463465848854815"/>
<path stroke="#000000" fill="#d0e4fe" stroke-width="0.8" d="M -24.0 4.456198888095056L-16.0 4.456198888095056L-16.0 12.456198888095056L-24.0 12.456198888095056L-24.0 4.456198888095056z"/>
<path stroke="#d0e4fe" fill="#d0e4fe" stroke-width="2.4" d="M -20.0 8.463465848854815L-20.0 96.06058483291024L-20.0 8.463465848854815L-20.0 96.06058483291024L-20.0 8.456198888095058L-20.0 8.463465848854815"/>
<path stroke="#000000" fill="none" stroke-width="4.0" d="M 60.0 61.75705485669616L60.0 102.33578647971842L60.0 61.75705485669616L60.0 102.33578647971842L60.0 17.435861182918178L60.0 61.75705485669616L60.0 8.463465848854815L60.0 17.435861182918178"/>
<path stroke="#000000" fill="#3077cb" stroke-width="0.8" d="M 56.0 4.463465848854813L64.0 4.463465848854813L64.0 12.463465848854813L56.0 12.463465848854813L56.0 4.463465848854813z"/>
<path stroke="#3077cb" fill="#3077cb" stroke-width="2.4" d="M 60.0 61.75705485669616L60.0 101.53578647971844L60.0 61.75705485669616L60.0 101.53578647971844L60.0 17.435861182918178L60.0 61.75705485669616L60.0 8.463465848854815L60.0 17.435861182918178"/>
<path stroke="#000000" fill="none" stroke-width="4.0" d="M 36.0 41.39987544835435L36.0 53.9801224906715L36.0 41.39987544835435L36.0 53.9801224906715L36.0 23.669702354665876L36.0 41.39987544835435L36.0 17.435861182918178L36.0 23.669702354665876"/>
<path stroke="#000000" fill="#75aef7" stroke-width="0.8" d="M 32.0 13.435861182918178L40.0 13.435861182918178L40.0 21.435861182918178L32.0 21.435861182918178L32.0 13.435861182918178z"/>
<path stroke="#75aef7" fill="#75aef7" stroke-width="2.4" d="M 36.0 41.39987544835435L36.0 53.18012249067149L36.0 41.39987544835435L36.0 53.18012249067149L36.0 23.669702354665876L36.0 41.39987544835435L36.0 17.435861182918178L36.0 23.669702354665876"/>
<path stroke="#000000" fill="none" stroke-width="4.0" d="M 20.0 41.51009101987737L20.0 59.69780558984104L20.0 41.51009101987737L20.0 59.69780558984104L20.0 41.39987544835435L20.0 41.51009101987737"/>
<path stroke="#000000" fill="#d0e4fe" stroke-width="0.8" d="M 16.0 37.39987544835435L24.0 37.39987544835435L24.0 45.39987544835435L16.0 45.39987544835435L16.0 37.39987544835435z"/>
<path stroke="#d0e4fe" fill="#d0e4fe" stroke-width="2.4" d="M 20.0 41.51009101987737L20.0 58.89780558984104L20.0 41.51009101987737L20.0 58.89780558984104L20.0 41.39987544835435L20.0 41.51009101987737"/>
<path stroke="#000000" fill="none" stroke-width="4.0" d="M 76.0 61.75705485669616L76.0 101.48929347636616L76.0 61.75705485669616L76.0 101.48929347636616"/>
<path stroke="#000000" fill="#d0e4fe" stroke-width="0.8" d="M 72.0 57.75705485669616L80.0 57.75705485669616L80.0 65.75705485669616L72.0 65.75705485669616L72.0 57.75705485669616z"/>
<path stroke="#d0e4fe" fill="#d0e4fe" stroke-width="2.4" d="M 76.0 61.75705485669616L76.0 100.68929347636615L76.0 61.75705485669616L76.0 100.68929347636615"/>
</g>
</g>
</g>
</svg>