<?xml version="1.0" encoding="utf-8"?>
<svg version="1.2" baseProfile="tiny" id="openrndr-svg" xmlns="http://www.w3.org/2000/svg" xmlns:xlink="http://www.w3.org/1999/xlink" y="0.0" height="576.0" x="0.0" width="768.0" ><g >
<g transform="matrix(1.0 0.0 0.0 1.0 529.0 350.0)">
<g >
<path fill="#d0e4fe" d="M -16.0 73.84205881702422L-16.0 84.85020366412905L-16.0 85.57379446395261L-16.0 151.9914917608375L-16.0 152.6462868826075L-32.0 152.6462868826075L-32.0 151.9914917608375L-32.0 85.57379446395261L-32.0 84.85020366412905L-32.0 73.84205881702422L-16.0 73.84205881702422z"/>
<path fill="#d0e4fe" d="M -32.0 73.80694787104122L-16.0 73.80694787104122L-16.0 73.84215881702423L-32.0 73.84215881702423L-32.0 74.80694787104122L-56.0 74.80694787104122L-56.0 93.75617144086037L-56.0 120.34584349007295L-56.0 123.71028770400925L-64.0 123.71028770400925L-64.0 80.33300378631633L-80.0 80.33300378631633L-80.0 78.7270596483113L-88.0 78.7270596483113L-88.0 123.72028770400925L-88.0 136.77003304681634L-96.0 136.77003304681634L-96.0 123.72028770400925L-96.0 120.34584349007295L-96.0 93.75617144086036L-96.0 80.34300378631633L-96.0 78.7370596483113L-96.0 74.97560873952385L-96.0 74.96560873952384L-104.0 74.96560873952384L-104.0 73.84215881702423L-104.0 73.80694787104122L-96.0 73.80694787104122L-88.0 73.80694787104122L-80.0 73.80694787104122L-64.0 73.80694787104122L-56.0 73.80694787104122L-32.0 73.80694787104122z"/>
<path fill="#75aef7" d="M -16.0 72.94606773394223L-16.0 73.80704787104122L-32.0 73.80704787104122L-32.0 72.94606773394223L-56.0 72.94606773394223L-56.0 73.80704787104122L-64.0 73.80704787104122L-80.0 73.80704787104122L-88.0 73.80704787104122L-96.0 73.80704787104122L-104.0 73.80704787104122L-104.0 71.94606773394223L-96.0 71.94606773394223L-88.0 71.94606773394223L-80.0 71.94606773394223L-64.0 71.94606773394223L-56.0 71.94606773394223L-32.0 71.94606773394223L-16.0 71.94606773394223L-7.105427357601002E-15 71.94606773394223L8.0 71.94606773394223L16.0 71.94606773394223L24.0 71.94606773394223L32.0 71.94606773394223L40.0 71.94606773394223L56.0 71.94606773394223L56.0 73.8070478710412L56.0 80.35284910361105L40.0 80.35284910361105L40.0 78.7270596483113L32.0 78.7270596483113L32.0 80.36284910361105L32.0 93.75617144086036L32.0 96.91994997889867L32.0 113.22974766943646L32.0 123.64395956056794L32.0 136.9028440164042L24.0 136.9028440164042L24.0 123.64395956056794L24.0 113.21974766943646L16.0 113.21974766943646L16.0 96.90994997889867L8.0 96.90994997889867L8.0 123.63395956056793L0.0 123.63395956056793L0.0 93.75617144086037L-7.105427357601002E-15 73.80704787104122L-7.105427357601002E-15 72.94606773394223L-16.0 72.94606773394223z"/>
<path fill="#3077cb" stroke-width="224.0" d="M 64.0 24.606666882607502L64.0 33.83847849048057L56.0 33.83847849048057L56.0 33.84847849048057L56.0 37.96867167344213L56.0 60.970920980913434L56.0 71.94616773394223L40.0 71.94616773394223L15.999999999999996 71.94616773394223L8.0 71.94616773394223L0.0 71.94616773394223L0.0 70.41034513894684L-8.0 70.41034513894684L-8.0 67.42438816752303L-16.0 67.42438816752303L-16.0 71.94616773394223L-32.0 71.94616773394223L-32.0 67.40606941309713L-40.0 67.40606941309713L-40.0 70.31722480394845L-56.0 70.31722480394845L-56.0 71.94616773394222L-64.0 71.94616773394223L-80.0 71.94616773394223L-88.0 71.94616773394223L-96.0 71.94616773394223L-104.0 71.94616773394223L-104.0 74.96560873952384L-104.0 77.2523999170253L-112.0 77.2523999170253L-112.0 77.2623999170253L-112.0 96.87178590717801L-120.0 96.87178590717802L-120.0 96.88178590717803L-120.0 97.26115978768505L-120.0 104.91455972294084L-120.0 107.14260123759621L-120.0 113.12510077156925L-128.0 113.12510077156925L-128.0 107.14260123759622L-128.0 104.91455972294084L-128.0 104.90455972294083L-144.0 104.90455972294083L-144.0 97.26115978768505L-144.0 96.88104563334734L-144.0 71.94616773394223L-144.0 24.606666882607502L-144.0 16.606666882607502L64.0 16.606666882607502L64.0 24.606666882607502z"/>
</g>
</g>
<g transform="matrix(1.0 0.0 0.0 1.0 699.0 350.0)">
<g >
<path fill="#ffd6d1" d="M 20.0 72.41777566040949L20.0 109.1507716839332L20.0 151.7372960355742L20.0 152.6462868826075L4.0 152.6462868826075L4.0 151.7372960355742L4.0 151.7272960355742L-4.0 151.7272960355742L-4.0 86.73388189530405L-4.0 72.41777566040949L4.0 72.41777566040949L20.0 72.41777566040949z"/>
<path fill="#c64340" d="M -12.0 86.73388189530405L-12.0 83.07776417342197L-4.0 83.07776417342197L-4.0 86.73388189530405L-12.0 86.73388189530405z"/>
<path fill="#ffd6d1" d="M 52.0 72.41777566040949L52.0 80.80939175034644L52.0 103.81164105781772L52.0 109.0949747978684L36.0 109.0949747978684L36.0 103.81164105781772L36.0 80.80939175034644L36.0 72.41777566040949L52.0 72.41777566040949z"/>
<path fill="#fb827a" d="M 36.0 67.44728695951179L52.0 67.44728695951179L52.0 67.95725895769971L52.0 72.41787566040949L36.0 72.41787566040949L36.0 68.44728695951179L20.0 68.44728695951179L20.0 72.41787566040949L4.0 72.41787566040949L-4.0 72.41787566040949L-4.0 83.07786417342197L-12.0 83.07786417342197L-12.0 86.73388189530405L-12.0 93.3737444346157L-12.0 103.81164105781772L-12.0 109.04917791180362L-28.0 109.04917791180362L-28.0 103.81164105781772L-28.0 93.3737444346157L-28.0 82.67559184988257L-28.0 68.44728695951179L-36.0 68.44728695951179L-36.0 82.66559184988256L-44.0 82.66559184988256L-44.0 82.74649968193035L-52.0 82.74649968193035L-52.0 93.36374443461568L-68.0 93.3637444346157L-68.0 83.07786417342197L-68.0 78.73621902552425L-68.0 72.41787566040949L-68.0 67.95725895769971L-68.0 67.44728695951179L-52.0 67.44728695951179L-44.0 67.44728695951179L-36.0 67.44728695951179L-28.0 67.44728695951179L-12.0 67.44728695951179L-4.0 67.44728695951179L20.0 67.44728695951179L36.0 67.44728695951179z"/>
<path fill="#c64340" stroke-width="152.0" d="M 60.0 29.105447657037946L60.0 59.7992066377368L52.0 59.7992066377368L52.0 59.80920663773679L52.0 67.44738695951179L36.0 67.44738695951179L36.0 51.938934426151334L28.0 51.938934426151334L28.0 51.7435343789416L20.0 51.7435343789416L20.0 67.44738695951179L-12.0 67.44738695951179L-28.0 67.44738695951179L-28.0 59.786994134786184L-36.0 59.786994134786184L-36.0 67.44738695951179L-44.0 67.44738695951179L-52.0 67.44738695951179L-68.0 67.44738695951179L-68.0 78.73621902552425L-76.0 78.73621902552425L-76.0 67.44738695951179L-76.0 64.30188116069193L-76.0 59.8092066377368L-76.0 59.79699413478618L-76.0 54.42043971078074L-76.0 54.04032555644305L-76.0 51.94893442615133L-76.0 51.753534378941595L-76.0 50.91545136395608L-76.0 42.73307438704832L-76.0 42.00948358722476L-76.0 31.001438740119923L-76.0 30.966327794136912L-76.0 29.105447657037946L-76.0 16.606666882607502L60.0 16.606666882607502L60.0 29.105447657037946z"/>
</g>
</g>
<g transform="matrix(1.0 0.0 0.0 1.0 400.0 350.0)">
<g >
<path fill="none" stroke-width="0.4" stroke="#000000" stroke-opacity="0.1" d="M -43.0 -47.65426323274893L379.5 -47.65426323274893"/>
<path fill="none" stroke-width="0.4" stroke="#000000" stroke-opacity="0.1" d="M -43.0 -26.233953194296788L379.5 -26.233953194296788"/>
<path fill="none" stroke-width="0.4" stroke="#000000" stroke-opacity="0.1" d="M -43.0 -4.813643155844645L379.5 -4.813643155844645"/>
<path fill="none" stroke-width="0.4" stroke="#000000" stroke-opacity="0.1" d="M -43.0 16.6066668826075L379.5 16.6066668826075"/>
<path fill="none" stroke-width="0.4" stroke="#000000" stroke-opacity="0.1" d="M -43.0 38.02697692105964L379.5 38.02697692105964"/>
<path fill="none" stroke-width="0.4" stroke="#000000" stroke-opacity="0.1" d="M -43.0 59.447286959511786L379.5 59.447286959511786"/>
<path fill="none" stroke-width="0.4" stroke="#000000" stroke-opacity="0.1" d="M -43.0 80.86759699796393L379.5 80.86759699796393"/>
<path fill="none" stroke-width="0.4" stroke="#000000" stroke-opacity="0.1" d="M -43.0 102.28790703641607L379.5 102.28790703641607"/>
<path fill="none" stroke-width="0.4" stroke="#000000" stroke-opacity="0.1" d="M -43.0 123.70821707486822L379.5 123.70821707486822"/>
<path fill="none" stroke-width="0.4" stroke="#000000" stroke-opacity="0.1" d="M -43.0 145.12852711332036L379.5 145.12852711332036"/>
<path fill="none" stroke-width="0.4" stroke="#000000" stroke-opacity="0.1" d="M -43.0 166.5488371517725L379.5 166.5488371517725"/>
</g>
</g>
<g transform="matrix(1.0 0.0 0.0 1.0 529.0 350.0)">
<g >
<path fill="none" stroke-width="0.8" stroke="#000000" d="M -136.0 24.606666882607502L-136.0 104.91455972294084"/>
<path fill="none" stroke-width="0.8" stroke="#000000" d="M -136.0 24.606666882607502L-136.0 104.91455972294084"/>
<path fill="none" stroke-width="0.8" stroke="#000000" d="M -72.0 24.606666882607502L-72.0 25.116538880795414"/>
<path fill="none" stroke-width="0.8" stroke="#000000" d="M -71.6 24.606666882607502L-136.0 24.606666882607502"/>
<path fill="none" stroke-width="0.8" stroke="#000000" d="M -72.0 25.116538880795414L-72.0 29.577155583505206"/>
<path fill="none" stroke-width="0.8" stroke="#000000" d="M -72.0 25.116538880795414L-72.0 29.577155583505206"/>
<path fill="none" stroke-width="0.8" stroke="#000000" d="M -72.0 29.577155583505206L-72.0 29.577155583505206"/>
<path fill="none" stroke-width="0.8" stroke="#000000" d="M -72.0 29.577155583505206L-72.0 29.577155583505206"/>
<path fill="none" stroke-width="0.8" stroke="#000000" d="M -72.0 29.577155583505206L-72.0 40.23714409651768"/>
<path fill="none" stroke-width="0.8" stroke="#000000" d="M -72.0 29.577155583505206L-72.0 40.23714409651768"/>
<path fill="none" stroke-width="0.8" stroke="#000000" d="M -72.0 40.23714409651768L-72.0 60.970920980913434"/>
<path fill="none" stroke-width="0.8" stroke="#000000" d="M -72.0 40.23714409651768L-72.0 60.970920980913434"/>
<path fill="none" stroke-width="0.8" stroke="#000000" d="M -124.0 60.970920980913434L-124.0 63.10658243440111"/>
<path fill="none" stroke-width="0.8" stroke="#000000" d="M -124.4 60.970920980913434L-72.0 60.970920980913434"/>
<path fill="none" stroke-width="0.8" stroke="#000000" d="M -124.0 63.10658243440111L-124.0 63.59813567816311"/>
<path fill="none" stroke-width="0.8" stroke="#000000" d="M -124.0 63.10658243440111L-124.0 63.59813567816311"/>
<path fill="none" stroke-width="0.8" stroke="#000000" d="M -124.0 63.59813567816311L-124.0 76.10984495106163"/>
<path fill="none" stroke-width="0.8" stroke="#000000" d="M -124.0 63.59813567816311L-124.0 76.10984495106163"/>
<path fill="none" stroke-width="0.8" stroke="#000000" d="M -124.0 76.10984495106163L-124.0 113.13510077156926"/>
<path fill="none" stroke-width="0.8" stroke="#000000" d="M -124.0 76.10984495106163L-124.0 113.13510077156926"/>
<path fill="none" stroke-width="0.8" stroke="#000000" d="M -116.0 76.10984495106163L-116.0 96.88178590717803"/>
<path fill="none" stroke-width="0.8" stroke="#000000" d="M -115.6 76.10984495106163L-124.0 76.10984495106163"/>
<path fill="none" stroke-width="0.8" stroke="#000000" d="M -108.0 63.59813567816311L-108.0 66.77338644532135"/>
<path fill="none" stroke-width="0.8" stroke="#000000" d="M -107.6 63.59813567816311L-124.0 63.59813567816311"/>
<path fill="none" stroke-width="0.8" stroke="#000000" d="M -108.0 66.77338644532135L-108.0 77.2623999170253"/>
<path fill="none" stroke-width="0.8" stroke="#000000" d="M -108.0 66.77338644532135L-108.0 77.2623999170253"/>
<path fill="none" stroke-width="0.8" stroke="#000000" d="M -100.0 66.77338644532135L-100.0 74.97560873952385"/>
<path fill="none" stroke-width="0.8" stroke="#000000" d="M -99.6 66.77338644532135L-108.0 66.77338644532135"/>
<path fill="none" stroke-width="0.8" stroke="#000000" d="M -92.0 63.10658243440111L-92.0 68.51214155291424"/>
<path fill="none" stroke-width="0.8" stroke="#000000" d="M -91.6 63.10658243440111L-124.0 63.10658243440111"/>
<path fill="none" stroke-width="0.8" stroke="#000000" d="M -92.0 68.51214155291424L-92.0 136.78003304681633"/>
<path fill="none" stroke-width="0.8" stroke="#000000" d="M -92.0 68.51214155291424L-92.0 136.78003304681633"/>
<path fill="none" stroke-width="0.8" stroke="#000000" d="M -84.0 68.51214155291424L-84.0 78.7370596483113"/>
<path fill="none" stroke-width="0.8" stroke="#000000" d="M -83.6 68.51214155291424L-92.0 68.51214155291424"/>
<path fill="none" stroke-width="0.8" stroke="#000000" d="M -72.0 60.970920980913434L-72.0 80.34300378631633"/>
<path fill="none" stroke-width="0.8" stroke="#000000" d="M -72.0 60.970920980913434L-72.0 80.34300378631633"/>
<path fill="none" stroke-width="0.8" stroke="#000000" d="M -48.0 40.23714409651768L-48.0 54.507453794303835"/>
<path fill="none" stroke-width="0.8" stroke="#000000" d="M -47.6 40.23714409651768L-72.0 40.23714409651768"/>
<path fill="none" stroke-width="0.8" stroke="#000000" d="M -60.0 54.507453794303835L-60.0 123.72028770400925"/>
<path fill="none" stroke-width="0.8" stroke="#000000" d="M -60.4 54.507453794303835L-48.0 54.507453794303835"/>
<path fill="none" stroke-width="0.8" stroke="#000000" d="M -48.0 54.507453794303835L-48.0 59.62907221921532"/>
<path fill="none" stroke-width="0.8" stroke="#000000" d="M -48.0 54.507453794303835L-48.0 59.62907221921532"/>
<path fill="none" stroke-width="0.8" stroke="#000000" d="M -48.0 59.62907221921532L-48.0 70.32722480394845"/>
<path fill="none" stroke-width="0.8" stroke="#000000" d="M -48.0 59.62907221921532L-48.0 70.32722480394845"/>
<path fill="none" stroke-width="0.8" stroke="#000000" d="M -36.0 59.62907221921532L-36.0 67.41606941309713"/>
<path fill="none" stroke-width="0.8" stroke="#000000" d="M -35.6 59.62907221921532L-48.0 59.62907221921532"/>
<path fill="none" stroke-width="0.8" stroke="#000000" d="M -24.0 29.577155583505206L-24.0 152.6562868826075"/>
<path fill="none" stroke-width="0.8" stroke="#000000" d="M -23.6 29.577155583505206L-72.0 29.577155583505206"/>
<path fill="none" stroke-width="0.8" stroke="#000000" d="M 48.0 29.577155583505206L48.0 37.96867167344214"/>
<path fill="none" stroke-width="0.8" stroke="#000000" d="M 48.4 29.577155583505206L-72.0 29.577155583505206"/>
<path fill="none" stroke-width="0.8" stroke="#000000" d="M -12.0 37.96867167344214L-12.0 54.563936620450406"/>
<path fill="none" stroke-width="0.8" stroke="#000000" d="M -12.4 37.96867167344214L48.0 37.96867167344214"/>
<path fill="none" stroke-width="0.8" stroke="#000000" d="M -12.0 54.563936620450406L-12.0 58.60780165997067"/>
<path fill="none" stroke-width="0.8" stroke="#000000" d="M -12.0 54.563936620450406L-12.0 58.60780165997067"/>
<path fill="none" stroke-width="0.8" stroke="#000000" d="M -12.0 58.60780165997067L-12.0 67.43438816752304"/>
<path fill="none" stroke-width="0.8" stroke="#000000" d="M -12.0 58.60780165997067L-12.0 67.43438816752304"/>
<path fill="none" stroke-width="0.8" stroke="#000000" d="M -4.0 58.60780165997067L-4.0 70.42034513894684"/>
<path fill="none" stroke-width="0.8" stroke="#000000" d="M -3.6 58.60780165997067L-12.0 58.60780165997067"/>
<path fill="none" stroke-width="0.8" stroke="#000000" d="M 4.0 54.563936620450406L4.0 123.64395956056794"/>
<path fill="none" stroke-width="0.8" stroke="#000000" d="M 4.4 54.563936620450406L-12.0 54.563936620450406"/>
<path fill="none" stroke-width="0.8" stroke="#000000" d="M 48.0 37.96867167344214L48.0 60.970920980913434"/>
<path fill="none" stroke-width="0.8" stroke="#000000" d="M 48.0 37.96867167344214L48.0 60.970920980913434"/>
<path fill="none" stroke-width="0.8" stroke="#000000" d="M 12.0 60.970920980913434L12.0 68.51214155291424"/>
<path fill="none" stroke-width="0.8" stroke="#000000" d="M 11.6 60.970920980913434L48.0 60.970920980913434"/>
<path fill="none" stroke-width="0.8" stroke="#000000" d="M 12.0 68.51214155291424L12.0 72.7651457054637"/>
<path fill="none" stroke-width="0.8" stroke="#000000" d="M 12.0 68.51214155291424L12.0 72.7651457054637"/>
<path fill="none" stroke-width="0.8" stroke="#000000" d="M 12.0 72.7651457054637L12.0 76.35562157294261"/>
<path fill="none" stroke-width="0.8" stroke="#000000" d="M 12.0 72.7651457054637L12.0 76.35562157294261"/>
<path fill="none" stroke-width="0.8" stroke="#000000" d="M 12.0 76.35562157294261L12.0 96.91994997889867"/>
<path fill="none" stroke-width="0.8" stroke="#000000" d="M 12.0 76.35562157294261L12.0 96.91994997889867"/>
<path fill="none" stroke-width="0.8" stroke="#000000" d="M 20.0 76.35562157294261L20.0 113.22974766943646"/>
<path fill="none" stroke-width="0.8" stroke="#000000" d="M 20.4 76.35562157294261L12.0 76.35562157294261"/>
<path fill="none" stroke-width="0.8" stroke="#000000" d="M 28.0 72.7651457054637L28.0 136.9128440164042"/>
<path fill="none" stroke-width="0.8" stroke="#000000" d="M 28.4 72.7651457054637L12.0 72.7651457054637"/>
<path fill="none" stroke-width="0.8" stroke="#000000" d="M 36.0 68.51214155291424L36.0 78.7370596483113"/>
<path fill="none" stroke-width="0.8" stroke="#000000" d="M 36.4 68.51214155291424L12.0 68.51214155291424"/>
<path fill="none" stroke-width="0.8" stroke="#000000" d="M 48.0 60.970920980913434L48.0 80.36284910361105"/>
<path fill="none" stroke-width="0.8" stroke="#000000" d="M 48.0 60.970920980913434L48.0 80.36284910361105"/>
<path fill="none" stroke-width="0.8" stroke="#000000" d="M 60.0 25.116538880795414L60.0 33.84847849048057"/>
<path fill="none" stroke-width="0.8" stroke="#000000" d="M 60.4 25.116538880795414L-72.0 25.116538880795414"/>
</g>
</g>
<g transform="matrix(1.0 0.0 0.0 1.0 529.0 350.0)">
<g >
<path fill="none" stroke-width="4.0" stroke="#000000" d="M -136.0 24.606666882607502L-136.0 -21.73517241986634"/>
<path fill="none" stroke-width="4.0" stroke="#000000" d="M -136.0 24.606666882607502L-136.0 36.53845400899034L-136.0 24.606666882607502L-136.0 36.53845400899034L-136.0 24.606666882607502L-136.0 -26.233953194296785"/>
<path fill="#c64340" stroke-width="0.8" stroke="#000000" d="M -140.0 -30.233953194296785L-132.0 -30.233953194296785L-132.0 -22.233953194296785L-140.0 -22.233953194296785L-140.0 -30.233953194296785z"/>
<path fill="#c64340" stroke-width="2.4" stroke="#c64340" d="M -136.0 24.606666882607502L-136.0 35.738454008990345L-136.0 24.606666882607502L-136.0 35.738454008990345L-136.0 24.606666882607502L-136.0 -26.233953194296785"/>
<path fill="none" stroke-width="4.0" stroke="#000000" d="M -72.0 60.970920980913434L-72.0 66.94959658235777L-72.0 60.970920980913434L-72.0 66.94959658235777L-72.0 40.23714409651768L-72.0 60.970920980913434L-72.0 29.577155583505206L-72.0 40.23714409651768L-72.0 29.577155583505206L-72.0 29.577155583505206L-72.0 25.116538880795414L-72.0 29.577155583505206L-72.0 24.606666882607502L-72.0 25.116538880795414"/>
<path fill="#fb827a" stroke-width="0.8" stroke="#000000" d="M -76.0 20.6066668826075L-68.0 20.6066668826075L-68.0 28.6066668826075L-76.0 28.6066668826075L-76.0 20.6066668826075z"/>
<path fill="#fb827a" stroke-width="2.4" stroke="#fb827a" d="M -72.0 60.970920980913434L-72.0 66.14959658235777L-72.0 60.970920980913434L-72.0 66.14959658235777L-72.0 40.23714409651768L-72.0 60.970920980913434L-72.0 29.577155583505206L-72.0 40.23714409651768L-72.0 29.577155583505206L-72.0 29.577155583505206L-72.0 25.116538880795414L-72.0 29.577155583505206L-72.0 24.606666882607502L-72.0 25.116538880795414"/>
<path fill="none" stroke-width="4.0" stroke="#000000" d="M 48.0 60.970920980913434L48.0 66.95490176618904L48.0 60.970920980913434L48.0 66.95490176618904L48.0 37.96867167344214L48.0 60.970920980913434L48.0 29.577155583505206L48.0 37.96867167344214"/>
<path fill="#ffd6d1" stroke-width="0.8" stroke="#000000" d="M 44.0 25.577155583505203L52.0 25.577155583505203L52.0 33.5771555835052L44.0 33.5771555835052L44.0 25.577155583505203z"/>
<path fill="#ffd6d1" stroke-width="2.4" stroke="#ffd6d1" d="M 48.0 60.970920980913434L48.0 66.15490176618904L48.0 60.970920980913434L48.0 66.15490176618904L48.0 37.96867167344214L48.0 60.970920980913434L48.0 29.577155583505206L48.0 37.96867167344214"/>
<path fill="none" stroke-width="4.0" stroke="#000000" d="M -48.0 40.23714409651768L-48.0 44.64004406972112L-48.0 40.23714409651768L-48.0 44.64004406972112"/>
<path fill="#c64340" stroke-width="0.8" stroke="#000000" d="M -52.0 36.23714409651768L-44.0 36.23714409651768L-44.0 44.23714409651768L-52.0 44.23714409651768L-52.0 36.23714409651768z"/>
<path fill="#c64340" stroke-width="2.4" stroke="#c64340" d="M -48.0 40.23714409651768L-48.0 43.84004406972112L-48.0 40.23714409651768L-48.0 43.84004406972112"/>
<path fill="none" stroke-width="4.0" stroke="#000000" d="M -24.0 29.577155583505206L-24.0 109.58649750867005L-24.0 29.577155583505206L-24.0 109.58649750867005"/>
<path fill="#ffd6d1" stroke-width="0.8" stroke="#000000" d="M -28.0 25.577155583505203L-20.0 25.577155583505203L-20.0 33.5771555835052L-28.0 33.5771555835052L-28.0 25.577155583505203z"/>
<path fill="#ffd6d1" stroke-width="2.4" stroke="#ffd6d1" d="M -24.0 29.577155583505206L-24.0 108.78649750867005L-24.0 29.577155583505206L-24.0 108.78649750867005"/>
</g>
</g>
<g transform="matrix(1.0 0.0 0.0 1.0 699.0 350.0)">
<g >
<path fill="none" stroke-width="0.8" stroke="#000000" d="M -60.0 29.105447657037946L-60.0 54.04032555644305"/>
<path fill="none" stroke-width="0.8" stroke="#000000" d="M -60.0 29.105447657037946L-60.0 54.04032555644305"/>
<path fill="none" stroke-width="0.8" stroke="#000000" d="M -60.0 54.04032555644305L-60.0 54.42043971078075"/>
<path fill="none" stroke-width="0.8" stroke="#000000" d="M -60.0 54.04032555644305L-60.0 54.42043971078075"/>
<path fill="none" stroke-width="0.8" stroke="#000000" d="M -60.0 54.42043971078075L-60.0 64.30188116069193"/>
<path fill="none" stroke-width="0.8" stroke="#000000" d="M -60.0 54.42043971078075L-60.0 64.30188116069193"/>
<path fill="none" stroke-width="0.8" stroke="#000000" d="M -72.0 64.30188116069193L-72.0 78.74621902552425"/>
<path fill="none" stroke-width="0.8" stroke="#000000" d="M -72.4 64.30188116069193L-60.0 64.30188116069193"/>
<path fill="none" stroke-width="0.8" stroke="#000000" d="M -60.0 64.30188116069193L-60.0 93.3737444346157"/>
<path fill="none" stroke-width="0.8" stroke="#000000" d="M -60.0 64.30188116069193L-60.0 93.3737444346157"/>
<path fill="none" stroke-width="0.8" stroke="#000000" d="M -48.0 54.42043971078075L-48.0 82.75649968193035"/>
<path fill="none" stroke-width="0.8" stroke="#000000" d="M -47.6 54.42043971078075L-60.0 54.42043971078075"/>
<path fill="none" stroke-width="0.8" stroke="#000000" d="M -40.0 54.04032555644305L-40.0 82.67559184988257"/>
<path fill="none" stroke-width="0.8" stroke="#000000" d="M -39.6 54.04032555644305L-60.0 54.04032555644305"/>
<path fill="none" stroke-width="0.8" stroke="#000000" d="M 44.0 29.105447657037946L44.0 30.966327794136934"/>
<path fill="none" stroke-width="0.8" stroke="#000000" d="M 44.4 29.105447657037946L-60.0 29.105447657037946"/>
<path fill="none" stroke-width="0.8" stroke="#000000" d="M -20.0 30.966327794136934L-20.0 31.001438740119934"/>
<path fill="none" stroke-width="0.8" stroke="#000000" d="M -20.4 30.966327794136934L44.0 30.966327794136934"/>
<path fill="none" stroke-width="0.8" stroke="#000000" d="M -20.0 31.001438740119934L-20.0 50.91545136395608"/>
<path fill="none" stroke-width="0.8" stroke="#000000" d="M -20.0 31.001438740119934L-20.0 50.91545136395608"/>
<path fill="none" stroke-width="0.8" stroke="#000000" d="M -32.0 50.91545136395608L-32.0 59.79699413478618"/>
<path fill="none" stroke-width="0.8" stroke="#000000" d="M -32.4 50.91545136395608L-20.0 50.91545136395608"/>
<path fill="none" stroke-width="0.8" stroke="#000000" d="M -20.0 50.91545136395608L-20.0 77.50512341316866"/>
<path fill="none" stroke-width="0.8" stroke="#000000" d="M -20.0 50.91545136395608L-20.0 77.50512341316866"/>
<path fill="none" stroke-width="0.8" stroke="#000000" d="M -20.0 77.50512341316866L-20.0 109.05917791180363"/>
<path fill="none" stroke-width="0.8" stroke="#000000" d="M -20.0 77.50512341316866L-20.0 109.05917791180363"/>
<path fill="none" stroke-width="0.8" stroke="#000000" d="M -8.0 77.50512341316866L-8.0 86.74388189530406"/>
<path fill="none" stroke-width="0.8" stroke="#000000" d="M -7.6 77.50512341316866L-20.0 77.50512341316866"/>
<path fill="none" stroke-width="0.8" stroke="#000000" d="M 12.0 31.001438740119934L12.0 42.00948358722476"/>
<path fill="none" stroke-width="0.8" stroke="#000000" d="M 12.4 31.001438740119934L-20.0 31.001438740119934"/>
<path fill="none" stroke-width="0.8" stroke="#000000" d="M 12.0 42.00948358722476L12.0 42.73307438704832"/>
<path fill="none" stroke-width="0.8" stroke="#000000" d="M 12.0 42.00948358722476L12.0 42.73307438704832"/>
<path fill="none" stroke-width="0.8" stroke="#000000" d="M 12.0 42.73307438704832L12.0 109.1507716839332"/>
<path fill="none" stroke-width="0.8" stroke="#000000" d="M 12.0 42.73307438704832L12.0 109.1507716839332"/>
<path fill="none" stroke-width="0.8" stroke="#000000" d="M 0.0 109.1507716839332L0.0 151.7372960355742"/>
<path fill="none" stroke-width="0.8" stroke="#000000" d="M -0.4 109.1507716839332L12.0 109.1507716839332"/>
<path fill="none" stroke-width="0.8" stroke="#000000" d="M 12.0 109.1507716839332L12.0 152.6562868826075"/>
<path fill="none" stroke-width="0.8" stroke="#000000" d="M 12.0 109.1507716839332L12.0 152.6562868826075"/>
<path fill="none" stroke-width="0.8" stroke="#000000" d="M 24.0 42.73307438704832L24.0 51.753534378941595"/>
<path fill="none" stroke-width="0.8" stroke="#000000" d="M 24.4 42.73307438704832L12.0 42.73307438704832"/>
<path fill="none" stroke-width="0.8" stroke="#000000" d="M 32.0 42.00948358722476L32.0 51.94893442615133"/>
<path fill="none" stroke-width="0.8" stroke="#000000" d="M 32.4 42.00948358722476L12.0 42.00948358722476"/>
<path fill="none" stroke-width="0.8" stroke="#000000" d="M 44.0 30.966327794136934L44.0 50.91545136395608"/>
<path fill="none" stroke-width="0.8" stroke="#000000" d="M 44.0 30.966327794136934L44.0 50.91545136395608"/>
<path fill="none" stroke-width="0.8" stroke="#000000" d="M 44.0 50.91545136395608L44.0 109.10497479786841"/>
<path fill="none" stroke-width="0.8" stroke="#000000" d="M 44.0 50.91545136395608L44.0 109.10497479786841"/>
<path fill="none" stroke-width="0.8" stroke="#000000" d="M 56.0 50.91545136395608L56.0 59.8092066377368"/>
<path fill="none" stroke-width="0.8" stroke="#000000" d="M 56.4 50.91545136395608L44.0 50.91545136395608"/>
</g>
</g>
<g transform="matrix(1.0 0.0 0.0 1.0 699.0 350.0)">
<g >
<path fill="none" stroke-width="4.0" stroke="#000000" d="M -60.0 29.105447657037946L-60.0 -26.233953194296785"/>
<path fill="none" stroke-width="4.0" stroke="#000000" d="M -60.0 64.30188116069193L-60.0 71.00260588460715L-60.0 64.30188116069193L-60.0 71.00260588460715L-60.0 54.42043971078075L-60.0 64.30188116069193L-60.0 54.04032555644305L-60.0 54.42043971078075L-60.0 29.105447657037946L-60.0 54.04032555644305L-60.0 29.105447657037946L-60.0 -26.233953194296785"/>
<path fill="#3077cb" stroke-width="0.8" stroke="#000000" d="M -64.0 -30.233953194296785L-56.0 -30.233953194296785L-56.0 -22.233953194296785L-64.0 -22.233953194296785L-64.0 -30.233953194296785z"/>
<path fill="#3077cb" stroke-width="2.4" stroke="#3077cb" d="M -60.0 64.30188116069193L-60.0 70.20260588460715L-60.0 64.30188116069193L-60.0 70.20260588460715L-60.0 54.42043971078075L-60.0 64.30188116069193L-60.0 54.04032555644305L-60.0 54.42043971078075L-60.0 29.105447657037946L-60.0 54.04032555644305L-60.0 29.105447657037946L-60.0 -26.233953194296785"/>
<path fill="none" stroke-width="4.0" stroke="#000000" d="M 44.0 50.91545136395608L44.0 94.3493596224661L44.0 50.91545136395608L44.0 94.3493596224661L44.0 30.966327794136934L44.0 50.91545136395608L44.0 29.105447657037946L44.0 30.966327794136934"/>
<path fill="#75aef7" stroke-width="0.8" stroke="#000000" d="M 40.0 25.105447657037942L48.0 25.105447657037942L48.0 33.10544765703794L40.0 33.10544765703794L40.0 25.105447657037942z"/>
<path fill="#75aef7" stroke-width="2.4" stroke="#75aef7" d="M 44.0 50.91545136395608L44.0 93.54935962246608L44.0 50.91545136395608L44.0 93.54935962246608L44.0 30.966327794136934L44.0 50.91545136395608L44.0 29.105447657037946L44.0 30.966327794136934"/>
<path fill="none" stroke-width="4.0" stroke="#000000" d="M -20.0 77.50512341316866L-20.0 94.55077523424805L-20.0 77.50512341316866L-20.0 94.55077523424805L-20.0 50.91545136395608L-20.0 77.50512341316866L-20.0 31.001438740119934L-20.0 50.91545136395608L-20.0 30.966327794136934L-20.0 31.001438740119934"/>
<path fill="#d0e4fe" stroke-width="0.8" stroke="#000000" d="M -24.0 26.96632779413693L-16.0 26.96632779413693L-16.0 34.96632779413693L-24.0 34.96632779413693L-24.0 26.96632779413693z"/>
<path fill="#d0e4fe" stroke-width="2.4" stroke="#d0e4fe" d="M -20.0 77.50512341316866L-20.0 93.75077523424805L-20.0 77.50512341316866L-20.0 93.75077523424805L-20.0 50.91545136395608L-20.0 77.50512341316866L-20.0 31.001438740119934L-20.0 50.91545136395608L-20.0 30.966327794136934L-20.0 31.001438740119934"/>
<path fill="none" stroke-width="4.0" stroke="#000000" d="M 12.0 109.1507716839332L12.0 111.2430147096364L12.0 109.1507716839332L12.0 111.2430147096364L12.0 42.73307438704832L12.0 109.1507716839332L12.0 42.00948358722476L12.0 42.73307438704832L12.0 31.001438740119934L12.0 42.00948358722476"/>
<path fill="#d0e4fe" stroke-width="0.8" stroke="#000000" d="M 8.0 27.001438740119937L16.0 27.001438740119937L16.0 35.00143874011994L8.0 35.00143874011994L8.0 27.001438740119937z"/>
<path fill="#d0e4fe" stroke-width="2.4" stroke="#d0e4fe" d="M 12.0 109.1507716839332L12.0 110.4430147096364L12.0 109.1507716839332L12.0 110.4430147096364L12.0 42.73307438704832L12.0 109.1507716839332L12.0 42.00948358722476L12.0 42.73307438704832L12.0 31.001438740119934L12.0 42.00948358722476"/>
</g>
</g>
</g>
</svg>