<?xml version="1.0" encoding="utf-8"?>
<svg version="1.2" baseProfile="tiny" id="openrndr-svg" xmlns="http://www.w3.org/2000/svg" xmlns:xlink="http://www.w3.org/1999/xlink" height="576.0" y="0.0" x="0.0" width="768.0" ><g >
<g transform="matrix(1.0 0.0 0.0 1.0 400.0 350.0)">
<g >
<path fill="none" stroke="#b2b2b2" stroke-width="0.1" d="M -114.06944444444444 -7.205015592041015L123.77777777777777 -7.205015592041015"/>
<path fill="none" stroke="#b2b2b2" stroke-width="0.1" d="M -114.06944444444444 -1.1650866940307614L123.77777777777777 -1.1650866940307614"/>
<path fill="none" stroke="#b2b2b2" stroke-width="0.1" d="M -114.06944444444444 4.874842203979492L123.77777777777777 4.874842203979492"/>
<path fill="none" stroke="#b2b2b2" stroke-width="0.1" d="M -114.06944444444444 10.914771101989746L123.77777777777777 10.914771101989746"/>
<path fill="none" stroke="#b2b2b2" stroke-width="0.1" d="M -114.06944444444444 16.9547L123.77777777777777 16.9547"/>
<path fill="none" stroke="#b2b2b2" stroke-width="0.1" d="M -114.06944444444444 22.99462889801025L123.77777777777777 22.99462889801025"/>
<path fill="none" stroke="#b2b2b2" stroke-width="0.1" d="M -114.06944444444444 29.034557796020504L123.77777777777777 29.034557796020504"/>
<path fill="none" stroke="#b2b2b2" stroke-width="0.1" d="M -114.06944444444444 35.07448669403076L123.77777777777777 35.07448669403076"/>
<path fill="none" stroke="#b2b2b2" stroke-width="0.1" d="M -114.06944444444444 41.11441559204101L123.77777777777777 41.11441559204101"/>
<path fill="none" stroke="#b2b2b2" stroke-width="0.1" d="M -114.06944444444444 47.154344490051265L123.77777777777777 47.154344490051265"/>
<path fill="none" stroke="#b2b2b2" stroke-width="0.1" d="M -114.06944444444444 53.19427338806152L123.77777777777777 53.19427338806152"/>
<path fill="none" stroke="#b2b2b2" stroke-width="0.1" d="M -114.06944444444444 59.23420228607177L123.77777777777777 59.23420228607177"/>
<path fill="none" stroke="#b2b2b2" stroke-width="0.1" d="M -114.06944444444444 65.27413118408202L123.77777777777777 65.27413118408202"/>
<path fill="none" stroke="#b2b2b2" stroke-width="0.1" d="M -114.06944444444444 71.31406008209228L123.77777777777777 71.31406008209228"/>
<path fill="none" stroke="#b2b2b2" stroke-width="0.1" d="M -114.06944444444444 77.35398898010254L123.77777777777777 77.35398898010254"/>
<path fill="none" stroke="#b2b2b2" stroke-width="0.1" d="M -114.06944444444444 83.3939178781128L123.77777777777777 83.3939178781128"/>
<path fill="none" stroke="#b2b2b2" stroke-width="0.1" d="M -114.06944444444444 89.43384677612306L123.77777777777777 89.43384677612306"/>
<path fill="none" stroke="#b2b2b2" stroke-width="0.1" d="M -114.06944444444444 95.47377567413332L123.77777777777777 95.47377567413332"/>
<path fill="none" stroke="#b2b2b2" stroke-width="0.1" d="M -114.06944444444444 101.51370457214358L123.77777777777777 101.51370457214358"/>
<path fill="none" stroke="#b2b2b2" stroke-width="0.1" d="M -114.06944444444444 107.55363347015384L123.77777777777777 107.55363347015384"/>
<path fill="none" stroke="#b2b2b2" stroke-width="0.1" d="M -114.06944444444444 113.5935623681641L123.77777777777777 113.5935623681641"/>
<path fill="none" stroke="#b2b2b2" stroke-width="0.1" d="M -114.06944444444444 119.63349126617436L123.77777777777777 119.63349126617436"/>
<path fill="none" stroke="#b2b2b2" stroke-width="0.1" d="M -114.06944444444444 125.67342016418462L123.77777777777777 125.67342016418462"/>
<path fill="none" stroke="#b2b2b2" stroke-width="0.1" d="M -114.06944444444444 131.71334906219488L123.77777777777777 131.71334906219488"/>
</g>
</g>
<g transform="matrix(1.0 0.0 0.0 1.0 347.93055555555554 350.0)">
<g >
<path fill="#d0e4fe" d="M 12.0 59.959L12.0 129.99L4.0 129.99L4.0 59.8797L4.0 52.91311559204101L12.0 52.91311559204101L12.0 59.959z"/>
<path fill="#d0e4fe" d="M 32.0 96.41489999999999L32.0 95.66751559204101L40.0 95.66751559204101L40.0 96.41489999999999L32.0 96.41489999999999z"/>
<path fill="#75aef7" d="M -36.0 89.44051559204102L-36.0 96.3343L-44.0 96.3343L-44.0 89.44051559204102L-36.0 89.44051559204102z"/>
<path fill="#75aef7" d="M -52.0 89.3338L-52.0 48.27471559204101L-44.0 48.27471559204101L-44.0 89.3338L-52.0 89.3338z"/>
<path fill="#75aef7" d="M -4.0 61.79991559204102L-4.0 77.85891559204101L-4.0 105.3485L-12.0 105.3485L-12.0 77.85891559204101L-12.0 68.40899999999999L-12.0 61.79991559204102L-4.0 61.79991559204102z"/>
<path fill="#d0e4fe" d="M 28.0 82.52569999999999L28.0 105.28349999999999L20.0 105.28349999999999L20.0 76.48481559204102L20.0 62.01441559204102L28.0 62.01441559204102L28.0 76.48481559204102L28.0 82.52569999999999z"/>
<path fill="#75aef7" d="M 48.0 68.43589999999999L48.0 82.53569999999999L48.0 83.39041559204102L48.0 95.66761559204102L48.0 116.58309999999999L40.0 116.58309999999999L40.0 96.41489999999999L40.0 95.66761559204102L32.0 95.66761559204102L32.0 83.39041559204102L32.0 82.53569999999999L32.0 82.52569999999999L28.0 82.52569999999999L28.0 62.014515592041015L20.0 62.014515592041015L20.0 59.969L20.0 59.959L12.0 59.959L12.0 52.91321559204101L4.0 52.91321559204101L4.0 52.788315592041016L12.0 52.788315592041016L20.0 52.788315592041016L28.0 52.788315592041016L32.0 52.788315592041016L40.0 52.788315592041016L48.0 52.788315592041016L56.0 52.788315592041016L56.0 52.91321559204101L56.0 62.014515592041015L56.0 68.42589999999998L48.0 68.42589999999998L48.0 68.43589999999999z"/>
<path fill="#3077cb" stroke-width="116.0" d="M 56.0 20.9547L56.0 52.78841559204101L48.0 52.78841559204101L27.999999999999996 52.78841559204101L20.0 52.78841559204101L12.0 52.78841559204101L4.0 52.78841559204101L4.0 59.8797L-4.0 59.8797L-4.0 59.88969999999999L-4.0 61.80001559204102L-12.0 61.80001559204102L-12.0 68.40899999999999L-20.0 68.40899999999999L-20.0 68.41899999999998L-20.0 82.50319999999999L-20.0 83.39041559204101L-20.0 89.44061559204103L-20.0 116.47L-28.0 116.47L-28.0 89.44061559204103L-28.0 82.49319999999999L-36.0 82.49319999999999L-36.0 89.44061559204103L-44.0 89.44061559204103L-44.0 89.3338L-44.0 83.39041559204102L-44.0 64.8141L-44.0 61.80001559204102L-44.0 48.27481559204101L-52.0 48.27481559204101L-52.0 20.9547L-52.0 16.9547L56.0 16.9547L56.0 20.9547z"/>
</g>
</g>
<g transform="matrix(1.0 0.0 0.0 1.0 347.93055555555554 350.0)">
<g >
<path fill="none" stroke="#000000" stroke-width="0.2777777777777778" d="M -48.0 20.9547L-48.0 89.3438"/>
<path fill="none" stroke="#000000" stroke-width="0.2777777777777778" d="M -48.0 20.9547L-48.0 89.3438"/>
<path fill="none" stroke="#000000" stroke-width="0.2777777777777778" d="M 44.0 20.9547L44.0 25.1875"/>
<path fill="none" stroke="#000000" stroke-width="0.2777777777777778" d="M 44.138888888888886 20.9547L-48.0 20.9547"/>
<path fill="none" stroke="#000000" stroke-width="0.2777777777777778" d="M 8.0 25.1875L8.0 25.361700000000003"/>
<path fill="none" stroke="#000000" stroke-width="0.2777777777777778" d="M 7.861111111111111 25.1875L44.0 25.1875"/>
<path fill="none" stroke="#000000" stroke-width="0.2777777777777778" d="M -24.0 25.361700000000003L-24.0 34.2654"/>
<path fill="none" stroke="#000000" stroke-width="0.2777777777777778" d="M -24.13888888888889 25.361700000000003L8.0 25.361700000000003"/>
<path fill="none" stroke="#000000" stroke-width="0.2777777777777778" d="M -24.0 34.2654L-24.0 51.922"/>
<path fill="none" stroke="#000000" stroke-width="0.2777777777777778" d="M -24.0 34.2654L-24.0 51.922"/>
<path fill="none" stroke="#000000" stroke-width="0.2777777777777778" d="M -24.0 51.922L-24.0 53.7407"/>
<path fill="none" stroke="#000000" stroke-width="0.2777777777777778" d="M -24.0 51.922L-24.0 53.7407"/>
<path fill="none" stroke="#000000" stroke-width="0.2777777777777778" d="M -40.0 53.7407L-40.0 64.8141"/>
<path fill="none" stroke="#000000" stroke-width="0.2777777777777778" d="M -40.138888888888886 53.7407L-24.0 53.7407"/>
<path fill="none" stroke="#000000" stroke-width="0.2777777777777778" d="M -40.0 64.8141L-40.0 96.3443"/>
<path fill="none" stroke="#000000" stroke-width="0.2777777777777778" d="M -40.0 64.8141L-40.0 96.3443"/>
<path fill="none" stroke="#000000" stroke-width="0.2777777777777778" d="M -32.0 64.8141L-32.0 82.50319999999999"/>
<path fill="none" stroke="#000000" stroke-width="0.2777777777777778" d="M -31.86111111111111 64.8141L-40.0 64.8141"/>
<path fill="none" stroke="#000000" stroke-width="0.2777777777777778" d="M -24.0 53.7407L-24.0 116.48"/>
<path fill="none" stroke="#000000" stroke-width="0.2777777777777778" d="M -24.0 53.7407L-24.0 116.48"/>
<path fill="none" stroke="#000000" stroke-width="0.2777777777777778" d="M -16.0 51.922L-16.0 68.419"/>
<path fill="none" stroke="#000000" stroke-width="0.2777777777777778" d="M -15.86111111111111 51.922L-24.0 51.922"/>
<path fill="none" stroke="#000000" stroke-width="0.2777777777777778" d="M -8.0 34.2654L-8.0 46.4178"/>
<path fill="none" stroke="#000000" stroke-width="0.2777777777777778" d="M -7.861111111111111 34.2654L-24.0 34.2654"/>
<path fill="none" stroke="#000000" stroke-width="0.2777777777777778" d="M -8.0 46.4178L-8.0 105.3585"/>
<path fill="none" stroke="#000000" stroke-width="0.2777777777777778" d="M -8.0 46.4178L-8.0 105.3585"/>
<path fill="none" stroke="#000000" stroke-width="0.2777777777777778" d="M 0.0 46.4178L0.0 59.8897"/>
<path fill="none" stroke="#000000" stroke-width="0.2777777777777778" d="M 0.1388888888888889 46.4178L-8.0 46.4178"/>
<path fill="none" stroke="#000000" stroke-width="0.2777777777777778" d="M 8.0 25.361700000000003L8.0 130.0"/>
<path fill="none" stroke="#000000" stroke-width="0.2777777777777778" d="M 8.0 25.361700000000003L8.0 130.0"/>
<path fill="none" stroke="#000000" stroke-width="0.2777777777777778" d="M 44.0 25.1875L44.0 32.3336"/>
<path fill="none" stroke="#000000" stroke-width="0.2777777777777778" d="M 44.0 25.1875L44.0 32.3336"/>
<path fill="none" stroke="#000000" stroke-width="0.2777777777777778" d="M 24.0 32.3336L24.0 46.465900000000005"/>
<path fill="none" stroke="#000000" stroke-width="0.2777777777777778" d="M 23.86111111111111 32.3336L44.0 32.3336"/>
<path fill="none" stroke="#000000" stroke-width="0.2777777777777778" d="M 16.0 46.465900000000005L16.0 59.969"/>
<path fill="none" stroke="#000000" stroke-width="0.2777777777777778" d="M 15.86111111111111 46.465900000000005L24.0 46.465900000000005"/>
<path fill="none" stroke="#000000" stroke-width="0.2777777777777778" d="M 24.0 46.465900000000005L24.0 105.2935"/>
<path fill="none" stroke="#000000" stroke-width="0.2777777777777778" d="M 24.0 46.465900000000005L24.0 105.2935"/>
<path fill="none" stroke="#000000" stroke-width="0.2777777777777778" d="M 44.0 32.3336L44.0 51.922"/>
<path fill="none" stroke="#000000" stroke-width="0.2777777777777778" d="M 44.0 32.3336L44.0 51.922"/>
<path fill="none" stroke="#000000" stroke-width="0.2777777777777778" d="M 44.0 51.922L44.0 61.965799999999994"/>
<path fill="none" stroke="#000000" stroke-width="0.2777777777777778" d="M 44.0 51.922L44.0 61.965799999999994"/>
<path fill="none" stroke="#000000" stroke-width="0.2777777777777778" d="M 36.0 61.965799999999994L36.0 65.0234"/>
<path fill="none" stroke="#000000" stroke-width="0.2777777777777778" d="M 35.861111111111114 61.965799999999994L44.0 61.965799999999994"/>
<path fill="none" stroke="#000000" stroke-width="0.2777777777777778" d="M 30.0 65.0234L30.0 82.53569999999999"/>
<path fill="none" stroke="#000000" stroke-width="0.2777777777777778" d="M 29.86111111111111 65.0234L36.0 65.0234"/>
<path fill="none" stroke="#000000" stroke-width="0.2777777777777778" d="M 36.0 65.0234L36.0 96.4249"/>
<path fill="none" stroke="#000000" stroke-width="0.2777777777777778" d="M 36.0 65.0234L36.0 96.4249"/>
<path fill="none" stroke="#000000" stroke-width="0.2777777777777778" d="M 44.0 61.965799999999994L44.0 116.59309999999999"/>
<path fill="none" stroke="#000000" stroke-width="0.2777777777777778" d="M 44.0 61.965799999999994L44.0 116.59309999999999"/>
<path fill="none" stroke="#000000" stroke-width="0.2777777777777778" d="M 52.0 51.922L52.0 68.43589999999999"/>
<path fill="none" stroke="#000000" stroke-width="0.2777777777777778" d="M 52.138888888888886 51.922L44.0 51.922"/>
</g>
</g>
<g transform="matrix(1.0 0.0 0.0 1.0 347.93055555555554 350.0)">
<g >
<path fill="none" stroke="#000000" stroke-width="2.5" d="M -48.0 20.9547L-48.0 -4.044715592041015"/>
<path fill="none" stroke="#000000" stroke-width="2.5" d="M -48.0 20.9547L-48.0 76.17640396039604L-48.0 20.9547L-48.0 76.17640396039604L-48.0 20.9547L-48.0 -7.205015592041015"/>
<path fill="#c64340" stroke="#000000" stroke-width="0.375" d="M -50.5 -9.705015592041015L-45.5 -9.705015592041015L-45.5 -4.705015592041015L-50.5 -4.705015592041015L-50.5 -9.705015592041015z"/>
<path fill="#c64340" stroke="#c64340" stroke-width="1.75" d="M -48.0 20.9547L-48.0 75.80140396039604L-48.0 20.9547L-48.0 75.80140396039604L-48.0 20.9547L-48.0 -7.205015592041015"/>
<path fill="none" stroke="#000000" stroke-width="2.5" d="M 44.0 61.965799999999994L44.0 98.30827970297028L44.0 61.965799999999994L44.0 98.30827970297028L44.0 51.922L44.0 61.965799999999994L44.0 32.3336L44.0 51.922L44.0 25.1875L44.0 32.3336L44.0 20.9547L44.0 25.1875"/>
<path fill="#fb827a" stroke="#000000" stroke-width="0.375" d="M 41.5 18.4547L46.5 18.4547L46.5 23.4547L41.5 23.4547L41.5 18.4547z"/>
<path fill="#fb827a" stroke="#fb827a" stroke-width="1.75" d="M 44.0 61.965799999999994L44.0 97.93327970297028L44.0 61.965799999999994L44.0 97.93327970297028L44.0 51.922L44.0 61.965799999999994L44.0 32.3336L44.0 51.922L44.0 25.1875L44.0 32.3336L44.0 20.9547L44.0 25.1875"/>
<path fill="none" stroke="#000000" stroke-width="2.5" d="M 8.0 25.361700000000003L8.0 105.51045346534653L8.0 25.361700000000003L8.0 105.51045346534653L8.0 25.1875L8.0 25.361700000000003"/>
<path fill="#ffd6d1" stroke="#000000" stroke-width="0.375" d="M 5.5 22.6875L10.5 22.6875L10.5 27.6875L5.5 27.6875L5.5 22.6875z"/>
<path fill="#ffd6d1" stroke="#ffd6d1" stroke-width="1.75" d="M 8.0 25.361700000000003L8.0 105.13545346534653L8.0 25.361700000000003L8.0 105.13545346534653L8.0 25.1875L8.0 25.361700000000003"/>
<path fill="none" stroke="#000000" stroke-width="2.5" d="M -24.0 53.7407L-24.0 98.21956435643565L-24.0 53.7407L-24.0 98.21956435643565L-24.0 51.922L-24.0 53.7407L-24.0 34.2654L-24.0 51.922L-24.0 25.361700000000003L-24.0 34.2654"/>
<path fill="#fb827a" stroke="#000000" stroke-width="0.375" d="M -26.5 22.861700000000003L-21.5 22.861700000000003L-21.5 27.861700000000003L-26.5 27.861700000000003L-26.5 22.861700000000003z"/>
<path fill="#fb827a" stroke="#fb827a" stroke-width="1.75" d="M -24.0 53.7407L-24.0 97.84456435643564L-24.0 53.7407L-24.0 97.84456435643564L-24.0 51.922L-24.0 53.7407L-24.0 34.2654L-24.0 51.922L-24.0 25.361700000000003L-24.0 34.2654"/>
<path fill="none" stroke="#000000" stroke-width="2.5" d="M -8.0 46.4178L-8.0 105.14992871287129L-8.0 46.4178L-8.0 105.14992871287129L-8.0 34.2654L-8.0 46.4178"/>
<path fill="#c64340" stroke="#000000" stroke-width="0.375" d="M -10.5 31.7654L-5.5 31.7654L-5.5 36.7654L-10.5 36.7654L-10.5 31.7654z"/>
<path fill="#c64340" stroke="#c64340" stroke-width="1.75" d="M -8.0 46.4178L-8.0 104.77492871287129L-8.0 46.4178L-8.0 104.77492871287129L-8.0 34.2654L-8.0 46.4178"/>
<path fill="none" stroke="#000000" stroke-width="2.5" d="M 24.0 46.465900000000005L24.0 104.79482277227723L24.0 46.465900000000005L24.0 104.79482277227723L24.0 32.3336L24.0 46.465900000000005"/>
<path fill="#c64340" stroke="#000000" stroke-width="0.375" d="M 21.5 29.833599999999997L26.5 29.833599999999997L26.5 34.8336L21.5 34.8336L21.5 29.833599999999997z"/>
<path fill="#c64340" stroke="#c64340" stroke-width="1.75" d="M 24.0 46.465900000000005L24.0 104.41982277227723L24.0 46.465900000000005L24.0 104.41982277227723L24.0 32.3336L24.0 46.465900000000005"/>
<path fill="none" stroke="#000000" stroke-width="2.5" d="M 0.0 46.4178L0.0 47.72649603960396L0.0 46.4178L0.0 47.72649603960396"/>
<path fill="#fb827a" stroke="#000000" stroke-width="0.375" d="M -2.5 43.9178L2.5 43.9178L2.5 48.9178L-2.5 48.9178L-2.5 43.9178z"/>
<path fill="#fb827a" stroke="#fb827a" stroke-width="1.75" d="M 0.0 46.4178L0.0 47.35149603960396L0.0 46.4178L0.0 47.35149603960396"/>
<path fill="none" stroke="#000000" stroke-width="2.5" d="M 16.0 46.465900000000005L16.0 47.77675841584159L16.0 46.465900000000005L16.0 47.77675841584159"/>
<path fill="#fb827a" stroke="#000000" stroke-width="0.375" d="M 13.5 43.965900000000005L18.5 43.965900000000005L18.5 48.965900000000005L13.5 48.965900000000005L13.5 43.965900000000005z"/>
<path fill="#fb827a" stroke="#fb827a" stroke-width="1.75" d="M 16.0 46.465900000000005L16.0 47.40175841584159L16.0 46.465900000000005L16.0 47.40175841584159"/>
<path fill="none" stroke="#000000" stroke-width="2.5" d="M -16.0 51.922L-16.0 53.35868811881188L-16.0 51.922L-16.0 53.35868811881188"/>
<path fill="#ffd6d1" stroke="#000000" stroke-width="0.375" d="M -18.5 49.422L-13.5 49.422L-13.5 54.422L-18.5 54.422L-18.5 49.422z"/>
<path fill="#ffd6d1" stroke="#ffd6d1" stroke-width="1.75" d="M -16.0 51.922L-16.0 52.98368811881188L-16.0 51.922L-16.0 52.98368811881188"/>
<path fill="none" stroke="#000000" stroke-width="2.5" d="M 52.0 51.922L52.0 53.35977574257426L52.0 51.922L52.0 53.35977574257426"/>
<path fill="#ffd6d1" stroke="#000000" stroke-width="0.375" d="M 49.5 49.422L54.5 49.422L54.5 54.422L49.5 54.422L49.5 49.422z"/>
<path fill="#ffd6d1" stroke="#ffd6d1" stroke-width="1.75" d="M 52.0 51.922L52.0 52.98477574257426L52.0 51.922L52.0 52.98477574257426"/>
<path fill="none" stroke="#000000" stroke-width="2.5" d="M -40.0 64.8141L-40.0 81.4224702970297L-40.0 64.8141L-40.0 81.4224702970297L-40.0 53.7407L-40.0 64.8141"/>
<path fill="#ffd6d1" stroke="#000000" stroke-width="0.375" d="M -42.5 51.2407L-37.5 51.2407L-37.5 56.2407L-42.5 56.2407L-42.5 51.2407z"/>
<path fill="#ffd6d1" stroke="#ffd6d1" stroke-width="1.75" d="M -40.0 64.8141L-40.0 81.0474702970297L-40.0 64.8141L-40.0 81.0474702970297L-40.0 53.7407L-40.0 64.8141"/>
<path fill="none" stroke="#000000" stroke-width="2.5" d="M 36.0 65.0234L36.0 82.80913267326733L36.0 65.0234L36.0 82.80913267326733L36.0 61.965799999999994L36.0 65.0234"/>
<path fill="#ffd6d1" stroke="#000000" stroke-width="0.375" d="M 33.5 59.465799999999994L38.5 59.465799999999994L38.5 64.4658L33.5 64.4658L33.5 59.465799999999994z"/>
<path fill="#ffd6d1" stroke="#ffd6d1" stroke-width="1.75" d="M 36.0 65.0234L36.0 82.43413267326733L36.0 65.0234L36.0 82.43413267326733L36.0 61.965799999999994L36.0 65.0234"/>
<path fill="none" stroke="#000000" stroke-width="2.5" d="M -32.0 64.8141L-32.0 82.440350990099L-32.0 64.8141L-32.0 82.440350990099"/>
<path fill="#c64340" stroke="#000000" stroke-width="0.375" d="M -34.5 62.314099999999996L-29.5 62.314099999999996L-29.5 67.3141L-34.5 67.3141L-34.5 62.314099999999996z"/>
<path fill="#c64340" stroke="#c64340" stroke-width="1.75" d="M -32.0 64.8141L-32.0 82.065350990099L-32.0 64.8141L-32.0 82.065350990099"/>
</g>
</g>
<g transform="matrix(1.0 0.0 0.0 1.0 443.1388888888889 350.0)">
<g >
<path fill="#c64340" d="M -4.0 106.5783L-4.0 105.3303L-4.0 88.973815592041L4.0 88.973815592041L4.0 106.5783L-4.0 106.5783z"/>
<path fill="#ffd6d1" d="M 52.0 105.2688L52.0 106.8825L48.0 106.8825L48.0 105.2688L48.0 89.18321559204101L48.0 86.12551559204101L52.0 86.12551559204101L60.0 86.12551559204101L60.0 89.18321559204101L60.0 105.2588L52.0 105.2588L52.0 105.2688z"/>
<path fill="#ffd6d1" d="M -8.0 105.3303L-8.0 100.63729999999998L-8.0 88.97391559204101L-8.0 82.1964L-8.0 77.90041559204101L-4.0 77.90041559204101L4.0 77.90041559204101L4.0 82.1964L4.0 88.97391559204101L-4.0 88.97391559204101L-4.0 105.3303L-8.0 105.3303z"/>
<path fill="#ffd6d1" d="M 68.0 77.119L68.0 76.08171559204101L72.0 76.08171559204101L72.0 77.119L68.0 77.119z"/>
<path fill="#ffd6d1" d="M 12.0 77.10079999999999L12.0 76.08171559204101L16.0 76.08171559204101L16.0 77.10079999999999L12.0 77.10079999999999z"/>
<path fill="#fb827a" d="M 36.0 71.5329L36.0 70.62561559204102L40.0 70.62561559204102L40.0 71.5329L36.0 71.5329z"/>
<path fill="#fb827a" d="M 24.0 71.5329L24.0 70.57751559204101L28.0 70.57751559204101L28.0 71.5329L24.0 71.5329z"/>
<path fill="#c64340" d="M 48.0 106.8825L48.0 129.3296L40.0 129.3296L40.0 71.5329L40.0 70.62571559204102L36.0 70.62571559204102L36.0 56.493315592041014L40.0 56.493315592041014L48.0 56.493315592041014L48.0 70.62571559204102L48.0 106.8825z"/>
<path fill="#c64340" d="M 24.0 71.5329L24.0 129.5077L16.0 129.5077L16.0 77.10079999999999L16.0 70.57761559204101L16.0 58.42511559204101L24.0 58.42511559204101L28.0 58.42511559204101L28.0 70.57761559204101L24.0 70.57761559204101L24.0 71.5329z"/>
<path fill="#fb827a" d="M 12.0 77.10079999999999L12.0 77.90051559204102L12.0 122.3174L4.0 122.3174L4.0 106.5783L4.0 77.90051559204102L-4.0 77.90051559204102L-4.0 76.08181559204101L-4.0 49.521415592041016L4.0 49.521415592041016L12.0 49.521415592041016L16.0 49.521415592041016L24.0 49.521415592041016L28.0 49.521415592041016L28.0 58.42521559204101L24.0 58.42521559204101L16.0 58.42521559204101L16.0 76.08181559204101L12.0 76.08181559204101L12.0 77.10079999999999z"/>
<path fill="#ffd6d1" d="M 28.0 129.99L28.0 71.53289999999998L28.0 49.52151559204101L24.0 49.52151559204101L16.0 49.52151559204101L4.0 49.52151559204101L4.0 49.34721559204101L16.0 49.34721559204101L28.0 49.34721559204101L36.0 49.34721559204101L36.0 49.52151559204101L36.0 71.5329L36.0 129.99L28.0 129.99z"/>
<path fill="#fb827a" d="M 68.0 77.119L68.0 81.57239999999999L68.0 86.12561559204102L68.0 122.5137L60.0 122.5137L60.0 105.2588L60.0 86.12561559204102L52.0 86.12561559204102L48.0 86.12561559204102L48.0 56.493415592041L40.0 56.493415592041L36.0 56.49341559204101L36.0 49.347315592041014L28.0 49.347315592041014L16.0 49.347315592041014L4.0 49.347315592041014L4.0 45.11441559204101L16.0 45.11441559204101L28.0 45.11441559204101L36.0 45.11441559204101L40.0 45.11441559204101L48.0 45.11441559204101L52.0 45.11441559204101L60.0 45.11441559204101L68.0 45.11441559204101L72.0 45.11441559204101L72.0 76.08181559204101L68.0 76.08181559204101L68.0 77.119z"/>
<path fill="#c64340" stroke-width="92.0" d="M 3.999999999999999 45.114515592041016L-8.000000000000007 45.114515592041016L-8.0 100.63729999999998L-16.0 100.63729999999998L-16.0 45.114515592041016L-16.0 37.8547L-16.0 37.6402L-16.0 28.7534L-16.0 28.6286L-16.0 24.115L-16.0 16.9547L68.0 16.9547L68.0 24.115L68.0 28.7534L68.0 37.8547L68.0 45.114515592041016L48.0 45.114515592041016L36.0 45.114515592041016L24.0 45.114515592041016L11.999999999999996 45.114515592041016L3.999999999999999 45.114515592041016z"/>
</g>
</g>
<g transform="matrix(1.0 0.0 0.0 1.0 443.1388888888889 350.0)">
<g >
<path fill="none" stroke="#000000" stroke-width="0.2777777777777778" d="M -12.0 24.115L-12.0 100.64729999999999"/>
<path fill="none" stroke="#000000" stroke-width="0.2777777777777778" d="M -12.13888888888889 24.115L8.0 24.115"/>
<path fill="none" stroke="#000000" stroke-width="0.2777777777777778" d="M 8.0 24.115L8.0 28.6286"/>
<path fill="none" stroke="#000000" stroke-width="0.2777777777777778" d="M 8.0 24.115L8.0 28.6286"/>
<path fill="none" stroke="#000000" stroke-width="0.2777777777777778" d="M 8.0 28.6286L8.0 37.6402"/>
<path fill="none" stroke="#000000" stroke-width="0.2777777777777778" d="M 8.0 28.6286L8.0 37.6402"/>
<path fill="none" stroke="#000000" stroke-width="0.2777777777777778" d="M 8.0 37.6402L8.0 59.2306"/>
<path fill="none" stroke="#000000" stroke-width="0.2777777777777778" d="M 8.0 37.6402L8.0 59.2306"/>
<path fill="none" stroke="#000000" stroke-width="0.2777777777777778" d="M 8.0 59.2306L8.0 65.28080000000001"/>
<path fill="none" stroke="#000000" stroke-width="0.2777777777777778" d="M 8.0 59.2306L8.0 65.28080000000001"/>
<path fill="none" stroke="#000000" stroke-width="0.2777777777777778" d="M 0.0 65.28080000000001L0.0 82.1964"/>
<path fill="none" stroke="#000000" stroke-width="0.2777777777777778" d="M -0.1388888888888889 65.28080000000001L8.0 65.28080000000001"/>
<path fill="none" stroke="#000000" stroke-width="0.2777777777777778" d="M -6.0 82.1964L-6.0 105.3403"/>
<path fill="none" stroke="#000000" stroke-width="0.2777777777777778" d="M -6.138888888888889 82.1964L0.0 82.1964"/>
<path fill="none" stroke="#000000" stroke-width="0.2777777777777778" d="M 0.0 82.1964L0.0 106.5883"/>
<path fill="none" stroke="#000000" stroke-width="0.2777777777777778" d="M 0.0 82.1964L0.0 106.5883"/>
<path fill="none" stroke="#000000" stroke-width="0.2777777777777778" d="M 8.0 65.28080000000001L8.0 122.32740000000001"/>
<path fill="none" stroke="#000000" stroke-width="0.2777777777777778" d="M 8.0 65.28080000000001L8.0 122.32740000000001"/>
<path fill="none" stroke="#000000" stroke-width="0.2777777777777778" d="M 14.0 59.2306L14.0 77.1108"/>
<path fill="none" stroke="#000000" stroke-width="0.2777777777777778" d="M 14.13888888888889 59.2306L8.0 59.2306"/>
<path fill="none" stroke="#000000" stroke-width="0.2777777777777778" d="M 20.0 37.6402L20.0 53.6991"/>
<path fill="none" stroke="#000000" stroke-width="0.2777777777777778" d="M 20.13888888888889 37.6402L8.0 37.6402"/>
<path fill="none" stroke="#000000" stroke-width="0.2777777777777778" d="M 20.0 53.6991L20.0 129.5177"/>
<path fill="none" stroke="#000000" stroke-width="0.2777777777777778" d="M 20.0 53.6991L20.0 129.5177"/>
<path fill="none" stroke="#000000" stroke-width="0.2777777777777778" d="M 26.0 53.6991L26.0 71.5429"/>
<path fill="none" stroke="#000000" stroke-width="0.2777777777777778" d="M 26.13888888888889 53.6991L20.0 53.6991"/>
<path fill="none" stroke="#000000" stroke-width="0.2777777777777778" d="M 64.0 28.6286L64.0 28.7534"/>
<path fill="none" stroke="#000000" stroke-width="0.2777777777777778" d="M 64.13888888888889 28.6286L8.0 28.6286"/>
<path fill="none" stroke="#000000" stroke-width="0.2777777777777778" d="M 32.0 28.7534L32.0 130.0"/>
<path fill="none" stroke="#000000" stroke-width="0.2777777777777778" d="M 31.86111111111111 28.7534L64.0 28.7534"/>
<path fill="none" stroke="#000000" stroke-width="0.2777777777777778" d="M 64.0 28.7534L64.0 37.8547"/>
<path fill="none" stroke="#000000" stroke-width="0.2777777777777778" d="M 64.0 28.7534L64.0 37.8547"/>
<path fill="none" stroke="#000000" stroke-width="0.2777777777777778" d="M 44.0 37.8547L44.0 52.325"/>
<path fill="none" stroke="#000000" stroke-width="0.2777777777777778" d="M 43.861111111111114 37.8547L64.0 37.8547"/>
<path fill="none" stroke="#000000" stroke-width="0.2777777777777778" d="M 38.0 52.325L38.0 71.5429"/>
<path fill="none" stroke="#000000" stroke-width="0.2777777777777778" d="M 37.861111111111114 52.325L44.0 52.325"/>
<path fill="none" stroke="#000000" stroke-width="0.2777777777777778" d="M 44.0 52.325L44.0 129.3396"/>
<path fill="none" stroke="#000000" stroke-width="0.2777777777777778" d="M 44.0 52.325L44.0 129.3396"/>
<path fill="none" stroke="#000000" stroke-width="0.2777777777777778" d="M 64.0 37.8547L64.0 59.2306"/>
<path fill="none" stroke="#000000" stroke-width="0.2777777777777778" d="M 64.0 37.8547L64.0 59.2306"/>
<path fill="none" stroke="#000000" stroke-width="0.2777777777777778" d="M 64.0 59.2306L64.0 71.5078"/>
<path fill="none" stroke="#000000" stroke-width="0.2777777777777778" d="M 64.0 59.2306L64.0 71.5078"/>
<path fill="none" stroke="#000000" stroke-width="0.2777777777777778" d="M 56.0 71.5078L56.0 81.5724"/>
<path fill="none" stroke="#000000" stroke-width="0.2777777777777778" d="M 55.861111111111114 71.5078L64.0 71.5078"/>
<path fill="none" stroke="#000000" stroke-width="0.2777777777777778" d="M 50.0 81.5724L50.0 106.8925"/>
<path fill="none" stroke="#000000" stroke-width="0.2777777777777778" d="M 49.861111111111114 81.5724L56.0 81.5724"/>
<path fill="none" stroke="#000000" stroke-width="0.2777777777777778" d="M 56.0 81.5724L56.0 105.2688"/>
<path fill="none" stroke="#000000" stroke-width="0.2777777777777778" d="M 56.0 81.5724L56.0 105.2688"/>
<path fill="none" stroke="#000000" stroke-width="0.2777777777777778" d="M 64.0 71.5078L64.0 122.5237"/>
<path fill="none" stroke="#000000" stroke-width="0.2777777777777778" d="M 64.0 71.5078L64.0 122.5237"/>
<path fill="none" stroke="#000000" stroke-width="0.2777777777777778" d="M 70.0 59.2306L70.0 77.129"/>
<path fill="none" stroke="#000000" stroke-width="0.2777777777777778" d="M 70.13888888888889 59.2306L64.0 59.2306"/>
</g>
</g>
<g transform="matrix(1.0 0.0 0.0 1.0 443.1388888888889 350.0)">
<g >
<path fill="none" stroke="#000000" stroke-width="2.5" d="M 8.0 24.115L8.0 -7.205015592041015"/>
<path fill="none" stroke="#000000" stroke-width="2.5" d="M 8.0 65.28080000000001L8.0 92.48464653465348L8.0 65.28080000000001L8.0 92.48464653465348L8.0 59.2306L8.0 65.28080000000001L8.0 37.6402L8.0 59.2306L8.0 28.6286L8.0 37.6402L8.0 24.115L8.0 28.6286L8.0 24.115L8.0 -7.205015592041015"/>
<path fill="#3077cb" stroke="#000000" stroke-width="0.375" d="M 5.5 -9.705015592041015L10.5 -9.705015592041015L10.5 -4.705015592041015L5.5 -4.705015592041015L5.5 -9.705015592041015z"/>
<path fill="#3077cb" stroke="#3077cb" stroke-width="1.75" d="M 8.0 65.28080000000001L8.0 92.10964653465348L8.0 65.28080000000001L8.0 92.10964653465348L8.0 59.2306L8.0 65.28080000000001L8.0 37.6402L8.0 59.2306L8.0 28.6286L8.0 37.6402L8.0 24.115L8.0 28.6286L8.0 24.115L8.0 -7.205015592041015"/>
<path fill="none" stroke="#000000" stroke-width="2.5" d="M 64.0 71.5078L64.0 92.59222475247525L64.0 71.5078L64.0 92.59222475247525L64.0 59.2306L64.0 71.5078L64.0 37.8547L64.0 59.2306L64.0 28.7534L64.0 37.8547L64.0 28.6286L64.0 28.7534"/>
<path fill="#75aef7" stroke="#000000" stroke-width="0.375" d="M 61.5 26.1286L66.5 26.1286L66.5 31.1286L61.5 31.1286L61.5 26.1286z"/>
<path fill="#75aef7" stroke="#75aef7" stroke-width="1.75" d="M 64.0 71.5078L64.0 92.21722475247526L64.0 71.5078L64.0 92.21722475247526L64.0 59.2306L64.0 71.5078L64.0 37.8547L64.0 59.2306L64.0 28.7534L64.0 37.8547L64.0 28.6286L64.0 28.7534"/>
<path fill="none" stroke="#000000" stroke-width="2.5" d="M 44.0 52.325L44.0 81.2945297029703L44.0 52.325L44.0 81.2945297029703L44.0 37.8547L44.0 52.325"/>
<path fill="#d0e4fe" stroke="#000000" stroke-width="0.375" d="M 41.5 35.3547L46.5 35.3547L46.5 40.3547L41.5 40.3547L41.5 35.3547z"/>
<path fill="#d0e4fe" stroke="#d0e4fe" stroke-width="1.75" d="M 44.0 52.325L44.0 80.9195297029703L44.0 52.325L44.0 80.9195297029703L44.0 37.8547L44.0 52.325"/>
<path fill="none" stroke="#000000" stroke-width="2.5" d="M 20.0 53.6991L20.0 81.0985514851485L20.0 53.6991L20.0 81.0985514851485L20.0 37.6402L20.0 53.6991"/>
<path fill="#75aef7" stroke="#000000" stroke-width="0.375" d="M 17.5 35.1402L22.5 35.1402L22.5 40.1402L17.5 40.1402L17.5 35.1402z"/>
<path fill="#75aef7" stroke="#75aef7" stroke-width="1.75" d="M 20.0 53.6991L20.0 80.7235514851485L20.0 53.6991L20.0 80.7235514851485L20.0 37.6402L20.0 53.6991"/>
<path fill="none" stroke="#000000" stroke-width="2.5" d="M -12.0 24.115L-12.0 65.40825940594058L-12.0 24.115L-12.0 65.40825940594058"/>
<path fill="#75aef7" stroke="#000000" stroke-width="0.375" d="M -14.5 21.615L-9.5 21.615L-9.5 26.615L-14.5 26.615L-14.5 21.615z"/>
<path fill="#75aef7" stroke="#75aef7" stroke-width="1.75" d="M -12.0 24.115L-12.0 65.0332594059406L-12.0 24.115L-12.0 65.0332594059406"/>
<path fill="none" stroke="#000000" stroke-width="2.5" d="M 0.0 65.28080000000001L0.0 72.43878811881189L0.0 65.28080000000001L0.0 72.43878811881189"/>
<path fill="#75aef7" stroke="#000000" stroke-width="0.375" d="M -2.5 62.78080000000001L2.5 62.78080000000001L2.5 67.78080000000001L-2.5 67.78080000000001L-2.5 62.78080000000001z"/>
<path fill="#75aef7" stroke="#75aef7" stroke-width="1.75" d="M 0.0 65.28080000000001L0.0 72.06378811881189L0.0 65.28080000000001L0.0 72.06378811881189"/>
<path fill="none" stroke="#000000" stroke-width="2.5" d="M 56.0 71.5078L56.0 72.63017128712872L56.0 71.5078L56.0 72.63017128712872"/>
<path fill="#d0e4fe" stroke="#000000" stroke-width="0.375" d="M 53.5 69.0078L58.5 69.0078L58.5 74.0078L53.5 74.0078L53.5 69.0078z"/>
<path fill="#d0e4fe" stroke="#d0e4fe" stroke-width="1.75" d="M 56.0 71.5078L56.0 72.25517128712872L56.0 71.5078L56.0 72.25517128712872"/>
<path fill="none" stroke="#000000" stroke-width="2.5" d="M 32.0 28.7534L32.0 105.3139603960396L32.0 28.7534L32.0 105.3139603960396"/>
<path fill="#d0e4fe" stroke="#000000" stroke-width="0.375" d="M 29.5 26.2534L34.5 26.2534L34.5 31.2534L29.5 31.2534L29.5 26.2534z"/>
<path fill="#d0e4fe" stroke="#d0e4fe" stroke-width="1.75" d="M 32.0 28.7534L32.0 104.9389603960396L32.0 28.7534L32.0 104.9389603960396"/>
</g>
</g>
</g>
</svg>