<?xml version="1.0" encoding="utf-8"?>
<svg version="1.2" baseProfile="tiny" id="openrndr-svg" xmlns="http://www.w3.org/2000/svg" xmlns:xlink="http://www.w3.org/1999/xlink" width="768.0" height="576.0" x="0.0" y="0.0" ><g >
<g transform="matrix(1.0 0.0 0.0 1.0 373.8611111111111 350.0)">
<g >
<path fill="#75aef7" d="M -2.0 64.68983193269058L-2.0 65.1333630850381L-10.0 65.1333630850381L-10.0 47.32440740080875L-10.0 45.81813123231076L-14.0 45.81813123231076L-14.0 44.474341807099194L-18.0 44.474341807099194L-18.0 36.594882591510576L-22.0 36.594882591510576L-22.0 47.314407400808754L-26.0 47.314407400808754L-26.0 29.918043659927214L-26.0 26.06039560945217L-22.0 26.06039560945217L-18.0 26.06039560945217L-14.0 26.06039560945217L-10.0 26.06039560945217L-2.0 26.06039560945217L-2.0 29.918043659927214L-2.0 36.604882591510574L-2.0 44.484341807099185L-2.0 45.82813123231076L-2.0 47.32440740080875L-2.0 64.68983193269058z"/>
<path stroke-width="44.0" fill="#3077cb" d="M 10.0 4.122493766935198L10.0 26.06049560945217L10.0 33.70130001578222L6.0 33.70130001578222L6.0 33.71130001578222L6.0 64.68983193269058L-2.0 64.68983193269058L-2.0 33.71130001578222L-2.0 26.06049560945217L-10.0 26.06049560945217L-14.0 26.06049560945217L-18.0 26.06049560945217L-22.0 26.06049560945217L-26.0 26.06049560945217L-26.0 8.423426347889215L-26.0 7.795151641175458L-26.0 4.122493766935198L-26.0 -1.5662969149618946L10.0 -1.5662969149618946L10.0 4.122493766935198z"/>
</g>
</g>
<g transform="matrix(1.0 0.0 0.0 1.0 422.06944444444446 350.0)">
<g >
<path fill="#fb827a" d="M 4.0 41.070515128835524L4.0 37.643228951604705L4.0 35.72079735131819L12.0 35.72079735131819L12.0 41.070515128835524L4.0 41.070515128835524z"/>
<path stroke-width="40.0" fill="#c64340" d="M 12.0 2.4337030850381054L12.0 27.749286291349264L12.0 30.295594971429647L12.0 33.09343346699835L12.0 35.720897351318186L4.0 35.720897351318186L4.0 37.643228951604705L0.0 37.643228951604705L0.0 36.31263549456215L-4.0 36.31263549456215L-4.0 37.6532289516047L-4.0 39.16296461906983L-8.0 39.16296461906983L-8.0 39.17296461906983L-8.0 40.16659130925785L-12.0 40.16659130925785L-12.0 40.17659130925785L-12.0 42.81678158320211L-20.0 42.81678158320211L-20.0 40.17659130925785L-20.0 39.17296461906983L-20.0 37.6532289516047L-20.0 36.32263549456215L-20.0 35.720897351318186L-20.0 33.09343346699835L-20.0 30.295594971429644L-20.0 27.749286291349264L-20.0 10.903535254321692L-20.0 9.515026159204005L-20.0 8.616234105025399L-20.0 6.291251135513143L-20.0 2.4337030850381054L-20.0 -1.5662969149618946L12.0 -1.5662969149618946L12.0 2.4337030850381054z"/>
</g>
</g>
<g transform="matrix(1.0 0.0 0.0 1.0 400.0 350.0)">
<g >
<path stroke-width="0.2" fill="none" stroke="#000000" stroke-opacity="0.15" d="M -60.77777777777778 -31.099662570479477L44.06944444444444 -31.099662570479477"/>
<path stroke-width="0.2" fill="none" stroke="#000000" stroke-opacity="0.15" d="M -60.77777777777778 -25.19298943937596L44.06944444444444 -25.19298943937596"/>
<path stroke-width="0.2" fill="none" stroke="#000000" stroke-opacity="0.15" d="M -60.77777777777778 -19.286316308272443L44.06944444444444 -19.286316308272443"/>
<path stroke-width="0.2" fill="none" stroke="#000000" stroke-opacity="0.15" d="M -60.77777777777778 -13.379643177168926L44.06944444444444 -13.379643177168926"/>
<path stroke-width="0.2" fill="none" stroke="#000000" stroke-opacity="0.15" d="M -60.77777777777778 -7.47297004606541L44.06944444444444 -7.47297004606541"/>
<path stroke-width="0.2" fill="none" stroke="#000000" stroke-opacity="0.15" d="M -60.77777777777778 -1.5662969149618942L44.06944444444444 -1.5662969149618942"/>
<path stroke-width="0.2" fill="none" stroke="#000000" stroke-opacity="0.15" d="M -60.77777777777778 4.340376216141622L44.06944444444444 4.340376216141622"/>
<path stroke-width="0.2" fill="none" stroke="#000000" stroke-opacity="0.15" d="M -60.77777777777778 10.247049347245138L44.06944444444444 10.247049347245138"/>
<path stroke-width="0.2" fill="none" stroke="#000000" stroke-opacity="0.15" d="M -60.77777777777778 16.153722478348655L44.06944444444444 16.153722478348655"/>
<path stroke-width="0.2" fill="none" stroke="#000000" stroke-opacity="0.15" d="M -60.77777777777778 22.060395609452172L44.06944444444444 22.060395609452172"/>
<path stroke-width="0.2" fill="none" stroke="#000000" stroke-opacity="0.15" d="M -60.77777777777778 27.96706874055569L44.06944444444444 27.96706874055569"/>
<path stroke-width="0.2" fill="none" stroke="#000000" stroke-opacity="0.15" d="M -60.77777777777778 33.873741871659206L44.06944444444444 33.873741871659206"/>
<path stroke-width="0.2" fill="none" stroke="#000000" stroke-opacity="0.15" d="M -60.77777777777778 39.78041500276272L44.06944444444444 39.78041500276272"/>
<path stroke-width="0.2" fill="none" stroke="#000000" stroke-opacity="0.15" d="M -60.77777777777778 45.68708813386624L44.06944444444444 45.68708813386624"/>
<path stroke-width="0.2" fill="none" stroke="#000000" stroke-opacity="0.15" d="M -60.77777777777778 51.59376126496976L44.06944444444444 51.59376126496976"/>
<path stroke-width="0.2" fill="none" stroke="#000000" stroke-opacity="0.15" d="M -60.77777777777778 57.500434396073274L44.06944444444444 57.500434396073274"/>
<path stroke-width="0.2" fill="none" stroke="#000000" stroke-opacity="0.15" d="M -60.77777777777778 63.40710752717679L44.06944444444444 63.40710752717679"/>
<path stroke-width="0.2" fill="none" stroke="#000000" stroke-opacity="0.15" d="M -60.77777777777778 69.31378065828031L44.06944444444444 69.31378065828031"/>
</g>
</g>
<g transform="matrix(1.0 0.0 0.0 1.0 373.8611111111111 350.0)">
<g >
<path stroke-width="0.2777777777777778" fill="none" stroke="#000000" d="M -6.0 4.122493766935198L-6.0 6.668802447015582"/>
<path stroke-width="0.2777777777777778" fill="none" stroke="#000000" d="M -6.0 4.122493766935198L-6.0 6.668802447015582"/>
<path stroke-width="0.2777777777777778" fill="none" stroke="#000000" d="M -24.0 6.668802447015582L-24.0 7.795151641175459"/>
<path stroke-width="0.2777777777777778" fill="none" stroke="#000000" d="M -24.13888888888889 6.668802447015582L-6.0 6.668802447015582"/>
<path stroke-width="0.2777777777777778" fill="none" stroke="#000000" d="M -24.0 7.795151641175459L-24.0 8.423426347889215"/>
<path stroke-width="0.2777777777777778" fill="none" stroke="#000000" d="M -24.0 7.795151641175459L-24.0 8.423426347889215"/>
<path stroke-width="0.2777777777777778" fill="none" stroke="#000000" d="M -24.0 8.423426347889215L-24.0 47.32440740080875"/>
<path stroke-width="0.2777777777777778" fill="none" stroke="#000000" d="M -24.0 8.423426347889215L-24.0 47.32440740080875"/>
<path stroke-width="0.2777777777777778" fill="none" stroke="#000000" d="M -20.0 8.423426347889215L-20.0 36.604882591510574"/>
<path stroke-width="0.2777777777777778" fill="none" stroke="#000000" d="M -19.86111111111111 8.423426347889215L-24.0 8.423426347889215"/>
<path stroke-width="0.2777777777777778" fill="none" stroke="#000000" d="M -16.0 7.795151641175459L-16.0 44.48434180709919"/>
<path stroke-width="0.2777777777777778" fill="none" stroke="#000000" d="M -15.86111111111111 7.795151641175459L-24.0 7.795151641175459"/>
<path stroke-width="0.2777777777777778" fill="none" stroke="#000000" d="M -6.0 6.668802447015582L-6.0 9.466640942584284"/>
<path stroke-width="0.2777777777777778" fill="none" stroke="#000000" d="M -6.0 6.668802447015582L-6.0 9.466640942584284"/>
<path stroke-width="0.2777777777777778" fill="none" stroke="#000000" d="M -12.0 9.466640942584284L-12.0 45.82813123231076"/>
<path stroke-width="0.2777777777777778" fill="none" stroke="#000000" d="M -12.13888888888889 9.466640942584284L-6.0 9.466640942584284"/>
<path stroke-width="0.2777777777777778" fill="none" stroke="#000000" d="M -6.0 9.466640942584284L-6.0 12.094104826904125"/>
<path stroke-width="0.2777777777777778" fill="none" stroke="#000000" d="M -6.0 9.466640942584284L-6.0 12.094104826904125"/>
<path stroke-width="0.2777777777777778" fill="none" stroke="#000000" d="M -6.0 12.094104826904125L-6.0 65.1433630850381"/>
<path stroke-width="0.2777777777777778" fill="none" stroke="#000000" d="M -6.0 12.094104826904125L-6.0 65.1433630850381"/>
<path stroke-width="0.2777777777777778" fill="none" stroke="#000000" d="M 2.0 12.094104826904125L2.0 64.69983193269059"/>
<path stroke-width="0.2777777777777778" fill="none" stroke="#000000" d="M 2.138888888888889 12.094104826904125L-6.0 12.094104826904125"/>
<path stroke-width="0.2777777777777778" fill="none" stroke="#000000" d="M 8.0 4.122493766935198L8.0 33.71130001578222"/>
<path stroke-width="0.2777777777777778" fill="none" stroke="#000000" d="M 8.13888888888889 4.122493766935198L-6.0 4.122493766935198"/>
</g>
</g>
<g transform="matrix(1.0 0.0 0.0 1.0 373.8611111111111 350.0)">
<g >
<path stroke-width="2.5" fill="none" stroke="#000000" d="M -6.0 4.122493766935198L-6.0 -25.19298943937596"/>
<path stroke-width="2.5" fill="none" stroke="#000000" d="M -6.0 12.094104826904125L-6.0 19.559847267347777L-6.0 12.094104826904125L-6.0 19.559847267347777L-6.0 9.466640942584284L-6.0 12.094104826904125L-6.0 6.668802447015582L-6.0 9.466640942584284L-6.0 4.122493766935198L-6.0 6.668802447015582L-6.0 4.122493766935198L-6.0 -25.19298943937596"/>
<path stroke-width="0.375" fill="#c64340" stroke="#000000" d="M -8.5 -27.69298943937596L-3.5 -27.69298943937596L-3.5 -22.69298943937596L-8.5 -22.69298943937596L-8.5 -27.69298943937596z"/>
<path stroke-width="1.75" fill="#c64340" stroke="#c64340" d="M -6.0 12.094104826904125L-6.0 19.184847267347777L-6.0 12.094104826904125L-6.0 19.184847267347777L-6.0 9.466640942584284L-6.0 12.094104826904125L-6.0 6.668802447015582L-6.0 9.466640942584284L-6.0 4.122493766935198L-6.0 6.668802447015582L-6.0 4.122493766935198L-6.0 -25.19298943937596"/>
<path stroke-width="2.5" fill="none" stroke="#000000" d="M 2.0 12.094104826904125L2.0 17.67759265916021L2.0 12.094104826904125L2.0 17.67759265916021"/>
<path stroke-width="0.375" fill="#fb827a" stroke="#000000" d="M -0.5 9.594104826904125L4.5 9.594104826904125L4.5 14.594104826904125L-0.5 14.594104826904125L-0.5 9.594104826904125z"/>
<path stroke-width="1.75" fill="#fb827a" stroke="#fb827a" d="M 2.0 12.094104826904125L2.0 17.30259265916021L2.0 12.094104826904125L2.0 17.30259265916021"/>
</g>
</g>
<g transform="matrix(1.0 0.0 0.0 1.0 422.06944444444446 350.0)">
<g >
<path stroke-width="0.2777777777777778" fill="none" stroke="#000000" d="M -16.0 2.4337030850381054L-16.0 6.291251135513151"/>
<path stroke-width="0.2777777777777778" fill="none" stroke="#000000" d="M -16.13888888888889 2.4337030850381054L8.0 2.4337030850381054"/>
<path stroke-width="0.2777777777777778" fill="none" stroke="#000000" d="M -16.0 6.291251135513151L-16.0 42.826781583202106"/>
<path stroke-width="0.2777777777777778" fill="none" stroke="#000000" d="M -16.0 6.291251135513151L-16.0 42.826781583202106"/>
<path stroke-width="0.2777777777777778" fill="none" stroke="#000000" d="M -10.0 6.291251135513151L-10.0 8.61623410502541"/>
<path stroke-width="0.2777777777777778" fill="none" stroke="#000000" d="M -9.86111111111111 6.291251135513151L-16.0 6.291251135513151"/>
<path stroke-width="0.2777777777777778" fill="none" stroke="#000000" d="M -10.0 8.61623410502541L-10.0 9.515026159204016"/>
<path stroke-width="0.2777777777777778" fill="none" stroke="#000000" d="M -10.0 8.61623410502541L-10.0 9.515026159204016"/>
<path stroke-width="0.2777777777777778" fill="none" stroke="#000000" d="M -10.0 9.515026159204016L-10.0 40.17659130925785"/>
<path stroke-width="0.2777777777777778" fill="none" stroke="#000000" d="M -10.0 9.515026159204016L-10.0 40.17659130925785"/>
<path stroke-width="0.2777777777777778" fill="none" stroke="#000000" d="M -6.0 9.515026159204016L-6.0 10.903535254321698"/>
<path stroke-width="0.2777777777777778" fill="none" stroke="#000000" d="M -5.861111111111111 9.515026159204016L-10.0 9.515026159204016"/>
<path stroke-width="0.2777777777777778" fill="none" stroke="#000000" d="M -6.0 10.903535254321698L-6.0 39.17296461906983"/>
<path stroke-width="0.2777777777777778" fill="none" stroke="#000000" d="M -6.0 10.903535254321698L-6.0 39.17296461906983"/>
<path stroke-width="0.2777777777777778" fill="none" stroke="#000000" d="M -2.0 10.903535254321698L-2.0 36.32263549456215"/>
<path stroke-width="0.2777777777777778" fill="none" stroke="#000000" d="M -1.8611111111111112 10.903535254321698L-6.0 10.903535254321698"/>
<path stroke-width="0.2777777777777778" fill="none" stroke="#000000" d="M 2.0 8.61623410502541L2.0 37.6532289516047"/>
<path stroke-width="0.2777777777777778" fill="none" stroke="#000000" d="M 2.138888888888889 8.61623410502541L-10.0 8.61623410502541"/>
<path stroke-width="0.2777777777777778" fill="none" stroke="#000000" d="M 8.0 2.4337030850381054L8.0 41.08051512883552"/>
<path stroke-width="0.2777777777777778" fill="none" stroke="#000000" d="M 8.0 2.4337030850381054L8.0 41.08051512883552"/>
</g>
</g>
<g transform="matrix(1.0 0.0 0.0 1.0 422.06944444444446 350.0)">
<g >
<path stroke-width="2.5" fill="none" stroke="#000000" d="M 8.0 2.4337030850381054L8.0 -23.504198757478868"/>
<path stroke-width="2.5" fill="none" stroke="#000000" d="M 8.0 2.4337030850381054L8.0 40.88155257372962L8.0 2.4337030850381054L8.0 40.88155257372962L8.0 2.4337030850381054L8.0 -25.19298943937596"/>
<path stroke-width="0.375" fill="#3077cb" stroke="#000000" d="M 5.5 -27.69298943937596L10.5 -27.69298943937596L10.5 -22.69298943937596L5.5 -22.69298943937596L5.5 -27.69298943937596z"/>
<path stroke-width="1.75" fill="#3077cb" stroke="#3077cb" d="M 8.0 2.4337030850381054L8.0 40.50655257372962L8.0 2.4337030850381054L8.0 40.50655257372962L8.0 2.4337030850381054L8.0 -25.19298943937596"/>
<path stroke-width="2.5" fill="none" stroke="#000000" d="M -16.0 6.291251135513151L-16.0 41.57396091969121L-16.0 6.291251135513151L-16.0 41.57396091969121L-16.0 2.4337030850381054L-16.0 6.291251135513151"/>
<path stroke-width="0.375" fill="#75aef7" stroke="#000000" d="M -18.5 -0.0662969149618946L-13.5 -0.0662969149618946L-13.5 4.933703085038106L-18.5 4.933703085038106L-18.5 -0.0662969149618946z"/>
<path stroke-width="1.75" fill="#75aef7" stroke="#75aef7" d="M -16.0 6.291251135513151L-16.0 41.19896091969121L-16.0 6.291251135513151L-16.0 41.19896091969121L-16.0 2.4337030850381054L-16.0 6.291251135513151"/>
</g>
</g>
</g>
</svg>