<?xml version="1.0" encoding="utf-8"?>
<svg version="1.2" baseProfile="tiny" id="openrndr-svg" xmlns="http://www.w3.org/2000/svg" xmlns:xlink="http://www.w3.org/1999/xlink" height="576.0" x="0.0" y="0.0" width="768.0" ><g >
<g transform="matrix(1.0 0.0 0.0 1.0 412.199 350.0)">
<g >
<path fill="#75aef7" d="M -24.0 24.119536390748237L-24.0 17.679177671960836L-8.0 17.679177671960836L-8.0 24.119536390748237L-24.0 24.119536390748237z"/>
<path fill="#3077cb" stroke-width="48.0" d="M 8.0 2.688736698269794L8.0 17.679277671960833L8.0 25.525269496775664L8.0 26.427384359256155L-8.0 26.427384359256155L-8.0 25.525269496775664L-8.0 24.119536390748237L-8.0 17.679277671960836L-24.0 17.679277671960836L-24.0 2.688736698269794L-24.0 -6.762728831945413L8.0 -6.762728831945413L8.0 2.688736698269794z"/>
</g>
</g>
<g transform="matrix(1.0 0.0 0.0 1.0 463.801 350.0)">
<g >
<path fill="#fb827a" d="M 4.0 39.09602462683507L4.0 40.15267731245915L-12.0 40.15267731245915L-12.0 40.16267731245914L-12.0 40.55427116805459L-20.0 40.55427116805459L-20.0 40.162677312459145L-20.0 21.637679434307653L-20.0 19.130643202176042L-12.0 19.130643202176042L4.0 19.130643202176042L4.0 21.637679434307653L4.0 39.09602462683507z"/>
<path fill="#c64340" stroke-width="56.0" d="M 28.0 1.237271168054587L28.0 9.083262992869415L28.0 19.130743202176042L28.0 28.49493436498975L12.0 28.49493436498975L12.0 28.50493436498975L12.0 39.09602462683507L4.0 39.09602462683507L4.0 28.50493436498975L4.0 19.130743202176042L-12.0 19.130743202176042L-12.0 1.237271168054587L-12.0 -6.762728831945413L28.0 -6.762728831945413L28.0 1.237271168054587z"/>
</g>
</g>
<g transform="matrix(1.0 0.0 0.0 1.0 400.0 350.0)">
<g >
<path stroke="#000000" fill="none" stroke-opacity="0.1" stroke-width="0.4" d="M -20.801000000000002 -31.42558858780479L100.801 -31.42558858780479"/>
<path stroke="#000000" fill="none" stroke-opacity="0.1" stroke-width="0.4" d="M -20.801000000000002 -23.204635335851663L100.801 -23.204635335851663"/>
<path stroke="#000000" fill="none" stroke-opacity="0.1" stroke-width="0.4" d="M -20.801000000000002 -14.983682083898538L100.801 -14.983682083898538"/>
<path stroke="#000000" fill="none" stroke-opacity="0.1" stroke-width="0.4" d="M -20.801000000000002 -6.762728831945413L100.801 -6.762728831945413"/>
<path stroke="#000000" fill="none" stroke-opacity="0.1" stroke-width="0.4" d="M -20.801000000000002 1.4582244200077117L100.801 1.4582244200077117"/>
<path stroke="#000000" fill="none" stroke-opacity="0.1" stroke-width="0.4" d="M -20.801000000000002 9.679177671960836L100.801 9.679177671960836"/>
<path stroke="#000000" fill="none" stroke-opacity="0.1" stroke-width="0.4" d="M -20.801000000000002 17.900130923913963L100.801 17.900130923913963"/>
<path stroke="#000000" fill="none" stroke-opacity="0.1" stroke-width="0.4" d="M -20.801000000000002 26.12108417586709L100.801 26.12108417586709"/>
<path stroke="#000000" fill="none" stroke-opacity="0.1" stroke-width="0.4" d="M -20.801000000000002 34.342037427820216L100.801 34.342037427820216"/>
<path stroke="#000000" fill="none" stroke-opacity="0.1" stroke-width="0.4" d="M -20.801000000000002 42.56299067977334L100.801 42.56299067977334"/>
<path stroke="#000000" fill="none" stroke-opacity="0.1" stroke-width="0.4" d="M -20.801000000000002 50.78394393172647L100.801 50.78394393172647"/>
</g>
</g>
<g transform="matrix(1.0 0.0 0.0 1.0 412.199 350.0)">
<g >
<path stroke="#000000" fill="none" stroke-width="0.8" d="M -16.0 2.688736698269794L-16.0 24.12953639074824"/>
<path stroke="#000000" fill="none" stroke-width="0.8" d="M -16.4 2.688736698269794L0.0 2.688736698269794"/>
<path stroke="#000000" fill="none" stroke-width="0.8" d="M 0.0 2.688736698269794L0.0 26.437384359256157"/>
<path stroke="#000000" fill="none" stroke-width="0.8" d="M 0.0 2.688736698269794L0.0 26.437384359256157"/>
</g>
</g>
<g transform="matrix(1.0 0.0 0.0 1.0 412.199 350.0)">
<g >
<path stroke="#000000" fill="none" stroke-width="4.0" d="M 0.0 2.688736698269794L0.0 -23.204635335851663"/>
<path stroke="#000000" fill="none" stroke-width="4.0" d="M 0.0 2.688736698269794L0.0 23.240087228199048L0.0 2.688736698269794L0.0 23.240087228199048L0.0 2.688736698269794L0.0 -23.204635335851663"/>
<path stroke="#000000" fill="#c64340" stroke-width="0.8" d="M -4.0 -27.204635335851663L4.0 -27.204635335851663L4.0 -19.204635335851663L-4.0 -19.204635335851663L-4.0 -27.204635335851663z"/>
<path stroke="#c64340" fill="#c64340" stroke-width="2.4" d="M 0.0 2.688736698269794L0.0 22.440087228199047L0.0 2.688736698269794L0.0 22.440087228199047L0.0 2.688736698269794L0.0 -23.204635335851663"/>
<path stroke="#000000" fill="none" stroke-width="4.0" d="M -16.0 2.688736698269794L-16.0 23.761968090662776L-16.0 2.688736698269794L-16.0 23.761968090662776"/>
<path stroke="#000000" fill="#fb827a" stroke-width="0.8" d="M -20.0 -1.3112633017302073L-12.0 -1.3112633017302073L-12.0 6.688736698269793L-20.0 6.688736698269793L-20.0 -1.3112633017302073z"/>
<path stroke="#fb827a" fill="#fb827a" stroke-width="2.4" d="M -16.0 2.688736698269794L-16.0 22.961968090662776L-16.0 2.688736698269794L-16.0 22.961968090662776"/>
</g>
</g>
<g transform="matrix(1.0 0.0 0.0 1.0 463.801 350.0)">
<g >
<path stroke="#000000" fill="none" stroke-width="0.8" d="M -4.0 1.2372711680545871L-4.0 21.637679434307653"/>
<path stroke="#000000" fill="none" stroke-width="0.8" d="M -4.4 1.2372711680545871L20.0 1.2372711680545871"/>
<path stroke="#000000" fill="none" stroke-width="0.8" d="M -16.0 21.637679434307653L-16.0 40.56427116805459"/>
<path stroke="#000000" fill="none" stroke-width="0.8" d="M -16.4 21.637679434307653L-4.0 21.637679434307653"/>
<path stroke="#000000" fill="none" stroke-width="0.8" d="M -4.0 21.637679434307653L-4.0 40.162677312459145"/>
<path stroke="#000000" fill="none" stroke-width="0.8" d="M -4.0 21.637679434307653L-4.0 40.162677312459145"/>
<path stroke="#000000" fill="none" stroke-width="0.8" d="M 20.0 1.2372711680545871L20.0 9.083262992869416"/>
<path stroke="#000000" fill="none" stroke-width="0.8" d="M 20.0 1.2372711680545871L20.0 9.083262992869416"/>
<path stroke="#000000" fill="none" stroke-width="0.8" d="M 8.0 9.083262992869416L8.0 39.106024626835065"/>
<path stroke="#000000" fill="none" stroke-width="0.8" d="M 7.6 9.083262992869416L20.0 9.083262992869416"/>
<path stroke="#000000" fill="none" stroke-width="0.8" d="M 20.0 9.083262992869416L20.0 28.50493436498975"/>
<path stroke="#000000" fill="none" stroke-width="0.8" d="M 20.0 9.083262992869416L20.0 28.50493436498975"/>
</g>
</g>
<g transform="matrix(1.0 0.0 0.0 1.0 463.801 350.0)">
<g >
<path stroke="#000000" fill="none" stroke-width="4.0" d="M 20.0 1.2372711680545871L20.0 -21.753169805636453"/>
<path stroke="#000000" fill="none" stroke-width="4.0" d="M 20.0 9.083262992869416L20.0 11.22931942460053L20.0 9.083262992869416L20.0 11.22931942460053L20.0 1.2372711680545871L20.0 9.083262992869416L20.0 1.2372711680545871L20.0 -23.204635335851663"/>
<path stroke="#000000" fill="#3077cb" stroke-width="0.8" d="M 16.0 -27.204635335851663L24.0 -27.204635335851663L24.0 -19.204635335851663L16.0 -19.204635335851663L16.0 -27.204635335851663z"/>
<path stroke="#3077cb" fill="#3077cb" stroke-width="2.4" d="M 20.0 9.083262992869416L20.0 10.429319424600529L20.0 9.083262992869416L20.0 10.429319424600529L20.0 1.2372711680545871L20.0 9.083262992869416L20.0 1.2372711680545871L20.0 -23.204635335851663"/>
<path stroke="#000000" fill="none" stroke-width="4.0" d="M -4.0 1.2372711680545871L-4.0 8.399774736242426L-4.0 1.2372711680545871L-4.0 8.399774736242426"/>
<path stroke="#000000" fill="#75aef7" stroke-width="0.8" d="M -8.0 -2.762728831945413L0.0 -2.762728831945413L0.0 5.237271168054587L-8.0 5.237271168054587L-8.0 -2.762728831945413z"/>
<path stroke="#75aef7" fill="#75aef7" stroke-width="2.4" d="M -4.0 1.2372711680545871L-4.0 7.599774736242425L-4.0 1.2372711680545871L-4.0 7.599774736242425"/>
</g>
</g>
</g>
</svg>