<?xml version="1.0" encoding="utf-8"?>
<svg version="1.2" baseProfile="tiny" id="openrndr-svg" xmlns="http://www.w3.org/2000/svg" xmlns:xlink="http://www.w3.org/1999/xlink" y="0.0" height="576.0" x="0.0" width="768.0" ><g >
<g transform="matrix(1.0 0.0 0.0 1.0 421.0 350.0)">
<g >
<path fill="#d0e4fe" d="M 12.0 31.491604930941985L12.0 57.80052688108204L-4.0 57.80052688108204L-4.0 39.31014146233518L-4.0 25.02658371307893L12.0 25.02658371307893L12.0 31.491604930941985z"/>
<path fill="#75aef7" d="M -12.0 39.32014146233518L-12.0 39.54335871847322L-20.0 39.54335871847322L-20.0 39.55335871847322L-20.0 52.75396458853945L-28.0 52.75396458853945L-28.0 39.55335871847322L-28.0 39.32014146233518L-28.0 25.026683713078924L-28.0 24.725992582945455L-20.0 24.725992582945455L-12.0 24.725992582945455L-4.0 24.725992582945455L12.0 24.725992582945455L12.0 25.02668371307893L-4.0 25.02668371307893L-4.0 39.31014146233518L-12.0 39.31014146233518L-12.0 39.32014146233518z"/>
<path fill="#3077cb" stroke-width="72.0" d="M 20.0 2.812283394232481L20.0 3.3689096416755273L20.0 5.879450215620767L20.0 14.912228072258593L20.0 16.888096492316993L20.0 23.406662762644444L20.0 24.72342929946487L20.0 24.72609258294545L20.0 31.491604930941985L12.0 31.491604930941985L12.0 24.726092582945455L-4.0 24.726092582945455L-12.0 24.726092582945455L-20.0 24.726092582945455L-28.0 24.726092582945455L-28.0 24.72342929946487L-28.0 23.406662762644444L-28.0 23.396662762644443L-36.0 23.396662762644443L-36.0 2.812283394232481L-36.0 -6.745665461277317L20.0 -6.745665461277317L20.0 2.812283394232481z"/>
</g>
</g>
<g transform="matrix(1.0 0.0 0.0 1.0 515.0 350.0)">
<g >
<path fill="#c64340" stroke-width="88.0" d="M 28.0 1.2543345387226832L28.0 1.2569978222032718L28.0 19.4521239859887L12.0 19.4521239859887L12.0 19.462123985988697L12.0 19.59888719174866L12.0 26.28137815497466L12.0 26.83800440241771L12.0 29.348544976362952L12.0 31.816160304189893L12.0 40.35719125305918L12.0 59.44160806135611L12.0 59.92027928151599L12.0 78.25734594854246L12.0 79.14990581771275L12.0 81.26333453872267L4.0 81.26333453872267L4.0 79.14990581771275L4.0 79.13990581771274L-12.0 79.13990581771274L-12.0 78.25734594854246L-12.0 78.24734594854246L-20.0 78.24734594854246L-20.0 31.816160304189893L-20.0 31.806160304189895L-36.0 31.806160304189895L-36.0 29.348544976362952L-36.0 26.83800440241771L-36.0 26.281378154974664L-36.0 19.59888719174866L-36.0 19.588887191748658L-44.0 19.588887191748658L-44.0 1.2543345387226832L-44.0 -6.745665461277317L28.0 -6.745665461277317L28.0 1.2543345387226832z"/>
</g>
</g>
<g transform="matrix(1.0 0.0 0.0 1.0 400.0 350.0)">
<g >
<path fill="none" stroke-width="0.4" stroke="#000000" stroke-opacity="0.1" d="M -35.5 -41.94915760239059L171.0 -41.94915760239059"/>
<path fill="none" stroke-width="0.4" stroke="#000000" stroke-opacity="0.1" d="M -35.5 -30.2146602220195L171.0 -30.2146602220195"/>
<path fill="none" stroke-width="0.4" stroke="#000000" stroke-opacity="0.1" d="M -35.5 -18.480162841648408L171.0 -18.480162841648408"/>
<path fill="none" stroke-width="0.4" stroke="#000000" stroke-opacity="0.1" d="M -35.5 -6.745665461277316L171.0 -6.745665461277316"/>
<path fill="none" stroke-width="0.4" stroke="#000000" stroke-opacity="0.1" d="M -35.5 4.988831919093776L171.0 4.988831919093776"/>
<path fill="none" stroke-width="0.4" stroke="#000000" stroke-opacity="0.1" d="M -35.5 16.72332929946487L171.0 16.72332929946487"/>
<path fill="none" stroke-width="0.4" stroke="#000000" stroke-opacity="0.1" d="M -35.5 28.45782667983596L171.0 28.45782667983596"/>
<path fill="none" stroke-width="0.4" stroke="#000000" stroke-opacity="0.1" d="M -35.5 40.192324060207056L171.0 40.192324060207056"/>
<path fill="none" stroke-width="0.4" stroke="#000000" stroke-opacity="0.1" d="M -35.5 51.92682144057815L171.0 51.92682144057815"/>
<path fill="none" stroke-width="0.4" stroke="#000000" stroke-opacity="0.1" d="M -35.5 63.66131882094925L171.0 63.66131882094925"/>
<path fill="none" stroke-width="0.4" stroke="#000000" stroke-opacity="0.1" d="M -35.5 75.39581620132034L171.0 75.39581620132034"/>
<path fill="none" stroke-width="0.4" stroke="#000000" stroke-opacity="0.1" d="M -35.5 87.13031358169144L171.0 87.13031358169144"/>
<path fill="none" stroke-width="0.4" stroke="#000000" stroke-opacity="0.1" d="M -35.5 98.86481096206253L171.0 98.86481096206253"/>
</g>
</g>
<g transform="matrix(1.0 0.0 0.0 1.0 421.0 350.0)">
<g >
<path fill="none" stroke-width="0.8" stroke="#000000" d="M 4.0 2.8122833942324816L4.0 3.3689096416755273"/>
<path fill="none" stroke-width="0.8" stroke="#000000" d="M 4.0 2.8122833942324816L4.0 3.3689096416755273"/>
<path fill="none" stroke-width="0.8" stroke="#000000" d="M -32.0 3.3689096416755273L-32.0 23.406662762644444"/>
<path fill="none" stroke-width="0.8" stroke="#000000" d="M -32.4 3.3689096416755273L4.0 3.3689096416755273"/>
<path fill="none" stroke-width="0.8" stroke="#000000" d="M 4.0 3.3689096416755273L4.0 5.879450215620767"/>
<path fill="none" stroke-width="0.8" stroke="#000000" d="M 4.0 3.3689096416755273L4.0 5.879450215620767"/>
<path fill="none" stroke-width="0.8" stroke="#000000" d="M -24.0 5.879450215620767L-24.0 14.912228072258593"/>
<path fill="none" stroke-width="0.8" stroke="#000000" d="M -24.4 5.879450215620767L4.0 5.879450215620767"/>
<path fill="none" stroke-width="0.8" stroke="#000000" d="M -24.0 14.912228072258593L-24.0 52.76396458853945"/>
<path fill="none" stroke-width="0.8" stroke="#000000" d="M -24.0 14.912228072258593L-24.0 52.76396458853945"/>
<path fill="none" stroke-width="0.8" stroke="#000000" d="M -16.0 14.912228072258593L-16.0 39.55335871847322"/>
<path fill="none" stroke-width="0.8" stroke="#000000" d="M -15.6 14.912228072258593L-24.0 14.912228072258593"/>
<path fill="none" stroke-width="0.8" stroke="#000000" d="M 4.0 5.879450215620767L4.0 16.888096492316993"/>
<path fill="none" stroke-width="0.8" stroke="#000000" d="M 4.0 5.879450215620767L4.0 16.888096492316993"/>
<path fill="none" stroke-width="0.8" stroke="#000000" d="M -8.0 16.888096492316993L-8.0 39.32014146233518"/>
<path fill="none" stroke-width="0.8" stroke="#000000" d="M -8.4 16.888096492316993L4.0 16.888096492316993"/>
<path fill="none" stroke-width="0.8" stroke="#000000" d="M 4.0 16.888096492316993L4.0 57.81052688108204"/>
<path fill="none" stroke-width="0.8" stroke="#000000" d="M 4.0 16.888096492316993L4.0 57.81052688108204"/>
<path fill="none" stroke-width="0.8" stroke="#000000" d="M 16.0 2.8122833942324816L16.0 31.501604930941987"/>
<path fill="none" stroke-width="0.8" stroke="#000000" d="M 16.4 2.8122833942324816L4.0 2.8122833942324816"/>
</g>
</g>
<g transform="matrix(1.0 0.0 0.0 1.0 421.0 350.0)">
<g >
<path fill="none" stroke-width="4.0" stroke="#000000" d="M 4.0 2.8122833942324816L4.0 -30.2146602220195"/>
<path fill="none" stroke-width="4.0" stroke="#000000" d="M 4.0 16.888096492316993L4.0 57.39500914676229L4.0 16.888096492316993L4.0 57.39500914676229L4.0 5.879450215620767L4.0 16.888096492316993L4.0 3.3689096416755273L4.0 5.879450215620767L4.0 2.8122833942324816L4.0 3.3689096416755273L4.0 2.8122833942324816L4.0 -30.2146602220195"/>
<path fill="#c64340" stroke-width="0.8" stroke="#000000" d="M 0.0 -34.2146602220195L8.0 -34.2146602220195L8.0 -26.214660222019504L0.0 -26.214660222019504L0.0 -34.2146602220195z"/>
<path fill="#c64340" stroke-width="2.4" stroke="#c64340" d="M 4.0 16.888096492316993L4.0 56.595009146762294L4.0 16.888096492316993L4.0 56.595009146762294L4.0 5.879450215620767L4.0 16.888096492316993L4.0 3.3689096416755273L4.0 5.879450215620767L4.0 2.8122833942324816L4.0 3.3689096416755273L4.0 2.8122833942324816L4.0 -30.2146602220195"/>
</g>
</g>
<g transform="matrix(1.0 0.0 0.0 1.0 515.0 350.0)">
<g >
<path fill="none" stroke-width="0.8" stroke="#000000" d="M -40.0 1.2543345387226832L-40.0 19.59888719174866"/>
<path fill="none" stroke-width="0.8" stroke="#000000" d="M -40.4 1.2543345387226832L20.0 1.2543345387226832"/>
<path fill="none" stroke-width="0.8" stroke="#000000" d="M 20.0 1.2543345387226832L20.0 1.2569978222032718"/>
<path fill="none" stroke-width="0.8" stroke="#000000" d="M 20.0 1.2543345387226832L20.0 1.2569978222032718"/>
<path fill="none" stroke-width="0.8" stroke="#000000" d="M -28.0 1.2569978222032718L-28.0 1.557588952336746"/>
<path fill="none" stroke-width="0.8" stroke="#000000" d="M -28.4 1.2569978222032718L20.0 1.2569978222032718"/>
<path fill="none" stroke-width="0.8" stroke="#000000" d="M -28.0 1.557588952336746L-28.0 31.816160304189896"/>
<path fill="none" stroke-width="0.8" stroke="#000000" d="M -28.0 1.557588952336746L-28.0 31.816160304189896"/>
<path fill="none" stroke-width="0.8" stroke="#000000" d="M -4.0 1.557588952336746L-4.0 59.44160806135611"/>
<path fill="none" stroke-width="0.8" stroke="#000000" d="M -3.6 1.557588952336746L-28.0 1.557588952336746"/>
<path fill="none" stroke-width="0.8" stroke="#000000" d="M -16.0 59.44160806135611L-16.0 78.25734594854246"/>
<path fill="none" stroke-width="0.8" stroke="#000000" d="M -16.4 59.44160806135611L-4.0 59.44160806135611"/>
<path fill="none" stroke-width="0.8" stroke="#000000" d="M -4.0 59.44160806135611L-4.0 59.92027928151599"/>
<path fill="none" stroke-width="0.8" stroke="#000000" d="M -4.0 59.44160806135611L-4.0 59.92027928151599"/>
<path fill="none" stroke-width="0.8" stroke="#000000" d="M -4.0 59.92027928151599L-4.0 79.14990581771275"/>
<path fill="none" stroke-width="0.8" stroke="#000000" d="M -4.0 59.92027928151599L-4.0 79.14990581771275"/>
<path fill="none" stroke-width="0.8" stroke="#000000" d="M 8.0 59.92027928151599L8.0 81.27333453872268"/>
<path fill="none" stroke-width="0.8" stroke="#000000" d="M 8.4 59.92027928151599L-4.0 59.92027928151599"/>
<path fill="none" stroke-width="0.8" stroke="#000000" d="M 20.0 1.2569978222032718L20.0 19.4621239859887"/>
<path fill="none" stroke-width="0.8" stroke="#000000" d="M 20.0 1.2569978222032718L20.0 19.4621239859887"/>
</g>
</g>
<g transform="matrix(1.0 0.0 0.0 1.0 515.0 350.0)">
<g >
<path fill="none" stroke-width="4.0" stroke="#000000" d="M 20.0 1.2543345387226832L20.0 -28.656711366509704"/>
<path fill="none" stroke-width="4.0" stroke="#000000" d="M 20.0 1.2569978222032718L20.0 8.816326843410735L20.0 1.2569978222032718L20.0 8.816326843410735L20.0 1.2543345387226832L20.0 1.2569978222032718L20.0 1.2543345387226832L20.0 -30.2146602220195"/>
<path fill="#3077cb" stroke-width="0.8" stroke="#000000" d="M 16.0 -34.2146602220195L24.0 -34.2146602220195L24.0 -26.214660222019504L16.0 -26.214660222019504L16.0 -34.2146602220195z"/>
<path fill="#3077cb" stroke-width="2.4" stroke="#3077cb" d="M 20.0 1.2569978222032718L20.0 8.016326843410734L20.0 1.2569978222032718L20.0 8.016326843410734L20.0 1.2543345387226832L20.0 1.2569978222032718L20.0 1.2543345387226832L20.0 -30.2146602220195"/>
<path fill="none" stroke-width="4.0" stroke="#000000" d="M -28.0 1.557588952336746L-28.0 29.919851965905952L-28.0 1.557588952336746L-28.0 29.919851965905952L-28.0 1.2569978222032718L-28.0 1.557588952336746"/>
<path fill="#75aef7" stroke-width="0.8" stroke="#000000" d="M -32.0 -2.743002177796729L-24.0 -2.743002177796729L-24.0 5.256997822203271L-32.0 5.256997822203271L-32.0 -2.743002177796729z"/>
<path fill="#75aef7" stroke-width="2.4" stroke="#75aef7" d="M -28.0 1.557588952336746L-28.0 29.119851965905955L-28.0 1.557588952336746L-28.0 29.119851965905955L-28.0 1.2569978222032718L-28.0 1.557588952336746"/>
<path fill="none" stroke-width="4.0" stroke="#000000" d="M -4.0 1.557588952336746L-4.0 35.02480765742689L-4.0 1.557588952336746L-4.0 35.02480765742689"/>
<path fill="#d0e4fe" stroke-width="0.8" stroke="#000000" d="M -8.0 -2.442411047663253L0.0 -2.442411047663253L0.0 5.557588952336747L-8.0 5.557588952336747L-8.0 -2.442411047663253z"/>
<path fill="#d0e4fe" stroke-width="2.4" stroke="#d0e4fe" d="M -4.0 1.557588952336746L-4.0 34.22480765742689L-4.0 1.557588952336746L-4.0 34.22480765742689"/>
</g>
</g>
</g>
</svg>