<?xml version="1.0" encoding="utf-8"?>
<svg version="1.2" baseProfile="tiny" id="openrndr-svg" xmlns="http://www.w3.org/2000/svg" xmlns:xlink="http://www.w3.org/1999/xlink" height="576.0" x="0.0" y="0.0" width="768.0" ><g >
<g transform="matrix(1.0 0.0 0.0 1.0 477.0 350.0)">
<g >
<path fill="#3077cb" stroke-width="232.0" d="M 124.0 0.3718526278605443L124.0 3.4974170540099907L116.0 3.4974170540099907L116.0 3.50741705400999L116.0 4.160450215525984L108.0 4.160450215525986L108.0 3.2883104465648496L100.0 3.2883104465648496L100.0 3.4318313423372473L92.0 3.431831342337252L92.0 3.3757580621285L84.0 3.3757580621285L84.0 3.4583660195788894L76.0 3.458366019578895L76.0 3.1412849707794L68.0 3.1412849707794L68.0 3.0830421886578083L60.0 3.0830421886578083L60.0 3.8667330334801386L52.0 3.8667330334801386L52.0 3.26928558363688L44.0 3.26928558363688L44.0 4.170450215525986L44.0 4.459507709972668L36.0 4.459507709972668L36.0 3.4690466443805623L28.0 3.4690466443805623L28.0 3.2147142662908617L20.0 3.2147142662908617L20.0 3.6215793173293713L12.0 3.6215793173293713L12.0 4.469507709972667L12.0 29.201508832559767L4.0 29.20150883255977L4.0 29.211508832559772L4.0 56.13373533420112L4.0 59.84488892759305L-4.0 59.84488892759305L-4.0 59.854888927593045L-4.0 75.95761274948316L-12.0 75.95761274948316L-12.0 75.96761274948317L-12.0 80.55028141420006L-20.0 80.55028141420006L-20.0 75.96761274948317L-20.0 59.854888927593045L-20.0 56.13373533420112L-20.0 53.80364743839848L-20.0 52.88782670306945L-20.0 51.12347815223012L-20.0 48.4446867855759L-20.0 46.41553495802165L-20.0 43.61504175807201L-20.0 43.13804226535863L-20.0 43.12804226535863L-36.0 43.12804226535863L-36.0 42.14645584784277L-36.0 41.206227095771006L-36.0 39.01152558379093L-36.0 36.70964121285519L-36.0 34.04084624347627L-36.0 33.92656355809844L-36.0 33.88170493393144L-36.0 33.853785113160825L-36.0 33.834176153564016L-36.0 33.807274329844816L-36.0 33.78345987423235L-36.0 33.73471283509849L-36.0 19.931047188486136L-36.0 17.31095641682715L-36.0 17.30095641682715L-44.0 17.30095641682715L-44.0 5.786061601540673L-44.0 3.165316376583151L-52.0 3.165316376583151L-52.0 3.2966546846911484L-60.0 3.2966546846911524L-60.0 3.473218763443711L-68.0 3.4732187634437133L-68.0 3.051834738065437L-76.0 3.051834738065437L-76.0 5.7760616015406745L-84.0 5.7760616015406745L-84.0 4.026261780703478L-84.0 4.016261780703479L-92.0 4.016261780703479L-92.0 0.9772938578288004L-92.0 0.3718526278605443L-92.0 -7.639278585799943L124.0 -7.639278585799943L124.0 0.3718526278605443z"/>
</g>
</g>
<g transform="matrix(1.0 0.0 0.0 1.0 747.0 350.0)">
<g >
<path fill="#c64340" stroke-width="224.0" d="M 92.0 0.3607214142000568L92.0 2.877607045988241L84.0 2.877607045988241L84.0 2.88760704598824L84.0 3.1559708298816886L76.0 3.155970829881692L76.0 3.165970829881692L76.0 3.2839714427391726L68.0 3.2839714427391726L68.0 3.2919819113404216L60.0 3.291981911340423L60.0 3.2434184454453425L52.0 3.2434184454453425L52.0 3.3019819113404196L52.0 4.583503088529523L44.0 4.583503088529523L44.0 3.239246326382191L36.0 3.239246326382191L36.0 4.5935030885295225L36.0 16.001758540561845L28.0 16.001758540561852L28.0 11.114037615698907L20.0 11.114037615698907L20.0 16.011758540561853L20.0 17.839994199786293L12.0 17.839994199786293L12.0 17.84999419978629L12.0 22.239076539972967L4.0 22.239076539972967L4.0 22.249076539972965L4.0 27.13380662486201L-4.0 27.13380662486201L-4.0 27.143806624862012L-4.0 28.397111191432643L-4.0 31.46945966953722L-4.0 33.74584404875897L-4.0 33.82312838228479L-4.0 33.86556717739516L-4.0 33.87754950334454L-4.0 33.87938523573232L-4.0 33.88666141137846L-4.0 33.899895373046775L-4.0 33.93702723270882L-4.0 33.946389467886526L-4.0 47.1766666042406L-20.0 47.1766666042406L-20.0 33.94638946788653L-20.0 33.93702723270882L-20.0 33.899895373046775L-20.0 33.88666141137846L-20.0 33.87938523573232L-20.0 33.87754950334454L-20.0 33.865567177395164L-20.0 33.82312838228479L-20.0 33.745844048758975L-20.0 31.469459669537223L-20.0 26.220946973844516L-28.0 26.220946973844516L-28.0 15.774795263526428L-36.0 15.774795263526428L-36.0 31.45945966953722L-44.0 31.45945966953722L-44.0 28.397111191432643L-44.0 28.38711119143264L-52.0 28.38711119143264L-52.0 18.382356592244395L-52.0 7.4440617172369805L-52.0 3.125430918339425L-60.0 3.125430918339425L-60.0 4.596353215244029L-68.0 4.596353215244029L-68.0 4.4328061479685L-76.0 4.4328061479685L-76.0 4.563143147501343L-84.0 4.563143147501345L-84.0 3.7567559749754715L-92.0 3.756755974975471L-92.0 3.0681894447929903L-100.0 3.0681894447929903L-100.0 7.434061717236972L-108.0 7.434061717236982L-108.0 4.552783206473166L-108.0 4.542783206473167L-116.0 4.542783206473167L-116.0 1.2024214024764417L-116.0 0.44750149071360273L-116.0 0.3607214142000568L-116.0 -7.639278585799943L92.0 -7.639278585799943L92.0 0.3607214142000568z"/>
</g>
</g>
<g transform="matrix(1.0 0.0 0.0 1.0 400.0 350.0)">
<g >
<path stroke="#000000" fill="none" stroke-opacity="0.1" stroke-width="0.4" d="M -35.5 -49.35664286192298L459.5 -49.35664286192298"/>
<path stroke="#000000" fill="none" stroke-opacity="0.1" stroke-width="0.4" d="M -35.5 -41.013170006698374L459.5 -41.013170006698374"/>
<path stroke="#000000" fill="none" stroke-opacity="0.1" stroke-width="0.4" d="M -35.5 -32.66969715147377L459.5 -32.66969715147377"/>
<path stroke="#000000" fill="none" stroke-opacity="0.1" stroke-width="0.4" d="M -35.5 -24.326224296249162L459.5 -24.326224296249162"/>
<path stroke="#000000" fill="none" stroke-opacity="0.1" stroke-width="0.4" d="M -35.5 -15.982751441024554L459.5 -15.982751441024554"/>
<path stroke="#000000" fill="none" stroke-opacity="0.1" stroke-width="0.4" d="M -35.5 -7.639278585799946L459.5 -7.639278585799946"/>
<path stroke="#000000" fill="none" stroke-opacity="0.1" stroke-width="0.4" d="M -35.5 0.7041942694246615L459.5 0.7041942694246615"/>
<path stroke="#000000" fill="none" stroke-opacity="0.1" stroke-width="0.4" d="M -35.5 9.04766712464927L459.5 9.04766712464927"/>
<path stroke="#000000" fill="none" stroke-opacity="0.1" stroke-width="0.4" d="M -35.5 17.391139979873877L459.5 17.391139979873877"/>
<path stroke="#000000" fill="none" stroke-opacity="0.1" stroke-width="0.4" d="M -35.5 25.734612835098485L459.5 25.734612835098485"/>
<path stroke="#000000" fill="none" stroke-opacity="0.1" stroke-width="0.4" d="M -35.5 34.07808569032309L459.5 34.07808569032309"/>
<path stroke="#000000" fill="none" stroke-opacity="0.1" stroke-width="0.4" d="M -35.5 42.4215585455477L459.5 42.4215585455477"/>
<path stroke="#000000" fill="none" stroke-opacity="0.1" stroke-width="0.4" d="M -35.5 50.7650314007723L459.5 50.7650314007723"/>
<path stroke="#000000" fill="none" stroke-opacity="0.1" stroke-width="0.4" d="M -35.5 59.108504255996905L459.5 59.108504255996905"/>
<path stroke="#000000" fill="none" stroke-opacity="0.1" stroke-width="0.4" d="M -35.5 67.45197711122151L459.5 67.45197711122151"/>
<path stroke="#000000" fill="none" stroke-opacity="0.1" stroke-width="0.4" d="M -35.5 75.79544996644611L459.5 75.79544996644611"/>
<path stroke="#000000" fill="none" stroke-opacity="0.1" stroke-width="0.4" d="M -35.5 84.13892282167072L459.5 84.13892282167072"/>
<path stroke="#000000" fill="none" stroke-opacity="0.1" stroke-width="0.4" d="M -35.5 92.48239567689532L459.5 92.48239567689532"/>
</g>
</g>
<g transform="matrix(1.0 0.0 0.0 1.0 477.0 350.0)">
<g >
<path stroke="#000000" fill="none" stroke-width="0.8" d="M -28.0 0.3718526278605443L-28.0 0.449136961386358"/>
<path stroke="#000000" fill="none" stroke-width="0.8" d="M -28.0 0.3718526278605443L-28.0 0.449136961386358"/>
<path stroke="#000000" fill="none" stroke-width="0.8" d="M -28.0 0.449136961386358L-28.0 0.49157575649673246"/>
<path stroke="#000000" fill="none" stroke-width="0.8" d="M -28.0 0.449136961386358L-28.0 0.49157575649673246"/>
<path stroke="#000000" fill="none" stroke-width="0.8" d="M -88.0 0.49157575649673246L-88.0 0.9772938578288005"/>
<path stroke="#000000" fill="none" stroke-width="0.8" d="M -88.4 0.49157575649673246L-28.0 0.49157575649673246"/>
<path stroke="#000000" fill="none" stroke-width="0.8" d="M -88.0 0.9772938578288005L-88.0 4.026261780703479"/>
<path stroke="#000000" fill="none" stroke-width="0.8" d="M -88.0 0.9772938578288005L-88.0 4.026261780703479"/>
<path stroke="#000000" fill="none" stroke-width="0.8" d="M -80.0 0.9772938578288005L-80.0 5.786061601540674"/>
<path stroke="#000000" fill="none" stroke-width="0.8" d="M -79.6 0.9772938578288005L-88.0 0.9772938578288005"/>
<path stroke="#000000" fill="none" stroke-width="0.8" d="M -28.0 0.49157575649673246L-28.0 0.5035580824461029"/>
<path stroke="#000000" fill="none" stroke-width="0.8" d="M -28.0 0.49157575649673246L-28.0 0.5035580824461029"/>
<path stroke="#000000" fill="none" stroke-width="0.8" d="M -28.0 0.5035580824461029L-28.0 0.5038751634949024"/>
<path stroke="#000000" fill="none" stroke-width="0.8" d="M -28.0 0.5035580824461029L-28.0 0.5038751634949024"/>
<path stroke="#000000" fill="none" stroke-width="0.8" d="M -28.0 0.5038751634949024L-28.0 0.5053938148338895"/>
<path stroke="#000000" fill="none" stroke-width="0.8" d="M -28.0 0.5038751634949024L-28.0 0.5053938148338895"/>
<path stroke="#000000" fill="none" stroke-width="0.8" d="M -28.0 0.5053938148338895L-28.0 0.5126699904800252"/>
<path stroke="#000000" fill="none" stroke-width="0.8" d="M -28.0 0.5053938148338895L-28.0 0.5126699904800252"/>
<path stroke="#000000" fill="none" stroke-width="0.8" d="M -72.0 0.5126699904800252L-72.0 0.5207305245100333"/>
<path stroke="#000000" fill="none" stroke-width="0.8" d="M -72.4 0.5126699904800252L-28.0 0.5126699904800252"/>
<path stroke="#000000" fill="none" stroke-width="0.8" d="M -72.0 0.5207305245100333L-72.0 3.061834738065437"/>
<path stroke="#000000" fill="none" stroke-width="0.8" d="M -72.0 0.5207305245100333L-72.0 3.061834738065437"/>
<path stroke="#000000" fill="none" stroke-width="0.8" d="M -64.0 0.5207305245100333L-64.0 0.5822275595008828"/>
<path stroke="#000000" fill="none" stroke-width="0.8" d="M -63.6 0.5207305245100333L-72.0 0.5207305245100333"/>
<path stroke="#000000" fill="none" stroke-width="0.8" d="M -64.0 0.5822275595008828L-64.0 3.483218763443713"/>
<path stroke="#000000" fill="none" stroke-width="0.8" d="M -64.0 0.5822275595008828L-64.0 3.483218763443713"/>
<path stroke="#000000" fill="none" stroke-width="0.8" d="M -56.0 0.5822275595008828L-56.0 0.6565079673012276"/>
<path stroke="#000000" fill="none" stroke-width="0.8" d="M -55.6 0.5822275595008828L-64.0 0.5822275595008828"/>
<path stroke="#000000" fill="none" stroke-width="0.8" d="M -56.0 0.6565079673012276L-56.0 3.306654684691152"/>
<path stroke="#000000" fill="none" stroke-width="0.8" d="M -56.0 0.6565079673012276L-56.0 3.306654684691152"/>
<path stroke="#000000" fill="none" stroke-width="0.8" d="M -48.0 0.6565079673012276L-48.0 3.175316376583151"/>
<path stroke="#000000" fill="none" stroke-width="0.8" d="M -47.6 0.6565079673012276L-56.0 0.6565079673012276"/>
<path stroke="#000000" fill="none" stroke-width="0.8" d="M -28.0 0.5126699904800252L-28.0 0.525903952148341"/>
<path stroke="#000000" fill="none" stroke-width="0.8" d="M -28.0 0.5126699904800252L-28.0 0.525903952148341"/>
<path stroke="#000000" fill="none" stroke-width="0.8" d="M -28.0 0.525903952148341L-28.0 0.5630358118103871"/>
<path stroke="#000000" fill="none" stroke-width="0.8" d="M -28.0 0.525903952148341L-28.0 0.5630358118103871"/>
<path stroke="#000000" fill="none" stroke-width="0.8" d="M -28.0 0.5630358118103871L-28.0 0.5723980469880985"/>
<path stroke="#000000" fill="none" stroke-width="0.8" d="M -28.0 0.5630358118103871L-28.0 0.5723980469880985"/>
<path stroke="#000000" fill="none" stroke-width="0.8" d="M -28.0 0.5723980469880985L-28.0 14.25279314353729"/>
<path stroke="#000000" fill="none" stroke-width="0.8" d="M -28.0 0.5723980469880985L-28.0 14.25279314353729"/>
<path stroke="#000000" fill="none" stroke-width="0.8" d="M -40.0 14.25279314353729L-40.0 17.310956416827153"/>
<path stroke="#000000" fill="none" stroke-width="0.8" d="M -40.4 14.25279314353729L-28.0 14.25279314353729"/>
<path stroke="#000000" fill="none" stroke-width="0.8" d="M -28.0 14.25279314353729L-28.0 19.931047188486136"/>
<path stroke="#000000" fill="none" stroke-width="0.8" d="M -28.0 14.25279314353729L-28.0 19.931047188486136"/>
<path stroke="#000000" fill="none" stroke-width="0.8" d="M -28.0 19.931047188486136L-28.0 36.70964121285519"/>
<path stroke="#000000" fill="none" stroke-width="0.8" d="M -28.0 19.931047188486136L-28.0 36.70964121285519"/>
<path stroke="#000000" fill="none" stroke-width="0.8" d="M -28.0 36.70964121285519L-28.0 43.13804226535863"/>
<path stroke="#000000" fill="none" stroke-width="0.8" d="M -28.0 36.70964121285519L-28.0 43.13804226535863"/>
<path stroke="#000000" fill="none" stroke-width="0.8" d="M -16.0 36.70964121285519L-16.0 51.12347815223012"/>
<path stroke="#000000" fill="none" stroke-width="0.8" d="M -15.6 36.70964121285519L-28.0 36.70964121285519"/>
<path stroke="#000000" fill="none" stroke-width="0.8" d="M -16.0 51.12347815223012L-16.0 80.56028141420006"/>
<path stroke="#000000" fill="none" stroke-width="0.8" d="M -16.0 51.12347815223012L-16.0 80.56028141420006"/>
<path stroke="#000000" fill="none" stroke-width="0.8" d="M -8.0 51.12347815223012L-8.0 53.80364743839848"/>
<path stroke="#000000" fill="none" stroke-width="0.8" d="M -7.6 51.12347815223012L-16.0 51.12347815223012"/>
<path stroke="#000000" fill="none" stroke-width="0.8" d="M -8.0 53.80364743839848L-8.0 75.96761274948317"/>
<path stroke="#000000" fill="none" stroke-width="0.8" d="M -8.0 53.80364743839848L-8.0 75.96761274948317"/>
<path stroke="#000000" fill="none" stroke-width="0.8" d="M 0.0 53.80364743839848L0.0 59.854888927593045"/>
<path stroke="#000000" fill="none" stroke-width="0.8" d="M 0.4 53.80364743839848L-8.0 53.80364743839848"/>
<path stroke="#000000" fill="none" stroke-width="0.8" d="M 8.0 19.931047188486136L8.0 29.211508832559772"/>
<path stroke="#000000" fill="none" stroke-width="0.8" d="M 8.4 19.931047188486136L-28.0 19.931047188486136"/>
<path stroke="#000000" fill="none" stroke-width="0.8" d="M 16.0 0.5723980469880985L16.0 0.6269526758578642"/>
<path stroke="#000000" fill="none" stroke-width="0.8" d="M 16.4 0.5723980469880985L-28.0 0.5723980469880985"/>
<path stroke="#000000" fill="none" stroke-width="0.8" d="M 16.0 0.6269526758578642L16.0 3.631579317329371"/>
<path stroke="#000000" fill="none" stroke-width="0.8" d="M 16.0 0.6269526758578642L16.0 3.631579317329371"/>
<path stroke="#000000" fill="none" stroke-width="0.8" d="M 24.0 0.6269526758578642L24.0 3.2247142662908614"/>
<path stroke="#000000" fill="none" stroke-width="0.8" d="M 24.4 0.6269526758578642L16.0 0.6269526758578642"/>
<path stroke="#000000" fill="none" stroke-width="0.8" d="M 32.0 0.5630358118103871L32.0 0.6862468319833697"/>
<path stroke="#000000" fill="none" stroke-width="0.8" d="M 32.4 0.5630358118103871L-28.0 0.5630358118103871"/>
<path stroke="#000000" fill="none" stroke-width="0.8" d="M 32.0 0.6862468319833697L32.0 3.479046644380562"/>
<path stroke="#000000" fill="none" stroke-width="0.8" d="M 32.0 0.6862468319833697L32.0 3.479046644380562"/>
<path stroke="#000000" fill="none" stroke-width="0.8" d="M 40.0 0.6862468319833697L40.0 4.469507709972667"/>
<path stroke="#000000" fill="none" stroke-width="0.8" d="M 40.4 0.6862468319833697L32.0 0.6862468319833697"/>
<path stroke="#000000" fill="none" stroke-width="0.8" d="M 48.0 0.525903952148341L48.0 3.27928558363688"/>
<path stroke="#000000" fill="none" stroke-width="0.8" d="M 48.4 0.525903952148341L-28.0 0.525903952148341"/>
<path stroke="#000000" fill="none" stroke-width="0.8" d="M 56.0 0.5053938148338895L56.0 3.8767330334801384"/>
<path stroke="#000000" fill="none" stroke-width="0.8" d="M 56.4 0.5053938148338895L-28.0 0.5053938148338895"/>
<path stroke="#000000" fill="none" stroke-width="0.8" d="M 64.0 0.5038751634949024L64.0 0.5508031587172276"/>
<path stroke="#000000" fill="none" stroke-width="0.8" d="M 64.4 0.5038751634949024L-28.0 0.5038751634949024"/>
<path stroke="#000000" fill="none" stroke-width="0.8" d="M 64.0 0.5508031587172276L64.0 3.093042188657808"/>
<path stroke="#000000" fill="none" stroke-width="0.8" d="M 64.0 0.5508031587172276L64.0 3.093042188657808"/>
<path stroke="#000000" fill="none" stroke-width="0.8" d="M 72.0 0.5508031587172276L72.0 3.1512849707794"/>
<path stroke="#000000" fill="none" stroke-width="0.8" d="M 72.4 0.5508031587172276L64.0 0.5508031587172276"/>
<path stroke="#000000" fill="none" stroke-width="0.8" d="M 80.0 0.5035580824461029L80.0 3.4683660195788946"/>
<path stroke="#000000" fill="none" stroke-width="0.8" d="M 80.4 0.5035580824461029L-28.0 0.5035580824461029"/>
<path stroke="#000000" fill="none" stroke-width="0.8" d="M 88.0 0.449136961386358L88.0 0.6609804789369257"/>
<path stroke="#000000" fill="none" stroke-width="0.8" d="M 88.4 0.449136961386358L-28.0 0.449136961386358"/>
<path stroke="#000000" fill="none" stroke-width="0.8" d="M 88.0 0.6609804789369257L88.0 0.801313875745081"/>
<path stroke="#000000" fill="none" stroke-width="0.8" d="M 88.0 0.6609804789369257L88.0 0.801313875745081"/>
<path stroke="#000000" fill="none" stroke-width="0.8" d="M 88.0 0.801313875745081L88.0 3.3857580621284997"/>
<path stroke="#000000" fill="none" stroke-width="0.8" d="M 88.0 0.801313875745081L88.0 3.3857580621284997"/>
<path stroke="#000000" fill="none" stroke-width="0.8" d="M 96.0 0.801313875745081L96.0 3.441831342337252"/>
<path stroke="#000000" fill="none" stroke-width="0.8" d="M 96.4 0.801313875745081L88.0 0.801313875745081"/>
<path stroke="#000000" fill="none" stroke-width="0.8" d="M 104.0 0.6609804789369257L104.0 3.2983104465648494"/>
<path stroke="#000000" fill="none" stroke-width="0.8" d="M 104.4 0.6609804789369257L88.0 0.6609804789369257"/>
<path stroke="#000000" fill="none" stroke-width="0.8" d="M 112.0 0.3718526278605443L112.0 0.5687599591650305"/>
<path stroke="#000000" fill="none" stroke-width="0.8" d="M 112.4 0.3718526278605443L-28.0 0.3718526278605443"/>
<path stroke="#000000" fill="none" stroke-width="0.8" d="M 112.0 0.5687599591650305L112.0 4.170450215525986"/>
<path stroke="#000000" fill="none" stroke-width="0.8" d="M 112.0 0.5687599591650305L112.0 4.170450215525986"/>
<path stroke="#000000" fill="none" stroke-width="0.8" d="M 120.0 0.5687599591650305L120.0 3.5074170540099905"/>
<path stroke="#000000" fill="none" stroke-width="0.8" d="M 120.4 0.5687599591650305L112.0 0.5687599591650305"/>
</g>
</g>
<g transform="matrix(1.0 0.0 0.0 1.0 477.0 350.0)">
<g >
<path stroke="#000000" fill="none" stroke-width="4.0" d="M -28.0 0.3718526278605443L-28.0 -41.013170006698374"/>
<path stroke="#000000" fill="none" stroke-width="4.0" d="M -28.0 0.5723980469880985L-28.0 14.240096405128426L-28.0 0.5723980469880985L-28.0 14.240096405128426L-28.0 0.5630358118103871L-28.0 0.5723980469880985L-28.0 0.525903952148341L-28.0 0.5630358118103871L-28.0 0.5126699904800252L-28.0 0.525903952148341L-28.0 0.5053938148338895L-28.0 0.5126699904800252L-28.0 0.5038751634949024L-28.0 0.5053938148338895L-28.0 0.5035580824461029L-28.0 0.5038751634949024L-28.0 0.49157575649673246L-28.0 0.5035580824461029L-28.0 0.449136961386358L-28.0 0.49157575649673246L-28.0 0.3718526278605443L-28.0 0.449136961386358L-28.0 0.3718526278605443L-28.0 -41.013170006698374"/>
<path stroke="#000000" fill="#c64340" stroke-width="0.8" d="M -32.0 -45.013170006698374L-24.0 -45.013170006698374L-24.0 -37.013170006698374L-32.0 -37.013170006698374L-32.0 -45.013170006698374z"/>
<path stroke="#c64340" fill="#c64340" stroke-width="2.4" d="M -28.0 0.5723980469880985L-28.0 13.440096405128427L-28.0 0.5723980469880985L-28.0 13.440096405128427L-28.0 0.5630358118103871L-28.0 0.5723980469880985L-28.0 0.525903952148341L-28.0 0.5630358118103871L-28.0 0.5126699904800252L-28.0 0.525903952148341L-28.0 0.5053938148338895L-28.0 0.5126699904800252L-28.0 0.5038751634949024L-28.0 0.5053938148338895L-28.0 0.5035580824461029L-28.0 0.5038751634949024L-28.0 0.49157575649673246L-28.0 0.5035580824461029L-28.0 0.449136961386358L-28.0 0.49157575649673246L-28.0 0.3718526278605443L-28.0 0.449136961386358L-28.0 0.3718526278605443L-28.0 -41.013170006698374"/>
</g>
</g>
<g transform="matrix(1.0 0.0 0.0 1.0 747.0 350.0)">
<g >
<path stroke="#000000" fill="none" stroke-width="0.8" d="M -12.0 0.3607214142000568L-12.0 0.40946845333391596"/>
<path stroke="#000000" fill="none" stroke-width="0.8" d="M -12.0 0.3607214142000568L-12.0 0.40946845333391596"/>
<path stroke="#000000" fill="none" stroke-width="0.8" d="M -112.0 0.40946845333391596L-112.0 0.44750149071360273"/>
<path stroke="#000000" fill="none" stroke-width="0.8" d="M -112.4 0.40946845333391596L-12.0 0.40946845333391596"/>
<path stroke="#000000" fill="none" stroke-width="0.8" d="M -112.0 0.44750149071360273L-112.0 1.202421402476442"/>
<path stroke="#000000" fill="none" stroke-width="0.8" d="M -112.0 0.44750149071360273L-112.0 1.202421402476442"/>
<path stroke="#000000" fill="none" stroke-width="0.8" d="M -112.0 1.202421402476442L-112.0 4.552783206473166"/>
<path stroke="#000000" fill="none" stroke-width="0.8" d="M -112.0 1.202421402476442L-112.0 4.552783206473166"/>
<path stroke="#000000" fill="none" stroke-width="0.8" d="M -104.0 1.202421402476442L-104.0 7.444061717236981"/>
<path stroke="#000000" fill="none" stroke-width="0.8" d="M -103.6 1.202421402476442L-112.0 1.202421402476442"/>
<path stroke="#000000" fill="none" stroke-width="0.8" d="M -96.0 0.44750149071360273L-96.0 0.5285240429199999"/>
<path stroke="#000000" fill="none" stroke-width="0.8" d="M -95.6 0.44750149071360273L-112.0 0.44750149071360273"/>
<path stroke="#000000" fill="none" stroke-width="0.8" d="M -96.0 0.5285240429199999L-96.0 3.07818944479299"/>
<path stroke="#000000" fill="none" stroke-width="0.8" d="M -96.0 0.5285240429199999L-96.0 3.07818944479299"/>
<path stroke="#000000" fill="none" stroke-width="0.8" d="M -88.0 0.5285240429199999L-88.0 3.7667559749754713"/>
<path stroke="#000000" fill="none" stroke-width="0.8" d="M -87.6 0.5285240429199999L-96.0 0.5285240429199999"/>
<path stroke="#000000" fill="none" stroke-width="0.8" d="M -12.0 0.40946845333391596L-12.0 0.4332829089463833"/>
<path stroke="#000000" fill="none" stroke-width="0.8" d="M -12.0 0.40946845333391596L-12.0 0.4332829089463833"/>
<path stroke="#000000" fill="none" stroke-width="0.8" d="M -80.0 0.4332829089463833L-80.0 0.5703286759327755"/>
<path stroke="#000000" fill="none" stroke-width="0.8" d="M -80.4 0.4332829089463833L-12.0 0.4332829089463833"/>
<path stroke="#000000" fill="none" stroke-width="0.8" d="M -80.0 0.5703286759327755L-80.0 0.7484280945005758"/>
<path stroke="#000000" fill="none" stroke-width="0.8" d="M -80.0 0.5703286759327755L-80.0 0.7484280945005758"/>
<path stroke="#000000" fill="none" stroke-width="0.8" d="M -80.0 0.7484280945005758L-80.0 4.573143147501344"/>
<path stroke="#000000" fill="none" stroke-width="0.8" d="M -80.0 0.7484280945005758L-80.0 4.573143147501344"/>
<path stroke="#000000" fill="none" stroke-width="0.8" d="M -72.0 0.7484280945005758L-72.0 4.4428061479685"/>
<path stroke="#000000" fill="none" stroke-width="0.8" d="M -71.6 0.7484280945005758L-80.0 0.7484280945005758"/>
<path stroke="#000000" fill="none" stroke-width="0.8" d="M -64.0 0.5703286759327755L-64.0 4.606353215244029"/>
<path stroke="#000000" fill="none" stroke-width="0.8" d="M -63.6 0.5703286759327755L-80.0 0.5703286759327755"/>
<path stroke="#000000" fill="none" stroke-width="0.8" d="M -12.0 0.4332829089463833L-12.0 0.4601847326655825"/>
<path stroke="#000000" fill="none" stroke-width="0.8" d="M -12.0 0.4332829089463833L-12.0 0.4601847326655825"/>
<path stroke="#000000" fill="none" stroke-width="0.8" d="M -12.0 0.4601847326655825L-12.0 0.4797936922623933"/>
<path stroke="#000000" fill="none" stroke-width="0.8" d="M -12.0 0.4601847326655825L-12.0 0.4797936922623933"/>
<path stroke="#000000" fill="none" stroke-width="0.8" d="M -56.0 0.4797936922623933L-56.0 3.135430918339425"/>
<path stroke="#000000" fill="none" stroke-width="0.8" d="M -56.4 0.4797936922623933L-12.0 0.4797936922623933"/>
<path stroke="#000000" fill="none" stroke-width="0.8" d="M -12.0 0.4797936922623933L-12.0 0.5077135130330015"/>
<path stroke="#000000" fill="none" stroke-width="0.8" d="M -12.0 0.4797936922623933L-12.0 0.5077135130330015"/>
<path stroke="#000000" fill="none" stroke-width="0.8" d="M -12.0 0.5077135130330015L-12.0 0.5525721372000038"/>
<path stroke="#000000" fill="none" stroke-width="0.8" d="M -12.0 0.5077135130330015L-12.0 0.5525721372000038"/>
<path stroke="#000000" fill="none" stroke-width="0.8" d="M -12.0 0.5525721372000038L-12.0 0.6668548225778427"/>
<path stroke="#000000" fill="none" stroke-width="0.8" d="M -12.0 0.5525721372000038L-12.0 0.6668548225778427"/>
<path stroke="#000000" fill="none" stroke-width="0.8" d="M -12.0 0.6668548225778427L-12.0 5.63753416289249"/>
<path stroke="#000000" fill="none" stroke-width="0.8" d="M -12.0 0.6668548225778427L-12.0 5.63753416289249"/>
<path stroke="#000000" fill="none" stroke-width="0.8" d="M -12.0 5.63753416289249L-12.0 7.832235674872573"/>
<path stroke="#000000" fill="none" stroke-width="0.8" d="M -12.0 5.63753416289249L-12.0 7.832235674872573"/>
<path stroke="#000000" fill="none" stroke-width="0.8" d="M -12.0 7.832235674872573L-12.0 8.772464426944337"/>
<path stroke="#000000" fill="none" stroke-width="0.8" d="M -12.0 7.832235674872573L-12.0 8.772464426944337"/>
<path stroke="#000000" fill="none" stroke-width="0.8" d="M -48.0 8.772464426944337L-48.0 18.382356592244395"/>
<path stroke="#000000" fill="none" stroke-width="0.8" d="M -48.4 8.772464426944337L-12.0 8.772464426944337"/>
<path stroke="#000000" fill="none" stroke-width="0.8" d="M -48.0 18.382356592244395L-48.0 28.397111191432643"/>
<path stroke="#000000" fill="none" stroke-width="0.8" d="M -48.0 18.382356592244395L-48.0 28.397111191432643"/>
<path stroke="#000000" fill="none" stroke-width="0.8" d="M -40.0 18.382356592244395L-40.0 31.469459669537223"/>
<path stroke="#000000" fill="none" stroke-width="0.8" d="M -39.6 18.382356592244395L-48.0 18.382356592244395"/>
<path stroke="#000000" fill="none" stroke-width="0.8" d="M -12.0 8.772464426944337L-12.0 10.241050337173576"/>
<path stroke="#000000" fill="none" stroke-width="0.8" d="M -12.0 8.772464426944337L-12.0 10.241050337173576"/>
<path stroke="#000000" fill="none" stroke-width="0.8" d="M -32.0 10.241050337173576L-32.0 15.784795263526428"/>
<path stroke="#000000" fill="none" stroke-width="0.8" d="M -32.4 10.241050337173576L-12.0 10.241050337173576"/>
<path stroke="#000000" fill="none" stroke-width="0.8" d="M -12.0 10.241050337173576L-12.0 13.04154353712322"/>
<path stroke="#000000" fill="none" stroke-width="0.8" d="M -12.0 10.241050337173576L-12.0 13.04154353712322"/>
<path stroke="#000000" fill="none" stroke-width="0.8" d="M -12.0 13.04154353712322L-12.0 15.070695364677459"/>
<path stroke="#000000" fill="none" stroke-width="0.8" d="M -12.0 13.04154353712322L-12.0 15.070695364677459"/>
<path stroke="#000000" fill="none" stroke-width="0.8" d="M -24.0 15.070695364677459L-24.0 26.230946973844517"/>
<path stroke="#000000" fill="none" stroke-width="0.8" d="M -24.4 15.070695364677459L-12.0 15.070695364677459"/>
<path stroke="#000000" fill="none" stroke-width="0.8" d="M -12.0 15.070695364677459L-12.0 19.513835282171012"/>
<path stroke="#000000" fill="none" stroke-width="0.8" d="M -12.0 15.070695364677459L-12.0 19.513835282171012"/>
<path stroke="#000000" fill="none" stroke-width="0.8" d="M -12.0 19.513835282171012L-12.0 22.75974391330268"/>
<path stroke="#000000" fill="none" stroke-width="0.8" d="M -12.0 19.513835282171012L-12.0 22.75974391330268"/>
<path stroke="#000000" fill="none" stroke-width="0.8" d="M -12.0 22.75974391330268L-12.0 47.1866666042406"/>
<path stroke="#000000" fill="none" stroke-width="0.8" d="M -12.0 22.75974391330268L-12.0 47.1866666042406"/>
<path stroke="#000000" fill="none" stroke-width="0.8" d="M 0.0 22.75974391330268L0.0 27.143806624862012"/>
<path stroke="#000000" fill="none" stroke-width="0.8" d="M 0.4 22.75974391330268L-12.0 22.75974391330268"/>
<path stroke="#000000" fill="none" stroke-width="0.8" d="M 8.0 19.513835282171012L8.0 22.249076539972968"/>
<path stroke="#000000" fill="none" stroke-width="0.8" d="M 8.4 19.513835282171012L-12.0 19.513835282171012"/>
<path stroke="#000000" fill="none" stroke-width="0.8" d="M 16.0 13.04154353712322L16.0 17.849994199786295"/>
<path stroke="#000000" fill="none" stroke-width="0.8" d="M 16.4 13.04154353712322L-12.0 13.04154353712322"/>
<path stroke="#000000" fill="none" stroke-width="0.8" d="M 24.0 7.832235674872573L24.0 11.124037615698906"/>
<path stroke="#000000" fill="none" stroke-width="0.8" d="M 24.4 7.832235674872573L-12.0 7.832235674872573"/>
<path stroke="#000000" fill="none" stroke-width="0.8" d="M 32.0 5.63753416289249L32.0 16.011758540561853"/>
<path stroke="#000000" fill="none" stroke-width="0.8" d="M 32.4 5.63753416289249L-12.0 5.63753416289249"/>
<path stroke="#000000" fill="none" stroke-width="0.8" d="M 40.0 0.6668548225778427L40.0 3.249246326382191"/>
<path stroke="#000000" fill="none" stroke-width="0.8" d="M 40.4 0.6668548225778427L-12.0 0.6668548225778427"/>
<path stroke="#000000" fill="none" stroke-width="0.8" d="M 48.0 0.5525721372000038L48.0 4.5935030885295225"/>
<path stroke="#000000" fill="none" stroke-width="0.8" d="M 48.4 0.5525721372000038L-12.0 0.5525721372000038"/>
<path stroke="#000000" fill="none" stroke-width="0.8" d="M 56.0 0.5077135130330015L56.0 0.5550587201616419"/>
<path stroke="#000000" fill="none" stroke-width="0.8" d="M 56.4 0.5077135130330015L-12.0 0.5077135130330015"/>
<path stroke="#000000" fill="none" stroke-width="0.8" d="M 56.0 0.5550587201616419L56.0 0.7434549285772996"/>
<path stroke="#000000" fill="none" stroke-width="0.8" d="M 56.0 0.5550587201616419L56.0 0.7434549285772996"/>
<path stroke="#000000" fill="none" stroke-width="0.8" d="M 56.0 0.7434549285772996L56.0 3.2534184454453423"/>
<path stroke="#000000" fill="none" stroke-width="0.8" d="M 56.0 0.7434549285772996L56.0 3.2534184454453423"/>
<path stroke="#000000" fill="none" stroke-width="0.8" d="M 64.0 0.7434549285772996L64.0 3.3019819113404227"/>
<path stroke="#000000" fill="none" stroke-width="0.8" d="M 64.4 0.7434549285772996L56.0 0.7434549285772996"/>
<path stroke="#000000" fill="none" stroke-width="0.8" d="M 72.0 0.5550587201616419L72.0 3.2939714427391724"/>
<path stroke="#000000" fill="none" stroke-width="0.8" d="M 72.4 0.5550587201616419L56.0 0.5550587201616419"/>
<path stroke="#000000" fill="none" stroke-width="0.8" d="M 80.0 0.4601847326655825L80.0 3.165970829881692"/>
<path stroke="#000000" fill="none" stroke-width="0.8" d="M 80.4 0.4601847326655825L-12.0 0.4601847326655825"/>
<path stroke="#000000" fill="none" stroke-width="0.8" d="M 88.0 0.3607214142000568L88.0 2.887607045988241"/>
<path stroke="#000000" fill="none" stroke-width="0.8" d="M 88.4 0.3607214142000568L-12.0 0.3607214142000568"/>
</g>
</g>
<g transform="matrix(1.0 0.0 0.0 1.0 747.0 350.0)">
<g >
<path stroke="#000000" fill="none" stroke-width="4.0" d="M -12.0 0.3607214142000568L-12.0 -41.00203879303789"/>
<path stroke="#000000" fill="none" stroke-width="4.0" d="M -12.0 22.75974391330268L-12.0 47.1866666042406L-12.0 22.75974391330268L-12.0 47.1866666042406L-12.0 19.513835282171012L-12.0 22.75974391330268L-12.0 15.070695364677459L-12.0 19.513835282171012L-12.0 13.04154353712322L-12.0 15.070695364677459L-12.0 10.241050337173576L-12.0 13.04154353712322L-12.0 8.772464426944337L-12.0 10.241050337173576L-12.0 7.832235674872573L-12.0 8.772464426944337L-12.0 5.63753416289249L-12.0 7.832235674872573L-12.0 0.6668548225778427L-12.0 5.63753416289249L-12.0 0.5525721372000038L-12.0 0.6668548225778427L-12.0 0.5077135130330015L-12.0 0.5525721372000038L-12.0 0.4797936922623933L-12.0 0.5077135130330015L-12.0 0.4601847326655825L-12.0 0.4797936922623933L-12.0 0.4332829089463833L-12.0 0.4601847326655825L-12.0 0.40946845333391596L-12.0 0.4332829089463833L-12.0 0.3607214142000568L-12.0 0.40946845333391596L-12.0 0.3607214142000568L-12.0 -41.013170006698374"/>
<path stroke="#000000" fill="#3077cb" stroke-width="0.8" d="M -16.0 -45.013170006698374L-8.0 -45.013170006698374L-8.0 -37.013170006698374L-16.0 -37.013170006698374L-16.0 -45.013170006698374z"/>
<path stroke="#3077cb" fill="#3077cb" stroke-width="2.4" d="M -12.0 22.75974391330268L-12.0 46.46111444510383L-12.0 22.75974391330268L-12.0 46.46111444510383L-12.0 19.513835282171012L-12.0 22.75974391330268L-12.0 15.070695364677459L-12.0 19.513835282171012L-12.0 13.04154353712322L-12.0 15.070695364677459L-12.0 10.241050337173576L-12.0 13.04154353712322L-12.0 8.772464426944337L-12.0 10.241050337173576L-12.0 7.832235674872573L-12.0 8.772464426944337L-12.0 5.63753416289249L-12.0 7.832235674872573L-12.0 0.6668548225778427L-12.0 5.63753416289249L-12.0 0.5525721372000038L-12.0 0.6668548225778427L-12.0 0.5077135130330015L-12.0 0.5525721372000038L-12.0 0.4797936922623933L-12.0 0.5077135130330015L-12.0 0.4601847326655825L-12.0 0.4797936922623933L-12.0 0.4332829089463833L-12.0 0.4601847326655825L-12.0 0.40946845333391596L-12.0 0.4332829089463833L-12.0 0.3607214142000568L-12.0 0.40946845333391596L-12.0 0.3607214142000568L-12.0 -41.013170006698374"/>
</g>
</g>
</g>
</svg>